M48
; DRILL file {KiCad 6.0.10+dfsg-1~bpo11+1} date Wed Feb 15 11:52:58 2023
; FORMAT={-:-/ absolute / metric / decimal}
; #@! TF.CreationDate,2023-02-15T11:52:58+00:00
; #@! TF.GenerationSoftware,Kicad,Pcbnew,6.0.10+dfsg-1~bpo11+1
; #@! TF.FileFunction,Plated,1,2,PTH
FMAT,2
METRIC
; #@! TA.AperFunction,Plated,PTH,ViaDrill
T1C0.500
; #@! TA.AperFunction,Plated,PTH,ViaDrill
T2C0.600
; #@! TA.AperFunction,Plated,PTH,ComponentDrill
T3C0.889
; #@! TA.AperFunction,Plated,PTH,ComponentDrill
T4C0.914
; #@! TA.AperFunction,Plated,PTH,ComponentDrill
T5C0.920
; #@! TA.AperFunction,Plated,PTH,ComponentDrill
T6C2.300
; #@! TA.AperFunction,Plated,PTH,ComponentDrill
T7C3.200
%
G90
G05
T1
X144.374Y-110.242
X145.485Y-110.242
X145.485Y-111.354
X148.184Y-108.337
X151.517Y-111.036
X153.422Y-110.401
X153.74Y-109.29
T2
X135.007Y-107.226
X135.007Y-112.147
X154.851Y-106.75
X155.804Y-105.956
T3
X137.071Y-94.844
X137.071Y-97.384
X137.071Y-99.924
X139.611Y-94.844
X139.611Y-97.384
X139.611Y-99.924
X141.834Y-104.686
X143.421Y-88.494
X143.421Y-91.034
X144.374Y-104.686
X145.326Y-98.336
X145.326Y-100.876
X145.961Y-88.494
X145.961Y-91.034
X146.914Y-104.686
X148.501Y-88.494
X148.501Y-91.034
X151.041Y-88.494
X151.041Y-91.034
X153.105Y-95.796
X153.581Y-91.034
X157.391Y-95.637
X157.391Y-98.177
X157.391Y-100.717
X157.391Y-105.004
X157.391Y-107.544
X157.391Y-110.084
X157.391Y-112.624
X157.391Y-115.164
X159.931Y-95.637
X159.931Y-98.177
X159.931Y-100.717
X159.931Y-105.004
X159.931Y-107.544
X159.931Y-110.084
X159.931Y-112.624
T4
X153.581Y-88.494
X159.931Y-115.164
T5
X147.251Y-110.464
X147.251Y-112.464
X149.751Y-110.464
X149.751Y-112.464
T6
X142.501Y-115.164
X154.501Y-115.164
T7
X138.341Y-89.764
X138.341Y-120.244
X158.661Y-89.764
X158.661Y-120.244
T0
M30
