%TF.GenerationSoftware,KiCad,Pcbnew,6.0.4-6f826c9f35~116~ubuntu20.04.1*%
%TF.CreationDate,2022-04-05T13:29:32+00:00*%
%TF.ProjectId,USBI2C01A,55534249-3243-4303-9141-2e6b69636164,I2CUSB01A*%
%TF.SameCoordinates,Original*%
%TF.FileFunction,Soldermask,Bot*%
%TF.FilePolarity,Negative*%
%FSLAX46Y46*%
G04 Gerber Fmt 4.6, Leading zero omitted, Abs format (unit mm)*
G04 Created by KiCad (PCBNEW 6.0.4-6f826c9f35~116~ubuntu20.04.1) date 2022-04-05 13:29:32*
%MOMM*%
%LPD*%
G01*
G04 APERTURE LIST*
G04 Aperture macros list*
%AMRoundRect*
0 Rectangle with rounded corners*
0 $1 Rounding radius*
0 $2 $3 $4 $5 $6 $7 $8 $9 X,Y pos of 4 corners*
0 Add a 4 corners polygon primitive as box body*
4,1,4,$2,$3,$4,$5,$6,$7,$8,$9,$2,$3,0*
0 Add four circle primitives for the rounded corners*
1,1,$1+$1,$2,$3*
1,1,$1+$1,$4,$5*
1,1,$1+$1,$6,$7*
1,1,$1+$1,$8,$9*
0 Add four rect primitives between the rounded corners*
20,1,$1+$1,$2,$3,$4,$5,0*
20,1,$1+$1,$4,$5,$6,$7,0*
20,1,$1+$1,$6,$7,$8,$9,0*
20,1,$1+$1,$8,$9,$2,$3,0*%
G04 Aperture macros list end*
%ADD10C,6.654800*%
%ADD11RoundRect,0.101600X0.825500X-0.825500X0.825500X0.825500X-0.825500X0.825500X-0.825500X-0.825500X0*%
%ADD12RoundRect,0.101600X-0.825500X0.825500X-0.825500X-0.825500X0.825500X-0.825500X0.825500X0.825500X0*%
%ADD13RoundRect,0.101600X0.825500X0.825500X-0.825500X0.825500X-0.825500X-0.825500X0.825500X-0.825500X0*%
%ADD14C,1.625600*%
%ADD15C,4.013200*%
%ADD16C,3.100000*%
%ADD17RoundRect,0.101600X-0.525000X0.750000X-0.525000X-0.750000X0.525000X-0.750000X0.525000X0.750000X0*%
%ADD18RoundRect,0.101600X-1.700000X0.950000X-1.700000X-0.950000X1.700000X-0.950000X1.700000X0.950000X0*%
%ADD19RoundRect,0.101600X0.647700X-0.495300X0.647700X0.495300X-0.647700X0.495300X-0.647700X-0.495300X0*%
%ADD20RoundRect,0.101600X0.495300X0.647700X-0.495300X0.647700X-0.495300X-0.647700X0.495300X-0.647700X0*%
%ADD21RoundRect,0.450000X-0.250000X-0.475000X0.250000X-0.475000X0.250000X0.475000X-0.250000X0.475000X0*%
%ADD22RoundRect,0.450000X-0.475000X0.250000X-0.475000X-0.250000X0.475000X-0.250000X0.475000X0.250000X0*%
%ADD23RoundRect,0.101600X0.175000X0.275000X-0.175000X0.275000X-0.175000X-0.275000X0.175000X-0.275000X0*%
%ADD24RoundRect,0.101600X-0.175000X-0.275000X0.175000X-0.275000X0.175000X0.275000X-0.175000X0.275000X0*%
%ADD25RoundRect,0.101600X0.125000X-0.350000X0.125000X0.350000X-0.125000X0.350000X-0.125000X-0.350000X0*%
%ADD26RoundRect,0.101600X-0.350000X-0.125000X0.350000X-0.125000X0.350000X0.125000X-0.350000X0.125000X0*%
%ADD27RoundRect,0.101600X-0.125000X0.350000X-0.125000X-0.350000X0.125000X-0.350000X0.125000X0.350000X0*%
%ADD28RoundRect,0.101600X0.350000X0.125000X-0.350000X0.125000X-0.350000X-0.125000X0.350000X-0.125000X0*%
%ADD29RoundRect,0.101600X1.350000X-1.350000X1.350000X1.350000X-1.350000X1.350000X-1.350000X-1.350000X0*%
%ADD30RoundRect,0.101600X-0.495300X-0.647700X0.495300X-0.647700X0.495300X0.647700X-0.495300X0.647700X0*%
%ADD31RoundRect,0.450000X0.475000X-0.250000X0.475000X0.250000X-0.475000X0.250000X-0.475000X-0.250000X0*%
G04 APERTURE END LIST*
D10*
%TO.C,X4*%
X138341100Y-89763600D03*
%TD*%
%TO.C,X3*%
X138341100Y-120243600D03*
%TD*%
D11*
%TO.C,SV7*%
X153104850Y-95796100D03*
%TD*%
%TO.C,SV4*%
X159931100Y-100717350D03*
X157391100Y-100717350D03*
X159931100Y-98177350D03*
X157391100Y-98177350D03*
X159931100Y-95637350D03*
X157391100Y-95637350D03*
%TD*%
D10*
%TO.C,X6*%
X158661100Y-89763600D03*
%TD*%
D12*
%TO.C,SV3*%
X146913600Y-104686100D03*
X144373600Y-104686100D03*
X141833600Y-104686100D03*
%TD*%
D11*
%TO.C,SV6*%
X139611100Y-99923600D03*
X137071100Y-99923600D03*
X139611100Y-97383600D03*
X137071100Y-97383600D03*
X139611100Y-94843600D03*
X137071100Y-94843600D03*
%TD*%
%TO.C,SV2*%
X159931100Y-115163600D03*
X157391100Y-115163600D03*
X159931100Y-112623600D03*
X157391100Y-112623600D03*
X159931100Y-110083600D03*
X157391100Y-110083600D03*
X159931100Y-107543600D03*
X157391100Y-107543600D03*
X159931100Y-105003600D03*
X157391100Y-105003600D03*
%TD*%
D10*
%TO.C,X5*%
X158661100Y-120243600D03*
%TD*%
D13*
%TO.C,SV5*%
X153581100Y-88493600D03*
X153581100Y-91033600D03*
X151041100Y-88493600D03*
X151041100Y-91033600D03*
X148501100Y-88493600D03*
X148501100Y-91033600D03*
X145961100Y-88493600D03*
X145961100Y-91033600D03*
X143421100Y-88493600D03*
X143421100Y-91033600D03*
%TD*%
%TO.C,SV1*%
X145326100Y-100876100D03*
X145326100Y-98336100D03*
%TD*%
D14*
%TO.C,X2*%
X149751100Y-110463600D03*
X147251100Y-110463600D03*
X147251100Y-112463600D03*
X149751100Y-112463600D03*
D15*
X142501100Y-115163600D03*
X154501100Y-115163600D03*
%TD*%
D16*
%TO.C,D2*%
X137706100Y-104823600D03*
D17*
X139706100Y-104823600D03*
X135706100Y-104823600D03*
%TD*%
D18*
%TO.C,P1*%
X148501100Y-115277350D03*
X148501100Y-119177350D03*
%TD*%
D19*
%TO.C,R5*%
X147707350Y-100079850D03*
X147707350Y-98179850D03*
%TD*%
D16*
%TO.C,D1*%
X137706100Y-114823600D03*
D17*
X139706100Y-114823600D03*
X135706100Y-114823600D03*
%TD*%
D20*
%TO.C,R4*%
X143101100Y-108178600D03*
X141201100Y-108178600D03*
%TD*%
%TO.C,R3*%
X143101100Y-109924850D03*
X141201100Y-109924850D03*
%TD*%
D21*
%TO.C,C1*%
X153583600Y-111988600D03*
X155483600Y-111988600D03*
%TD*%
D16*
%TO.C,D3*%
X137706100Y-109823600D03*
D17*
X139706100Y-109823600D03*
X135706100Y-109823600D03*
%TD*%
D22*
%TO.C,C3*%
X146913600Y-106593600D03*
X146913600Y-108493600D03*
%TD*%
D23*
%TO.C,D4*%
X152334850Y-110123600D03*
X151834850Y-110123600D03*
X151334850Y-110123600D03*
D24*
X151334850Y-108773600D03*
X152334850Y-108773600D03*
%TD*%
D25*
%TO.C,X1*%
X152926100Y-107613600D03*
X152426100Y-107613600D03*
X151926100Y-107613600D03*
X151426100Y-107613600D03*
X150926100Y-107613600D03*
X150426100Y-107613600D03*
D26*
X149701100Y-106888600D03*
X149701100Y-106388600D03*
X149701100Y-105888600D03*
X149701100Y-105388600D03*
X149701100Y-104888600D03*
X149701100Y-104388600D03*
D27*
X150426100Y-103663600D03*
X150926100Y-103663600D03*
X151426100Y-103663600D03*
X151926100Y-103663600D03*
X152426100Y-103663600D03*
X152926100Y-103663600D03*
D28*
X153651100Y-104388600D03*
X153651100Y-104888600D03*
X153651100Y-105388600D03*
X153651100Y-105888600D03*
X153651100Y-106388600D03*
X153651100Y-106888600D03*
D29*
X151676100Y-105638600D03*
%TD*%
D30*
%TO.C,R1*%
X141201100Y-111829850D03*
X143101100Y-111829850D03*
%TD*%
D31*
%TO.C,C4*%
X152469850Y-101191100D03*
X152469850Y-99291100D03*
%TD*%
D22*
%TO.C,C2*%
X144849850Y-106593600D03*
X144849850Y-108493600D03*
%TD*%
M02*
