%TF.GenerationSoftware,KiCad,Pcbnew,6.0.10+dfsg-1~bpo11+1*%
%TF.CreationDate,2023-02-13T18:49:42+00:00*%
%TF.ProjectId,USBI2C01,55534249-3243-4303-912e-6b696361645f,I2CUSB01A*%
%TF.SameCoordinates,Original*%
%TF.FileFunction,Soldermask,Top*%
%TF.FilePolarity,Negative*%
%FSLAX46Y46*%
G04 Gerber Fmt 4.6, Leading zero omitted, Abs format (unit mm)*
G04 Created by KiCad (PCBNEW 6.0.10+dfsg-1~bpo11+1) date 2023-02-13 18:49:42*
%MOMM*%
%LPD*%
G01*
G04 APERTURE LIST*
G04 Aperture macros list*
%AMRoundRect*
0 Rectangle with rounded corners*
0 $1 Rounding radius*
0 $2 $3 $4 $5 $6 $7 $8 $9 X,Y pos of 4 corners*
0 Add a 4 corners polygon primitive as box body*
4,1,4,$2,$3,$4,$5,$6,$7,$8,$9,$2,$3,0*
0 Add four circle primitives for the rounded corners*
1,1,$1+$1,$2,$3*
1,1,$1+$1,$4,$5*
1,1,$1+$1,$6,$7*
1,1,$1+$1,$8,$9*
0 Add four rect primitives between the rounded corners*
20,1,$1+$1,$2,$3,$4,$5,0*
20,1,$1+$1,$4,$5,$6,$7,0*
20,1,$1+$1,$6,$7,$8,$9,0*
20,1,$1+$1,$8,$9,$2,$3,0*%
G04 Aperture macros list end*
%ADD10C,6.654800*%
%ADD11RoundRect,0.101600X0.825500X-0.825500X0.825500X0.825500X-0.825500X0.825500X-0.825500X-0.825500X0*%
%ADD12RoundRect,0.101600X-0.825500X0.825500X-0.825500X-0.825500X0.825500X-0.825500X0.825500X0.825500X0*%
%ADD13RoundRect,0.101600X0.825500X0.825500X-0.825500X0.825500X-0.825500X-0.825500X0.825500X-0.825500X0*%
%ADD14C,1.625600*%
%ADD15C,4.013200*%
%ADD16C,3.100000*%
G04 APERTURE END LIST*
D10*
%TO.C,X4*%
X138341100Y-89763600D03*
%TD*%
%TO.C,X3*%
X138341100Y-120243600D03*
%TD*%
D11*
%TO.C,SV7*%
X153104850Y-95796100D03*
%TD*%
%TO.C,SV4*%
X159931100Y-100717350D03*
X157391100Y-100717350D03*
X159931100Y-98177350D03*
X157391100Y-98177350D03*
X159931100Y-95637350D03*
X157391100Y-95637350D03*
%TD*%
D10*
%TO.C,X6*%
X158661100Y-89763600D03*
%TD*%
D12*
%TO.C,SV3*%
X146913600Y-104686100D03*
X144373600Y-104686100D03*
X141833600Y-104686100D03*
%TD*%
D11*
%TO.C,SV6*%
X139611100Y-99923600D03*
X137071100Y-99923600D03*
X139611100Y-97383600D03*
X137071100Y-97383600D03*
X139611100Y-94843600D03*
X137071100Y-94843600D03*
%TD*%
%TO.C,SV2*%
X159931100Y-115163600D03*
X157391100Y-115163600D03*
X159931100Y-112623600D03*
X157391100Y-112623600D03*
X159931100Y-110083600D03*
X157391100Y-110083600D03*
X159931100Y-107543600D03*
X157391100Y-107543600D03*
X159931100Y-105003600D03*
X157391100Y-105003600D03*
%TD*%
D10*
%TO.C,X5*%
X158661100Y-120243600D03*
%TD*%
D13*
%TO.C,SV5*%
X153581100Y-88493600D03*
X153581100Y-91033600D03*
X151041100Y-88493600D03*
X151041100Y-91033600D03*
X148501100Y-88493600D03*
X148501100Y-91033600D03*
X145961100Y-88493600D03*
X145961100Y-91033600D03*
X143421100Y-88493600D03*
X143421100Y-91033600D03*
%TD*%
%TO.C,SV1*%
X145326100Y-100876100D03*
X145326100Y-98336100D03*
%TD*%
D14*
%TO.C,X2*%
X149751100Y-110463600D03*
X147251100Y-110463600D03*
X147251100Y-112463600D03*
X149751100Y-112463600D03*
D15*
X142501100Y-115163600D03*
X154501100Y-115163600D03*
%TD*%
D16*
%TO.C,D2*%
X137706100Y-104823600D03*
%TD*%
%TO.C,D1*%
X137706100Y-114823600D03*
%TD*%
%TO.C,D3*%
X137706100Y-109823600D03*
%TD*%
M02*
