%TF.GenerationSoftware,KiCad,Pcbnew,6.0.10+dfsg-1~bpo11+1*%
%TF.CreationDate,2023-02-13T23:12:56+00:00*%
%TF.ProjectId,USBI2C01,55534249-3243-4303-912e-6b696361645f,I2CUSB01A*%
%TF.SameCoordinates,Original*%
%TF.FileFunction,Legend,Bot*%
%TF.FilePolarity,Positive*%
%FSLAX46Y46*%
G04 Gerber Fmt 4.6, Leading zero omitted, Abs format (unit mm)*
G04 Created by KiCad (PCBNEW 6.0.10+dfsg-1~bpo11+1) date 2023-02-13 23:12:56*
%MOMM*%
%LPD*%
G01*
G04 APERTURE LIST*
%ADD10C,0.093472*%
%ADD11C,0.150000*%
%ADD12C,0.127000*%
%ADD13C,0.120000*%
%ADD14C,0.101600*%
G04 APERTURE END LIST*
D10*
%TO.C,D2*%
X135307717Y-105887088D02*
X135307717Y-104710560D01*
X135027591Y-104710560D01*
X134859516Y-104766586D01*
X134747466Y-104878636D01*
X134691440Y-104990686D01*
X134635415Y-105214787D01*
X134635415Y-105382862D01*
X134691440Y-105606963D01*
X134747466Y-105719013D01*
X134859516Y-105831063D01*
X135027591Y-105887088D01*
X135307717Y-105887088D01*
X134187214Y-104822611D02*
X134131189Y-104766586D01*
X134019139Y-104710560D01*
X133739013Y-104710560D01*
X133626963Y-104766586D01*
X133570938Y-104822611D01*
X133514912Y-104934661D01*
X133514912Y-105046711D01*
X133570938Y-105214787D01*
X134243239Y-105887088D01*
X133514912Y-105887088D01*
%TO.C,P1*%
X146493338Y-113244688D02*
X145316810Y-113244688D01*
X145316810Y-113692889D01*
X145372836Y-113804939D01*
X145428861Y-113860964D01*
X145540911Y-113916989D01*
X145708986Y-113916989D01*
X145821037Y-113860964D01*
X145877062Y-113804939D01*
X145933087Y-113692889D01*
X145933087Y-113244688D01*
X146493338Y-115037492D02*
X146493338Y-114365190D01*
X146493338Y-114701341D02*
X145316810Y-114701341D01*
X145484886Y-114589291D01*
X145596936Y-114477241D01*
X145652961Y-114365190D01*
%TO.C,R5*%
X149509588Y-100778034D02*
X148949337Y-100385858D01*
X149509588Y-100105732D02*
X148333060Y-100105732D01*
X148333060Y-100553933D01*
X148389086Y-100665983D01*
X148445111Y-100722009D01*
X148557161Y-100778034D01*
X148725236Y-100778034D01*
X148837287Y-100722009D01*
X148893312Y-100665983D01*
X148949337Y-100553933D01*
X148949337Y-100105732D01*
X148333060Y-101842511D02*
X148333060Y-101282260D01*
X148893312Y-101226235D01*
X148837287Y-101282260D01*
X148781262Y-101394310D01*
X148781262Y-101674436D01*
X148837287Y-101786486D01*
X148893312Y-101842511D01*
X149005362Y-101898537D01*
X149285488Y-101898537D01*
X149397538Y-101842511D01*
X149453563Y-101786486D01*
X149509588Y-101674436D01*
X149509588Y-101394310D01*
X149453563Y-101282260D01*
X149397538Y-101226235D01*
%TO.C,D1*%
X135307717Y-115887088D02*
X135307717Y-114710560D01*
X135027591Y-114710560D01*
X134859516Y-114766586D01*
X134747466Y-114878636D01*
X134691440Y-114990686D01*
X134635415Y-115214787D01*
X134635415Y-115382862D01*
X134691440Y-115606963D01*
X134747466Y-115719013D01*
X134859516Y-115831063D01*
X135027591Y-115887088D01*
X135307717Y-115887088D01*
X133514912Y-115887088D02*
X134187214Y-115887088D01*
X133851063Y-115887088D02*
X133851063Y-114710560D01*
X133963114Y-114878636D01*
X134075164Y-114990686D01*
X134187214Y-115046711D01*
%TO.C,R4*%
X142090415Y-107758338D02*
X142482591Y-107198087D01*
X142762717Y-107758338D02*
X142762717Y-106581810D01*
X142314516Y-106581810D01*
X142202466Y-106637836D01*
X142146440Y-106693861D01*
X142090415Y-106805911D01*
X142090415Y-106973986D01*
X142146440Y-107086037D01*
X142202466Y-107142062D01*
X142314516Y-107198087D01*
X142762717Y-107198087D01*
X141081963Y-106973986D02*
X141081963Y-107758338D01*
X141362088Y-106525785D02*
X141642214Y-107366162D01*
X140913887Y-107366162D01*
%TO.C,R3*%
X141254588Y-107249489D02*
X140694337Y-106857313D01*
X141254588Y-106577188D02*
X140078060Y-106577188D01*
X140078060Y-107025389D01*
X140134086Y-107137439D01*
X140190111Y-107193464D01*
X140302161Y-107249489D01*
X140470236Y-107249489D01*
X140582287Y-107193464D01*
X140638312Y-107137439D01*
X140694337Y-107025389D01*
X140694337Y-106577188D01*
X140078060Y-107641665D02*
X140078060Y-108369992D01*
X140526262Y-107977816D01*
X140526262Y-108145892D01*
X140582287Y-108257942D01*
X140638312Y-108313967D01*
X140750362Y-108369992D01*
X141030488Y-108369992D01*
X141142538Y-108313967D01*
X141198563Y-108257942D01*
X141254588Y-108145892D01*
X141254588Y-107809741D01*
X141198563Y-107697690D01*
X141142538Y-107641665D01*
D11*
%TO.C,C1*%
X154700266Y-114025742D02*
X154747885Y-114073361D01*
X154890742Y-114120980D01*
X154985980Y-114120980D01*
X155128838Y-114073361D01*
X155224076Y-113978123D01*
X155271695Y-113882885D01*
X155319314Y-113692409D01*
X155319314Y-113549552D01*
X155271695Y-113359076D01*
X155224076Y-113263838D01*
X155128838Y-113168600D01*
X154985980Y-113120980D01*
X154890742Y-113120980D01*
X154747885Y-113168600D01*
X154700266Y-113216219D01*
X153747885Y-114120980D02*
X154319314Y-114120980D01*
X154033600Y-114120980D02*
X154033600Y-113120980D01*
X154128838Y-113263838D01*
X154224076Y-113359076D01*
X154319314Y-113406695D01*
D10*
%TO.C,D3*%
X135307717Y-110887088D02*
X135307717Y-109710560D01*
X135027591Y-109710560D01*
X134859516Y-109766586D01*
X134747466Y-109878636D01*
X134691440Y-109990686D01*
X134635415Y-110214787D01*
X134635415Y-110382862D01*
X134691440Y-110606963D01*
X134747466Y-110719013D01*
X134859516Y-110831063D01*
X135027591Y-110887088D01*
X135307717Y-110887088D01*
X134243239Y-109710560D02*
X133514912Y-109710560D01*
X133907088Y-110158762D01*
X133739013Y-110158762D01*
X133626963Y-110214787D01*
X133570938Y-110270812D01*
X133514912Y-110382862D01*
X133514912Y-110662988D01*
X133570938Y-110775038D01*
X133626963Y-110831063D01*
X133739013Y-110887088D01*
X134075164Y-110887088D01*
X134187214Y-110831063D01*
X134243239Y-110775038D01*
D11*
%TO.C,C3*%
X145590742Y-107376933D02*
X145638361Y-107329314D01*
X145685980Y-107186457D01*
X145685980Y-107091219D01*
X145638361Y-106948361D01*
X145543123Y-106853123D01*
X145447885Y-106805504D01*
X145257409Y-106757885D01*
X145114552Y-106757885D01*
X144924076Y-106805504D01*
X144828838Y-106853123D01*
X144733600Y-106948361D01*
X144685980Y-107091219D01*
X144685980Y-107186457D01*
X144733600Y-107329314D01*
X144781219Y-107376933D01*
X144685980Y-107710266D02*
X144685980Y-108329314D01*
X145066933Y-107995980D01*
X145066933Y-108138838D01*
X145114552Y-108234076D01*
X145162171Y-108281695D01*
X145257409Y-108329314D01*
X145495504Y-108329314D01*
X145590742Y-108281695D01*
X145638361Y-108234076D01*
X145685980Y-108138838D01*
X145685980Y-107853123D01*
X145638361Y-107757885D01*
X145590742Y-107710266D01*
D10*
%TO.C,D4*%
X150430217Y-109933338D02*
X150430217Y-108756810D01*
X150150091Y-108756810D01*
X149982016Y-108812836D01*
X149869966Y-108924886D01*
X149813940Y-109036936D01*
X149757915Y-109261037D01*
X149757915Y-109429112D01*
X149813940Y-109653213D01*
X149869966Y-109765263D01*
X149982016Y-109877313D01*
X150150091Y-109933338D01*
X150430217Y-109933338D01*
X148749463Y-109148986D02*
X148749463Y-109933338D01*
X149029588Y-108700785D02*
X149309714Y-109541162D01*
X148581387Y-109541162D01*
%TO.C,X1*%
X152292267Y-104466810D02*
X151507915Y-105643338D01*
X151507915Y-104466810D02*
X152292267Y-105643338D01*
X150443438Y-105643338D02*
X151115739Y-105643338D01*
X150779588Y-105643338D02*
X150779588Y-104466810D01*
X150891639Y-104634886D01*
X151003689Y-104746936D01*
X151115739Y-104802961D01*
%TO.C,R1*%
X139746460Y-111727088D02*
X140138636Y-111166837D01*
X140418761Y-111727088D02*
X140418761Y-110550560D01*
X139970560Y-110550560D01*
X139858510Y-110606586D01*
X139802485Y-110662611D01*
X139746460Y-110774661D01*
X139746460Y-110942736D01*
X139802485Y-111054787D01*
X139858510Y-111110812D01*
X139970560Y-111166837D01*
X140418761Y-111166837D01*
X138625957Y-111727088D02*
X139298259Y-111727088D01*
X138962108Y-111727088D02*
X138962108Y-110550560D01*
X139074158Y-110718636D01*
X139186208Y-110830686D01*
X139298259Y-110886711D01*
D11*
%TO.C,C4*%
X154506992Y-100074433D02*
X154554611Y-100026814D01*
X154602230Y-99883957D01*
X154602230Y-99788719D01*
X154554611Y-99645861D01*
X154459373Y-99550623D01*
X154364135Y-99503004D01*
X154173659Y-99455385D01*
X154030802Y-99455385D01*
X153840326Y-99503004D01*
X153745088Y-99550623D01*
X153649850Y-99645861D01*
X153602230Y-99788719D01*
X153602230Y-99883957D01*
X153649850Y-100026814D01*
X153697469Y-100074433D01*
X153935564Y-100931576D02*
X154602230Y-100931576D01*
X153554611Y-100693480D02*
X154268897Y-100455385D01*
X154268897Y-101074433D01*
%TO.C,C2*%
X143526992Y-107376933D02*
X143574611Y-107329314D01*
X143622230Y-107186457D01*
X143622230Y-107091219D01*
X143574611Y-106948361D01*
X143479373Y-106853123D01*
X143384135Y-106805504D01*
X143193659Y-106757885D01*
X143050802Y-106757885D01*
X142860326Y-106805504D01*
X142765088Y-106853123D01*
X142669850Y-106948361D01*
X142622230Y-107091219D01*
X142622230Y-107186457D01*
X142669850Y-107329314D01*
X142717469Y-107376933D01*
X142717469Y-107757885D02*
X142669850Y-107805504D01*
X142622230Y-107900742D01*
X142622230Y-108138838D01*
X142669850Y-108234076D01*
X142717469Y-108281695D01*
X142812707Y-108329314D01*
X142907945Y-108329314D01*
X143050802Y-108281695D01*
X143622230Y-107710266D01*
X143622230Y-108329314D01*
D12*
%TO.C,D2*%
X137976100Y-104333600D02*
X137476100Y-104833600D01*
X137406100Y-104333600D02*
X137406100Y-105333600D01*
X139306100Y-104023600D02*
X139306100Y-105623600D01*
X139306100Y-105623600D02*
X136106100Y-105623600D01*
X136106100Y-105623600D02*
X136106100Y-104023600D01*
X137976100Y-104333600D02*
X137976100Y-105333600D01*
X136106100Y-104023600D02*
X139306100Y-104023600D01*
X137976100Y-105333600D02*
X137476100Y-104833600D01*
%TO.C,D1*%
X137976100Y-115333600D02*
X137476100Y-114833600D01*
X136106100Y-115623600D02*
X136106100Y-114023600D01*
X139306100Y-115623600D02*
X136106100Y-115623600D01*
X137976100Y-114333600D02*
X137476100Y-114833600D01*
X136106100Y-114023600D02*
X139306100Y-114023600D01*
X137976100Y-114333600D02*
X137976100Y-115333600D01*
X139306100Y-114023600D02*
X139306100Y-115623600D01*
X137406100Y-114333600D02*
X137406100Y-115333600D01*
D13*
%TO.C,C1*%
X154272348Y-112723600D02*
X154794852Y-112723600D01*
X154272348Y-111253600D02*
X154794852Y-111253600D01*
D12*
%TO.C,D3*%
X137976100Y-109333600D02*
X137976100Y-110333600D01*
X137976100Y-109333600D02*
X137476100Y-109833600D01*
X137406100Y-109333600D02*
X137406100Y-110333600D01*
X139306100Y-110623600D02*
X136106100Y-110623600D01*
X139306100Y-109023600D02*
X139306100Y-110623600D01*
X136106100Y-110623600D02*
X136106100Y-109023600D01*
X137976100Y-110333600D02*
X137476100Y-109833600D01*
X136106100Y-109023600D02*
X139306100Y-109023600D01*
D13*
%TO.C,C3*%
X147648600Y-107282348D02*
X147648600Y-107804852D01*
X146178600Y-107282348D02*
X146178600Y-107804852D01*
D14*
%TO.C,D4*%
X151034850Y-108848600D02*
X151034850Y-110048600D01*
X152634850Y-110048600D02*
X152634850Y-108848600D01*
G36*
X152584850Y-109773600D02*
G01*
X151834850Y-109773600D01*
X151834850Y-109448600D01*
X152584850Y-109448600D01*
X152584850Y-109773600D01*
G37*
D12*
%TO.C,X1*%
X149676100Y-103638600D02*
X153676100Y-103638600D01*
X153676100Y-107638600D02*
X149676100Y-107638600D01*
X149676100Y-107638600D02*
X149676100Y-103638600D01*
X153676100Y-103638600D02*
X153676100Y-107638600D01*
X153379703Y-107162600D02*
G75*
G03*
X153379703Y-107162600I-179603J0D01*
G01*
D13*
%TO.C,C4*%
X153204850Y-100502352D02*
X153204850Y-99979848D01*
X151734850Y-100502352D02*
X151734850Y-99979848D01*
%TO.C,C2*%
X145584850Y-107282348D02*
X145584850Y-107804852D01*
X144114850Y-107282348D02*
X144114850Y-107804852D01*
%TD*%
M02*
