  0
SECTION
  2
HEADER
  9
$ANGBASE
  50
0.0
  9
$ANGDIR
  70
1
  9
$MEASUREMENT
  70
0
  0
ENDSEC
  0
SECTION
  2
TABLES
  0
TABLE
  2
LTYPE
  70
4
  0
LTYPE
  5
40F
  2
CONTINUOUS
  70
0
  3
Solid line
  72
65
  73
0
  40
0.0
  0
LTYPE
  5
410
  2
DASHDOT
 70
0
  3
Dash Dot ____ _ ____ _
 72
65
 73
4
 40
2.0
 49
1.25
 49
-0.25
 49
0.25
 49
-0.25
  0
LTYPE
  5
411
  2
DASHED
 70
0
  3
Dashed __ __ __ __ __
 72
65
 73
2
 40
0.75
 49
0.5
 49
-0.25
  0
LTYPE
  5
43B
  2
DOTTED
 70
0
  3
Dotted .  .  .  .
 72
65
 73
2
 40
0.2
 49
0.0
 49
-0.2
  0
ENDTAB
  0
TABLE
  2
STYLE
  70
4
  0
STYLE
  2
KICAD
  70
0
  40
0
  41
1
  42
1
  50
0
  71
0
  3
isocp.shx
  0
STYLE
  2
KICADB
  70
0
  40
0
  41
1
  42
1
  50
0
  71
0
  3
isocp.shx
  0
STYLE
  2
KICADI
  70
0
  40
0
  41
1
  42
1
  50
15
  71
0
  3
isocp.shx
  0
STYLE
  2
KICADBI
  70
0
  40
0
  41
1
  42
1
  50
15
  71
0
  3
isocp.shx
  0
ENDTAB
  0
TABLE
  2
LAYER
  70
1
  0
LAYER
  2
BLACK
  70
0
  62
7
  6
CONTINUOUS
  0
ENDTAB
  0
ENDSEC
  0
SECTION
  2
ENTITIES
0
LINE
8
BLACK
6
CONTINUOUS
10
5.87389
20
-4.85806
11
5.87443
21
-4.85937
0
LINE
8
BLACK
6
CONTINUOUS
10
5.87443
20
-4.85937
11
5.87389
21
-4.86067
0
LINE
8
BLACK
6
CONTINUOUS
10
5.87389
20
-4.86067
11
5.87259
21
-4.86121
0
LINE
8
BLACK
6
CONTINUOUS
10
5.87259
20
-4.86121
11
5.8373
21
-4.86121
0
LINE
8
BLACK
6
CONTINUOUS
10
5.8373
20
-4.86121
11
5.836
21
-4.86067
0
LINE
8
BLACK
6
CONTINUOUS
10
5.836
20
-4.86067
11
5.83546
21
-4.85937
0
LINE
8
BLACK
6
CONTINUOUS
10
5.83546
20
-4.85937
11
5.836
21
-4.85806
0
LINE
8
BLACK
6
CONTINUOUS
10
5.836
20
-4.85806
11
5.8373
21
-4.85753
0
LINE
8
BLACK
6
CONTINUOUS
10
5.8373
20
-4.85753
11
5.87259
21
-4.85753
0
LINE
8
BLACK
6
CONTINUOUS
10
5.87259
20
-4.85753
11
5.87389
21
-4.85806
0
LINE
8
BLACK
6
CONTINUOUS
10
5.81784
20
-4.80696
11
5.81827
21
-4.80699
0
LINE
8
BLACK
6
CONTINUOUS
10
5.81827
20
-4.80699
11
5.82268
21
-4.80919
0
LINE
8
BLACK
6
CONTINUOUS
10
5.82268
20
-4.80919
11
5.82288
21
-4.80942
0
LINE
8
BLACK
6
CONTINUOUS
10
5.82288
20
-4.80942
11
5.82316
21
-4.80954
0
LINE
8
BLACK
6
CONTINUOUS
10
5.82316
20
-4.80954
11
5.82537
21
-4.81174
0
LINE
8
BLACK
6
CONTINUOUS
10
5.82537
20
-4.81174
11
5.82548
21
-4.81202
0
LINE
8
BLACK
6
CONTINUOUS
10
5.82548
20
-4.81202
11
5.82571
21
-4.81222
0
LINE
8
BLACK
6
CONTINUOUS
10
5.82571
20
-4.81222
11
5.82792
21
-4.81663
0
LINE
8
BLACK
6
CONTINUOUS
10
5.82792
20
-4.81663
11
5.82795
21
-4.81706
0
LINE
8
BLACK
6
CONTINUOUS
10
5.82795
20
-4.81706
11
5.82811
21
-4.81746
0
LINE
8
BLACK
6
CONTINUOUS
10
5.82811
20
-4.81746
11
5.82811
21
-4.82187
0
LINE
8
BLACK
6
CONTINUOUS
10
5.82811
20
-4.82187
11
5.82795
21
-4.82226
0
LINE
8
BLACK
6
CONTINUOUS
10
5.82795
20
-4.82226
11
5.82792
21
-4.82269
0
LINE
8
BLACK
6
CONTINUOUS
10
5.82792
20
-4.82269
11
5.82571
21
-4.8271
0
LINE
8
BLACK
6
CONTINUOUS
10
5.82571
20
-4.8271
11
5.82548
21
-4.8273
0
LINE
8
BLACK
6
CONTINUOUS
10
5.82548
20
-4.8273
11
5.82537
21
-4.82758
0
LINE
8
BLACK
6
CONTINUOUS
10
5.82537
20
-4.82758
11
5.82316
21
-4.82979
0
LINE
8
BLACK
6
CONTINUOUS
10
5.82316
20
-4.82979
11
5.82288
21
-4.8299
0
LINE
8
BLACK
6
CONTINUOUS
10
5.82288
20
-4.8299
11
5.82268
21
-4.83013
0
LINE
8
BLACK
6
CONTINUOUS
10
5.82268
20
-4.83013
11
5.82224
21
-4.83035
0
LINE
8
BLACK
6
CONTINUOUS
10
5.82224
20
-4.83035
11
5.82465
21
-4.83115
0
LINE
8
BLACK
6
CONTINUOUS
10
5.82465
20
-4.83115
11
5.82497
21
-4.83143
0
LINE
8
BLACK
6
CONTINUOUS
10
5.82497
20
-4.83143
11
5.82537
21
-4.8316
0
LINE
8
BLACK
6
CONTINUOUS
10
5.82537
20
-4.8316
11
5.82757
21
-4.8338
0
LINE
8
BLACK
6
CONTINUOUS
10
5.82757
20
-4.8338
11
5.82769
21
-4.83408
0
LINE
8
BLACK
6
CONTINUOUS
10
5.82769
20
-4.83408
11
5.82792
21
-4.83428
0
LINE
8
BLACK
6
CONTINUOUS
10
5.82792
20
-4.83428
11
5.83012
21
-4.83869
0
LINE
8
BLACK
6
CONTINUOUS
10
5.83012
20
-4.83869
11
5.83015
21
-4.83912
0
LINE
8
BLACK
6
CONTINUOUS
10
5.83015
20
-4.83912
11
5.83032
21
-4.83951
0
LINE
8
BLACK
6
CONTINUOUS
10
5.83032
20
-4.83951
11
5.83032
21
-4.84613
0
LINE
8
BLACK
6
CONTINUOUS
10
5.83032
20
-4.84613
11
5.83015
21
-4.84653
0
LINE
8
BLACK
6
CONTINUOUS
10
5.83015
20
-4.84653
11
5.83012
21
-4.84695
0
LINE
8
BLACK
6
CONTINUOUS
10
5.83012
20
-4.84695
11
5.82792
21
-4.85137
0
LINE
8
BLACK
6
CONTINUOUS
10
5.82792
20
-4.85137
11
5.82769
21
-4.85156
0
LINE
8
BLACK
6
CONTINUOUS
10
5.82769
20
-4.85156
11
5.82757
21
-4.85184
0
LINE
8
BLACK
6
CONTINUOUS
10
5.82757
20
-4.85184
11
5.82537
21
-4.85405
0
LINE
8
BLACK
6
CONTINUOUS
10
5.82537
20
-4.85405
11
5.82509
21
-4.85417
0
LINE
8
BLACK
6
CONTINUOUS
10
5.82509
20
-4.85417
11
5.82489
21
-4.85439
0
LINE
8
BLACK
6
CONTINUOUS
10
5.82489
20
-4.85439
11
5.82048
21
-4.8566
0
LINE
8
BLACK
6
CONTINUOUS
10
5.82048
20
-4.8566
11
5.82005
21
-4.85663
0
LINE
8
BLACK
6
CONTINUOUS
10
5.82005
20
-4.85663
11
5.81965
21
-4.85679
0
LINE
8
BLACK
6
CONTINUOUS
10
5.81965
20
-4.85679
11
5.80201
21
-4.85679
0
LINE
8
BLACK
6
CONTINUOUS
10
5.80201
20
-4.85679
11
5.80071
21
-4.85626
0
LINE
8
BLACK
6
CONTINUOUS
10
5.80071
20
-4.85626
11
5.80017
21
-4.85495
0
LINE
8
BLACK
6
CONTINUOUS
10
5.80017
20
-4.85495
11
5.80017
21
-4.80863
0
LINE
8
BLACK
6
CONTINUOUS
10
5.80017
20
-4.80863
11
5.80071
21
-4.80733
0
LINE
8
BLACK
6
CONTINUOUS
10
5.80071
20
-4.80733
11
5.80201
21
-4.80679
0
LINE
8
BLACK
6
CONTINUOUS
10
5.80201
20
-4.80679
11
5.81745
21
-4.80679
0
LINE
8
BLACK
6
CONTINUOUS
10
5.81745
20
-4.80679
11
5.81784
21
-4.80696
0
LINE
8
BLACK
6
CONTINUOUS
10
5.80385
20
-4.83253
11
5.80385
21
-4.85311
0
LINE
8
BLACK
6
CONTINUOUS
10
5.80385
20
-4.85311
11
5.81922
21
-4.85311
0
LINE
8
BLACK
6
CONTINUOUS
10
5.81922
20
-4.85311
11
5.82298
21
-4.85124
0
LINE
8
BLACK
6
CONTINUOUS
10
5.82298
20
-4.85124
11
5.82476
21
-4.84945
0
LINE
8
BLACK
6
CONTINUOUS
10
5.82476
20
-4.84945
11
5.82664
21
-4.8457
0
LINE
8
BLACK
6
CONTINUOUS
10
5.82664
20
-4.8457
11
5.82664
21
-4.83995
0
LINE
8
BLACK
6
CONTINUOUS
10
5.82664
20
-4.83995
11
5.82476
21
-4.83619
0
LINE
8
BLACK
6
CONTINUOUS
10
5.82476
20
-4.83619
11
5.82307
21
-4.83451
0
LINE
8
BLACK
6
CONTINUOUS
10
5.82307
20
-4.83451
11
5.81715
21
-4.83253
0
LINE
8
BLACK
6
CONTINUOUS
10
5.81715
20
-4.83253
11
5.80385
21
-4.83253
0
LINE
8
BLACK
6
CONTINUOUS
10
5.80385
20
-4.81047
11
5.80385
21
-4.82885
0
LINE
8
BLACK
6
CONTINUOUS
10
5.80385
20
-4.82885
11
5.81701
21
-4.82885
0
LINE
8
BLACK
6
CONTINUOUS
10
5.81701
20
-4.82885
11
5.82077
21
-4.82697
0
LINE
8
BLACK
6
CONTINUOUS
10
5.82077
20
-4.82697
11
5.82255
21
-4.82519
0
LINE
8
BLACK
6
CONTINUOUS
10
5.82255
20
-4.82519
11
5.82443
21
-4.82143
0
LINE
8
BLACK
6
CONTINUOUS
10
5.82443
20
-4.82143
11
5.82443
21
-4.81789
0
LINE
8
BLACK
6
CONTINUOUS
10
5.82443
20
-4.81789
11
5.82255
21
-4.81414
0
LINE
8
BLACK
6
CONTINUOUS
10
5.82255
20
-4.81414
11
5.82077
21
-4.81235
0
LINE
8
BLACK
6
CONTINUOUS
10
5.82077
20
-4.81235
11
5.81701
21
-4.81047
0
LINE
8
BLACK
6
CONTINUOUS
10
5.81701
20
-4.81047
11
5.80385
21
-4.81047
0
LINE
8
BLACK
6
CONTINUOUS
10
5.89946
20
-4.80696
11
5.89988
21
-4.80699
0
LINE
8
BLACK
6
CONTINUOUS
10
5.89988
20
-4.80699
11
5.90429
21
-4.80919
0
LINE
8
BLACK
6
CONTINUOUS
10
5.90429
20
-4.80919
11
5.90449
21
-4.80942
0
LINE
8
BLACK
6
CONTINUOUS
10
5.90449
20
-4.80942
11
5.90477
21
-4.80954
0
LINE
8
BLACK
6
CONTINUOUS
10
5.90477
20
-4.80954
11
5.90698
21
-4.81174
0
LINE
8
BLACK
6
CONTINUOUS
10
5.90698
20
-4.81174
11
5.90709
21
-4.81202
0
LINE
8
BLACK
6
CONTINUOUS
10
5.90709
20
-4.81202
11
5.90732
21
-4.81222
0
LINE
8
BLACK
6
CONTINUOUS
10
5.90732
20
-4.81222
11
5.90953
21
-4.81663
0
LINE
8
BLACK
6
CONTINUOUS
10
5.90953
20
-4.81663
11
5.90956
21
-4.81706
0
LINE
8
BLACK
6
CONTINUOUS
10
5.90956
20
-4.81706
11
5.90972
21
-4.81746
0
LINE
8
BLACK
6
CONTINUOUS
10
5.90972
20
-4.81746
11
5.90972
21
-4.82187
0
LINE
8
BLACK
6
CONTINUOUS
10
5.90972
20
-4.82187
11
5.90956
21
-4.82226
0
LINE
8
BLACK
6
CONTINUOUS
10
5.90956
20
-4.82226
11
5.90953
21
-4.82269
0
LINE
8
BLACK
6
CONTINUOUS
10
5.90953
20
-4.82269
11
5.90732
21
-4.8271
0
LINE
8
BLACK
6
CONTINUOUS
10
5.90732
20
-4.8271
11
5.90709
21
-4.8273
0
LINE
8
BLACK
6
CONTINUOUS
10
5.90709
20
-4.8273
11
5.90698
21
-4.82758
0
LINE
8
BLACK
6
CONTINUOUS
10
5.90698
20
-4.82758
11
5.90477
21
-4.82979
0
LINE
8
BLACK
6
CONTINUOUS
10
5.90477
20
-4.82979
11
5.90449
21
-4.8299
0
LINE
8
BLACK
6
CONTINUOUS
10
5.90449
20
-4.8299
11
5.90429
21
-4.83013
0
LINE
8
BLACK
6
CONTINUOUS
10
5.90429
20
-4.83013
11
5.90386
21
-4.83035
0
LINE
8
BLACK
6
CONTINUOUS
10
5.90386
20
-4.83035
11
5.90626
21
-4.83115
0
LINE
8
BLACK
6
CONTINUOUS
10
5.90626
20
-4.83115
11
5.90658
21
-4.83143
0
LINE
8
BLACK
6
CONTINUOUS
10
5.90658
20
-4.83143
11
5.90698
21
-4.8316
0
LINE
8
BLACK
6
CONTINUOUS
10
5.90698
20
-4.8316
11
5.90918
21
-4.8338
0
LINE
8
BLACK
6
CONTINUOUS
10
5.90918
20
-4.8338
11
5.9093
21
-4.83408
0
LINE
8
BLACK
6
CONTINUOUS
10
5.9093
20
-4.83408
11
5.90953
21
-4.83428
0
LINE
8
BLACK
6
CONTINUOUS
10
5.90953
20
-4.83428
11
5.91173
21
-4.83869
0
LINE
8
BLACK
6
CONTINUOUS
10
5.91173
20
-4.83869
11
5.91176
21
-4.83912
0
LINE
8
BLACK
6
CONTINUOUS
10
5.91176
20
-4.83912
11
5.91193
21
-4.83951
0
LINE
8
BLACK
6
CONTINUOUS
10
5.91193
20
-4.83951
11
5.91193
21
-4.84613
0
LINE
8
BLACK
6
CONTINUOUS
10
5.91193
20
-4.84613
11
5.91176
21
-4.84653
0
LINE
8
BLACK
6
CONTINUOUS
10
5.91176
20
-4.84653
11
5.91173
21
-4.84695
0
LINE
8
BLACK
6
CONTINUOUS
10
5.91173
20
-4.84695
11
5.90953
21
-4.85137
0
LINE
8
BLACK
6
CONTINUOUS
10
5.90953
20
-4.85137
11
5.9093
21
-4.85156
0
LINE
8
BLACK
6
CONTINUOUS
10
5.9093
20
-4.85156
11
5.90918
21
-4.85184
0
LINE
8
BLACK
6
CONTINUOUS
10
5.90918
20
-4.85184
11
5.90698
21
-4.85405
0
LINE
8
BLACK
6
CONTINUOUS
10
5.90698
20
-4.85405
11
5.9067
21
-4.85417
0
LINE
8
BLACK
6
CONTINUOUS
10
5.9067
20
-4.85417
11
5.9065
21
-4.85439
0
LINE
8
BLACK
6
CONTINUOUS
10
5.9065
20
-4.85439
11
5.90209
21
-4.8566
0
LINE
8
BLACK
6
CONTINUOUS
10
5.90209
20
-4.8566
11
5.90166
21
-4.85663
0
LINE
8
BLACK
6
CONTINUOUS
10
5.90166
20
-4.85663
11
5.90127
21
-4.85679
0
LINE
8
BLACK
6
CONTINUOUS
10
5.90127
20
-4.85679
11
5.88362
21
-4.85679
0
LINE
8
BLACK
6
CONTINUOUS
10
5.88362
20
-4.85679
11
5.88232
21
-4.85626
0
LINE
8
BLACK
6
CONTINUOUS
10
5.88232
20
-4.85626
11
5.88178
21
-4.85495
0
LINE
8
BLACK
6
CONTINUOUS
10
5.88178
20
-4.85495
11
5.88178
21
-4.80863
0
LINE
8
BLACK
6
CONTINUOUS
10
5.88178
20
-4.80863
11
5.88232
21
-4.80733
0
LINE
8
BLACK
6
CONTINUOUS
10
5.88232
20
-4.80733
11
5.88362
21
-4.80679
0
LINE
8
BLACK
6
CONTINUOUS
10
5.88362
20
-4.80679
11
5.89906
21
-4.80679
0
LINE
8
BLACK
6
CONTINUOUS
10
5.89906
20
-4.80679
11
5.89946
21
-4.80696
0
LINE
8
BLACK
6
CONTINUOUS
10
5.88546
20
-4.83253
11
5.88546
21
-4.85311
0
LINE
8
BLACK
6
CONTINUOUS
10
5.88546
20
-4.85311
11
5.90083
21
-4.85311
0
LINE
8
BLACK
6
CONTINUOUS
10
5.90083
20
-4.85311
11
5.90459
21
-4.85124
0
LINE
8
BLACK
6
CONTINUOUS
10
5.90459
20
-4.85124
11
5.90637
21
-4.84945
0
LINE
8
BLACK
6
CONTINUOUS
10
5.90637
20
-4.84945
11
5.90825
21
-4.8457
0
LINE
8
BLACK
6
CONTINUOUS
10
5.90825
20
-4.8457
11
5.90825
21
-4.83995
0
LINE
8
BLACK
6
CONTINUOUS
10
5.90825
20
-4.83995
11
5.90637
21
-4.83619
0
LINE
8
BLACK
6
CONTINUOUS
10
5.90637
20
-4.83619
11
5.90468
21
-4.83451
0
LINE
8
BLACK
6
CONTINUOUS
10
5.90468
20
-4.83451
11
5.89876
21
-4.83253
0
LINE
8
BLACK
6
CONTINUOUS
10
5.89876
20
-4.83253
11
5.88546
21
-4.83253
0
LINE
8
BLACK
6
CONTINUOUS
10
5.88546
20
-4.81047
11
5.88546
21
-4.82885
0
LINE
8
BLACK
6
CONTINUOUS
10
5.88546
20
-4.82885
11
5.89863
21
-4.82885
0
LINE
8
BLACK
6
CONTINUOUS
10
5.89863
20
-4.82885
11
5.90238
21
-4.82697
0
LINE
8
BLACK
6
CONTINUOUS
10
5.90238
20
-4.82697
11
5.90416
21
-4.82519
0
LINE
8
BLACK
6
CONTINUOUS
10
5.90416
20
-4.82519
11
5.90604
21
-4.82143
0
LINE
8
BLACK
6
CONTINUOUS
10
5.90604
20
-4.82143
11
5.90604
21
-4.81789
0
LINE
8
BLACK
6
CONTINUOUS
10
5.90604
20
-4.81789
11
5.90416
21
-4.81414
0
LINE
8
BLACK
6
CONTINUOUS
10
5.90416
20
-4.81414
11
5.90238
21
-4.81235
0
LINE
8
BLACK
6
CONTINUOUS
10
5.90238
20
-4.81235
11
5.89863
21
-4.81047
0
LINE
8
BLACK
6
CONTINUOUS
10
5.89863
20
-4.81047
11
5.88546
21
-4.81047
0
LINE
8
BLACK
6
CONTINUOUS
10
5.73714
20
-4.80733
11
5.73768
21
-4.80863
0
LINE
8
BLACK
6
CONTINUOUS
10
5.73768
20
-4.80863
11
5.73768
21
-4.84613
0
LINE
8
BLACK
6
CONTINUOUS
10
5.73768
20
-4.84613
11
5.73751
21
-4.84653
0
LINE
8
BLACK
6
CONTINUOUS
10
5.73751
20
-4.84653
11
5.73748
21
-4.84695
0
LINE
8
BLACK
6
CONTINUOUS
10
5.73748
20
-4.84695
11
5.73528
21
-4.85137
0
LINE
8
BLACK
6
CONTINUOUS
10
5.73528
20
-4.85137
11
5.73505
21
-4.85156
0
LINE
8
BLACK
6
CONTINUOUS
10
5.73505
20
-4.85156
11
5.73493
21
-4.85184
0
LINE
8
BLACK
6
CONTINUOUS
10
5.73493
20
-4.85184
11
5.73273
21
-4.85405
0
LINE
8
BLACK
6
CONTINUOUS
10
5.73273
20
-4.85405
11
5.73245
21
-4.85417
0
LINE
8
BLACK
6
CONTINUOUS
10
5.73245
20
-4.85417
11
5.73225
21
-4.85439
0
LINE
8
BLACK
6
CONTINUOUS
10
5.73225
20
-4.85439
11
5.72784
21
-4.8566
0
LINE
8
BLACK
6
CONTINUOUS
10
5.72784
20
-4.8566
11
5.72741
21
-4.85663
0
LINE
8
BLACK
6
CONTINUOUS
10
5.72741
20
-4.85663
11
5.72701
21
-4.85679
0
LINE
8
BLACK
6
CONTINUOUS
10
5.72701
20
-4.85679
11
5.71819
21
-4.85679
0
LINE
8
BLACK
6
CONTINUOUS
10
5.71819
20
-4.85679
11
5.7178
21
-4.85663
0
LINE
8
BLACK
6
CONTINUOUS
10
5.7178
20
-4.85663
11
5.71737
21
-4.8566
0
LINE
8
BLACK
6
CONTINUOUS
10
5.71737
20
-4.8566
11
5.71296
21
-4.85439
0
LINE
8
BLACK
6
CONTINUOUS
10
5.71296
20
-4.85439
11
5.71276
21
-4.85417
0
LINE
8
BLACK
6
CONTINUOUS
10
5.71276
20
-4.85417
11
5.71248
21
-4.85405
0
LINE
8
BLACK
6
CONTINUOUS
10
5.71248
20
-4.85405
11
5.71027
21
-4.85184
0
LINE
8
BLACK
6
CONTINUOUS
10
5.71027
20
-4.85184
11
5.71016
21
-4.85156
0
LINE
8
BLACK
6
CONTINUOUS
10
5.71016
20
-4.85156
11
5.70993
21
-4.85137
0
LINE
8
BLACK
6
CONTINUOUS
10
5.70993
20
-4.85137
11
5.70772
21
-4.84695
0
LINE
8
BLACK
6
CONTINUOUS
10
5.70772
20
-4.84695
11
5.70769
21
-4.84653
0
LINE
8
BLACK
6
CONTINUOUS
10
5.70769
20
-4.84653
11
5.70753
21
-4.84613
0
LINE
8
BLACK
6
CONTINUOUS
10
5.70753
20
-4.84613
11
5.70753
21
-4.80863
0
LINE
8
BLACK
6
CONTINUOUS
10
5.70753
20
-4.80863
11
5.70807
21
-4.80733
0
LINE
8
BLACK
6
CONTINUOUS
10
5.70807
20
-4.80733
11
5.70937
21
-4.80679
0
LINE
8
BLACK
6
CONTINUOUS
10
5.70937
20
-4.80679
11
5.71067
21
-4.80733
0
LINE
8
BLACK
6
CONTINUOUS
10
5.71067
20
-4.80733
11
5.71121
21
-4.80863
0
LINE
8
BLACK
6
CONTINUOUS
10
5.71121
20
-4.80863
11
5.71121
21
-4.8457
0
LINE
8
BLACK
6
CONTINUOUS
10
5.71121
20
-4.8457
11
5.71309
21
-4.84945
0
LINE
8
BLACK
6
CONTINUOUS
10
5.71309
20
-4.84945
11
5.71487
21
-4.85124
0
LINE
8
BLACK
6
CONTINUOUS
10
5.71487
20
-4.85124
11
5.71863
21
-4.85311
0
LINE
8
BLACK
6
CONTINUOUS
10
5.71863
20
-4.85311
11
5.72658
21
-4.85311
0
LINE
8
BLACK
6
CONTINUOUS
10
5.72658
20
-4.85311
11
5.73034
21
-4.85124
0
LINE
8
BLACK
6
CONTINUOUS
10
5.73034
20
-4.85124
11
5.73212
21
-4.84945
0
LINE
8
BLACK
6
CONTINUOUS
10
5.73212
20
-4.84945
11
5.734
21
-4.8457
0
LINE
8
BLACK
6
CONTINUOUS
10
5.734
20
-4.8457
11
5.734
21
-4.80863
0
LINE
8
BLACK
6
CONTINUOUS
10
5.734
20
-4.80863
11
5.73454
21
-4.80733
0
LINE
8
BLACK
6
CONTINUOUS
10
5.73454
20
-4.80733
11
5.73584
21
-4.80679
0
LINE
8
BLACK
6
CONTINUOUS
10
5.73584
20
-4.80679
11
5.73714
21
-4.80733
0
LINE
8
BLACK
6
CONTINUOUS
10
5.77582
20
-4.80691
11
5.77612
21
-4.80689
0
LINE
8
BLACK
6
CONTINUOUS
10
5.77612
20
-4.80689
11
5.78274
21
-4.80909
0
LINE
8
BLACK
6
CONTINUOUS
10
5.78274
20
-4.80909
11
5.7838
21
-4.81002
0
LINE
8
BLACK
6
CONTINUOUS
10
5.7838
20
-4.81002
11
5.7839
21
-4.81142
0
LINE
8
BLACK
6
CONTINUOUS
10
5.7839
20
-4.81142
11
5.78298
21
-4.81249
0
LINE
8
BLACK
6
CONTINUOUS
10
5.78298
20
-4.81249
11
5.78158
21
-4.81259
0
LINE
8
BLACK
6
CONTINUOUS
10
5.78158
20
-4.81259
11
5.77524
21
-4.81047
0
LINE
8
BLACK
6
CONTINUOUS
10
5.77524
20
-4.81047
11
5.76495
21
-4.81047
0
LINE
8
BLACK
6
CONTINUOUS
10
5.76495
20
-4.81047
11
5.76119
21
-4.81235
0
LINE
8
BLACK
6
CONTINUOUS
10
5.76119
20
-4.81235
11
5.75941
21
-4.81414
0
LINE
8
BLACK
6
CONTINUOUS
10
5.75941
20
-4.81414
11
5.75753
21
-4.81789
0
LINE
8
BLACK
6
CONTINUOUS
10
5.75753
20
-4.81789
11
5.75753
21
-4.82143
0
LINE
8
BLACK
6
CONTINUOUS
10
5.75753
20
-4.82143
11
5.75941
21
-4.82519
0
LINE
8
BLACK
6
CONTINUOUS
10
5.75941
20
-4.82519
11
5.76119
21
-4.82697
0
LINE
8
BLACK
6
CONTINUOUS
10
5.76119
20
-4.82697
11
5.76515
21
-4.82896
0
LINE
8
BLACK
6
CONTINUOUS
10
5.76515
20
-4.82896
11
5.77378
21
-4.83111
0
LINE
8
BLACK
6
CONTINUOUS
10
5.77378
20
-4.83111
11
5.77395
21
-4.83124
0
LINE
8
BLACK
6
CONTINUOUS
10
5.77395
20
-4.83124
11
5.77416
21
-4.83125
0
LINE
8
BLACK
6
CONTINUOUS
10
5.77416
20
-4.83125
11
5.77857
21
-4.83346
0
LINE
8
BLACK
6
CONTINUOUS
10
5.77857
20
-4.83346
11
5.77877
21
-4.83369
0
LINE
8
BLACK
6
CONTINUOUS
10
5.77877
20
-4.83369
11
5.77905
21
-4.8338
0
LINE
8
BLACK
6
CONTINUOUS
10
5.77905
20
-4.8338
11
5.78125
21
-4.83601
0
LINE
8
BLACK
6
CONTINUOUS
10
5.78125
20
-4.83601
11
5.78137
21
-4.83629
0
LINE
8
BLACK
6
CONTINUOUS
10
5.78137
20
-4.83629
11
5.7816
21
-4.83649
0
LINE
8
BLACK
6
CONTINUOUS
10
5.7816
20
-4.83649
11
5.7838
21
-4.8409
0
LINE
8
BLACK
6
CONTINUOUS
10
5.7838
20
-4.8409
11
5.78383
21
-4.84132
0
LINE
8
BLACK
6
CONTINUOUS
10
5.78383
20
-4.84132
11
5.784
21
-4.84172
0
LINE
8
BLACK
6
CONTINUOUS
10
5.784
20
-4.84172
11
5.784
21
-4.84613
0
LINE
8
BLACK
6
CONTINUOUS
10
5.784
20
-4.84613
11
5.78383
21
-4.84653
0
LINE
8
BLACK
6
CONTINUOUS
10
5.78383
20
-4.84653
11
5.7838
21
-4.84695
0
LINE
8
BLACK
6
CONTINUOUS
10
5.7838
20
-4.84695
11
5.7816
21
-4.85137
0
LINE
8
BLACK
6
CONTINUOUS
10
5.7816
20
-4.85137
11
5.78137
21
-4.85156
0
LINE
8
BLACK
6
CONTINUOUS
10
5.78137
20
-4.85156
11
5.78125
21
-4.85184
0
LINE
8
BLACK
6
CONTINUOUS
10
5.78125
20
-4.85184
11
5.77905
21
-4.85405
0
LINE
8
BLACK
6
CONTINUOUS
10
5.77905
20
-4.85405
11
5.77877
21
-4.85417
0
LINE
8
BLACK
6
CONTINUOUS
10
5.77877
20
-4.85417
11
5.77857
21
-4.85439
0
LINE
8
BLACK
6
CONTINUOUS
10
5.77857
20
-4.85439
11
5.77416
21
-4.8566
0
LINE
8
BLACK
6
CONTINUOUS
10
5.77416
20
-4.8566
11
5.77373
21
-4.85663
0
LINE
8
BLACK
6
CONTINUOUS
10
5.77373
20
-4.85663
11
5.77333
21
-4.85679
0
LINE
8
BLACK
6
CONTINUOUS
10
5.77333
20
-4.85679
11
5.76231
21
-4.85679
0
LINE
8
BLACK
6
CONTINUOUS
10
5.76231
20
-4.85679
11
5.76203
21
-4.85668
0
LINE
8
BLACK
6
CONTINUOUS
10
5.76203
20
-4.85668
11
5.76172
21
-4.8567
0
LINE
8
BLACK
6
CONTINUOUS
10
5.76172
20
-4.8567
11
5.75511
21
-4.85449
0
LINE
8
BLACK
6
CONTINUOUS
10
5.75511
20
-4.85449
11
5.75404
21
-4.85357
0
LINE
8
BLACK
6
CONTINUOUS
10
5.75404
20
-4.85357
11
5.75394
21
-4.85217
0
LINE
8
BLACK
6
CONTINUOUS
10
5.75394
20
-4.85217
11
5.75487
21
-4.8511
0
LINE
8
BLACK
6
CONTINUOUS
10
5.75487
20
-4.8511
11
5.75627
21
-4.851
0
LINE
8
BLACK
6
CONTINUOUS
10
5.75627
20
-4.851
11
5.7626
21
-4.85311
0
LINE
8
BLACK
6
CONTINUOUS
10
5.7626
20
-4.85311
11
5.7729
21
-4.85311
0
LINE
8
BLACK
6
CONTINUOUS
10
5.7729
20
-4.85311
11
5.77666
21
-4.85124
0
LINE
8
BLACK
6
CONTINUOUS
10
5.77666
20
-4.85124
11
5.77844
21
-4.84945
0
LINE
8
BLACK
6
CONTINUOUS
10
5.77844
20
-4.84945
11
5.78032
21
-4.8457
0
LINE
8
BLACK
6
CONTINUOUS
10
5.78032
20
-4.8457
11
5.78032
21
-4.84215
0
LINE
8
BLACK
6
CONTINUOUS
10
5.78032
20
-4.84215
11
5.77844
21
-4.8384
0
LINE
8
BLACK
6
CONTINUOUS
10
5.77844
20
-4.8384
11
5.77666
21
-4.83662
0
LINE
8
BLACK
6
CONTINUOUS
10
5.77666
20
-4.83662
11
5.77269
21
-4.83463
0
LINE
8
BLACK
6
CONTINUOUS
10
5.77269
20
-4.83463
11
5.76407
21
-4.83248
0
LINE
8
BLACK
6
CONTINUOUS
10
5.76407
20
-4.83248
11
5.7639
21
-4.83235
0
LINE
8
BLACK
6
CONTINUOUS
10
5.7639
20
-4.83235
11
5.76369
21
-4.83234
0
LINE
8
BLACK
6
CONTINUOUS
10
5.76369
20
-4.83234
11
5.75928
21
-4.83013
0
LINE
8
BLACK
6
CONTINUOUS
10
5.75928
20
-4.83013
11
5.75908
21
-4.8299
0
LINE
8
BLACK
6
CONTINUOUS
10
5.75908
20
-4.8299
11
5.7588
21
-4.82979
0
LINE
8
BLACK
6
CONTINUOUS
10
5.7588
20
-4.82979
11
5.75659
21
-4.82758
0
LINE
8
BLACK
6
CONTINUOUS
10
5.75659
20
-4.82758
11
5.75648
21
-4.8273
0
LINE
8
BLACK
6
CONTINUOUS
10
5.75648
20
-4.8273
11
5.75625
21
-4.8271
0
LINE
8
BLACK
6
CONTINUOUS
10
5.75625
20
-4.8271
11
5.75404
21
-4.82269
0
LINE
8
BLACK
6
CONTINUOUS
10
5.75404
20
-4.82269
11
5.75401
21
-4.82226
0
LINE
8
BLACK
6
CONTINUOUS
10
5.75401
20
-4.82226
11
5.75385
21
-4.82187
0
LINE
8
BLACK
6
CONTINUOUS
10
5.75385
20
-4.82187
11
5.75385
21
-4.81746
0
LINE
8
BLACK
6
CONTINUOUS
10
5.75385
20
-4.81746
11
5.75401
21
-4.81706
0
LINE
8
BLACK
6
CONTINUOUS
10
5.75401
20
-4.81706
11
5.75404
21
-4.81663
0
LINE
8
BLACK
6
CONTINUOUS
10
5.75404
20
-4.81663
11
5.75625
21
-4.81222
0
LINE
8
BLACK
6
CONTINUOUS
10
5.75625
20
-4.81222
11
5.75648
21
-4.81202
0
LINE
8
BLACK
6
CONTINUOUS
10
5.75648
20
-4.81202
11
5.75659
21
-4.81174
0
LINE
8
BLACK
6
CONTINUOUS
10
5.75659
20
-4.81174
11
5.7588
21
-4.80954
0
LINE
8
BLACK
6
CONTINUOUS
10
5.7588
20
-4.80954
11
5.75908
21
-4.80942
0
LINE
8
BLACK
6
CONTINUOUS
10
5.75908
20
-4.80942
11
5.75928
21
-4.80919
0
LINE
8
BLACK
6
CONTINUOUS
10
5.75928
20
-4.80919
11
5.76369
21
-4.80699
0
LINE
8
BLACK
6
CONTINUOUS
10
5.76369
20
-4.80699
11
5.76412
21
-4.80696
0
LINE
8
BLACK
6
CONTINUOUS
10
5.76412
20
-4.80696
11
5.76451
21
-4.80679
0
LINE
8
BLACK
6
CONTINUOUS
10
5.76451
20
-4.80679
11
5.77554
21
-4.80679
0
LINE
8
BLACK
6
CONTINUOUS
10
5.77554
20
-4.80679
11
5.77582
21
-4.80691
0
LINE
8
BLACK
6
CONTINUOUS
10
6.2065
20
-4.544
11
6.1865
21
-4.544
0
LINE
8
BLACK
6
CONTINUOUS
10
6.1865
20
-4.544
11
6.1865
21
-4.524
0
LINE
8
BLACK
6
CONTINUOUS
10
6.1865
20
-4.524
11
6.2065
21
-4.524
0
LINE
8
BLACK
6
CONTINUOUS
10
6.2065
20
-4.524
11
6.2065
21
-4.544
0
LINE
8
BLACK
6
CONTINUOUS
10
6.3065
20
-4.544
11
6.2865
21
-4.544
0
LINE
8
BLACK
6
CONTINUOUS
10
6.2865
20
-4.544
11
6.2865
21
-4.524
0
LINE
8
BLACK
6
CONTINUOUS
10
6.2865
20
-4.524
11
6.3065
21
-4.524
0
LINE
8
BLACK
6
CONTINUOUS
10
6.3065
20
-4.524
11
6.3065
21
-4.544
0
LINE
8
BLACK
6
CONTINUOUS
10
6.2065
20
-4.444
11
6.1865
21
-4.444
0
LINE
8
BLACK
6
CONTINUOUS
10
6.1865
20
-4.444
11
6.1865
21
-4.424
0
LINE
8
BLACK
6
CONTINUOUS
10
6.1865
20
-4.424
11
6.2065
21
-4.424
0
LINE
8
BLACK
6
CONTINUOUS
10
6.2065
20
-4.424
11
6.2065
21
-4.444
0
LINE
8
BLACK
6
CONTINUOUS
10
6.3065
20
-4.444
11
6.2865
21
-4.444
0
LINE
8
BLACK
6
CONTINUOUS
10
6.2865
20
-4.444
11
6.2865
21
-4.424
0
LINE
8
BLACK
6
CONTINUOUS
10
6.2865
20
-4.424
11
6.3065
21
-4.424
0
LINE
8
BLACK
6
CONTINUOUS
10
6.3065
20
-4.424
11
6.3065
21
-4.444
0
LINE
8
BLACK
6
CONTINUOUS
10
6.2065
20
-4.344
11
6.1865
21
-4.344
0
LINE
8
BLACK
6
CONTINUOUS
10
6.1865
20
-4.344
11
6.1865
21
-4.324
0
LINE
8
BLACK
6
CONTINUOUS
10
6.1865
20
-4.324
11
6.2065
21
-4.324
0
LINE
8
BLACK
6
CONTINUOUS
10
6.2065
20
-4.324
11
6.2065
21
-4.344
0
LINE
8
BLACK
6
CONTINUOUS
10
6.3065
20
-4.344
11
6.2865
21
-4.344
0
LINE
8
BLACK
6
CONTINUOUS
10
6.2865
20
-4.344
11
6.2865
21
-4.324
0
LINE
8
BLACK
6
CONTINUOUS
10
6.2865
20
-4.324
11
6.3065
21
-4.324
0
LINE
8
BLACK
6
CONTINUOUS
10
6.3065
20
-4.324
11
6.3065
21
-4.344
0
LINE
8
BLACK
6
CONTINUOUS
10
6.43376
20
-4.28895
11
6.43429
21
-4.29022
0
LINE
8
BLACK
6
CONTINUOUS
10
6.43429
20
-4.29022
11
6.43376
21
-4.29149
0
LINE
8
BLACK
6
CONTINUOUS
10
6.43376
20
-4.29149
11
6.43249
21
-4.29202
0
LINE
8
BLACK
6
CONTINUOUS
10
6.43249
20
-4.29202
11
6.3942
21
-4.29202
0
LINE
8
BLACK
6
CONTINUOUS
10
6.3942
20
-4.29202
11
6.41999
21
-4.30405
0
LINE
8
BLACK
6
CONTINUOUS
10
6.41999
20
-4.30405
11
6.42041
21
-4.30451
0
LINE
8
BLACK
6
CONTINUOUS
10
6.42041
20
-4.30451
11
6.42086
21
-4.30492
0
LINE
8
BLACK
6
CONTINUOUS
10
6.42086
20
-4.30492
11
6.42087
21
-4.30501
0
LINE
8
BLACK
6
CONTINUOUS
10
6.42087
20
-4.30501
11
6.42092
21
-4.30507
0
LINE
8
BLACK
6
CONTINUOUS
10
6.42092
20
-4.30507
11
6.4209
21
-4.30569
0
LINE
8
BLACK
6
CONTINUOUS
10
6.4209
20
-4.30569
11
6.42092
21
-4.3063
0
LINE
8
BLACK
6
CONTINUOUS
10
6.42092
20
-4.3063
11
6.42087
21
-4.30636
0
LINE
8
BLACK
6
CONTINUOUS
10
6.42087
20
-4.30636
11
6.42086
21
-4.30645
0
LINE
8
BLACK
6
CONTINUOUS
10
6.42086
20
-4.30645
11
6.42041
21
-4.30686
0
LINE
8
BLACK
6
CONTINUOUS
10
6.42041
20
-4.30686
11
6.41999
21
-4.30732
0
LINE
8
BLACK
6
CONTINUOUS
10
6.41999
20
-4.30732
11
6.3942
21
-4.31935
0
LINE
8
BLACK
6
CONTINUOUS
10
6.3942
20
-4.31935
11
6.43249
21
-4.31935
0
LINE
8
BLACK
6
CONTINUOUS
10
6.43249
20
-4.31935
11
6.43376
21
-4.31988
0
LINE
8
BLACK
6
CONTINUOUS
10
6.43376
20
-4.31988
11
6.43429
21
-4.32115
0
LINE
8
BLACK
6
CONTINUOUS
10
6.43429
20
-4.32115
11
6.43376
21
-4.32243
0
LINE
8
BLACK
6
CONTINUOUS
10
6.43376
20
-4.32243
11
6.43249
21
-4.32295
0
LINE
8
BLACK
6
CONTINUOUS
10
6.43249
20
-4.32295
11
6.38609
21
-4.32295
0
LINE
8
BLACK
6
CONTINUOUS
10
6.38609
20
-4.32295
11
6.38579
21
-4.32283
0
LINE
8
BLACK
6
CONTINUOUS
10
6.38579
20
-4.32283
11
6.38548
21
-4.32284
0
LINE
8
BLACK
6
CONTINUOUS
10
6.38548
20
-4.32284
11
6.38518
21
-4.32258
0
LINE
8
BLACK
6
CONTINUOUS
10
6.38518
20
-4.32258
11
6.38482
21
-4.32243
0
LINE
8
BLACK
6
CONTINUOUS
10
6.38482
20
-4.32243
11
6.3847
21
-4.32213
0
LINE
8
BLACK
6
CONTINUOUS
10
6.3847
20
-4.32213
11
6.38446
21
-4.32191
0
LINE
8
BLACK
6
CONTINUOUS
10
6.38446
20
-4.32191
11
6.38444
21
-4.32152
0
LINE
8
BLACK
6
CONTINUOUS
10
6.38444
20
-4.32152
11
6.38429
21
-4.32115
0
LINE
8
BLACK
6
CONTINUOUS
10
6.38429
20
-4.32115
11
6.38441
21
-4.32086
0
LINE
8
BLACK
6
CONTINUOUS
10
6.38441
20
-4.32086
11
6.3844
21
-4.32054
0
LINE
8
BLACK
6
CONTINUOUS
10
6.3844
20
-4.32054
11
6.38467
21
-4.32025
0
LINE
8
BLACK
6
CONTINUOUS
10
6.38467
20
-4.32025
11
6.38482
21
-4.31988
0
LINE
8
BLACK
6
CONTINUOUS
10
6.38482
20
-4.31988
11
6.38511
21
-4.31976
0
LINE
8
BLACK
6
CONTINUOUS
10
6.38511
20
-4.31976
11
6.38533
21
-4.31952
0
LINE
8
BLACK
6
CONTINUOUS
10
6.38533
20
-4.31952
11
6.41498
21
-4.30569
0
LINE
8
BLACK
6
CONTINUOUS
10
6.41498
20
-4.30569
11
6.38533
21
-4.29185
0
LINE
8
BLACK
6
CONTINUOUS
10
6.38533
20
-4.29185
11
6.38511
21
-4.29161
0
LINE
8
BLACK
6
CONTINUOUS
10
6.38511
20
-4.29161
11
6.38482
21
-4.29149
0
LINE
8
BLACK
6
CONTINUOUS
10
6.38482
20
-4.29149
11
6.38467
21
-4.29113
0
LINE
8
BLACK
6
CONTINUOUS
10
6.38467
20
-4.29113
11
6.3844
21
-4.29083
0
LINE
8
BLACK
6
CONTINUOUS
10
6.3844
20
-4.29083
11
6.38441
21
-4.29051
0
LINE
8
BLACK
6
CONTINUOUS
10
6.38441
20
-4.29051
11
6.38429
21
-4.29022
0
LINE
8
BLACK
6
CONTINUOUS
10
6.38429
20
-4.29022
11
6.38444
21
-4.28985
0
LINE
8
BLACK
6
CONTINUOUS
10
6.38444
20
-4.28985
11
6.38446
21
-4.28946
0
LINE
8
BLACK
6
CONTINUOUS
10
6.38446
20
-4.28946
11
6.3847
21
-4.28924
0
LINE
8
BLACK
6
CONTINUOUS
10
6.3847
20
-4.28924
11
6.38482
21
-4.28895
0
LINE
8
BLACK
6
CONTINUOUS
10
6.38482
20
-4.28895
11
6.38518
21
-4.28879
0
LINE
8
BLACK
6
CONTINUOUS
10
6.38518
20
-4.28879
11
6.38548
21
-4.28853
0
LINE
8
BLACK
6
CONTINUOUS
10
6.38548
20
-4.28853
11
6.38579
21
-4.28854
0
LINE
8
BLACK
6
CONTINUOUS
10
6.38579
20
-4.28854
11
6.38609
21
-4.28842
0
LINE
8
BLACK
6
CONTINUOUS
10
6.38609
20
-4.28842
11
6.43249
21
-4.28842
0
LINE
8
BLACK
6
CONTINUOUS
10
6.43249
20
-4.28842
11
6.43376
21
-4.28895
0
LINE
8
BLACK
6
CONTINUOUS
10
6.4333
20
-4.24221
11
6.4342
21
-4.24325
0
LINE
8
BLACK
6
CONTINUOUS
10
6.4342
20
-4.24325
11
6.4341
21
-4.24462
0
LINE
8
BLACK
6
CONTINUOUS
10
6.4341
20
-4.24462
11
6.43306
21
-4.24553
0
LINE
8
BLACK
6
CONTINUOUS
10
6.43306
20
-4.24553
11
6.42103
21
-4.24954
0
LINE
8
BLACK
6
CONTINUOUS
10
6.42103
20
-4.24954
11
6.42103
21
-4.26904
0
LINE
8
BLACK
6
CONTINUOUS
10
6.42103
20
-4.26904
11
6.43306
21
-4.27304
0
LINE
8
BLACK
6
CONTINUOUS
10
6.43306
20
-4.27304
11
6.4341
21
-4.27395
0
LINE
8
BLACK
6
CONTINUOUS
10
6.4341
20
-4.27395
11
6.4342
21
-4.27532
0
LINE
8
BLACK
6
CONTINUOUS
10
6.4342
20
-4.27532
11
6.4333
21
-4.27636
0
LINE
8
BLACK
6
CONTINUOUS
10
6.4333
20
-4.27636
11
6.43192
21
-4.27646
0
LINE
8
BLACK
6
CONTINUOUS
10
6.43192
20
-4.27646
11
6.38552
21
-4.26099
0
LINE
8
BLACK
6
CONTINUOUS
10
6.38552
20
-4.26099
11
6.38542
21
-4.26091
0
LINE
8
BLACK
6
CONTINUOUS
10
6.38542
20
-4.26091
11
6.38529
21
-4.2609
0
LINE
8
BLACK
6
CONTINUOUS
10
6.38529
20
-4.2609
11
6.38491
21
-4.26046
0
LINE
8
BLACK
6
CONTINUOUS
10
6.38491
20
-4.26046
11
6.38448
21
-4.26009
0
LINE
8
BLACK
6
CONTINUOUS
10
6.38448
20
-4.26009
11
6.38447
21
-4.25996
0
LINE
8
BLACK
6
CONTINUOUS
10
6.38447
20
-4.25996
11
6.38438
21
-4.25985
0
LINE
8
BLACK
6
CONTINUOUS
10
6.38438
20
-4.25985
11
6.38442
21
-4.25929
0
LINE
8
BLACK
6
CONTINUOUS
10
6.38442
20
-4.25929
11
6.38438
21
-4.25872
0
LINE
8
BLACK
6
CONTINUOUS
10
6.38438
20
-4.25872
11
6.38447
21
-4.25861
0
LINE
8
BLACK
6
CONTINUOUS
10
6.38447
20
-4.25861
11
6.38448
21
-4.25848
0
LINE
8
BLACK
6
CONTINUOUS
10
6.38448
20
-4.25848
11
6.38491
21
-4.25811
0
LINE
8
BLACK
6
CONTINUOUS
10
6.38491
20
-4.25811
11
6.38529
21
-4.25768
0
LINE
8
BLACK
6
CONTINUOUS
10
6.38529
20
-4.25768
11
6.38542
21
-4.25767
0
LINE
8
BLACK
6
CONTINUOUS
10
6.38542
20
-4.25767
11
6.38552
21
-4.25758
0
LINE
8
BLACK
6
CONTINUOUS
10
6.38552
20
-4.25758
11
6.43192
21
-4.24211
0
LINE
8
BLACK
6
CONTINUOUS
10
6.43192
20
-4.24211
11
6.4333
21
-4.24221
0
LINE
8
BLACK
6
CONTINUOUS
10
6.39178
20
-4.25929
11
6.41743
21
-4.26784
0
LINE
8
BLACK
6
CONTINUOUS
10
6.41743
20
-4.26784
11
6.41743
21
-4.25074
0
LINE
8
BLACK
6
CONTINUOUS
10
6.41743
20
-4.25074
11
6.39178
21
-4.25929
0
LINE
8
BLACK
6
CONTINUOUS
10
6.2065
20
-4.244
11
6.1865
21
-4.244
0
LINE
8
BLACK
6
CONTINUOUS
10
6.1865
20
-4.244
11
6.1865
21
-4.224
0
LINE
8
BLACK
6
CONTINUOUS
10
6.1865
20
-4.224
11
6.2065
21
-4.224
0
LINE
8
BLACK
6
CONTINUOUS
10
6.2065
20
-4.224
11
6.2065
21
-4.244
0
LINE
8
BLACK
6
CONTINUOUS
10
6.3065
20
-4.244
11
6.2865
21
-4.244
0
LINE
8
BLACK
6
CONTINUOUS
10
6.2865
20
-4.244
11
6.2865
21
-4.224
0
LINE
8
BLACK
6
CONTINUOUS
10
6.2865
20
-4.224
11
6.3065
21
-4.224
0
LINE
8
BLACK
6
CONTINUOUS
10
6.3065
20
-4.224
11
6.3065
21
-4.244
0
LINE
8
BLACK
6
CONTINUOUS
10
6.41503
20
-4.20233
11
6.41525
21
-4.2023
0
LINE
8
BLACK
6
CONTINUOUS
10
6.41525
20
-4.2023
11
6.42409
21
-4.20451
0
LINE
8
BLACK
6
CONTINUOUS
10
6.42409
20
-4.20451
11
6.42425
21
-4.20463
0
LINE
8
BLACK
6
CONTINUOUS
10
6.42425
20
-4.20463
11
6.42446
21
-4.20465
0
LINE
8
BLACK
6
CONTINUOUS
10
6.42446
20
-4.20465
11
6.42888
21
-4.20686
0
LINE
8
BLACK
6
CONTINUOUS
10
6.42888
20
-4.20686
11
6.42907
21
-4.20708
0
LINE
8
BLACK
6
CONTINUOUS
10
6.42907
20
-4.20708
11
6.42934
21
-4.20719
0
LINE
8
BLACK
6
CONTINUOUS
10
6.42934
20
-4.20719
11
6.43155
21
-4.2094
0
LINE
8
BLACK
6
CONTINUOUS
10
6.43155
20
-4.2094
11
6.43167
21
-4.20968
0
LINE
8
BLACK
6
CONTINUOUS
10
6.43167
20
-4.20968
11
6.43189
21
-4.20987
0
LINE
8
BLACK
6
CONTINUOUS
10
6.43189
20
-4.20987
11
6.4341
21
-4.21429
0
LINE
8
BLACK
6
CONTINUOUS
10
6.4341
20
-4.21429
11
6.43413
21
-4.21471
0
LINE
8
BLACK
6
CONTINUOUS
10
6.43413
20
-4.21471
11
6.43429
21
-4.2151
0
LINE
8
BLACK
6
CONTINUOUS
10
6.43429
20
-4.2151
11
6.43429
21
-4.21951
0
LINE
8
BLACK
6
CONTINUOUS
10
6.43429
20
-4.21951
11
6.43413
21
-4.2199
0
LINE
8
BLACK
6
CONTINUOUS
10
6.43413
20
-4.2199
11
6.4341
21
-4.22032
0
LINE
8
BLACK
6
CONTINUOUS
10
6.4341
20
-4.22032
11
6.43189
21
-4.22474
0
LINE
8
BLACK
6
CONTINUOUS
10
6.43189
20
-4.22474
11
6.43167
21
-4.22493
0
LINE
8
BLACK
6
CONTINUOUS
10
6.43167
20
-4.22493
11
6.43155
21
-4.22521
0
LINE
8
BLACK
6
CONTINUOUS
10
6.43155
20
-4.22521
11
6.42934
21
-4.22742
0
LINE
8
BLACK
6
CONTINUOUS
10
6.42934
20
-4.22742
11
6.42907
21
-4.22753
0
LINE
8
BLACK
6
CONTINUOUS
10
6.42907
20
-4.22753
11
6.42888
21
-4.22775
0
LINE
8
BLACK
6
CONTINUOUS
10
6.42888
20
-4.22775
11
6.42446
21
-4.22996
0
LINE
8
BLACK
6
CONTINUOUS
10
6.42446
20
-4.22996
11
6.42425
21
-4.22998
0
LINE
8
BLACK
6
CONTINUOUS
10
6.42425
20
-4.22998
11
6.42409
21
-4.2301
0
LINE
8
BLACK
6
CONTINUOUS
10
6.42409
20
-4.2301
11
6.41525
21
-4.23231
0
LINE
8
BLACK
6
CONTINUOUS
10
6.41525
20
-4.23231
11
6.41503
21
-4.23227
0
LINE
8
BLACK
6
CONTINUOUS
10
6.41503
20
-4.23227
11
6.41481
21
-4.23236
0
LINE
8
BLACK
6
CONTINUOUS
10
6.41481
20
-4.23236
11
6.40377
21
-4.23236
0
LINE
8
BLACK
6
CONTINUOUS
10
6.40377
20
-4.23236
11
6.40356
21
-4.23227
0
LINE
8
BLACK
6
CONTINUOUS
10
6.40356
20
-4.23227
11
6.40333
21
-4.23231
0
LINE
8
BLACK
6
CONTINUOUS
10
6.40333
20
-4.23231
11
6.39449
21
-4.2301
0
LINE
8
BLACK
6
CONTINUOUS
10
6.39449
20
-4.2301
11
6.39433
21
-4.22998
0
LINE
8
BLACK
6
CONTINUOUS
10
6.39433
20
-4.22998
11
6.39412
21
-4.22996
0
LINE
8
BLACK
6
CONTINUOUS
10
6.39412
20
-4.22996
11
6.3897
21
-4.22775
0
LINE
8
BLACK
6
CONTINUOUS
10
6.3897
20
-4.22775
11
6.38951
21
-4.22753
0
LINE
8
BLACK
6
CONTINUOUS
10
6.38951
20
-4.22753
11
6.38924
21
-4.22742
0
LINE
8
BLACK
6
CONTINUOUS
10
6.38924
20
-4.22742
11
6.38703
21
-4.22521
0
LINE
8
BLACK
6
CONTINUOUS
10
6.38703
20
-4.22521
11
6.38691
21
-4.22493
0
LINE
8
BLACK
6
CONTINUOUS
10
6.38691
20
-4.22493
11
6.38669
21
-4.22474
0
LINE
8
BLACK
6
CONTINUOUS
10
6.38669
20
-4.22474
11
6.38448
21
-4.22032
0
LINE
8
BLACK
6
CONTINUOUS
10
6.38448
20
-4.22032
11
6.38445
21
-4.2199
0
LINE
8
BLACK
6
CONTINUOUS
10
6.38445
20
-4.2199
11
6.38429
21
-4.21951
0
LINE
8
BLACK
6
CONTINUOUS
10
6.38429
20
-4.21951
11
6.38429
21
-4.2151
0
LINE
8
BLACK
6
CONTINUOUS
10
6.38429
20
-4.2151
11
6.38445
21
-4.21471
0
LINE
8
BLACK
6
CONTINUOUS
10
6.38445
20
-4.21471
11
6.38448
21
-4.21429
0
LINE
8
BLACK
6
CONTINUOUS
10
6.38448
20
-4.21429
11
6.38669
21
-4.20987
0
LINE
8
BLACK
6
CONTINUOUS
10
6.38669
20
-4.20987
11
6.38691
21
-4.20968
0
LINE
8
BLACK
6
CONTINUOUS
10
6.38691
20
-4.20968
11
6.38703
21
-4.2094
0
LINE
8
BLACK
6
CONTINUOUS
10
6.38703
20
-4.2094
11
6.38924
21
-4.20719
0
LINE
8
BLACK
6
CONTINUOUS
10
6.38924
20
-4.20719
11
6.38951
21
-4.20708
0
LINE
8
BLACK
6
CONTINUOUS
10
6.38951
20
-4.20708
11
6.3897
21
-4.20686
0
LINE
8
BLACK
6
CONTINUOUS
10
6.3897
20
-4.20686
11
6.39412
21
-4.20465
0
LINE
8
BLACK
6
CONTINUOUS
10
6.39412
20
-4.20465
11
6.39433
21
-4.20463
0
LINE
8
BLACK
6
CONTINUOUS
10
6.39433
20
-4.20463
11
6.39449
21
-4.20451
0
LINE
8
BLACK
6
CONTINUOUS
10
6.39449
20
-4.20451
11
6.40333
21
-4.2023
0
LINE
8
BLACK
6
CONTINUOUS
10
6.40333
20
-4.2023
11
6.40356
21
-4.20233
0
LINE
8
BLACK
6
CONTINUOUS
10
6.40356
20
-4.20233
11
6.40377
21
-4.20225
0
LINE
8
BLACK
6
CONTINUOUS
10
6.40377
20
-4.20225
11
6.41481
21
-4.20225
0
LINE
8
BLACK
6
CONTINUOUS
10
6.41481
20
-4.20225
11
6.41503
21
-4.20233
0
LINE
8
BLACK
6
CONTINUOUS
10
6.40399
20
-4.20585
11
6.39556
21
-4.20796
0
LINE
8
BLACK
6
CONTINUOUS
10
6.39556
20
-4.20796
11
6.39158
21
-4.20995
0
LINE
8
BLACK
6
CONTINUOUS
10
6.39158
20
-4.20995
11
6.38978
21
-4.21174
0
LINE
8
BLACK
6
CONTINUOUS
10
6.38978
20
-4.21174
11
6.38789
21
-4.21552
0
LINE
8
BLACK
6
CONTINUOUS
10
6.38789
20
-4.21552
11
6.38789
21
-4.21909
0
LINE
8
BLACK
6
CONTINUOUS
10
6.38789
20
-4.21909
11
6.38978
21
-4.22287
0
LINE
8
BLACK
6
CONTINUOUS
10
6.38978
20
-4.22287
11
6.39158
21
-4.22466
0
LINE
8
BLACK
6
CONTINUOUS
10
6.39158
20
-4.22466
11
6.39556
21
-4.22665
0
LINE
8
BLACK
6
CONTINUOUS
10
6.39556
20
-4.22665
11
6.40399
21
-4.22876
0
LINE
8
BLACK
6
CONTINUOUS
10
6.40399
20
-4.22876
11
6.41459
21
-4.22876
0
LINE
8
BLACK
6
CONTINUOUS
10
6.41459
20
-4.22876
11
6.42302
21
-4.22665
0
LINE
8
BLACK
6
CONTINUOUS
10
6.42302
20
-4.22665
11
6.42701
21
-4.22466
0
LINE
8
BLACK
6
CONTINUOUS
10
6.42701
20
-4.22466
11
6.4288
21
-4.22287
0
LINE
8
BLACK
6
CONTINUOUS
10
6.4288
20
-4.22287
11
6.43069
21
-4.21909
0
LINE
8
BLACK
6
CONTINUOUS
10
6.43069
20
-4.21909
11
6.43069
21
-4.21552
0
LINE
8
BLACK
6
CONTINUOUS
10
6.43069
20
-4.21552
11
6.4288
21
-4.21174
0
LINE
8
BLACK
6
CONTINUOUS
10
6.4288
20
-4.21174
11
6.42701
21
-4.20995
0
LINE
8
BLACK
6
CONTINUOUS
10
6.42701
20
-4.20995
11
6.42302
21
-4.20796
0
LINE
8
BLACK
6
CONTINUOUS
10
6.42302
20
-4.20796
11
6.41459
21
-4.20585
0
LINE
8
BLACK
6
CONTINUOUS
10
6.41459
20
-4.20585
11
6.40399
21
-4.20585
0
LINE
8
BLACK
6
CONTINUOUS
10
6.42404
20
-4.15822
11
6.42446
21
-4.15825
0
LINE
8
BLACK
6
CONTINUOUS
10
6.42446
20
-4.15825
11
6.42888
21
-4.16046
0
LINE
8
BLACK
6
CONTINUOUS
10
6.42888
20
-4.16046
11
6.42907
21
-4.16068
0
LINE
8
BLACK
6
CONTINUOUS
10
6.42907
20
-4.16068
11
6.42934
21
-4.16079
0
LINE
8
BLACK
6
CONTINUOUS
10
6.42934
20
-4.16079
11
6.43155
21
-4.163
0
LINE
8
BLACK
6
CONTINUOUS
10
6.43155
20
-4.163
11
6.43167
21
-4.16328
0
LINE
8
BLACK
6
CONTINUOUS
10
6.43167
20
-4.16328
11
6.43189
21
-4.16347
0
LINE
8
BLACK
6
CONTINUOUS
10
6.43189
20
-4.16347
11
6.4341
21
-4.16789
0
LINE
8
BLACK
6
CONTINUOUS
10
6.4341
20
-4.16789
11
6.43413
21
-4.16831
0
LINE
8
BLACK
6
CONTINUOUS
10
6.43413
20
-4.16831
11
6.43429
21
-4.1687
0
LINE
8
BLACK
6
CONTINUOUS
10
6.43429
20
-4.1687
11
6.43429
21
-4.17974
0
LINE
8
BLACK
6
CONTINUOUS
10
6.43429
20
-4.17974
11
6.43413
21
-4.18013
0
LINE
8
BLACK
6
CONTINUOUS
10
6.43413
20
-4.18013
11
6.4341
21
-4.18055
0
LINE
8
BLACK
6
CONTINUOUS
10
6.4341
20
-4.18055
11
6.43189
21
-4.18497
0
LINE
8
BLACK
6
CONTINUOUS
10
6.43189
20
-4.18497
11
6.43167
21
-4.18516
0
LINE
8
BLACK
6
CONTINUOUS
10
6.43167
20
-4.18516
11
6.43155
21
-4.18543
0
LINE
8
BLACK
6
CONTINUOUS
10
6.43155
20
-4.18543
11
6.42934
21
-4.18764
0
LINE
8
BLACK
6
CONTINUOUS
10
6.42934
20
-4.18764
11
6.42807
21
-4.18817
0
LINE
8
BLACK
6
CONTINUOUS
10
6.42807
20
-4.18817
11
6.4268
21
-4.18764
0
LINE
8
BLACK
6
CONTINUOUS
10
6.4268
20
-4.18764
11
6.42627
21
-4.18637
0
LINE
8
BLACK
6
CONTINUOUS
10
6.42627
20
-4.18637
11
6.4268
21
-4.1851
0
LINE
8
BLACK
6
CONTINUOUS
10
6.4268
20
-4.1851
11
6.4288
21
-4.1831
0
LINE
8
BLACK
6
CONTINUOUS
10
6.4288
20
-4.1831
11
6.43069
21
-4.17932
0
LINE
8
BLACK
6
CONTINUOUS
10
6.43069
20
-4.17932
11
6.43069
21
-4.16912
0
LINE
8
BLACK
6
CONTINUOUS
10
6.43069
20
-4.16912
11
6.4288
21
-4.16534
0
LINE
8
BLACK
6
CONTINUOUS
10
6.4288
20
-4.16534
11
6.42701
21
-4.16355
0
LINE
8
BLACK
6
CONTINUOUS
10
6.42701
20
-4.16355
11
6.42323
21
-4.16166
0
LINE
8
BLACK
6
CONTINUOUS
10
6.42323
20
-4.16166
11
6.41303
21
-4.16166
0
LINE
8
BLACK
6
CONTINUOUS
10
6.41303
20
-4.16166
11
6.40925
21
-4.16355
0
LINE
8
BLACK
6
CONTINUOUS
10
6.40925
20
-4.16355
11
6.40746
21
-4.16534
0
LINE
8
BLACK
6
CONTINUOUS
10
6.40746
20
-4.16534
11
6.40557
21
-4.16912
0
LINE
8
BLACK
6
CONTINUOUS
10
6.40557
20
-4.16912
11
6.40557
21
-4.17932
0
LINE
8
BLACK
6
CONTINUOUS
10
6.40557
20
-4.17932
11
6.40746
21
-4.1831
0
LINE
8
BLACK
6
CONTINUOUS
10
6.40746
20
-4.1831
11
6.40946
21
-4.1851
0
LINE
8
BLACK
6
CONTINUOUS
10
6.40946
20
-4.1851
11
6.40949
21
-4.18519
0
LINE
8
BLACK
6
CONTINUOUS
10
6.40949
20
-4.18519
11
6.40958
21
-4.18523
0
LINE
8
BLACK
6
CONTINUOUS
10
6.40958
20
-4.18523
11
6.40975
21
-4.18581
0
LINE
8
BLACK
6
CONTINUOUS
10
6.40975
20
-4.18581
11
6.40999
21
-4.18637
0
LINE
8
BLACK
6
CONTINUOUS
10
6.40999
20
-4.18637
11
6.40995
21
-4.18646
0
LINE
8
BLACK
6
CONTINUOUS
10
6.40995
20
-4.18646
11
6.40998
21
-4.18655
0
LINE
8
BLACK
6
CONTINUOUS
10
6.40998
20
-4.18655
11
6.40969
21
-4.18708
0
LINE
8
BLACK
6
CONTINUOUS
10
6.40969
20
-4.18708
11
6.40946
21
-4.18764
0
LINE
8
BLACK
6
CONTINUOUS
10
6.40946
20
-4.18764
11
6.40937
21
-4.18768
0
LINE
8
BLACK
6
CONTINUOUS
10
6.40937
20
-4.18768
11
6.40933
21
-4.18776
0
LINE
8
BLACK
6
CONTINUOUS
10
6.40933
20
-4.18776
11
6.40875
21
-4.18794
0
LINE
8
BLACK
6
CONTINUOUS
10
6.40875
20
-4.18794
11
6.40819
21
-4.18817
0
LINE
8
BLACK
6
CONTINUOUS
10
6.40819
20
-4.18817
11
6.4081
21
-4.18813
0
LINE
8
BLACK
6
CONTINUOUS
10
6.4081
20
-4.18813
11
6.40801
21
-4.18816
0
LINE
8
BLACK
6
CONTINUOUS
10
6.40801
20
-4.18816
11
6.38591
21
-4.18595
0
LINE
8
BLACK
6
CONTINUOUS
10
6.38591
20
-4.18595
11
6.38538
21
-4.18567
0
LINE
8
BLACK
6
CONTINUOUS
10
6.38538
20
-4.18567
11
6.38482
21
-4.18543
0
LINE
8
BLACK
6
CONTINUOUS
10
6.38482
20
-4.18543
11
6.38478
21
-4.18535
0
LINE
8
BLACK
6
CONTINUOUS
10
6.38478
20
-4.18535
11
6.3847
21
-4.1853
0
LINE
8
BLACK
6
CONTINUOUS
10
6.3847
20
-4.1853
11
6.38452
21
-4.18472
0
LINE
8
BLACK
6
CONTINUOUS
10
6.38452
20
-4.18472
11
6.38429
21
-4.18416
0
LINE
8
BLACK
6
CONTINUOUS
10
6.38429
20
-4.18416
11
6.38429
21
-4.16207
0
LINE
8
BLACK
6
CONTINUOUS
10
6.38429
20
-4.16207
11
6.38482
21
-4.16079
0
LINE
8
BLACK
6
CONTINUOUS
10
6.38482
20
-4.16079
11
6.38609
21
-4.16027
0
LINE
8
BLACK
6
CONTINUOUS
10
6.38609
20
-4.16027
11
6.38736
21
-4.16079
0
LINE
8
BLACK
6
CONTINUOUS
10
6.38736
20
-4.16079
11
6.38789
21
-4.16207
0
LINE
8
BLACK
6
CONTINUOUS
10
6.38789
20
-4.16207
11
6.38789
21
-4.18253
0
LINE
8
BLACK
6
CONTINUOUS
10
6.38789
20
-4.18253
11
6.40395
21
-4.18414
0
LINE
8
BLACK
6
CONTINUOUS
10
6.40395
20
-4.18414
11
6.40216
21
-4.18055
0
LINE
8
BLACK
6
CONTINUOUS
10
6.40216
20
-4.18055
11
6.40213
21
-4.18013
0
LINE
8
BLACK
6
CONTINUOUS
10
6.40213
20
-4.18013
11
6.40197
21
-4.17974
0
LINE
8
BLACK
6
CONTINUOUS
10
6.40197
20
-4.17974
11
6.40197
21
-4.1687
0
LINE
8
BLACK
6
CONTINUOUS
10
6.40197
20
-4.1687
11
6.40213
21
-4.16831
0
LINE
8
BLACK
6
CONTINUOUS
10
6.40213
20
-4.16831
11
6.40216
21
-4.16789
0
LINE
8
BLACK
6
CONTINUOUS
10
6.40216
20
-4.16789
11
6.40437
21
-4.16347
0
LINE
8
BLACK
6
CONTINUOUS
10
6.40437
20
-4.16347
11
6.40459
21
-4.16328
0
LINE
8
BLACK
6
CONTINUOUS
10
6.40459
20
-4.16328
11
6.4047
21
-4.163
0
LINE
8
BLACK
6
CONTINUOUS
10
6.4047
20
-4.163
11
6.40691
21
-4.16079
0
LINE
8
BLACK
6
CONTINUOUS
10
6.40691
20
-4.16079
11
6.40719
21
-4.16068
0
LINE
8
BLACK
6
CONTINUOUS
10
6.40719
20
-4.16068
11
6.40738
21
-4.16046
0
LINE
8
BLACK
6
CONTINUOUS
10
6.40738
20
-4.16046
11
6.4118
21
-4.15825
0
LINE
8
BLACK
6
CONTINUOUS
10
6.4118
20
-4.15825
11
6.41222
21
-4.15822
0
LINE
8
BLACK
6
CONTINUOUS
10
6.41222
20
-4.15822
11
6.4126
21
-4.15806
0
LINE
8
BLACK
6
CONTINUOUS
10
6.4126
20
-4.15806
11
6.42365
21
-4.15806
0
LINE
8
BLACK
6
CONTINUOUS
10
6.42365
20
-4.15806
11
6.42404
21
-4.15822
0
LINE
8
BLACK
6
CONTINUOUS
10
6.3065
20
-4.144
11
6.2865
21
-4.144
0
LINE
8
BLACK
6
CONTINUOUS
10
6.2865
20
-4.144
11
6.2865
21
-4.124
0
LINE
8
BLACK
6
CONTINUOUS
10
6.2865
20
-4.124
11
6.3065
21
-4.124
0
LINE
8
BLACK
6
CONTINUOUS
10
6.3065
20
-4.124
11
6.3065
21
-4.144
0
LINE
8
BLACK
6
CONTINUOUS
10
6.2065
20
-4.144
11
6.1865
21
-4.144
0
LINE
8
BLACK
6
CONTINUOUS
10
6.1865
20
-4.144
11
6.1865
21
-4.124
0
LINE
8
BLACK
6
CONTINUOUS
10
6.1865
20
-4.124
11
6.2065
21
-4.124
0
LINE
8
BLACK
6
CONTINUOUS
10
6.2065
20
-4.124
11
6.2065
21
-4.144
0
LINE
8
BLACK
6
CONTINUOUS
10
6.41609
20
-4.10335
11
6.41661
21
-4.10462
0
LINE
8
BLACK
6
CONTINUOUS
10
6.41661
20
-4.10462
11
6.41661
21
-4.13997
0
LINE
8
BLACK
6
CONTINUOUS
10
6.41661
20
-4.13997
11
6.41609
21
-4.14124
0
LINE
8
BLACK
6
CONTINUOUS
10
6.41609
20
-4.14124
11
6.41481
21
-4.14177
0
LINE
8
BLACK
6
CONTINUOUS
10
6.41481
20
-4.14177
11
6.41354
21
-4.14124
0
LINE
8
BLACK
6
CONTINUOUS
10
6.41354
20
-4.14124
11
6.41301
21
-4.13997
0
LINE
8
BLACK
6
CONTINUOUS
10
6.41301
20
-4.13997
11
6.41301
21
-4.10462
0
LINE
8
BLACK
6
CONTINUOUS
10
6.41301
20
-4.10462
11
6.41354
21
-4.10335
0
LINE
8
BLACK
6
CONTINUOUS
10
6.41354
20
-4.10335
11
6.41481
21
-4.10282
0
LINE
8
BLACK
6
CONTINUOUS
10
6.41481
20
-4.10282
11
6.41609
21
-4.10335
0
LINE
8
BLACK
6
CONTINUOUS
10
5.794
20
-4.1315
11
5.774
21
-4.1315
0
LINE
8
BLACK
6
CONTINUOUS
10
5.774
20
-4.1315
11
5.774
21
-4.1115
0
LINE
8
BLACK
6
CONTINUOUS
10
5.774
20
-4.1115
11
5.794
21
-4.1115
0
LINE
8
BLACK
6
CONTINUOUS
10
5.794
20
-4.1115
11
5.794
21
-4.1315
0
LINE
8
BLACK
6
CONTINUOUS
10
5.594
20
-4.1315
11
5.574
21
-4.1315
0
LINE
8
BLACK
6
CONTINUOUS
10
5.574
20
-4.1315
11
5.574
21
-4.1115
0
LINE
8
BLACK
6
CONTINUOUS
10
5.574
20
-4.1115
11
5.594
21
-4.1115
0
LINE
8
BLACK
6
CONTINUOUS
10
5.594
20
-4.1115
11
5.594
21
-4.1315
0
LINE
8
BLACK
6
CONTINUOUS
10
6.39962
20
-4.05653
11
6.39992
21
-4.05651
0
LINE
8
BLACK
6
CONTINUOUS
10
6.39992
20
-4.05651
11
6.40655
21
-4.05872
0
LINE
8
BLACK
6
CONTINUOUS
10
6.40655
20
-4.05872
11
6.40686
21
-4.059
0
LINE
8
BLACK
6
CONTINUOUS
10
6.40686
20
-4.059
11
6.40725
21
-4.05916
0
LINE
8
BLACK
6
CONTINUOUS
10
6.40725
20
-4.05916
11
6.43069
21
-4.0826
0
LINE
8
BLACK
6
CONTINUOUS
10
6.43069
20
-4.0826
11
6.43069
21
-4.05822
0
LINE
8
BLACK
6
CONTINUOUS
10
6.43069
20
-4.05822
11
6.43122
21
-4.05695
0
LINE
8
BLACK
6
CONTINUOUS
10
6.43122
20
-4.05695
11
6.43249
21
-4.05642
0
LINE
8
BLACK
6
CONTINUOUS
10
6.43249
20
-4.05642
11
6.43376
21
-4.05695
0
LINE
8
BLACK
6
CONTINUOUS
10
6.43376
20
-4.05695
11
6.43429
21
-4.05822
0
LINE
8
BLACK
6
CONTINUOUS
10
6.43429
20
-4.05822
11
6.43429
21
-4.08694
0
LINE
8
BLACK
6
CONTINUOUS
10
6.43429
20
-4.08694
11
6.43376
21
-4.08822
0
LINE
8
BLACK
6
CONTINUOUS
10
6.43376
20
-4.08822
11
6.43249
21
-4.08874
0
LINE
8
BLACK
6
CONTINUOUS
10
6.43249
20
-4.08874
11
6.43122
21
-4.08822
0
LINE
8
BLACK
6
CONTINUOUS
10
6.43122
20
-4.08822
11
6.405
21
-4.062
0
LINE
8
BLACK
6
CONTINUOUS
10
6.405
20
-4.062
11
6.39906
21
-4.06002
0
LINE
8
BLACK
6
CONTINUOUS
10
6.39906
20
-4.06002
11
6.39535
21
-4.06002
0
LINE
8
BLACK
6
CONTINUOUS
10
6.39535
20
-4.06002
11
6.39158
21
-4.06191
0
LINE
8
BLACK
6
CONTINUOUS
10
6.39158
20
-4.06191
11
6.38978
21
-4.0637
0
LINE
8
BLACK
6
CONTINUOUS
10
6.38978
20
-4.0637
11
6.38789
21
-4.06748
0
LINE
8
BLACK
6
CONTINUOUS
10
6.38789
20
-4.06748
11
6.38789
21
-4.07768
0
LINE
8
BLACK
6
CONTINUOUS
10
6.38789
20
-4.07768
11
6.38978
21
-4.08146
0
LINE
8
BLACK
6
CONTINUOUS
10
6.38978
20
-4.08146
11
6.39178
21
-4.08346
0
LINE
8
BLACK
6
CONTINUOUS
10
6.39178
20
-4.08346
11
6.39231
21
-4.08473
0
LINE
8
BLACK
6
CONTINUOUS
10
6.39231
20
-4.08473
11
6.39178
21
-4.08601
0
LINE
8
BLACK
6
CONTINUOUS
10
6.39178
20
-4.08601
11
6.39051
21
-4.08653
0
LINE
8
BLACK
6
CONTINUOUS
10
6.39051
20
-4.08653
11
6.38924
21
-4.08601
0
LINE
8
BLACK
6
CONTINUOUS
10
6.38924
20
-4.08601
11
6.38703
21
-4.0838
0
LINE
8
BLACK
6
CONTINUOUS
10
6.38703
20
-4.0838
11
6.38691
21
-4.08352
0
LINE
8
BLACK
6
CONTINUOUS
10
6.38691
20
-4.08352
11
6.38669
21
-4.08333
0
LINE
8
BLACK
6
CONTINUOUS
10
6.38669
20
-4.08333
11
6.38448
21
-4.07891
0
LINE
8
BLACK
6
CONTINUOUS
10
6.38448
20
-4.07891
11
6.38445
21
-4.07849
0
LINE
8
BLACK
6
CONTINUOUS
10
6.38445
20
-4.07849
11
6.38429
21
-4.0781
0
LINE
8
BLACK
6
CONTINUOUS
10
6.38429
20
-4.0781
11
6.38429
21
-4.06706
0
LINE
8
BLACK
6
CONTINUOUS
10
6.38429
20
-4.06706
11
6.38445
21
-4.06667
0
LINE
8
BLACK
6
CONTINUOUS
10
6.38445
20
-4.06667
11
6.38448
21
-4.06625
0
LINE
8
BLACK
6
CONTINUOUS
10
6.38448
20
-4.06625
11
6.38669
21
-4.06183
0
LINE
8
BLACK
6
CONTINUOUS
10
6.38669
20
-4.06183
11
6.38691
21
-4.06164
0
LINE
8
BLACK
6
CONTINUOUS
10
6.38691
20
-4.06164
11
6.38703
21
-4.06137
0
LINE
8
BLACK
6
CONTINUOUS
10
6.38703
20
-4.06137
11
6.38924
21
-4.05916
0
LINE
8
BLACK
6
CONTINUOUS
10
6.38924
20
-4.05916
11
6.38951
21
-4.05904
0
LINE
8
BLACK
6
CONTINUOUS
10
6.38951
20
-4.05904
11
6.3897
21
-4.05882
0
LINE
8
BLACK
6
CONTINUOUS
10
6.3897
20
-4.05882
11
6.39412
21
-4.05661
0
LINE
8
BLACK
6
CONTINUOUS
10
6.39412
20
-4.05661
11
6.39454
21
-4.05658
0
LINE
8
BLACK
6
CONTINUOUS
10
6.39454
20
-4.05658
11
6.39493
21
-4.05642
0
LINE
8
BLACK
6
CONTINUOUS
10
6.39493
20
-4.05642
11
6.39935
21
-4.05642
0
LINE
8
BLACK
6
CONTINUOUS
10
6.39935
20
-4.05642
11
6.39962
21
-4.05653
0
LINE
8
BLACK
6
CONTINUOUS
10
5.79557
20
-4.02876
11
5.79505
21
-4.02749
0
LINE
8
BLACK
6
CONTINUOUS
10
5.79505
20
-4.02749
11
5.79557
21
-4.02622
0
LINE
8
BLACK
6
CONTINUOUS
10
5.79557
20
-4.02622
11
5.79685
21
-4.02569
0
LINE
8
BLACK
6
CONTINUOUS
10
5.79685
20
-4.02569
11
5.8083
21
-4.02569
0
LINE
8
BLACK
6
CONTINUOUS
10
5.8083
20
-4.02569
11
5.8083
21
-3.98704
0
LINE
8
BLACK
6
CONTINUOUS
10
5.8083
20
-3.98704
11
5.80718
21
-3.98872
0
LINE
8
BLACK
6
CONTINUOUS
10
5.80718
20
-3.98872
11
5.80703
21
-3.98882
0
LINE
8
BLACK
6
CONTINUOUS
10
5.80703
20
-3.98882
11
5.80696
21
-3.98899
0
LINE
8
BLACK
6
CONTINUOUS
10
5.80696
20
-3.98899
11
5.80254
21
-3.99341
0
LINE
8
BLACK
6
CONTINUOUS
10
5.80254
20
-3.99341
11
5.80227
21
-3.99352
0
LINE
8
BLACK
6
CONTINUOUS
10
5.80227
20
-3.99352
11
5.80207
21
-3.99375
0
LINE
8
BLACK
6
CONTINUOUS
10
5.80207
20
-3.99375
11
5.79765
21
-3.99596
0
LINE
8
BLACK
6
CONTINUOUS
10
5.79765
20
-3.99596
11
5.79628
21
-3.99606
0
LINE
8
BLACK
6
CONTINUOUS
10
5.79628
20
-3.99606
11
5.79524
21
-3.99515
0
LINE
8
BLACK
6
CONTINUOUS
10
5.79524
20
-3.99515
11
5.79514
21
-3.99378
0
LINE
8
BLACK
6
CONTINUOUS
10
5.79514
20
-3.99378
11
5.79604
21
-3.99274
0
LINE
8
BLACK
6
CONTINUOUS
10
5.79604
20
-3.99274
11
5.8002
21
-3.99066
0
LINE
8
BLACK
6
CONTINUOUS
10
5.8002
20
-3.99066
11
5.80429
21
-3.98657
0
LINE
8
BLACK
6
CONTINUOUS
10
5.80429
20
-3.98657
11
5.80861
21
-3.98009
0
LINE
8
BLACK
6
CONTINUOUS
10
5.80861
20
-3.98009
11
5.80876
21
-3.97999
0
LINE
8
BLACK
6
CONTINUOUS
10
5.80876
20
-3.97999
11
5.80883
21
-3.97982
0
LINE
8
BLACK
6
CONTINUOUS
10
5.80883
20
-3.97982
11
5.80932
21
-3.97962
0
LINE
8
BLACK
6
CONTINUOUS
10
5.80932
20
-3.97962
11
5.80975
21
-3.97933
0
LINE
8
BLACK
6
CONTINUOUS
10
5.80975
20
-3.97933
11
5.80993
21
-3.97936
0
LINE
8
BLACK
6
CONTINUOUS
10
5.80993
20
-3.97936
11
5.8101
21
-3.97929
0
LINE
8
BLACK
6
CONTINUOUS
10
5.8101
20
-3.97929
11
5.81059
21
-3.97949
0
LINE
8
BLACK
6
CONTINUOUS
10
5.81059
20
-3.97949
11
5.8111
21
-3.97959
0
LINE
8
BLACK
6
CONTINUOUS
10
5.8111
20
-3.97959
11
5.81121
21
-3.97975
0
LINE
8
BLACK
6
CONTINUOUS
10
5.81121
20
-3.97975
11
5.81138
21
-3.97982
0
LINE
8
BLACK
6
CONTINUOUS
10
5.81138
20
-3.97982
11
5.81158
21
-3.9803
0
LINE
8
BLACK
6
CONTINUOUS
10
5.81158
20
-3.9803
11
5.81187
21
-3.98074
0
LINE
8
BLACK
6
CONTINUOUS
10
5.81187
20
-3.98074
11
5.81183
21
-3.98092
0
LINE
8
BLACK
6
CONTINUOUS
10
5.81183
20
-3.98092
11
5.8119
21
-3.98109
0
LINE
8
BLACK
6
CONTINUOUS
10
5.8119
20
-3.98109
11
5.8119
21
-4.02569
0
LINE
8
BLACK
6
CONTINUOUS
10
5.8119
20
-4.02569
11
5.82336
21
-4.02569
0
LINE
8
BLACK
6
CONTINUOUS
10
5.82336
20
-4.02569
11
5.82463
21
-4.02622
0
LINE
8
BLACK
6
CONTINUOUS
10
5.82463
20
-4.02622
11
5.82516
21
-4.02749
0
LINE
8
BLACK
6
CONTINUOUS
10
5.82516
20
-4.02749
11
5.82463
21
-4.02876
0
LINE
8
BLACK
6
CONTINUOUS
10
5.82463
20
-4.02876
11
5.82336
21
-4.02929
0
LINE
8
BLACK
6
CONTINUOUS
10
5.82336
20
-4.02929
11
5.79685
21
-4.02929
0
LINE
8
BLACK
6
CONTINUOUS
10
5.79685
20
-4.02929
11
5.79557
21
-4.02876
0
LINE
8
BLACK
6
CONTINUOUS
10
5.66687
20
-3.97945
11
5.66729
21
-3.97948
0
LINE
8
BLACK
6
CONTINUOUS
10
5.66729
20
-3.97948
11
5.67171
21
-3.98169
0
LINE
8
BLACK
6
CONTINUOUS
10
5.67171
20
-3.98169
11
5.6719
21
-3.98191
0
LINE
8
BLACK
6
CONTINUOUS
10
5.6719
20
-3.98191
11
5.67218
21
-3.98203
0
LINE
8
BLACK
6
CONTINUOUS
10
5.67218
20
-3.98203
11
5.67439
21
-3.98424
0
LINE
8
BLACK
6
CONTINUOUS
10
5.67439
20
-3.98424
11
5.6745
21
-3.98451
0
LINE
8
BLACK
6
CONTINUOUS
10
5.6745
20
-3.98451
11
5.67472
21
-3.9847
0
LINE
8
BLACK
6
CONTINUOUS
10
5.67472
20
-3.9847
11
5.67693
21
-3.98912
0
LINE
8
BLACK
6
CONTINUOUS
10
5.67693
20
-3.98912
11
5.67695
21
-3.98933
0
LINE
8
BLACK
6
CONTINUOUS
10
5.67695
20
-3.98933
11
5.67707
21
-3.98949
0
LINE
8
BLACK
6
CONTINUOUS
10
5.67707
20
-3.98949
11
5.67928
21
-3.99833
0
LINE
8
BLACK
6
CONTINUOUS
10
5.67928
20
-3.99833
11
5.67925
21
-3.99856
0
LINE
8
BLACK
6
CONTINUOUS
10
5.67925
20
-3.99856
11
5.67933
21
-3.99877
0
LINE
8
BLACK
6
CONTINUOUS
10
5.67933
20
-3.99877
11
5.67933
21
-4.00981
0
LINE
8
BLACK
6
CONTINUOUS
10
5.67933
20
-4.00981
11
5.67925
21
-4.01003
0
LINE
8
BLACK
6
CONTINUOUS
10
5.67925
20
-4.01003
11
5.67928
21
-4.01025
0
LINE
8
BLACK
6
CONTINUOUS
10
5.67928
20
-4.01025
11
5.67707
21
-4.01909
0
LINE
8
BLACK
6
CONTINUOUS
10
5.67707
20
-4.01909
11
5.67695
21
-4.01925
0
LINE
8
BLACK
6
CONTINUOUS
10
5.67695
20
-4.01925
11
5.67693
21
-4.01946
0
LINE
8
BLACK
6
CONTINUOUS
10
5.67693
20
-4.01946
11
5.67472
21
-4.02388
0
LINE
8
BLACK
6
CONTINUOUS
10
5.67472
20
-4.02388
11
5.6745
21
-4.02407
0
LINE
8
BLACK
6
CONTINUOUS
10
5.6745
20
-4.02407
11
5.67439
21
-4.02434
0
LINE
8
BLACK
6
CONTINUOUS
10
5.67439
20
-4.02434
11
5.67218
21
-4.02655
0
LINE
8
BLACK
6
CONTINUOUS
10
5.67218
20
-4.02655
11
5.6719
21
-4.02667
0
LINE
8
BLACK
6
CONTINUOUS
10
5.6719
20
-4.02667
11
5.67171
21
-4.02689
0
LINE
8
BLACK
6
CONTINUOUS
10
5.67171
20
-4.02689
11
5.66729
21
-4.0291
0
LINE
8
BLACK
6
CONTINUOUS
10
5.66729
20
-4.0291
11
5.66687
21
-4.02913
0
LINE
8
BLACK
6
CONTINUOUS
10
5.66687
20
-4.02913
11
5.66649
21
-4.02929
0
LINE
8
BLACK
6
CONTINUOUS
10
5.66649
20
-4.02929
11
5.66207
21
-4.02929
0
LINE
8
BLACK
6
CONTINUOUS
10
5.66207
20
-4.02929
11
5.66168
21
-4.02913
0
LINE
8
BLACK
6
CONTINUOUS
10
5.66168
20
-4.02913
11
5.66126
21
-4.0291
0
LINE
8
BLACK
6
CONTINUOUS
10
5.66126
20
-4.0291
11
5.65684
21
-4.02689
0
LINE
8
BLACK
6
CONTINUOUS
10
5.65684
20
-4.02689
11
5.65665
21
-4.02667
0
LINE
8
BLACK
6
CONTINUOUS
10
5.65665
20
-4.02667
11
5.65637
21
-4.02655
0
LINE
8
BLACK
6
CONTINUOUS
10
5.65637
20
-4.02655
11
5.65417
21
-4.02434
0
LINE
8
BLACK
6
CONTINUOUS
10
5.65417
20
-4.02434
11
5.65405
21
-4.02407
0
LINE
8
BLACK
6
CONTINUOUS
10
5.65405
20
-4.02407
11
5.65383
21
-4.02388
0
LINE
8
BLACK
6
CONTINUOUS
10
5.65383
20
-4.02388
11
5.65162
21
-4.01946
0
LINE
8
BLACK
6
CONTINUOUS
10
5.65162
20
-4.01946
11
5.6516
21
-4.01925
0
LINE
8
BLACK
6
CONTINUOUS
10
5.6516
20
-4.01925
11
5.65148
21
-4.01909
0
LINE
8
BLACK
6
CONTINUOUS
10
5.65148
20
-4.01909
11
5.64927
21
-4.01025
0
LINE
8
BLACK
6
CONTINUOUS
10
5.64927
20
-4.01025
11
5.64931
21
-4.01003
0
LINE
8
BLACK
6
CONTINUOUS
10
5.64931
20
-4.01003
11
5.64922
21
-4.00981
0
LINE
8
BLACK
6
CONTINUOUS
10
5.64922
20
-4.00981
11
5.64922
21
-3.99877
0
LINE
8
BLACK
6
CONTINUOUS
10
5.64922
20
-3.99877
11
5.64931
21
-3.99856
0
LINE
8
BLACK
6
CONTINUOUS
10
5.64931
20
-3.99856
11
5.64927
21
-3.99833
0
LINE
8
BLACK
6
CONTINUOUS
10
5.64927
20
-3.99833
11
5.65148
21
-3.98949
0
LINE
8
BLACK
6
CONTINUOUS
10
5.65148
20
-3.98949
11
5.6516
21
-3.98933
0
LINE
8
BLACK
6
CONTINUOUS
10
5.6516
20
-3.98933
11
5.65162
21
-3.98912
0
LINE
8
BLACK
6
CONTINUOUS
10
5.65162
20
-3.98912
11
5.65383
21
-3.9847
0
LINE
8
BLACK
6
CONTINUOUS
10
5.65383
20
-3.9847
11
5.65405
21
-3.98451
0
LINE
8
BLACK
6
CONTINUOUS
10
5.65405
20
-3.98451
11
5.65417
21
-3.98424
0
LINE
8
BLACK
6
CONTINUOUS
10
5.65417
20
-3.98424
11
5.65637
21
-3.98203
0
LINE
8
BLACK
6
CONTINUOUS
10
5.65637
20
-3.98203
11
5.65665
21
-3.98191
0
LINE
8
BLACK
6
CONTINUOUS
10
5.65665
20
-3.98191
11
5.65684
21
-3.98169
0
LINE
8
BLACK
6
CONTINUOUS
10
5.65684
20
-3.98169
11
5.66126
21
-3.97948
0
LINE
8
BLACK
6
CONTINUOUS
10
5.66126
20
-3.97948
11
5.66168
21
-3.97945
0
LINE
8
BLACK
6
CONTINUOUS
10
5.66168
20
-3.97945
11
5.66207
21
-3.97929
0
LINE
8
BLACK
6
CONTINUOUS
10
5.66207
20
-3.97929
11
5.66649
21
-3.97929
0
LINE
8
BLACK
6
CONTINUOUS
10
5.66649
20
-3.97929
11
5.66687
21
-3.97945
0
LINE
8
BLACK
6
CONTINUOUS
10
5.66249
20
-3.98289
11
5.65871
21
-3.98478
0
LINE
8
BLACK
6
CONTINUOUS
10
5.65871
20
-3.98478
11
5.65692
21
-3.98658
0
LINE
8
BLACK
6
CONTINUOUS
10
5.65692
20
-3.98658
11
5.65493
21
-3.99056
0
LINE
8
BLACK
6
CONTINUOUS
10
5.65493
20
-3.99056
11
5.65282
21
-3.99899
0
LINE
8
BLACK
6
CONTINUOUS
10
5.65282
20
-3.99899
11
5.65282
21
-4.00959
0
LINE
8
BLACK
6
CONTINUOUS
10
5.65282
20
-4.00959
11
5.65493
21
-4.01802
0
LINE
8
BLACK
6
CONTINUOUS
10
5.65493
20
-4.01802
11
5.65692
21
-4.02201
0
LINE
8
BLACK
6
CONTINUOUS
10
5.65692
20
-4.02201
11
5.65871
21
-4.0238
0
LINE
8
BLACK
6
CONTINUOUS
10
5.65871
20
-4.0238
11
5.66249
21
-4.02569
0
LINE
8
BLACK
6
CONTINUOUS
10
5.66249
20
-4.02569
11
5.66606
21
-4.02569
0
LINE
8
BLACK
6
CONTINUOUS
10
5.66606
20
-4.02569
11
5.66984
21
-4.0238
0
LINE
8
BLACK
6
CONTINUOUS
10
5.66984
20
-4.0238
11
5.67163
21
-4.02201
0
LINE
8
BLACK
6
CONTINUOUS
10
5.67163
20
-4.02201
11
5.67363
21
-4.01802
0
LINE
8
BLACK
6
CONTINUOUS
10
5.67363
20
-4.01802
11
5.67573
21
-4.00959
0
LINE
8
BLACK
6
CONTINUOUS
10
5.67573
20
-4.00959
11
5.67573
21
-3.99899
0
LINE
8
BLACK
6
CONTINUOUS
10
5.67573
20
-3.99899
11
5.67363
21
-3.99056
0
LINE
8
BLACK
6
CONTINUOUS
10
5.67363
20
-3.99056
11
5.67163
21
-3.98658
0
LINE
8
BLACK
6
CONTINUOUS
10
5.67163
20
-3.98658
11
5.66984
21
-3.98478
0
LINE
8
BLACK
6
CONTINUOUS
10
5.66984
20
-3.98478
11
5.66606
21
-3.98289
0
LINE
8
BLACK
6
CONTINUOUS
10
5.66606
20
-3.98289
11
5.66249
21
-3.98289
0
LINE
8
BLACK
6
CONTINUOUS
10
5.59173
20
-3.97944
11
5.59212
21
-3.97946
0
LINE
8
BLACK
6
CONTINUOUS
10
5.59212
20
-3.97946
11
5.59234
21
-3.9797
0
LINE
8
BLACK
6
CONTINUOUS
10
5.59234
20
-3.9797
11
5.59263
21
-3.97982
0
LINE
8
BLACK
6
CONTINUOUS
10
5.59263
20
-3.97982
11
5.59279
21
-3.98018
0
LINE
8
BLACK
6
CONTINUOUS
10
5.59279
20
-3.98018
11
5.59305
21
-3.98048
0
LINE
8
BLACK
6
CONTINUOUS
10
5.59305
20
-3.98048
11
5.59304
21
-3.98079
0
LINE
8
BLACK
6
CONTINUOUS
10
5.59304
20
-3.98079
11
5.59316
21
-3.98109
0
LINE
8
BLACK
6
CONTINUOUS
10
5.59316
20
-3.98109
11
5.59316
21
-4.02749
0
LINE
8
BLACK
6
CONTINUOUS
10
5.59316
20
-4.02749
11
5.59263
21
-4.02876
0
LINE
8
BLACK
6
CONTINUOUS
10
5.59263
20
-4.02876
11
5.59136
21
-4.02929
0
LINE
8
BLACK
6
CONTINUOUS
10
5.59136
20
-4.02929
11
5.59009
21
-4.02876
0
LINE
8
BLACK
6
CONTINUOUS
10
5.59009
20
-4.02876
11
5.58956
21
-4.02749
0
LINE
8
BLACK
6
CONTINUOUS
10
5.58956
20
-4.02749
11
5.58956
21
-3.9892
0
LINE
8
BLACK
6
CONTINUOUS
10
5.58956
20
-3.9892
11
5.57753
21
-4.01499
0
LINE
8
BLACK
6
CONTINUOUS
10
5.57753
20
-4.01499
11
5.57707
21
-4.01541
0
LINE
8
BLACK
6
CONTINUOUS
10
5.57707
20
-4.01541
11
5.57666
21
-4.01586
0
LINE
8
BLACK
6
CONTINUOUS
10
5.57666
20
-4.01586
11
5.57657
21
-4.01587
0
LINE
8
BLACK
6
CONTINUOUS
10
5.57657
20
-4.01587
11
5.57651
21
-4.01592
0
LINE
8
BLACK
6
CONTINUOUS
10
5.57651
20
-4.01592
11
5.5759
21
-4.0159
0
LINE
8
BLACK
6
CONTINUOUS
10
5.5759
20
-4.0159
11
5.57528
21
-4.01592
0
LINE
8
BLACK
6
CONTINUOUS
10
5.57528
20
-4.01592
11
5.57522
21
-4.01587
0
LINE
8
BLACK
6
CONTINUOUS
10
5.57522
20
-4.01587
11
5.57513
21
-4.01586
0
LINE
8
BLACK
6
CONTINUOUS
10
5.57513
20
-4.01586
11
5.57472
21
-4.01541
0
LINE
8
BLACK
6
CONTINUOUS
10
5.57472
20
-4.01541
11
5.57426
21
-4.01499
0
LINE
8
BLACK
6
CONTINUOUS
10
5.57426
20
-4.01499
11
5.56223
21
-3.9892
0
LINE
8
BLACK
6
CONTINUOUS
10
5.56223
20
-3.9892
11
5.56223
21
-4.02749
0
LINE
8
BLACK
6
CONTINUOUS
10
5.56223
20
-4.02749
11
5.5617
21
-4.02876
0
LINE
8
BLACK
6
CONTINUOUS
10
5.5617
20
-4.02876
11
5.56043
21
-4.02929
0
LINE
8
BLACK
6
CONTINUOUS
10
5.56043
20
-4.02929
11
5.55916
21
-4.02876
0
LINE
8
BLACK
6
CONTINUOUS
10
5.55916
20
-4.02876
11
5.55863
21
-4.02749
0
LINE
8
BLACK
6
CONTINUOUS
10
5.55863
20
-4.02749
11
5.55863
21
-3.98109
0
LINE
8
BLACK
6
CONTINUOUS
10
5.55863
20
-3.98109
11
5.55875
21
-3.98079
0
LINE
8
BLACK
6
CONTINUOUS
10
5.55875
20
-3.98079
11
5.55874
21
-3.98048
0
LINE
8
BLACK
6
CONTINUOUS
10
5.55874
20
-3.98048
11
5.559
21
-3.98018
0
LINE
8
BLACK
6
CONTINUOUS
10
5.559
20
-3.98018
11
5.55916
21
-3.97982
0
LINE
8
BLACK
6
CONTINUOUS
10
5.55916
20
-3.97982
11
5.55945
21
-3.9797
0
LINE
8
BLACK
6
CONTINUOUS
10
5.55945
20
-3.9797
11
5.55967
21
-3.97946
0
LINE
8
BLACK
6
CONTINUOUS
10
5.55967
20
-3.97946
11
5.56006
21
-3.97944
0
LINE
8
BLACK
6
CONTINUOUS
10
5.56006
20
-3.97944
11
5.56043
21
-3.97929
0
LINE
8
BLACK
6
CONTINUOUS
10
5.56043
20
-3.97929
11
5.56072
21
-3.97941
0
LINE
8
BLACK
6
CONTINUOUS
10
5.56072
20
-3.97941
11
5.56104
21
-3.9794
0
LINE
8
BLACK
6
CONTINUOUS
10
5.56104
20
-3.9794
11
5.56134
21
-3.97967
0
LINE
8
BLACK
6
CONTINUOUS
10
5.56134
20
-3.97967
11
5.5617
21
-3.97982
0
LINE
8
BLACK
6
CONTINUOUS
10
5.5617
20
-3.97982
11
5.56182
21
-3.98011
0
LINE
8
BLACK
6
CONTINUOUS
10
5.56182
20
-3.98011
11
5.56206
21
-3.98033
0
LINE
8
BLACK
6
CONTINUOUS
10
5.56206
20
-3.98033
11
5.5759
21
-4.00998
0
LINE
8
BLACK
6
CONTINUOUS
10
5.5759
20
-4.00998
11
5.58973
21
-3.98033
0
LINE
8
BLACK
6
CONTINUOUS
10
5.58973
20
-3.98033
11
5.58997
21
-3.98011
0
LINE
8
BLACK
6
CONTINUOUS
10
5.58997
20
-3.98011
11
5.59009
21
-3.97982
0
LINE
8
BLACK
6
CONTINUOUS
10
5.59009
20
-3.97982
11
5.59045
21
-3.97967
0
LINE
8
BLACK
6
CONTINUOUS
10
5.59045
20
-3.97967
11
5.59075
21
-3.9794
0
LINE
8
BLACK
6
CONTINUOUS
10
5.59075
20
-3.9794
11
5.59107
21
-3.97941
0
LINE
8
BLACK
6
CONTINUOUS
10
5.59107
20
-3.97941
11
5.59136
21
-3.97929
0
LINE
8
BLACK
6
CONTINUOUS
10
5.59136
20
-3.97929
11
5.59173
21
-3.97944
0
LINE
8
BLACK
6
CONTINUOUS
10
5.7315
20
-3.9815
11
5.72335
21
-3.9815
0
LINE
8
BLACK
6
CONTINUOUS
10
5.72335
20
-3.9815
11
5.72328
21
-3.98168
0
LINE
8
BLACK
6
CONTINUOUS
10
5.72328
20
-3.98168
11
5.72308
21
-3.98228
0
LINE
8
BLACK
6
CONTINUOUS
10
5.72308
20
-3.98228
11
5.71022
21
-3.99697
0
LINE
8
BLACK
6
CONTINUOUS
10
5.71022
20
-3.99697
11
5.71289
21
-3.99697
0
LINE
8
BLACK
6
CONTINUOUS
10
5.71289
20
-3.99697
11
5.71327
21
-3.99713
0
LINE
8
BLACK
6
CONTINUOUS
10
5.71327
20
-3.99713
11
5.71369
21
-3.99716
0
LINE
8
BLACK
6
CONTINUOUS
10
5.71369
20
-3.99716
11
5.71811
21
-3.99937
0
LINE
8
BLACK
6
CONTINUOUS
10
5.71811
20
-3.99937
11
5.7183
21
-3.99959
0
LINE
8
BLACK
6
CONTINUOUS
10
5.7183
20
-3.99959
11
5.71858
21
-3.9997
0
LINE
8
BLACK
6
CONTINUOUS
10
5.71858
20
-3.9997
11
5.72079
21
-4.00191
0
LINE
8
BLACK
6
CONTINUOUS
10
5.72079
20
-4.00191
11
5.7209
21
-4.00219
0
LINE
8
BLACK
6
CONTINUOUS
10
5.7209
20
-4.00219
11
5.72112
21
-4.00238
0
LINE
8
BLACK
6
CONTINUOUS
10
5.72112
20
-4.00238
11
5.72333
21
-4.0068
0
LINE
8
BLACK
6
CONTINUOUS
10
5.72333
20
-4.0068
11
5.72336
21
-4.00722
0
LINE
8
BLACK
6
CONTINUOUS
10
5.72336
20
-4.00722
11
5.72352
21
-4.0076
0
LINE
8
BLACK
6
CONTINUOUS
10
5.72352
20
-4.0076
11
5.72352
21
-4.01865
0
LINE
8
BLACK
6
CONTINUOUS
10
5.72352
20
-4.01865
11
5.72336
21
-4.01904
0
LINE
8
BLACK
6
CONTINUOUS
10
5.72336
20
-4.01904
11
5.72333
21
-4.01946
0
LINE
8
BLACK
6
CONTINUOUS
10
5.72333
20
-4.01946
11
5.72112
21
-4.02388
0
LINE
8
BLACK
6
CONTINUOUS
10
5.72112
20
-4.02388
11
5.7209
21
-4.02407
0
LINE
8
BLACK
6
CONTINUOUS
10
5.7209
20
-4.02407
11
5.72079
21
-4.02434
0
LINE
8
BLACK
6
CONTINUOUS
10
5.72079
20
-4.02434
11
5.71858
21
-4.02655
0
LINE
8
BLACK
6
CONTINUOUS
10
5.71858
20
-4.02655
11
5.7183
21
-4.02667
0
LINE
8
BLACK
6
CONTINUOUS
10
5.7183
20
-4.02667
11
5.71811
21
-4.02689
0
LINE
8
BLACK
6
CONTINUOUS
10
5.71811
20
-4.02689
11
5.71369
21
-4.0291
0
LINE
8
BLACK
6
CONTINUOUS
10
5.71369
20
-4.0291
11
5.71327
21
-4.02913
0
LINE
8
BLACK
6
CONTINUOUS
10
5.71327
20
-4.02913
11
5.71289
21
-4.02929
0
LINE
8
BLACK
6
CONTINUOUS
10
5.71289
20
-4.02929
11
5.69963
21
-4.02929
0
LINE
8
BLACK
6
CONTINUOUS
10
5.69963
20
-4.02929
11
5.69924
21
-4.02913
0
LINE
8
BLACK
6
CONTINUOUS
10
5.69924
20
-4.02913
11
5.69882
21
-4.0291
0
LINE
8
BLACK
6
CONTINUOUS
10
5.69882
20
-4.0291
11
5.6944
21
-4.02689
0
LINE
8
BLACK
6
CONTINUOUS
10
5.6944
20
-4.02689
11
5.69421
21
-4.02667
0
LINE
8
BLACK
6
CONTINUOUS
10
5.69421
20
-4.02667
11
5.69394
21
-4.02655
0
LINE
8
BLACK
6
CONTINUOUS
10
5.69394
20
-4.02655
11
5.69173
21
-4.02434
0
LINE
8
BLACK
6
CONTINUOUS
10
5.69173
20
-4.02434
11
5.6912
21
-4.02307
0
LINE
8
BLACK
6
CONTINUOUS
10
5.6912
20
-4.02307
11
5.69173
21
-4.0218
0
LINE
8
BLACK
6
CONTINUOUS
10
5.69173
20
-4.0218
11
5.693
21
-4.02127
0
LINE
8
BLACK
6
CONTINUOUS
10
5.693
20
-4.02127
11
5.69427
21
-4.0218
0
LINE
8
BLACK
6
CONTINUOUS
10
5.69427
20
-4.0218
11
5.69628
21
-4.0238
0
LINE
8
BLACK
6
CONTINUOUS
10
5.69628
20
-4.0238
11
5.70005
21
-4.02569
0
LINE
8
BLACK
6
CONTINUOUS
10
5.70005
20
-4.02569
11
5.71246
21
-4.02569
0
LINE
8
BLACK
6
CONTINUOUS
10
5.71246
20
-4.02569
11
5.71624
21
-4.0238
0
LINE
8
BLACK
6
CONTINUOUS
10
5.71624
20
-4.0238
11
5.71803
21
-4.02201
0
LINE
8
BLACK
6
CONTINUOUS
10
5.71803
20
-4.02201
11
5.71992
21
-4.01823
0
LINE
8
BLACK
6
CONTINUOUS
10
5.71992
20
-4.01823
11
5.71992
21
-4.00803
0
LINE
8
BLACK
6
CONTINUOUS
10
5.71992
20
-4.00803
11
5.71803
21
-4.00425
0
LINE
8
BLACK
6
CONTINUOUS
10
5.71803
20
-4.00425
11
5.71624
21
-4.00246
0
LINE
8
BLACK
6
CONTINUOUS
10
5.71624
20
-4.00246
11
5.71246
21
-4.00057
0
LINE
8
BLACK
6
CONTINUOUS
10
5.71246
20
-4.00057
11
5.70626
21
-4.00057
0
LINE
8
BLACK
6
CONTINUOUS
10
5.70626
20
-4.00057
11
5.70567
21
-4.00032
0
LINE
8
BLACK
6
CONTINUOUS
10
5.70567
20
-4.00032
11
5.70507
21
-4.00012
0
LINE
8
BLACK
6
CONTINUOUS
10
5.70507
20
-4.00012
11
5.70504
21
-4.00006
0
LINE
8
BLACK
6
CONTINUOUS
10
5.70504
20
-4.00006
11
5.70498
21
-4.00004
0
LINE
8
BLACK
6
CONTINUOUS
10
5.70498
20
-4.00004
11
5.70474
21
-3.99945
0
LINE
8
BLACK
6
CONTINUOUS
10
5.70474
20
-3.99945
11
5.70446
21
-3.99889
0
LINE
8
BLACK
6
CONTINUOUS
10
5.70446
20
-3.99889
11
5.70448
21
-3.99883
0
LINE
8
BLACK
6
CONTINUOUS
10
5.70448
20
-3.99883
11
5.70446
21
-3.99877
0
LINE
8
BLACK
6
CONTINUOUS
10
5.70446
20
-3.99877
11
5.7047
21
-3.99818
0
LINE
8
BLACK
6
CONTINUOUS
10
5.7047
20
-3.99818
11
5.7049
21
-3.99758
0
LINE
8
BLACK
6
CONTINUOUS
10
5.7049
20
-3.99758
11
5.71776
21
-3.98289
0
LINE
8
BLACK
6
CONTINUOUS
10
5.71776
20
-3.98289
11
5.693
21
-3.98289
0
LINE
8
BLACK
6
CONTINUOUS
10
5.693
20
-3.98289
11
5.69173
21
-3.98236
0
LINE
8
BLACK
6
CONTINUOUS
10
5.69173
20
-3.98236
11
5.6912
21
-3.98109
0
LINE
8
BLACK
6
CONTINUOUS
10
5.6912
20
-3.98109
11
5.69173
21
-3.97982
0
LINE
8
BLACK
6
CONTINUOUS
10
5.69173
20
-3.97982
11
5.693
21
-3.97929
0
LINE
8
BLACK
6
CONTINUOUS
10
5.693
20
-3.97929
11
5.7115
21
-3.97929
0
LINE
8
BLACK
6
CONTINUOUS
10
5.7115
20
-3.97929
11
5.7115
21
-3.9615
0
LINE
8
BLACK
6
CONTINUOUS
10
5.7115
20
-3.9615
11
5.7315
21
-3.9615
0
LINE
8
BLACK
6
CONTINUOUS
10
5.7315
20
-3.9615
11
5.7315
21
-3.9815
0
LINE
8
BLACK
6
CONTINUOUS
10
5.62297
20
-3.97947
11
5.6231
21
-3.97948
0
LINE
8
BLACK
6
CONTINUOUS
10
5.6231
20
-3.97948
11
5.62347
21
-3.97991
0
LINE
8
BLACK
6
CONTINUOUS
10
5.62347
20
-3.97991
11
5.62391
21
-3.98029
0
LINE
8
BLACK
6
CONTINUOUS
10
5.62391
20
-3.98029
11
5.62391
21
-3.98042
0
LINE
8
BLACK
6
CONTINUOUS
10
5.62391
20
-3.98042
11
5.624
21
-3.98052
0
LINE
8
BLACK
6
CONTINUOUS
10
5.624
20
-3.98052
11
5.63947
21
-4.02692
0
LINE
8
BLACK
6
CONTINUOUS
10
5.63947
20
-4.02692
11
5.63937
21
-4.0283
0
LINE
8
BLACK
6
CONTINUOUS
10
5.63937
20
-4.0283
11
5.63833
21
-4.0292
0
LINE
8
BLACK
6
CONTINUOUS
10
5.63833
20
-4.0292
11
5.63696
21
-4.0291
0
LINE
8
BLACK
6
CONTINUOUS
10
5.63696
20
-4.0291
11
5.63605
21
-4.02806
0
LINE
8
BLACK
6
CONTINUOUS
10
5.63605
20
-4.02806
11
5.63205
21
-4.01603
0
LINE
8
BLACK
6
CONTINUOUS
10
5.63205
20
-4.01603
11
5.61254
21
-4.01603
0
LINE
8
BLACK
6
CONTINUOUS
10
5.61254
20
-4.01603
11
5.60854
21
-4.02806
0
LINE
8
BLACK
6
CONTINUOUS
10
5.60854
20
-4.02806
11
5.60763
21
-4.0291
0
LINE
8
BLACK
6
CONTINUOUS
10
5.60763
20
-4.0291
11
5.60626
21
-4.0292
0
LINE
8
BLACK
6
CONTINUOUS
10
5.60626
20
-4.0292
11
5.60522
21
-4.0283
0
LINE
8
BLACK
6
CONTINUOUS
10
5.60522
20
-4.0283
11
5.60512
21
-4.02692
0
LINE
8
BLACK
6
CONTINUOUS
10
5.60512
20
-4.02692
11
5.62059
21
-3.98052
0
LINE
8
BLACK
6
CONTINUOUS
10
5.62059
20
-3.98052
11
5.62068
21
-3.98042
0
LINE
8
BLACK
6
CONTINUOUS
10
5.62068
20
-3.98042
11
5.62069
21
-3.98029
0
LINE
8
BLACK
6
CONTINUOUS
10
5.62069
20
-3.98029
11
5.62112
21
-3.97991
0
LINE
8
BLACK
6
CONTINUOUS
10
5.62112
20
-3.97991
11
5.62149
21
-3.97948
0
LINE
8
BLACK
6
CONTINUOUS
10
5.62149
20
-3.97948
11
5.62162
21
-3.97947
0
LINE
8
BLACK
6
CONTINUOUS
10
5.62162
20
-3.97947
11
5.62173
21
-3.97938
0
LINE
8
BLACK
6
CONTINUOUS
10
5.62173
20
-3.97938
11
5.6223
21
-3.97942
0
LINE
8
BLACK
6
CONTINUOUS
10
5.6223
20
-3.97942
11
5.62286
21
-3.97938
0
LINE
8
BLACK
6
CONTINUOUS
10
5.62286
20
-3.97938
11
5.62297
21
-3.97947
0
LINE
8
BLACK
6
CONTINUOUS
10
5.61374
20
-4.01243
11
5.63085
21
-4.01243
0
LINE
8
BLACK
6
CONTINUOUS
10
5.63085
20
-4.01243
11
5.6223
21
-3.98678
0
LINE
8
BLACK
6
CONTINUOUS
10
5.6223
20
-3.98678
11
5.61374
21
-4.01243
0
LINE
8
BLACK
6
CONTINUOUS
10
5.77823
20
-4.00854
11
5.77876
21
-4.00981
0
LINE
8
BLACK
6
CONTINUOUS
10
5.77876
20
-4.00981
11
5.77823
21
-4.01109
0
LINE
8
BLACK
6
CONTINUOUS
10
5.77823
20
-4.01109
11
5.77696
21
-4.01161
0
LINE
8
BLACK
6
CONTINUOUS
10
5.77696
20
-4.01161
11
5.74161
21
-4.01161
0
LINE
8
BLACK
6
CONTINUOUS
10
5.74161
20
-4.01161
11
5.74034
21
-4.01109
0
LINE
8
BLACK
6
CONTINUOUS
10
5.74034
20
-4.01109
11
5.73981
21
-4.00981
0
LINE
8
BLACK
6
CONTINUOUS
10
5.73981
20
-4.00981
11
5.74034
21
-4.00854
0
LINE
8
BLACK
6
CONTINUOUS
10
5.74034
20
-4.00854
11
5.74161
21
-4.00801
0
LINE
8
BLACK
6
CONTINUOUS
10
5.74161
20
-4.00801
11
5.77696
21
-4.00801
0
LINE
8
BLACK
6
CONTINUOUS
10
5.77696
20
-4.00801
11
5.77823
21
-4.00854
0
LINE
8
BLACK
6
CONTINUOUS
10
6.3065
20
-3.97525
11
6.2865
21
-3.97525
0
LINE
8
BLACK
6
CONTINUOUS
10
6.2865
20
-3.97525
11
6.2865
21
-3.95525
0
LINE
8
BLACK
6
CONTINUOUS
10
6.2865
20
-3.95525
11
6.3065
21
-3.95525
0
LINE
8
BLACK
6
CONTINUOUS
10
6.3065
20
-3.95525
11
6.3065
21
-3.97525
0
LINE
8
BLACK
6
CONTINUOUS
10
6.2065
20
-3.97525
11
6.1865
21
-3.97525
0
LINE
8
BLACK
6
CONTINUOUS
10
6.1865
20
-3.97525
11
6.1865
21
-3.95525
0
LINE
8
BLACK
6
CONTINUOUS
10
6.1865
20
-3.95525
11
6.2065
21
-3.95525
0
LINE
8
BLACK
6
CONTINUOUS
10
6.2065
20
-3.95525
11
6.2065
21
-3.97525
0
LINE
8
BLACK
6
CONTINUOUS
10
5.5065
20
-3.944
11
5.4865
21
-3.944
0
LINE
8
BLACK
6
CONTINUOUS
10
5.4865
20
-3.944
11
5.4865
21
-3.924
0
LINE
8
BLACK
6
CONTINUOUS
10
5.4865
20
-3.924
11
5.5065
21
-3.924
0
LINE
8
BLACK
6
CONTINUOUS
10
5.5065
20
-3.924
11
5.5065
21
-3.944
0
LINE
8
BLACK
6
CONTINUOUS
10
5.4065
20
-3.944
11
5.3865
21
-3.944
0
LINE
8
BLACK
6
CONTINUOUS
10
5.3865
20
-3.944
11
5.3865
21
-3.924
0
LINE
8
BLACK
6
CONTINUOUS
10
5.3865
20
-3.924
11
5.4065
21
-3.924
0
LINE
8
BLACK
6
CONTINUOUS
10
5.4065
20
-3.924
11
5.4065
21
-3.944
0
LINE
8
BLACK
6
CONTINUOUS
10
6.0219
20
-3.85944
11
6.02229
21
-3.85946
0
LINE
8
BLACK
6
CONTINUOUS
10
6.02229
20
-3.85946
11
6.02251
21
-3.8597
0
LINE
8
BLACK
6
CONTINUOUS
10
6.02251
20
-3.8597
11
6.0228
21
-3.85982
0
LINE
8
BLACK
6
CONTINUOUS
10
6.0228
20
-3.85982
11
6.02296
21
-3.86018
0
LINE
8
BLACK
6
CONTINUOUS
10
6.02296
20
-3.86018
11
6.02322
21
-3.86048
0
LINE
8
BLACK
6
CONTINUOUS
10
6.02322
20
-3.86048
11
6.02321
21
-3.86079
0
LINE
8
BLACK
6
CONTINUOUS
10
6.02321
20
-3.86079
11
6.02333
21
-3.86109
0
LINE
8
BLACK
6
CONTINUOUS
10
6.02333
20
-3.86109
11
6.02333
21
-3.90749
0
LINE
8
BLACK
6
CONTINUOUS
10
6.02333
20
-3.90749
11
6.0228
21
-3.90876
0
LINE
8
BLACK
6
CONTINUOUS
10
6.0228
20
-3.90876
11
6.02153
21
-3.90929
0
LINE
8
BLACK
6
CONTINUOUS
10
6.02153
20
-3.90929
11
6.02026
21
-3.90876
0
LINE
8
BLACK
6
CONTINUOUS
10
6.02026
20
-3.90876
11
6.01973
21
-3.90749
0
LINE
8
BLACK
6
CONTINUOUS
10
6.01973
20
-3.90749
11
6.01973
21
-3.8692
0
LINE
8
BLACK
6
CONTINUOUS
10
6.01973
20
-3.8692
11
6.0077
21
-3.89499
0
LINE
8
BLACK
6
CONTINUOUS
10
6.0077
20
-3.89499
11
6.00724
21
-3.89541
0
LINE
8
BLACK
6
CONTINUOUS
10
6.00724
20
-3.89541
11
6.00683
21
-3.89586
0
LINE
8
BLACK
6
CONTINUOUS
10
6.00683
20
-3.89586
11
6.00674
21
-3.89587
0
LINE
8
BLACK
6
CONTINUOUS
10
6.00674
20
-3.89587
11
6.00668
21
-3.89592
0
LINE
8
BLACK
6
CONTINUOUS
10
6.00668
20
-3.89592
11
6.00606
21
-3.8959
0
LINE
8
BLACK
6
CONTINUOUS
10
6.00606
20
-3.8959
11
6.00545
21
-3.89592
0
LINE
8
BLACK
6
CONTINUOUS
10
6.00545
20
-3.89592
11
6.00539
21
-3.89587
0
LINE
8
BLACK
6
CONTINUOUS
10
6.00539
20
-3.89587
11
6.0053
21
-3.89586
0
LINE
8
BLACK
6
CONTINUOUS
10
6.0053
20
-3.89586
11
6.00489
21
-3.89541
0
LINE
8
BLACK
6
CONTINUOUS
10
6.00489
20
-3.89541
11
6.00443
21
-3.89499
0
LINE
8
BLACK
6
CONTINUOUS
10
6.00443
20
-3.89499
11
5.9924
21
-3.8692
0
LINE
8
BLACK
6
CONTINUOUS
10
5.9924
20
-3.8692
11
5.9924
21
-3.90749
0
LINE
8
BLACK
6
CONTINUOUS
10
5.9924
20
-3.90749
11
5.99187
21
-3.90876
0
LINE
8
BLACK
6
CONTINUOUS
10
5.99187
20
-3.90876
11
5.9906
21
-3.90929
0
LINE
8
BLACK
6
CONTINUOUS
10
5.9906
20
-3.90929
11
5.98932
21
-3.90876
0
LINE
8
BLACK
6
CONTINUOUS
10
5.98932
20
-3.90876
11
5.9888
21
-3.90749
0
LINE
8
BLACK
6
CONTINUOUS
10
5.9888
20
-3.90749
11
5.9888
21
-3.86109
0
LINE
8
BLACK
6
CONTINUOUS
10
5.9888
20
-3.86109
11
5.98892
21
-3.86079
0
LINE
8
BLACK
6
CONTINUOUS
10
5.98892
20
-3.86079
11
5.98891
21
-3.86048
0
LINE
8
BLACK
6
CONTINUOUS
10
5.98891
20
-3.86048
11
5.98917
21
-3.86018
0
LINE
8
BLACK
6
CONTINUOUS
10
5.98917
20
-3.86018
11
5.98932
21
-3.85982
0
LINE
8
BLACK
6
CONTINUOUS
10
5.98932
20
-3.85982
11
5.98962
21
-3.8597
0
LINE
8
BLACK
6
CONTINUOUS
10
5.98962
20
-3.8597
11
5.98984
21
-3.85946
0
LINE
8
BLACK
6
CONTINUOUS
10
5.98984
20
-3.85946
11
5.99023
21
-3.85944
0
LINE
8
BLACK
6
CONTINUOUS
10
5.99023
20
-3.85944
11
5.9906
21
-3.85929
0
LINE
8
BLACK
6
CONTINUOUS
10
5.9906
20
-3.85929
11
5.99089
21
-3.85941
0
LINE
8
BLACK
6
CONTINUOUS
10
5.99089
20
-3.85941
11
5.99121
21
-3.8594
0
LINE
8
BLACK
6
CONTINUOUS
10
5.99121
20
-3.8594
11
5.9915
21
-3.85967
0
LINE
8
BLACK
6
CONTINUOUS
10
5.9915
20
-3.85967
11
5.99187
21
-3.85982
0
LINE
8
BLACK
6
CONTINUOUS
10
5.99187
20
-3.85982
11
5.99199
21
-3.86011
0
LINE
8
BLACK
6
CONTINUOUS
10
5.99199
20
-3.86011
11
5.99223
21
-3.86033
0
LINE
8
BLACK
6
CONTINUOUS
10
5.99223
20
-3.86033
11
6.00606
21
-3.88998
0
LINE
8
BLACK
6
CONTINUOUS
10
6.00606
20
-3.88998
11
6.0199
21
-3.86033
0
LINE
8
BLACK
6
CONTINUOUS
10
6.0199
20
-3.86033
11
6.02014
21
-3.86011
0
LINE
8
BLACK
6
CONTINUOUS
10
6.02014
20
-3.86011
11
6.02026
21
-3.85982
0
LINE
8
BLACK
6
CONTINUOUS
10
6.02026
20
-3.85982
11
6.02062
21
-3.85967
0
LINE
8
BLACK
6
CONTINUOUS
10
6.02062
20
-3.85967
11
6.02092
21
-3.8594
0
LINE
8
BLACK
6
CONTINUOUS
10
6.02092
20
-3.8594
11
6.02124
21
-3.85941
0
LINE
8
BLACK
6
CONTINUOUS
10
6.02124
20
-3.85941
11
6.02153
21
-3.85929
0
LINE
8
BLACK
6
CONTINUOUS
10
6.02153
20
-3.85929
11
6.0219
21
-3.85944
0
LINE
8
BLACK
6
CONTINUOUS
10
6.12411
20
-3.90876
11
6.12358
21
-3.90749
0
LINE
8
BLACK
6
CONTINUOUS
10
6.12358
20
-3.90749
11
6.12411
21
-3.90622
0
LINE
8
BLACK
6
CONTINUOUS
10
6.12411
20
-3.90622
11
6.12538
21
-3.90569
0
LINE
8
BLACK
6
CONTINUOUS
10
6.12538
20
-3.90569
11
6.13684
21
-3.90569
0
LINE
8
BLACK
6
CONTINUOUS
10
6.13684
20
-3.90569
11
6.13684
21
-3.86704
0
LINE
8
BLACK
6
CONTINUOUS
10
6.13684
20
-3.86704
11
6.13571
21
-3.86872
0
LINE
8
BLACK
6
CONTINUOUS
10
6.13571
20
-3.86872
11
6.13556
21
-3.86882
0
LINE
8
BLACK
6
CONTINUOUS
10
6.13556
20
-3.86882
11
6.13549
21
-3.86899
0
LINE
8
BLACK
6
CONTINUOUS
10
6.13549
20
-3.86899
11
6.13107
21
-3.87341
0
LINE
8
BLACK
6
CONTINUOUS
10
6.13107
20
-3.87341
11
6.1308
21
-3.87352
0
LINE
8
BLACK
6
CONTINUOUS
10
6.1308
20
-3.87352
11
6.1306
21
-3.87375
0
LINE
8
BLACK
6
CONTINUOUS
10
6.1306
20
-3.87375
11
6.12618
21
-3.87596
0
LINE
8
BLACK
6
CONTINUOUS
10
6.12618
20
-3.87596
11
6.12481
21
-3.87606
0
LINE
8
BLACK
6
CONTINUOUS
10
6.12481
20
-3.87606
11
6.12377
21
-3.87515
0
LINE
8
BLACK
6
CONTINUOUS
10
6.12377
20
-3.87515
11
6.12367
21
-3.87378
0
LINE
8
BLACK
6
CONTINUOUS
10
6.12367
20
-3.87378
11
6.12457
21
-3.87274
0
LINE
8
BLACK
6
CONTINUOUS
10
6.12457
20
-3.87274
11
6.12873
21
-3.87066
0
LINE
8
BLACK
6
CONTINUOUS
10
6.12873
20
-3.87066
11
6.13282
21
-3.86657
0
LINE
8
BLACK
6
CONTINUOUS
10
6.13282
20
-3.86657
11
6.13714
21
-3.86009
0
LINE
8
BLACK
6
CONTINUOUS
10
6.13714
20
-3.86009
11
6.13729
21
-3.85999
0
LINE
8
BLACK
6
CONTINUOUS
10
6.13729
20
-3.85999
11
6.13736
21
-3.85982
0
LINE
8
BLACK
6
CONTINUOUS
10
6.13736
20
-3.85982
11
6.13785
21
-3.85962
0
LINE
8
BLACK
6
CONTINUOUS
10
6.13785
20
-3.85962
11
6.13828
21
-3.85933
0
LINE
8
BLACK
6
CONTINUOUS
10
6.13828
20
-3.85933
11
6.13846
21
-3.85936
0
LINE
8
BLACK
6
CONTINUOUS
10
6.13846
20
-3.85936
11
6.13864
21
-3.85929
0
LINE
8
BLACK
6
CONTINUOUS
10
6.13864
20
-3.85929
11
6.13912
21
-3.85949
0
LINE
8
BLACK
6
CONTINUOUS
10
6.13912
20
-3.85949
11
6.13963
21
-3.85959
0
LINE
8
BLACK
6
CONTINUOUS
10
6.13963
20
-3.85959
11
6.13974
21
-3.85975
0
LINE
8
BLACK
6
CONTINUOUS
10
6.13974
20
-3.85975
11
6.13991
21
-3.85982
0
LINE
8
BLACK
6
CONTINUOUS
10
6.13991
20
-3.85982
11
6.14011
21
-3.8603
0
LINE
8
BLACK
6
CONTINUOUS
10
6.14011
20
-3.8603
11
6.1404
21
-3.86074
0
LINE
8
BLACK
6
CONTINUOUS
10
6.1404
20
-3.86074
11
6.14036
21
-3.86092
0
LINE
8
BLACK
6
CONTINUOUS
10
6.14036
20
-3.86092
11
6.14044
21
-3.86109
0
LINE
8
BLACK
6
CONTINUOUS
10
6.14044
20
-3.86109
11
6.14044
21
-3.90569
0
LINE
8
BLACK
6
CONTINUOUS
10
6.14044
20
-3.90569
11
6.15189
21
-3.90569
0
LINE
8
BLACK
6
CONTINUOUS
10
6.15189
20
-3.90569
11
6.15317
21
-3.90622
0
LINE
8
BLACK
6
CONTINUOUS
10
6.15317
20
-3.90622
11
6.15369
21
-3.90749
0
LINE
8
BLACK
6
CONTINUOUS
10
6.15369
20
-3.90749
11
6.15317
21
-3.90876
0
LINE
8
BLACK
6
CONTINUOUS
10
6.15317
20
-3.90876
11
6.15189
21
-3.90929
0
LINE
8
BLACK
6
CONTINUOUS
10
6.15189
20
-3.90929
11
6.12538
21
-3.90929
0
LINE
8
BLACK
6
CONTINUOUS
10
6.12538
20
-3.90929
11
6.12411
21
-3.90876
0
LINE
8
BLACK
6
CONTINUOUS
10
6.09704
20
-3.85945
11
6.09746
21
-3.85948
0
LINE
8
BLACK
6
CONTINUOUS
10
6.09746
20
-3.85948
11
6.10188
21
-3.86169
0
LINE
8
BLACK
6
CONTINUOUS
10
6.10188
20
-3.86169
11
6.10207
21
-3.86191
0
LINE
8
BLACK
6
CONTINUOUS
10
6.10207
20
-3.86191
11
6.10235
21
-3.86203
0
LINE
8
BLACK
6
CONTINUOUS
10
6.10235
20
-3.86203
11
6.10456
21
-3.86424
0
LINE
8
BLACK
6
CONTINUOUS
10
6.10456
20
-3.86424
11
6.10467
21
-3.86451
0
LINE
8
BLACK
6
CONTINUOUS
10
6.10467
20
-3.86451
11
6.10489
21
-3.8647
0
LINE
8
BLACK
6
CONTINUOUS
10
6.10489
20
-3.8647
11
6.1071
21
-3.86912
0
LINE
8
BLACK
6
CONTINUOUS
10
6.1071
20
-3.86912
11
6.10712
21
-3.86933
0
LINE
8
BLACK
6
CONTINUOUS
10
6.10712
20
-3.86933
11
6.10724
21
-3.86949
0
LINE
8
BLACK
6
CONTINUOUS
10
6.10724
20
-3.86949
11
6.10945
21
-3.87833
0
LINE
8
BLACK
6
CONTINUOUS
10
6.10945
20
-3.87833
11
6.10942
21
-3.87856
0
LINE
8
BLACK
6
CONTINUOUS
10
6.10942
20
-3.87856
11
6.1095
21
-3.87877
0
LINE
8
BLACK
6
CONTINUOUS
10
6.1095
20
-3.87877
11
6.1095
21
-3.88981
0
LINE
8
BLACK
6
CONTINUOUS
10
6.1095
20
-3.88981
11
6.10942
21
-3.89003
0
LINE
8
BLACK
6
CONTINUOUS
10
6.10942
20
-3.89003
11
6.10945
21
-3.89025
0
LINE
8
BLACK
6
CONTINUOUS
10
6.10945
20
-3.89025
11
6.10724
21
-3.89909
0
LINE
8
BLACK
6
CONTINUOUS
10
6.10724
20
-3.89909
11
6.10712
21
-3.89925
0
LINE
8
BLACK
6
CONTINUOUS
10
6.10712
20
-3.89925
11
6.1071
21
-3.89946
0
LINE
8
BLACK
6
CONTINUOUS
10
6.1071
20
-3.89946
11
6.10489
21
-3.90388
0
LINE
8
BLACK
6
CONTINUOUS
10
6.10489
20
-3.90388
11
6.10467
21
-3.90407
0
LINE
8
BLACK
6
CONTINUOUS
10
6.10467
20
-3.90407
11
6.10456
21
-3.90434
0
LINE
8
BLACK
6
CONTINUOUS
10
6.10456
20
-3.90434
11
6.10235
21
-3.90655
0
LINE
8
BLACK
6
CONTINUOUS
10
6.10235
20
-3.90655
11
6.10207
21
-3.90667
0
LINE
8
BLACK
6
CONTINUOUS
10
6.10207
20
-3.90667
11
6.10188
21
-3.90689
0
LINE
8
BLACK
6
CONTINUOUS
10
6.10188
20
-3.90689
11
6.09746
21
-3.9091
0
LINE
8
BLACK
6
CONTINUOUS
10
6.09746
20
-3.9091
11
6.09704
21
-3.90913
0
LINE
8
BLACK
6
CONTINUOUS
10
6.09704
20
-3.90913
11
6.09665
21
-3.90929
0
LINE
8
BLACK
6
CONTINUOUS
10
6.09665
20
-3.90929
11
6.09224
21
-3.90929
0
LINE
8
BLACK
6
CONTINUOUS
10
6.09224
20
-3.90929
11
6.09185
21
-3.90913
0
LINE
8
BLACK
6
CONTINUOUS
10
6.09185
20
-3.90913
11
6.09143
21
-3.9091
0
LINE
8
BLACK
6
CONTINUOUS
10
6.09143
20
-3.9091
11
6.08701
21
-3.90689
0
LINE
8
BLACK
6
CONTINUOUS
10
6.08701
20
-3.90689
11
6.08682
21
-3.90667
0
LINE
8
BLACK
6
CONTINUOUS
10
6.08682
20
-3.90667
11
6.08654
21
-3.90655
0
LINE
8
BLACK
6
CONTINUOUS
10
6.08654
20
-3.90655
11
6.08433
21
-3.90434
0
LINE
8
BLACK
6
CONTINUOUS
10
6.08433
20
-3.90434
11
6.08422
21
-3.90407
0
LINE
8
BLACK
6
CONTINUOUS
10
6.08422
20
-3.90407
11
6.084
21
-3.90388
0
LINE
8
BLACK
6
CONTINUOUS
10
6.084
20
-3.90388
11
6.08179
21
-3.89946
0
LINE
8
BLACK
6
CONTINUOUS
10
6.08179
20
-3.89946
11
6.08177
21
-3.89925
0
LINE
8
BLACK
6
CONTINUOUS
10
6.08177
20
-3.89925
11
6.08165
21
-3.89909
0
LINE
8
BLACK
6
CONTINUOUS
10
6.08165
20
-3.89909
11
6.07944
21
-3.89025
0
LINE
8
BLACK
6
CONTINUOUS
10
6.07944
20
-3.89025
11
6.07948
21
-3.89003
0
LINE
8
BLACK
6
CONTINUOUS
10
6.07948
20
-3.89003
11
6.07939
21
-3.88981
0
LINE
8
BLACK
6
CONTINUOUS
10
6.07939
20
-3.88981
11
6.07939
21
-3.87877
0
LINE
8
BLACK
6
CONTINUOUS
10
6.07939
20
-3.87877
11
6.07948
21
-3.87856
0
LINE
8
BLACK
6
CONTINUOUS
10
6.07948
20
-3.87856
11
6.07944
21
-3.87833
0
LINE
8
BLACK
6
CONTINUOUS
10
6.07944
20
-3.87833
11
6.08165
21
-3.86949
0
LINE
8
BLACK
6
CONTINUOUS
10
6.08165
20
-3.86949
11
6.08177
21
-3.86933
0
LINE
8
BLACK
6
CONTINUOUS
10
6.08177
20
-3.86933
11
6.08179
21
-3.86912
0
LINE
8
BLACK
6
CONTINUOUS
10
6.08179
20
-3.86912
11
6.084
21
-3.8647
0
LINE
8
BLACK
6
CONTINUOUS
10
6.084
20
-3.8647
11
6.08422
21
-3.86451
0
LINE
8
BLACK
6
CONTINUOUS
10
6.08422
20
-3.86451
11
6.08433
21
-3.86424
0
LINE
8
BLACK
6
CONTINUOUS
10
6.08433
20
-3.86424
11
6.08654
21
-3.86203
0
LINE
8
BLACK
6
CONTINUOUS
10
6.08654
20
-3.86203
11
6.08682
21
-3.86191
0
LINE
8
BLACK
6
CONTINUOUS
10
6.08682
20
-3.86191
11
6.08701
21
-3.86169
0
LINE
8
BLACK
6
CONTINUOUS
10
6.08701
20
-3.86169
11
6.09143
21
-3.85948
0
LINE
8
BLACK
6
CONTINUOUS
10
6.09143
20
-3.85948
11
6.09185
21
-3.85945
0
LINE
8
BLACK
6
CONTINUOUS
10
6.09185
20
-3.85945
11
6.09224
21
-3.85929
0
LINE
8
BLACK
6
CONTINUOUS
10
6.09224
20
-3.85929
11
6.09665
21
-3.85929
0
LINE
8
BLACK
6
CONTINUOUS
10
6.09665
20
-3.85929
11
6.09704
21
-3.85945
0
LINE
8
BLACK
6
CONTINUOUS
10
6.09266
20
-3.86289
11
6.08888
21
-3.86478
0
LINE
8
BLACK
6
CONTINUOUS
10
6.08888
20
-3.86478
11
6.08709
21
-3.86658
0
LINE
8
BLACK
6
CONTINUOUS
10
6.08709
20
-3.86658
11
6.0851
21
-3.87056
0
LINE
8
BLACK
6
CONTINUOUS
10
6.0851
20
-3.87056
11
6.08299
21
-3.87899
0
LINE
8
BLACK
6
CONTINUOUS
10
6.08299
20
-3.87899
11
6.08299
21
-3.88959
0
LINE
8
BLACK
6
CONTINUOUS
10
6.08299
20
-3.88959
11
6.0851
21
-3.89802
0
LINE
8
BLACK
6
CONTINUOUS
10
6.0851
20
-3.89802
11
6.08709
21
-3.90201
0
LINE
8
BLACK
6
CONTINUOUS
10
6.08709
20
-3.90201
11
6.08888
21
-3.9038
0
LINE
8
BLACK
6
CONTINUOUS
10
6.08888
20
-3.9038
11
6.09266
21
-3.90569
0
LINE
8
BLACK
6
CONTINUOUS
10
6.09266
20
-3.90569
11
6.09623
21
-3.90569
0
LINE
8
BLACK
6
CONTINUOUS
10
6.09623
20
-3.90569
11
6.10001
21
-3.9038
0
LINE
8
BLACK
6
CONTINUOUS
10
6.10001
20
-3.9038
11
6.1018
21
-3.90201
0
LINE
8
BLACK
6
CONTINUOUS
10
6.1018
20
-3.90201
11
6.10379
21
-3.89802
0
LINE
8
BLACK
6
CONTINUOUS
10
6.10379
20
-3.89802
11
6.1059
21
-3.88959
0
LINE
8
BLACK
6
CONTINUOUS
10
6.1059
20
-3.88959
11
6.1059
21
-3.87899
0
LINE
8
BLACK
6
CONTINUOUS
10
6.1059
20
-3.87899
11
6.10379
21
-3.87056
0
LINE
8
BLACK
6
CONTINUOUS
10
6.10379
20
-3.87056
11
6.1018
21
-3.86658
0
LINE
8
BLACK
6
CONTINUOUS
10
6.1018
20
-3.86658
11
6.10001
21
-3.86478
0
LINE
8
BLACK
6
CONTINUOUS
10
6.10001
20
-3.86478
11
6.09623
21
-3.86289
0
LINE
8
BLACK
6
CONTINUOUS
10
6.09623
20
-3.86289
11
6.09266
21
-3.86289
0
LINE
8
BLACK
6
CONTINUOUS
10
6.22574
20
-3.90876
11
6.22522
21
-3.90749
0
LINE
8
BLACK
6
CONTINUOUS
10
6.22522
20
-3.90749
11
6.22574
21
-3.90622
0
LINE
8
BLACK
6
CONTINUOUS
10
6.22574
20
-3.90622
11
6.22702
21
-3.90569
0
LINE
8
BLACK
6
CONTINUOUS
10
6.22702
20
-3.90569
11
6.23847
21
-3.90569
0
LINE
8
BLACK
6
CONTINUOUS
10
6.23847
20
-3.90569
11
6.23847
21
-3.86704
0
LINE
8
BLACK
6
CONTINUOUS
10
6.23847
20
-3.86704
11
6.23735
21
-3.86872
0
LINE
8
BLACK
6
CONTINUOUS
10
6.23735
20
-3.86872
11
6.2372
21
-3.86882
0
LINE
8
BLACK
6
CONTINUOUS
10
6.2372
20
-3.86882
11
6.23713
21
-3.86899
0
LINE
8
BLACK
6
CONTINUOUS
10
6.23713
20
-3.86899
11
6.23271
21
-3.87341
0
LINE
8
BLACK
6
CONTINUOUS
10
6.23271
20
-3.87341
11
6.23243
21
-3.87352
0
LINE
8
BLACK
6
CONTINUOUS
10
6.23243
20
-3.87352
11
6.23224
21
-3.87375
0
LINE
8
BLACK
6
CONTINUOUS
10
6.23224
20
-3.87375
11
6.22782
21
-3.87596
0
LINE
8
BLACK
6
CONTINUOUS
10
6.22782
20
-3.87596
11
6.22645
21
-3.87606
0
LINE
8
BLACK
6
CONTINUOUS
10
6.22645
20
-3.87606
11
6.22541
21
-3.87515
0
LINE
8
BLACK
6
CONTINUOUS
10
6.22541
20
-3.87515
11
6.22531
21
-3.87378
0
LINE
8
BLACK
6
CONTINUOUS
10
6.22531
20
-3.87378
11
6.22621
21
-3.87274
0
LINE
8
BLACK
6
CONTINUOUS
10
6.22621
20
-3.87274
11
6.23037
21
-3.87066
0
LINE
8
BLACK
6
CONTINUOUS
10
6.23037
20
-3.87066
11
6.23446
21
-3.86657
0
LINE
8
BLACK
6
CONTINUOUS
10
6.23446
20
-3.86657
11
6.23878
21
-3.86009
0
LINE
8
BLACK
6
CONTINUOUS
10
6.23878
20
-3.86009
11
6.23893
21
-3.85999
0
LINE
8
BLACK
6
CONTINUOUS
10
6.23893
20
-3.85999
11
6.239
21
-3.85982
0
LINE
8
BLACK
6
CONTINUOUS
10
6.239
20
-3.85982
11
6.23949
21
-3.85962
0
LINE
8
BLACK
6
CONTINUOUS
10
6.23949
20
-3.85962
11
6.23992
21
-3.85933
0
LINE
8
BLACK
6
CONTINUOUS
10
6.23992
20
-3.85933
11
6.2401
21
-3.85936
0
LINE
8
BLACK
6
CONTINUOUS
10
6.2401
20
-3.85936
11
6.24027
21
-3.85929
0
LINE
8
BLACK
6
CONTINUOUS
10
6.24027
20
-3.85929
11
6.24076
21
-3.85949
0
LINE
8
BLACK
6
CONTINUOUS
10
6.24076
20
-3.85949
11
6.24127
21
-3.85959
0
LINE
8
BLACK
6
CONTINUOUS
10
6.24127
20
-3.85959
11
6.24138
21
-3.85975
0
LINE
8
BLACK
6
CONTINUOUS
10
6.24138
20
-3.85975
11
6.24155
21
-3.85982
0
LINE
8
BLACK
6
CONTINUOUS
10
6.24155
20
-3.85982
11
6.24175
21
-3.8603
0
LINE
8
BLACK
6
CONTINUOUS
10
6.24175
20
-3.8603
11
6.24204
21
-3.86074
0
LINE
8
BLACK
6
CONTINUOUS
10
6.24204
20
-3.86074
11
6.242
21
-3.86092
0
LINE
8
BLACK
6
CONTINUOUS
10
6.242
20
-3.86092
11
6.24207
21
-3.86109
0
LINE
8
BLACK
6
CONTINUOUS
10
6.24207
20
-3.86109
11
6.24207
21
-3.90569
0
LINE
8
BLACK
6
CONTINUOUS
10
6.24207
20
-3.90569
11
6.25353
21
-3.90569
0
LINE
8
BLACK
6
CONTINUOUS
10
6.25353
20
-3.90569
11
6.2548
21
-3.90622
0
LINE
8
BLACK
6
CONTINUOUS
10
6.2548
20
-3.90622
11
6.25533
21
-3.90749
0
LINE
8
BLACK
6
CONTINUOUS
10
6.25533
20
-3.90749
11
6.2548
21
-3.90876
0
LINE
8
BLACK
6
CONTINUOUS
10
6.2548
20
-3.90876
11
6.25353
21
-3.90929
0
LINE
8
BLACK
6
CONTINUOUS
10
6.25353
20
-3.90929
11
6.22702
21
-3.90929
0
LINE
8
BLACK
6
CONTINUOUS
10
6.22702
20
-3.90929
11
6.22574
21
-3.90876
0
LINE
8
BLACK
6
CONTINUOUS
10
6.05314
20
-3.85947
11
6.05327
21
-3.85948
0
LINE
8
BLACK
6
CONTINUOUS
10
6.05327
20
-3.85948
11
6.05364
21
-3.85991
0
LINE
8
BLACK
6
CONTINUOUS
10
6.05364
20
-3.85991
11
6.05407
21
-3.86029
0
LINE
8
BLACK
6
CONTINUOUS
10
6.05407
20
-3.86029
11
6.05408
21
-3.86042
0
LINE
8
BLACK
6
CONTINUOUS
10
6.05408
20
-3.86042
11
6.05417
21
-3.86052
0
LINE
8
BLACK
6
CONTINUOUS
10
6.05417
20
-3.86052
11
6.06964
21
-3.90692
0
LINE
8
BLACK
6
CONTINUOUS
10
6.06964
20
-3.90692
11
6.06954
21
-3.9083
0
LINE
8
BLACK
6
CONTINUOUS
10
6.06954
20
-3.9083
11
6.0685
21
-3.9092
0
LINE
8
BLACK
6
CONTINUOUS
10
6.0685
20
-3.9092
11
6.06713
21
-3.9091
0
LINE
8
BLACK
6
CONTINUOUS
10
6.06713
20
-3.9091
11
6.06622
21
-3.90806
0
LINE
8
BLACK
6
CONTINUOUS
10
6.06622
20
-3.90806
11
6.06221
21
-3.89603
0
LINE
8
BLACK
6
CONTINUOUS
10
6.06221
20
-3.89603
11
6.04271
21
-3.89603
0
LINE
8
BLACK
6
CONTINUOUS
10
6.04271
20
-3.89603
11
6.03871
21
-3.90806
0
LINE
8
BLACK
6
CONTINUOUS
10
6.03871
20
-3.90806
11
6.0378
21
-3.9091
0
LINE
8
BLACK
6
CONTINUOUS
10
6.0378
20
-3.9091
11
6.03643
21
-3.9092
0
LINE
8
BLACK
6
CONTINUOUS
10
6.03643
20
-3.9092
11
6.03539
21
-3.9083
0
LINE
8
BLACK
6
CONTINUOUS
10
6.03539
20
-3.9083
11
6.03529
21
-3.90692
0
LINE
8
BLACK
6
CONTINUOUS
10
6.03529
20
-3.90692
11
6.05076
21
-3.86052
0
LINE
8
BLACK
6
CONTINUOUS
10
6.05076
20
-3.86052
11
6.05084
21
-3.86042
0
LINE
8
BLACK
6
CONTINUOUS
10
6.05084
20
-3.86042
11
6.05085
21
-3.86029
0
LINE
8
BLACK
6
CONTINUOUS
10
6.05085
20
-3.86029
11
6.05129
21
-3.85991
0
LINE
8
BLACK
6
CONTINUOUS
10
6.05129
20
-3.85991
11
6.05166
21
-3.85948
0
LINE
8
BLACK
6
CONTINUOUS
10
6.05166
20
-3.85948
11
6.05179
21
-3.85947
0
LINE
8
BLACK
6
CONTINUOUS
10
6.05179
20
-3.85947
11
6.0519
21
-3.85938
0
LINE
8
BLACK
6
CONTINUOUS
10
6.0519
20
-3.85938
11
6.05246
21
-3.85942
0
LINE
8
BLACK
6
CONTINUOUS
10
6.05246
20
-3.85942
11
6.05303
21
-3.85938
0
LINE
8
BLACK
6
CONTINUOUS
10
6.05303
20
-3.85938
11
6.05314
21
-3.85947
0
LINE
8
BLACK
6
CONTINUOUS
10
6.04391
20
-3.89243
11
6.06101
21
-3.89243
0
LINE
8
BLACK
6
CONTINUOUS
10
6.06101
20
-3.89243
11
6.05246
21
-3.86678
0
LINE
8
BLACK
6
CONTINUOUS
10
6.05246
20
-3.86678
11
6.04391
21
-3.89243
0
LINE
8
BLACK
6
CONTINUOUS
10
6.43376
20
-3.8702
11
6.43429
21
-3.87147
0
LINE
8
BLACK
6
CONTINUOUS
10
6.43429
20
-3.87147
11
6.43376
21
-3.87274
0
LINE
8
BLACK
6
CONTINUOUS
10
6.43376
20
-3.87274
11
6.43249
21
-3.87327
0
LINE
8
BLACK
6
CONTINUOUS
10
6.43249
20
-3.87327
11
6.3942
21
-3.87327
0
LINE
8
BLACK
6
CONTINUOUS
10
6.3942
20
-3.87327
11
6.41999
21
-3.8853
0
LINE
8
BLACK
6
CONTINUOUS
10
6.41999
20
-3.8853
11
6.42041
21
-3.88576
0
LINE
8
BLACK
6
CONTINUOUS
10
6.42041
20
-3.88576
11
6.42086
21
-3.88617
0
LINE
8
BLACK
6
CONTINUOUS
10
6.42086
20
-3.88617
11
6.42087
21
-3.88626
0
LINE
8
BLACK
6
CONTINUOUS
10
6.42087
20
-3.88626
11
6.42092
21
-3.88632
0
LINE
8
BLACK
6
CONTINUOUS
10
6.42092
20
-3.88632
11
6.4209
21
-3.88694
0
LINE
8
BLACK
6
CONTINUOUS
10
6.4209
20
-3.88694
11
6.42092
21
-3.88755
0
LINE
8
BLACK
6
CONTINUOUS
10
6.42092
20
-3.88755
11
6.42087
21
-3.88761
0
LINE
8
BLACK
6
CONTINUOUS
10
6.42087
20
-3.88761
11
6.42086
21
-3.8877
0
LINE
8
BLACK
6
CONTINUOUS
10
6.42086
20
-3.8877
11
6.42041
21
-3.88811
0
LINE
8
BLACK
6
CONTINUOUS
10
6.42041
20
-3.88811
11
6.41999
21
-3.88857
0
LINE
8
BLACK
6
CONTINUOUS
10
6.41999
20
-3.88857
11
6.3942
21
-3.9006
0
LINE
8
BLACK
6
CONTINUOUS
10
6.3942
20
-3.9006
11
6.43249
21
-3.9006
0
LINE
8
BLACK
6
CONTINUOUS
10
6.43249
20
-3.9006
11
6.43376
21
-3.90113
0
LINE
8
BLACK
6
CONTINUOUS
10
6.43376
20
-3.90113
11
6.43429
21
-3.9024
0
LINE
8
BLACK
6
CONTINUOUS
10
6.43429
20
-3.9024
11
6.43376
21
-3.90368
0
LINE
8
BLACK
6
CONTINUOUS
10
6.43376
20
-3.90368
11
6.43249
21
-3.9042
0
LINE
8
BLACK
6
CONTINUOUS
10
6.43249
20
-3.9042
11
6.38609
21
-3.9042
0
LINE
8
BLACK
6
CONTINUOUS
10
6.38609
20
-3.9042
11
6.38579
21
-3.90408
0
LINE
8
BLACK
6
CONTINUOUS
10
6.38579
20
-3.90408
11
6.38548
21
-3.90409
0
LINE
8
BLACK
6
CONTINUOUS
10
6.38548
20
-3.90409
11
6.38518
21
-3.90383
0
LINE
8
BLACK
6
CONTINUOUS
10
6.38518
20
-3.90383
11
6.38482
21
-3.90368
0
LINE
8
BLACK
6
CONTINUOUS
10
6.38482
20
-3.90368
11
6.3847
21
-3.90338
0
LINE
8
BLACK
6
CONTINUOUS
10
6.3847
20
-3.90338
11
6.38446
21
-3.90316
0
LINE
8
BLACK
6
CONTINUOUS
10
6.38446
20
-3.90316
11
6.38444
21
-3.90277
0
LINE
8
BLACK
6
CONTINUOUS
10
6.38444
20
-3.90277
11
6.38429
21
-3.9024
0
LINE
8
BLACK
6
CONTINUOUS
10
6.38429
20
-3.9024
11
6.38441
21
-3.90211
0
LINE
8
BLACK
6
CONTINUOUS
10
6.38441
20
-3.90211
11
6.3844
21
-3.90179
0
LINE
8
BLACK
6
CONTINUOUS
10
6.3844
20
-3.90179
11
6.38467
21
-3.9015
0
LINE
8
BLACK
6
CONTINUOUS
10
6.38467
20
-3.9015
11
6.38482
21
-3.90113
0
LINE
8
BLACK
6
CONTINUOUS
10
6.38482
20
-3.90113
11
6.38511
21
-3.90101
0
LINE
8
BLACK
6
CONTINUOUS
10
6.38511
20
-3.90101
11
6.38533
21
-3.90077
0
LINE
8
BLACK
6
CONTINUOUS
10
6.38533
20
-3.90077
11
6.41498
21
-3.88694
0
LINE
8
BLACK
6
CONTINUOUS
10
6.41498
20
-3.88694
11
6.38533
21
-3.8731
0
LINE
8
BLACK
6
CONTINUOUS
10
6.38533
20
-3.8731
11
6.38511
21
-3.87286
0
LINE
8
BLACK
6
CONTINUOUS
10
6.38511
20
-3.87286
11
6.38482
21
-3.87274
0
LINE
8
BLACK
6
CONTINUOUS
10
6.38482
20
-3.87274
11
6.38467
21
-3.87238
0
LINE
8
BLACK
6
CONTINUOUS
10
6.38467
20
-3.87238
11
6.3844
21
-3.87208
0
LINE
8
BLACK
6
CONTINUOUS
10
6.3844
20
-3.87208
11
6.38441
21
-3.87176
0
LINE
8
BLACK
6
CONTINUOUS
10
6.38441
20
-3.87176
11
6.38429
21
-3.87147
0
LINE
8
BLACK
6
CONTINUOUS
10
6.38429
20
-3.87147
11
6.38444
21
-3.8711
0
LINE
8
BLACK
6
CONTINUOUS
10
6.38444
20
-3.8711
11
6.38446
21
-3.87071
0
LINE
8
BLACK
6
CONTINUOUS
10
6.38446
20
-3.87071
11
6.3847
21
-3.87049
0
LINE
8
BLACK
6
CONTINUOUS
10
6.3847
20
-3.87049
11
6.38482
21
-3.8702
0
LINE
8
BLACK
6
CONTINUOUS
10
6.38482
20
-3.8702
11
6.38518
21
-3.87004
0
LINE
8
BLACK
6
CONTINUOUS
10
6.38518
20
-3.87004
11
6.38548
21
-3.86978
0
LINE
8
BLACK
6
CONTINUOUS
10
6.38548
20
-3.86978
11
6.38579
21
-3.86979
0
LINE
8
BLACK
6
CONTINUOUS
10
6.38579
20
-3.86979
11
6.38609
21
-3.86967
0
LINE
8
BLACK
6
CONTINUOUS
10
6.38609
20
-3.86967
11
6.43249
21
-3.86967
0
LINE
8
BLACK
6
CONTINUOUS
10
6.43249
20
-3.86967
11
6.43376
21
-3.8702
0
LINE
8
BLACK
6
CONTINUOUS
10
6.2084
20
-3.88854
11
6.20893
21
-3.88981
0
LINE
8
BLACK
6
CONTINUOUS
10
6.20893
20
-3.88981
11
6.2084
21
-3.89109
0
LINE
8
BLACK
6
CONTINUOUS
10
6.2084
20
-3.89109
11
6.20713
21
-3.89161
0
LINE
8
BLACK
6
CONTINUOUS
10
6.20713
20
-3.89161
11
6.17178
21
-3.89161
0
LINE
8
BLACK
6
CONTINUOUS
10
6.17178
20
-3.89161
11
6.17051
21
-3.89109
0
LINE
8
BLACK
6
CONTINUOUS
10
6.17051
20
-3.89109
11
6.16998
21
-3.88981
0
LINE
8
BLACK
6
CONTINUOUS
10
6.16998
20
-3.88981
11
6.17051
21
-3.88854
0
LINE
8
BLACK
6
CONTINUOUS
10
6.17051
20
-3.88854
11
6.17178
21
-3.88801
0
LINE
8
BLACK
6
CONTINUOUS
10
6.17178
20
-3.88801
11
6.20713
21
-3.88801
0
LINE
8
BLACK
6
CONTINUOUS
10
6.20713
20
-3.88801
11
6.2084
21
-3.88854
0
LINE
8
BLACK
6
CONTINUOUS
10
6.3065
20
-3.87525
11
6.2865
21
-3.87525
0
LINE
8
BLACK
6
CONTINUOUS
10
6.2865
20
-3.87525
11
6.2865
21
-3.85525
0
LINE
8
BLACK
6
CONTINUOUS
10
6.2865
20
-3.85525
11
6.3065
21
-3.85525
0
LINE
8
BLACK
6
CONTINUOUS
10
6.3065
20
-3.85525
11
6.3065
21
-3.87525
0
LINE
8
BLACK
6
CONTINUOUS
10
6.2065
20
-3.87525
11
6.1865
21
-3.87525
0
LINE
8
BLACK
6
CONTINUOUS
10
6.1865
20
-3.87525
11
6.1865
21
-3.85525
0
LINE
8
BLACK
6
CONTINUOUS
10
6.1865
20
-3.85525
11
6.2065
21
-3.85525
0
LINE
8
BLACK
6
CONTINUOUS
10
6.2065
20
-3.85525
11
6.2065
21
-3.87525
0
LINE
8
BLACK
6
CONTINUOUS
10
5.63376
20
-3.83895
11
5.63429
21
-3.84022
0
LINE
8
BLACK
6
CONTINUOUS
10
5.63429
20
-3.84022
11
5.63376
21
-3.84149
0
LINE
8
BLACK
6
CONTINUOUS
10
5.63376
20
-3.84149
11
5.63249
21
-3.84202
0
LINE
8
BLACK
6
CONTINUOUS
10
5.63249
20
-3.84202
11
5.5942
21
-3.84202
0
LINE
8
BLACK
6
CONTINUOUS
10
5.5942
20
-3.84202
11
5.61999
21
-3.85405
0
LINE
8
BLACK
6
CONTINUOUS
10
5.61999
20
-3.85405
11
5.62041
21
-3.85451
0
LINE
8
BLACK
6
CONTINUOUS
10
5.62041
20
-3.85451
11
5.62086
21
-3.85492
0
LINE
8
BLACK
6
CONTINUOUS
10
5.62086
20
-3.85492
11
5.62087
21
-3.85501
0
LINE
8
BLACK
6
CONTINUOUS
10
5.62087
20
-3.85501
11
5.62092
21
-3.85507
0
LINE
8
BLACK
6
CONTINUOUS
10
5.62092
20
-3.85507
11
5.6209
21
-3.85569
0
LINE
8
BLACK
6
CONTINUOUS
10
5.6209
20
-3.85569
11
5.62092
21
-3.8563
0
LINE
8
BLACK
6
CONTINUOUS
10
5.62092
20
-3.8563
11
5.62087
21
-3.85636
0
LINE
8
BLACK
6
CONTINUOUS
10
5.62087
20
-3.85636
11
5.62086
21
-3.85645
0
LINE
8
BLACK
6
CONTINUOUS
10
5.62086
20
-3.85645
11
5.62041
21
-3.85686
0
LINE
8
BLACK
6
CONTINUOUS
10
5.62041
20
-3.85686
11
5.61999
21
-3.85732
0
LINE
8
BLACK
6
CONTINUOUS
10
5.61999
20
-3.85732
11
5.5942
21
-3.86935
0
LINE
8
BLACK
6
CONTINUOUS
10
5.5942
20
-3.86935
11
5.63249
21
-3.86935
0
LINE
8
BLACK
6
CONTINUOUS
10
5.63249
20
-3.86935
11
5.63376
21
-3.86988
0
LINE
8
BLACK
6
CONTINUOUS
10
5.63376
20
-3.86988
11
5.63429
21
-3.87115
0
LINE
8
BLACK
6
CONTINUOUS
10
5.63429
20
-3.87115
11
5.63376
21
-3.87243
0
LINE
8
BLACK
6
CONTINUOUS
10
5.63376
20
-3.87243
11
5.63249
21
-3.87295
0
LINE
8
BLACK
6
CONTINUOUS
10
5.63249
20
-3.87295
11
5.58609
21
-3.87295
0
LINE
8
BLACK
6
CONTINUOUS
10
5.58609
20
-3.87295
11
5.58579
21
-3.87283
0
LINE
8
BLACK
6
CONTINUOUS
10
5.58579
20
-3.87283
11
5.58548
21
-3.87284
0
LINE
8
BLACK
6
CONTINUOUS
10
5.58548
20
-3.87284
11
5.58518
21
-3.87258
0
LINE
8
BLACK
6
CONTINUOUS
10
5.58518
20
-3.87258
11
5.58482
21
-3.87243
0
LINE
8
BLACK
6
CONTINUOUS
10
5.58482
20
-3.87243
11
5.5847
21
-3.87213
0
LINE
8
BLACK
6
CONTINUOUS
10
5.5847
20
-3.87213
11
5.58446
21
-3.87191
0
LINE
8
BLACK
6
CONTINUOUS
10
5.58446
20
-3.87191
11
5.58444
21
-3.87152
0
LINE
8
BLACK
6
CONTINUOUS
10
5.58444
20
-3.87152
11
5.58429
21
-3.87115
0
LINE
8
BLACK
6
CONTINUOUS
10
5.58429
20
-3.87115
11
5.58441
21
-3.87086
0
LINE
8
BLACK
6
CONTINUOUS
10
5.58441
20
-3.87086
11
5.5844
21
-3.87054
0
LINE
8
BLACK
6
CONTINUOUS
10
5.5844
20
-3.87054
11
5.58467
21
-3.87025
0
LINE
8
BLACK
6
CONTINUOUS
10
5.58467
20
-3.87025
11
5.58482
21
-3.86988
0
LINE
8
BLACK
6
CONTINUOUS
10
5.58482
20
-3.86988
11
5.58511
21
-3.86976
0
LINE
8
BLACK
6
CONTINUOUS
10
5.58511
20
-3.86976
11
5.58533
21
-3.86952
0
LINE
8
BLACK
6
CONTINUOUS
10
5.58533
20
-3.86952
11
5.61498
21
-3.85569
0
LINE
8
BLACK
6
CONTINUOUS
10
5.61498
20
-3.85569
11
5.58533
21
-3.84185
0
LINE
8
BLACK
6
CONTINUOUS
10
5.58533
20
-3.84185
11
5.58511
21
-3.84161
0
LINE
8
BLACK
6
CONTINUOUS
10
5.58511
20
-3.84161
11
5.58482
21
-3.84149
0
LINE
8
BLACK
6
CONTINUOUS
10
5.58482
20
-3.84149
11
5.58467
21
-3.84113
0
LINE
8
BLACK
6
CONTINUOUS
10
5.58467
20
-3.84113
11
5.5844
21
-3.84083
0
LINE
8
BLACK
6
CONTINUOUS
10
5.5844
20
-3.84083
11
5.58441
21
-3.84051
0
LINE
8
BLACK
6
CONTINUOUS
10
5.58441
20
-3.84051
11
5.58429
21
-3.84022
0
LINE
8
BLACK
6
CONTINUOUS
10
5.58429
20
-3.84022
11
5.58444
21
-3.83985
0
LINE
8
BLACK
6
CONTINUOUS
10
5.58444
20
-3.83985
11
5.58446
21
-3.83946
0
LINE
8
BLACK
6
CONTINUOUS
10
5.58446
20
-3.83946
11
5.5847
21
-3.83924
0
LINE
8
BLACK
6
CONTINUOUS
10
5.5847
20
-3.83924
11
5.58482
21
-3.83895
0
LINE
8
BLACK
6
CONTINUOUS
10
5.58482
20
-3.83895
11
5.58518
21
-3.83879
0
LINE
8
BLACK
6
CONTINUOUS
10
5.58518
20
-3.83879
11
5.58548
21
-3.83853
0
LINE
8
BLACK
6
CONTINUOUS
10
5.58548
20
-3.83853
11
5.58579
21
-3.83854
0
LINE
8
BLACK
6
CONTINUOUS
10
5.58579
20
-3.83854
11
5.58609
21
-3.83842
0
LINE
8
BLACK
6
CONTINUOUS
10
5.58609
20
-3.83842
11
5.63249
21
-3.83842
0
LINE
8
BLACK
6
CONTINUOUS
10
5.63249
20
-3.83842
11
5.63376
21
-3.83895
0
LINE
8
BLACK
6
CONTINUOUS
10
6.4333
20
-3.82346
11
6.4342
21
-3.8245
0
LINE
8
BLACK
6
CONTINUOUS
10
6.4342
20
-3.8245
11
6.4341
21
-3.82587
0
LINE
8
BLACK
6
CONTINUOUS
10
6.4341
20
-3.82587
11
6.43306
21
-3.82678
0
LINE
8
BLACK
6
CONTINUOUS
10
6.43306
20
-3.82678
11
6.42103
21
-3.83079
0
LINE
8
BLACK
6
CONTINUOUS
10
6.42103
20
-3.83079
11
6.42103
21
-3.85029
0
LINE
8
BLACK
6
CONTINUOUS
10
6.42103
20
-3.85029
11
6.43306
21
-3.85429
0
LINE
8
BLACK
6
CONTINUOUS
10
6.43306
20
-3.85429
11
6.4341
21
-3.8552
0
LINE
8
BLACK
6
CONTINUOUS
10
6.4341
20
-3.8552
11
6.4342
21
-3.85657
0
LINE
8
BLACK
6
CONTINUOUS
10
6.4342
20
-3.85657
11
6.4333
21
-3.85761
0
LINE
8
BLACK
6
CONTINUOUS
10
6.4333
20
-3.85761
11
6.43192
21
-3.85771
0
LINE
8
BLACK
6
CONTINUOUS
10
6.43192
20
-3.85771
11
6.38552
21
-3.84224
0
LINE
8
BLACK
6
CONTINUOUS
10
6.38552
20
-3.84224
11
6.38542
21
-3.84216
0
LINE
8
BLACK
6
CONTINUOUS
10
6.38542
20
-3.84216
11
6.38529
21
-3.84215
0
LINE
8
BLACK
6
CONTINUOUS
10
6.38529
20
-3.84215
11
6.38491
21
-3.84171
0
LINE
8
BLACK
6
CONTINUOUS
10
6.38491
20
-3.84171
11
6.38448
21
-3.84134
0
LINE
8
BLACK
6
CONTINUOUS
10
6.38448
20
-3.84134
11
6.38447
21
-3.84121
0
LINE
8
BLACK
6
CONTINUOUS
10
6.38447
20
-3.84121
11
6.38438
21
-3.8411
0
LINE
8
BLACK
6
CONTINUOUS
10
6.38438
20
-3.8411
11
6.38442
21
-3.84054
0
LINE
8
BLACK
6
CONTINUOUS
10
6.38442
20
-3.84054
11
6.38438
21
-3.83997
0
LINE
8
BLACK
6
CONTINUOUS
10
6.38438
20
-3.83997
11
6.38447
21
-3.83986
0
LINE
8
BLACK
6
CONTINUOUS
10
6.38447
20
-3.83986
11
6.38448
21
-3.83973
0
LINE
8
BLACK
6
CONTINUOUS
10
6.38448
20
-3.83973
11
6.38491
21
-3.83936
0
LINE
8
BLACK
6
CONTINUOUS
10
6.38491
20
-3.83936
11
6.38529
21
-3.83893
0
LINE
8
BLACK
6
CONTINUOUS
10
6.38529
20
-3.83893
11
6.38542
21
-3.83892
0
LINE
8
BLACK
6
CONTINUOUS
10
6.38542
20
-3.83892
11
6.38552
21
-3.83883
0
LINE
8
BLACK
6
CONTINUOUS
10
6.38552
20
-3.83883
11
6.43192
21
-3.82336
0
LINE
8
BLACK
6
CONTINUOUS
10
6.43192
20
-3.82336
11
6.4333
21
-3.82346
0
LINE
8
BLACK
6
CONTINUOUS
10
6.39178
20
-3.84054
11
6.41743
21
-3.84909
0
LINE
8
BLACK
6
CONTINUOUS
10
6.41743
20
-3.84909
11
6.41743
21
-3.83199
0
LINE
8
BLACK
6
CONTINUOUS
10
6.41743
20
-3.83199
11
6.39178
21
-3.84054
0
LINE
8
BLACK
6
CONTINUOUS
10
5.4065
20
-3.844
11
5.3865
21
-3.844
0
LINE
8
BLACK
6
CONTINUOUS
10
5.3865
20
-3.844
11
5.3865
21
-3.824
0
LINE
8
BLACK
6
CONTINUOUS
10
5.3865
20
-3.824
11
5.4065
21
-3.824
0
LINE
8
BLACK
6
CONTINUOUS
10
5.4065
20
-3.824
11
5.4065
21
-3.844
0
LINE
8
BLACK
6
CONTINUOUS
10
5.5065
20
-3.844
11
5.4865
21
-3.844
0
LINE
8
BLACK
6
CONTINUOUS
10
5.4865
20
-3.844
11
5.4865
21
-3.824
0
LINE
8
BLACK
6
CONTINUOUS
10
5.4865
20
-3.824
11
5.5065
21
-3.824
0
LINE
8
BLACK
6
CONTINUOUS
10
5.5065
20
-3.824
11
5.5065
21
-3.844
0
LINE
8
BLACK
6
CONTINUOUS
10
5.6333
20
-3.79221
11
5.6342
21
-3.79325
0
LINE
8
BLACK
6
CONTINUOUS
10
5.6342
20
-3.79325
11
5.6341
21
-3.79462
0
LINE
8
BLACK
6
CONTINUOUS
10
5.6341
20
-3.79462
11
5.63306
21
-3.79553
0
LINE
8
BLACK
6
CONTINUOUS
10
5.63306
20
-3.79553
11
5.62103
21
-3.79954
0
LINE
8
BLACK
6
CONTINUOUS
10
5.62103
20
-3.79954
11
5.62103
21
-3.81904
0
LINE
8
BLACK
6
CONTINUOUS
10
5.62103
20
-3.81904
11
5.63306
21
-3.82304
0
LINE
8
BLACK
6
CONTINUOUS
10
5.63306
20
-3.82304
11
5.6341
21
-3.82395
0
LINE
8
BLACK
6
CONTINUOUS
10
5.6341
20
-3.82395
11
5.6342
21
-3.82532
0
LINE
8
BLACK
6
CONTINUOUS
10
5.6342
20
-3.82532
11
5.6333
21
-3.82636
0
LINE
8
BLACK
6
CONTINUOUS
10
5.6333
20
-3.82636
11
5.63192
21
-3.82646
0
LINE
8
BLACK
6
CONTINUOUS
10
5.63192
20
-3.82646
11
5.58552
21
-3.81099
0
LINE
8
BLACK
6
CONTINUOUS
10
5.58552
20
-3.81099
11
5.58542
21
-3.81091
0
LINE
8
BLACK
6
CONTINUOUS
10
5.58542
20
-3.81091
11
5.58529
21
-3.8109
0
LINE
8
BLACK
6
CONTINUOUS
10
5.58529
20
-3.8109
11
5.58491
21
-3.81046
0
LINE
8
BLACK
6
CONTINUOUS
10
5.58491
20
-3.81046
11
5.58448
21
-3.81009
0
LINE
8
BLACK
6
CONTINUOUS
10
5.58448
20
-3.81009
11
5.58447
21
-3.80996
0
LINE
8
BLACK
6
CONTINUOUS
10
5.58447
20
-3.80996
11
5.58438
21
-3.80985
0
LINE
8
BLACK
6
CONTINUOUS
10
5.58438
20
-3.80985
11
5.58442
21
-3.80929
0
LINE
8
BLACK
6
CONTINUOUS
10
5.58442
20
-3.80929
11
5.58438
21
-3.80872
0
LINE
8
BLACK
6
CONTINUOUS
10
5.58438
20
-3.80872
11
5.58447
21
-3.80861
0
LINE
8
BLACK
6
CONTINUOUS
10
5.58447
20
-3.80861
11
5.58448
21
-3.80848
0
LINE
8
BLACK
6
CONTINUOUS
10
5.58448
20
-3.80848
11
5.58491
21
-3.80811
0
LINE
8
BLACK
6
CONTINUOUS
10
5.58491
20
-3.80811
11
5.58529
21
-3.80768
0
LINE
8
BLACK
6
CONTINUOUS
10
5.58529
20
-3.80768
11
5.58542
21
-3.80767
0
LINE
8
BLACK
6
CONTINUOUS
10
5.58542
20
-3.80767
11
5.58552
21
-3.80758
0
LINE
8
BLACK
6
CONTINUOUS
10
5.58552
20
-3.80758
11
5.63192
21
-3.79211
0
LINE
8
BLACK
6
CONTINUOUS
10
5.63192
20
-3.79211
11
5.6333
21
-3.79221
0
LINE
8
BLACK
6
CONTINUOUS
10
5.59178
20
-3.80929
11
5.61743
21
-3.81784
0
LINE
8
BLACK
6
CONTINUOUS
10
5.61743
20
-3.81784
11
5.61743
21
-3.80074
0
LINE
8
BLACK
6
CONTINUOUS
10
5.61743
20
-3.80074
11
5.59178
21
-3.80929
0
LINE
8
BLACK
6
CONTINUOUS
10
6.41503
20
-3.78358
11
6.41525
21
-3.78355
0
LINE
8
BLACK
6
CONTINUOUS
10
6.41525
20
-3.78355
11
6.42409
21
-3.78576
0
LINE
8
BLACK
6
CONTINUOUS
10
6.42409
20
-3.78576
11
6.42425
21
-3.78588
0
LINE
8
BLACK
6
CONTINUOUS
10
6.42425
20
-3.78588
11
6.42446
21
-3.7859
0
LINE
8
BLACK
6
CONTINUOUS
10
6.42446
20
-3.7859
11
6.42888
21
-3.78811
0
LINE
8
BLACK
6
CONTINUOUS
10
6.42888
20
-3.78811
11
6.42907
21
-3.78833
0
LINE
8
BLACK
6
CONTINUOUS
10
6.42907
20
-3.78833
11
6.42934
21
-3.78844
0
LINE
8
BLACK
6
CONTINUOUS
10
6.42934
20
-3.78844
11
6.43155
21
-3.79065
0
LINE
8
BLACK
6
CONTINUOUS
10
6.43155
20
-3.79065
11
6.43167
21
-3.79093
0
LINE
8
BLACK
6
CONTINUOUS
10
6.43167
20
-3.79093
11
6.43189
21
-3.79112
0
LINE
8
BLACK
6
CONTINUOUS
10
6.43189
20
-3.79112
11
6.4341
21
-3.79554
0
LINE
8
BLACK
6
CONTINUOUS
10
6.4341
20
-3.79554
11
6.43413
21
-3.79596
0
LINE
8
BLACK
6
CONTINUOUS
10
6.43413
20
-3.79596
11
6.43429
21
-3.79635
0
LINE
8
BLACK
6
CONTINUOUS
10
6.43429
20
-3.79635
11
6.43429
21
-3.80076
0
LINE
8
BLACK
6
CONTINUOUS
10
6.43429
20
-3.80076
11
6.43413
21
-3.80115
0
LINE
8
BLACK
6
CONTINUOUS
10
6.43413
20
-3.80115
11
6.4341
21
-3.80157
0
LINE
8
BLACK
6
CONTINUOUS
10
6.4341
20
-3.80157
11
6.43189
21
-3.80599
0
LINE
8
BLACK
6
CONTINUOUS
10
6.43189
20
-3.80599
11
6.43167
21
-3.80618
0
LINE
8
BLACK
6
CONTINUOUS
10
6.43167
20
-3.80618
11
6.43155
21
-3.80646
0
LINE
8
BLACK
6
CONTINUOUS
10
6.43155
20
-3.80646
11
6.42934
21
-3.80867
0
LINE
8
BLACK
6
CONTINUOUS
10
6.42934
20
-3.80867
11
6.42907
21
-3.80878
0
LINE
8
BLACK
6
CONTINUOUS
10
6.42907
20
-3.80878
11
6.42888
21
-3.809
0
LINE
8
BLACK
6
CONTINUOUS
10
6.42888
20
-3.809
11
6.42446
21
-3.81121
0
LINE
8
BLACK
6
CONTINUOUS
10
6.42446
20
-3.81121
11
6.42425
21
-3.81123
0
LINE
8
BLACK
6
CONTINUOUS
10
6.42425
20
-3.81123
11
6.42409
21
-3.81135
0
LINE
8
BLACK
6
CONTINUOUS
10
6.42409
20
-3.81135
11
6.41525
21
-3.81356
0
LINE
8
BLACK
6
CONTINUOUS
10
6.41525
20
-3.81356
11
6.41503
21
-3.81352
0
LINE
8
BLACK
6
CONTINUOUS
10
6.41503
20
-3.81352
11
6.41481
21
-3.81361
0
LINE
8
BLACK
6
CONTINUOUS
10
6.41481
20
-3.81361
11
6.40377
21
-3.81361
0
LINE
8
BLACK
6
CONTINUOUS
10
6.40377
20
-3.81361
11
6.40356
21
-3.81352
0
LINE
8
BLACK
6
CONTINUOUS
10
6.40356
20
-3.81352
11
6.40333
21
-3.81356
0
LINE
8
BLACK
6
CONTINUOUS
10
6.40333
20
-3.81356
11
6.39449
21
-3.81135
0
LINE
8
BLACK
6
CONTINUOUS
10
6.39449
20
-3.81135
11
6.39433
21
-3.81123
0
LINE
8
BLACK
6
CONTINUOUS
10
6.39433
20
-3.81123
11
6.39412
21
-3.81121
0
LINE
8
BLACK
6
CONTINUOUS
10
6.39412
20
-3.81121
11
6.3897
21
-3.809
0
LINE
8
BLACK
6
CONTINUOUS
10
6.3897
20
-3.809
11
6.38951
21
-3.80878
0
LINE
8
BLACK
6
CONTINUOUS
10
6.38951
20
-3.80878
11
6.38924
21
-3.80867
0
LINE
8
BLACK
6
CONTINUOUS
10
6.38924
20
-3.80867
11
6.38703
21
-3.80646
0
LINE
8
BLACK
6
CONTINUOUS
10
6.38703
20
-3.80646
11
6.38691
21
-3.80618
0
LINE
8
BLACK
6
CONTINUOUS
10
6.38691
20
-3.80618
11
6.38669
21
-3.80599
0
LINE
8
BLACK
6
CONTINUOUS
10
6.38669
20
-3.80599
11
6.38448
21
-3.80157
0
LINE
8
BLACK
6
CONTINUOUS
10
6.38448
20
-3.80157
11
6.38445
21
-3.80115
0
LINE
8
BLACK
6
CONTINUOUS
10
6.38445
20
-3.80115
11
6.38429
21
-3.80076
0
LINE
8
BLACK
6
CONTINUOUS
10
6.38429
20
-3.80076
11
6.38429
21
-3.79635
0
LINE
8
BLACK
6
CONTINUOUS
10
6.38429
20
-3.79635
11
6.38445
21
-3.79596
0
LINE
8
BLACK
6
CONTINUOUS
10
6.38445
20
-3.79596
11
6.38448
21
-3.79554
0
LINE
8
BLACK
6
CONTINUOUS
10
6.38448
20
-3.79554
11
6.38669
21
-3.79112
0
LINE
8
BLACK
6
CONTINUOUS
10
6.38669
20
-3.79112
11
6.38691
21
-3.79093
0
LINE
8
BLACK
6
CONTINUOUS
10
6.38691
20
-3.79093
11
6.38703
21
-3.79065
0
LINE
8
BLACK
6
CONTINUOUS
10
6.38703
20
-3.79065
11
6.38924
21
-3.78844
0
LINE
8
BLACK
6
CONTINUOUS
10
6.38924
20
-3.78844
11
6.38951
21
-3.78833
0
LINE
8
BLACK
6
CONTINUOUS
10
6.38951
20
-3.78833
11
6.3897
21
-3.78811
0
LINE
8
BLACK
6
CONTINUOUS
10
6.3897
20
-3.78811
11
6.39412
21
-3.7859
0
LINE
8
BLACK
6
CONTINUOUS
10
6.39412
20
-3.7859
11
6.39433
21
-3.78588
0
LINE
8
BLACK
6
CONTINUOUS
10
6.39433
20
-3.78588
11
6.39449
21
-3.78576
0
LINE
8
BLACK
6
CONTINUOUS
10
6.39449
20
-3.78576
11
6.40333
21
-3.78355
0
LINE
8
BLACK
6
CONTINUOUS
10
6.40333
20
-3.78355
11
6.40356
21
-3.78358
0
LINE
8
BLACK
6
CONTINUOUS
10
6.40356
20
-3.78358
11
6.40377
21
-3.7835
0
LINE
8
BLACK
6
CONTINUOUS
10
6.40377
20
-3.7835
11
6.41481
21
-3.7835
0
LINE
8
BLACK
6
CONTINUOUS
10
6.41481
20
-3.7835
11
6.41503
21
-3.78358
0
LINE
8
BLACK
6
CONTINUOUS
10
6.40399
20
-3.7871
11
6.39556
21
-3.78921
0
LINE
8
BLACK
6
CONTINUOUS
10
6.39556
20
-3.78921
11
6.39158
21
-3.7912
0
LINE
8
BLACK
6
CONTINUOUS
10
6.39158
20
-3.7912
11
6.38978
21
-3.79299
0
LINE
8
BLACK
6
CONTINUOUS
10
6.38978
20
-3.79299
11
6.38789
21
-3.79677
0
LINE
8
BLACK
6
CONTINUOUS
10
6.38789
20
-3.79677
11
6.38789
21
-3.80034
0
LINE
8
BLACK
6
CONTINUOUS
10
6.38789
20
-3.80034
11
6.38978
21
-3.80412
0
LINE
8
BLACK
6
CONTINUOUS
10
6.38978
20
-3.80412
11
6.39158
21
-3.80591
0
LINE
8
BLACK
6
CONTINUOUS
10
6.39158
20
-3.80591
11
6.39556
21
-3.8079
0
LINE
8
BLACK
6
CONTINUOUS
10
6.39556
20
-3.8079
11
6.40399
21
-3.81001
0
LINE
8
BLACK
6
CONTINUOUS
10
6.40399
20
-3.81001
11
6.41459
21
-3.81001
0
LINE
8
BLACK
6
CONTINUOUS
10
6.41459
20
-3.81001
11
6.42302
21
-3.8079
0
LINE
8
BLACK
6
CONTINUOUS
10
6.42302
20
-3.8079
11
6.42701
21
-3.80591
0
LINE
8
BLACK
6
CONTINUOUS
10
6.42701
20
-3.80591
11
6.4288
21
-3.80412
0
LINE
8
BLACK
6
CONTINUOUS
10
6.4288
20
-3.80412
11
6.43069
21
-3.80034
0
LINE
8
BLACK
6
CONTINUOUS
10
6.43069
20
-3.80034
11
6.43069
21
-3.79677
0
LINE
8
BLACK
6
CONTINUOUS
10
6.43069
20
-3.79677
11
6.4288
21
-3.79299
0
LINE
8
BLACK
6
CONTINUOUS
10
6.4288
20
-3.79299
11
6.42701
21
-3.7912
0
LINE
8
BLACK
6
CONTINUOUS
10
6.42701
20
-3.7912
11
6.42302
21
-3.78921
0
LINE
8
BLACK
6
CONTINUOUS
10
6.42302
20
-3.78921
11
6.41459
21
-3.7871
0
LINE
8
BLACK
6
CONTINUOUS
10
6.41459
20
-3.7871
11
6.40399
21
-3.7871
0
LINE
8
BLACK
6
CONTINUOUS
10
5.61503
20
-3.75233
11
5.61525
21
-3.7523
0
LINE
8
BLACK
6
CONTINUOUS
10
5.61525
20
-3.7523
11
5.62409
21
-3.75451
0
LINE
8
BLACK
6
CONTINUOUS
10
5.62409
20
-3.75451
11
5.62425
21
-3.75463
0
LINE
8
BLACK
6
CONTINUOUS
10
5.62425
20
-3.75463
11
5.62446
21
-3.75465
0
LINE
8
BLACK
6
CONTINUOUS
10
5.62446
20
-3.75465
11
5.62888
21
-3.75686
0
LINE
8
BLACK
6
CONTINUOUS
10
5.62888
20
-3.75686
11
5.62907
21
-3.75708
0
LINE
8
BLACK
6
CONTINUOUS
10
5.62907
20
-3.75708
11
5.62934
21
-3.75719
0
LINE
8
BLACK
6
CONTINUOUS
10
5.62934
20
-3.75719
11
5.63155
21
-3.7594
0
LINE
8
BLACK
6
CONTINUOUS
10
5.63155
20
-3.7594
11
5.63167
21
-3.75968
0
LINE
8
BLACK
6
CONTINUOUS
10
5.63167
20
-3.75968
11
5.63189
21
-3.75987
0
LINE
8
BLACK
6
CONTINUOUS
10
5.63189
20
-3.75987
11
5.6341
21
-3.76429
0
LINE
8
BLACK
6
CONTINUOUS
10
5.6341
20
-3.76429
11
5.63413
21
-3.76471
0
LINE
8
BLACK
6
CONTINUOUS
10
5.63413
20
-3.76471
11
5.63429
21
-3.7651
0
LINE
8
BLACK
6
CONTINUOUS
10
5.63429
20
-3.7651
11
5.63429
21
-3.76951
0
LINE
8
BLACK
6
CONTINUOUS
10
5.63429
20
-3.76951
11
5.63413
21
-3.7699
0
LINE
8
BLACK
6
CONTINUOUS
10
5.63413
20
-3.7699
11
5.6341
21
-3.77032
0
LINE
8
BLACK
6
CONTINUOUS
10
5.6341
20
-3.77032
11
5.63189
21
-3.77474
0
LINE
8
BLACK
6
CONTINUOUS
10
5.63189
20
-3.77474
11
5.63167
21
-3.77493
0
LINE
8
BLACK
6
CONTINUOUS
10
5.63167
20
-3.77493
11
5.63155
21
-3.77521
0
LINE
8
BLACK
6
CONTINUOUS
10
5.63155
20
-3.77521
11
5.62934
21
-3.77742
0
LINE
8
BLACK
6
CONTINUOUS
10
5.62934
20
-3.77742
11
5.62907
21
-3.77753
0
LINE
8
BLACK
6
CONTINUOUS
10
5.62907
20
-3.77753
11
5.62888
21
-3.77775
0
LINE
8
BLACK
6
CONTINUOUS
10
5.62888
20
-3.77775
11
5.62446
21
-3.77996
0
LINE
8
BLACK
6
CONTINUOUS
10
5.62446
20
-3.77996
11
5.62425
21
-3.77998
0
LINE
8
BLACK
6
CONTINUOUS
10
5.62425
20
-3.77998
11
5.62409
21
-3.7801
0
LINE
8
BLACK
6
CONTINUOUS
10
5.62409
20
-3.7801
11
5.61525
21
-3.78231
0
LINE
8
BLACK
6
CONTINUOUS
10
5.61525
20
-3.78231
11
5.61503
21
-3.78227
0
LINE
8
BLACK
6
CONTINUOUS
10
5.61503
20
-3.78227
11
5.61481
21
-3.78236
0
LINE
8
BLACK
6
CONTINUOUS
10
5.61481
20
-3.78236
11
5.60377
21
-3.78236
0
LINE
8
BLACK
6
CONTINUOUS
10
5.60377
20
-3.78236
11
5.60356
21
-3.78227
0
LINE
8
BLACK
6
CONTINUOUS
10
5.60356
20
-3.78227
11
5.60333
21
-3.78231
0
LINE
8
BLACK
6
CONTINUOUS
10
5.60333
20
-3.78231
11
5.59449
21
-3.7801
0
LINE
8
BLACK
6
CONTINUOUS
10
5.59449
20
-3.7801
11
5.59433
21
-3.77998
0
LINE
8
BLACK
6
CONTINUOUS
10
5.59433
20
-3.77998
11
5.59412
21
-3.77996
0
LINE
8
BLACK
6
CONTINUOUS
10
5.59412
20
-3.77996
11
5.5897
21
-3.77775
0
LINE
8
BLACK
6
CONTINUOUS
10
5.5897
20
-3.77775
11
5.58951
21
-3.77753
0
LINE
8
BLACK
6
CONTINUOUS
10
5.58951
20
-3.77753
11
5.58924
21
-3.77742
0
LINE
8
BLACK
6
CONTINUOUS
10
5.58924
20
-3.77742
11
5.58703
21
-3.77521
0
LINE
8
BLACK
6
CONTINUOUS
10
5.58703
20
-3.77521
11
5.58691
21
-3.77493
0
LINE
8
BLACK
6
CONTINUOUS
10
5.58691
20
-3.77493
11
5.58669
21
-3.77474
0
LINE
8
BLACK
6
CONTINUOUS
10
5.58669
20
-3.77474
11
5.58448
21
-3.77032
0
LINE
8
BLACK
6
CONTINUOUS
10
5.58448
20
-3.77032
11
5.58445
21
-3.7699
0
LINE
8
BLACK
6
CONTINUOUS
10
5.58445
20
-3.7699
11
5.58429
21
-3.76951
0
LINE
8
BLACK
6
CONTINUOUS
10
5.58429
20
-3.76951
11
5.58429
21
-3.7651
0
LINE
8
BLACK
6
CONTINUOUS
10
5.58429
20
-3.7651
11
5.58445
21
-3.76471
0
LINE
8
BLACK
6
CONTINUOUS
10
5.58445
20
-3.76471
11
5.58448
21
-3.76429
0
LINE
8
BLACK
6
CONTINUOUS
10
5.58448
20
-3.76429
11
5.58669
21
-3.75987
0
LINE
8
BLACK
6
CONTINUOUS
10
5.58669
20
-3.75987
11
5.58691
21
-3.75968
0
LINE
8
BLACK
6
CONTINUOUS
10
5.58691
20
-3.75968
11
5.58703
21
-3.7594
0
LINE
8
BLACK
6
CONTINUOUS
10
5.58703
20
-3.7594
11
5.58924
21
-3.75719
0
LINE
8
BLACK
6
CONTINUOUS
10
5.58924
20
-3.75719
11
5.58951
21
-3.75708
0
LINE
8
BLACK
6
CONTINUOUS
10
5.58951
20
-3.75708
11
5.5897
21
-3.75686
0
LINE
8
BLACK
6
CONTINUOUS
10
5.5897
20
-3.75686
11
5.59412
21
-3.75465
0
LINE
8
BLACK
6
CONTINUOUS
10
5.59412
20
-3.75465
11
5.59433
21
-3.75463
0
LINE
8
BLACK
6
CONTINUOUS
10
5.59433
20
-3.75463
11
5.59449
21
-3.75451
0
LINE
8
BLACK
6
CONTINUOUS
10
5.59449
20
-3.75451
11
5.60333
21
-3.7523
0
LINE
8
BLACK
6
CONTINUOUS
10
5.60333
20
-3.7523
11
5.60356
21
-3.75233
0
LINE
8
BLACK
6
CONTINUOUS
10
5.60356
20
-3.75233
11
5.60377
21
-3.75225
0
LINE
8
BLACK
6
CONTINUOUS
10
5.60377
20
-3.75225
11
5.61481
21
-3.75225
0
LINE
8
BLACK
6
CONTINUOUS
10
5.61481
20
-3.75225
11
5.61503
21
-3.75233
0
LINE
8
BLACK
6
CONTINUOUS
10
5.60399
20
-3.75585
11
5.59556
21
-3.75796
0
LINE
8
BLACK
6
CONTINUOUS
10
5.59556
20
-3.75796
11
5.59158
21
-3.75995
0
LINE
8
BLACK
6
CONTINUOUS
10
5.59158
20
-3.75995
11
5.58978
21
-3.76174
0
LINE
8
BLACK
6
CONTINUOUS
10
5.58978
20
-3.76174
11
5.58789
21
-3.76552
0
LINE
8
BLACK
6
CONTINUOUS
10
5.58789
20
-3.76552
11
5.58789
21
-3.76909
0
LINE
8
BLACK
6
CONTINUOUS
10
5.58789
20
-3.76909
11
5.58978
21
-3.77287
0
LINE
8
BLACK
6
CONTINUOUS
10
5.58978
20
-3.77287
11
5.59158
21
-3.77466
0
LINE
8
BLACK
6
CONTINUOUS
10
5.59158
20
-3.77466
11
5.59556
21
-3.77665
0
LINE
8
BLACK
6
CONTINUOUS
10
5.59556
20
-3.77665
11
5.60399
21
-3.77876
0
LINE
8
BLACK
6
CONTINUOUS
10
5.60399
20
-3.77876
11
5.61459
21
-3.77876
0
LINE
8
BLACK
6
CONTINUOUS
10
5.61459
20
-3.77876
11
5.62302
21
-3.77665
0
LINE
8
BLACK
6
CONTINUOUS
10
5.62302
20
-3.77665
11
5.62701
21
-3.77466
0
LINE
8
BLACK
6
CONTINUOUS
10
5.62701
20
-3.77466
11
5.6288
21
-3.77287
0
LINE
8
BLACK
6
CONTINUOUS
10
5.6288
20
-3.77287
11
5.63069
21
-3.76909
0
LINE
8
BLACK
6
CONTINUOUS
10
5.63069
20
-3.76909
11
5.63069
21
-3.76552
0
LINE
8
BLACK
6
CONTINUOUS
10
5.63069
20
-3.76552
11
5.6288
21
-3.76174
0
LINE
8
BLACK
6
CONTINUOUS
10
5.6288
20
-3.76174
11
5.62701
21
-3.75995
0
LINE
8
BLACK
6
CONTINUOUS
10
5.62701
20
-3.75995
11
5.62302
21
-3.75796
0
LINE
8
BLACK
6
CONTINUOUS
10
5.62302
20
-3.75796
11
5.61459
21
-3.75585
0
LINE
8
BLACK
6
CONTINUOUS
10
5.61459
20
-3.75585
11
5.60399
21
-3.75585
0
LINE
8
BLACK
6
CONTINUOUS
10
6.03775
20
-3.7815
11
6.01775
21
-3.7815
0
LINE
8
BLACK
6
CONTINUOUS
10
6.01775
20
-3.7815
11
6.01775
21
-3.7615
0
LINE
8
BLACK
6
CONTINUOUS
10
6.01775
20
-3.7615
11
6.03775
21
-3.7615
0
LINE
8
BLACK
6
CONTINUOUS
10
6.03775
20
-3.7615
11
6.03775
21
-3.7815
0
LINE
8
BLACK
6
CONTINUOUS
10
6.3065
20
-3.77525
11
6.2865
21
-3.77525
0
LINE
8
BLACK
6
CONTINUOUS
10
6.2865
20
-3.77525
11
6.2865
21
-3.75525
0
LINE
8
BLACK
6
CONTINUOUS
10
6.2865
20
-3.75525
11
6.3065
21
-3.75525
0
LINE
8
BLACK
6
CONTINUOUS
10
6.3065
20
-3.75525
11
6.3065
21
-3.77525
0
LINE
8
BLACK
6
CONTINUOUS
10
6.2065
20
-3.77525
11
6.1865
21
-3.77525
0
LINE
8
BLACK
6
CONTINUOUS
10
6.1865
20
-3.77525
11
6.1865
21
-3.75525
0
LINE
8
BLACK
6
CONTINUOUS
10
6.1865
20
-3.75525
11
6.2065
21
-3.75525
0
LINE
8
BLACK
6
CONTINUOUS
10
6.2065
20
-3.75525
11
6.2065
21
-3.77525
0
LINE
8
BLACK
6
CONTINUOUS
10
6.42404
20
-3.73947
11
6.42446
21
-3.7395
0
LINE
8
BLACK
6
CONTINUOUS
10
6.42446
20
-3.7395
11
6.42888
21
-3.74171
0
LINE
8
BLACK
6
CONTINUOUS
10
6.42888
20
-3.74171
11
6.42907
21
-3.74193
0
LINE
8
BLACK
6
CONTINUOUS
10
6.42907
20
-3.74193
11
6.42934
21
-3.74204
0
LINE
8
BLACK
6
CONTINUOUS
10
6.42934
20
-3.74204
11
6.43155
21
-3.74425
0
LINE
8
BLACK
6
CONTINUOUS
10
6.43155
20
-3.74425
11
6.43167
21
-3.74453
0
LINE
8
BLACK
6
CONTINUOUS
10
6.43167
20
-3.74453
11
6.43189
21
-3.74472
0
LINE
8
BLACK
6
CONTINUOUS
10
6.43189
20
-3.74472
11
6.4341
21
-3.74914
0
LINE
8
BLACK
6
CONTINUOUS
10
6.4341
20
-3.74914
11
6.43413
21
-3.74956
0
LINE
8
BLACK
6
CONTINUOUS
10
6.43413
20
-3.74956
11
6.43429
21
-3.74995
0
LINE
8
BLACK
6
CONTINUOUS
10
6.43429
20
-3.74995
11
6.43429
21
-3.7632
0
LINE
8
BLACK
6
CONTINUOUS
10
6.43429
20
-3.7632
11
6.43413
21
-3.76359
0
LINE
8
BLACK
6
CONTINUOUS
10
6.43413
20
-3.76359
11
6.4341
21
-3.76401
0
LINE
8
BLACK
6
CONTINUOUS
10
6.4341
20
-3.76401
11
6.43189
21
-3.76843
0
LINE
8
BLACK
6
CONTINUOUS
10
6.43189
20
-3.76843
11
6.43167
21
-3.76862
0
LINE
8
BLACK
6
CONTINUOUS
10
6.43167
20
-3.76862
11
6.43155
21
-3.76889
0
LINE
8
BLACK
6
CONTINUOUS
10
6.43155
20
-3.76889
11
6.42934
21
-3.7711
0
LINE
8
BLACK
6
CONTINUOUS
10
6.42934
20
-3.7711
11
6.42807
21
-3.77163
0
LINE
8
BLACK
6
CONTINUOUS
10
6.42807
20
-3.77163
11
6.4268
21
-3.7711
0
LINE
8
BLACK
6
CONTINUOUS
10
6.4268
20
-3.7711
11
6.42627
21
-3.76983
0
LINE
8
BLACK
6
CONTINUOUS
10
6.42627
20
-3.76983
11
6.4268
21
-3.76856
0
LINE
8
BLACK
6
CONTINUOUS
10
6.4268
20
-3.76856
11
6.4288
21
-3.76656
0
LINE
8
BLACK
6
CONTINUOUS
10
6.4288
20
-3.76656
11
6.43069
21
-3.76278
0
LINE
8
BLACK
6
CONTINUOUS
10
6.43069
20
-3.76278
11
6.43069
21
-3.75037
0
LINE
8
BLACK
6
CONTINUOUS
10
6.43069
20
-3.75037
11
6.4288
21
-3.74659
0
LINE
8
BLACK
6
CONTINUOUS
10
6.4288
20
-3.74659
11
6.42701
21
-3.7448
0
LINE
8
BLACK
6
CONTINUOUS
10
6.42701
20
-3.7448
11
6.42323
21
-3.74291
0
LINE
8
BLACK
6
CONTINUOUS
10
6.42323
20
-3.74291
11
6.41303
21
-3.74291
0
LINE
8
BLACK
6
CONTINUOUS
10
6.41303
20
-3.74291
11
6.40925
21
-3.7448
0
LINE
8
BLACK
6
CONTINUOUS
10
6.40925
20
-3.7448
11
6.40746
21
-3.74659
0
LINE
8
BLACK
6
CONTINUOUS
10
6.40746
20
-3.74659
11
6.40557
21
-3.75037
0
LINE
8
BLACK
6
CONTINUOUS
10
6.40557
20
-3.75037
11
6.40557
21
-3.75657
0
LINE
8
BLACK
6
CONTINUOUS
10
6.40557
20
-3.75657
11
6.40532
21
-3.75716
0
LINE
8
BLACK
6
CONTINUOUS
10
6.40532
20
-3.75716
11
6.40512
21
-3.75776
0
LINE
8
BLACK
6
CONTINUOUS
10
6.40512
20
-3.75776
11
6.40506
21
-3.75779
0
LINE
8
BLACK
6
CONTINUOUS
10
6.40506
20
-3.75779
11
6.40504
21
-3.75785
0
LINE
8
BLACK
6
CONTINUOUS
10
6.40504
20
-3.75785
11
6.40445
21
-3.75809
0
LINE
8
BLACK
6
CONTINUOUS
10
6.40445
20
-3.75809
11
6.40389
21
-3.75837
0
LINE
8
BLACK
6
CONTINUOUS
10
6.40389
20
-3.75837
11
6.40383
21
-3.75835
0
LINE
8
BLACK
6
CONTINUOUS
10
6.40383
20
-3.75835
11
6.40377
21
-3.75837
0
LINE
8
BLACK
6
CONTINUOUS
10
6.40377
20
-3.75837
11
6.40318
21
-3.75813
0
LINE
8
BLACK
6
CONTINUOUS
10
6.40318
20
-3.75813
11
6.40258
21
-3.75793
0
LINE
8
BLACK
6
CONTINUOUS
10
6.40258
20
-3.75793
11
6.38789
21
-3.74507
0
LINE
8
BLACK
6
CONTINUOUS
10
6.38789
20
-3.74507
11
6.38789
21
-3.76983
0
LINE
8
BLACK
6
CONTINUOUS
10
6.38789
20
-3.76983
11
6.38736
21
-3.7711
0
LINE
8
BLACK
6
CONTINUOUS
10
6.38736
20
-3.7711
11
6.38609
21
-3.77163
0
LINE
8
BLACK
6
CONTINUOUS
10
6.38609
20
-3.77163
11
6.38482
21
-3.7711
0
LINE
8
BLACK
6
CONTINUOUS
10
6.38482
20
-3.7711
11
6.38429
21
-3.76983
0
LINE
8
BLACK
6
CONTINUOUS
10
6.38429
20
-3.76983
11
6.38429
21
-3.74111
0
LINE
8
BLACK
6
CONTINUOUS
10
6.38429
20
-3.74111
11
6.38453
21
-3.74052
0
LINE
8
BLACK
6
CONTINUOUS
10
6.38453
20
-3.74052
11
6.38474
21
-3.73992
0
LINE
8
BLACK
6
CONTINUOUS
10
6.38474
20
-3.73992
11
6.38479
21
-3.73989
0
LINE
8
BLACK
6
CONTINUOUS
10
6.38479
20
-3.73989
11
6.38482
21
-3.73983
0
LINE
8
BLACK
6
CONTINUOUS
10
6.38482
20
-3.73983
11
6.3854
21
-3.73959
0
LINE
8
BLACK
6
CONTINUOUS
10
6.3854
20
-3.73959
11
6.38597
21
-3.73931
0
LINE
8
BLACK
6
CONTINUOUS
10
6.38597
20
-3.73931
11
6.38603
21
-3.73933
0
LINE
8
BLACK
6
CONTINUOUS
10
6.38603
20
-3.73933
11
6.38609
21
-3.73931
0
LINE
8
BLACK
6
CONTINUOUS
10
6.38609
20
-3.73931
11
6.38668
21
-3.73955
0
LINE
8
BLACK
6
CONTINUOUS
10
6.38668
20
-3.73955
11
6.38728
21
-3.73975
0
LINE
8
BLACK
6
CONTINUOUS
10
6.38728
20
-3.73975
11
6.40197
21
-3.75261
0
LINE
8
BLACK
6
CONTINUOUS
10
6.40197
20
-3.75261
11
6.40197
21
-3.74995
0
LINE
8
BLACK
6
CONTINUOUS
10
6.40197
20
-3.74995
11
6.40213
21
-3.74956
0
LINE
8
BLACK
6
CONTINUOUS
10
6.40213
20
-3.74956
11
6.40216
21
-3.74914
0
LINE
8
BLACK
6
CONTINUOUS
10
6.40216
20
-3.74914
11
6.40437
21
-3.74472
0
LINE
8
BLACK
6
CONTINUOUS
10
6.40437
20
-3.74472
11
6.40459
21
-3.74453
0
LINE
8
BLACK
6
CONTINUOUS
10
6.40459
20
-3.74453
11
6.4047
21
-3.74425
0
LINE
8
BLACK
6
CONTINUOUS
10
6.4047
20
-3.74425
11
6.40691
21
-3.74204
0
LINE
8
BLACK
6
CONTINUOUS
10
6.40691
20
-3.74204
11
6.40719
21
-3.74193
0
LINE
8
BLACK
6
CONTINUOUS
10
6.40719
20
-3.74193
11
6.40738
21
-3.74171
0
LINE
8
BLACK
6
CONTINUOUS
10
6.40738
20
-3.74171
11
6.4118
21
-3.7395
0
LINE
8
BLACK
6
CONTINUOUS
10
6.4118
20
-3.7395
11
6.41222
21
-3.73947
0
LINE
8
BLACK
6
CONTINUOUS
10
6.41222
20
-3.73947
11
6.4126
21
-3.73931
0
LINE
8
BLACK
6
CONTINUOUS
10
6.4126
20
-3.73931
11
6.42365
21
-3.73931
0
LINE
8
BLACK
6
CONTINUOUS
10
6.42365
20
-3.73931
11
6.42404
21
-3.73947
0
LINE
8
BLACK
6
CONTINUOUS
10
5.4065
20
-3.744
11
5.3865
21
-3.744
0
LINE
8
BLACK
6
CONTINUOUS
10
5.3865
20
-3.744
11
5.3865
21
-3.724
0
LINE
8
BLACK
6
CONTINUOUS
10
5.3865
20
-3.724
11
5.4065
21
-3.724
0
LINE
8
BLACK
6
CONTINUOUS
10
5.4065
20
-3.724
11
5.4065
21
-3.744
0
LINE
8
BLACK
6
CONTINUOUS
10
5.5065
20
-3.744
11
5.4865
21
-3.744
0
LINE
8
BLACK
6
CONTINUOUS
10
5.4865
20
-3.744
11
5.4865
21
-3.724
0
LINE
8
BLACK
6
CONTINUOUS
10
5.4865
20
-3.724
11
5.5065
21
-3.724
0
LINE
8
BLACK
6
CONTINUOUS
10
5.5065
20
-3.724
11
5.5065
21
-3.744
0
LINE
8
BLACK
6
CONTINUOUS
10
5.62404
20
-3.70822
11
5.62446
21
-3.70825
0
LINE
8
BLACK
6
CONTINUOUS
10
5.62446
20
-3.70825
11
5.62888
21
-3.71046
0
LINE
8
BLACK
6
CONTINUOUS
10
5.62888
20
-3.71046
11
5.62907
21
-3.71068
0
LINE
8
BLACK
6
CONTINUOUS
10
5.62907
20
-3.71068
11
5.62934
21
-3.71079
0
LINE
8
BLACK
6
CONTINUOUS
10
5.62934
20
-3.71079
11
5.63155
21
-3.713
0
LINE
8
BLACK
6
CONTINUOUS
10
5.63155
20
-3.713
11
5.63167
21
-3.71328
0
LINE
8
BLACK
6
CONTINUOUS
10
5.63167
20
-3.71328
11
5.63189
21
-3.71347
0
LINE
8
BLACK
6
CONTINUOUS
10
5.63189
20
-3.71347
11
5.6341
21
-3.71789
0
LINE
8
BLACK
6
CONTINUOUS
10
5.6341
20
-3.71789
11
5.63413
21
-3.71831
0
LINE
8
BLACK
6
CONTINUOUS
10
5.63413
20
-3.71831
11
5.63429
21
-3.7187
0
LINE
8
BLACK
6
CONTINUOUS
10
5.63429
20
-3.7187
11
5.63429
21
-3.73195
0
LINE
8
BLACK
6
CONTINUOUS
10
5.63429
20
-3.73195
11
5.63413
21
-3.73234
0
LINE
8
BLACK
6
CONTINUOUS
10
5.63413
20
-3.73234
11
5.6341
21
-3.73276
0
LINE
8
BLACK
6
CONTINUOUS
10
5.6341
20
-3.73276
11
5.63189
21
-3.73718
0
LINE
8
BLACK
6
CONTINUOUS
10
5.63189
20
-3.73718
11
5.63167
21
-3.73737
0
LINE
8
BLACK
6
CONTINUOUS
10
5.63167
20
-3.73737
11
5.63155
21
-3.73764
0
LINE
8
BLACK
6
CONTINUOUS
10
5.63155
20
-3.73764
11
5.62934
21
-3.73985
0
LINE
8
BLACK
6
CONTINUOUS
10
5.62934
20
-3.73985
11
5.62807
21
-3.74038
0
LINE
8
BLACK
6
CONTINUOUS
10
5.62807
20
-3.74038
11
5.6268
21
-3.73985
0
LINE
8
BLACK
6
CONTINUOUS
10
5.6268
20
-3.73985
11
5.62627
21
-3.73858
0
LINE
8
BLACK
6
CONTINUOUS
10
5.62627
20
-3.73858
11
5.6268
21
-3.73731
0
LINE
8
BLACK
6
CONTINUOUS
10
5.6268
20
-3.73731
11
5.6288
21
-3.73531
0
LINE
8
BLACK
6
CONTINUOUS
10
5.6288
20
-3.73531
11
5.63069
21
-3.73153
0
LINE
8
BLACK
6
CONTINUOUS
10
5.63069
20
-3.73153
11
5.63069
21
-3.71912
0
LINE
8
BLACK
6
CONTINUOUS
10
5.63069
20
-3.71912
11
5.6288
21
-3.71534
0
LINE
8
BLACK
6
CONTINUOUS
10
5.6288
20
-3.71534
11
5.62701
21
-3.71355
0
LINE
8
BLACK
6
CONTINUOUS
10
5.62701
20
-3.71355
11
5.62323
21
-3.71166
0
LINE
8
BLACK
6
CONTINUOUS
10
5.62323
20
-3.71166
11
5.61303
21
-3.71166
0
LINE
8
BLACK
6
CONTINUOUS
10
5.61303
20
-3.71166
11
5.60925
21
-3.71355
0
LINE
8
BLACK
6
CONTINUOUS
10
5.60925
20
-3.71355
11
5.60746
21
-3.71534
0
LINE
8
BLACK
6
CONTINUOUS
10
5.60746
20
-3.71534
11
5.60557
21
-3.71912
0
LINE
8
BLACK
6
CONTINUOUS
10
5.60557
20
-3.71912
11
5.60557
21
-3.72532
0
LINE
8
BLACK
6
CONTINUOUS
10
5.60557
20
-3.72532
11
5.60532
21
-3.72591
0
LINE
8
BLACK
6
CONTINUOUS
10
5.60532
20
-3.72591
11
5.60512
21
-3.72651
0
LINE
8
BLACK
6
CONTINUOUS
10
5.60512
20
-3.72651
11
5.60506
21
-3.72654
0
LINE
8
BLACK
6
CONTINUOUS
10
5.60506
20
-3.72654
11
5.60504
21
-3.7266
0
LINE
8
BLACK
6
CONTINUOUS
10
5.60504
20
-3.7266
11
5.60445
21
-3.72684
0
LINE
8
BLACK
6
CONTINUOUS
10
5.60445
20
-3.72684
11
5.60389
21
-3.72712
0
LINE
8
BLACK
6
CONTINUOUS
10
5.60389
20
-3.72712
11
5.60383
21
-3.7271
0
LINE
8
BLACK
6
CONTINUOUS
10
5.60383
20
-3.7271
11
5.60377
21
-3.72712
0
LINE
8
BLACK
6
CONTINUOUS
10
5.60377
20
-3.72712
11
5.60318
21
-3.72688
0
LINE
8
BLACK
6
CONTINUOUS
10
5.60318
20
-3.72688
11
5.60258
21
-3.72668
0
LINE
8
BLACK
6
CONTINUOUS
10
5.60258
20
-3.72668
11
5.58789
21
-3.71382
0
LINE
8
BLACK
6
CONTINUOUS
10
5.58789
20
-3.71382
11
5.58789
21
-3.73858
0
LINE
8
BLACK
6
CONTINUOUS
10
5.58789
20
-3.73858
11
5.58736
21
-3.73985
0
LINE
8
BLACK
6
CONTINUOUS
10
5.58736
20
-3.73985
11
5.58609
21
-3.74038
0
LINE
8
BLACK
6
CONTINUOUS
10
5.58609
20
-3.74038
11
5.58482
21
-3.73985
0
LINE
8
BLACK
6
CONTINUOUS
10
5.58482
20
-3.73985
11
5.58429
21
-3.73858
0
LINE
8
BLACK
6
CONTINUOUS
10
5.58429
20
-3.73858
11
5.58429
21
-3.70986
0
LINE
8
BLACK
6
CONTINUOUS
10
5.58429
20
-3.70986
11
5.58453
21
-3.70927
0
LINE
8
BLACK
6
CONTINUOUS
10
5.58453
20
-3.70927
11
5.58474
21
-3.70867
0
LINE
8
BLACK
6
CONTINUOUS
10
5.58474
20
-3.70867
11
5.58479
21
-3.70864
0
LINE
8
BLACK
6
CONTINUOUS
10
5.58479
20
-3.70864
11
5.58482
21
-3.70858
0
LINE
8
BLACK
6
CONTINUOUS
10
5.58482
20
-3.70858
11
5.5854
21
-3.70834
0
LINE
8
BLACK
6
CONTINUOUS
10
5.5854
20
-3.70834
11
5.58597
21
-3.70806
0
LINE
8
BLACK
6
CONTINUOUS
10
5.58597
20
-3.70806
11
5.58603
21
-3.70808
0
LINE
8
BLACK
6
CONTINUOUS
10
5.58603
20
-3.70808
11
5.58609
21
-3.70806
0
LINE
8
BLACK
6
CONTINUOUS
10
5.58609
20
-3.70806
11
5.58668
21
-3.7083
0
LINE
8
BLACK
6
CONTINUOUS
10
5.58668
20
-3.7083
11
5.58728
21
-3.7085
0
LINE
8
BLACK
6
CONTINUOUS
10
5.58728
20
-3.7085
11
5.60197
21
-3.72136
0
LINE
8
BLACK
6
CONTINUOUS
10
5.60197
20
-3.72136
11
5.60197
21
-3.7187
0
LINE
8
BLACK
6
CONTINUOUS
10
5.60197
20
-3.7187
11
5.60213
21
-3.71831
0
LINE
8
BLACK
6
CONTINUOUS
10
5.60213
20
-3.71831
11
5.60216
21
-3.71789
0
LINE
8
BLACK
6
CONTINUOUS
10
5.60216
20
-3.71789
11
5.60437
21
-3.71347
0
LINE
8
BLACK
6
CONTINUOUS
10
5.60437
20
-3.71347
11
5.60459
21
-3.71328
0
LINE
8
BLACK
6
CONTINUOUS
10
5.60459
20
-3.71328
11
5.6047
21
-3.713
0
LINE
8
BLACK
6
CONTINUOUS
10
5.6047
20
-3.713
11
5.60691
21
-3.71079
0
LINE
8
BLACK
6
CONTINUOUS
10
5.60691
20
-3.71079
11
5.60719
21
-3.71068
0
LINE
8
BLACK
6
CONTINUOUS
10
5.60719
20
-3.71068
11
5.60738
21
-3.71046
0
LINE
8
BLACK
6
CONTINUOUS
10
5.60738
20
-3.71046
11
5.6118
21
-3.70825
0
LINE
8
BLACK
6
CONTINUOUS
10
5.6118
20
-3.70825
11
5.61222
21
-3.70822
0
LINE
8
BLACK
6
CONTINUOUS
10
5.61222
20
-3.70822
11
5.6126
21
-3.70806
0
LINE
8
BLACK
6
CONTINUOUS
10
5.6126
20
-3.70806
11
5.62365
21
-3.70806
0
LINE
8
BLACK
6
CONTINUOUS
10
5.62365
20
-3.70806
11
5.62404
21
-3.70822
0
LINE
8
BLACK
6
CONTINUOUS
10
6.41609
20
-3.6846
11
6.41661
21
-3.68587
0
LINE
8
BLACK
6
CONTINUOUS
10
6.41661
20
-3.68587
11
6.41661
21
-3.72122
0
LINE
8
BLACK
6
CONTINUOUS
10
6.41661
20
-3.72122
11
6.41609
21
-3.72249
0
LINE
8
BLACK
6
CONTINUOUS
10
6.41609
20
-3.72249
11
6.41481
21
-3.72302
0
LINE
8
BLACK
6
CONTINUOUS
10
6.41481
20
-3.72302
11
6.41354
21
-3.72249
0
LINE
8
BLACK
6
CONTINUOUS
10
6.41354
20
-3.72249
11
6.41301
21
-3.72122
0
LINE
8
BLACK
6
CONTINUOUS
10
6.41301
20
-3.72122
11
6.41301
21
-3.68587
0
LINE
8
BLACK
6
CONTINUOUS
10
6.41301
20
-3.68587
11
6.41354
21
-3.6846
0
LINE
8
BLACK
6
CONTINUOUS
10
6.41354
20
-3.6846
11
6.41481
21
-3.68407
0
LINE
8
BLACK
6
CONTINUOUS
10
6.41481
20
-3.68407
11
6.41609
21
-3.6846
0
LINE
8
BLACK
6
CONTINUOUS
10
5.61609
20
-3.65335
11
5.61661
21
-3.65462
0
LINE
8
BLACK
6
CONTINUOUS
10
5.61661
20
-3.65462
11
5.61661
21
-3.68997
0
LINE
8
BLACK
6
CONTINUOUS
10
5.61661
20
-3.68997
11
5.61609
21
-3.69124
0
LINE
8
BLACK
6
CONTINUOUS
10
5.61609
20
-3.69124
11
5.61481
21
-3.69177
0
LINE
8
BLACK
6
CONTINUOUS
10
5.61481
20
-3.69177
11
5.61354
21
-3.69124
0
LINE
8
BLACK
6
CONTINUOUS
10
5.61354
20
-3.69124
11
5.61301
21
-3.68997
0
LINE
8
BLACK
6
CONTINUOUS
10
5.61301
20
-3.68997
11
5.61301
21
-3.65462
0
LINE
8
BLACK
6
CONTINUOUS
10
5.61301
20
-3.65462
11
5.61354
21
-3.65335
0
LINE
8
BLACK
6
CONTINUOUS
10
5.61354
20
-3.65335
11
5.61481
21
-3.65282
0
LINE
8
BLACK
6
CONTINUOUS
10
5.61481
20
-3.65282
11
5.61609
21
-3.65335
0
LINE
8
BLACK
6
CONTINUOUS
10
6.39962
20
-3.63778
11
6.39992
21
-3.63776
0
LINE
8
BLACK
6
CONTINUOUS
10
6.39992
20
-3.63776
11
6.40655
21
-3.63997
0
LINE
8
BLACK
6
CONTINUOUS
10
6.40655
20
-3.63997
11
6.40686
21
-3.64025
0
LINE
8
BLACK
6
CONTINUOUS
10
6.40686
20
-3.64025
11
6.40725
21
-3.64041
0
LINE
8
BLACK
6
CONTINUOUS
10
6.40725
20
-3.64041
11
6.43069
21
-3.66385
0
LINE
8
BLACK
6
CONTINUOUS
10
6.43069
20
-3.66385
11
6.43069
21
-3.63947
0
LINE
8
BLACK
6
CONTINUOUS
10
6.43069
20
-3.63947
11
6.43122
21
-3.6382
0
LINE
8
BLACK
6
CONTINUOUS
10
6.43122
20
-3.6382
11
6.43249
21
-3.63767
0
LINE
8
BLACK
6
CONTINUOUS
10
6.43249
20
-3.63767
11
6.43376
21
-3.6382
0
LINE
8
BLACK
6
CONTINUOUS
10
6.43376
20
-3.6382
11
6.43429
21
-3.63947
0
LINE
8
BLACK
6
CONTINUOUS
10
6.43429
20
-3.63947
11
6.43429
21
-3.66819
0
LINE
8
BLACK
6
CONTINUOUS
10
6.43429
20
-3.66819
11
6.43376
21
-3.66947
0
LINE
8
BLACK
6
CONTINUOUS
10
6.43376
20
-3.66947
11
6.43249
21
-3.66999
0
LINE
8
BLACK
6
CONTINUOUS
10
6.43249
20
-3.66999
11
6.43122
21
-3.66947
0
LINE
8
BLACK
6
CONTINUOUS
10
6.43122
20
-3.66947
11
6.405
21
-3.64325
0
LINE
8
BLACK
6
CONTINUOUS
10
6.405
20
-3.64325
11
6.39906
21
-3.64127
0
LINE
8
BLACK
6
CONTINUOUS
10
6.39906
20
-3.64127
11
6.39535
21
-3.64127
0
LINE
8
BLACK
6
CONTINUOUS
10
6.39535
20
-3.64127
11
6.39158
21
-3.64316
0
LINE
8
BLACK
6
CONTINUOUS
10
6.39158
20
-3.64316
11
6.38978
21
-3.64495
0
LINE
8
BLACK
6
CONTINUOUS
10
6.38978
20
-3.64495
11
6.38789
21
-3.64873
0
LINE
8
BLACK
6
CONTINUOUS
10
6.38789
20
-3.64873
11
6.38789
21
-3.65893
0
LINE
8
BLACK
6
CONTINUOUS
10
6.38789
20
-3.65893
11
6.38978
21
-3.66271
0
LINE
8
BLACK
6
CONTINUOUS
10
6.38978
20
-3.66271
11
6.39178
21
-3.66471
0
LINE
8
BLACK
6
CONTINUOUS
10
6.39178
20
-3.66471
11
6.39231
21
-3.66598
0
LINE
8
BLACK
6
CONTINUOUS
10
6.39231
20
-3.66598
11
6.39178
21
-3.66726
0
LINE
8
BLACK
6
CONTINUOUS
10
6.39178
20
-3.66726
11
6.39051
21
-3.66778
0
LINE
8
BLACK
6
CONTINUOUS
10
6.39051
20
-3.66778
11
6.38924
21
-3.66726
0
LINE
8
BLACK
6
CONTINUOUS
10
6.38924
20
-3.66726
11
6.38703
21
-3.66505
0
LINE
8
BLACK
6
CONTINUOUS
10
6.38703
20
-3.66505
11
6.38691
21
-3.66477
0
LINE
8
BLACK
6
CONTINUOUS
10
6.38691
20
-3.66477
11
6.38669
21
-3.66458
0
LINE
8
BLACK
6
CONTINUOUS
10
6.38669
20
-3.66458
11
6.38448
21
-3.66016
0
LINE
8
BLACK
6
CONTINUOUS
10
6.38448
20
-3.66016
11
6.38445
21
-3.65974
0
LINE
8
BLACK
6
CONTINUOUS
10
6.38445
20
-3.65974
11
6.38429
21
-3.65935
0
LINE
8
BLACK
6
CONTINUOUS
10
6.38429
20
-3.65935
11
6.38429
21
-3.64831
0
LINE
8
BLACK
6
CONTINUOUS
10
6.38429
20
-3.64831
11
6.38445
21
-3.64792
0
LINE
8
BLACK
6
CONTINUOUS
10
6.38445
20
-3.64792
11
6.38448
21
-3.6475
0
LINE
8
BLACK
6
CONTINUOUS
10
6.38448
20
-3.6475
11
6.38669
21
-3.64308
0
LINE
8
BLACK
6
CONTINUOUS
10
6.38669
20
-3.64308
11
6.38691
21
-3.64289
0
LINE
8
BLACK
6
CONTINUOUS
10
6.38691
20
-3.64289
11
6.38703
21
-3.64262
0
LINE
8
BLACK
6
CONTINUOUS
10
6.38703
20
-3.64262
11
6.38924
21
-3.64041
0
LINE
8
BLACK
6
CONTINUOUS
10
6.38924
20
-3.64041
11
6.38951
21
-3.64029
0
LINE
8
BLACK
6
CONTINUOUS
10
6.38951
20
-3.64029
11
6.3897
21
-3.64007
0
LINE
8
BLACK
6
CONTINUOUS
10
6.3897
20
-3.64007
11
6.39412
21
-3.63786
0
LINE
8
BLACK
6
CONTINUOUS
10
6.39412
20
-3.63786
11
6.39454
21
-3.63783
0
LINE
8
BLACK
6
CONTINUOUS
10
6.39454
20
-3.63783
11
6.39493
21
-3.63767
0
LINE
8
BLACK
6
CONTINUOUS
10
6.39493
20
-3.63767
11
6.39935
21
-3.63767
0
LINE
8
BLACK
6
CONTINUOUS
10
6.39935
20
-3.63767
11
6.39962
21
-3.63778
0
LINE
8
BLACK
6
CONTINUOUS
10
5.59962
20
-3.60653
11
5.59992
21
-3.60651
0
LINE
8
BLACK
6
CONTINUOUS
10
5.59992
20
-3.60651
11
5.60655
21
-3.60872
0
LINE
8
BLACK
6
CONTINUOUS
10
5.60655
20
-3.60872
11
5.60686
21
-3.609
0
LINE
8
BLACK
6
CONTINUOUS
10
5.60686
20
-3.609
11
5.60725
21
-3.60916
0
LINE
8
BLACK
6
CONTINUOUS
10
5.60725
20
-3.60916
11
5.63069
21
-3.6326
0
LINE
8
BLACK
6
CONTINUOUS
10
5.63069
20
-3.6326
11
5.63069
21
-3.60822
0
LINE
8
BLACK
6
CONTINUOUS
10
5.63069
20
-3.60822
11
5.63122
21
-3.60695
0
LINE
8
BLACK
6
CONTINUOUS
10
5.63122
20
-3.60695
11
5.63249
21
-3.60642
0
LINE
8
BLACK
6
CONTINUOUS
10
5.63249
20
-3.60642
11
5.63376
21
-3.60695
0
LINE
8
BLACK
6
CONTINUOUS
10
5.63376
20
-3.60695
11
5.63429
21
-3.60822
0
LINE
8
BLACK
6
CONTINUOUS
10
5.63429
20
-3.60822
11
5.63429
21
-3.63694
0
LINE
8
BLACK
6
CONTINUOUS
10
5.63429
20
-3.63694
11
5.63376
21
-3.63822
0
LINE
8
BLACK
6
CONTINUOUS
10
5.63376
20
-3.63822
11
5.63249
21
-3.63874
0
LINE
8
BLACK
6
CONTINUOUS
10
5.63249
20
-3.63874
11
5.63122
21
-3.63822
0
LINE
8
BLACK
6
CONTINUOUS
10
5.63122
20
-3.63822
11
5.605
21
-3.612
0
LINE
8
BLACK
6
CONTINUOUS
10
5.605
20
-3.612
11
5.59906
21
-3.61002
0
LINE
8
BLACK
6
CONTINUOUS
10
5.59906
20
-3.61002
11
5.59535
21
-3.61002
0
LINE
8
BLACK
6
CONTINUOUS
10
5.59535
20
-3.61002
11
5.59158
21
-3.61191
0
LINE
8
BLACK
6
CONTINUOUS
10
5.59158
20
-3.61191
11
5.58978
21
-3.6137
0
LINE
8
BLACK
6
CONTINUOUS
10
5.58978
20
-3.6137
11
5.58789
21
-3.61748
0
LINE
8
BLACK
6
CONTINUOUS
10
5.58789
20
-3.61748
11
5.58789
21
-3.62768
0
LINE
8
BLACK
6
CONTINUOUS
10
5.58789
20
-3.62768
11
5.58978
21
-3.63146
0
LINE
8
BLACK
6
CONTINUOUS
10
5.58978
20
-3.63146
11
5.59178
21
-3.63346
0
LINE
8
BLACK
6
CONTINUOUS
10
5.59178
20
-3.63346
11
5.59231
21
-3.63473
0
LINE
8
BLACK
6
CONTINUOUS
10
5.59231
20
-3.63473
11
5.59178
21
-3.63601
0
LINE
8
BLACK
6
CONTINUOUS
10
5.59178
20
-3.63601
11
5.59051
21
-3.63653
0
LINE
8
BLACK
6
CONTINUOUS
10
5.59051
20
-3.63653
11
5.58924
21
-3.63601
0
LINE
8
BLACK
6
CONTINUOUS
10
5.58924
20
-3.63601
11
5.58703
21
-3.6338
0
LINE
8
BLACK
6
CONTINUOUS
10
5.58703
20
-3.6338
11
5.58691
21
-3.63352
0
LINE
8
BLACK
6
CONTINUOUS
10
5.58691
20
-3.63352
11
5.58669
21
-3.63333
0
LINE
8
BLACK
6
CONTINUOUS
10
5.58669
20
-3.63333
11
5.58448
21
-3.62891
0
LINE
8
BLACK
6
CONTINUOUS
10
5.58448
20
-3.62891
11
5.58445
21
-3.62849
0
LINE
8
BLACK
6
CONTINUOUS
10
5.58445
20
-3.62849
11
5.58429
21
-3.6281
0
LINE
8
BLACK
6
CONTINUOUS
10
5.58429
20
-3.6281
11
5.58429
21
-3.61706
0
LINE
8
BLACK
6
CONTINUOUS
10
5.58429
20
-3.61706
11
5.58445
21
-3.61667
0
LINE
8
BLACK
6
CONTINUOUS
10
5.58445
20
-3.61667
11
5.58448
21
-3.61625
0
LINE
8
BLACK
6
CONTINUOUS
10
5.58448
20
-3.61625
11
5.58669
21
-3.61183
0
LINE
8
BLACK
6
CONTINUOUS
10
5.58669
20
-3.61183
11
5.58691
21
-3.61164
0
LINE
8
BLACK
6
CONTINUOUS
10
5.58691
20
-3.61164
11
5.58703
21
-3.61137
0
LINE
8
BLACK
6
CONTINUOUS
10
5.58703
20
-3.61137
11
5.58924
21
-3.60916
0
LINE
8
BLACK
6
CONTINUOUS
10
5.58924
20
-3.60916
11
5.58951
21
-3.60904
0
LINE
8
BLACK
6
CONTINUOUS
10
5.58951
20
-3.60904
11
5.5897
21
-3.60882
0
LINE
8
BLACK
6
CONTINUOUS
10
5.5897
20
-3.60882
11
5.59412
21
-3.60661
0
LINE
8
BLACK
6
CONTINUOUS
10
5.59412
20
-3.60661
11
5.59454
21
-3.60658
0
LINE
8
BLACK
6
CONTINUOUS
10
5.59454
20
-3.60658
11
5.59493
21
-3.60642
0
LINE
8
BLACK
6
CONTINUOUS
10
5.59493
20
-3.60642
11
5.59935
21
-3.60642
0
LINE
8
BLACK
6
CONTINUOUS
10
5.59935
20
-3.60642
11
5.59962
21
-3.60653
0
LINE
8
BLACK
6
CONTINUOUS
10
5.9565
20
-3.594
11
5.9365
21
-3.594
0
LINE
8
BLACK
6
CONTINUOUS
10
5.9365
20
-3.594
11
5.9365
21
-3.574
0
LINE
8
BLACK
6
CONTINUOUS
10
5.9365
20
-3.574
11
5.9565
21
-3.574
0
LINE
8
BLACK
6
CONTINUOUS
10
5.9565
20
-3.574
11
5.9565
21
-3.594
0
LINE
8
BLACK
6
CONTINUOUS
10
6.0565
20
-3.594
11
6.0365
21
-3.594
0
LINE
8
BLACK
6
CONTINUOUS
10
6.0365
20
-3.594
11
6.0365
21
-3.574
0
LINE
8
BLACK
6
CONTINUOUS
10
6.0365
20
-3.574
11
6.0565
21
-3.574
0
LINE
8
BLACK
6
CONTINUOUS
10
6.0565
20
-3.574
11
6.0565
21
-3.594
0
LINE
8
BLACK
6
CONTINUOUS
10
5.6565
20
-3.594
11
5.6365
21
-3.594
0
LINE
8
BLACK
6
CONTINUOUS
10
5.6365
20
-3.594
11
5.6365
21
-3.574
0
LINE
8
BLACK
6
CONTINUOUS
10
5.6365
20
-3.574
11
5.6565
21
-3.574
0
LINE
8
BLACK
6
CONTINUOUS
10
5.6565
20
-3.574
11
5.6565
21
-3.594
0
LINE
8
BLACK
6
CONTINUOUS
10
5.7565
20
-3.594
11
5.7365
21
-3.594
0
LINE
8
BLACK
6
CONTINUOUS
10
5.7365
20
-3.594
11
5.7365
21
-3.574
0
LINE
8
BLACK
6
CONTINUOUS
10
5.7365
20
-3.574
11
5.7565
21
-3.574
0
LINE
8
BLACK
6
CONTINUOUS
10
5.7565
20
-3.574
11
5.7565
21
-3.594
0
LINE
8
BLACK
6
CONTINUOUS
10
5.8565
20
-3.594
11
5.8365
21
-3.594
0
LINE
8
BLACK
6
CONTINUOUS
10
5.8365
20
-3.594
11
5.8365
21
-3.574
0
LINE
8
BLACK
6
CONTINUOUS
10
5.8365
20
-3.574
11
5.8565
21
-3.574
0
LINE
8
BLACK
6
CONTINUOUS
10
5.8565
20
-3.574
11
5.8565
21
-3.594
0
LINE
8
BLACK
6
CONTINUOUS
10
5.8565
20
-3.494
11
5.8365
21
-3.494
0
LINE
8
BLACK
6
CONTINUOUS
10
5.8365
20
-3.494
11
5.8365
21
-3.474
0
LINE
8
BLACK
6
CONTINUOUS
10
5.8365
20
-3.474
11
5.8565
21
-3.474
0
LINE
8
BLACK
6
CONTINUOUS
10
5.8565
20
-3.474
11
5.8565
21
-3.494
0
LINE
8
BLACK
6
CONTINUOUS
10
6.0565
20
-3.494
11
6.0365
21
-3.494
0
LINE
8
BLACK
6
CONTINUOUS
10
6.0365
20
-3.494
11
6.0365
21
-3.474
0
LINE
8
BLACK
6
CONTINUOUS
10
6.0365
20
-3.474
11
6.0565
21
-3.474
0
LINE
8
BLACK
6
CONTINUOUS
10
6.0565
20
-3.474
11
6.0565
21
-3.494
0
LINE
8
BLACK
6
CONTINUOUS
10
5.9565
20
-3.494
11
5.9365
21
-3.494
0
LINE
8
BLACK
6
CONTINUOUS
10
5.9365
20
-3.494
11
5.9365
21
-3.474
0
LINE
8
BLACK
6
CONTINUOUS
10
5.9365
20
-3.474
11
5.9565
21
-3.474
0
LINE
8
BLACK
6
CONTINUOUS
10
5.9565
20
-3.474
11
5.9565
21
-3.494
0
LINE
8
BLACK
6
CONTINUOUS
10
5.7565
20
-3.494
11
5.7365
21
-3.494
0
LINE
8
BLACK
6
CONTINUOUS
10
5.7365
20
-3.494
11
5.7365
21
-3.474
0
LINE
8
BLACK
6
CONTINUOUS
10
5.7365
20
-3.474
11
5.7565
21
-3.474
0
LINE
8
BLACK
6
CONTINUOUS
10
5.7565
20
-3.474
11
5.7565
21
-3.494
0
LINE
8
BLACK
6
CONTINUOUS
10
5.6565
20
-3.494
11
5.6365
21
-3.494
0
LINE
8
BLACK
6
CONTINUOUS
10
5.6365
20
-3.494
11
5.6365
21
-3.474
0
LINE
8
BLACK
6
CONTINUOUS
10
5.6365
20
-3.474
11
5.6565
21
-3.474
0
LINE
8
BLACK
6
CONTINUOUS
10
5.6565
20
-3.474
11
5.6565
21
-3.494
0
LINE
8
BLACK
6
CONTINUOUS
10
5.67937
20
-3.34195
11
5.67979
21
-3.34198
0
LINE
8
BLACK
6
CONTINUOUS
10
5.67979
20
-3.34198
11
5.68421
21
-3.34419
0
LINE
8
BLACK
6
CONTINUOUS
10
5.68421
20
-3.34419
11
5.6844
21
-3.34441
0
LINE
8
BLACK
6
CONTINUOUS
10
5.6844
20
-3.34441
11
5.68468
21
-3.34453
0
LINE
8
BLACK
6
CONTINUOUS
10
5.68468
20
-3.34453
11
5.68689
21
-3.34674
0
LINE
8
BLACK
6
CONTINUOUS
10
5.68689
20
-3.34674
11
5.687
21
-3.34701
0
LINE
8
BLACK
6
CONTINUOUS
10
5.687
20
-3.34701
11
5.68722
21
-3.3472
0
LINE
8
BLACK
6
CONTINUOUS
10
5.68722
20
-3.3472
11
5.68943
21
-3.35162
0
LINE
8
BLACK
6
CONTINUOUS
10
5.68943
20
-3.35162
11
5.68945
21
-3.35183
0
LINE
8
BLACK
6
CONTINUOUS
10
5.68945
20
-3.35183
11
5.68957
21
-3.35199
0
LINE
8
BLACK
6
CONTINUOUS
10
5.68957
20
-3.35199
11
5.69178
21
-3.36083
0
LINE
8
BLACK
6
CONTINUOUS
10
5.69178
20
-3.36083
11
5.69175
21
-3.36106
0
LINE
8
BLACK
6
CONTINUOUS
10
5.69175
20
-3.36106
11
5.69183
21
-3.36127
0
LINE
8
BLACK
6
CONTINUOUS
10
5.69183
20
-3.36127
11
5.69183
21
-3.37231
0
LINE
8
BLACK
6
CONTINUOUS
10
5.69183
20
-3.37231
11
5.69175
21
-3.37253
0
LINE
8
BLACK
6
CONTINUOUS
10
5.69175
20
-3.37253
11
5.69178
21
-3.37275
0
LINE
8
BLACK
6
CONTINUOUS
10
5.69178
20
-3.37275
11
5.68957
21
-3.38159
0
LINE
8
BLACK
6
CONTINUOUS
10
5.68957
20
-3.38159
11
5.68945
21
-3.38175
0
LINE
8
BLACK
6
CONTINUOUS
10
5.68945
20
-3.38175
11
5.68943
21
-3.38196
0
LINE
8
BLACK
6
CONTINUOUS
10
5.68943
20
-3.38196
11
5.68722
21
-3.38638
0
LINE
8
BLACK
6
CONTINUOUS
10
5.68722
20
-3.38638
11
5.687
21
-3.38657
0
LINE
8
BLACK
6
CONTINUOUS
10
5.687
20
-3.38657
11
5.68689
21
-3.38684
0
LINE
8
BLACK
6
CONTINUOUS
10
5.68689
20
-3.38684
11
5.68468
21
-3.38905
0
LINE
8
BLACK
6
CONTINUOUS
10
5.68468
20
-3.38905
11
5.6844
21
-3.38917
0
LINE
8
BLACK
6
CONTINUOUS
10
5.6844
20
-3.38917
11
5.68421
21
-3.38939
0
LINE
8
BLACK
6
CONTINUOUS
10
5.68421
20
-3.38939
11
5.67979
21
-3.3916
0
LINE
8
BLACK
6
CONTINUOUS
10
5.67979
20
-3.3916
11
5.67937
21
-3.39163
0
LINE
8
BLACK
6
CONTINUOUS
10
5.67937
20
-3.39163
11
5.67899
21
-3.39179
0
LINE
8
BLACK
6
CONTINUOUS
10
5.67899
20
-3.39179
11
5.67457
21
-3.39179
0
LINE
8
BLACK
6
CONTINUOUS
10
5.67457
20
-3.39179
11
5.67418
21
-3.39163
0
LINE
8
BLACK
6
CONTINUOUS
10
5.67418
20
-3.39163
11
5.67376
21
-3.3916
0
LINE
8
BLACK
6
CONTINUOUS
10
5.67376
20
-3.3916
11
5.66934
21
-3.38939
0
LINE
8
BLACK
6
CONTINUOUS
10
5.66934
20
-3.38939
11
5.66915
21
-3.38917
0
LINE
8
BLACK
6
CONTINUOUS
10
5.66915
20
-3.38917
11
5.66887
21
-3.38905
0
LINE
8
BLACK
6
CONTINUOUS
10
5.66887
20
-3.38905
11
5.66667
21
-3.38684
0
LINE
8
BLACK
6
CONTINUOUS
10
5.66667
20
-3.38684
11
5.66655
21
-3.38657
0
LINE
8
BLACK
6
CONTINUOUS
10
5.66655
20
-3.38657
11
5.66633
21
-3.38638
0
LINE
8
BLACK
6
CONTINUOUS
10
5.66633
20
-3.38638
11
5.66412
21
-3.38196
0
LINE
8
BLACK
6
CONTINUOUS
10
5.66412
20
-3.38196
11
5.6641
21
-3.38175
0
LINE
8
BLACK
6
CONTINUOUS
10
5.6641
20
-3.38175
11
5.66398
21
-3.38159
0
LINE
8
BLACK
6
CONTINUOUS
10
5.66398
20
-3.38159
11
5.66177
21
-3.37275
0
LINE
8
BLACK
6
CONTINUOUS
10
5.66177
20
-3.37275
11
5.66181
21
-3.37253
0
LINE
8
BLACK
6
CONTINUOUS
10
5.66181
20
-3.37253
11
5.66172
21
-3.37231
0
LINE
8
BLACK
6
CONTINUOUS
10
5.66172
20
-3.37231
11
5.66172
21
-3.36127
0
LINE
8
BLACK
6
CONTINUOUS
10
5.66172
20
-3.36127
11
5.66181
21
-3.36106
0
LINE
8
BLACK
6
CONTINUOUS
10
5.66181
20
-3.36106
11
5.66177
21
-3.36083
0
LINE
8
BLACK
6
CONTINUOUS
10
5.66177
20
-3.36083
11
5.66398
21
-3.35199
0
LINE
8
BLACK
6
CONTINUOUS
10
5.66398
20
-3.35199
11
5.6641
21
-3.35183
0
LINE
8
BLACK
6
CONTINUOUS
10
5.6641
20
-3.35183
11
5.66412
21
-3.35162
0
LINE
8
BLACK
6
CONTINUOUS
10
5.66412
20
-3.35162
11
5.66633
21
-3.3472
0
LINE
8
BLACK
6
CONTINUOUS
10
5.66633
20
-3.3472
11
5.66655
21
-3.34701
0
LINE
8
BLACK
6
CONTINUOUS
10
5.66655
20
-3.34701
11
5.66667
21
-3.34674
0
LINE
8
BLACK
6
CONTINUOUS
10
5.66667
20
-3.34674
11
5.66887
21
-3.34453
0
LINE
8
BLACK
6
CONTINUOUS
10
5.66887
20
-3.34453
11
5.66915
21
-3.34441
0
LINE
8
BLACK
6
CONTINUOUS
10
5.66915
20
-3.34441
11
5.66934
21
-3.34419
0
LINE
8
BLACK
6
CONTINUOUS
10
5.66934
20
-3.34419
11
5.67376
21
-3.34198
0
LINE
8
BLACK
6
CONTINUOUS
10
5.67376
20
-3.34198
11
5.67418
21
-3.34195
0
LINE
8
BLACK
6
CONTINUOUS
10
5.67418
20
-3.34195
11
5.67457
21
-3.34179
0
LINE
8
BLACK
6
CONTINUOUS
10
5.67457
20
-3.34179
11
5.67899
21
-3.34179
0
LINE
8
BLACK
6
CONTINUOUS
10
5.67899
20
-3.34179
11
5.67937
21
-3.34195
0
LINE
8
BLACK
6
CONTINUOUS
10
5.67499
20
-3.34539
11
5.67121
21
-3.34728
0
LINE
8
BLACK
6
CONTINUOUS
10
5.67121
20
-3.34728
11
5.66942
21
-3.34908
0
LINE
8
BLACK
6
CONTINUOUS
10
5.66942
20
-3.34908
11
5.66743
21
-3.35306
0
LINE
8
BLACK
6
CONTINUOUS
10
5.66743
20
-3.35306
11
5.66532
21
-3.36149
0
LINE
8
BLACK
6
CONTINUOUS
10
5.66532
20
-3.36149
11
5.66532
21
-3.37209
0
LINE
8
BLACK
6
CONTINUOUS
10
5.66532
20
-3.37209
11
5.66743
21
-3.38052
0
LINE
8
BLACK
6
CONTINUOUS
10
5.66743
20
-3.38052
11
5.66942
21
-3.38451
0
LINE
8
BLACK
6
CONTINUOUS
10
5.66942
20
-3.38451
11
5.67121
21
-3.3863
0
LINE
8
BLACK
6
CONTINUOUS
10
5.67121
20
-3.3863
11
5.67499
21
-3.38819
0
LINE
8
BLACK
6
CONTINUOUS
10
5.67499
20
-3.38819
11
5.67856
21
-3.38819
0
LINE
8
BLACK
6
CONTINUOUS
10
5.67856
20
-3.38819
11
5.68234
21
-3.3863
0
LINE
8
BLACK
6
CONTINUOUS
10
5.68234
20
-3.3863
11
5.68413
21
-3.38451
0
LINE
8
BLACK
6
CONTINUOUS
10
5.68413
20
-3.38451
11
5.68613
21
-3.38052
0
LINE
8
BLACK
6
CONTINUOUS
10
5.68613
20
-3.38052
11
5.68823
21
-3.37209
0
LINE
8
BLACK
6
CONTINUOUS
10
5.68823
20
-3.37209
11
5.68823
21
-3.36149
0
LINE
8
BLACK
6
CONTINUOUS
10
5.68823
20
-3.36149
11
5.68613
21
-3.35306
0
LINE
8
BLACK
6
CONTINUOUS
10
5.68613
20
-3.35306
11
5.68413
21
-3.34908
0
LINE
8
BLACK
6
CONTINUOUS
10
5.68413
20
-3.34908
11
5.68234
21
-3.34728
0
LINE
8
BLACK
6
CONTINUOUS
10
5.68234
20
-3.34728
11
5.67856
21
-3.34539
0
LINE
8
BLACK
6
CONTINUOUS
10
5.67856
20
-3.34539
11
5.67499
21
-3.34539
0
LINE
8
BLACK
6
CONTINUOUS
10
5.60423
20
-3.34194
11
5.60462
21
-3.34196
0
LINE
8
BLACK
6
CONTINUOUS
10
5.60462
20
-3.34196
11
5.60484
21
-3.3422
0
LINE
8
BLACK
6
CONTINUOUS
10
5.60484
20
-3.3422
11
5.60513
21
-3.34232
0
LINE
8
BLACK
6
CONTINUOUS
10
5.60513
20
-3.34232
11
5.60529
21
-3.34268
0
LINE
8
BLACK
6
CONTINUOUS
10
5.60529
20
-3.34268
11
5.60555
21
-3.34298
0
LINE
8
BLACK
6
CONTINUOUS
10
5.60555
20
-3.34298
11
5.60554
21
-3.34329
0
LINE
8
BLACK
6
CONTINUOUS
10
5.60554
20
-3.34329
11
5.60566
21
-3.34359
0
LINE
8
BLACK
6
CONTINUOUS
10
5.60566
20
-3.34359
11
5.60566
21
-3.38999
0
LINE
8
BLACK
6
CONTINUOUS
10
5.60566
20
-3.38999
11
5.60513
21
-3.39126
0
LINE
8
BLACK
6
CONTINUOUS
10
5.60513
20
-3.39126
11
5.60386
21
-3.39179
0
LINE
8
BLACK
6
CONTINUOUS
10
5.60386
20
-3.39179
11
5.60259
21
-3.39126
0
LINE
8
BLACK
6
CONTINUOUS
10
5.60259
20
-3.39126
11
5.60206
21
-3.38999
0
LINE
8
BLACK
6
CONTINUOUS
10
5.60206
20
-3.38999
11
5.60206
21
-3.3517
0
LINE
8
BLACK
6
CONTINUOUS
10
5.60206
20
-3.3517
11
5.59003
21
-3.37749
0
LINE
8
BLACK
6
CONTINUOUS
10
5.59003
20
-3.37749
11
5.58957
21
-3.37791
0
LINE
8
BLACK
6
CONTINUOUS
10
5.58957
20
-3.37791
11
5.58916
21
-3.37836
0
LINE
8
BLACK
6
CONTINUOUS
10
5.58916
20
-3.37836
11
5.58907
21
-3.37837
0
LINE
8
BLACK
6
CONTINUOUS
10
5.58907
20
-3.37837
11
5.58901
21
-3.37842
0
LINE
8
BLACK
6
CONTINUOUS
10
5.58901
20
-3.37842
11
5.5884
21
-3.3784
0
LINE
8
BLACK
6
CONTINUOUS
10
5.5884
20
-3.3784
11
5.58778
21
-3.37842
0
LINE
8
BLACK
6
CONTINUOUS
10
5.58778
20
-3.37842
11
5.58772
21
-3.37837
0
LINE
8
BLACK
6
CONTINUOUS
10
5.58772
20
-3.37837
11
5.58763
21
-3.37836
0
LINE
8
BLACK
6
CONTINUOUS
10
5.58763
20
-3.37836
11
5.58722
21
-3.37791
0
LINE
8
BLACK
6
CONTINUOUS
10
5.58722
20
-3.37791
11
5.58676
21
-3.37749
0
LINE
8
BLACK
6
CONTINUOUS
10
5.58676
20
-3.37749
11
5.57473
21
-3.3517
0
LINE
8
BLACK
6
CONTINUOUS
10
5.57473
20
-3.3517
11
5.57473
21
-3.38999
0
LINE
8
BLACK
6
CONTINUOUS
10
5.57473
20
-3.38999
11
5.5742
21
-3.39126
0
LINE
8
BLACK
6
CONTINUOUS
10
5.5742
20
-3.39126
11
5.57293
21
-3.39179
0
LINE
8
BLACK
6
CONTINUOUS
10
5.57293
20
-3.39179
11
5.57166
21
-3.39126
0
LINE
8
BLACK
6
CONTINUOUS
10
5.57166
20
-3.39126
11
5.57113
21
-3.38999
0
LINE
8
BLACK
6
CONTINUOUS
10
5.57113
20
-3.38999
11
5.57113
21
-3.34359
0
LINE
8
BLACK
6
CONTINUOUS
10
5.57113
20
-3.34359
11
5.57125
21
-3.34329
0
LINE
8
BLACK
6
CONTINUOUS
10
5.57125
20
-3.34329
11
5.57124
21
-3.34298
0
LINE
8
BLACK
6
CONTINUOUS
10
5.57124
20
-3.34298
11
5.5715
21
-3.34268
0
LINE
8
BLACK
6
CONTINUOUS
10
5.5715
20
-3.34268
11
5.57166
21
-3.34232
0
LINE
8
BLACK
6
CONTINUOUS
10
5.57166
20
-3.34232
11
5.57195
21
-3.3422
0
LINE
8
BLACK
6
CONTINUOUS
10
5.57195
20
-3.3422
11
5.57217
21
-3.34196
0
LINE
8
BLACK
6
CONTINUOUS
10
5.57217
20
-3.34196
11
5.57256
21
-3.34194
0
LINE
8
BLACK
6
CONTINUOUS
10
5.57256
20
-3.34194
11
5.57293
21
-3.34179
0
LINE
8
BLACK
6
CONTINUOUS
10
5.57293
20
-3.34179
11
5.57322
21
-3.34191
0
LINE
8
BLACK
6
CONTINUOUS
10
5.57322
20
-3.34191
11
5.57354
21
-3.3419
0
LINE
8
BLACK
6
CONTINUOUS
10
5.57354
20
-3.3419
11
5.57384
21
-3.34217
0
LINE
8
BLACK
6
CONTINUOUS
10
5.57384
20
-3.34217
11
5.5742
21
-3.34232
0
LINE
8
BLACK
6
CONTINUOUS
10
5.5742
20
-3.34232
11
5.57432
21
-3.34261
0
LINE
8
BLACK
6
CONTINUOUS
10
5.57432
20
-3.34261
11
5.57456
21
-3.34283
0
LINE
8
BLACK
6
CONTINUOUS
10
5.57456
20
-3.34283
11
5.5884
21
-3.37248
0
LINE
8
BLACK
6
CONTINUOUS
10
5.5884
20
-3.37248
11
5.60223
21
-3.34283
0
LINE
8
BLACK
6
CONTINUOUS
10
5.60223
20
-3.34283
11
5.60247
21
-3.34261
0
LINE
8
BLACK
6
CONTINUOUS
10
5.60247
20
-3.34261
11
5.60259
21
-3.34232
0
LINE
8
BLACK
6
CONTINUOUS
10
5.60259
20
-3.34232
11
5.60295
21
-3.34217
0
LINE
8
BLACK
6
CONTINUOUS
10
5.60295
20
-3.34217
11
5.60325
21
-3.3419
0
LINE
8
BLACK
6
CONTINUOUS
10
5.60325
20
-3.3419
11
5.60357
21
-3.34191
0
LINE
8
BLACK
6
CONTINUOUS
10
5.60357
20
-3.34191
11
5.60386
21
-3.34179
0
LINE
8
BLACK
6
CONTINUOUS
10
5.60386
20
-3.34179
11
5.60423
21
-3.34194
0
LINE
8
BLACK
6
CONTINUOUS
10
5.82741
20
-3.34195
11
5.82783
21
-3.34198
0
LINE
8
BLACK
6
CONTINUOUS
10
5.82783
20
-3.34198
11
5.83225
21
-3.34419
0
LINE
8
BLACK
6
CONTINUOUS
10
5.83225
20
-3.34419
11
5.83244
21
-3.34441
0
LINE
8
BLACK
6
CONTINUOUS
10
5.83244
20
-3.34441
11
5.83272
21
-3.34453
0
LINE
8
BLACK
6
CONTINUOUS
10
5.83272
20
-3.34453
11
5.83493
21
-3.34674
0
LINE
8
BLACK
6
CONTINUOUS
10
5.83493
20
-3.34674
11
5.83504
21
-3.34701
0
LINE
8
BLACK
6
CONTINUOUS
10
5.83504
20
-3.34701
11
5.83526
21
-3.3472
0
LINE
8
BLACK
6
CONTINUOUS
10
5.83526
20
-3.3472
11
5.83747
21
-3.35162
0
LINE
8
BLACK
6
CONTINUOUS
10
5.83747
20
-3.35162
11
5.8375
21
-3.35204
0
LINE
8
BLACK
6
CONTINUOUS
10
5.8375
20
-3.35204
11
5.83766
21
-3.35243
0
LINE
8
BLACK
6
CONTINUOUS
10
5.83766
20
-3.35243
11
5.83766
21
-3.35685
0
LINE
8
BLACK
6
CONTINUOUS
10
5.83766
20
-3.35685
11
5.83755
21
-3.35712
0
LINE
8
BLACK
6
CONTINUOUS
10
5.83755
20
-3.35712
11
5.83757
21
-3.35742
0
LINE
8
BLACK
6
CONTINUOUS
10
5.83757
20
-3.35742
11
5.83536
21
-3.36405
0
LINE
8
BLACK
6
CONTINUOUS
10
5.83536
20
-3.36405
11
5.83509
21
-3.36436
0
LINE
8
BLACK
6
CONTINUOUS
10
5.83509
20
-3.36436
11
5.83493
21
-3.36475
0
LINE
8
BLACK
6
CONTINUOUS
10
5.83493
20
-3.36475
11
5.81148
21
-3.38819
0
LINE
8
BLACK
6
CONTINUOUS
10
5.81148
20
-3.38819
11
5.83586
21
-3.38819
0
LINE
8
BLACK
6
CONTINUOUS
10
5.83586
20
-3.38819
11
5.83713
21
-3.38872
0
LINE
8
BLACK
6
CONTINUOUS
10
5.83713
20
-3.38872
11
5.83766
21
-3.38999
0
LINE
8
BLACK
6
CONTINUOUS
10
5.83766
20
-3.38999
11
5.83713
21
-3.39126
0
LINE
8
BLACK
6
CONTINUOUS
10
5.83713
20
-3.39126
11
5.83586
21
-3.39179
0
LINE
8
BLACK
6
CONTINUOUS
10
5.83586
20
-3.39179
11
5.80714
21
-3.39179
0
LINE
8
BLACK
6
CONTINUOUS
10
5.80714
20
-3.39179
11
5.80587
21
-3.39126
0
LINE
8
BLACK
6
CONTINUOUS
10
5.80587
20
-3.39126
11
5.80534
21
-3.38999
0
LINE
8
BLACK
6
CONTINUOUS
10
5.80534
20
-3.38999
11
5.80587
21
-3.38872
0
LINE
8
BLACK
6
CONTINUOUS
10
5.80587
20
-3.38872
11
5.83208
21
-3.3625
0
LINE
8
BLACK
6
CONTINUOUS
10
5.83208
20
-3.3625
11
5.83406
21
-3.35656
0
LINE
8
BLACK
6
CONTINUOUS
10
5.83406
20
-3.35656
11
5.83406
21
-3.35285
0
LINE
8
BLACK
6
CONTINUOUS
10
5.83406
20
-3.35285
11
5.83217
21
-3.34908
0
LINE
8
BLACK
6
CONTINUOUS
10
5.83217
20
-3.34908
11
5.83038
21
-3.34728
0
LINE
8
BLACK
6
CONTINUOUS
10
5.83038
20
-3.34728
11
5.8266
21
-3.34539
0
LINE
8
BLACK
6
CONTINUOUS
10
5.8266
20
-3.34539
11
5.8164
21
-3.34539
0
LINE
8
BLACK
6
CONTINUOUS
10
5.8164
20
-3.34539
11
5.81262
21
-3.34728
0
LINE
8
BLACK
6
CONTINUOUS
10
5.81262
20
-3.34728
11
5.81062
21
-3.34928
0
LINE
8
BLACK
6
CONTINUOUS
10
5.81062
20
-3.34928
11
5.80935
21
-3.34981
0
LINE
8
BLACK
6
CONTINUOUS
10
5.80935
20
-3.34981
11
5.80807
21
-3.34928
0
LINE
8
BLACK
6
CONTINUOUS
10
5.80807
20
-3.34928
11
5.80755
21
-3.34801
0
LINE
8
BLACK
6
CONTINUOUS
10
5.80755
20
-3.34801
11
5.80807
21
-3.34674
0
LINE
8
BLACK
6
CONTINUOUS
10
5.80807
20
-3.34674
11
5.81028
21
-3.34453
0
LINE
8
BLACK
6
CONTINUOUS
10
5.81028
20
-3.34453
11
5.81056
21
-3.34441
0
LINE
8
BLACK
6
CONTINUOUS
10
5.81056
20
-3.34441
11
5.81075
21
-3.34419
0
LINE
8
BLACK
6
CONTINUOUS
10
5.81075
20
-3.34419
11
5.81517
21
-3.34198
0
LINE
8
BLACK
6
CONTINUOUS
10
5.81517
20
-3.34198
11
5.81559
21
-3.34195
0
LINE
8
BLACK
6
CONTINUOUS
10
5.81559
20
-3.34195
11
5.81598
21
-3.34179
0
LINE
8
BLACK
6
CONTINUOUS
10
5.81598
20
-3.34179
11
5.82702
21
-3.34179
0
LINE
8
BLACK
6
CONTINUOUS
10
5.82702
20
-3.34179
11
5.82741
21
-3.34195
0
LINE
8
BLACK
6
CONTINUOUS
10
5.73329
20
-3.34232
11
5.73381
21
-3.34359
0
LINE
8
BLACK
6
CONTINUOUS
10
5.73381
20
-3.34359
11
5.73329
21
-3.34486
0
LINE
8
BLACK
6
CONTINUOUS
10
5.73329
20
-3.34486
11
5.73201
21
-3.34539
0
LINE
8
BLACK
6
CONTINUOUS
10
5.73201
20
-3.34539
11
5.71155
21
-3.34539
0
LINE
8
BLACK
6
CONTINUOUS
10
5.71155
20
-3.34539
11
5.70994
21
-3.36145
0
LINE
8
BLACK
6
CONTINUOUS
10
5.70994
20
-3.36145
11
5.71353
21
-3.35966
0
LINE
8
BLACK
6
CONTINUOUS
10
5.71353
20
-3.35966
11
5.71395
21
-3.35963
0
LINE
8
BLACK
6
CONTINUOUS
10
5.71395
20
-3.35963
11
5.71434
21
-3.35947
0
LINE
8
BLACK
6
CONTINUOUS
10
5.71434
20
-3.35947
11
5.72539
21
-3.35947
0
LINE
8
BLACK
6
CONTINUOUS
10
5.72539
20
-3.35947
11
5.72577
21
-3.35963
0
LINE
8
BLACK
6
CONTINUOUS
10
5.72577
20
-3.35963
11
5.72619
21
-3.35966
0
LINE
8
BLACK
6
CONTINUOUS
10
5.72619
20
-3.35966
11
5.73061
21
-3.36187
0
LINE
8
BLACK
6
CONTINUOUS
10
5.73061
20
-3.36187
11
5.7308
21
-3.36209
0
LINE
8
BLACK
6
CONTINUOUS
10
5.7308
20
-3.36209
11
5.73108
21
-3.3622
0
LINE
8
BLACK
6
CONTINUOUS
10
5.73108
20
-3.3622
11
5.73329
21
-3.36441
0
LINE
8
BLACK
6
CONTINUOUS
10
5.73329
20
-3.36441
11
5.7334
21
-3.36469
0
LINE
8
BLACK
6
CONTINUOUS
10
5.7334
20
-3.36469
11
5.73362
21
-3.36488
0
LINE
8
BLACK
6
CONTINUOUS
10
5.73362
20
-3.36488
11
5.73583
21
-3.3693
0
LINE
8
BLACK
6
CONTINUOUS
10
5.73583
20
-3.3693
11
5.73586
21
-3.36972
0
LINE
8
BLACK
6
CONTINUOUS
10
5.73586
20
-3.36972
11
5.73602
21
-3.3701
0
LINE
8
BLACK
6
CONTINUOUS
10
5.73602
20
-3.3701
11
5.73602
21
-3.38115
0
LINE
8
BLACK
6
CONTINUOUS
10
5.73602
20
-3.38115
11
5.73586
21
-3.38154
0
LINE
8
BLACK
6
CONTINUOUS
10
5.73586
20
-3.38154
11
5.73583
21
-3.38196
0
LINE
8
BLACK
6
CONTINUOUS
10
5.73583
20
-3.38196
11
5.73362
21
-3.38638
0
LINE
8
BLACK
6
CONTINUOUS
10
5.73362
20
-3.38638
11
5.7334
21
-3.38657
0
LINE
8
BLACK
6
CONTINUOUS
10
5.7334
20
-3.38657
11
5.73329
21
-3.38684
0
LINE
8
BLACK
6
CONTINUOUS
10
5.73329
20
-3.38684
11
5.73108
21
-3.38905
0
LINE
8
BLACK
6
CONTINUOUS
10
5.73108
20
-3.38905
11
5.7308
21
-3.38917
0
LINE
8
BLACK
6
CONTINUOUS
10
5.7308
20
-3.38917
11
5.73061
21
-3.38939
0
LINE
8
BLACK
6
CONTINUOUS
10
5.73061
20
-3.38939
11
5.72619
21
-3.3916
0
LINE
8
BLACK
6
CONTINUOUS
10
5.72619
20
-3.3916
11
5.72577
21
-3.39163
0
LINE
8
BLACK
6
CONTINUOUS
10
5.72577
20
-3.39163
11
5.72539
21
-3.39179
0
LINE
8
BLACK
6
CONTINUOUS
10
5.72539
20
-3.39179
11
5.71434
21
-3.39179
0
LINE
8
BLACK
6
CONTINUOUS
10
5.71434
20
-3.39179
11
5.71395
21
-3.39163
0
LINE
8
BLACK
6
CONTINUOUS
10
5.71395
20
-3.39163
11
5.71353
21
-3.3916
0
LINE
8
BLACK
6
CONTINUOUS
10
5.71353
20
-3.3916
11
5.70911
21
-3.38939
0
LINE
8
BLACK
6
CONTINUOUS
10
5.70911
20
-3.38939
11
5.70892
21
-3.38917
0
LINE
8
BLACK
6
CONTINUOUS
10
5.70892
20
-3.38917
11
5.70865
21
-3.38905
0
LINE
8
BLACK
6
CONTINUOUS
10
5.70865
20
-3.38905
11
5.70644
21
-3.38684
0
LINE
8
BLACK
6
CONTINUOUS
10
5.70644
20
-3.38684
11
5.70591
21
-3.38557
0
LINE
8
BLACK
6
CONTINUOUS
10
5.70591
20
-3.38557
11
5.70644
21
-3.3843
0
LINE
8
BLACK
6
CONTINUOUS
10
5.70644
20
-3.3843
11
5.70771
21
-3.38377
0
LINE
8
BLACK
6
CONTINUOUS
10
5.70771
20
-3.38377
11
5.70898
21
-3.3843
0
LINE
8
BLACK
6
CONTINUOUS
10
5.70898
20
-3.3843
11
5.71099
21
-3.3863
0
LINE
8
BLACK
6
CONTINUOUS
10
5.71099
20
-3.3863
11
5.71476
21
-3.38819
0
LINE
8
BLACK
6
CONTINUOUS
10
5.71476
20
-3.38819
11
5.72496
21
-3.38819
0
LINE
8
BLACK
6
CONTINUOUS
10
5.72496
20
-3.38819
11
5.72874
21
-3.3863
0
LINE
8
BLACK
6
CONTINUOUS
10
5.72874
20
-3.3863
11
5.73053
21
-3.38451
0
LINE
8
BLACK
6
CONTINUOUS
10
5.73053
20
-3.38451
11
5.73242
21
-3.38073
0
LINE
8
BLACK
6
CONTINUOUS
10
5.73242
20
-3.38073
11
5.73242
21
-3.37053
0
LINE
8
BLACK
6
CONTINUOUS
10
5.73242
20
-3.37053
11
5.73053
21
-3.36675
0
LINE
8
BLACK
6
CONTINUOUS
10
5.73053
20
-3.36675
11
5.72874
21
-3.36496
0
LINE
8
BLACK
6
CONTINUOUS
10
5.72874
20
-3.36496
11
5.72496
21
-3.36307
0
LINE
8
BLACK
6
CONTINUOUS
10
5.72496
20
-3.36307
11
5.71476
21
-3.36307
0
LINE
8
BLACK
6
CONTINUOUS
10
5.71476
20
-3.36307
11
5.71099
21
-3.36496
0
LINE
8
BLACK
6
CONTINUOUS
10
5.71099
20
-3.36496
11
5.70898
21
-3.36696
0
LINE
8
BLACK
6
CONTINUOUS
10
5.70898
20
-3.36696
11
5.70889
21
-3.36699
0
LINE
8
BLACK
6
CONTINUOUS
10
5.70889
20
-3.36699
11
5.70885
21
-3.36708
0
LINE
8
BLACK
6
CONTINUOUS
10
5.70885
20
-3.36708
11
5.70827
21
-3.36725
0
LINE
8
BLACK
6
CONTINUOUS
10
5.70827
20
-3.36725
11
5.70771
21
-3.36749
0
LINE
8
BLACK
6
CONTINUOUS
10
5.70771
20
-3.36749
11
5.70762
21
-3.36745
0
LINE
8
BLACK
6
CONTINUOUS
10
5.70762
20
-3.36745
11
5.70753
21
-3.36748
0
LINE
8
BLACK
6
CONTINUOUS
10
5.70753
20
-3.36748
11
5.707
21
-3.36719
0
LINE
8
BLACK
6
CONTINUOUS
10
5.707
20
-3.36719
11
5.70644
21
-3.36696
0
LINE
8
BLACK
6
CONTINUOUS
10
5.70644
20
-3.36696
11
5.7064
21
-3.36687
0
LINE
8
BLACK
6
CONTINUOUS
10
5.7064
20
-3.36687
11
5.70632
21
-3.36683
0
LINE
8
BLACK
6
CONTINUOUS
10
5.70632
20
-3.36683
11
5.70614
21
-3.36625
0
LINE
8
BLACK
6
CONTINUOUS
10
5.70614
20
-3.36625
11
5.70591
21
-3.36569
0
LINE
8
BLACK
6
CONTINUOUS
10
5.70591
20
-3.36569
11
5.70595
21
-3.3656
0
LINE
8
BLACK
6
CONTINUOUS
10
5.70595
20
-3.3656
11
5.70592
21
-3.36551
0
LINE
8
BLACK
6
CONTINUOUS
10
5.70592
20
-3.36551
11
5.70813
21
-3.34341
0
LINE
8
BLACK
6
CONTINUOUS
10
5.70813
20
-3.34341
11
5.70841
21
-3.34288
0
LINE
8
BLACK
6
CONTINUOUS
10
5.70841
20
-3.34288
11
5.70865
21
-3.34232
0
LINE
8
BLACK
6
CONTINUOUS
10
5.70865
20
-3.34232
11
5.70873
21
-3.34228
0
LINE
8
BLACK
6
CONTINUOUS
10
5.70873
20
-3.34228
11
5.70878
21
-3.3422
0
LINE
8
BLACK
6
CONTINUOUS
10
5.70878
20
-3.3422
11
5.70936
21
-3.34202
0
LINE
8
BLACK
6
CONTINUOUS
10
5.70936
20
-3.34202
11
5.70992
21
-3.34179
0
LINE
8
BLACK
6
CONTINUOUS
10
5.70992
20
-3.34179
11
5.73201
21
-3.34179
0
LINE
8
BLACK
6
CONTINUOUS
10
5.73201
20
-3.34179
11
5.73329
21
-3.34232
0
LINE
8
BLACK
6
CONTINUOUS
10
5.63547
20
-3.34197
11
5.6356
21
-3.34198
0
LINE
8
BLACK
6
CONTINUOUS
10
5.6356
20
-3.34198
11
5.63597
21
-3.34241
0
LINE
8
BLACK
6
CONTINUOUS
10
5.63597
20
-3.34241
11
5.63641
21
-3.34279
0
LINE
8
BLACK
6
CONTINUOUS
10
5.63641
20
-3.34279
11
5.63641
21
-3.34292
0
LINE
8
BLACK
6
CONTINUOUS
10
5.63641
20
-3.34292
11
5.6365
21
-3.34302
0
LINE
8
BLACK
6
CONTINUOUS
10
5.6365
20
-3.34302
11
5.65197
21
-3.38942
0
LINE
8
BLACK
6
CONTINUOUS
10
5.65197
20
-3.38942
11
5.65187
21
-3.3908
0
LINE
8
BLACK
6
CONTINUOUS
10
5.65187
20
-3.3908
11
5.65083
21
-3.3917
0
LINE
8
BLACK
6
CONTINUOUS
10
5.65083
20
-3.3917
11
5.64946
21
-3.3916
0
LINE
8
BLACK
6
CONTINUOUS
10
5.64946
20
-3.3916
11
5.64855
21
-3.39056
0
LINE
8
BLACK
6
CONTINUOUS
10
5.64855
20
-3.39056
11
5.64455
21
-3.37853
0
LINE
8
BLACK
6
CONTINUOUS
10
5.64455
20
-3.37853
11
5.62505
21
-3.37853
0
LINE
8
BLACK
6
CONTINUOUS
10
5.62505
20
-3.37853
11
5.62104
21
-3.39056
0
LINE
8
BLACK
6
CONTINUOUS
10
5.62104
20
-3.39056
11
5.62013
21
-3.3916
0
LINE
8
BLACK
6
CONTINUOUS
10
5.62013
20
-3.3916
11
5.61876
21
-3.3917
0
LINE
8
BLACK
6
CONTINUOUS
10
5.61876
20
-3.3917
11
5.61772
21
-3.3908
0
LINE
8
BLACK
6
CONTINUOUS
10
5.61772
20
-3.3908
11
5.61762
21
-3.38942
0
LINE
8
BLACK
6
CONTINUOUS
10
5.61762
20
-3.38942
11
5.63309
21
-3.34302
0
LINE
8
BLACK
6
CONTINUOUS
10
5.63309
20
-3.34302
11
5.63318
21
-3.34292
0
LINE
8
BLACK
6
CONTINUOUS
10
5.63318
20
-3.34292
11
5.63319
21
-3.34279
0
LINE
8
BLACK
6
CONTINUOUS
10
5.63319
20
-3.34279
11
5.63362
21
-3.34241
0
LINE
8
BLACK
6
CONTINUOUS
10
5.63362
20
-3.34241
11
5.63399
21
-3.34198
0
LINE
8
BLACK
6
CONTINUOUS
10
5.63399
20
-3.34198
11
5.63412
21
-3.34197
0
LINE
8
BLACK
6
CONTINUOUS
10
5.63412
20
-3.34197
11
5.63423
21
-3.34188
0
LINE
8
BLACK
6
CONTINUOUS
10
5.63423
20
-3.34188
11
5.6348
21
-3.34192
0
LINE
8
BLACK
6
CONTINUOUS
10
5.6348
20
-3.34192
11
5.63536
21
-3.34188
0
LINE
8
BLACK
6
CONTINUOUS
10
5.63536
20
-3.34188
11
5.63547
21
-3.34197
0
LINE
8
BLACK
6
CONTINUOUS
10
5.62624
20
-3.37493
11
5.64335
21
-3.37493
0
LINE
8
BLACK
6
CONTINUOUS
10
5.64335
20
-3.37493
11
5.6348
21
-3.34928
0
LINE
8
BLACK
6
CONTINUOUS
10
5.6348
20
-3.34928
11
5.62624
21
-3.37493
0
LINE
8
BLACK
6
CONTINUOUS
10
5.79073
20
-3.37104
11
5.79126
21
-3.37231
0
LINE
8
BLACK
6
CONTINUOUS
10
5.79126
20
-3.37231
11
5.79073
21
-3.37359
0
LINE
8
BLACK
6
CONTINUOUS
10
5.79073
20
-3.37359
11
5.78946
21
-3.37411
0
LINE
8
BLACK
6
CONTINUOUS
10
5.78946
20
-3.37411
11
5.75411
21
-3.37411
0
LINE
8
BLACK
6
CONTINUOUS
10
5.75411
20
-3.37411
11
5.75284
21
-3.37359
0
LINE
8
BLACK
6
CONTINUOUS
10
5.75284
20
-3.37359
11
5.75231
21
-3.37231
0
LINE
8
BLACK
6
CONTINUOUS
10
5.75231
20
-3.37231
11
5.75284
21
-3.37104
0
LINE
8
BLACK
6
CONTINUOUS
10
5.75284
20
-3.37104
11
5.75411
21
-3.37051
0
LINE
8
BLACK
6
CONTINUOUS
10
5.75411
20
-3.37051
11
5.78946
21
-3.37051
0
LINE
8
BLACK
6
CONTINUOUS
10
5.78946
20
-3.37051
11
5.79073
21
-3.37104
  0
ENDSEC
  0
EOF
