  0
SECTION
  2
HEADER
  9
$ANGBASE
  50
0.0
  9
$ANGDIR
  70
1
  9
$MEASUREMENT
  70
0
  0
ENDSEC
  0
SECTION
  2
TABLES
  0
TABLE
  2
LTYPE
  70
4
  0
LTYPE
  5
40F
  2
CONTINUOUS
  70
0
  3
Solid line
  72
65
  73
0
  40
0.0
  0
LTYPE
  5
410
  2
DASHDOT
 70
0
  3
Dash Dot ____ _ ____ _
 72
65
 73
4
 40
2.0
 49
1.25
 49
-0.25
 49
0.25
 49
-0.25
  0
LTYPE
  5
411
  2
DASHED
 70
0
  3
Dashed __ __ __ __ __
 72
65
 73
2
 40
0.75
 49
0.5
 49
-0.25
  0
LTYPE
  5
43B
  2
DOTTED
 70
0
  3
Dotted .  .  .  .
 72
65
 73
2
 40
0.2
 49
0.0
 49
-0.2
  0
ENDTAB
  0
TABLE
  2
STYLE
  70
4
  0
STYLE
  2
KICAD
  70
0
  40
0
  41
1
  42
1
  50
0
  71
0
  3
isocp.shx
  0
STYLE
  2
KICADB
  70
0
  40
0
  41
1
  42
1
  50
0
  71
0
  3
isocp.shx
  0
STYLE
  2
KICADI
  70
0
  40
0
  41
1
  42
1
  50
15
  71
0
  3
isocp.shx
  0
STYLE
  2
KICADBI
  70
0
  40
0
  41
1
  42
1
  50
15
  71
0
  3
isocp.shx
  0
ENDTAB
  0
TABLE
  2
LAYER
  70
1
  0
LAYER
  2
BLACK
  70
0
  62
7
  6
CONTINUOUS
  0
ENDTAB
  0
ENDSEC
  0
SECTION
  2
ENTITIES
0
LINE
8
BLACK
6
CONTINUOUS
10
6.01637
20
-4.44828
11
6.01609
21
-4.44758
0
LINE
8
BLACK
6
CONTINUOUS
10
6.01609
20
-4.44758
11
6.01609
21
-4.37042
0
LINE
8
BLACK
6
CONTINUOUS
10
6.01609
20
-4.37042
11
6.01637
21
-4.36972
0
LINE
8
BLACK
6
CONTINUOUS
10
6.01637
20
-4.36972
11
6.01707
21
-4.36943
0
LINE
8
BLACK
6
CONTINUOUS
10
6.01707
20
-4.36943
11
6.15093
21
-4.36943
0
LINE
8
BLACK
6
CONTINUOUS
10
6.15093
20
-4.36943
11
6.15163
21
-4.36972
0
LINE
8
BLACK
6
CONTINUOUS
10
6.15163
20
-4.36972
11
6.15191
21
-4.37042
0
LINE
8
BLACK
6
CONTINUOUS
10
6.15191
20
-4.37042
11
6.15191
21
-4.44758
0
LINE
8
BLACK
6
CONTINUOUS
10
6.15191
20
-4.44758
11
6.15163
21
-4.44828
0
LINE
8
BLACK
6
CONTINUOUS
10
6.15163
20
-4.44828
11
6.15093
21
-4.44857
0
LINE
8
BLACK
6
CONTINUOUS
10
6.15093
20
-4.44857
11
6.01707
21
-4.44857
0
LINE
8
BLACK
6
CONTINUOUS
10
6.01707
20
-4.44857
11
6.01637
21
-4.44828
0
LINE
8
BLACK
6
CONTINUOUS
10
6.01806
20
-4.3714
11
6.01806
21
-4.4466
0
LINE
8
BLACK
6
CONTINUOUS
10
6.01806
20
-4.4466
11
6.14994
21
-4.4466
0
LINE
8
BLACK
6
CONTINUOUS
10
6.14994
20
-4.4466
11
6.14994
21
-4.3714
0
LINE
8
BLACK
6
CONTINUOUS
10
6.14994
20
-4.3714
11
6.01806
21
-4.3714
0
LINE
8
BLACK
6
CONTINUOUS
10
5.74472
20
-4.30163
11
5.74443
21
-4.30093
0
LINE
8
BLACK
6
CONTINUOUS
10
5.74443
20
-4.30093
11
5.74443
21
-4.16707
0
LINE
8
BLACK
6
CONTINUOUS
10
5.74443
20
-4.16707
11
5.74472
21
-4.16637
0
LINE
8
BLACK
6
CONTINUOUS
10
5.74472
20
-4.16637
11
5.74542
21
-4.16609
0
LINE
8
BLACK
6
CONTINUOUS
10
5.74542
20
-4.16609
11
5.82258
21
-4.16609
0
LINE
8
BLACK
6
CONTINUOUS
10
5.82258
20
-4.16609
11
5.82328
21
-4.16637
0
LINE
8
BLACK
6
CONTINUOUS
10
5.82328
20
-4.16637
11
5.82357
21
-4.16707
0
LINE
8
BLACK
6
CONTINUOUS
10
5.82357
20
-4.16707
11
5.82357
21
-4.30093
0
LINE
8
BLACK
6
CONTINUOUS
10
5.82357
20
-4.30093
11
5.82328
21
-4.30163
0
LINE
8
BLACK
6
CONTINUOUS
10
5.82328
20
-4.30163
11
5.82258
21
-4.30191
0
LINE
8
BLACK
6
CONTINUOUS
10
5.82258
20
-4.30191
11
5.74542
21
-4.30191
0
LINE
8
BLACK
6
CONTINUOUS
10
5.74542
20
-4.30191
11
5.74472
21
-4.30163
0
LINE
8
BLACK
6
CONTINUOUS
10
5.7464
20
-4.16806
11
5.7464
21
-4.29994
0
LINE
8
BLACK
6
CONTINUOUS
10
5.7464
20
-4.29994
11
5.8216
21
-4.29994
0
LINE
8
BLACK
6
CONTINUOUS
10
5.8216
20
-4.29994
11
5.8216
21
-4.16806
0
LINE
8
BLACK
6
CONTINUOUS
10
5.8216
20
-4.16806
11
5.7464
21
-4.16806
0
LINE
8
BLACK
6
CONTINUOUS
10
5.66347
20
-4.30163
11
5.66318
21
-4.30093
0
LINE
8
BLACK
6
CONTINUOUS
10
5.66318
20
-4.30093
11
5.66318
21
-4.16707
0
LINE
8
BLACK
6
CONTINUOUS
10
5.66318
20
-4.16707
11
5.66347
21
-4.16637
0
LINE
8
BLACK
6
CONTINUOUS
10
5.66347
20
-4.16637
11
5.66417
21
-4.16609
0
LINE
8
BLACK
6
CONTINUOUS
10
5.66417
20
-4.16609
11
5.74133
21
-4.16609
0
LINE
8
BLACK
6
CONTINUOUS
10
5.74133
20
-4.16609
11
5.74203
21
-4.16637
0
LINE
8
BLACK
6
CONTINUOUS
10
5.74203
20
-4.16637
11
5.74232
21
-4.16707
0
LINE
8
BLACK
6
CONTINUOUS
10
5.74232
20
-4.16707
11
5.74232
21
-4.30093
0
LINE
8
BLACK
6
CONTINUOUS
10
5.74232
20
-4.30093
11
5.74203
21
-4.30163
0
LINE
8
BLACK
6
CONTINUOUS
10
5.74203
20
-4.30163
11
5.74133
21
-4.30191
0
LINE
8
BLACK
6
CONTINUOUS
10
5.74133
20
-4.30191
11
5.66417
21
-4.30191
0
LINE
8
BLACK
6
CONTINUOUS
10
5.66417
20
-4.30191
11
5.66347
21
-4.30163
0
LINE
8
BLACK
6
CONTINUOUS
10
5.66515
20
-4.16806
11
5.66515
21
-4.29994
0
LINE
8
BLACK
6
CONTINUOUS
10
5.66515
20
-4.29994
11
5.74035
21
-4.29994
0
LINE
8
BLACK
6
CONTINUOUS
10
5.74035
20
-4.29994
11
5.74035
21
-4.16806
0
LINE
8
BLACK
6
CONTINUOUS
10
5.74035
20
-4.16806
11
5.66515
21
-4.16806
0
LINE
8
BLACK
6
CONTINUOUS
10
5.96347
20
-4.01413
11
5.96318
21
-4.01343
0
LINE
8
BLACK
6
CONTINUOUS
10
5.96318
20
-4.01343
11
5.96318
21
-3.87957
0
LINE
8
BLACK
6
CONTINUOUS
10
5.96318
20
-3.87957
11
5.96347
21
-3.87887
0
LINE
8
BLACK
6
CONTINUOUS
10
5.96347
20
-3.87887
11
5.96417
21
-3.87859
0
LINE
8
BLACK
6
CONTINUOUS
10
5.96417
20
-3.87859
11
6.04133
21
-3.87859
0
LINE
8
BLACK
6
CONTINUOUS
10
6.04133
20
-3.87859
11
6.04203
21
-3.87887
0
LINE
8
BLACK
6
CONTINUOUS
10
6.04203
20
-3.87887
11
6.04232
21
-3.87957
0
LINE
8
BLACK
6
CONTINUOUS
10
6.04232
20
-3.87957
11
6.04232
21
-4.01343
0
LINE
8
BLACK
6
CONTINUOUS
10
6.04232
20
-4.01343
11
6.04203
21
-4.01413
0
LINE
8
BLACK
6
CONTINUOUS
10
6.04203
20
-4.01413
11
6.04133
21
-4.01441
0
LINE
8
BLACK
6
CONTINUOUS
10
6.04133
20
-4.01441
11
5.96417
21
-4.01441
0
LINE
8
BLACK
6
CONTINUOUS
10
5.96417
20
-4.01441
11
5.96347
21
-4.01413
0
LINE
8
BLACK
6
CONTINUOUS
10
5.96515
20
-3.88056
11
5.96515
21
-4.01244
0
LINE
8
BLACK
6
CONTINUOUS
10
5.96515
20
-4.01244
11
6.04035
21
-4.01244
0
LINE
8
BLACK
6
CONTINUOUS
10
6.04035
20
-4.01244
11
6.04035
21
-3.88056
0
LINE
8
BLACK
6
CONTINUOUS
10
6.04035
20
-3.88056
11
5.96515
21
-3.88056
  0
ENDSEC
  0
EOF
