  0
SECTION
  2
HEADER
  9
$ANGBASE
  50
0.0
  9
$ANGDIR
  70
1
  9
$MEASUREMENT
  70
0
  0
ENDSEC
  0
SECTION
  2
TABLES
  0
TABLE
  2
LTYPE
  70
4
  0
LTYPE
  5
40F
  2
CONTINUOUS
  70
0
  3
Solid line
  72
65
  73
0
  40
0.0
  0
LTYPE
  5
410
  2
DASHDOT
 70
0
  3
Dash Dot ____ _ ____ _
 72
65
 73
4
 40
2.0
 49
1.25
 49
-0.25
 49
0.25
 49
-0.25
  0
LTYPE
  5
411
  2
DASHED
 70
0
  3
Dashed __ __ __ __ __
 72
65
 73
2
 40
0.75
 49
0.5
 49
-0.25
  0
LTYPE
  5
43B
  2
DOTTED
 70
0
  3
Dotted .  .  .  .
 72
65
 73
2
 40
0.2
 49
0.0
 49
-0.2
  0
ENDTAB
  0
TABLE
  2
STYLE
  70
4
  0
STYLE
  2
KICAD
  70
0
  40
0
  41
1
  42
1
  50
0
  71
0
  3
isocp.shx
  0
STYLE
  2
KICADB
  70
0
  40
0
  41
1
  42
1
  50
0
  71
0
  3
isocp.shx
  0
STYLE
  2
KICADI
  70
0
  40
0
  41
1
  42
1
  50
15
  71
0
  3
isocp.shx
  0
STYLE
  2
KICADBI
  70
0
  40
0
  41
1
  42
1
  50
15
  71
0
  3
isocp.shx
  0
ENDTAB
  0
TABLE
  2
LAYER
  70
1
  0
LAYER
  2
BLACK
  70
0
  62
7
  6
CONTINUOUS
  0
ENDTAB
  0
ENDSEC
  0
SECTION
  2
ENTITIES
0
LINE
8
BLACK
6
CONTINUOUS
10
5.46769
20
-4.60473
11
5.48155
21
-4.60777
0
LINE
8
BLACK
6
CONTINUOUS
10
5.48155
20
-4.60777
11
5.49499
21
-4.6123
0
LINE
8
BLACK
6
CONTINUOUS
10
5.49499
20
-4.6123
11
5.50786
21
-4.61826
0
LINE
8
BLACK
6
CONTINUOUS
10
5.50786
20
-4.61826
11
5.52002
21
-4.62557
0
LINE
8
BLACK
6
CONTINUOUS
10
5.52002
20
-4.62557
11
5.53131
21
-4.63416
0
LINE
8
BLACK
6
CONTINUOUS
10
5.53131
20
-4.63416
11
5.54161
21
-4.64391
0
LINE
8
BLACK
6
CONTINUOUS
10
5.54161
20
-4.64391
11
5.55079
21
-4.65472
0
LINE
8
BLACK
6
CONTINUOUS
10
5.55079
20
-4.65472
11
5.55875
21
-4.66646
0
LINE
8
BLACK
6
CONTINUOUS
10
5.55875
20
-4.66646
11
5.56539
21
-4.67899
0
LINE
8
BLACK
6
CONTINUOUS
10
5.56539
20
-4.67899
11
5.57064
21
-4.69217
0
LINE
8
BLACK
6
CONTINUOUS
10
5.57064
20
-4.69217
11
5.57444
21
-4.70584
0
LINE
8
BLACK
6
CONTINUOUS
10
5.57444
20
-4.70584
11
5.57673
21
-4.71984
0
LINE
8
BLACK
6
CONTINUOUS
10
5.57673
20
-4.71984
11
5.5775
21
-4.734
0
LINE
8
BLACK
6
CONTINUOUS
10
5.5775
20
-4.734
11
5.57673
21
-4.74816
0
LINE
8
BLACK
6
CONTINUOUS
10
5.57673
20
-4.74816
11
5.57444
21
-4.76216
0
LINE
8
BLACK
6
CONTINUOUS
10
5.57444
20
-4.76216
11
5.57064
21
-4.77583
0
LINE
8
BLACK
6
CONTINUOUS
10
5.57064
20
-4.77583
11
5.56539
21
-4.78901
0
LINE
8
BLACK
6
CONTINUOUS
10
5.56539
20
-4.78901
11
5.55875
21
-4.80154
0
LINE
8
BLACK
6
CONTINUOUS
10
5.55875
20
-4.80154
11
5.55079
21
-4.81328
0
LINE
8
BLACK
6
CONTINUOUS
10
5.55079
20
-4.81328
11
5.54161
21
-4.82409
0
LINE
8
BLACK
6
CONTINUOUS
10
5.54161
20
-4.82409
11
5.53131
21
-4.83384
0
LINE
8
BLACK
6
CONTINUOUS
10
5.53131
20
-4.83384
11
5.52002
21
-4.84243
0
LINE
8
BLACK
6
CONTINUOUS
10
5.52002
20
-4.84243
11
5.50786
21
-4.84974
0
LINE
8
BLACK
6
CONTINUOUS
10
5.50786
20
-4.84974
11
5.49499
21
-4.8557
0
LINE
8
BLACK
6
CONTINUOUS
10
5.49499
20
-4.8557
11
5.48155
21
-4.86023
0
LINE
8
BLACK
6
CONTINUOUS
10
5.48155
20
-4.86023
11
5.46769
21
-4.86327
0
LINE
8
BLACK
6
CONTINUOUS
10
5.46769
20
-4.86327
11
5.45359
21
-4.86481
0
LINE
8
BLACK
6
CONTINUOUS
10
5.45359
20
-4.86481
11
5.43941
21
-4.86481
0
LINE
8
BLACK
6
CONTINUOUS
10
5.43941
20
-4.86481
11
5.42531
21
-4.86327
0
LINE
8
BLACK
6
CONTINUOUS
10
5.42531
20
-4.86327
11
5.41145
21
-4.86023
0
LINE
8
BLACK
6
CONTINUOUS
10
5.41145
20
-4.86023
11
5.39801
21
-4.8557
0
LINE
8
BLACK
6
CONTINUOUS
10
5.39801
20
-4.8557
11
5.38514
21
-4.84974
0
LINE
8
BLACK
6
CONTINUOUS
10
5.38514
20
-4.84974
11
5.37298
21
-4.84243
0
LINE
8
BLACK
6
CONTINUOUS
10
5.37298
20
-4.84243
11
5.36169
21
-4.83384
0
LINE
8
BLACK
6
CONTINUOUS
10
5.36169
20
-4.83384
11
5.35139
21
-4.82409
0
LINE
8
BLACK
6
CONTINUOUS
10
5.35139
20
-4.82409
11
5.34221
21
-4.81328
0
LINE
8
BLACK
6
CONTINUOUS
10
5.34221
20
-4.81328
11
5.33425
21
-4.80154
0
LINE
8
BLACK
6
CONTINUOUS
10
5.33425
20
-4.80154
11
5.32761
21
-4.78901
0
LINE
8
BLACK
6
CONTINUOUS
10
5.32761
20
-4.78901
11
5.32236
21
-4.77583
0
LINE
8
BLACK
6
CONTINUOUS
10
5.32236
20
-4.77583
11
5.31856
21
-4.76216
0
LINE
8
BLACK
6
CONTINUOUS
10
5.31856
20
-4.76216
11
5.31627
21
-4.74816
0
LINE
8
BLACK
6
CONTINUOUS
10
5.31627
20
-4.74816
11
5.3155
21
-4.734
0
LINE
8
BLACK
6
CONTINUOUS
10
5.3155
20
-4.734
11
5.31627
21
-4.71984
0
LINE
8
BLACK
6
CONTINUOUS
10
5.31627
20
-4.71984
11
5.31856
21
-4.70584
0
LINE
8
BLACK
6
CONTINUOUS
10
5.31856
20
-4.70584
11
5.32236
21
-4.69217
0
LINE
8
BLACK
6
CONTINUOUS
10
5.32236
20
-4.69217
11
5.32761
21
-4.67899
0
LINE
8
BLACK
6
CONTINUOUS
10
5.32761
20
-4.67899
11
5.33425
21
-4.66646
0
LINE
8
BLACK
6
CONTINUOUS
10
5.33425
20
-4.66646
11
5.34221
21
-4.65472
0
LINE
8
BLACK
6
CONTINUOUS
10
5.34221
20
-4.65472
11
5.35139
21
-4.64391
0
LINE
8
BLACK
6
CONTINUOUS
10
5.35139
20
-4.64391
11
5.36169
21
-4.63416
0
LINE
8
BLACK
6
CONTINUOUS
10
5.36169
20
-4.63416
11
5.37298
21
-4.62557
0
LINE
8
BLACK
6
CONTINUOUS
10
5.37298
20
-4.62557
11
5.38514
21
-4.61826
0
LINE
8
BLACK
6
CONTINUOUS
10
5.38514
20
-4.61826
11
5.39801
21
-4.6123
0
LINE
8
BLACK
6
CONTINUOUS
10
5.39801
20
-4.6123
11
5.41145
21
-4.60777
0
LINE
8
BLACK
6
CONTINUOUS
10
5.41145
20
-4.60777
11
5.42531
21
-4.60473
0
LINE
8
BLACK
6
CONTINUOUS
10
5.42531
20
-4.60473
11
5.43941
21
-4.60319
0
LINE
8
BLACK
6
CONTINUOUS
10
5.43941
20
-4.60319
11
5.45359
21
-4.60319
0
LINE
8
BLACK
6
CONTINUOUS
10
5.45359
20
-4.60319
11
5.46769
21
-4.60473
0
LINE
8
BLACK
6
CONTINUOUS
10
6.26769
20
-4.60473
11
6.28155
21
-4.60777
0
LINE
8
BLACK
6
CONTINUOUS
10
6.28155
20
-4.60777
11
6.29499
21
-4.6123
0
LINE
8
BLACK
6
CONTINUOUS
10
6.29499
20
-4.6123
11
6.30786
21
-4.61826
0
LINE
8
BLACK
6
CONTINUOUS
10
6.30786
20
-4.61826
11
6.32002
21
-4.62557
0
LINE
8
BLACK
6
CONTINUOUS
10
6.32002
20
-4.62557
11
6.33131
21
-4.63416
0
LINE
8
BLACK
6
CONTINUOUS
10
6.33131
20
-4.63416
11
6.34161
21
-4.64391
0
LINE
8
BLACK
6
CONTINUOUS
10
6.34161
20
-4.64391
11
6.35079
21
-4.65472
0
LINE
8
BLACK
6
CONTINUOUS
10
6.35079
20
-4.65472
11
6.35875
21
-4.66646
0
LINE
8
BLACK
6
CONTINUOUS
10
6.35875
20
-4.66646
11
6.36539
21
-4.67899
0
LINE
8
BLACK
6
CONTINUOUS
10
6.36539
20
-4.67899
11
6.37064
21
-4.69217
0
LINE
8
BLACK
6
CONTINUOUS
10
6.37064
20
-4.69217
11
6.37444
21
-4.70584
0
LINE
8
BLACK
6
CONTINUOUS
10
6.37444
20
-4.70584
11
6.37673
21
-4.71984
0
LINE
8
BLACK
6
CONTINUOUS
10
6.37673
20
-4.71984
11
6.3775
21
-4.734
0
LINE
8
BLACK
6
CONTINUOUS
10
6.3775
20
-4.734
11
6.37673
21
-4.74816
0
LINE
8
BLACK
6
CONTINUOUS
10
6.37673
20
-4.74816
11
6.37444
21
-4.76216
0
LINE
8
BLACK
6
CONTINUOUS
10
6.37444
20
-4.76216
11
6.37064
21
-4.77583
0
LINE
8
BLACK
6
CONTINUOUS
10
6.37064
20
-4.77583
11
6.36539
21
-4.78901
0
LINE
8
BLACK
6
CONTINUOUS
10
6.36539
20
-4.78901
11
6.35875
21
-4.80154
0
LINE
8
BLACK
6
CONTINUOUS
10
6.35875
20
-4.80154
11
6.35079
21
-4.81328
0
LINE
8
BLACK
6
CONTINUOUS
10
6.35079
20
-4.81328
11
6.34161
21
-4.82409
0
LINE
8
BLACK
6
CONTINUOUS
10
6.34161
20
-4.82409
11
6.33131
21
-4.83384
0
LINE
8
BLACK
6
CONTINUOUS
10
6.33131
20
-4.83384
11
6.32002
21
-4.84243
0
LINE
8
BLACK
6
CONTINUOUS
10
6.32002
20
-4.84243
11
6.30786
21
-4.84974
0
LINE
8
BLACK
6
CONTINUOUS
10
6.30786
20
-4.84974
11
6.29499
21
-4.8557
0
LINE
8
BLACK
6
CONTINUOUS
10
6.29499
20
-4.8557
11
6.28155
21
-4.86023
0
LINE
8
BLACK
6
CONTINUOUS
10
6.28155
20
-4.86023
11
6.26769
21
-4.86327
0
LINE
8
BLACK
6
CONTINUOUS
10
6.26769
20
-4.86327
11
6.25359
21
-4.86481
0
LINE
8
BLACK
6
CONTINUOUS
10
6.25359
20
-4.86481
11
6.23941
21
-4.86481
0
LINE
8
BLACK
6
CONTINUOUS
10
6.23941
20
-4.86481
11
6.22531
21
-4.86327
0
LINE
8
BLACK
6
CONTINUOUS
10
6.22531
20
-4.86327
11
6.21145
21
-4.86023
0
LINE
8
BLACK
6
CONTINUOUS
10
6.21145
20
-4.86023
11
6.19801
21
-4.8557
0
LINE
8
BLACK
6
CONTINUOUS
10
6.19801
20
-4.8557
11
6.18514
21
-4.84974
0
LINE
8
BLACK
6
CONTINUOUS
10
6.18514
20
-4.84974
11
6.17298
21
-4.84243
0
LINE
8
BLACK
6
CONTINUOUS
10
6.17298
20
-4.84243
11
6.16169
21
-4.83384
0
LINE
8
BLACK
6
CONTINUOUS
10
6.16169
20
-4.83384
11
6.15139
21
-4.82409
0
LINE
8
BLACK
6
CONTINUOUS
10
6.15139
20
-4.82409
11
6.14221
21
-4.81328
0
LINE
8
BLACK
6
CONTINUOUS
10
6.14221
20
-4.81328
11
6.13425
21
-4.80154
0
LINE
8
BLACK
6
CONTINUOUS
10
6.13425
20
-4.80154
11
6.12761
21
-4.78901
0
LINE
8
BLACK
6
CONTINUOUS
10
6.12761
20
-4.78901
11
6.12236
21
-4.77583
0
LINE
8
BLACK
6
CONTINUOUS
10
6.12236
20
-4.77583
11
6.11856
21
-4.76216
0
LINE
8
BLACK
6
CONTINUOUS
10
6.11856
20
-4.76216
11
6.11627
21
-4.74816
0
LINE
8
BLACK
6
CONTINUOUS
10
6.11627
20
-4.74816
11
6.1155
21
-4.734
0
LINE
8
BLACK
6
CONTINUOUS
10
6.1155
20
-4.734
11
6.11627
21
-4.71984
0
LINE
8
BLACK
6
CONTINUOUS
10
6.11627
20
-4.71984
11
6.11856
21
-4.70584
0
LINE
8
BLACK
6
CONTINUOUS
10
6.11856
20
-4.70584
11
6.12236
21
-4.69217
0
LINE
8
BLACK
6
CONTINUOUS
10
6.12236
20
-4.69217
11
6.12761
21
-4.67899
0
LINE
8
BLACK
6
CONTINUOUS
10
6.12761
20
-4.67899
11
6.13425
21
-4.66646
0
LINE
8
BLACK
6
CONTINUOUS
10
6.13425
20
-4.66646
11
6.14221
21
-4.65472
0
LINE
8
BLACK
6
CONTINUOUS
10
6.14221
20
-4.65472
11
6.15139
21
-4.64391
0
LINE
8
BLACK
6
CONTINUOUS
10
6.15139
20
-4.64391
11
6.16169
21
-4.63416
0
LINE
8
BLACK
6
CONTINUOUS
10
6.16169
20
-4.63416
11
6.17298
21
-4.62557
0
LINE
8
BLACK
6
CONTINUOUS
10
6.17298
20
-4.62557
11
6.18514
21
-4.61826
0
LINE
8
BLACK
6
CONTINUOUS
10
6.18514
20
-4.61826
11
6.19801
21
-4.6123
0
LINE
8
BLACK
6
CONTINUOUS
10
6.19801
20
-4.6123
11
6.21145
21
-4.60777
0
LINE
8
BLACK
6
CONTINUOUS
10
6.21145
20
-4.60777
11
6.22531
21
-4.60473
0
LINE
8
BLACK
6
CONTINUOUS
10
6.22531
20
-4.60473
11
6.23941
21
-4.60319
0
LINE
8
BLACK
6
CONTINUOUS
10
6.23941
20
-4.60319
11
6.25359
21
-4.60319
0
LINE
8
BLACK
6
CONTINUOUS
10
6.25359
20
-4.60319
11
6.26769
21
-4.60473
0
LINE
8
BLACK
6
CONTINUOUS
10
5.62152
20
-4.4558
11
5.63254
21
-4.4582
0
LINE
8
BLACK
6
CONTINUOUS
10
5.63254
20
-4.4582
11
5.6431
21
-4.46214
0
LINE
8
BLACK
6
CONTINUOUS
10
5.6431
20
-4.46214
11
5.65299
21
-4.46754
0
LINE
8
BLACK
6
CONTINUOUS
10
5.65299
20
-4.46754
11
5.66201
21
-4.4743
0
LINE
8
BLACK
6
CONTINUOUS
10
5.66201
20
-4.4743
11
5.66998
21
-4.48227
0
LINE
8
BLACK
6
CONTINUOUS
10
5.66998
20
-4.48227
11
5.67674
21
-4.49129
0
LINE
8
BLACK
6
CONTINUOUS
10
5.67674
20
-4.49129
11
5.68214
21
-4.50118
0
LINE
8
BLACK
6
CONTINUOUS
10
5.68214
20
-4.50118
11
5.68608
21
-4.51174
0
LINE
8
BLACK
6
CONTINUOUS
10
5.68608
20
-4.51174
11
5.68848
21
-4.52276
0
LINE
8
BLACK
6
CONTINUOUS
10
5.68848
20
-4.52276
11
5.68928
21
-4.534
0
LINE
8
BLACK
6
CONTINUOUS
10
5.68928
20
-4.534
11
5.68848
21
-4.54524
0
LINE
8
BLACK
6
CONTINUOUS
10
5.68848
20
-4.54524
11
5.68608
21
-4.55626
0
LINE
8
BLACK
6
CONTINUOUS
10
5.68608
20
-4.55626
11
5.68214
21
-4.56682
0
LINE
8
BLACK
6
CONTINUOUS
10
5.68214
20
-4.56682
11
5.67674
21
-4.57671
0
LINE
8
BLACK
6
CONTINUOUS
10
5.67674
20
-4.57671
11
5.66998
21
-4.58573
0
LINE
8
BLACK
6
CONTINUOUS
10
5.66998
20
-4.58573
11
5.66201
21
-4.5937
0
LINE
8
BLACK
6
CONTINUOUS
10
5.66201
20
-4.5937
11
5.65299
21
-4.60046
0
LINE
8
BLACK
6
CONTINUOUS
10
5.65299
20
-4.60046
11
5.6431
21
-4.60586
0
LINE
8
BLACK
6
CONTINUOUS
10
5.6431
20
-4.60586
11
5.63254
21
-4.6098
0
LINE
8
BLACK
6
CONTINUOUS
10
5.63254
20
-4.6098
11
5.62152
21
-4.6122
0
LINE
8
BLACK
6
CONTINUOUS
10
5.62152
20
-4.6122
11
5.61028
21
-4.613
0
LINE
8
BLACK
6
CONTINUOUS
10
5.61028
20
-4.613
11
5.59904
21
-4.6122
0
LINE
8
BLACK
6
CONTINUOUS
10
5.59904
20
-4.6122
11
5.58802
21
-4.6098
0
LINE
8
BLACK
6
CONTINUOUS
10
5.58802
20
-4.6098
11
5.57746
21
-4.60586
0
LINE
8
BLACK
6
CONTINUOUS
10
5.57746
20
-4.60586
11
5.56757
21
-4.60046
0
LINE
8
BLACK
6
CONTINUOUS
10
5.56757
20
-4.60046
11
5.55855
21
-4.5937
0
LINE
8
BLACK
6
CONTINUOUS
10
5.55855
20
-4.5937
11
5.55058
21
-4.58573
0
LINE
8
BLACK
6
CONTINUOUS
10
5.55058
20
-4.58573
11
5.54382
21
-4.57671
0
LINE
8
BLACK
6
CONTINUOUS
10
5.54382
20
-4.57671
11
5.53842
21
-4.56682
0
LINE
8
BLACK
6
CONTINUOUS
10
5.53842
20
-4.56682
11
5.53448
21
-4.55626
0
LINE
8
BLACK
6
CONTINUOUS
10
5.53448
20
-4.55626
11
5.53208
21
-4.54524
0
LINE
8
BLACK
6
CONTINUOUS
10
5.53208
20
-4.54524
11
5.53128
21
-4.534
0
LINE
8
BLACK
6
CONTINUOUS
10
5.53128
20
-4.534
11
5.53208
21
-4.52276
0
LINE
8
BLACK
6
CONTINUOUS
10
5.53208
20
-4.52276
11
5.53448
21
-4.51174
0
LINE
8
BLACK
6
CONTINUOUS
10
5.53448
20
-4.51174
11
5.53842
21
-4.50118
0
LINE
8
BLACK
6
CONTINUOUS
10
5.53842
20
-4.50118
11
5.54382
21
-4.49129
0
LINE
8
BLACK
6
CONTINUOUS
10
5.54382
20
-4.49129
11
5.55058
21
-4.48227
0
LINE
8
BLACK
6
CONTINUOUS
10
5.55058
20
-4.48227
11
5.55855
21
-4.4743
0
LINE
8
BLACK
6
CONTINUOUS
10
5.55855
20
-4.4743
11
5.56757
21
-4.46754
0
LINE
8
BLACK
6
CONTINUOUS
10
5.56757
20
-4.46754
11
5.57746
21
-4.46214
0
LINE
8
BLACK
6
CONTINUOUS
10
5.57746
20
-4.46214
11
5.58802
21
-4.4582
0
LINE
8
BLACK
6
CONTINUOUS
10
5.58802
20
-4.4582
11
5.59904
21
-4.4558
0
LINE
8
BLACK
6
CONTINUOUS
10
5.59904
20
-4.4558
11
5.61028
21
-4.455
0
LINE
8
BLACK
6
CONTINUOUS
10
5.61028
20
-4.455
11
5.62152
21
-4.4558
0
LINE
8
BLACK
6
CONTINUOUS
10
6.09396
20
-4.4558
11
6.10498
21
-4.4582
0
LINE
8
BLACK
6
CONTINUOUS
10
6.10498
20
-4.4582
11
6.11554
21
-4.46214
0
LINE
8
BLACK
6
CONTINUOUS
10
6.11554
20
-4.46214
11
6.12543
21
-4.46754
0
LINE
8
BLACK
6
CONTINUOUS
10
6.12543
20
-4.46754
11
6.13445
21
-4.4743
0
LINE
8
BLACK
6
CONTINUOUS
10
6.13445
20
-4.4743
11
6.14242
21
-4.48227
0
LINE
8
BLACK
6
CONTINUOUS
10
6.14242
20
-4.48227
11
6.14918
21
-4.49129
0
LINE
8
BLACK
6
CONTINUOUS
10
6.14918
20
-4.49129
11
6.15458
21
-4.50118
0
LINE
8
BLACK
6
CONTINUOUS
10
6.15458
20
-4.50118
11
6.15852
21
-4.51174
0
LINE
8
BLACK
6
CONTINUOUS
10
6.15852
20
-4.51174
11
6.16
21
-4.51854
0
LINE
8
BLACK
6
CONTINUOUS
10
6.16
20
-4.51854
11
6.16
21
-4.5015
0
LINE
8
BLACK
6
CONTINUOUS
10
6.16
20
-4.5015
11
6.1603
21
-4.49997
0
LINE
8
BLACK
6
CONTINUOUS
10
6.1603
20
-4.49997
11
6.16117
21
-4.49867
0
LINE
8
BLACK
6
CONTINUOUS
10
6.16117
20
-4.49867
11
6.16247
21
-4.4978
0
LINE
8
BLACK
6
CONTINUOUS
10
6.16247
20
-4.4978
11
6.164
21
-4.4975
0
LINE
8
BLACK
6
CONTINUOUS
10
6.164
20
-4.4975
11
6.229
21
-4.4975
0
LINE
8
BLACK
6
CONTINUOUS
10
6.229
20
-4.4975
11
6.23053
21
-4.4978
0
LINE
8
BLACK
6
CONTINUOUS
10
6.23053
20
-4.4978
11
6.23183
21
-4.49867
0
LINE
8
BLACK
6
CONTINUOUS
10
6.23183
20
-4.49867
11
6.2327
21
-4.49997
0
LINE
8
BLACK
6
CONTINUOUS
10
6.2327
20
-4.49997
11
6.233
21
-4.5015
0
LINE
8
BLACK
6
CONTINUOUS
10
6.233
20
-4.5015
11
6.233
21
-4.5665
0
LINE
8
BLACK
6
CONTINUOUS
10
6.233
20
-4.5665
11
6.2327
21
-4.56803
0
LINE
8
BLACK
6
CONTINUOUS
10
6.2327
20
-4.56803
11
6.23183
21
-4.56933
0
LINE
8
BLACK
6
CONTINUOUS
10
6.23183
20
-4.56933
11
6.23053
21
-4.5702
0
LINE
8
BLACK
6
CONTINUOUS
10
6.23053
20
-4.5702
11
6.229
21
-4.5705
0
LINE
8
BLACK
6
CONTINUOUS
10
6.229
20
-4.5705
11
6.164
21
-4.5705
0
LINE
8
BLACK
6
CONTINUOUS
10
6.164
20
-4.5705
11
6.16247
21
-4.5702
0
LINE
8
BLACK
6
CONTINUOUS
10
6.16247
20
-4.5702
11
6.16117
21
-4.56933
0
LINE
8
BLACK
6
CONTINUOUS
10
6.16117
20
-4.56933
11
6.1603
21
-4.56803
0
LINE
8
BLACK
6
CONTINUOUS
10
6.1603
20
-4.56803
11
6.16
21
-4.5665
0
LINE
8
BLACK
6
CONTINUOUS
10
6.16
20
-4.5665
11
6.16
21
-4.54946
0
LINE
8
BLACK
6
CONTINUOUS
10
6.16
20
-4.54946
11
6.15852
21
-4.55626
0
LINE
8
BLACK
6
CONTINUOUS
10
6.15852
20
-4.55626
11
6.15458
21
-4.56682
0
LINE
8
BLACK
6
CONTINUOUS
10
6.15458
20
-4.56682
11
6.14918
21
-4.57671
0
LINE
8
BLACK
6
CONTINUOUS
10
6.14918
20
-4.57671
11
6.14242
21
-4.58573
0
LINE
8
BLACK
6
CONTINUOUS
10
6.14242
20
-4.58573
11
6.13445
21
-4.5937
0
LINE
8
BLACK
6
CONTINUOUS
10
6.13445
20
-4.5937
11
6.12543
21
-4.60046
0
LINE
8
BLACK
6
CONTINUOUS
10
6.12543
20
-4.60046
11
6.11554
21
-4.60586
0
LINE
8
BLACK
6
CONTINUOUS
10
6.11554
20
-4.60586
11
6.10498
21
-4.6098
0
LINE
8
BLACK
6
CONTINUOUS
10
6.10498
20
-4.6098
11
6.09396
21
-4.6122
0
LINE
8
BLACK
6
CONTINUOUS
10
6.09396
20
-4.6122
11
6.08272
21
-4.613
0
LINE
8
BLACK
6
CONTINUOUS
10
6.08272
20
-4.613
11
6.07148
21
-4.6122
0
LINE
8
BLACK
6
CONTINUOUS
10
6.07148
20
-4.6122
11
6.06046
21
-4.6098
0
LINE
8
BLACK
6
CONTINUOUS
10
6.06046
20
-4.6098
11
6.0499
21
-4.60586
0
LINE
8
BLACK
6
CONTINUOUS
10
6.0499
20
-4.60586
11
6.04001
21
-4.60046
0
LINE
8
BLACK
6
CONTINUOUS
10
6.04001
20
-4.60046
11
6.03099
21
-4.5937
0
LINE
8
BLACK
6
CONTINUOUS
10
6.03099
20
-4.5937
11
6.02302
21
-4.58573
0
LINE
8
BLACK
6
CONTINUOUS
10
6.02302
20
-4.58573
11
6.01626
21
-4.57671
0
LINE
8
BLACK
6
CONTINUOUS
10
6.01626
20
-4.57671
11
6.01086
21
-4.56682
0
LINE
8
BLACK
6
CONTINUOUS
10
6.01086
20
-4.56682
11
6.00692
21
-4.55626
0
LINE
8
BLACK
6
CONTINUOUS
10
6.00692
20
-4.55626
11
6.00452
21
-4.54524
0
LINE
8
BLACK
6
CONTINUOUS
10
6.00452
20
-4.54524
11
6.00372
21
-4.534
0
LINE
8
BLACK
6
CONTINUOUS
10
6.00372
20
-4.534
11
6.00452
21
-4.52276
0
LINE
8
BLACK
6
CONTINUOUS
10
6.00452
20
-4.52276
11
6.00692
21
-4.51174
0
LINE
8
BLACK
6
CONTINUOUS
10
6.00692
20
-4.51174
11
6.01086
21
-4.50118
0
LINE
8
BLACK
6
CONTINUOUS
10
6.01086
20
-4.50118
11
6.01626
21
-4.49129
0
LINE
8
BLACK
6
CONTINUOUS
10
6.01626
20
-4.49129
11
6.02302
21
-4.48227
0
LINE
8
BLACK
6
CONTINUOUS
10
6.02302
20
-4.48227
11
6.03099
21
-4.4743
0
LINE
8
BLACK
6
CONTINUOUS
10
6.03099
20
-4.4743
11
6.04001
21
-4.46754
0
LINE
8
BLACK
6
CONTINUOUS
10
6.04001
20
-4.46754
11
6.0499
21
-4.46214
0
LINE
8
BLACK
6
CONTINUOUS
10
6.0499
20
-4.46214
11
6.06046
21
-4.4582
0
LINE
8
BLACK
6
CONTINUOUS
10
6.06046
20
-4.4582
11
6.07148
21
-4.4558
0
LINE
8
BLACK
6
CONTINUOUS
10
6.07148
20
-4.4558
11
6.08272
21
-4.455
0
LINE
8
BLACK
6
CONTINUOUS
10
6.08272
20
-4.455
11
6.09396
21
-4.4558
0
LINE
8
BLACK
6
CONTINUOUS
10
5.43105
20
-4.46034
11
5.44036
21
-4.46258
0
LINE
8
BLACK
6
CONTINUOUS
10
5.44036
20
-4.46258
11
5.4492
21
-4.46624
0
LINE
8
BLACK
6
CONTINUOUS
10
5.4492
20
-4.46624
11
5.45737
21
-4.47125
0
LINE
8
BLACK
6
CONTINUOUS
10
5.45737
20
-4.47125
11
5.46465
21
-4.47746
0
LINE
8
BLACK
6
CONTINUOUS
10
5.46465
20
-4.47746
11
5.47087
21
-4.48475
0
LINE
8
BLACK
6
CONTINUOUS
10
5.47087
20
-4.48475
11
5.47587
21
-4.49291
0
LINE
8
BLACK
6
CONTINUOUS
10
5.47587
20
-4.49291
11
5.47954
21
-4.50176
0
LINE
8
BLACK
6
CONTINUOUS
10
5.47954
20
-4.50176
11
5.48177
21
-4.51107
0
LINE
8
BLACK
6
CONTINUOUS
10
5.48177
20
-4.51107
11
5.48252
21
-4.52061
0
LINE
8
BLACK
6
CONTINUOUS
10
5.48252
20
-4.52061
11
5.48177
21
-4.53016
0
LINE
8
BLACK
6
CONTINUOUS
10
5.48177
20
-4.53016
11
5.47954
21
-4.53947
0
LINE
8
BLACK
6
CONTINUOUS
10
5.47954
20
-4.53947
11
5.47587
21
-4.54832
0
LINE
8
BLACK
6
CONTINUOUS
10
5.47587
20
-4.54832
11
5.47087
21
-4.55648
0
LINE
8
BLACK
6
CONTINUOUS
10
5.47087
20
-4.55648
11
5.46465
21
-4.56376
0
LINE
8
BLACK
6
CONTINUOUS
10
5.46465
20
-4.56376
11
5.45737
21
-4.56998
0
LINE
8
BLACK
6
CONTINUOUS
10
5.45737
20
-4.56998
11
5.4492
21
-4.57499
0
LINE
8
BLACK
6
CONTINUOUS
10
5.4492
20
-4.57499
11
5.44036
21
-4.57865
0
LINE
8
BLACK
6
CONTINUOUS
10
5.44036
20
-4.57865
11
5.43105
21
-4.58089
0
LINE
8
BLACK
6
CONTINUOUS
10
5.43105
20
-4.58089
11
5.4215
21
-4.58164
0
LINE
8
BLACK
6
CONTINUOUS
10
5.4215
20
-4.58164
11
5.41195
21
-4.58089
0
LINE
8
BLACK
6
CONTINUOUS
10
5.41195
20
-4.58089
11
5.40264
21
-4.57865
0
LINE
8
BLACK
6
CONTINUOUS
10
5.40264
20
-4.57865
11
5.3938
21
-4.57499
0
LINE
8
BLACK
6
CONTINUOUS
10
5.3938
20
-4.57499
11
5.38563
21
-4.56998
0
LINE
8
BLACK
6
CONTINUOUS
10
5.38563
20
-4.56998
11
5.37835
21
-4.56376
0
LINE
8
BLACK
6
CONTINUOUS
10
5.37835
20
-4.56376
11
5.37213
21
-4.55648
0
LINE
8
BLACK
6
CONTINUOUS
10
5.37213
20
-4.55648
11
5.36713
21
-4.54832
0
LINE
8
BLACK
6
CONTINUOUS
10
5.36713
20
-4.54832
11
5.36346
21
-4.53947
0
LINE
8
BLACK
6
CONTINUOUS
10
5.36346
20
-4.53947
11
5.36123
21
-4.53016
0
LINE
8
BLACK
6
CONTINUOUS
10
5.36123
20
-4.53016
11
5.36048
21
-4.52061
0
LINE
8
BLACK
6
CONTINUOUS
10
5.36048
20
-4.52061
11
5.36123
21
-4.51107
0
LINE
8
BLACK
6
CONTINUOUS
10
5.36123
20
-4.51107
11
5.36346
21
-4.50176
0
LINE
8
BLACK
6
CONTINUOUS
10
5.36346
20
-4.50176
11
5.36713
21
-4.49291
0
LINE
8
BLACK
6
CONTINUOUS
10
5.36713
20
-4.49291
11
5.37213
21
-4.48475
0
LINE
8
BLACK
6
CONTINUOUS
10
5.37213
20
-4.48475
11
5.37835
21
-4.47746
0
LINE
8
BLACK
6
CONTINUOUS
10
5.37835
20
-4.47746
11
5.38563
21
-4.47125
0
LINE
8
BLACK
6
CONTINUOUS
10
5.38563
20
-4.47125
11
5.3938
21
-4.46624
0
LINE
8
BLACK
6
CONTINUOUS
10
5.3938
20
-4.46624
11
5.40264
21
-4.46258
0
LINE
8
BLACK
6
CONTINUOUS
10
5.40264
20
-4.46258
11
5.41195
21
-4.46034
0
LINE
8
BLACK
6
CONTINUOUS
10
5.41195
20
-4.46034
11
5.4215
21
-4.45959
0
LINE
8
BLACK
6
CONTINUOUS
10
5.4215
20
-4.45959
11
5.43105
21
-4.46034
0
LINE
8
BLACK
6
CONTINUOUS
10
6.33053
20
-4.4978
11
6.33183
21
-4.49867
0
LINE
8
BLACK
6
CONTINUOUS
10
6.33183
20
-4.49867
11
6.3327
21
-4.49997
0
LINE
8
BLACK
6
CONTINUOUS
10
6.3327
20
-4.49997
11
6.333
21
-4.5015
0
LINE
8
BLACK
6
CONTINUOUS
10
6.333
20
-4.5015
11
6.333
21
-4.5665
0
LINE
8
BLACK
6
CONTINUOUS
10
6.333
20
-4.5665
11
6.3327
21
-4.56803
0
LINE
8
BLACK
6
CONTINUOUS
10
6.3327
20
-4.56803
11
6.33183
21
-4.56933
0
LINE
8
BLACK
6
CONTINUOUS
10
6.33183
20
-4.56933
11
6.33053
21
-4.5702
0
LINE
8
BLACK
6
CONTINUOUS
10
6.33053
20
-4.5702
11
6.329
21
-4.5705
0
LINE
8
BLACK
6
CONTINUOUS
10
6.329
20
-4.5705
11
6.264
21
-4.5705
0
LINE
8
BLACK
6
CONTINUOUS
10
6.264
20
-4.5705
11
6.26247
21
-4.5702
0
LINE
8
BLACK
6
CONTINUOUS
10
6.26247
20
-4.5702
11
6.26117
21
-4.56933
0
LINE
8
BLACK
6
CONTINUOUS
10
6.26117
20
-4.56933
11
6.2603
21
-4.56803
0
LINE
8
BLACK
6
CONTINUOUS
10
6.2603
20
-4.56803
11
6.26
21
-4.5665
0
LINE
8
BLACK
6
CONTINUOUS
10
6.26
20
-4.5665
11
6.26
21
-4.5015
0
LINE
8
BLACK
6
CONTINUOUS
10
6.26
20
-4.5015
11
6.2603
21
-4.49997
0
LINE
8
BLACK
6
CONTINUOUS
10
6.2603
20
-4.49997
11
6.26117
21
-4.49867
0
LINE
8
BLACK
6
CONTINUOUS
10
6.26117
20
-4.49867
11
6.26247
21
-4.4978
0
LINE
8
BLACK
6
CONTINUOUS
10
6.26247
20
-4.4978
11
6.264
21
-4.4975
0
LINE
8
BLACK
6
CONTINUOUS
10
6.264
20
-4.4975
11
6.329
21
-4.4975
0
LINE
8
BLACK
6
CONTINUOUS
10
6.329
20
-4.4975
11
6.33053
21
-4.4978
0
LINE
8
BLACK
6
CONTINUOUS
10
6.23053
20
-4.3978
11
6.23183
21
-4.39867
0
LINE
8
BLACK
6
CONTINUOUS
10
6.23183
20
-4.39867
11
6.2327
21
-4.39997
0
LINE
8
BLACK
6
CONTINUOUS
10
6.2327
20
-4.39997
11
6.233
21
-4.4015
0
LINE
8
BLACK
6
CONTINUOUS
10
6.233
20
-4.4015
11
6.233
21
-4.4665
0
LINE
8
BLACK
6
CONTINUOUS
10
6.233
20
-4.4665
11
6.2327
21
-4.46803
0
LINE
8
BLACK
6
CONTINUOUS
10
6.2327
20
-4.46803
11
6.23183
21
-4.46933
0
LINE
8
BLACK
6
CONTINUOUS
10
6.23183
20
-4.46933
11
6.23053
21
-4.4702
0
LINE
8
BLACK
6
CONTINUOUS
10
6.23053
20
-4.4702
11
6.229
21
-4.4705
0
LINE
8
BLACK
6
CONTINUOUS
10
6.229
20
-4.4705
11
6.164
21
-4.4705
0
LINE
8
BLACK
6
CONTINUOUS
10
6.164
20
-4.4705
11
6.16247
21
-4.4702
0
LINE
8
BLACK
6
CONTINUOUS
10
6.16247
20
-4.4702
11
6.16117
21
-4.46933
0
LINE
8
BLACK
6
CONTINUOUS
10
6.16117
20
-4.46933
11
6.1603
21
-4.46803
0
LINE
8
BLACK
6
CONTINUOUS
10
6.1603
20
-4.46803
11
6.16
21
-4.4665
0
LINE
8
BLACK
6
CONTINUOUS
10
6.16
20
-4.4665
11
6.16
21
-4.4015
0
LINE
8
BLACK
6
CONTINUOUS
10
6.16
20
-4.4015
11
6.1603
21
-4.39997
0
LINE
8
BLACK
6
CONTINUOUS
10
6.1603
20
-4.39997
11
6.16117
21
-4.39867
0
LINE
8
BLACK
6
CONTINUOUS
10
6.16117
20
-4.39867
11
6.16247
21
-4.3978
0
LINE
8
BLACK
6
CONTINUOUS
10
6.16247
20
-4.3978
11
6.164
21
-4.3975
0
LINE
8
BLACK
6
CONTINUOUS
10
6.164
20
-4.3975
11
6.229
21
-4.3975
0
LINE
8
BLACK
6
CONTINUOUS
10
6.229
20
-4.3975
11
6.23053
21
-4.3978
0
LINE
8
BLACK
6
CONTINUOUS
10
6.33053
20
-4.3978
11
6.33183
21
-4.39867
0
LINE
8
BLACK
6
CONTINUOUS
10
6.33183
20
-4.39867
11
6.3327
21
-4.39997
0
LINE
8
BLACK
6
CONTINUOUS
10
6.3327
20
-4.39997
11
6.333
21
-4.4015
0
LINE
8
BLACK
6
CONTINUOUS
10
6.333
20
-4.4015
11
6.333
21
-4.4665
0
LINE
8
BLACK
6
CONTINUOUS
10
6.333
20
-4.4665
11
6.3327
21
-4.46803
0
LINE
8
BLACK
6
CONTINUOUS
10
6.3327
20
-4.46803
11
6.33183
21
-4.46933
0
LINE
8
BLACK
6
CONTINUOUS
10
6.33183
20
-4.46933
11
6.33053
21
-4.4702
0
LINE
8
BLACK
6
CONTINUOUS
10
6.33053
20
-4.4702
11
6.329
21
-4.4705
0
LINE
8
BLACK
6
CONTINUOUS
10
6.329
20
-4.4705
11
6.264
21
-4.4705
0
LINE
8
BLACK
6
CONTINUOUS
10
6.264
20
-4.4705
11
6.26247
21
-4.4702
0
LINE
8
BLACK
6
CONTINUOUS
10
6.26247
20
-4.4702
11
6.26117
21
-4.46933
0
LINE
8
BLACK
6
CONTINUOUS
10
6.26117
20
-4.46933
11
6.2603
21
-4.46803
0
LINE
8
BLACK
6
CONTINUOUS
10
6.2603
20
-4.46803
11
6.26
21
-4.4665
0
LINE
8
BLACK
6
CONTINUOUS
10
6.26
20
-4.4665
11
6.26
21
-4.4015
0
LINE
8
BLACK
6
CONTINUOUS
10
6.26
20
-4.4015
11
6.2603
21
-4.39997
0
LINE
8
BLACK
6
CONTINUOUS
10
6.2603
20
-4.39997
11
6.26117
21
-4.39867
0
LINE
8
BLACK
6
CONTINUOUS
10
6.26117
20
-4.39867
11
6.26247
21
-4.3978
0
LINE
8
BLACK
6
CONTINUOUS
10
6.26247
20
-4.3978
11
6.264
21
-4.3975
0
LINE
8
BLACK
6
CONTINUOUS
10
6.264
20
-4.3975
11
6.329
21
-4.3975
0
LINE
8
BLACK
6
CONTINUOUS
10
6.329
20
-4.3975
11
6.33053
21
-4.3978
0
LINE
8
BLACK
6
CONTINUOUS
10
5.80441
20
-4.3965
11
5.81117
21
-4.39887
0
LINE
8
BLACK
6
CONTINUOUS
10
5.81117
20
-4.39887
11
5.81724
21
-4.40268
0
LINE
8
BLACK
6
CONTINUOUS
10
5.81724
20
-4.40268
11
5.82231
21
-4.40775
0
LINE
8
BLACK
6
CONTINUOUS
10
5.82231
20
-4.40775
11
5.82612
21
-4.41382
0
LINE
8
BLACK
6
CONTINUOUS
10
5.82612
20
-4.41382
11
5.82849
21
-4.42058
0
LINE
8
BLACK
6
CONTINUOUS
10
5.82849
20
-4.42058
11
5.82929
21
-4.4277
0
LINE
8
BLACK
6
CONTINUOUS
10
5.82929
20
-4.4277
11
5.82849
21
-4.43482
0
LINE
8
BLACK
6
CONTINUOUS
10
5.82849
20
-4.43482
11
5.82612
21
-4.44159
0
LINE
8
BLACK
6
CONTINUOUS
10
5.82612
20
-4.44159
11
5.82231
21
-4.44765
0
LINE
8
BLACK
6
CONTINUOUS
10
5.82231
20
-4.44765
11
5.81724
21
-4.45272
0
LINE
8
BLACK
6
CONTINUOUS
10
5.81724
20
-4.45272
11
5.81117
21
-4.45653
0
LINE
8
BLACK
6
CONTINUOUS
10
5.81117
20
-4.45653
11
5.80441
21
-4.4589
0
LINE
8
BLACK
6
CONTINUOUS
10
5.80441
20
-4.4589
11
5.79729
21
-4.4597
0
LINE
8
BLACK
6
CONTINUOUS
10
5.79729
20
-4.4597
11
5.79017
21
-4.4589
0
LINE
8
BLACK
6
CONTINUOUS
10
5.79017
20
-4.4589
11
5.7834
21
-4.45653
0
LINE
8
BLACK
6
CONTINUOUS
10
5.7834
20
-4.45653
11
5.77734
21
-4.45272
0
LINE
8
BLACK
6
CONTINUOUS
10
5.77734
20
-4.45272
11
5.77227
21
-4.44765
0
LINE
8
BLACK
6
CONTINUOUS
10
5.77227
20
-4.44765
11
5.76846
21
-4.44159
0
LINE
8
BLACK
6
CONTINUOUS
10
5.76846
20
-4.44159
11
5.76609
21
-4.43482
0
LINE
8
BLACK
6
CONTINUOUS
10
5.76609
20
-4.43482
11
5.76529
21
-4.4277
0
LINE
8
BLACK
6
CONTINUOUS
10
5.76529
20
-4.4277
11
5.76609
21
-4.42058
0
LINE
8
BLACK
6
CONTINUOUS
10
5.76609
20
-4.42058
11
5.76846
21
-4.41382
0
LINE
8
BLACK
6
CONTINUOUS
10
5.76846
20
-4.41382
11
5.77227
21
-4.40775
0
LINE
8
BLACK
6
CONTINUOUS
10
5.77227
20
-4.40775
11
5.77734
21
-4.40268
0
LINE
8
BLACK
6
CONTINUOUS
10
5.77734
20
-4.40268
11
5.7834
21
-4.39887
0
LINE
8
BLACK
6
CONTINUOUS
10
5.7834
20
-4.39887
11
5.79017
21
-4.3965
0
LINE
8
BLACK
6
CONTINUOUS
10
5.79017
20
-4.3965
11
5.79729
21
-4.3957
0
LINE
8
BLACK
6
CONTINUOUS
10
5.79729
20
-4.3957
11
5.80441
21
-4.3965
0
LINE
8
BLACK
6
CONTINUOUS
10
5.90283
20
-4.3965
11
5.9096
21
-4.39887
0
LINE
8
BLACK
6
CONTINUOUS
10
5.9096
20
-4.39887
11
5.91566
21
-4.40268
0
LINE
8
BLACK
6
CONTINUOUS
10
5.91566
20
-4.40268
11
5.92073
21
-4.40775
0
LINE
8
BLACK
6
CONTINUOUS
10
5.92073
20
-4.40775
11
5.92454
21
-4.41382
0
LINE
8
BLACK
6
CONTINUOUS
10
5.92454
20
-4.41382
11
5.92691
21
-4.42058
0
LINE
8
BLACK
6
CONTINUOUS
10
5.92691
20
-4.42058
11
5.92771
21
-4.4277
0
LINE
8
BLACK
6
CONTINUOUS
10
5.92771
20
-4.4277
11
5.92691
21
-4.43482
0
LINE
8
BLACK
6
CONTINUOUS
10
5.92691
20
-4.43482
11
5.92454
21
-4.44159
0
LINE
8
BLACK
6
CONTINUOUS
10
5.92454
20
-4.44159
11
5.92073
21
-4.44765
0
LINE
8
BLACK
6
CONTINUOUS
10
5.92073
20
-4.44765
11
5.91566
21
-4.45272
0
LINE
8
BLACK
6
CONTINUOUS
10
5.91566
20
-4.45272
11
5.9096
21
-4.45653
0
LINE
8
BLACK
6
CONTINUOUS
10
5.9096
20
-4.45653
11
5.90283
21
-4.4589
0
LINE
8
BLACK
6
CONTINUOUS
10
5.90283
20
-4.4589
11
5.89571
21
-4.4597
0
LINE
8
BLACK
6
CONTINUOUS
10
5.89571
20
-4.4597
11
5.88859
21
-4.4589
0
LINE
8
BLACK
6
CONTINUOUS
10
5.88859
20
-4.4589
11
5.88183
21
-4.45653
0
LINE
8
BLACK
6
CONTINUOUS
10
5.88183
20
-4.45653
11
5.87576
21
-4.45272
0
LINE
8
BLACK
6
CONTINUOUS
10
5.87576
20
-4.45272
11
5.87069
21
-4.44765
0
LINE
8
BLACK
6
CONTINUOUS
10
5.87069
20
-4.44765
11
5.86688
21
-4.44159
0
LINE
8
BLACK
6
CONTINUOUS
10
5.86688
20
-4.44159
11
5.86451
21
-4.43482
0
LINE
8
BLACK
6
CONTINUOUS
10
5.86451
20
-4.43482
11
5.86371
21
-4.4277
0
LINE
8
BLACK
6
CONTINUOUS
10
5.86371
20
-4.4277
11
5.86451
21
-4.42058
0
LINE
8
BLACK
6
CONTINUOUS
10
5.86451
20
-4.42058
11
5.86688
21
-4.41382
0
LINE
8
BLACK
6
CONTINUOUS
10
5.86688
20
-4.41382
11
5.87069
21
-4.40775
0
LINE
8
BLACK
6
CONTINUOUS
10
5.87069
20
-4.40775
11
5.87576
21
-4.40268
0
LINE
8
BLACK
6
CONTINUOUS
10
5.87576
20
-4.40268
11
5.88183
21
-4.39887
0
LINE
8
BLACK
6
CONTINUOUS
10
5.88183
20
-4.39887
11
5.88859
21
-4.3965
0
LINE
8
BLACK
6
CONTINUOUS
10
5.88859
20
-4.3965
11
5.89571
21
-4.3957
0
LINE
8
BLACK
6
CONTINUOUS
10
5.89571
20
-4.3957
11
5.90283
21
-4.3965
0
LINE
8
BLACK
6
CONTINUOUS
10
5.43105
20
-4.26349
11
5.44036
21
-4.26573
0
LINE
8
BLACK
6
CONTINUOUS
10
5.44036
20
-4.26573
11
5.4492
21
-4.26939
0
LINE
8
BLACK
6
CONTINUOUS
10
5.4492
20
-4.26939
11
5.45737
21
-4.27439
0
LINE
8
BLACK
6
CONTINUOUS
10
5.45737
20
-4.27439
11
5.46465
21
-4.28061
0
LINE
8
BLACK
6
CONTINUOUS
10
5.46465
20
-4.28061
11
5.47087
21
-4.28789
0
LINE
8
BLACK
6
CONTINUOUS
10
5.47087
20
-4.28789
11
5.47587
21
-4.29606
0
LINE
8
BLACK
6
CONTINUOUS
10
5.47587
20
-4.29606
11
5.47954
21
-4.30491
0
LINE
8
BLACK
6
CONTINUOUS
10
5.47954
20
-4.30491
11
5.48177
21
-4.31422
0
LINE
8
BLACK
6
CONTINUOUS
10
5.48177
20
-4.31422
11
5.48252
21
-4.32376
0
LINE
8
BLACK
6
CONTINUOUS
10
5.48252
20
-4.32376
11
5.48177
21
-4.33331
0
LINE
8
BLACK
6
CONTINUOUS
10
5.48177
20
-4.33331
11
5.47954
21
-4.34262
0
LINE
8
BLACK
6
CONTINUOUS
10
5.47954
20
-4.34262
11
5.47587
21
-4.35147
0
LINE
8
BLACK
6
CONTINUOUS
10
5.47587
20
-4.35147
11
5.47087
21
-4.35963
0
LINE
8
BLACK
6
CONTINUOUS
10
5.47087
20
-4.35963
11
5.46465
21
-4.36691
0
LINE
8
BLACK
6
CONTINUOUS
10
5.46465
20
-4.36691
11
5.45737
21
-4.37313
0
LINE
8
BLACK
6
CONTINUOUS
10
5.45737
20
-4.37313
11
5.4492
21
-4.37814
0
LINE
8
BLACK
6
CONTINUOUS
10
5.4492
20
-4.37814
11
5.44036
21
-4.3818
0
LINE
8
BLACK
6
CONTINUOUS
10
5.44036
20
-4.3818
11
5.43105
21
-4.38404
0
LINE
8
BLACK
6
CONTINUOUS
10
5.43105
20
-4.38404
11
5.4215
21
-4.38479
0
LINE
8
BLACK
6
CONTINUOUS
10
5.4215
20
-4.38479
11
5.41195
21
-4.38404
0
LINE
8
BLACK
6
CONTINUOUS
10
5.41195
20
-4.38404
11
5.40264
21
-4.3818
0
LINE
8
BLACK
6
CONTINUOUS
10
5.40264
20
-4.3818
11
5.3938
21
-4.37814
0
LINE
8
BLACK
6
CONTINUOUS
10
5.3938
20
-4.37814
11
5.38563
21
-4.37313
0
LINE
8
BLACK
6
CONTINUOUS
10
5.38563
20
-4.37313
11
5.37835
21
-4.36691
0
LINE
8
BLACK
6
CONTINUOUS
10
5.37835
20
-4.36691
11
5.37213
21
-4.35963
0
LINE
8
BLACK
6
CONTINUOUS
10
5.37213
20
-4.35963
11
5.36713
21
-4.35147
0
LINE
8
BLACK
6
CONTINUOUS
10
5.36713
20
-4.35147
11
5.36346
21
-4.34262
0
LINE
8
BLACK
6
CONTINUOUS
10
5.36346
20
-4.34262
11
5.36123
21
-4.33331
0
LINE
8
BLACK
6
CONTINUOUS
10
5.36123
20
-4.33331
11
5.36048
21
-4.32376
0
LINE
8
BLACK
6
CONTINUOUS
10
5.36048
20
-4.32376
11
5.36123
21
-4.31422
0
LINE
8
BLACK
6
CONTINUOUS
10
5.36123
20
-4.31422
11
5.36346
21
-4.30491
0
LINE
8
BLACK
6
CONTINUOUS
10
5.36346
20
-4.30491
11
5.36713
21
-4.29606
0
LINE
8
BLACK
6
CONTINUOUS
10
5.36713
20
-4.29606
11
5.37213
21
-4.28789
0
LINE
8
BLACK
6
CONTINUOUS
10
5.37213
20
-4.28789
11
5.37835
21
-4.28061
0
LINE
8
BLACK
6
CONTINUOUS
10
5.37835
20
-4.28061
11
5.38563
21
-4.27439
0
LINE
8
BLACK
6
CONTINUOUS
10
5.38563
20
-4.27439
11
5.3938
21
-4.26939
0
LINE
8
BLACK
6
CONTINUOUS
10
5.3938
20
-4.26939
11
5.40264
21
-4.26573
0
LINE
8
BLACK
6
CONTINUOUS
10
5.40264
20
-4.26573
11
5.41195
21
-4.26349
0
LINE
8
BLACK
6
CONTINUOUS
10
5.41195
20
-4.26349
11
5.4215
21
-4.26274
0
LINE
8
BLACK
6
CONTINUOUS
10
5.4215
20
-4.26274
11
5.43105
21
-4.26349
0
LINE
8
BLACK
6
CONTINUOUS
10
5.80441
20
-4.31776
11
5.81117
21
-4.32013
0
LINE
8
BLACK
6
CONTINUOUS
10
5.81117
20
-4.32013
11
5.81724
21
-4.32394
0
LINE
8
BLACK
6
CONTINUOUS
10
5.81724
20
-4.32394
11
5.82231
21
-4.32901
0
LINE
8
BLACK
6
CONTINUOUS
10
5.82231
20
-4.32901
11
5.82612
21
-4.33508
0
LINE
8
BLACK
6
CONTINUOUS
10
5.82612
20
-4.33508
11
5.82849
21
-4.34184
0
LINE
8
BLACK
6
CONTINUOUS
10
5.82849
20
-4.34184
11
5.82929
21
-4.34896
0
LINE
8
BLACK
6
CONTINUOUS
10
5.82929
20
-4.34896
11
5.82849
21
-4.35608
0
LINE
8
BLACK
6
CONTINUOUS
10
5.82849
20
-4.35608
11
5.82612
21
-4.36284
0
LINE
8
BLACK
6
CONTINUOUS
10
5.82612
20
-4.36284
11
5.82231
21
-4.36891
0
LINE
8
BLACK
6
CONTINUOUS
10
5.82231
20
-4.36891
11
5.81724
21
-4.37398
0
LINE
8
BLACK
6
CONTINUOUS
10
5.81724
20
-4.37398
11
5.81117
21
-4.37779
0
LINE
8
BLACK
6
CONTINUOUS
10
5.81117
20
-4.37779
11
5.80441
21
-4.38016
0
LINE
8
BLACK
6
CONTINUOUS
10
5.80441
20
-4.38016
11
5.79729
21
-4.38096
0
LINE
8
BLACK
6
CONTINUOUS
10
5.79729
20
-4.38096
11
5.79017
21
-4.38016
0
LINE
8
BLACK
6
CONTINUOUS
10
5.79017
20
-4.38016
11
5.7834
21
-4.37779
0
LINE
8
BLACK
6
CONTINUOUS
10
5.7834
20
-4.37779
11
5.77734
21
-4.37398
0
LINE
8
BLACK
6
CONTINUOUS
10
5.77734
20
-4.37398
11
5.77227
21
-4.36891
0
LINE
8
BLACK
6
CONTINUOUS
10
5.77227
20
-4.36891
11
5.76846
21
-4.36284
0
LINE
8
BLACK
6
CONTINUOUS
10
5.76846
20
-4.36284
11
5.76609
21
-4.35608
0
LINE
8
BLACK
6
CONTINUOUS
10
5.76609
20
-4.35608
11
5.76529
21
-4.34896
0
LINE
8
BLACK
6
CONTINUOUS
10
5.76529
20
-4.34896
11
5.76609
21
-4.34184
0
LINE
8
BLACK
6
CONTINUOUS
10
5.76609
20
-4.34184
11
5.76846
21
-4.33508
0
LINE
8
BLACK
6
CONTINUOUS
10
5.76846
20
-4.33508
11
5.77227
21
-4.32901
0
LINE
8
BLACK
6
CONTINUOUS
10
5.77227
20
-4.32901
11
5.77734
21
-4.32394
0
LINE
8
BLACK
6
CONTINUOUS
10
5.77734
20
-4.32394
11
5.7834
21
-4.32013
0
LINE
8
BLACK
6
CONTINUOUS
10
5.7834
20
-4.32013
11
5.79017
21
-4.31776
0
LINE
8
BLACK
6
CONTINUOUS
10
5.79017
20
-4.31776
11
5.79729
21
-4.31696
0
LINE
8
BLACK
6
CONTINUOUS
10
5.79729
20
-4.31696
11
5.80441
21
-4.31776
0
LINE
8
BLACK
6
CONTINUOUS
10
5.90283
20
-4.31776
11
5.9096
21
-4.32013
0
LINE
8
BLACK
6
CONTINUOUS
10
5.9096
20
-4.32013
11
5.91566
21
-4.32394
0
LINE
8
BLACK
6
CONTINUOUS
10
5.91566
20
-4.32394
11
5.92073
21
-4.32901
0
LINE
8
BLACK
6
CONTINUOUS
10
5.92073
20
-4.32901
11
5.92454
21
-4.33508
0
LINE
8
BLACK
6
CONTINUOUS
10
5.92454
20
-4.33508
11
5.92691
21
-4.34184
0
LINE
8
BLACK
6
CONTINUOUS
10
5.92691
20
-4.34184
11
5.92771
21
-4.34896
0
LINE
8
BLACK
6
CONTINUOUS
10
5.92771
20
-4.34896
11
5.92691
21
-4.35608
0
LINE
8
BLACK
6
CONTINUOUS
10
5.92691
20
-4.35608
11
5.92454
21
-4.36284
0
LINE
8
BLACK
6
CONTINUOUS
10
5.92454
20
-4.36284
11
5.92073
21
-4.36891
0
LINE
8
BLACK
6
CONTINUOUS
10
5.92073
20
-4.36891
11
5.91566
21
-4.37398
0
LINE
8
BLACK
6
CONTINUOUS
10
5.91566
20
-4.37398
11
5.9096
21
-4.37779
0
LINE
8
BLACK
6
CONTINUOUS
10
5.9096
20
-4.37779
11
5.90283
21
-4.38016
0
LINE
8
BLACK
6
CONTINUOUS
10
5.90283
20
-4.38016
11
5.89571
21
-4.38096
0
LINE
8
BLACK
6
CONTINUOUS
10
5.89571
20
-4.38096
11
5.88859
21
-4.38016
0
LINE
8
BLACK
6
CONTINUOUS
10
5.88859
20
-4.38016
11
5.88183
21
-4.37779
0
LINE
8
BLACK
6
CONTINUOUS
10
5.88183
20
-4.37779
11
5.87576
21
-4.37398
0
LINE
8
BLACK
6
CONTINUOUS
10
5.87576
20
-4.37398
11
5.87069
21
-4.36891
0
LINE
8
BLACK
6
CONTINUOUS
10
5.87069
20
-4.36891
11
5.86688
21
-4.36284
0
LINE
8
BLACK
6
CONTINUOUS
10
5.86688
20
-4.36284
11
5.86451
21
-4.35608
0
LINE
8
BLACK
6
CONTINUOUS
10
5.86451
20
-4.35608
11
5.86371
21
-4.34896
0
LINE
8
BLACK
6
CONTINUOUS
10
5.86371
20
-4.34896
11
5.86451
21
-4.34184
0
LINE
8
BLACK
6
CONTINUOUS
10
5.86451
20
-4.34184
11
5.86688
21
-4.33508
0
LINE
8
BLACK
6
CONTINUOUS
10
5.86688
20
-4.33508
11
5.87069
21
-4.32901
0
LINE
8
BLACK
6
CONTINUOUS
10
5.87069
20
-4.32901
11
5.87576
21
-4.32394
0
LINE
8
BLACK
6
CONTINUOUS
10
5.87576
20
-4.32394
11
5.88183
21
-4.32013
0
LINE
8
BLACK
6
CONTINUOUS
10
5.88183
20
-4.32013
11
5.88859
21
-4.31776
0
LINE
8
BLACK
6
CONTINUOUS
10
5.88859
20
-4.31776
11
5.89571
21
-4.31696
0
LINE
8
BLACK
6
CONTINUOUS
10
5.89571
20
-4.31696
11
5.90283
21
-4.31776
0
LINE
8
BLACK
6
CONTINUOUS
10
6.23053
20
-4.2978
11
6.23183
21
-4.29867
0
LINE
8
BLACK
6
CONTINUOUS
10
6.23183
20
-4.29867
11
6.2327
21
-4.29997
0
LINE
8
BLACK
6
CONTINUOUS
10
6.2327
20
-4.29997
11
6.233
21
-4.3015
0
LINE
8
BLACK
6
CONTINUOUS
10
6.233
20
-4.3015
11
6.233
21
-4.3665
0
LINE
8
BLACK
6
CONTINUOUS
10
6.233
20
-4.3665
11
6.2327
21
-4.36803
0
LINE
8
BLACK
6
CONTINUOUS
10
6.2327
20
-4.36803
11
6.23183
21
-4.36933
0
LINE
8
BLACK
6
CONTINUOUS
10
6.23183
20
-4.36933
11
6.23053
21
-4.3702
0
LINE
8
BLACK
6
CONTINUOUS
10
6.23053
20
-4.3702
11
6.229
21
-4.3705
0
LINE
8
BLACK
6
CONTINUOUS
10
6.229
20
-4.3705
11
6.164
21
-4.3705
0
LINE
8
BLACK
6
CONTINUOUS
10
6.164
20
-4.3705
11
6.16247
21
-4.3702
0
LINE
8
BLACK
6
CONTINUOUS
10
6.16247
20
-4.3702
11
6.16117
21
-4.36933
0
LINE
8
BLACK
6
CONTINUOUS
10
6.16117
20
-4.36933
11
6.1603
21
-4.36803
0
LINE
8
BLACK
6
CONTINUOUS
10
6.1603
20
-4.36803
11
6.16
21
-4.3665
0
LINE
8
BLACK
6
CONTINUOUS
10
6.16
20
-4.3665
11
6.16
21
-4.3015
0
LINE
8
BLACK
6
CONTINUOUS
10
6.16
20
-4.3015
11
6.1603
21
-4.29997
0
LINE
8
BLACK
6
CONTINUOUS
10
6.1603
20
-4.29997
11
6.16117
21
-4.29867
0
LINE
8
BLACK
6
CONTINUOUS
10
6.16117
20
-4.29867
11
6.16247
21
-4.2978
0
LINE
8
BLACK
6
CONTINUOUS
10
6.16247
20
-4.2978
11
6.164
21
-4.2975
0
LINE
8
BLACK
6
CONTINUOUS
10
6.164
20
-4.2975
11
6.229
21
-4.2975
0
LINE
8
BLACK
6
CONTINUOUS
10
6.229
20
-4.2975
11
6.23053
21
-4.2978
0
LINE
8
BLACK
6
CONTINUOUS
10
6.33053
20
-4.2978
11
6.33183
21
-4.29867
0
LINE
8
BLACK
6
CONTINUOUS
10
6.33183
20
-4.29867
11
6.3327
21
-4.29997
0
LINE
8
BLACK
6
CONTINUOUS
10
6.3327
20
-4.29997
11
6.333
21
-4.3015
0
LINE
8
BLACK
6
CONTINUOUS
10
6.333
20
-4.3015
11
6.333
21
-4.3665
0
LINE
8
BLACK
6
CONTINUOUS
10
6.333
20
-4.3665
11
6.3327
21
-4.36803
0
LINE
8
BLACK
6
CONTINUOUS
10
6.3327
20
-4.36803
11
6.33183
21
-4.36933
0
LINE
8
BLACK
6
CONTINUOUS
10
6.33183
20
-4.36933
11
6.33053
21
-4.3702
0
LINE
8
BLACK
6
CONTINUOUS
10
6.33053
20
-4.3702
11
6.329
21
-4.3705
0
LINE
8
BLACK
6
CONTINUOUS
10
6.329
20
-4.3705
11
6.264
21
-4.3705
0
LINE
8
BLACK
6
CONTINUOUS
10
6.264
20
-4.3705
11
6.26247
21
-4.3702
0
LINE
8
BLACK
6
CONTINUOUS
10
6.26247
20
-4.3702
11
6.26117
21
-4.36933
0
LINE
8
BLACK
6
CONTINUOUS
10
6.26117
20
-4.36933
11
6.2603
21
-4.36803
0
LINE
8
BLACK
6
CONTINUOUS
10
6.2603
20
-4.36803
11
6.26
21
-4.3665
0
LINE
8
BLACK
6
CONTINUOUS
10
6.26
20
-4.3665
11
6.26
21
-4.3015
0
LINE
8
BLACK
6
CONTINUOUS
10
6.26
20
-4.3015
11
6.2603
21
-4.29997
0
LINE
8
BLACK
6
CONTINUOUS
10
6.2603
20
-4.29997
11
6.26117
21
-4.29867
0
LINE
8
BLACK
6
CONTINUOUS
10
6.26117
20
-4.29867
11
6.26247
21
-4.2978
0
LINE
8
BLACK
6
CONTINUOUS
10
6.26247
20
-4.2978
11
6.264
21
-4.2975
0
LINE
8
BLACK
6
CONTINUOUS
10
6.264
20
-4.2975
11
6.329
21
-4.2975
0
LINE
8
BLACK
6
CONTINUOUS
10
6.329
20
-4.2975
11
6.33053
21
-4.2978
0
LINE
8
BLACK
6
CONTINUOUS
10
6.23053
20
-4.1978
11
6.23183
21
-4.19867
0
LINE
8
BLACK
6
CONTINUOUS
10
6.23183
20
-4.19867
11
6.2327
21
-4.19997
0
LINE
8
BLACK
6
CONTINUOUS
10
6.2327
20
-4.19997
11
6.233
21
-4.2015
0
LINE
8
BLACK
6
CONTINUOUS
10
6.233
20
-4.2015
11
6.233
21
-4.2665
0
LINE
8
BLACK
6
CONTINUOUS
10
6.233
20
-4.2665
11
6.2327
21
-4.26803
0
LINE
8
BLACK
6
CONTINUOUS
10
6.2327
20
-4.26803
11
6.23183
21
-4.26933
0
LINE
8
BLACK
6
CONTINUOUS
10
6.23183
20
-4.26933
11
6.23053
21
-4.2702
0
LINE
8
BLACK
6
CONTINUOUS
10
6.23053
20
-4.2702
11
6.229
21
-4.2705
0
LINE
8
BLACK
6
CONTINUOUS
10
6.229
20
-4.2705
11
6.164
21
-4.2705
0
LINE
8
BLACK
6
CONTINUOUS
10
6.164
20
-4.2705
11
6.16247
21
-4.2702
0
LINE
8
BLACK
6
CONTINUOUS
10
6.16247
20
-4.2702
11
6.16117
21
-4.26933
0
LINE
8
BLACK
6
CONTINUOUS
10
6.16117
20
-4.26933
11
6.1603
21
-4.26803
0
LINE
8
BLACK
6
CONTINUOUS
10
6.1603
20
-4.26803
11
6.16
21
-4.2665
0
LINE
8
BLACK
6
CONTINUOUS
10
6.16
20
-4.2665
11
6.16
21
-4.2015
0
LINE
8
BLACK
6
CONTINUOUS
10
6.16
20
-4.2015
11
6.1603
21
-4.19997
0
LINE
8
BLACK
6
CONTINUOUS
10
6.1603
20
-4.19997
11
6.16117
21
-4.19867
0
LINE
8
BLACK
6
CONTINUOUS
10
6.16117
20
-4.19867
11
6.16247
21
-4.1978
0
LINE
8
BLACK
6
CONTINUOUS
10
6.16247
20
-4.1978
11
6.164
21
-4.1975
0
LINE
8
BLACK
6
CONTINUOUS
10
6.164
20
-4.1975
11
6.229
21
-4.1975
0
LINE
8
BLACK
6
CONTINUOUS
10
6.229
20
-4.1975
11
6.23053
21
-4.1978
0
LINE
8
BLACK
6
CONTINUOUS
10
6.33053
20
-4.1978
11
6.33183
21
-4.19867
0
LINE
8
BLACK
6
CONTINUOUS
10
6.33183
20
-4.19867
11
6.3327
21
-4.19997
0
LINE
8
BLACK
6
CONTINUOUS
10
6.3327
20
-4.19997
11
6.333
21
-4.2015
0
LINE
8
BLACK
6
CONTINUOUS
10
6.333
20
-4.2015
11
6.333
21
-4.2665
0
LINE
8
BLACK
6
CONTINUOUS
10
6.333
20
-4.2665
11
6.3327
21
-4.26803
0
LINE
8
BLACK
6
CONTINUOUS
10
6.3327
20
-4.26803
11
6.33183
21
-4.26933
0
LINE
8
BLACK
6
CONTINUOUS
10
6.33183
20
-4.26933
11
6.33053
21
-4.2702
0
LINE
8
BLACK
6
CONTINUOUS
10
6.33053
20
-4.2702
11
6.329
21
-4.2705
0
LINE
8
BLACK
6
CONTINUOUS
10
6.329
20
-4.2705
11
6.264
21
-4.2705
0
LINE
8
BLACK
6
CONTINUOUS
10
6.264
20
-4.2705
11
6.26247
21
-4.2702
0
LINE
8
BLACK
6
CONTINUOUS
10
6.26247
20
-4.2702
11
6.26117
21
-4.26933
0
LINE
8
BLACK
6
CONTINUOUS
10
6.26117
20
-4.26933
11
6.2603
21
-4.26803
0
LINE
8
BLACK
6
CONTINUOUS
10
6.2603
20
-4.26803
11
6.26
21
-4.2665
0
LINE
8
BLACK
6
CONTINUOUS
10
6.26
20
-4.2665
11
6.26
21
-4.2015
0
LINE
8
BLACK
6
CONTINUOUS
10
6.26
20
-4.2015
11
6.2603
21
-4.19997
0
LINE
8
BLACK
6
CONTINUOUS
10
6.2603
20
-4.19997
11
6.26117
21
-4.19867
0
LINE
8
BLACK
6
CONTINUOUS
10
6.26117
20
-4.19867
11
6.26247
21
-4.1978
0
LINE
8
BLACK
6
CONTINUOUS
10
6.26247
20
-4.1978
11
6.264
21
-4.1975
0
LINE
8
BLACK
6
CONTINUOUS
10
6.264
20
-4.1975
11
6.329
21
-4.1975
0
LINE
8
BLACK
6
CONTINUOUS
10
6.329
20
-4.1975
11
6.33053
21
-4.1978
0
LINE
8
BLACK
6
CONTINUOUS
10
5.43105
20
-4.06664
11
5.44036
21
-4.06888
0
LINE
8
BLACK
6
CONTINUOUS
10
5.44036
20
-4.06888
11
5.4492
21
-4.07254
0
LINE
8
BLACK
6
CONTINUOUS
10
5.4492
20
-4.07254
11
5.45737
21
-4.07754
0
LINE
8
BLACK
6
CONTINUOUS
10
5.45737
20
-4.07754
11
5.46465
21
-4.08376
0
LINE
8
BLACK
6
CONTINUOUS
10
5.46465
20
-4.08376
11
5.47087
21
-4.09104
0
LINE
8
BLACK
6
CONTINUOUS
10
5.47087
20
-4.09104
11
5.47587
21
-4.09921
0
LINE
8
BLACK
6
CONTINUOUS
10
5.47587
20
-4.09921
11
5.47954
21
-4.10806
0
LINE
8
BLACK
6
CONTINUOUS
10
5.47954
20
-4.10806
11
5.48177
21
-4.11737
0
LINE
8
BLACK
6
CONTINUOUS
10
5.48177
20
-4.11737
11
5.48252
21
-4.12691
0
LINE
8
BLACK
6
CONTINUOUS
10
5.48252
20
-4.12691
11
5.48177
21
-4.13646
0
LINE
8
BLACK
6
CONTINUOUS
10
5.48177
20
-4.13646
11
5.47954
21
-4.14577
0
LINE
8
BLACK
6
CONTINUOUS
10
5.47954
20
-4.14577
11
5.47587
21
-4.15462
0
LINE
8
BLACK
6
CONTINUOUS
10
5.47587
20
-4.15462
11
5.47087
21
-4.16278
0
LINE
8
BLACK
6
CONTINUOUS
10
5.47087
20
-4.16278
11
5.46465
21
-4.17006
0
LINE
8
BLACK
6
CONTINUOUS
10
5.46465
20
-4.17006
11
5.45737
21
-4.17628
0
LINE
8
BLACK
6
CONTINUOUS
10
5.45737
20
-4.17628
11
5.4492
21
-4.18129
0
LINE
8
BLACK
6
CONTINUOUS
10
5.4492
20
-4.18129
11
5.44036
21
-4.18495
0
LINE
8
BLACK
6
CONTINUOUS
10
5.44036
20
-4.18495
11
5.43105
21
-4.18719
0
LINE
8
BLACK
6
CONTINUOUS
10
5.43105
20
-4.18719
11
5.4215
21
-4.18794
0
LINE
8
BLACK
6
CONTINUOUS
10
5.4215
20
-4.18794
11
5.41195
21
-4.18719
0
LINE
8
BLACK
6
CONTINUOUS
10
5.41195
20
-4.18719
11
5.40264
21
-4.18495
0
LINE
8
BLACK
6
CONTINUOUS
10
5.40264
20
-4.18495
11
5.3938
21
-4.18129
0
LINE
8
BLACK
6
CONTINUOUS
10
5.3938
20
-4.18129
11
5.38563
21
-4.17628
0
LINE
8
BLACK
6
CONTINUOUS
10
5.38563
20
-4.17628
11
5.37835
21
-4.17006
0
LINE
8
BLACK
6
CONTINUOUS
10
5.37835
20
-4.17006
11
5.37213
21
-4.16278
0
LINE
8
BLACK
6
CONTINUOUS
10
5.37213
20
-4.16278
11
5.36713
21
-4.15462
0
LINE
8
BLACK
6
CONTINUOUS
10
5.36713
20
-4.15462
11
5.36346
21
-4.14577
0
LINE
8
BLACK
6
CONTINUOUS
10
5.36346
20
-4.14577
11
5.36123
21
-4.13646
0
LINE
8
BLACK
6
CONTINUOUS
10
5.36123
20
-4.13646
11
5.36048
21
-4.12691
0
LINE
8
BLACK
6
CONTINUOUS
10
5.36048
20
-4.12691
11
5.36123
21
-4.11737
0
LINE
8
BLACK
6
CONTINUOUS
10
5.36123
20
-4.11737
11
5.36346
21
-4.10806
0
LINE
8
BLACK
6
CONTINUOUS
10
5.36346
20
-4.10806
11
5.36713
21
-4.09921
0
LINE
8
BLACK
6
CONTINUOUS
10
5.36713
20
-4.09921
11
5.37213
21
-4.09104
0
LINE
8
BLACK
6
CONTINUOUS
10
5.37213
20
-4.09104
11
5.37835
21
-4.08376
0
LINE
8
BLACK
6
CONTINUOUS
10
5.37835
20
-4.08376
11
5.38563
21
-4.07754
0
LINE
8
BLACK
6
CONTINUOUS
10
5.38563
20
-4.07754
11
5.3938
21
-4.07254
0
LINE
8
BLACK
6
CONTINUOUS
10
5.3938
20
-4.07254
11
5.40264
21
-4.06888
0
LINE
8
BLACK
6
CONTINUOUS
10
5.40264
20
-4.06888
11
5.41195
21
-4.06664
0
LINE
8
BLACK
6
CONTINUOUS
10
5.41195
20
-4.06664
11
5.4215
21
-4.06589
0
LINE
8
BLACK
6
CONTINUOUS
10
5.4215
20
-4.06589
11
5.43105
21
-4.06664
0
LINE
8
BLACK
6
CONTINUOUS
10
6.23053
20
-4.0978
11
6.23183
21
-4.09867
0
LINE
8
BLACK
6
CONTINUOUS
10
6.23183
20
-4.09867
11
6.2327
21
-4.09997
0
LINE
8
BLACK
6
CONTINUOUS
10
6.2327
20
-4.09997
11
6.233
21
-4.1015
0
LINE
8
BLACK
6
CONTINUOUS
10
6.233
20
-4.1015
11
6.233
21
-4.1665
0
LINE
8
BLACK
6
CONTINUOUS
10
6.233
20
-4.1665
11
6.2327
21
-4.16803
0
LINE
8
BLACK
6
CONTINUOUS
10
6.2327
20
-4.16803
11
6.23183
21
-4.16933
0
LINE
8
BLACK
6
CONTINUOUS
10
6.23183
20
-4.16933
11
6.23053
21
-4.1702
0
LINE
8
BLACK
6
CONTINUOUS
10
6.23053
20
-4.1702
11
6.229
21
-4.1705
0
LINE
8
BLACK
6
CONTINUOUS
10
6.229
20
-4.1705
11
6.164
21
-4.1705
0
LINE
8
BLACK
6
CONTINUOUS
10
6.164
20
-4.1705
11
6.16247
21
-4.1702
0
LINE
8
BLACK
6
CONTINUOUS
10
6.16247
20
-4.1702
11
6.16117
21
-4.16933
0
LINE
8
BLACK
6
CONTINUOUS
10
6.16117
20
-4.16933
11
6.1603
21
-4.16803
0
LINE
8
BLACK
6
CONTINUOUS
10
6.1603
20
-4.16803
11
6.16
21
-4.1665
0
LINE
8
BLACK
6
CONTINUOUS
10
6.16
20
-4.1665
11
6.16
21
-4.1015
0
LINE
8
BLACK
6
CONTINUOUS
10
6.16
20
-4.1015
11
6.1603
21
-4.09997
0
LINE
8
BLACK
6
CONTINUOUS
10
6.1603
20
-4.09997
11
6.16117
21
-4.09867
0
LINE
8
BLACK
6
CONTINUOUS
10
6.16117
20
-4.09867
11
6.16247
21
-4.0978
0
LINE
8
BLACK
6
CONTINUOUS
10
6.16247
20
-4.0978
11
6.164
21
-4.0975
0
LINE
8
BLACK
6
CONTINUOUS
10
6.164
20
-4.0975
11
6.229
21
-4.0975
0
LINE
8
BLACK
6
CONTINUOUS
10
6.229
20
-4.0975
11
6.23053
21
-4.0978
0
LINE
8
BLACK
6
CONTINUOUS
10
6.33053
20
-4.0978
11
6.33183
21
-4.09867
0
LINE
8
BLACK
6
CONTINUOUS
10
6.33183
20
-4.09867
11
6.3327
21
-4.09997
0
LINE
8
BLACK
6
CONTINUOUS
10
6.3327
20
-4.09997
11
6.333
21
-4.1015
0
LINE
8
BLACK
6
CONTINUOUS
10
6.333
20
-4.1015
11
6.333
21
-4.1665
0
LINE
8
BLACK
6
CONTINUOUS
10
6.333
20
-4.1665
11
6.3327
21
-4.16803
0
LINE
8
BLACK
6
CONTINUOUS
10
6.3327
20
-4.16803
11
6.33183
21
-4.16933
0
LINE
8
BLACK
6
CONTINUOUS
10
6.33183
20
-4.16933
11
6.33053
21
-4.1702
0
LINE
8
BLACK
6
CONTINUOUS
10
6.33053
20
-4.1702
11
6.329
21
-4.1705
0
LINE
8
BLACK
6
CONTINUOUS
10
6.329
20
-4.1705
11
6.264
21
-4.1705
0
LINE
8
BLACK
6
CONTINUOUS
10
6.264
20
-4.1705
11
6.26247
21
-4.1702
0
LINE
8
BLACK
6
CONTINUOUS
10
6.26247
20
-4.1702
11
6.26117
21
-4.16933
0
LINE
8
BLACK
6
CONTINUOUS
10
6.26117
20
-4.16933
11
6.2603
21
-4.16803
0
LINE
8
BLACK
6
CONTINUOUS
10
6.2603
20
-4.16803
11
6.26
21
-4.1665
0
LINE
8
BLACK
6
CONTINUOUS
10
6.26
20
-4.1665
11
6.26
21
-4.1015
0
LINE
8
BLACK
6
CONTINUOUS
10
6.26
20
-4.1015
11
6.2603
21
-4.09997
0
LINE
8
BLACK
6
CONTINUOUS
10
6.2603
20
-4.09997
11
6.26117
21
-4.09867
0
LINE
8
BLACK
6
CONTINUOUS
10
6.26117
20
-4.09867
11
6.26247
21
-4.0978
0
LINE
8
BLACK
6
CONTINUOUS
10
6.26247
20
-4.0978
11
6.264
21
-4.0975
0
LINE
8
BLACK
6
CONTINUOUS
10
6.264
20
-4.0975
11
6.329
21
-4.0975
0
LINE
8
BLACK
6
CONTINUOUS
10
6.329
20
-4.0975
11
6.33053
21
-4.0978
0
LINE
8
BLACK
6
CONTINUOUS
10
5.61803
20
-4.0853
11
5.61933
21
-4.08617
0
LINE
8
BLACK
6
CONTINUOUS
10
5.61933
20
-4.08617
11
5.6202
21
-4.08747
0
LINE
8
BLACK
6
CONTINUOUS
10
5.6202
20
-4.08747
11
5.6205
21
-4.089
0
LINE
8
BLACK
6
CONTINUOUS
10
5.6205
20
-4.089
11
5.6205
21
-4.154
0
LINE
8
BLACK
6
CONTINUOUS
10
5.6205
20
-4.154
11
5.6202
21
-4.15553
0
LINE
8
BLACK
6
CONTINUOUS
10
5.6202
20
-4.15553
11
5.61933
21
-4.15683
0
LINE
8
BLACK
6
CONTINUOUS
10
5.61933
20
-4.15683
11
5.61803
21
-4.1577
0
LINE
8
BLACK
6
CONTINUOUS
10
5.61803
20
-4.1577
11
5.6165
21
-4.158
0
LINE
8
BLACK
6
CONTINUOUS
10
5.6165
20
-4.158
11
5.5515
21
-4.158
0
LINE
8
BLACK
6
CONTINUOUS
10
5.5515
20
-4.158
11
5.54997
21
-4.1577
0
LINE
8
BLACK
6
CONTINUOUS
10
5.54997
20
-4.1577
11
5.54867
21
-4.15683
0
LINE
8
BLACK
6
CONTINUOUS
10
5.54867
20
-4.15683
11
5.5478
21
-4.15553
0
LINE
8
BLACK
6
CONTINUOUS
10
5.5478
20
-4.15553
11
5.5475
21
-4.154
0
LINE
8
BLACK
6
CONTINUOUS
10
5.5475
20
-4.154
11
5.5475
21
-4.089
0
LINE
8
BLACK
6
CONTINUOUS
10
5.5475
20
-4.089
11
5.5478
21
-4.08747
0
LINE
8
BLACK
6
CONTINUOUS
10
5.5478
20
-4.08747
11
5.54867
21
-4.08617
0
LINE
8
BLACK
6
CONTINUOUS
10
5.54867
20
-4.08617
11
5.54997
21
-4.0853
0
LINE
8
BLACK
6
CONTINUOUS
10
5.54997
20
-4.0853
11
5.5515
21
-4.085
0
LINE
8
BLACK
6
CONTINUOUS
10
5.5515
20
-4.085
11
5.6165
21
-4.085
0
LINE
8
BLACK
6
CONTINUOUS
10
5.6165
20
-4.085
11
5.61803
21
-4.0853
0
LINE
8
BLACK
6
CONTINUOUS
10
5.71803
20
-4.0853
11
5.71933
21
-4.08617
0
LINE
8
BLACK
6
CONTINUOUS
10
5.71933
20
-4.08617
11
5.7202
21
-4.08747
0
LINE
8
BLACK
6
CONTINUOUS
10
5.7202
20
-4.08747
11
5.7205
21
-4.089
0
LINE
8
BLACK
6
CONTINUOUS
10
5.7205
20
-4.089
11
5.7205
21
-4.154
0
LINE
8
BLACK
6
CONTINUOUS
10
5.7205
20
-4.154
11
5.7202
21
-4.15553
0
LINE
8
BLACK
6
CONTINUOUS
10
5.7202
20
-4.15553
11
5.71933
21
-4.15683
0
LINE
8
BLACK
6
CONTINUOUS
10
5.71933
20
-4.15683
11
5.71803
21
-4.1577
0
LINE
8
BLACK
6
CONTINUOUS
10
5.71803
20
-4.1577
11
5.7165
21
-4.158
0
LINE
8
BLACK
6
CONTINUOUS
10
5.7165
20
-4.158
11
5.6515
21
-4.158
0
LINE
8
BLACK
6
CONTINUOUS
10
5.6515
20
-4.158
11
5.64997
21
-4.1577
0
LINE
8
BLACK
6
CONTINUOUS
10
5.64997
20
-4.1577
11
5.64867
21
-4.15683
0
LINE
8
BLACK
6
CONTINUOUS
10
5.64867
20
-4.15683
11
5.6478
21
-4.15553
0
LINE
8
BLACK
6
CONTINUOUS
10
5.6478
20
-4.15553
11
5.6475
21
-4.154
0
LINE
8
BLACK
6
CONTINUOUS
10
5.6475
20
-4.154
11
5.6475
21
-4.089
0
LINE
8
BLACK
6
CONTINUOUS
10
5.6475
20
-4.089
11
5.6478
21
-4.08747
0
LINE
8
BLACK
6
CONTINUOUS
10
5.6478
20
-4.08747
11
5.64867
21
-4.08617
0
LINE
8
BLACK
6
CONTINUOUS
10
5.64867
20
-4.08617
11
5.64997
21
-4.0853
0
LINE
8
BLACK
6
CONTINUOUS
10
5.64997
20
-4.0853
11
5.6515
21
-4.085
0
LINE
8
BLACK
6
CONTINUOUS
10
5.6515
20
-4.085
11
5.7165
21
-4.085
0
LINE
8
BLACK
6
CONTINUOUS
10
5.7165
20
-4.085
11
5.71803
21
-4.0853
0
LINE
8
BLACK
6
CONTINUOUS
10
5.81803
20
-4.0853
11
5.81933
21
-4.08617
0
LINE
8
BLACK
6
CONTINUOUS
10
5.81933
20
-4.08617
11
5.8202
21
-4.08747
0
LINE
8
BLACK
6
CONTINUOUS
10
5.8202
20
-4.08747
11
5.8205
21
-4.089
0
LINE
8
BLACK
6
CONTINUOUS
10
5.8205
20
-4.089
11
5.8205
21
-4.154
0
LINE
8
BLACK
6
CONTINUOUS
10
5.8205
20
-4.154
11
5.8202
21
-4.15553
0
LINE
8
BLACK
6
CONTINUOUS
10
5.8202
20
-4.15553
11
5.81933
21
-4.15683
0
LINE
8
BLACK
6
CONTINUOUS
10
5.81933
20
-4.15683
11
5.81803
21
-4.1577
0
LINE
8
BLACK
6
CONTINUOUS
10
5.81803
20
-4.1577
11
5.8165
21
-4.158
0
LINE
8
BLACK
6
CONTINUOUS
10
5.8165
20
-4.158
11
5.7515
21
-4.158
0
LINE
8
BLACK
6
CONTINUOUS
10
5.7515
20
-4.158
11
5.74997
21
-4.1577
0
LINE
8
BLACK
6
CONTINUOUS
10
5.74997
20
-4.1577
11
5.74867
21
-4.15683
0
LINE
8
BLACK
6
CONTINUOUS
10
5.74867
20
-4.15683
11
5.7478
21
-4.15553
0
LINE
8
BLACK
6
CONTINUOUS
10
5.7478
20
-4.15553
11
5.7475
21
-4.154
0
LINE
8
BLACK
6
CONTINUOUS
10
5.7475
20
-4.154
11
5.7475
21
-4.089
0
LINE
8
BLACK
6
CONTINUOUS
10
5.7475
20
-4.089
11
5.7478
21
-4.08747
0
LINE
8
BLACK
6
CONTINUOUS
10
5.7478
20
-4.08747
11
5.74867
21
-4.08617
0
LINE
8
BLACK
6
CONTINUOUS
10
5.74867
20
-4.08617
11
5.74997
21
-4.0853
0
LINE
8
BLACK
6
CONTINUOUS
10
5.74997
20
-4.0853
11
5.7515
21
-4.085
0
LINE
8
BLACK
6
CONTINUOUS
10
5.7515
20
-4.085
11
5.8165
21
-4.085
0
LINE
8
BLACK
6
CONTINUOUS
10
5.8165
20
-4.085
11
5.81803
21
-4.0853
0
LINE
8
BLACK
6
CONTINUOUS
10
5.75553
20
-3.9353
11
5.75683
21
-3.93617
0
LINE
8
BLACK
6
CONTINUOUS
10
5.75683
20
-3.93617
11
5.7577
21
-3.93747
0
LINE
8
BLACK
6
CONTINUOUS
10
5.7577
20
-3.93747
11
5.758
21
-3.939
0
LINE
8
BLACK
6
CONTINUOUS
10
5.758
20
-3.939
11
5.758
21
-4.004
0
LINE
8
BLACK
6
CONTINUOUS
10
5.758
20
-4.004
11
5.7577
21
-4.00553
0
LINE
8
BLACK
6
CONTINUOUS
10
5.7577
20
-4.00553
11
5.75683
21
-4.00683
0
LINE
8
BLACK
6
CONTINUOUS
10
5.75683
20
-4.00683
11
5.75553
21
-4.0077
0
LINE
8
BLACK
6
CONTINUOUS
10
5.75553
20
-4.0077
11
5.754
21
-4.008
0
LINE
8
BLACK
6
CONTINUOUS
10
5.754
20
-4.008
11
5.689
21
-4.008
0
LINE
8
BLACK
6
CONTINUOUS
10
5.689
20
-4.008
11
5.68747
21
-4.0077
0
LINE
8
BLACK
6
CONTINUOUS
10
5.68747
20
-4.0077
11
5.68617
21
-4.00683
0
LINE
8
BLACK
6
CONTINUOUS
10
5.68617
20
-4.00683
11
5.6853
21
-4.00553
0
LINE
8
BLACK
6
CONTINUOUS
10
5.6853
20
-4.00553
11
5.685
21
-4.004
0
LINE
8
BLACK
6
CONTINUOUS
10
5.685
20
-4.004
11
5.685
21
-3.939
0
LINE
8
BLACK
6
CONTINUOUS
10
5.685
20
-3.939
11
5.6853
21
-3.93747
0
LINE
8
BLACK
6
CONTINUOUS
10
5.6853
20
-3.93747
11
5.68617
21
-3.93617
0
LINE
8
BLACK
6
CONTINUOUS
10
5.68617
20
-3.93617
11
5.68747
21
-3.9353
0
LINE
8
BLACK
6
CONTINUOUS
10
5.68747
20
-3.9353
11
5.689
21
-3.935
0
LINE
8
BLACK
6
CONTINUOUS
10
5.689
20
-3.935
11
5.754
21
-3.935
0
LINE
8
BLACK
6
CONTINUOUS
10
5.754
20
-3.935
11
5.75553
21
-3.9353
0
LINE
8
BLACK
6
CONTINUOUS
10
6.23053
20
-3.92905
11
6.23183
21
-3.92992
0
LINE
8
BLACK
6
CONTINUOUS
10
6.23183
20
-3.92992
11
6.2327
21
-3.93122
0
LINE
8
BLACK
6
CONTINUOUS
10
6.2327
20
-3.93122
11
6.233
21
-3.93275
0
LINE
8
BLACK
6
CONTINUOUS
10
6.233
20
-3.93275
11
6.233
21
-3.99775
0
LINE
8
BLACK
6
CONTINUOUS
10
6.233
20
-3.99775
11
6.2327
21
-3.99928
0
LINE
8
BLACK
6
CONTINUOUS
10
6.2327
20
-3.99928
11
6.23183
21
-4.00058
0
LINE
8
BLACK
6
CONTINUOUS
10
6.23183
20
-4.00058
11
6.23053
21
-4.00145
0
LINE
8
BLACK
6
CONTINUOUS
10
6.23053
20
-4.00145
11
6.229
21
-4.00175
0
LINE
8
BLACK
6
CONTINUOUS
10
6.229
20
-4.00175
11
6.164
21
-4.00175
0
LINE
8
BLACK
6
CONTINUOUS
10
6.164
20
-4.00175
11
6.16247
21
-4.00145
0
LINE
8
BLACK
6
CONTINUOUS
10
6.16247
20
-4.00145
11
6.16117
21
-4.00058
0
LINE
8
BLACK
6
CONTINUOUS
10
6.16117
20
-4.00058
11
6.1603
21
-3.99928
0
LINE
8
BLACK
6
CONTINUOUS
10
6.1603
20
-3.99928
11
6.16
21
-3.99775
0
LINE
8
BLACK
6
CONTINUOUS
10
6.16
20
-3.99775
11
6.16
21
-3.93275
0
LINE
8
BLACK
6
CONTINUOUS
10
6.16
20
-3.93275
11
6.1603
21
-3.93122
0
LINE
8
BLACK
6
CONTINUOUS
10
6.1603
20
-3.93122
11
6.16117
21
-3.92992
0
LINE
8
BLACK
6
CONTINUOUS
10
6.16117
20
-3.92992
11
6.16247
21
-3.92905
0
LINE
8
BLACK
6
CONTINUOUS
10
6.16247
20
-3.92905
11
6.164
21
-3.92875
0
LINE
8
BLACK
6
CONTINUOUS
10
6.164
20
-3.92875
11
6.229
21
-3.92875
0
LINE
8
BLACK
6
CONTINUOUS
10
6.229
20
-3.92875
11
6.23053
21
-3.92905
0
LINE
8
BLACK
6
CONTINUOUS
10
6.33053
20
-3.92905
11
6.33183
21
-3.92992
0
LINE
8
BLACK
6
CONTINUOUS
10
6.33183
20
-3.92992
11
6.3327
21
-3.93122
0
LINE
8
BLACK
6
CONTINUOUS
10
6.3327
20
-3.93122
11
6.333
21
-3.93275
0
LINE
8
BLACK
6
CONTINUOUS
10
6.333
20
-3.93275
11
6.333
21
-3.99775
0
LINE
8
BLACK
6
CONTINUOUS
10
6.333
20
-3.99775
11
6.3327
21
-3.99928
0
LINE
8
BLACK
6
CONTINUOUS
10
6.3327
20
-3.99928
11
6.33183
21
-4.00058
0
LINE
8
BLACK
6
CONTINUOUS
10
6.33183
20
-4.00058
11
6.33053
21
-4.00145
0
LINE
8
BLACK
6
CONTINUOUS
10
6.33053
20
-4.00145
11
6.329
21
-4.00175
0
LINE
8
BLACK
6
CONTINUOUS
10
6.329
20
-4.00175
11
6.264
21
-4.00175
0
LINE
8
BLACK
6
CONTINUOUS
10
6.264
20
-4.00175
11
6.26247
21
-4.00145
0
LINE
8
BLACK
6
CONTINUOUS
10
6.26247
20
-4.00145
11
6.26117
21
-4.00058
0
LINE
8
BLACK
6
CONTINUOUS
10
6.26117
20
-4.00058
11
6.2603
21
-3.99928
0
LINE
8
BLACK
6
CONTINUOUS
10
6.2603
20
-3.99928
11
6.26
21
-3.99775
0
LINE
8
BLACK
6
CONTINUOUS
10
6.26
20
-3.99775
11
6.26
21
-3.93275
0
LINE
8
BLACK
6
CONTINUOUS
10
6.26
20
-3.93275
11
6.2603
21
-3.93122
0
LINE
8
BLACK
6
CONTINUOUS
10
6.2603
20
-3.93122
11
6.26117
21
-3.92992
0
LINE
8
BLACK
6
CONTINUOUS
10
6.26117
20
-3.92992
11
6.26247
21
-3.92905
0
LINE
8
BLACK
6
CONTINUOUS
10
6.26247
20
-3.92905
11
6.264
21
-3.92875
0
LINE
8
BLACK
6
CONTINUOUS
10
6.264
20
-3.92875
11
6.329
21
-3.92875
0
LINE
8
BLACK
6
CONTINUOUS
10
6.329
20
-3.92875
11
6.33053
21
-3.92905
0
LINE
8
BLACK
6
CONTINUOUS
10
5.43053
20
-3.8978
11
5.43183
21
-3.89867
0
LINE
8
BLACK
6
CONTINUOUS
10
5.43183
20
-3.89867
11
5.4327
21
-3.89997
0
LINE
8
BLACK
6
CONTINUOUS
10
5.4327
20
-3.89997
11
5.433
21
-3.9015
0
LINE
8
BLACK
6
CONTINUOUS
10
5.433
20
-3.9015
11
5.433
21
-3.9665
0
LINE
8
BLACK
6
CONTINUOUS
10
5.433
20
-3.9665
11
5.4327
21
-3.96803
0
LINE
8
BLACK
6
CONTINUOUS
10
5.4327
20
-3.96803
11
5.43183
21
-3.96933
0
LINE
8
BLACK
6
CONTINUOUS
10
5.43183
20
-3.96933
11
5.43053
21
-3.9702
0
LINE
8
BLACK
6
CONTINUOUS
10
5.43053
20
-3.9702
11
5.429
21
-3.9705
0
LINE
8
BLACK
6
CONTINUOUS
10
5.429
20
-3.9705
11
5.364
21
-3.9705
0
LINE
8
BLACK
6
CONTINUOUS
10
5.364
20
-3.9705
11
5.36247
21
-3.9702
0
LINE
8
BLACK
6
CONTINUOUS
10
5.36247
20
-3.9702
11
5.36117
21
-3.96933
0
LINE
8
BLACK
6
CONTINUOUS
10
5.36117
20
-3.96933
11
5.3603
21
-3.96803
0
LINE
8
BLACK
6
CONTINUOUS
10
5.3603
20
-3.96803
11
5.36
21
-3.9665
0
LINE
8
BLACK
6
CONTINUOUS
10
5.36
20
-3.9665
11
5.36
21
-3.9015
0
LINE
8
BLACK
6
CONTINUOUS
10
5.36
20
-3.9015
11
5.3603
21
-3.89997
0
LINE
8
BLACK
6
CONTINUOUS
10
5.3603
20
-3.89997
11
5.36117
21
-3.89867
0
LINE
8
BLACK
6
CONTINUOUS
10
5.36117
20
-3.89867
11
5.36247
21
-3.8978
0
LINE
8
BLACK
6
CONTINUOUS
10
5.36247
20
-3.8978
11
5.364
21
-3.8975
0
LINE
8
BLACK
6
CONTINUOUS
10
5.364
20
-3.8975
11
5.429
21
-3.8975
0
LINE
8
BLACK
6
CONTINUOUS
10
5.429
20
-3.8975
11
5.43053
21
-3.8978
0
LINE
8
BLACK
6
CONTINUOUS
10
5.53053
20
-3.8978
11
5.53183
21
-3.89867
0
LINE
8
BLACK
6
CONTINUOUS
10
5.53183
20
-3.89867
11
5.5327
21
-3.89997
0
LINE
8
BLACK
6
CONTINUOUS
10
5.5327
20
-3.89997
11
5.533
21
-3.9015
0
LINE
8
BLACK
6
CONTINUOUS
10
5.533
20
-3.9015
11
5.533
21
-3.9665
0
LINE
8
BLACK
6
CONTINUOUS
10
5.533
20
-3.9665
11
5.5327
21
-3.96803
0
LINE
8
BLACK
6
CONTINUOUS
10
5.5327
20
-3.96803
11
5.53183
21
-3.96933
0
LINE
8
BLACK
6
CONTINUOUS
10
5.53183
20
-3.96933
11
5.53053
21
-3.9702
0
LINE
8
BLACK
6
CONTINUOUS
10
5.53053
20
-3.9702
11
5.529
21
-3.9705
0
LINE
8
BLACK
6
CONTINUOUS
10
5.529
20
-3.9705
11
5.464
21
-3.9705
0
LINE
8
BLACK
6
CONTINUOUS
10
5.464
20
-3.9705
11
5.46247
21
-3.9702
0
LINE
8
BLACK
6
CONTINUOUS
10
5.46247
20
-3.9702
11
5.46117
21
-3.96933
0
LINE
8
BLACK
6
CONTINUOUS
10
5.46117
20
-3.96933
11
5.4603
21
-3.96803
0
LINE
8
BLACK
6
CONTINUOUS
10
5.4603
20
-3.96803
11
5.46
21
-3.9665
0
LINE
8
BLACK
6
CONTINUOUS
10
5.46
20
-3.9665
11
5.46
21
-3.9015
0
LINE
8
BLACK
6
CONTINUOUS
10
5.46
20
-3.9015
11
5.4603
21
-3.89997
0
LINE
8
BLACK
6
CONTINUOUS
10
5.4603
20
-3.89997
11
5.46117
21
-3.89867
0
LINE
8
BLACK
6
CONTINUOUS
10
5.46117
20
-3.89867
11
5.46247
21
-3.8978
0
LINE
8
BLACK
6
CONTINUOUS
10
5.46247
20
-3.8978
11
5.464
21
-3.8975
0
LINE
8
BLACK
6
CONTINUOUS
10
5.464
20
-3.8975
11
5.529
21
-3.8975
0
LINE
8
BLACK
6
CONTINUOUS
10
5.529
20
-3.8975
11
5.53053
21
-3.8978
0
LINE
8
BLACK
6
CONTINUOUS
10
5.75553
20
-3.8353
11
5.75683
21
-3.83617
0
LINE
8
BLACK
6
CONTINUOUS
10
5.75683
20
-3.83617
11
5.7577
21
-3.83747
0
LINE
8
BLACK
6
CONTINUOUS
10
5.7577
20
-3.83747
11
5.758
21
-3.839
0
LINE
8
BLACK
6
CONTINUOUS
10
5.758
20
-3.839
11
5.758
21
-3.904
0
LINE
8
BLACK
6
CONTINUOUS
10
5.758
20
-3.904
11
5.7577
21
-3.90553
0
LINE
8
BLACK
6
CONTINUOUS
10
5.7577
20
-3.90553
11
5.75683
21
-3.90683
0
LINE
8
BLACK
6
CONTINUOUS
10
5.75683
20
-3.90683
11
5.75553
21
-3.9077
0
LINE
8
BLACK
6
CONTINUOUS
10
5.75553
20
-3.9077
11
5.754
21
-3.908
0
LINE
8
BLACK
6
CONTINUOUS
10
5.754
20
-3.908
11
5.689
21
-3.908
0
LINE
8
BLACK
6
CONTINUOUS
10
5.689
20
-3.908
11
5.68747
21
-3.9077
0
LINE
8
BLACK
6
CONTINUOUS
10
5.68747
20
-3.9077
11
5.68617
21
-3.90683
0
LINE
8
BLACK
6
CONTINUOUS
10
5.68617
20
-3.90683
11
5.6853
21
-3.90553
0
LINE
8
BLACK
6
CONTINUOUS
10
5.6853
20
-3.90553
11
5.685
21
-3.904
0
LINE
8
BLACK
6
CONTINUOUS
10
5.685
20
-3.904
11
5.685
21
-3.839
0
LINE
8
BLACK
6
CONTINUOUS
10
5.685
20
-3.839
11
5.6853
21
-3.83747
0
LINE
8
BLACK
6
CONTINUOUS
10
5.6853
20
-3.83747
11
5.68617
21
-3.83617
0
LINE
8
BLACK
6
CONTINUOUS
10
5.68617
20
-3.83617
11
5.68747
21
-3.8353
0
LINE
8
BLACK
6
CONTINUOUS
10
5.68747
20
-3.8353
11
5.689
21
-3.835
0
LINE
8
BLACK
6
CONTINUOUS
10
5.689
20
-3.835
11
5.754
21
-3.835
0
LINE
8
BLACK
6
CONTINUOUS
10
5.754
20
-3.835
11
5.75553
21
-3.8353
0
LINE
8
BLACK
6
CONTINUOUS
10
6.23053
20
-3.82905
11
6.23183
21
-3.82992
0
LINE
8
BLACK
6
CONTINUOUS
10
6.23183
20
-3.82992
11
6.2327
21
-3.83122
0
LINE
8
BLACK
6
CONTINUOUS
10
6.2327
20
-3.83122
11
6.233
21
-3.83275
0
LINE
8
BLACK
6
CONTINUOUS
10
6.233
20
-3.83275
11
6.233
21
-3.89775
0
LINE
8
BLACK
6
CONTINUOUS
10
6.233
20
-3.89775
11
6.2327
21
-3.89928
0
LINE
8
BLACK
6
CONTINUOUS
10
6.2327
20
-3.89928
11
6.23183
21
-3.90058
0
LINE
8
BLACK
6
CONTINUOUS
10
6.23183
20
-3.90058
11
6.23053
21
-3.90145
0
LINE
8
BLACK
6
CONTINUOUS
10
6.23053
20
-3.90145
11
6.229
21
-3.90175
0
LINE
8
BLACK
6
CONTINUOUS
10
6.229
20
-3.90175
11
6.164
21
-3.90175
0
LINE
8
BLACK
6
CONTINUOUS
10
6.164
20
-3.90175
11
6.16247
21
-3.90145
0
LINE
8
BLACK
6
CONTINUOUS
10
6.16247
20
-3.90145
11
6.16117
21
-3.90058
0
LINE
8
BLACK
6
CONTINUOUS
10
6.16117
20
-3.90058
11
6.1603
21
-3.89928
0
LINE
8
BLACK
6
CONTINUOUS
10
6.1603
20
-3.89928
11
6.16
21
-3.89775
0
LINE
8
BLACK
6
CONTINUOUS
10
6.16
20
-3.89775
11
6.16
21
-3.83275
0
LINE
8
BLACK
6
CONTINUOUS
10
6.16
20
-3.83275
11
6.1603
21
-3.83122
0
LINE
8
BLACK
6
CONTINUOUS
10
6.1603
20
-3.83122
11
6.16117
21
-3.82992
0
LINE
8
BLACK
6
CONTINUOUS
10
6.16117
20
-3.82992
11
6.16247
21
-3.82905
0
LINE
8
BLACK
6
CONTINUOUS
10
6.16247
20
-3.82905
11
6.164
21
-3.82875
0
LINE
8
BLACK
6
CONTINUOUS
10
6.164
20
-3.82875
11
6.229
21
-3.82875
0
LINE
8
BLACK
6
CONTINUOUS
10
6.229
20
-3.82875
11
6.23053
21
-3.82905
0
LINE
8
BLACK
6
CONTINUOUS
10
6.33053
20
-3.82905
11
6.33183
21
-3.82992
0
LINE
8
BLACK
6
CONTINUOUS
10
6.33183
20
-3.82992
11
6.3327
21
-3.83122
0
LINE
8
BLACK
6
CONTINUOUS
10
6.3327
20
-3.83122
11
6.333
21
-3.83275
0
LINE
8
BLACK
6
CONTINUOUS
10
6.333
20
-3.83275
11
6.333
21
-3.89775
0
LINE
8
BLACK
6
CONTINUOUS
10
6.333
20
-3.89775
11
6.3327
21
-3.89928
0
LINE
8
BLACK
6
CONTINUOUS
10
6.3327
20
-3.89928
11
6.33183
21
-3.90058
0
LINE
8
BLACK
6
CONTINUOUS
10
6.33183
20
-3.90058
11
6.33053
21
-3.90145
0
LINE
8
BLACK
6
CONTINUOUS
10
6.33053
20
-3.90145
11
6.329
21
-3.90175
0
LINE
8
BLACK
6
CONTINUOUS
10
6.329
20
-3.90175
11
6.264
21
-3.90175
0
LINE
8
BLACK
6
CONTINUOUS
10
6.264
20
-3.90175
11
6.26247
21
-3.90145
0
LINE
8
BLACK
6
CONTINUOUS
10
6.26247
20
-3.90145
11
6.26117
21
-3.90058
0
LINE
8
BLACK
6
CONTINUOUS
10
6.26117
20
-3.90058
11
6.2603
21
-3.89928
0
LINE
8
BLACK
6
CONTINUOUS
10
6.2603
20
-3.89928
11
6.26
21
-3.89775
0
LINE
8
BLACK
6
CONTINUOUS
10
6.26
20
-3.89775
11
6.26
21
-3.83275
0
LINE
8
BLACK
6
CONTINUOUS
10
6.26
20
-3.83275
11
6.2603
21
-3.83122
0
LINE
8
BLACK
6
CONTINUOUS
10
6.2603
20
-3.83122
11
6.26117
21
-3.82992
0
LINE
8
BLACK
6
CONTINUOUS
10
6.26117
20
-3.82992
11
6.26247
21
-3.82905
0
LINE
8
BLACK
6
CONTINUOUS
10
6.26247
20
-3.82905
11
6.264
21
-3.82875
0
LINE
8
BLACK
6
CONTINUOUS
10
6.264
20
-3.82875
11
6.329
21
-3.82875
0
LINE
8
BLACK
6
CONTINUOUS
10
6.329
20
-3.82875
11
6.33053
21
-3.82905
0
LINE
8
BLACK
6
CONTINUOUS
10
5.43053
20
-3.7978
11
5.43183
21
-3.79867
0
LINE
8
BLACK
6
CONTINUOUS
10
5.43183
20
-3.79867
11
5.4327
21
-3.79997
0
LINE
8
BLACK
6
CONTINUOUS
10
5.4327
20
-3.79997
11
5.433
21
-3.8015
0
LINE
8
BLACK
6
CONTINUOUS
10
5.433
20
-3.8015
11
5.433
21
-3.8665
0
LINE
8
BLACK
6
CONTINUOUS
10
5.433
20
-3.8665
11
5.4327
21
-3.86803
0
LINE
8
BLACK
6
CONTINUOUS
10
5.4327
20
-3.86803
11
5.43183
21
-3.86933
0
LINE
8
BLACK
6
CONTINUOUS
10
5.43183
20
-3.86933
11
5.43053
21
-3.8702
0
LINE
8
BLACK
6
CONTINUOUS
10
5.43053
20
-3.8702
11
5.429
21
-3.8705
0
LINE
8
BLACK
6
CONTINUOUS
10
5.429
20
-3.8705
11
5.364
21
-3.8705
0
LINE
8
BLACK
6
CONTINUOUS
10
5.364
20
-3.8705
11
5.36247
21
-3.8702
0
LINE
8
BLACK
6
CONTINUOUS
10
5.36247
20
-3.8702
11
5.36117
21
-3.86933
0
LINE
8
BLACK
6
CONTINUOUS
10
5.36117
20
-3.86933
11
5.3603
21
-3.86803
0
LINE
8
BLACK
6
CONTINUOUS
10
5.3603
20
-3.86803
11
5.36
21
-3.8665
0
LINE
8
BLACK
6
CONTINUOUS
10
5.36
20
-3.8665
11
5.36
21
-3.8015
0
LINE
8
BLACK
6
CONTINUOUS
10
5.36
20
-3.8015
11
5.3603
21
-3.79997
0
LINE
8
BLACK
6
CONTINUOUS
10
5.3603
20
-3.79997
11
5.36117
21
-3.79867
0
LINE
8
BLACK
6
CONTINUOUS
10
5.36117
20
-3.79867
11
5.36247
21
-3.7978
0
LINE
8
BLACK
6
CONTINUOUS
10
5.36247
20
-3.7978
11
5.364
21
-3.7975
0
LINE
8
BLACK
6
CONTINUOUS
10
5.364
20
-3.7975
11
5.429
21
-3.7975
0
LINE
8
BLACK
6
CONTINUOUS
10
5.429
20
-3.7975
11
5.43053
21
-3.7978
0
LINE
8
BLACK
6
CONTINUOUS
10
5.53053
20
-3.7978
11
5.53183
21
-3.79867
0
LINE
8
BLACK
6
CONTINUOUS
10
5.53183
20
-3.79867
11
5.5327
21
-3.79997
0
LINE
8
BLACK
6
CONTINUOUS
10
5.5327
20
-3.79997
11
5.533
21
-3.8015
0
LINE
8
BLACK
6
CONTINUOUS
10
5.533
20
-3.8015
11
5.533
21
-3.8665
0
LINE
8
BLACK
6
CONTINUOUS
10
5.533
20
-3.8665
11
5.5327
21
-3.86803
0
LINE
8
BLACK
6
CONTINUOUS
10
5.5327
20
-3.86803
11
5.53183
21
-3.86933
0
LINE
8
BLACK
6
CONTINUOUS
10
5.53183
20
-3.86933
11
5.53053
21
-3.8702
0
LINE
8
BLACK
6
CONTINUOUS
10
5.53053
20
-3.8702
11
5.529
21
-3.8705
0
LINE
8
BLACK
6
CONTINUOUS
10
5.529
20
-3.8705
11
5.464
21
-3.8705
0
LINE
8
BLACK
6
CONTINUOUS
10
5.464
20
-3.8705
11
5.46247
21
-3.8702
0
LINE
8
BLACK
6
CONTINUOUS
10
5.46247
20
-3.8702
11
5.46117
21
-3.86933
0
LINE
8
BLACK
6
CONTINUOUS
10
5.46117
20
-3.86933
11
5.4603
21
-3.86803
0
LINE
8
BLACK
6
CONTINUOUS
10
5.4603
20
-3.86803
11
5.46
21
-3.8665
0
LINE
8
BLACK
6
CONTINUOUS
10
5.46
20
-3.8665
11
5.46
21
-3.8015
0
LINE
8
BLACK
6
CONTINUOUS
10
5.46
20
-3.8015
11
5.4603
21
-3.79997
0
LINE
8
BLACK
6
CONTINUOUS
10
5.4603
20
-3.79997
11
5.46117
21
-3.79867
0
LINE
8
BLACK
6
CONTINUOUS
10
5.46117
20
-3.79867
11
5.46247
21
-3.7978
0
LINE
8
BLACK
6
CONTINUOUS
10
5.46247
20
-3.7978
11
5.464
21
-3.7975
0
LINE
8
BLACK
6
CONTINUOUS
10
5.464
20
-3.7975
11
5.529
21
-3.7975
0
LINE
8
BLACK
6
CONTINUOUS
10
5.529
20
-3.7975
11
5.53053
21
-3.7978
0
LINE
8
BLACK
6
CONTINUOUS
10
6.06178
20
-3.7353
11
6.06308
21
-3.73617
0
LINE
8
BLACK
6
CONTINUOUS
10
6.06308
20
-3.73617
11
6.06395
21
-3.73747
0
LINE
8
BLACK
6
CONTINUOUS
10
6.06395
20
-3.73747
11
6.06425
21
-3.739
0
LINE
8
BLACK
6
CONTINUOUS
10
6.06425
20
-3.739
11
6.06425
21
-3.804
0
LINE
8
BLACK
6
CONTINUOUS
10
6.06425
20
-3.804
11
6.06395
21
-3.80553
0
LINE
8
BLACK
6
CONTINUOUS
10
6.06395
20
-3.80553
11
6.06308
21
-3.80683
0
LINE
8
BLACK
6
CONTINUOUS
10
6.06308
20
-3.80683
11
6.06178
21
-3.8077
0
LINE
8
BLACK
6
CONTINUOUS
10
6.06178
20
-3.8077
11
6.06025
21
-3.808
0
LINE
8
BLACK
6
CONTINUOUS
10
6.06025
20
-3.808
11
5.99525
21
-3.808
0
LINE
8
BLACK
6
CONTINUOUS
10
5.99525
20
-3.808
11
5.99372
21
-3.8077
0
LINE
8
BLACK
6
CONTINUOUS
10
5.99372
20
-3.8077
11
5.99242
21
-3.80683
0
LINE
8
BLACK
6
CONTINUOUS
10
5.99242
20
-3.80683
11
5.99155
21
-3.80553
0
LINE
8
BLACK
6
CONTINUOUS
10
5.99155
20
-3.80553
11
5.99125
21
-3.804
0
LINE
8
BLACK
6
CONTINUOUS
10
5.99125
20
-3.804
11
5.99125
21
-3.739
0
LINE
8
BLACK
6
CONTINUOUS
10
5.99125
20
-3.739
11
5.99155
21
-3.73747
0
LINE
8
BLACK
6
CONTINUOUS
10
5.99155
20
-3.73747
11
5.99242
21
-3.73617
0
LINE
8
BLACK
6
CONTINUOUS
10
5.99242
20
-3.73617
11
5.99372
21
-3.7353
0
LINE
8
BLACK
6
CONTINUOUS
10
5.99372
20
-3.7353
11
5.99525
21
-3.735
0
LINE
8
BLACK
6
CONTINUOUS
10
5.99525
20
-3.735
11
6.06025
21
-3.735
0
LINE
8
BLACK
6
CONTINUOUS
10
6.06025
20
-3.735
11
6.06178
21
-3.7353
0
LINE
8
BLACK
6
CONTINUOUS
10
6.23053
20
-3.72905
11
6.23183
21
-3.72992
0
LINE
8
BLACK
6
CONTINUOUS
10
6.23183
20
-3.72992
11
6.2327
21
-3.73122
0
LINE
8
BLACK
6
CONTINUOUS
10
6.2327
20
-3.73122
11
6.233
21
-3.73275
0
LINE
8
BLACK
6
CONTINUOUS
10
6.233
20
-3.73275
11
6.233
21
-3.79775
0
LINE
8
BLACK
6
CONTINUOUS
10
6.233
20
-3.79775
11
6.2327
21
-3.79928
0
LINE
8
BLACK
6
CONTINUOUS
10
6.2327
20
-3.79928
11
6.23183
21
-3.80058
0
LINE
8
BLACK
6
CONTINUOUS
10
6.23183
20
-3.80058
11
6.23053
21
-3.80145
0
LINE
8
BLACK
6
CONTINUOUS
10
6.23053
20
-3.80145
11
6.229
21
-3.80175
0
LINE
8
BLACK
6
CONTINUOUS
10
6.229
20
-3.80175
11
6.164
21
-3.80175
0
LINE
8
BLACK
6
CONTINUOUS
10
6.164
20
-3.80175
11
6.16247
21
-3.80145
0
LINE
8
BLACK
6
CONTINUOUS
10
6.16247
20
-3.80145
11
6.16117
21
-3.80058
0
LINE
8
BLACK
6
CONTINUOUS
10
6.16117
20
-3.80058
11
6.1603
21
-3.79928
0
LINE
8
BLACK
6
CONTINUOUS
10
6.1603
20
-3.79928
11
6.16
21
-3.79775
0
LINE
8
BLACK
6
CONTINUOUS
10
6.16
20
-3.79775
11
6.16
21
-3.73275
0
LINE
8
BLACK
6
CONTINUOUS
10
6.16
20
-3.73275
11
6.1603
21
-3.73122
0
LINE
8
BLACK
6
CONTINUOUS
10
6.1603
20
-3.73122
11
6.16117
21
-3.72992
0
LINE
8
BLACK
6
CONTINUOUS
10
6.16117
20
-3.72992
11
6.16247
21
-3.72905
0
LINE
8
BLACK
6
CONTINUOUS
10
6.16247
20
-3.72905
11
6.164
21
-3.72875
0
LINE
8
BLACK
6
CONTINUOUS
10
6.164
20
-3.72875
11
6.229
21
-3.72875
0
LINE
8
BLACK
6
CONTINUOUS
10
6.229
20
-3.72875
11
6.23053
21
-3.72905
0
LINE
8
BLACK
6
CONTINUOUS
10
6.33053
20
-3.72905
11
6.33183
21
-3.72992
0
LINE
8
BLACK
6
CONTINUOUS
10
6.33183
20
-3.72992
11
6.3327
21
-3.73122
0
LINE
8
BLACK
6
CONTINUOUS
10
6.3327
20
-3.73122
11
6.333
21
-3.73275
0
LINE
8
BLACK
6
CONTINUOUS
10
6.333
20
-3.73275
11
6.333
21
-3.79775
0
LINE
8
BLACK
6
CONTINUOUS
10
6.333
20
-3.79775
11
6.3327
21
-3.79928
0
LINE
8
BLACK
6
CONTINUOUS
10
6.3327
20
-3.79928
11
6.33183
21
-3.80058
0
LINE
8
BLACK
6
CONTINUOUS
10
6.33183
20
-3.80058
11
6.33053
21
-3.80145
0
LINE
8
BLACK
6
CONTINUOUS
10
6.33053
20
-3.80145
11
6.329
21
-3.80175
0
LINE
8
BLACK
6
CONTINUOUS
10
6.329
20
-3.80175
11
6.264
21
-3.80175
0
LINE
8
BLACK
6
CONTINUOUS
10
6.264
20
-3.80175
11
6.26247
21
-3.80145
0
LINE
8
BLACK
6
CONTINUOUS
10
6.26247
20
-3.80145
11
6.26117
21
-3.80058
0
LINE
8
BLACK
6
CONTINUOUS
10
6.26117
20
-3.80058
11
6.2603
21
-3.79928
0
LINE
8
BLACK
6
CONTINUOUS
10
6.2603
20
-3.79928
11
6.26
21
-3.79775
0
LINE
8
BLACK
6
CONTINUOUS
10
6.26
20
-3.79775
11
6.26
21
-3.73275
0
LINE
8
BLACK
6
CONTINUOUS
10
6.26
20
-3.73275
11
6.2603
21
-3.73122
0
LINE
8
BLACK
6
CONTINUOUS
10
6.2603
20
-3.73122
11
6.26117
21
-3.72992
0
LINE
8
BLACK
6
CONTINUOUS
10
6.26117
20
-3.72992
11
6.26247
21
-3.72905
0
LINE
8
BLACK
6
CONTINUOUS
10
6.26247
20
-3.72905
11
6.264
21
-3.72875
0
LINE
8
BLACK
6
CONTINUOUS
10
6.264
20
-3.72875
11
6.329
21
-3.72875
0
LINE
8
BLACK
6
CONTINUOUS
10
6.329
20
-3.72875
11
6.33053
21
-3.72905
0
LINE
8
BLACK
6
CONTINUOUS
10
5.43053
20
-3.6978
11
5.43183
21
-3.69867
0
LINE
8
BLACK
6
CONTINUOUS
10
5.43183
20
-3.69867
11
5.4327
21
-3.69997
0
LINE
8
BLACK
6
CONTINUOUS
10
5.4327
20
-3.69997
11
5.433
21
-3.7015
0
LINE
8
BLACK
6
CONTINUOUS
10
5.433
20
-3.7015
11
5.433
21
-3.7665
0
LINE
8
BLACK
6
CONTINUOUS
10
5.433
20
-3.7665
11
5.4327
21
-3.76803
0
LINE
8
BLACK
6
CONTINUOUS
10
5.4327
20
-3.76803
11
5.43183
21
-3.76933
0
LINE
8
BLACK
6
CONTINUOUS
10
5.43183
20
-3.76933
11
5.43053
21
-3.7702
0
LINE
8
BLACK
6
CONTINUOUS
10
5.43053
20
-3.7702
11
5.429
21
-3.7705
0
LINE
8
BLACK
6
CONTINUOUS
10
5.429
20
-3.7705
11
5.364
21
-3.7705
0
LINE
8
BLACK
6
CONTINUOUS
10
5.364
20
-3.7705
11
5.36247
21
-3.7702
0
LINE
8
BLACK
6
CONTINUOUS
10
5.36247
20
-3.7702
11
5.36117
21
-3.76933
0
LINE
8
BLACK
6
CONTINUOUS
10
5.36117
20
-3.76933
11
5.3603
21
-3.76803
0
LINE
8
BLACK
6
CONTINUOUS
10
5.3603
20
-3.76803
11
5.36
21
-3.7665
0
LINE
8
BLACK
6
CONTINUOUS
10
5.36
20
-3.7665
11
5.36
21
-3.7015
0
LINE
8
BLACK
6
CONTINUOUS
10
5.36
20
-3.7015
11
5.3603
21
-3.69997
0
LINE
8
BLACK
6
CONTINUOUS
10
5.3603
20
-3.69997
11
5.36117
21
-3.69867
0
LINE
8
BLACK
6
CONTINUOUS
10
5.36117
20
-3.69867
11
5.36247
21
-3.6978
0
LINE
8
BLACK
6
CONTINUOUS
10
5.36247
20
-3.6978
11
5.364
21
-3.6975
0
LINE
8
BLACK
6
CONTINUOUS
10
5.364
20
-3.6975
11
5.429
21
-3.6975
0
LINE
8
BLACK
6
CONTINUOUS
10
5.429
20
-3.6975
11
5.43053
21
-3.6978
0
LINE
8
BLACK
6
CONTINUOUS
10
5.53053
20
-3.6978
11
5.53183
21
-3.69867
0
LINE
8
BLACK
6
CONTINUOUS
10
5.53183
20
-3.69867
11
5.5327
21
-3.69997
0
LINE
8
BLACK
6
CONTINUOUS
10
5.5327
20
-3.69997
11
5.533
21
-3.7015
0
LINE
8
BLACK
6
CONTINUOUS
10
5.533
20
-3.7015
11
5.533
21
-3.7665
0
LINE
8
BLACK
6
CONTINUOUS
10
5.533
20
-3.7665
11
5.5327
21
-3.76803
0
LINE
8
BLACK
6
CONTINUOUS
10
5.5327
20
-3.76803
11
5.53183
21
-3.76933
0
LINE
8
BLACK
6
CONTINUOUS
10
5.53183
20
-3.76933
11
5.53053
21
-3.7702
0
LINE
8
BLACK
6
CONTINUOUS
10
5.53053
20
-3.7702
11
5.529
21
-3.7705
0
LINE
8
BLACK
6
CONTINUOUS
10
5.529
20
-3.7705
11
5.464
21
-3.7705
0
LINE
8
BLACK
6
CONTINUOUS
10
5.464
20
-3.7705
11
5.46247
21
-3.7702
0
LINE
8
BLACK
6
CONTINUOUS
10
5.46247
20
-3.7702
11
5.46117
21
-3.76933
0
LINE
8
BLACK
6
CONTINUOUS
10
5.46117
20
-3.76933
11
5.4603
21
-3.76803
0
LINE
8
BLACK
6
CONTINUOUS
10
5.4603
20
-3.76803
11
5.46
21
-3.7665
0
LINE
8
BLACK
6
CONTINUOUS
10
5.46
20
-3.7665
11
5.46
21
-3.7015
0
LINE
8
BLACK
6
CONTINUOUS
10
5.46
20
-3.7015
11
5.4603
21
-3.69997
0
LINE
8
BLACK
6
CONTINUOUS
10
5.4603
20
-3.69997
11
5.46117
21
-3.69867
0
LINE
8
BLACK
6
CONTINUOUS
10
5.46117
20
-3.69867
11
5.46247
21
-3.6978
0
LINE
8
BLACK
6
CONTINUOUS
10
5.46247
20
-3.6978
11
5.464
21
-3.6975
0
LINE
8
BLACK
6
CONTINUOUS
10
5.464
20
-3.6975
11
5.529
21
-3.6975
0
LINE
8
BLACK
6
CONTINUOUS
10
5.529
20
-3.6975
11
5.53053
21
-3.6978
0
LINE
8
BLACK
6
CONTINUOUS
10
5.46769
20
-3.40473
11
5.48155
21
-3.40777
0
LINE
8
BLACK
6
CONTINUOUS
10
5.48155
20
-3.40777
11
5.49499
21
-3.4123
0
LINE
8
BLACK
6
CONTINUOUS
10
5.49499
20
-3.4123
11
5.50786
21
-3.41826
0
LINE
8
BLACK
6
CONTINUOUS
10
5.50786
20
-3.41826
11
5.52002
21
-3.42557
0
LINE
8
BLACK
6
CONTINUOUS
10
5.52002
20
-3.42557
11
5.53131
21
-3.43416
0
LINE
8
BLACK
6
CONTINUOUS
10
5.53131
20
-3.43416
11
5.54161
21
-3.44391
0
LINE
8
BLACK
6
CONTINUOUS
10
5.54161
20
-3.44391
11
5.55079
21
-3.45472
0
LINE
8
BLACK
6
CONTINUOUS
10
5.55079
20
-3.45472
11
5.55875
21
-3.46646
0
LINE
8
BLACK
6
CONTINUOUS
10
5.55875
20
-3.46646
11
5.56539
21
-3.47899
0
LINE
8
BLACK
6
CONTINUOUS
10
5.56539
20
-3.47899
11
5.57064
21
-3.49217
0
LINE
8
BLACK
6
CONTINUOUS
10
5.57064
20
-3.49217
11
5.57444
21
-3.50584
0
LINE
8
BLACK
6
CONTINUOUS
10
5.57444
20
-3.50584
11
5.57673
21
-3.51984
0
LINE
8
BLACK
6
CONTINUOUS
10
5.57673
20
-3.51984
11
5.5775
21
-3.534
0
LINE
8
BLACK
6
CONTINUOUS
10
5.5775
20
-3.534
11
5.57673
21
-3.54816
0
LINE
8
BLACK
6
CONTINUOUS
10
5.57673
20
-3.54816
11
5.57444
21
-3.56216
0
LINE
8
BLACK
6
CONTINUOUS
10
5.57444
20
-3.56216
11
5.57064
21
-3.57583
0
LINE
8
BLACK
6
CONTINUOUS
10
5.57064
20
-3.57583
11
5.56539
21
-3.58901
0
LINE
8
BLACK
6
CONTINUOUS
10
5.56539
20
-3.58901
11
5.55875
21
-3.60154
0
LINE
8
BLACK
6
CONTINUOUS
10
5.55875
20
-3.60154
11
5.55079
21
-3.61328
0
LINE
8
BLACK
6
CONTINUOUS
10
5.55079
20
-3.61328
11
5.54161
21
-3.62409
0
LINE
8
BLACK
6
CONTINUOUS
10
5.54161
20
-3.62409
11
5.53131
21
-3.63384
0
LINE
8
BLACK
6
CONTINUOUS
10
5.53131
20
-3.63384
11
5.52002
21
-3.64243
0
LINE
8
BLACK
6
CONTINUOUS
10
5.52002
20
-3.64243
11
5.50786
21
-3.64974
0
LINE
8
BLACK
6
CONTINUOUS
10
5.50786
20
-3.64974
11
5.49499
21
-3.6557
0
LINE
8
BLACK
6
CONTINUOUS
10
5.49499
20
-3.6557
11
5.48155
21
-3.66023
0
LINE
8
BLACK
6
CONTINUOUS
10
5.48155
20
-3.66023
11
5.46769
21
-3.66327
0
LINE
8
BLACK
6
CONTINUOUS
10
5.46769
20
-3.66327
11
5.45359
21
-3.66481
0
LINE
8
BLACK
6
CONTINUOUS
10
5.45359
20
-3.66481
11
5.43941
21
-3.66481
0
LINE
8
BLACK
6
CONTINUOUS
10
5.43941
20
-3.66481
11
5.42531
21
-3.66327
0
LINE
8
BLACK
6
CONTINUOUS
10
5.42531
20
-3.66327
11
5.41145
21
-3.66023
0
LINE
8
BLACK
6
CONTINUOUS
10
5.41145
20
-3.66023
11
5.39801
21
-3.6557
0
LINE
8
BLACK
6
CONTINUOUS
10
5.39801
20
-3.6557
11
5.38514
21
-3.64974
0
LINE
8
BLACK
6
CONTINUOUS
10
5.38514
20
-3.64974
11
5.37298
21
-3.64243
0
LINE
8
BLACK
6
CONTINUOUS
10
5.37298
20
-3.64243
11
5.36169
21
-3.63384
0
LINE
8
BLACK
6
CONTINUOUS
10
5.36169
20
-3.63384
11
5.35139
21
-3.62409
0
LINE
8
BLACK
6
CONTINUOUS
10
5.35139
20
-3.62409
11
5.34221
21
-3.61328
0
LINE
8
BLACK
6
CONTINUOUS
10
5.34221
20
-3.61328
11
5.33425
21
-3.60154
0
LINE
8
BLACK
6
CONTINUOUS
10
5.33425
20
-3.60154
11
5.32761
21
-3.58901
0
LINE
8
BLACK
6
CONTINUOUS
10
5.32761
20
-3.58901
11
5.32236
21
-3.57583
0
LINE
8
BLACK
6
CONTINUOUS
10
5.32236
20
-3.57583
11
5.31856
21
-3.56216
0
LINE
8
BLACK
6
CONTINUOUS
10
5.31856
20
-3.56216
11
5.31627
21
-3.54816
0
LINE
8
BLACK
6
CONTINUOUS
10
5.31627
20
-3.54816
11
5.3155
21
-3.534
0
LINE
8
BLACK
6
CONTINUOUS
10
5.3155
20
-3.534
11
5.31627
21
-3.51984
0
LINE
8
BLACK
6
CONTINUOUS
10
5.31627
20
-3.51984
11
5.31856
21
-3.50584
0
LINE
8
BLACK
6
CONTINUOUS
10
5.31856
20
-3.50584
11
5.32236
21
-3.49217
0
LINE
8
BLACK
6
CONTINUOUS
10
5.32236
20
-3.49217
11
5.32761
21
-3.47899
0
LINE
8
BLACK
6
CONTINUOUS
10
5.32761
20
-3.47899
11
5.33425
21
-3.46646
0
LINE
8
BLACK
6
CONTINUOUS
10
5.33425
20
-3.46646
11
5.34221
21
-3.45472
0
LINE
8
BLACK
6
CONTINUOUS
10
5.34221
20
-3.45472
11
5.35139
21
-3.44391
0
LINE
8
BLACK
6
CONTINUOUS
10
5.35139
20
-3.44391
11
5.36169
21
-3.43416
0
LINE
8
BLACK
6
CONTINUOUS
10
5.36169
20
-3.43416
11
5.37298
21
-3.42557
0
LINE
8
BLACK
6
CONTINUOUS
10
5.37298
20
-3.42557
11
5.38514
21
-3.41826
0
LINE
8
BLACK
6
CONTINUOUS
10
5.38514
20
-3.41826
11
5.39801
21
-3.4123
0
LINE
8
BLACK
6
CONTINUOUS
10
5.39801
20
-3.4123
11
5.41145
21
-3.40777
0
LINE
8
BLACK
6
CONTINUOUS
10
5.41145
20
-3.40777
11
5.42531
21
-3.40473
0
LINE
8
BLACK
6
CONTINUOUS
10
5.42531
20
-3.40473
11
5.43941
21
-3.40319
0
LINE
8
BLACK
6
CONTINUOUS
10
5.43941
20
-3.40319
11
5.45359
21
-3.40319
0
LINE
8
BLACK
6
CONTINUOUS
10
5.45359
20
-3.40319
11
5.46769
21
-3.40473
0
LINE
8
BLACK
6
CONTINUOUS
10
6.26769
20
-3.40473
11
6.28155
21
-3.40777
0
LINE
8
BLACK
6
CONTINUOUS
10
6.28155
20
-3.40777
11
6.29499
21
-3.4123
0
LINE
8
BLACK
6
CONTINUOUS
10
6.29499
20
-3.4123
11
6.30786
21
-3.41826
0
LINE
8
BLACK
6
CONTINUOUS
10
6.30786
20
-3.41826
11
6.32002
21
-3.42557
0
LINE
8
BLACK
6
CONTINUOUS
10
6.32002
20
-3.42557
11
6.33131
21
-3.43416
0
LINE
8
BLACK
6
CONTINUOUS
10
6.33131
20
-3.43416
11
6.34161
21
-3.44391
0
LINE
8
BLACK
6
CONTINUOUS
10
6.34161
20
-3.44391
11
6.35079
21
-3.45472
0
LINE
8
BLACK
6
CONTINUOUS
10
6.35079
20
-3.45472
11
6.35875
21
-3.46646
0
LINE
8
BLACK
6
CONTINUOUS
10
6.35875
20
-3.46646
11
6.36539
21
-3.47899
0
LINE
8
BLACK
6
CONTINUOUS
10
6.36539
20
-3.47899
11
6.37064
21
-3.49217
0
LINE
8
BLACK
6
CONTINUOUS
10
6.37064
20
-3.49217
11
6.37444
21
-3.50584
0
LINE
8
BLACK
6
CONTINUOUS
10
6.37444
20
-3.50584
11
6.37673
21
-3.51984
0
LINE
8
BLACK
6
CONTINUOUS
10
6.37673
20
-3.51984
11
6.3775
21
-3.534
0
LINE
8
BLACK
6
CONTINUOUS
10
6.3775
20
-3.534
11
6.37673
21
-3.54816
0
LINE
8
BLACK
6
CONTINUOUS
10
6.37673
20
-3.54816
11
6.37444
21
-3.56216
0
LINE
8
BLACK
6
CONTINUOUS
10
6.37444
20
-3.56216
11
6.37064
21
-3.57583
0
LINE
8
BLACK
6
CONTINUOUS
10
6.37064
20
-3.57583
11
6.36539
21
-3.58901
0
LINE
8
BLACK
6
CONTINUOUS
10
6.36539
20
-3.58901
11
6.35875
21
-3.60154
0
LINE
8
BLACK
6
CONTINUOUS
10
6.35875
20
-3.60154
11
6.35079
21
-3.61328
0
LINE
8
BLACK
6
CONTINUOUS
10
6.35079
20
-3.61328
11
6.34161
21
-3.62409
0
LINE
8
BLACK
6
CONTINUOUS
10
6.34161
20
-3.62409
11
6.33131
21
-3.63384
0
LINE
8
BLACK
6
CONTINUOUS
10
6.33131
20
-3.63384
11
6.32002
21
-3.64243
0
LINE
8
BLACK
6
CONTINUOUS
10
6.32002
20
-3.64243
11
6.30786
21
-3.64974
0
LINE
8
BLACK
6
CONTINUOUS
10
6.30786
20
-3.64974
11
6.29499
21
-3.6557
0
LINE
8
BLACK
6
CONTINUOUS
10
6.29499
20
-3.6557
11
6.28155
21
-3.66023
0
LINE
8
BLACK
6
CONTINUOUS
10
6.28155
20
-3.66023
11
6.26769
21
-3.66327
0
LINE
8
BLACK
6
CONTINUOUS
10
6.26769
20
-3.66327
11
6.25359
21
-3.66481
0
LINE
8
BLACK
6
CONTINUOUS
10
6.25359
20
-3.66481
11
6.23941
21
-3.66481
0
LINE
8
BLACK
6
CONTINUOUS
10
6.23941
20
-3.66481
11
6.22531
21
-3.66327
0
LINE
8
BLACK
6
CONTINUOUS
10
6.22531
20
-3.66327
11
6.21145
21
-3.66023
0
LINE
8
BLACK
6
CONTINUOUS
10
6.21145
20
-3.66023
11
6.19801
21
-3.6557
0
LINE
8
BLACK
6
CONTINUOUS
10
6.19801
20
-3.6557
11
6.18514
21
-3.64974
0
LINE
8
BLACK
6
CONTINUOUS
10
6.18514
20
-3.64974
11
6.17298
21
-3.64243
0
LINE
8
BLACK
6
CONTINUOUS
10
6.17298
20
-3.64243
11
6.16169
21
-3.63384
0
LINE
8
BLACK
6
CONTINUOUS
10
6.16169
20
-3.63384
11
6.15139
21
-3.62409
0
LINE
8
BLACK
6
CONTINUOUS
10
6.15139
20
-3.62409
11
6.14221
21
-3.61328
0
LINE
8
BLACK
6
CONTINUOUS
10
6.14221
20
-3.61328
11
6.13425
21
-3.60154
0
LINE
8
BLACK
6
CONTINUOUS
10
6.13425
20
-3.60154
11
6.12761
21
-3.58901
0
LINE
8
BLACK
6
CONTINUOUS
10
6.12761
20
-3.58901
11
6.12236
21
-3.57583
0
LINE
8
BLACK
6
CONTINUOUS
10
6.12236
20
-3.57583
11
6.11856
21
-3.56216
0
LINE
8
BLACK
6
CONTINUOUS
10
6.11856
20
-3.56216
11
6.11627
21
-3.54816
0
LINE
8
BLACK
6
CONTINUOUS
10
6.11627
20
-3.54816
11
6.1155
21
-3.534
0
LINE
8
BLACK
6
CONTINUOUS
10
6.1155
20
-3.534
11
6.11627
21
-3.51984
0
LINE
8
BLACK
6
CONTINUOUS
10
6.11627
20
-3.51984
11
6.11856
21
-3.50584
0
LINE
8
BLACK
6
CONTINUOUS
10
6.11856
20
-3.50584
11
6.12236
21
-3.49217
0
LINE
8
BLACK
6
CONTINUOUS
10
6.12236
20
-3.49217
11
6.12761
21
-3.47899
0
LINE
8
BLACK
6
CONTINUOUS
10
6.12761
20
-3.47899
11
6.13425
21
-3.46646
0
LINE
8
BLACK
6
CONTINUOUS
10
6.13425
20
-3.46646
11
6.14221
21
-3.45472
0
LINE
8
BLACK
6
CONTINUOUS
10
6.14221
20
-3.45472
11
6.15139
21
-3.44391
0
LINE
8
BLACK
6
CONTINUOUS
10
6.15139
20
-3.44391
11
6.16169
21
-3.43416
0
LINE
8
BLACK
6
CONTINUOUS
10
6.16169
20
-3.43416
11
6.17298
21
-3.42557
0
LINE
8
BLACK
6
CONTINUOUS
10
6.17298
20
-3.42557
11
6.18514
21
-3.41826
0
LINE
8
BLACK
6
CONTINUOUS
10
6.18514
20
-3.41826
11
6.19801
21
-3.4123
0
LINE
8
BLACK
6
CONTINUOUS
10
6.19801
20
-3.4123
11
6.21145
21
-3.40777
0
LINE
8
BLACK
6
CONTINUOUS
10
6.21145
20
-3.40777
11
6.22531
21
-3.40473
0
LINE
8
BLACK
6
CONTINUOUS
10
6.22531
20
-3.40473
11
6.23941
21
-3.40319
0
LINE
8
BLACK
6
CONTINUOUS
10
6.23941
20
-3.40319
11
6.25359
21
-3.40319
0
LINE
8
BLACK
6
CONTINUOUS
10
6.25359
20
-3.40319
11
6.26769
21
-3.40473
0
LINE
8
BLACK
6
CONTINUOUS
10
5.68053
20
-3.5478
11
5.68183
21
-3.54867
0
LINE
8
BLACK
6
CONTINUOUS
10
5.68183
20
-3.54867
11
5.6827
21
-3.54997
0
LINE
8
BLACK
6
CONTINUOUS
10
5.6827
20
-3.54997
11
5.683
21
-3.5515
0
LINE
8
BLACK
6
CONTINUOUS
10
5.683
20
-3.5515
11
5.683
21
-3.6165
0
LINE
8
BLACK
6
CONTINUOUS
10
5.683
20
-3.6165
11
5.6827
21
-3.61803
0
LINE
8
BLACK
6
CONTINUOUS
10
5.6827
20
-3.61803
11
5.68183
21
-3.61933
0
LINE
8
BLACK
6
CONTINUOUS
10
5.68183
20
-3.61933
11
5.68053
21
-3.6202
0
LINE
8
BLACK
6
CONTINUOUS
10
5.68053
20
-3.6202
11
5.679
21
-3.6205
0
LINE
8
BLACK
6
CONTINUOUS
10
5.679
20
-3.6205
11
5.614
21
-3.6205
0
LINE
8
BLACK
6
CONTINUOUS
10
5.614
20
-3.6205
11
5.61247
21
-3.6202
0
LINE
8
BLACK
6
CONTINUOUS
10
5.61247
20
-3.6202
11
5.61117
21
-3.61933
0
LINE
8
BLACK
6
CONTINUOUS
10
5.61117
20
-3.61933
11
5.6103
21
-3.61803
0
LINE
8
BLACK
6
CONTINUOUS
10
5.6103
20
-3.61803
11
5.61
21
-3.6165
0
LINE
8
BLACK
6
CONTINUOUS
10
5.61
20
-3.6165
11
5.61
21
-3.5515
0
LINE
8
BLACK
6
CONTINUOUS
10
5.61
20
-3.5515
11
5.6103
21
-3.54997
0
LINE
8
BLACK
6
CONTINUOUS
10
5.6103
20
-3.54997
11
5.61117
21
-3.54867
0
LINE
8
BLACK
6
CONTINUOUS
10
5.61117
20
-3.54867
11
5.61247
21
-3.5478
0
LINE
8
BLACK
6
CONTINUOUS
10
5.61247
20
-3.5478
11
5.614
21
-3.5475
0
LINE
8
BLACK
6
CONTINUOUS
10
5.614
20
-3.5475
11
5.679
21
-3.5475
0
LINE
8
BLACK
6
CONTINUOUS
10
5.679
20
-3.5475
11
5.68053
21
-3.5478
0
LINE
8
BLACK
6
CONTINUOUS
10
5.78053
20
-3.5478
11
5.78183
21
-3.54867
0
LINE
8
BLACK
6
CONTINUOUS
10
5.78183
20
-3.54867
11
5.7827
21
-3.54997
0
LINE
8
BLACK
6
CONTINUOUS
10
5.7827
20
-3.54997
11
5.783
21
-3.5515
0
LINE
8
BLACK
6
CONTINUOUS
10
5.783
20
-3.5515
11
5.783
21
-3.6165
0
LINE
8
BLACK
6
CONTINUOUS
10
5.783
20
-3.6165
11
5.7827
21
-3.61803
0
LINE
8
BLACK
6
CONTINUOUS
10
5.7827
20
-3.61803
11
5.78183
21
-3.61933
0
LINE
8
BLACK
6
CONTINUOUS
10
5.78183
20
-3.61933
11
5.78053
21
-3.6202
0
LINE
8
BLACK
6
CONTINUOUS
10
5.78053
20
-3.6202
11
5.779
21
-3.6205
0
LINE
8
BLACK
6
CONTINUOUS
10
5.779
20
-3.6205
11
5.714
21
-3.6205
0
LINE
8
BLACK
6
CONTINUOUS
10
5.714
20
-3.6205
11
5.71247
21
-3.6202
0
LINE
8
BLACK
6
CONTINUOUS
10
5.71247
20
-3.6202
11
5.71117
21
-3.61933
0
LINE
8
BLACK
6
CONTINUOUS
10
5.71117
20
-3.61933
11
5.7103
21
-3.61803
0
LINE
8
BLACK
6
CONTINUOUS
10
5.7103
20
-3.61803
11
5.71
21
-3.6165
0
LINE
8
BLACK
6
CONTINUOUS
10
5.71
20
-3.6165
11
5.71
21
-3.5515
0
LINE
8
BLACK
6
CONTINUOUS
10
5.71
20
-3.5515
11
5.7103
21
-3.54997
0
LINE
8
BLACK
6
CONTINUOUS
10
5.7103
20
-3.54997
11
5.71117
21
-3.54867
0
LINE
8
BLACK
6
CONTINUOUS
10
5.71117
20
-3.54867
11
5.71247
21
-3.5478
0
LINE
8
BLACK
6
CONTINUOUS
10
5.71247
20
-3.5478
11
5.714
21
-3.5475
0
LINE
8
BLACK
6
CONTINUOUS
10
5.714
20
-3.5475
11
5.779
21
-3.5475
0
LINE
8
BLACK
6
CONTINUOUS
10
5.779
20
-3.5475
11
5.78053
21
-3.5478
0
LINE
8
BLACK
6
CONTINUOUS
10
5.88053
20
-3.5478
11
5.88183
21
-3.54867
0
LINE
8
BLACK
6
CONTINUOUS
10
5.88183
20
-3.54867
11
5.8827
21
-3.54997
0
LINE
8
BLACK
6
CONTINUOUS
10
5.8827
20
-3.54997
11
5.883
21
-3.5515
0
LINE
8
BLACK
6
CONTINUOUS
10
5.883
20
-3.5515
11
5.883
21
-3.6165
0
LINE
8
BLACK
6
CONTINUOUS
10
5.883
20
-3.6165
11
5.8827
21
-3.61803
0
LINE
8
BLACK
6
CONTINUOUS
10
5.8827
20
-3.61803
11
5.88183
21
-3.61933
0
LINE
8
BLACK
6
CONTINUOUS
10
5.88183
20
-3.61933
11
5.88053
21
-3.6202
0
LINE
8
BLACK
6
CONTINUOUS
10
5.88053
20
-3.6202
11
5.879
21
-3.6205
0
LINE
8
BLACK
6
CONTINUOUS
10
5.879
20
-3.6205
11
5.814
21
-3.6205
0
LINE
8
BLACK
6
CONTINUOUS
10
5.814
20
-3.6205
11
5.81247
21
-3.6202
0
LINE
8
BLACK
6
CONTINUOUS
10
5.81247
20
-3.6202
11
5.81117
21
-3.61933
0
LINE
8
BLACK
6
CONTINUOUS
10
5.81117
20
-3.61933
11
5.8103
21
-3.61803
0
LINE
8
BLACK
6
CONTINUOUS
10
5.8103
20
-3.61803
11
5.81
21
-3.6165
0
LINE
8
BLACK
6
CONTINUOUS
10
5.81
20
-3.6165
11
5.81
21
-3.5515
0
LINE
8
BLACK
6
CONTINUOUS
10
5.81
20
-3.5515
11
5.8103
21
-3.54997
0
LINE
8
BLACK
6
CONTINUOUS
10
5.8103
20
-3.54997
11
5.81117
21
-3.54867
0
LINE
8
BLACK
6
CONTINUOUS
10
5.81117
20
-3.54867
11
5.81247
21
-3.5478
0
LINE
8
BLACK
6
CONTINUOUS
10
5.81247
20
-3.5478
11
5.814
21
-3.5475
0
LINE
8
BLACK
6
CONTINUOUS
10
5.814
20
-3.5475
11
5.879
21
-3.5475
0
LINE
8
BLACK
6
CONTINUOUS
10
5.879
20
-3.5475
11
5.88053
21
-3.5478
0
LINE
8
BLACK
6
CONTINUOUS
10
5.98053
20
-3.5478
11
5.98183
21
-3.54867
0
LINE
8
BLACK
6
CONTINUOUS
10
5.98183
20
-3.54867
11
5.9827
21
-3.54997
0
LINE
8
BLACK
6
CONTINUOUS
10
5.9827
20
-3.54997
11
5.983
21
-3.5515
0
LINE
8
BLACK
6
CONTINUOUS
10
5.983
20
-3.5515
11
5.983
21
-3.6165
0
LINE
8
BLACK
6
CONTINUOUS
10
5.983
20
-3.6165
11
5.9827
21
-3.61803
0
LINE
8
BLACK
6
CONTINUOUS
10
5.9827
20
-3.61803
11
5.98183
21
-3.61933
0
LINE
8
BLACK
6
CONTINUOUS
10
5.98183
20
-3.61933
11
5.98053
21
-3.6202
0
LINE
8
BLACK
6
CONTINUOUS
10
5.98053
20
-3.6202
11
5.979
21
-3.6205
0
LINE
8
BLACK
6
CONTINUOUS
10
5.979
20
-3.6205
11
5.914
21
-3.6205
0
LINE
8
BLACK
6
CONTINUOUS
10
5.914
20
-3.6205
11
5.91247
21
-3.6202
0
LINE
8
BLACK
6
CONTINUOUS
10
5.91247
20
-3.6202
11
5.91117
21
-3.61933
0
LINE
8
BLACK
6
CONTINUOUS
10
5.91117
20
-3.61933
11
5.9103
21
-3.61803
0
LINE
8
BLACK
6
CONTINUOUS
10
5.9103
20
-3.61803
11
5.91
21
-3.6165
0
LINE
8
BLACK
6
CONTINUOUS
10
5.91
20
-3.6165
11
5.91
21
-3.5515
0
LINE
8
BLACK
6
CONTINUOUS
10
5.91
20
-3.5515
11
5.9103
21
-3.54997
0
LINE
8
BLACK
6
CONTINUOUS
10
5.9103
20
-3.54997
11
5.91117
21
-3.54867
0
LINE
8
BLACK
6
CONTINUOUS
10
5.91117
20
-3.54867
11
5.91247
21
-3.5478
0
LINE
8
BLACK
6
CONTINUOUS
10
5.91247
20
-3.5478
11
5.914
21
-3.5475
0
LINE
8
BLACK
6
CONTINUOUS
10
5.914
20
-3.5475
11
5.979
21
-3.5475
0
LINE
8
BLACK
6
CONTINUOUS
10
5.979
20
-3.5475
11
5.98053
21
-3.5478
0
LINE
8
BLACK
6
CONTINUOUS
10
6.08053
20
-3.5478
11
6.08183
21
-3.54867
0
LINE
8
BLACK
6
CONTINUOUS
10
6.08183
20
-3.54867
11
6.0827
21
-3.54997
0
LINE
8
BLACK
6
CONTINUOUS
10
6.0827
20
-3.54997
11
6.083
21
-3.5515
0
LINE
8
BLACK
6
CONTINUOUS
10
6.083
20
-3.5515
11
6.083
21
-3.6165
0
LINE
8
BLACK
6
CONTINUOUS
10
6.083
20
-3.6165
11
6.0827
21
-3.61803
0
LINE
8
BLACK
6
CONTINUOUS
10
6.0827
20
-3.61803
11
6.08183
21
-3.61933
0
LINE
8
BLACK
6
CONTINUOUS
10
6.08183
20
-3.61933
11
6.08053
21
-3.6202
0
LINE
8
BLACK
6
CONTINUOUS
10
6.08053
20
-3.6202
11
6.079
21
-3.6205
0
LINE
8
BLACK
6
CONTINUOUS
10
6.079
20
-3.6205
11
6.014
21
-3.6205
0
LINE
8
BLACK
6
CONTINUOUS
10
6.014
20
-3.6205
11
6.01247
21
-3.6202
0
LINE
8
BLACK
6
CONTINUOUS
10
6.01247
20
-3.6202
11
6.01117
21
-3.61933
0
LINE
8
BLACK
6
CONTINUOUS
10
6.01117
20
-3.61933
11
6.0103
21
-3.61803
0
LINE
8
BLACK
6
CONTINUOUS
10
6.0103
20
-3.61803
11
6.01
21
-3.6165
0
LINE
8
BLACK
6
CONTINUOUS
10
6.01
20
-3.6165
11
6.01
21
-3.5515
0
LINE
8
BLACK
6
CONTINUOUS
10
6.01
20
-3.5515
11
6.0103
21
-3.54997
0
LINE
8
BLACK
6
CONTINUOUS
10
6.0103
20
-3.54997
11
6.01117
21
-3.54867
0
LINE
8
BLACK
6
CONTINUOUS
10
6.01117
20
-3.54867
11
6.01247
21
-3.5478
0
LINE
8
BLACK
6
CONTINUOUS
10
6.01247
20
-3.5478
11
6.014
21
-3.5475
0
LINE
8
BLACK
6
CONTINUOUS
10
6.014
20
-3.5475
11
6.079
21
-3.5475
0
LINE
8
BLACK
6
CONTINUOUS
10
6.079
20
-3.5475
11
6.08053
21
-3.5478
0
LINE
8
BLACK
6
CONTINUOUS
10
5.68053
20
-3.4478
11
5.68183
21
-3.44867
0
LINE
8
BLACK
6
CONTINUOUS
10
5.68183
20
-3.44867
11
5.6827
21
-3.44997
0
LINE
8
BLACK
6
CONTINUOUS
10
5.6827
20
-3.44997
11
5.683
21
-3.4515
0
LINE
8
BLACK
6
CONTINUOUS
10
5.683
20
-3.4515
11
5.683
21
-3.5165
0
LINE
8
BLACK
6
CONTINUOUS
10
5.683
20
-3.5165
11
5.6827
21
-3.51803
0
LINE
8
BLACK
6
CONTINUOUS
10
5.6827
20
-3.51803
11
5.68183
21
-3.51933
0
LINE
8
BLACK
6
CONTINUOUS
10
5.68183
20
-3.51933
11
5.68053
21
-3.5202
0
LINE
8
BLACK
6
CONTINUOUS
10
5.68053
20
-3.5202
11
5.679
21
-3.5205
0
LINE
8
BLACK
6
CONTINUOUS
10
5.679
20
-3.5205
11
5.614
21
-3.5205
0
LINE
8
BLACK
6
CONTINUOUS
10
5.614
20
-3.5205
11
5.61247
21
-3.5202
0
LINE
8
BLACK
6
CONTINUOUS
10
5.61247
20
-3.5202
11
5.61117
21
-3.51933
0
LINE
8
BLACK
6
CONTINUOUS
10
5.61117
20
-3.51933
11
5.6103
21
-3.51803
0
LINE
8
BLACK
6
CONTINUOUS
10
5.6103
20
-3.51803
11
5.61
21
-3.5165
0
LINE
8
BLACK
6
CONTINUOUS
10
5.61
20
-3.5165
11
5.61
21
-3.4515
0
LINE
8
BLACK
6
CONTINUOUS
10
5.61
20
-3.4515
11
5.6103
21
-3.44997
0
LINE
8
BLACK
6
CONTINUOUS
10
5.6103
20
-3.44997
11
5.61117
21
-3.44867
0
LINE
8
BLACK
6
CONTINUOUS
10
5.61117
20
-3.44867
11
5.61247
21
-3.4478
0
LINE
8
BLACK
6
CONTINUOUS
10
5.61247
20
-3.4478
11
5.614
21
-3.4475
0
LINE
8
BLACK
6
CONTINUOUS
10
5.614
20
-3.4475
11
5.679
21
-3.4475
0
LINE
8
BLACK
6
CONTINUOUS
10
5.679
20
-3.4475
11
5.68053
21
-3.4478
0
LINE
8
BLACK
6
CONTINUOUS
10
5.78053
20
-3.4478
11
5.78183
21
-3.44867
0
LINE
8
BLACK
6
CONTINUOUS
10
5.78183
20
-3.44867
11
5.7827
21
-3.44997
0
LINE
8
BLACK
6
CONTINUOUS
10
5.7827
20
-3.44997
11
5.783
21
-3.4515
0
LINE
8
BLACK
6
CONTINUOUS
10
5.783
20
-3.4515
11
5.783
21
-3.5165
0
LINE
8
BLACK
6
CONTINUOUS
10
5.783
20
-3.5165
11
5.7827
21
-3.51803
0
LINE
8
BLACK
6
CONTINUOUS
10
5.7827
20
-3.51803
11
5.78183
21
-3.51933
0
LINE
8
BLACK
6
CONTINUOUS
10
5.78183
20
-3.51933
11
5.78053
21
-3.5202
0
LINE
8
BLACK
6
CONTINUOUS
10
5.78053
20
-3.5202
11
5.779
21
-3.5205
0
LINE
8
BLACK
6
CONTINUOUS
10
5.779
20
-3.5205
11
5.714
21
-3.5205
0
LINE
8
BLACK
6
CONTINUOUS
10
5.714
20
-3.5205
11
5.71247
21
-3.5202
0
LINE
8
BLACK
6
CONTINUOUS
10
5.71247
20
-3.5202
11
5.71117
21
-3.51933
0
LINE
8
BLACK
6
CONTINUOUS
10
5.71117
20
-3.51933
11
5.7103
21
-3.51803
0
LINE
8
BLACK
6
CONTINUOUS
10
5.7103
20
-3.51803
11
5.71
21
-3.5165
0
LINE
8
BLACK
6
CONTINUOUS
10
5.71
20
-3.5165
11
5.71
21
-3.4515
0
LINE
8
BLACK
6
CONTINUOUS
10
5.71
20
-3.4515
11
5.7103
21
-3.44997
0
LINE
8
BLACK
6
CONTINUOUS
10
5.7103
20
-3.44997
11
5.71117
21
-3.44867
0
LINE
8
BLACK
6
CONTINUOUS
10
5.71117
20
-3.44867
11
5.71247
21
-3.4478
0
LINE
8
BLACK
6
CONTINUOUS
10
5.71247
20
-3.4478
11
5.714
21
-3.4475
0
LINE
8
BLACK
6
CONTINUOUS
10
5.714
20
-3.4475
11
5.779
21
-3.4475
0
LINE
8
BLACK
6
CONTINUOUS
10
5.779
20
-3.4475
11
5.78053
21
-3.4478
0
LINE
8
BLACK
6
CONTINUOUS
10
5.88053
20
-3.4478
11
5.88183
21
-3.44867
0
LINE
8
BLACK
6
CONTINUOUS
10
5.88183
20
-3.44867
11
5.8827
21
-3.44997
0
LINE
8
BLACK
6
CONTINUOUS
10
5.8827
20
-3.44997
11
5.883
21
-3.4515
0
LINE
8
BLACK
6
CONTINUOUS
10
5.883
20
-3.4515
11
5.883
21
-3.5165
0
LINE
8
BLACK
6
CONTINUOUS
10
5.883
20
-3.5165
11
5.8827
21
-3.51803
0
LINE
8
BLACK
6
CONTINUOUS
10
5.8827
20
-3.51803
11
5.88183
21
-3.51933
0
LINE
8
BLACK
6
CONTINUOUS
10
5.88183
20
-3.51933
11
5.88053
21
-3.5202
0
LINE
8
BLACK
6
CONTINUOUS
10
5.88053
20
-3.5202
11
5.879
21
-3.5205
0
LINE
8
BLACK
6
CONTINUOUS
10
5.879
20
-3.5205
11
5.814
21
-3.5205
0
LINE
8
BLACK
6
CONTINUOUS
10
5.814
20
-3.5205
11
5.81247
21
-3.5202
0
LINE
8
BLACK
6
CONTINUOUS
10
5.81247
20
-3.5202
11
5.81117
21
-3.51933
0
LINE
8
BLACK
6
CONTINUOUS
10
5.81117
20
-3.51933
11
5.8103
21
-3.51803
0
LINE
8
BLACK
6
CONTINUOUS
10
5.8103
20
-3.51803
11
5.81
21
-3.5165
0
LINE
8
BLACK
6
CONTINUOUS
10
5.81
20
-3.5165
11
5.81
21
-3.4515
0
LINE
8
BLACK
6
CONTINUOUS
10
5.81
20
-3.4515
11
5.8103
21
-3.44997
0
LINE
8
BLACK
6
CONTINUOUS
10
5.8103
20
-3.44997
11
5.81117
21
-3.44867
0
LINE
8
BLACK
6
CONTINUOUS
10
5.81117
20
-3.44867
11
5.81247
21
-3.4478
0
LINE
8
BLACK
6
CONTINUOUS
10
5.81247
20
-3.4478
11
5.814
21
-3.4475
0
LINE
8
BLACK
6
CONTINUOUS
10
5.814
20
-3.4475
11
5.879
21
-3.4475
0
LINE
8
BLACK
6
CONTINUOUS
10
5.879
20
-3.4475
11
5.88053
21
-3.4478
0
LINE
8
BLACK
6
CONTINUOUS
10
5.98053
20
-3.4478
11
5.98183
21
-3.44867
0
LINE
8
BLACK
6
CONTINUOUS
10
5.98183
20
-3.44867
11
5.9827
21
-3.44997
0
LINE
8
BLACK
6
CONTINUOUS
10
5.9827
20
-3.44997
11
5.983
21
-3.4515
0
LINE
8
BLACK
6
CONTINUOUS
10
5.983
20
-3.4515
11
5.983
21
-3.5165
0
LINE
8
BLACK
6
CONTINUOUS
10
5.983
20
-3.5165
11
5.9827
21
-3.51803
0
LINE
8
BLACK
6
CONTINUOUS
10
5.9827
20
-3.51803
11
5.98183
21
-3.51933
0
LINE
8
BLACK
6
CONTINUOUS
10
5.98183
20
-3.51933
11
5.98053
21
-3.5202
0
LINE
8
BLACK
6
CONTINUOUS
10
5.98053
20
-3.5202
11
5.979
21
-3.5205
0
LINE
8
BLACK
6
CONTINUOUS
10
5.979
20
-3.5205
11
5.914
21
-3.5205
0
LINE
8
BLACK
6
CONTINUOUS
10
5.914
20
-3.5205
11
5.91247
21
-3.5202
0
LINE
8
BLACK
6
CONTINUOUS
10
5.91247
20
-3.5202
11
5.91117
21
-3.51933
0
LINE
8
BLACK
6
CONTINUOUS
10
5.91117
20
-3.51933
11
5.9103
21
-3.51803
0
LINE
8
BLACK
6
CONTINUOUS
10
5.9103
20
-3.51803
11
5.91
21
-3.5165
0
LINE
8
BLACK
6
CONTINUOUS
10
5.91
20
-3.5165
11
5.91
21
-3.4515
0
LINE
8
BLACK
6
CONTINUOUS
10
5.91
20
-3.4515
11
5.9103
21
-3.44997
0
LINE
8
BLACK
6
CONTINUOUS
10
5.9103
20
-3.44997
11
5.91117
21
-3.44867
0
LINE
8
BLACK
6
CONTINUOUS
10
5.91117
20
-3.44867
11
5.91247
21
-3.4478
0
LINE
8
BLACK
6
CONTINUOUS
10
5.91247
20
-3.4478
11
5.914
21
-3.4475
0
LINE
8
BLACK
6
CONTINUOUS
10
5.914
20
-3.4475
11
5.979
21
-3.4475
0
LINE
8
BLACK
6
CONTINUOUS
10
5.979
20
-3.4475
11
5.98053
21
-3.4478
0
LINE
8
BLACK
6
CONTINUOUS
10
6.08053
20
-3.4478
11
6.08183
21
-3.44867
0
LINE
8
BLACK
6
CONTINUOUS
10
6.08183
20
-3.44867
11
6.0827
21
-3.44997
0
LINE
8
BLACK
6
CONTINUOUS
10
6.0827
20
-3.44997
11
6.083
21
-3.4515
0
LINE
8
BLACK
6
CONTINUOUS
10
6.083
20
-3.4515
11
6.083
21
-3.5165
0
LINE
8
BLACK
6
CONTINUOUS
10
6.083
20
-3.5165
11
6.0827
21
-3.51803
0
LINE
8
BLACK
6
CONTINUOUS
10
6.0827
20
-3.51803
11
6.08183
21
-3.51933
0
LINE
8
BLACK
6
CONTINUOUS
10
6.08183
20
-3.51933
11
6.08053
21
-3.5202
0
LINE
8
BLACK
6
CONTINUOUS
10
6.08053
20
-3.5202
11
6.079
21
-3.5205
0
LINE
8
BLACK
6
CONTINUOUS
10
6.079
20
-3.5205
11
6.014
21
-3.5205
0
LINE
8
BLACK
6
CONTINUOUS
10
6.014
20
-3.5205
11
6.01247
21
-3.5202
0
LINE
8
BLACK
6
CONTINUOUS
10
6.01247
20
-3.5202
11
6.01117
21
-3.51933
0
LINE
8
BLACK
6
CONTINUOUS
10
6.01117
20
-3.51933
11
6.0103
21
-3.51803
0
LINE
8
BLACK
6
CONTINUOUS
10
6.0103
20
-3.51803
11
6.01
21
-3.5165
0
LINE
8
BLACK
6
CONTINUOUS
10
6.01
20
-3.5165
11
6.01
21
-3.4515
0
LINE
8
BLACK
6
CONTINUOUS
10
6.01
20
-3.4515
11
6.0103
21
-3.44997
0
LINE
8
BLACK
6
CONTINUOUS
10
6.0103
20
-3.44997
11
6.01117
21
-3.44867
0
LINE
8
BLACK
6
CONTINUOUS
10
6.01117
20
-3.44867
11
6.01247
21
-3.4478
0
LINE
8
BLACK
6
CONTINUOUS
10
6.01247
20
-3.4478
11
6.014
21
-3.4475
0
LINE
8
BLACK
6
CONTINUOUS
10
6.014
20
-3.4475
11
6.079
21
-3.4475
0
LINE
8
BLACK
6
CONTINUOUS
10
6.079
20
-3.4475
11
6.08053
21
-3.4478
  0
ENDSEC
  0
EOF
