  0
SECTION
  2
HEADER
  9
$ANGBASE
  50
0.0
  9
$ANGDIR
  70
1
  9
$MEASUREMENT
  70
0
  0
ENDSEC
  0
SECTION
  2
TABLES
  0
TABLE
  2
LTYPE
  70
4
  0
LTYPE
  5
40F
  2
CONTINUOUS
  70
0
  3
Solid line
  72
65
  73
0
  40
0.0
  0
LTYPE
  5
410
  2
DASHDOT
 70
0
  3
Dash Dot ____ _ ____ _
 72
65
 73
4
 40
2.0
 49
1.25
 49
-0.25
 49
0.25
 49
-0.25
  0
LTYPE
  5
411
  2
DASHED
 70
0
  3
Dashed __ __ __ __ __
 72
65
 73
2
 40
0.75
 49
0.5
 49
-0.25
  0
LTYPE
  5
43B
  2
DOTTED
 70
0
  3
Dotted .  .  .  .
 72
65
 73
2
 40
0.2
 49
0.0
 49
-0.2
  0
ENDTAB
  0
TABLE
  2
STYLE
  70
4
  0
STYLE
  2
KICAD
  70
0
  40
0
  41
1
  42
1
  50
0
  71
0
  3
isocp.shx
  0
STYLE
  2
KICADB
  70
0
  40
0
  41
1
  42
1
  50
0
  71
0
  3
isocp.shx
  0
STYLE
  2
KICADI
  70
0
  40
0
  41
1
  42
1
  50
15
  71
0
  3
isocp.shx
  0
STYLE
  2
KICADBI
  70
0
  40
0
  41
1
  42
1
  50
15
  71
0
  3
isocp.shx
  0
ENDTAB
  0
TABLE
  2
LAYER
  70
1
  0
LAYER
  2
BLACK
  70
0
  62
7
  6
CONTINUOUS
  0
ENDTAB
  0
ENDSEC
  0
SECTION
  2
ENTITIES
0
LINE
8
BLACK
6
CONTINUOUS
10
5.91343
20
-4.72942
11
5.77957
21
-4.72942
0
LINE
8
BLACK
6
CONTINUOUS
10
5.77957
20
-4.72942
11
5.77957
21
-4.65462
0
LINE
8
BLACK
6
CONTINUOUS
10
5.77957
20
-4.65462
11
5.91343
21
-4.65462
0
LINE
8
BLACK
6
CONTINUOUS
10
5.91343
20
-4.65462
11
5.91343
21
-4.72942
0
LINE
8
BLACK
6
CONTINUOUS
10
5.91343
20
-4.57588
11
5.77957
21
-4.57588
0
LINE
8
BLACK
6
CONTINUOUS
10
5.77957
20
-4.57588
11
5.77957
21
-4.50108
0
LINE
8
BLACK
6
CONTINUOUS
10
5.77957
20
-4.50108
11
5.91343
21
-4.50108
0
LINE
8
BLACK
6
CONTINUOUS
10
5.91343
20
-4.50108
11
5.91343
21
-4.57588
0
LINE
8
BLACK
6
CONTINUOUS
10
5.52091
20
-4.55014
11
5.47957
21
-4.55014
0
LINE
8
BLACK
6
CONTINUOUS
10
5.47957
20
-4.55014
11
5.47957
21
-4.49109
0
LINE
8
BLACK
6
CONTINUOUS
10
5.47957
20
-4.49109
11
5.52091
21
-4.49109
0
LINE
8
BLACK
6
CONTINUOUS
10
5.52091
20
-4.49109
11
5.52091
21
-4.55014
0
LINE
8
BLACK
6
CONTINUOUS
10
5.36343
20
-4.55014
11
5.32209
21
-4.55014
0
LINE
8
BLACK
6
CONTINUOUS
10
5.32209
20
-4.55014
11
5.32209
21
-4.49109
0
LINE
8
BLACK
6
CONTINUOUS
10
5.32209
20
-4.49109
11
5.36343
21
-4.49109
0
LINE
8
BLACK
6
CONTINUOUS
10
5.36343
20
-4.49109
11
5.36343
21
-4.55014
0
LINE
8
BLACK
6
CONTINUOUS
10
6.06021
20
-4.38121
11
6.0634
21
-4.38334
0
LINE
8
BLACK
6
CONTINUOUS
10
6.0634
20
-4.38334
11
6.06553
21
-4.38653
0
LINE
8
BLACK
6
CONTINUOUS
10
6.06553
20
-4.38653
11
6.06628
21
-4.3903
0
LINE
8
BLACK
6
CONTINUOUS
10
6.06628
20
-4.3903
11
6.06628
21
-4.4277
0
LINE
8
BLACK
6
CONTINUOUS
10
6.06628
20
-4.4277
11
6.06553
21
-4.43147
0
LINE
8
BLACK
6
CONTINUOUS
10
6.06553
20
-4.43147
11
6.0634
21
-4.43466
0
LINE
8
BLACK
6
CONTINUOUS
10
6.0634
20
-4.43466
11
6.06021
21
-4.43679
0
LINE
8
BLACK
6
CONTINUOUS
10
6.06021
20
-4.43679
11
6.05644
21
-4.43754
0
LINE
8
BLACK
6
CONTINUOUS
10
6.05644
20
-4.43754
11
6.03676
21
-4.43754
0
LINE
8
BLACK
6
CONTINUOUS
10
6.03676
20
-4.43754
11
6.03299
21
-4.43679
0
LINE
8
BLACK
6
CONTINUOUS
10
6.03299
20
-4.43679
11
6.0298
21
-4.43466
0
LINE
8
BLACK
6
CONTINUOUS
10
6.0298
20
-4.43466
11
6.02766
21
-4.43147
0
LINE
8
BLACK
6
CONTINUOUS
10
6.02766
20
-4.43147
11
6.02691
21
-4.4277
0
LINE
8
BLACK
6
CONTINUOUS
10
6.02691
20
-4.4277
11
6.02691
21
-4.3903
0
LINE
8
BLACK
6
CONTINUOUS
10
6.02691
20
-4.3903
11
6.02766
21
-4.38653
0
LINE
8
BLACK
6
CONTINUOUS
10
6.02766
20
-4.38653
11
6.0298
21
-4.38334
0
LINE
8
BLACK
6
CONTINUOUS
10
6.0298
20
-4.38334
11
6.03299
21
-4.38121
0
LINE
8
BLACK
6
CONTINUOUS
10
6.03299
20
-4.38121
11
6.03676
21
-4.38046
0
LINE
8
BLACK
6
CONTINUOUS
10
6.03676
20
-4.38046
11
6.05644
21
-4.38046
0
LINE
8
BLACK
6
CONTINUOUS
10
6.05644
20
-4.38046
11
6.06021
21
-4.38121
0
LINE
8
BLACK
6
CONTINUOUS
10
6.13501
20
-4.38121
11
6.1382
21
-4.38334
0
LINE
8
BLACK
6
CONTINUOUS
10
6.1382
20
-4.38334
11
6.14034
21
-4.38653
0
LINE
8
BLACK
6
CONTINUOUS
10
6.14034
20
-4.38653
11
6.14109
21
-4.3903
0
LINE
8
BLACK
6
CONTINUOUS
10
6.14109
20
-4.3903
11
6.14109
21
-4.4277
0
LINE
8
BLACK
6
CONTINUOUS
10
6.14109
20
-4.4277
11
6.14034
21
-4.43147
0
LINE
8
BLACK
6
CONTINUOUS
10
6.14034
20
-4.43147
11
6.1382
21
-4.43466
0
LINE
8
BLACK
6
CONTINUOUS
10
6.1382
20
-4.43466
11
6.13501
21
-4.43679
0
LINE
8
BLACK
6
CONTINUOUS
10
6.13501
20
-4.43679
11
6.13124
21
-4.43754
0
LINE
8
BLACK
6
CONTINUOUS
10
6.13124
20
-4.43754
11
6.11156
21
-4.43754
0
LINE
8
BLACK
6
CONTINUOUS
10
6.11156
20
-4.43754
11
6.10779
21
-4.43679
0
LINE
8
BLACK
6
CONTINUOUS
10
6.10779
20
-4.43679
11
6.1046
21
-4.43466
0
LINE
8
BLACK
6
CONTINUOUS
10
6.1046
20
-4.43466
11
6.10247
21
-4.43147
0
LINE
8
BLACK
6
CONTINUOUS
10
6.10247
20
-4.43147
11
6.10172
21
-4.4277
0
LINE
8
BLACK
6
CONTINUOUS
10
6.10172
20
-4.4277
11
6.10172
21
-4.3903
0
LINE
8
BLACK
6
CONTINUOUS
10
6.10172
20
-4.3903
11
6.10247
21
-4.38653
0
LINE
8
BLACK
6
CONTINUOUS
10
6.10247
20
-4.38653
11
6.1046
21
-4.38334
0
LINE
8
BLACK
6
CONTINUOUS
10
6.1046
20
-4.38334
11
6.10779
21
-4.38121
0
LINE
8
BLACK
6
CONTINUOUS
10
6.10779
20
-4.38121
11
6.11156
21
-4.38046
0
LINE
8
BLACK
6
CONTINUOUS
10
6.11156
20
-4.38046
11
6.13124
21
-4.38046
0
LINE
8
BLACK
6
CONTINUOUS
10
6.13124
20
-4.38046
11
6.13501
21
-4.38121
0
LINE
8
BLACK
6
CONTINUOUS
10
5.6534
20
-4.42825
11
5.6144
21
-4.42825
0
LINE
8
BLACK
6
CONTINUOUS
10
5.6144
20
-4.42825
11
5.6144
21
-4.37725
0
LINE
8
BLACK
6
CONTINUOUS
10
5.6144
20
-4.37725
11
5.6534
21
-4.37725
0
LINE
8
BLACK
6
CONTINUOUS
10
5.6534
20
-4.37725
11
5.6534
21
-4.42825
0
LINE
8
BLACK
6
CONTINUOUS
10
5.5786
20
-4.42825
11
5.5396
21
-4.42825
0
LINE
8
BLACK
6
CONTINUOUS
10
5.5396
20
-4.42825
11
5.5396
21
-4.37725
0
LINE
8
BLACK
6
CONTINUOUS
10
5.5396
20
-4.37725
11
5.5786
21
-4.37725
0
LINE
8
BLACK
6
CONTINUOUS
10
5.5786
20
-4.37725
11
5.5786
21
-4.42825
0
LINE
8
BLACK
6
CONTINUOUS
10
5.36343
20
-4.35329
11
5.32209
21
-4.35329
0
LINE
8
BLACK
6
CONTINUOUS
10
5.32209
20
-4.35329
11
5.32209
21
-4.29424
0
LINE
8
BLACK
6
CONTINUOUS
10
5.32209
20
-4.29424
11
5.36343
21
-4.29424
0
LINE
8
BLACK
6
CONTINUOUS
10
5.36343
20
-4.29424
11
5.36343
21
-4.35329
0
LINE
8
BLACK
6
CONTINUOUS
10
5.52091
20
-4.35329
11
5.47957
21
-4.35329
0
LINE
8
BLACK
6
CONTINUOUS
10
5.47957
20
-4.35329
11
5.47957
21
-4.29424
0
LINE
8
BLACK
6
CONTINUOUS
10
5.47957
20
-4.29424
11
5.52091
21
-4.29424
0
LINE
8
BLACK
6
CONTINUOUS
10
5.52091
20
-4.29424
11
5.52091
21
-4.35329
0
LINE
8
BLACK
6
CONTINUOUS
10
5.6534
20
-4.35325
11
5.6144
21
-4.35325
0
LINE
8
BLACK
6
CONTINUOUS
10
5.6144
20
-4.35325
11
5.6144
21
-4.30225
0
LINE
8
BLACK
6
CONTINUOUS
10
5.6144
20
-4.30225
11
5.6534
21
-4.30225
0
LINE
8
BLACK
6
CONTINUOUS
10
5.6534
20
-4.30225
11
5.6534
21
-4.35325
0
LINE
8
BLACK
6
CONTINUOUS
10
5.5786
20
-4.35325
11
5.5396
21
-4.35325
0
LINE
8
BLACK
6
CONTINUOUS
10
5.5396
20
-4.35325
11
5.5396
21
-4.30225
0
LINE
8
BLACK
6
CONTINUOUS
10
5.5396
20
-4.30225
11
5.5786
21
-4.30225
0
LINE
8
BLACK
6
CONTINUOUS
10
5.5786
20
-4.30225
11
5.5786
21
-4.35325
0
LINE
8
BLACK
6
CONTINUOUS
10
5.96495
20
-4.3464
11
5.95118
21
-4.3464
0
LINE
8
BLACK
6
CONTINUOUS
10
5.95118
20
-4.3464
11
5.95118
21
-4.32475
0
LINE
8
BLACK
6
CONTINUOUS
10
5.95118
20
-4.32475
11
5.96495
21
-4.32475
0
LINE
8
BLACK
6
CONTINUOUS
10
5.96495
20
-4.32475
11
5.96495
21
-4.3464
0
LINE
8
BLACK
6
CONTINUOUS
10
6.00432
20
-4.3464
11
5.99055
21
-4.3464
0
LINE
8
BLACK
6
CONTINUOUS
10
5.99055
20
-4.3464
11
5.99055
21
-4.32475
0
LINE
8
BLACK
6
CONTINUOUS
10
5.99055
20
-4.32475
11
6.00432
21
-4.32475
0
LINE
8
BLACK
6
CONTINUOUS
10
6.00432
20
-4.32475
11
6.00432
21
-4.3464
0
LINE
8
BLACK
6
CONTINUOUS
10
5.98464
20
-4.3464
11
5.97086
21
-4.3464
0
LINE
8
BLACK
6
CONTINUOUS
10
5.97086
20
-4.3464
11
5.97086
21
-4.32475
0
LINE
8
BLACK
6
CONTINUOUS
10
5.97086
20
-4.32475
11
5.98464
21
-4.32475
0
LINE
8
BLACK
6
CONTINUOUS
10
5.98464
20
-4.32475
11
5.98464
21
-4.3464
0
LINE
8
BLACK
6
CONTINUOUS
10
5.96495
20
-4.29325
11
5.95118
21
-4.29325
0
LINE
8
BLACK
6
CONTINUOUS
10
5.95118
20
-4.29325
11
5.95118
21
-4.2716
0
LINE
8
BLACK
6
CONTINUOUS
10
5.95118
20
-4.2716
11
5.96495
21
-4.2716
0
LINE
8
BLACK
6
CONTINUOUS
10
5.96495
20
-4.2716
11
5.96495
21
-4.29325
0
LINE
8
BLACK
6
CONTINUOUS
10
6.00432
20
-4.29325
11
5.99055
21
-4.29325
0
LINE
8
BLACK
6
CONTINUOUS
10
5.99055
20
-4.29325
11
5.99055
21
-4.2716
0
LINE
8
BLACK
6
CONTINUOUS
10
5.99055
20
-4.2716
11
6.00432
21
-4.2716
0
LINE
8
BLACK
6
CONTINUOUS
10
6.00432
20
-4.2716
11
6.00432
21
-4.29325
0
LINE
8
BLACK
6
CONTINUOUS
10
5.72522
20
-4.25247
11
5.72841
21
-4.2546
0
LINE
8
BLACK
6
CONTINUOUS
10
5.72841
20
-4.2546
11
5.73054
21
-4.25779
0
LINE
8
BLACK
6
CONTINUOUS
10
5.73054
20
-4.25779
11
5.73129
21
-4.26156
0
LINE
8
BLACK
6
CONTINUOUS
10
5.73129
20
-4.26156
11
5.73129
21
-4.28124
0
LINE
8
BLACK
6
CONTINUOUS
10
5.73129
20
-4.28124
11
5.73054
21
-4.28501
0
LINE
8
BLACK
6
CONTINUOUS
10
5.73054
20
-4.28501
11
5.72841
21
-4.2882
0
LINE
8
BLACK
6
CONTINUOUS
10
5.72841
20
-4.2882
11
5.72522
21
-4.29034
0
LINE
8
BLACK
6
CONTINUOUS
10
5.72522
20
-4.29034
11
5.72145
21
-4.29109
0
LINE
8
BLACK
6
CONTINUOUS
10
5.72145
20
-4.29109
11
5.68405
21
-4.29109
0
LINE
8
BLACK
6
CONTINUOUS
10
5.68405
20
-4.29109
11
5.68028
21
-4.29034
0
LINE
8
BLACK
6
CONTINUOUS
10
5.68028
20
-4.29034
11
5.67709
21
-4.2882
0
LINE
8
BLACK
6
CONTINUOUS
10
5.67709
20
-4.2882
11
5.67496
21
-4.28501
0
LINE
8
BLACK
6
CONTINUOUS
10
5.67496
20
-4.28501
11
5.67421
21
-4.28124
0
LINE
8
BLACK
6
CONTINUOUS
10
5.67421
20
-4.28124
11
5.67421
21
-4.26156
0
LINE
8
BLACK
6
CONTINUOUS
10
5.67421
20
-4.26156
11
5.67496
21
-4.25779
0
LINE
8
BLACK
6
CONTINUOUS
10
5.67496
20
-4.25779
11
5.67709
21
-4.2546
0
LINE
8
BLACK
6
CONTINUOUS
10
5.67709
20
-4.2546
11
5.68028
21
-4.25247
0
LINE
8
BLACK
6
CONTINUOUS
10
5.68028
20
-4.25247
11
5.68405
21
-4.25172
0
LINE
8
BLACK
6
CONTINUOUS
10
5.68405
20
-4.25172
11
5.72145
21
-4.25172
0
LINE
8
BLACK
6
CONTINUOUS
10
5.72145
20
-4.25172
11
5.72522
21
-4.25247
0
LINE
8
BLACK
6
CONTINUOUS
10
5.80647
20
-4.25247
11
5.80966
21
-4.2546
0
LINE
8
BLACK
6
CONTINUOUS
10
5.80966
20
-4.2546
11
5.81179
21
-4.25779
0
LINE
8
BLACK
6
CONTINUOUS
10
5.81179
20
-4.25779
11
5.81254
21
-4.26156
0
LINE
8
BLACK
6
CONTINUOUS
10
5.81254
20
-4.26156
11
5.81254
21
-4.28124
0
LINE
8
BLACK
6
CONTINUOUS
10
5.81254
20
-4.28124
11
5.81179
21
-4.28501
0
LINE
8
BLACK
6
CONTINUOUS
10
5.81179
20
-4.28501
11
5.80966
21
-4.2882
0
LINE
8
BLACK
6
CONTINUOUS
10
5.80966
20
-4.2882
11
5.80647
21
-4.29034
0
LINE
8
BLACK
6
CONTINUOUS
10
5.80647
20
-4.29034
11
5.8027
21
-4.29109
0
LINE
8
BLACK
6
CONTINUOUS
10
5.8027
20
-4.29109
11
5.7653
21
-4.29109
0
LINE
8
BLACK
6
CONTINUOUS
10
5.7653
20
-4.29109
11
5.76153
21
-4.29034
0
LINE
8
BLACK
6
CONTINUOUS
10
5.76153
20
-4.29034
11
5.75834
21
-4.2882
0
LINE
8
BLACK
6
CONTINUOUS
10
5.75834
20
-4.2882
11
5.75621
21
-4.28501
0
LINE
8
BLACK
6
CONTINUOUS
10
5.75621
20
-4.28501
11
5.75546
21
-4.28124
0
LINE
8
BLACK
6
CONTINUOUS
10
5.75546
20
-4.28124
11
5.75546
21
-4.26156
0
LINE
8
BLACK
6
CONTINUOUS
10
5.75546
20
-4.26156
11
5.75621
21
-4.25779
0
LINE
8
BLACK
6
CONTINUOUS
10
5.75621
20
-4.25779
11
5.75834
21
-4.2546
0
LINE
8
BLACK
6
CONTINUOUS
10
5.75834
20
-4.2546
11
5.76153
21
-4.25247
0
LINE
8
BLACK
6
CONTINUOUS
10
5.76153
20
-4.25247
11
5.7653
21
-4.25172
0
LINE
8
BLACK
6
CONTINUOUS
10
5.7653
20
-4.25172
11
5.8027
21
-4.25172
0
LINE
8
BLACK
6
CONTINUOUS
10
5.8027
20
-4.25172
11
5.80647
21
-4.25247
0
LINE
8
BLACK
6
CONTINUOUS
10
5.5786
20
-4.2845
11
5.5396
21
-4.2845
0
LINE
8
BLACK
6
CONTINUOUS
10
5.5396
20
-4.2845
11
5.5396
21
-4.2335
0
LINE
8
BLACK
6
CONTINUOUS
10
5.5396
20
-4.2335
11
5.5786
21
-4.2335
0
LINE
8
BLACK
6
CONTINUOUS
10
5.5786
20
-4.2335
11
5.5786
21
-4.2845
0
LINE
8
BLACK
6
CONTINUOUS
10
5.6534
20
-4.2845
11
5.6144
21
-4.2845
0
LINE
8
BLACK
6
CONTINUOUS
10
5.6144
20
-4.2845
11
5.6144
21
-4.2335
0
LINE
8
BLACK
6
CONTINUOUS
10
5.6144
20
-4.2335
11
5.6534
21
-4.2335
0
LINE
8
BLACK
6
CONTINUOUS
10
5.6534
20
-4.2335
11
5.6534
21
-4.2845
0
LINE
8
BLACK
6
CONTINUOUS
10
5.92721
20
-4.25054
11
5.91737
21
-4.25054
0
LINE
8
BLACK
6
CONTINUOUS
10
5.91737
20
-4.25054
11
5.91737
21
-4.22298
0
LINE
8
BLACK
6
CONTINUOUS
10
5.91737
20
-4.22298
11
5.92721
21
-4.22298
0
LINE
8
BLACK
6
CONTINUOUS
10
5.92721
20
-4.22298
11
5.92721
21
-4.25054
0
LINE
8
BLACK
6
CONTINUOUS
10
5.94689
20
-4.25054
11
5.93705
21
-4.25054
0
LINE
8
BLACK
6
CONTINUOUS
10
5.93705
20
-4.25054
11
5.93705
21
-4.22298
0
LINE
8
BLACK
6
CONTINUOUS
10
5.93705
20
-4.22298
11
5.94689
21
-4.22298
0
LINE
8
BLACK
6
CONTINUOUS
10
5.94689
20
-4.22298
11
5.94689
21
-4.25054
0
LINE
8
BLACK
6
CONTINUOUS
10
5.96658
20
-4.25054
11
5.95674
21
-4.25054
0
LINE
8
BLACK
6
CONTINUOUS
10
5.95674
20
-4.25054
11
5.95674
21
-4.22298
0
LINE
8
BLACK
6
CONTINUOUS
10
5.95674
20
-4.22298
11
5.96658
21
-4.22298
0
LINE
8
BLACK
6
CONTINUOUS
10
5.96658
20
-4.22298
11
5.96658
21
-4.25054
0
LINE
8
BLACK
6
CONTINUOUS
10
5.98626
20
-4.25054
11
5.97642
21
-4.25054
0
LINE
8
BLACK
6
CONTINUOUS
10
5.97642
20
-4.25054
11
5.97642
21
-4.22298
0
LINE
8
BLACK
6
CONTINUOUS
10
5.97642
20
-4.22298
11
5.98626
21
-4.22298
0
LINE
8
BLACK
6
CONTINUOUS
10
5.98626
20
-4.22298
11
5.98626
21
-4.25054
0
LINE
8
BLACK
6
CONTINUOUS
10
6.02563
20
-4.25054
11
6.01579
21
-4.25054
0
LINE
8
BLACK
6
CONTINUOUS
10
6.01579
20
-4.25054
11
6.01579
21
-4.22298
0
LINE
8
BLACK
6
CONTINUOUS
10
6.01579
20
-4.22298
11
6.02563
21
-4.22298
0
LINE
8
BLACK
6
CONTINUOUS
10
6.02563
20
-4.22298
11
6.02563
21
-4.25054
0
LINE
8
BLACK
6
CONTINUOUS
10
6.00595
20
-4.25054
11
5.99611
21
-4.25054
0
LINE
8
BLACK
6
CONTINUOUS
10
5.99611
20
-4.25054
11
5.99611
21
-4.22298
0
LINE
8
BLACK
6
CONTINUOUS
10
5.99611
20
-4.22298
11
6.00595
21
-4.22298
0
LINE
8
BLACK
6
CONTINUOUS
10
6.00595
20
-4.22298
11
6.00595
21
-4.25054
0
LINE
8
BLACK
6
CONTINUOUS
10
5.80647
20
-4.17766
11
5.80966
21
-4.1798
0
LINE
8
BLACK
6
CONTINUOUS
10
5.80966
20
-4.1798
11
5.81179
21
-4.18299
0
LINE
8
BLACK
6
CONTINUOUS
10
5.81179
20
-4.18299
11
5.81254
21
-4.18676
0
LINE
8
BLACK
6
CONTINUOUS
10
5.81254
20
-4.18676
11
5.81254
21
-4.20644
0
LINE
8
BLACK
6
CONTINUOUS
10
5.81254
20
-4.20644
11
5.81179
21
-4.21021
0
LINE
8
BLACK
6
CONTINUOUS
10
5.81179
20
-4.21021
11
5.80966
21
-4.2134
0
LINE
8
BLACK
6
CONTINUOUS
10
5.80966
20
-4.2134
11
5.80647
21
-4.21553
0
LINE
8
BLACK
6
CONTINUOUS
10
5.80647
20
-4.21553
11
5.8027
21
-4.21628
0
LINE
8
BLACK
6
CONTINUOUS
10
5.8027
20
-4.21628
11
5.7653
21
-4.21628
0
LINE
8
BLACK
6
CONTINUOUS
10
5.7653
20
-4.21628
11
5.76153
21
-4.21553
0
LINE
8
BLACK
6
CONTINUOUS
10
5.76153
20
-4.21553
11
5.75834
21
-4.2134
0
LINE
8
BLACK
6
CONTINUOUS
10
5.75834
20
-4.2134
11
5.75621
21
-4.21021
0
LINE
8
BLACK
6
CONTINUOUS
10
5.75621
20
-4.21021
11
5.75546
21
-4.20644
0
LINE
8
BLACK
6
CONTINUOUS
10
5.75546
20
-4.20644
11
5.75546
21
-4.18676
0
LINE
8
BLACK
6
CONTINUOUS
10
5.75546
20
-4.18676
11
5.75621
21
-4.18299
0
LINE
8
BLACK
6
CONTINUOUS
10
5.75621
20
-4.18299
11
5.75834
21
-4.1798
0
LINE
8
BLACK
6
CONTINUOUS
10
5.75834
20
-4.1798
11
5.76153
21
-4.17766
0
LINE
8
BLACK
6
CONTINUOUS
10
5.76153
20
-4.17766
11
5.7653
21
-4.17691
0
LINE
8
BLACK
6
CONTINUOUS
10
5.7653
20
-4.17691
11
5.8027
21
-4.17691
0
LINE
8
BLACK
6
CONTINUOUS
10
5.8027
20
-4.17691
11
5.80647
21
-4.17766
0
LINE
8
BLACK
6
CONTINUOUS
10
5.72522
20
-4.17766
11
5.72841
21
-4.1798
0
LINE
8
BLACK
6
CONTINUOUS
10
5.72841
20
-4.1798
11
5.73054
21
-4.18299
0
LINE
8
BLACK
6
CONTINUOUS
10
5.73054
20
-4.18299
11
5.73129
21
-4.18676
0
LINE
8
BLACK
6
CONTINUOUS
10
5.73129
20
-4.18676
11
5.73129
21
-4.20644
0
LINE
8
BLACK
6
CONTINUOUS
10
5.73129
20
-4.20644
11
5.73054
21
-4.21021
0
LINE
8
BLACK
6
CONTINUOUS
10
5.73054
20
-4.21021
11
5.72841
21
-4.2134
0
LINE
8
BLACK
6
CONTINUOUS
10
5.72841
20
-4.2134
11
5.72522
21
-4.21553
0
LINE
8
BLACK
6
CONTINUOUS
10
5.72522
20
-4.21553
11
5.72145
21
-4.21628
0
LINE
8
BLACK
6
CONTINUOUS
10
5.72145
20
-4.21628
11
5.68405
21
-4.21628
0
LINE
8
BLACK
6
CONTINUOUS
10
5.68405
20
-4.21628
11
5.68028
21
-4.21553
0
LINE
8
BLACK
6
CONTINUOUS
10
5.68028
20
-4.21553
11
5.67709
21
-4.2134
0
LINE
8
BLACK
6
CONTINUOUS
10
5.67709
20
-4.2134
11
5.67496
21
-4.21021
0
LINE
8
BLACK
6
CONTINUOUS
10
5.67496
20
-4.21021
11
5.67421
21
-4.20644
0
LINE
8
BLACK
6
CONTINUOUS
10
5.67421
20
-4.20644
11
5.67421
21
-4.18676
0
LINE
8
BLACK
6
CONTINUOUS
10
5.67421
20
-4.18676
11
5.67496
21
-4.18299
0
LINE
8
BLACK
6
CONTINUOUS
10
5.67496
20
-4.18299
11
5.67709
21
-4.1798
0
LINE
8
BLACK
6
CONTINUOUS
10
5.67709
20
-4.1798
11
5.68028
21
-4.17766
0
LINE
8
BLACK
6
CONTINUOUS
10
5.68028
20
-4.17766
11
5.68405
21
-4.17691
0
LINE
8
BLACK
6
CONTINUOUS
10
5.68405
20
-4.17691
11
5.72145
21
-4.17691
0
LINE
8
BLACK
6
CONTINUOUS
10
5.72145
20
-4.17691
11
5.72522
21
-4.17766
0
LINE
8
BLACK
6
CONTINUOUS
10
5.90752
20
-4.21313
11
5.87996
21
-4.21313
0
LINE
8
BLACK
6
CONTINUOUS
10
5.87996
20
-4.21313
11
5.87996
21
-4.20329
0
LINE
8
BLACK
6
CONTINUOUS
10
5.87996
20
-4.20329
11
5.90752
21
-4.20329
0
LINE
8
BLACK
6
CONTINUOUS
10
5.90752
20
-4.20329
11
5.90752
21
-4.21313
0
LINE
8
BLACK
6
CONTINUOUS
10
6.06304
20
-4.21313
11
6.03548
21
-4.21313
0
LINE
8
BLACK
6
CONTINUOUS
10
6.03548
20
-4.21313
11
6.03548
21
-4.20329
0
LINE
8
BLACK
6
CONTINUOUS
10
6.03548
20
-4.20329
11
6.06304
21
-4.20329
0
LINE
8
BLACK
6
CONTINUOUS
10
6.06304
20
-4.20329
11
6.06304
21
-4.21313
0
LINE
8
BLACK
6
CONTINUOUS
10
6.02465
20
-4.21215
11
5.91835
21
-4.21215
0
LINE
8
BLACK
6
CONTINUOUS
10
5.91835
20
-4.21215
11
5.91835
21
-4.10585
0
LINE
8
BLACK
6
CONTINUOUS
10
5.91835
20
-4.10585
11
6.02465
21
-4.10585
0
LINE
8
BLACK
6
CONTINUOUS
10
6.02465
20
-4.10585
11
6.02465
21
-4.21215
0
LINE
8
BLACK
6
CONTINUOUS
10
5.90752
20
-4.19345
11
5.87996
21
-4.19345
0
LINE
8
BLACK
6
CONTINUOUS
10
5.87996
20
-4.19345
11
5.87996
21
-4.18361
0
LINE
8
BLACK
6
CONTINUOUS
10
5.87996
20
-4.18361
11
5.90752
21
-4.18361
0
LINE
8
BLACK
6
CONTINUOUS
10
5.90752
20
-4.18361
11
5.90752
21
-4.19345
0
LINE
8
BLACK
6
CONTINUOUS
10
6.06304
20
-4.19345
11
6.03548
21
-4.19345
0
LINE
8
BLACK
6
CONTINUOUS
10
6.03548
20
-4.19345
11
6.03548
21
-4.18361
0
LINE
8
BLACK
6
CONTINUOUS
10
6.03548
20
-4.18361
11
6.06304
21
-4.18361
0
LINE
8
BLACK
6
CONTINUOUS
10
6.06304
20
-4.18361
11
6.06304
21
-4.19345
0
LINE
8
BLACK
6
CONTINUOUS
10
5.90752
20
-4.17376
11
5.87996
21
-4.17376
0
LINE
8
BLACK
6
CONTINUOUS
10
5.87996
20
-4.17376
11
5.87996
21
-4.16392
0
LINE
8
BLACK
6
CONTINUOUS
10
5.87996
20
-4.16392
11
5.90752
21
-4.16392
0
LINE
8
BLACK
6
CONTINUOUS
10
5.90752
20
-4.16392
11
5.90752
21
-4.17376
0
LINE
8
BLACK
6
CONTINUOUS
10
6.06304
20
-4.17376
11
6.03548
21
-4.17376
0
LINE
8
BLACK
6
CONTINUOUS
10
6.03548
20
-4.17376
11
6.03548
21
-4.16392
0
LINE
8
BLACK
6
CONTINUOUS
10
6.03548
20
-4.16392
11
6.06304
21
-4.16392
0
LINE
8
BLACK
6
CONTINUOUS
10
6.06304
20
-4.16392
11
6.06304
21
-4.17376
0
LINE
8
BLACK
6
CONTINUOUS
10
5.36343
20
-4.15644
11
5.32209
21
-4.15644
0
LINE
8
BLACK
6
CONTINUOUS
10
5.32209
20
-4.15644
11
5.32209
21
-4.09739
0
LINE
8
BLACK
6
CONTINUOUS
10
5.32209
20
-4.09739
11
5.36343
21
-4.09739
0
LINE
8
BLACK
6
CONTINUOUS
10
5.36343
20
-4.09739
11
5.36343
21
-4.15644
0
LINE
8
BLACK
6
CONTINUOUS
10
5.52091
20
-4.15644
11
5.47957
21
-4.15644
0
LINE
8
BLACK
6
CONTINUOUS
10
5.47957
20
-4.15644
11
5.47957
21
-4.09739
0
LINE
8
BLACK
6
CONTINUOUS
10
5.47957
20
-4.09739
11
5.52091
21
-4.09739
0
LINE
8
BLACK
6
CONTINUOUS
10
5.52091
20
-4.09739
11
5.52091
21
-4.15644
0
LINE
8
BLACK
6
CONTINUOUS
10
5.90752
20
-4.15408
11
5.87996
21
-4.15408
0
LINE
8
BLACK
6
CONTINUOUS
10
5.87996
20
-4.15408
11
5.87996
21
-4.14424
0
LINE
8
BLACK
6
CONTINUOUS
10
5.87996
20
-4.14424
11
5.90752
21
-4.14424
0
LINE
8
BLACK
6
CONTINUOUS
10
5.90752
20
-4.14424
11
5.90752
21
-4.15408
0
LINE
8
BLACK
6
CONTINUOUS
10
6.06304
20
-4.15408
11
6.03548
21
-4.15408
0
LINE
8
BLACK
6
CONTINUOUS
10
6.03548
20
-4.15408
11
6.03548
21
-4.14424
0
LINE
8
BLACK
6
CONTINUOUS
10
6.03548
20
-4.14424
11
6.06304
21
-4.14424
0
LINE
8
BLACK
6
CONTINUOUS
10
6.06304
20
-4.14424
11
6.06304
21
-4.15408
0
LINE
8
BLACK
6
CONTINUOUS
10
5.90752
20
-4.13439
11
5.87996
21
-4.13439
0
LINE
8
BLACK
6
CONTINUOUS
10
5.87996
20
-4.13439
11
5.87996
21
-4.12455
0
LINE
8
BLACK
6
CONTINUOUS
10
5.87996
20
-4.12455
11
5.90752
21
-4.12455
0
LINE
8
BLACK
6
CONTINUOUS
10
5.90752
20
-4.12455
11
5.90752
21
-4.13439
0
LINE
8
BLACK
6
CONTINUOUS
10
6.06304
20
-4.13439
11
6.03548
21
-4.13439
0
LINE
8
BLACK
6
CONTINUOUS
10
6.03548
20
-4.13439
11
6.03548
21
-4.12455
0
LINE
8
BLACK
6
CONTINUOUS
10
6.03548
20
-4.12455
11
6.06304
21
-4.12455
0
LINE
8
BLACK
6
CONTINUOUS
10
6.06304
20
-4.12455
11
6.06304
21
-4.13439
0
LINE
8
BLACK
6
CONTINUOUS
10
6.06304
20
-4.11471
11
6.03548
21
-4.11471
0
LINE
8
BLACK
6
CONTINUOUS
10
6.03548
20
-4.11471
11
6.03548
21
-4.10487
0
LINE
8
BLACK
6
CONTINUOUS
10
6.03548
20
-4.10487
11
6.06304
21
-4.10487
0
LINE
8
BLACK
6
CONTINUOUS
10
6.06304
20
-4.10487
11
6.06304
21
-4.11471
0
LINE
8
BLACK
6
CONTINUOUS
10
5.90752
20
-4.11471
11
5.87996
21
-4.11471
0
LINE
8
BLACK
6
CONTINUOUS
10
5.87996
20
-4.11471
11
5.87996
21
-4.10487
0
LINE
8
BLACK
6
CONTINUOUS
10
5.87996
20
-4.10487
11
5.90752
21
-4.10487
0
LINE
8
BLACK
6
CONTINUOUS
10
5.90752
20
-4.10487
11
5.90752
21
-4.11471
0
LINE
8
BLACK
6
CONTINUOUS
10
5.92721
20
-4.09502
11
5.91737
21
-4.09502
0
LINE
8
BLACK
6
CONTINUOUS
10
5.91737
20
-4.09502
11
5.91737
21
-4.06746
0
LINE
8
BLACK
6
CONTINUOUS
10
5.91737
20
-4.06746
11
5.92721
21
-4.06746
0
LINE
8
BLACK
6
CONTINUOUS
10
5.92721
20
-4.06746
11
5.92721
21
-4.09502
0
LINE
8
BLACK
6
CONTINUOUS
10
5.96658
20
-4.09502
11
5.95674
21
-4.09502
0
LINE
8
BLACK
6
CONTINUOUS
10
5.95674
20
-4.09502
11
5.95674
21
-4.06746
0
LINE
8
BLACK
6
CONTINUOUS
10
5.95674
20
-4.06746
11
5.96658
21
-4.06746
0
LINE
8
BLACK
6
CONTINUOUS
10
5.96658
20
-4.06746
11
5.96658
21
-4.09502
0
LINE
8
BLACK
6
CONTINUOUS
10
5.94689
20
-4.09502
11
5.93705
21
-4.09502
0
LINE
8
BLACK
6
CONTINUOUS
10
5.93705
20
-4.09502
11
5.93705
21
-4.06746
0
LINE
8
BLACK
6
CONTINUOUS
10
5.93705
20
-4.06746
11
5.94689
21
-4.06746
0
LINE
8
BLACK
6
CONTINUOUS
10
5.94689
20
-4.06746
11
5.94689
21
-4.09502
0
LINE
8
BLACK
6
CONTINUOUS
10
6.02563
20
-4.09502
11
6.01579
21
-4.09502
0
LINE
8
BLACK
6
CONTINUOUS
10
6.01579
20
-4.09502
11
6.01579
21
-4.06746
0
LINE
8
BLACK
6
CONTINUOUS
10
6.01579
20
-4.06746
11
6.02563
21
-4.06746
0
LINE
8
BLACK
6
CONTINUOUS
10
6.02563
20
-4.06746
11
6.02563
21
-4.09502
0
LINE
8
BLACK
6
CONTINUOUS
10
6.00595
20
-4.09502
11
5.99611
21
-4.09502
0
LINE
8
BLACK
6
CONTINUOUS
10
5.99611
20
-4.09502
11
5.99611
21
-4.06746
0
LINE
8
BLACK
6
CONTINUOUS
10
5.99611
20
-4.06746
11
6.00595
21
-4.06746
0
LINE
8
BLACK
6
CONTINUOUS
10
6.00595
20
-4.06746
11
6.00595
21
-4.09502
0
LINE
8
BLACK
6
CONTINUOUS
10
5.98626
20
-4.09502
11
5.97642
21
-4.09502
0
LINE
8
BLACK
6
CONTINUOUS
10
5.97642
20
-4.09502
11
5.97642
21
-4.06746
0
LINE
8
BLACK
6
CONTINUOUS
10
5.97642
20
-4.06746
11
5.98626
21
-4.06746
0
LINE
8
BLACK
6
CONTINUOUS
10
5.98626
20
-4.06746
11
5.98626
21
-4.09502
0
LINE
8
BLACK
6
CONTINUOUS
10
6.02522
20
-3.96497
11
6.02841
21
-3.9671
0
LINE
8
BLACK
6
CONTINUOUS
10
6.02841
20
-3.9671
11
6.03054
21
-3.97029
0
LINE
8
BLACK
6
CONTINUOUS
10
6.03054
20
-3.97029
11
6.03129
21
-3.97406
0
LINE
8
BLACK
6
CONTINUOUS
10
6.03129
20
-3.97406
11
6.03129
21
-3.99374
0
LINE
8
BLACK
6
CONTINUOUS
10
6.03129
20
-3.99374
11
6.03054
21
-3.99751
0
LINE
8
BLACK
6
CONTINUOUS
10
6.03054
20
-3.99751
11
6.02841
21
-4.0007
0
LINE
8
BLACK
6
CONTINUOUS
10
6.02841
20
-4.0007
11
6.02522
21
-4.00284
0
LINE
8
BLACK
6
CONTINUOUS
10
6.02522
20
-4.00284
11
6.02145
21
-4.00359
0
LINE
8
BLACK
6
CONTINUOUS
10
6.02145
20
-4.00359
11
5.98405
21
-4.00359
0
LINE
8
BLACK
6
CONTINUOUS
10
5.98405
20
-4.00359
11
5.98028
21
-4.00284
0
LINE
8
BLACK
6
CONTINUOUS
10
5.98028
20
-4.00284
11
5.97709
21
-4.0007
0
LINE
8
BLACK
6
CONTINUOUS
10
5.97709
20
-4.0007
11
5.97496
21
-3.99751
0
LINE
8
BLACK
6
CONTINUOUS
10
5.97496
20
-3.99751
11
5.97421
21
-3.99374
0
LINE
8
BLACK
6
CONTINUOUS
10
5.97421
20
-3.99374
11
5.97421
21
-3.97406
0
LINE
8
BLACK
6
CONTINUOUS
10
5.97421
20
-3.97406
11
5.97496
21
-3.97029
0
LINE
8
BLACK
6
CONTINUOUS
10
5.97496
20
-3.97029
11
5.97709
21
-3.9671
0
LINE
8
BLACK
6
CONTINUOUS
10
5.97709
20
-3.9671
11
5.98028
21
-3.96497
0
LINE
8
BLACK
6
CONTINUOUS
10
5.98028
20
-3.96497
11
5.98405
21
-3.96422
0
LINE
8
BLACK
6
CONTINUOUS
10
5.98405
20
-3.96422
11
6.02145
21
-3.96422
0
LINE
8
BLACK
6
CONTINUOUS
10
6.02145
20
-3.96422
11
6.02522
21
-3.96497
0
LINE
8
BLACK
6
CONTINUOUS
10
5.84075
20
-3.95965
11
5.78975
21
-3.95965
0
LINE
8
BLACK
6
CONTINUOUS
10
5.78975
20
-3.95965
11
5.78975
21
-3.92065
0
LINE
8
BLACK
6
CONTINUOUS
10
5.78975
20
-3.92065
11
5.84075
21
-3.92065
0
LINE
8
BLACK
6
CONTINUOUS
10
5.84075
20
-3.92065
11
5.84075
21
-3.95965
0
LINE
8
BLACK
6
CONTINUOUS
10
6.02522
20
-3.89016
11
6.02841
21
-3.8923
0
LINE
8
BLACK
6
CONTINUOUS
10
6.02841
20
-3.8923
11
6.03054
21
-3.89549
0
LINE
8
BLACK
6
CONTINUOUS
10
6.03054
20
-3.89549
11
6.03129
21
-3.89926
0
LINE
8
BLACK
6
CONTINUOUS
10
6.03129
20
-3.89926
11
6.03129
21
-3.91894
0
LINE
8
BLACK
6
CONTINUOUS
10
6.03129
20
-3.91894
11
6.03054
21
-3.92271
0
LINE
8
BLACK
6
CONTINUOUS
10
6.03054
20
-3.92271
11
6.02841
21
-3.9259
0
LINE
8
BLACK
6
CONTINUOUS
10
6.02841
20
-3.9259
11
6.02522
21
-3.92803
0
LINE
8
BLACK
6
CONTINUOUS
10
6.02522
20
-3.92803
11
6.02145
21
-3.92878
0
LINE
8
BLACK
6
CONTINUOUS
10
6.02145
20
-3.92878
11
5.98405
21
-3.92878
0
LINE
8
BLACK
6
CONTINUOUS
10
5.98405
20
-3.92878
11
5.98028
21
-3.92803
0
LINE
8
BLACK
6
CONTINUOUS
10
5.98028
20
-3.92803
11
5.97709
21
-3.9259
0
LINE
8
BLACK
6
CONTINUOUS
10
5.97709
20
-3.9259
11
5.97496
21
-3.92271
0
LINE
8
BLACK
6
CONTINUOUS
10
5.97496
20
-3.92271
11
5.97421
21
-3.91894
0
LINE
8
BLACK
6
CONTINUOUS
10
5.97421
20
-3.91894
11
5.97421
21
-3.89926
0
LINE
8
BLACK
6
CONTINUOUS
10
5.97421
20
-3.89926
11
5.97496
21
-3.89549
0
LINE
8
BLACK
6
CONTINUOUS
10
5.97496
20
-3.89549
11
5.97709
21
-3.8923
0
LINE
8
BLACK
6
CONTINUOUS
10
5.97709
20
-3.8923
11
5.98028
21
-3.89016
0
LINE
8
BLACK
6
CONTINUOUS
10
5.98028
20
-3.89016
11
5.98405
21
-3.88941
0
LINE
8
BLACK
6
CONTINUOUS
10
5.98405
20
-3.88941
11
6.02145
21
-3.88941
0
LINE
8
BLACK
6
CONTINUOUS
10
6.02145
20
-3.88941
11
6.02522
21
-3.89016
0
LINE
8
BLACK
6
CONTINUOUS
10
5.84075
20
-3.88485
11
5.78975
21
-3.88485
0
LINE
8
BLACK
6
CONTINUOUS
10
5.78975
20
-3.88485
11
5.78975
21
-3.84585
0
LINE
8
BLACK
6
CONTINUOUS
10
5.78975
20
-3.84585
11
5.84075
21
-3.84585
0
LINE
8
BLACK
6
CONTINUOUS
10
5.84075
20
-3.84585
11
5.84075
21
-3.88485
  0
ENDSEC
  0
EOF
