  0
SECTION
  2
HEADER
  9
$ANGBASE
  50
0.0
  9
$ANGDIR
  70
1
  9
$MEASUREMENT
  70
0
  0
ENDSEC
  0
SECTION
  2
TABLES
  0
TABLE
  2
LTYPE
  70
4
  0
LTYPE
  5
40F
  2
CONTINUOUS
  70
0
  3
Solid line
  72
65
  73
0
  40
0.0
  0
LTYPE
  5
410
  2
DASHDOT
 70
0
  3
Dash Dot ____ _ ____ _
 72
65
 73
4
 40
2.0
 49
1.25
 49
-0.25
 49
0.25
 49
-0.25
  0
LTYPE
  5
411
  2
DASHED
 70
0
  3
Dashed __ __ __ __ __
 72
65
 73
2
 40
0.75
 49
0.5
 49
-0.25
  0
LTYPE
  5
43B
  2
DOTTED
 70
0
  3
Dotted .  .  .  .
 72
65
 73
2
 40
0.2
 49
0.0
 49
-0.2
  0
ENDTAB
  0
TABLE
  2
STYLE
  70
4
  0
STYLE
  2
KICAD
  70
0
  40
0
  41
1
  42
1
  50
0
  71
0
  3
isocp.shx
  0
STYLE
  2
KICADB
  70
0
  40
0
  41
1
  42
1
  50
0
  71
0
  3
isocp.shx
  0
STYLE
  2
KICADI
  70
0
  40
0
  41
1
  42
1
  50
15
  71
0
  3
isocp.shx
  0
STYLE
  2
KICADBI
  70
0
  40
0
  41
1
  42
1
  50
15
  71
0
  3
isocp.shx
  0
ENDTAB
  0
TABLE
  2
LAYER
  70
1
  0
LAYER
  2
BLACK
  70
0
  62
7
  6
CONTINUOUS
  0
ENDTAB
  0
ENDSEC
  0
SECTION
  2
ENTITIES
0
LINE
8
BLACK
6
CONTINUOUS
10
5.31632
20
-4.56421
11
5.31602
21
-4.56423
0
LINE
8
BLACK
6
CONTINUOUS
10
5.31602
20
-4.56423
11
5.3094
21
-4.56202
0
LINE
8
BLACK
6
CONTINUOUS
10
5.3094
20
-4.56202
11
5.30908
21
-4.56174
0
LINE
8
BLACK
6
CONTINUOUS
10
5.30908
20
-4.56174
11
5.30868
21
-4.56158
0
LINE
8
BLACK
6
CONTINUOUS
10
5.30868
20
-4.56158
11
5.30427
21
-4.55717
0
LINE
8
BLACK
6
CONTINUOUS
10
5.30427
20
-4.55717
11
5.30415
21
-4.55689
0
LINE
8
BLACK
6
CONTINUOUS
10
5.30415
20
-4.55689
11
5.30392
21
-4.55669
0
LINE
8
BLACK
6
CONTINUOUS
10
5.30392
20
-4.55669
11
5.30172
21
-4.55228
0
LINE
8
BLACK
6
CONTINUOUS
10
5.30172
20
-4.55228
11
5.3017
21
-4.55207
0
LINE
8
BLACK
6
CONTINUOUS
10
5.3017
20
-4.55207
11
5.30158
21
-4.5519
0
LINE
8
BLACK
6
CONTINUOUS
10
5.30158
20
-4.5519
11
5.29937
21
-4.54308
0
LINE
8
BLACK
6
CONTINUOUS
10
5.29937
20
-4.54308
11
5.29941
21
-4.54285
0
LINE
8
BLACK
6
CONTINUOUS
10
5.29941
20
-4.54285
11
5.29932
21
-4.54263
0
LINE
8
BLACK
6
CONTINUOUS
10
5.29932
20
-4.54263
11
5.29932
21
-4.53602
0
LINE
8
BLACK
6
CONTINUOUS
10
5.29932
20
-4.53602
11
5.29941
21
-4.5358
0
LINE
8
BLACK
6
CONTINUOUS
10
5.29941
20
-4.5358
11
5.29937
21
-4.53557
0
LINE
8
BLACK
6
CONTINUOUS
10
5.29937
20
-4.53557
11
5.30158
21
-4.52675
0
LINE
8
BLACK
6
CONTINUOUS
10
5.30158
20
-4.52675
11
5.3017
21
-4.52658
0
LINE
8
BLACK
6
CONTINUOUS
10
5.3017
20
-4.52658
11
5.30172
21
-4.52637
0
LINE
8
BLACK
6
CONTINUOUS
10
5.30172
20
-4.52637
11
5.30392
21
-4.52196
0
LINE
8
BLACK
6
CONTINUOUS
10
5.30392
20
-4.52196
11
5.30415
21
-4.52176
0
LINE
8
BLACK
6
CONTINUOUS
10
5.30415
20
-4.52176
11
5.30427
21
-4.52148
0
LINE
8
BLACK
6
CONTINUOUS
10
5.30427
20
-4.52148
11
5.30868
21
-4.51707
0
LINE
8
BLACK
6
CONTINUOUS
10
5.30868
20
-4.51707
11
5.30908
21
-4.5169
0
LINE
8
BLACK
6
CONTINUOUS
10
5.30908
20
-4.5169
11
5.3094
21
-4.51662
0
LINE
8
BLACK
6
CONTINUOUS
10
5.3094
20
-4.51662
11
5.31602
21
-4.51442
0
LINE
8
BLACK
6
CONTINUOUS
10
5.31602
20
-4.51442
11
5.31632
21
-4.51444
0
LINE
8
BLACK
6
CONTINUOUS
10
5.31632
20
-4.51444
11
5.3166
21
-4.51432
0
LINE
8
BLACK
6
CONTINUOUS
10
5.3166
20
-4.51432
11
5.32763
21
-4.51432
0
LINE
8
BLACK
6
CONTINUOUS
10
5.32763
20
-4.51432
11
5.32893
21
-4.51486
0
LINE
8
BLACK
6
CONTINUOUS
10
5.32893
20
-4.51486
11
5.32947
21
-4.51616
0
LINE
8
BLACK
6
CONTINUOUS
10
5.32947
20
-4.51616
11
5.32947
21
-4.56248
0
LINE
8
BLACK
6
CONTINUOUS
10
5.32947
20
-4.56248
11
5.32893
21
-4.56378
0
LINE
8
BLACK
6
CONTINUOUS
10
5.32893
20
-4.56378
11
5.32763
21
-4.56432
0
LINE
8
BLACK
6
CONTINUOUS
10
5.32763
20
-4.56432
11
5.3166
21
-4.56432
0
LINE
8
BLACK
6
CONTINUOUS
10
5.3166
20
-4.56432
11
5.31632
21
-4.56421
0
LINE
8
BLACK
6
CONTINUOUS
10
5.3169
20
-4.518
11
5.31098
21
-4.51998
0
LINE
8
BLACK
6
CONTINUOUS
10
5.31098
20
-4.51998
11
5.30708
21
-4.52387
0
LINE
8
BLACK
6
CONTINUOUS
10
5.30708
20
-4.52387
11
5.3051
21
-4.52783
0
LINE
8
BLACK
6
CONTINUOUS
10
5.3051
20
-4.52783
11
5.303
21
-4.53624
0
LINE
8
BLACK
6
CONTINUOUS
10
5.303
20
-4.53624
11
5.303
21
-4.54241
0
LINE
8
BLACK
6
CONTINUOUS
10
5.303
20
-4.54241
11
5.3051
21
-4.55081
0
LINE
8
BLACK
6
CONTINUOUS
10
5.3051
20
-4.55081
11
5.30708
21
-4.55478
0
LINE
8
BLACK
6
CONTINUOUS
10
5.30708
20
-4.55478
11
5.31098
21
-4.55867
0
LINE
8
BLACK
6
CONTINUOUS
10
5.31098
20
-4.55867
11
5.3169
21
-4.56064
0
LINE
8
BLACK
6
CONTINUOUS
10
5.3169
20
-4.56064
11
5.32579
21
-4.56064
0
LINE
8
BLACK
6
CONTINUOUS
10
5.32579
20
-4.56064
11
5.32579
21
-4.518
0
LINE
8
BLACK
6
CONTINUOUS
10
5.32579
20
-4.518
11
5.3169
21
-4.518
0
LINE
8
BLACK
6
CONTINUOUS
10
5.25574
20
-4.56378
11
5.2552
21
-4.56248
0
LINE
8
BLACK
6
CONTINUOUS
10
5.2552
20
-4.56248
11
5.25574
21
-4.56118
0
LINE
8
BLACK
6
CONTINUOUS
10
5.25574
20
-4.56118
11
5.25704
21
-4.56064
0
LINE
8
BLACK
6
CONTINUOUS
10
5.25704
20
-4.56064
11
5.26844
21
-4.56064
0
LINE
8
BLACK
6
CONTINUOUS
10
5.26844
20
-4.56064
11
5.26844
21
-4.51616
0
LINE
8
BLACK
6
CONTINUOUS
10
5.26844
20
-4.51616
11
5.26851
21
-4.51599
0
LINE
8
BLACK
6
CONTINUOUS
10
5.26851
20
-4.51599
11
5.26847
21
-4.5158
0
LINE
8
BLACK
6
CONTINUOUS
10
5.26847
20
-4.5158
11
5.26877
21
-4.51536
0
LINE
8
BLACK
6
CONTINUOUS
10
5.26877
20
-4.51536
11
5.26898
21
-4.51486
0
LINE
8
BLACK
6
CONTINUOUS
10
5.26898
20
-4.51486
11
5.26915
21
-4.51479
0
LINE
8
BLACK
6
CONTINUOUS
10
5.26915
20
-4.51479
11
5.26926
21
-4.51463
0
LINE
8
BLACK
6
CONTINUOUS
10
5.26926
20
-4.51463
11
5.26978
21
-4.51453
0
LINE
8
BLACK
6
CONTINUOUS
10
5.26978
20
-4.51453
11
5.27028
21
-4.51432
0
LINE
8
BLACK
6
CONTINUOUS
10
5.27028
20
-4.51432
11
5.27045
21
-4.5144
0
LINE
8
BLACK
6
CONTINUOUS
10
5.27045
20
-4.5144
11
5.27064
21
-4.51436
0
LINE
8
BLACK
6
CONTINUOUS
10
5.27064
20
-4.51436
11
5.27108
21
-4.51466
0
LINE
8
BLACK
6
CONTINUOUS
10
5.27108
20
-4.51466
11
5.27158
21
-4.51486
0
LINE
8
BLACK
6
CONTINUOUS
10
5.27158
20
-4.51486
11
5.27165
21
-4.51504
0
LINE
8
BLACK
6
CONTINUOUS
10
5.27165
20
-4.51504
11
5.27181
21
-4.51514
0
LINE
8
BLACK
6
CONTINUOUS
10
5.27181
20
-4.51514
11
5.27612
21
-4.52161
0
LINE
8
BLACK
6
CONTINUOUS
10
5.27612
20
-4.52161
11
5.28019
21
-4.52568
0
LINE
8
BLACK
6
CONTINUOUS
10
5.28019
20
-4.52568
11
5.28434
21
-4.52775
0
LINE
8
BLACK
6
CONTINUOUS
10
5.28434
20
-4.52775
11
5.28526
21
-4.52882
0
LINE
8
BLACK
6
CONTINUOUS
10
5.28526
20
-4.52882
11
5.28516
21
-4.53022
0
LINE
8
BLACK
6
CONTINUOUS
10
5.28516
20
-4.53022
11
5.2841
21
-4.53114
0
LINE
8
BLACK
6
CONTINUOUS
10
5.2841
20
-4.53114
11
5.28269
21
-4.53104
0
LINE
8
BLACK
6
CONTINUOUS
10
5.28269
20
-4.53104
11
5.27828
21
-4.52884
0
LINE
8
BLACK
6
CONTINUOUS
10
5.27828
20
-4.52884
11
5.27808
21
-4.52861
0
LINE
8
BLACK
6
CONTINUOUS
10
5.27808
20
-4.52861
11
5.2778
21
-4.52849
0
LINE
8
BLACK
6
CONTINUOUS
10
5.2778
20
-4.52849
11
5.27339
21
-4.52408
0
LINE
8
BLACK
6
CONTINUOUS
10
5.27339
20
-4.52408
11
5.27332
21
-4.52391
0
LINE
8
BLACK
6
CONTINUOUS
10
5.27332
20
-4.52391
11
5.27316
21
-4.5238
0
LINE
8
BLACK
6
CONTINUOUS
10
5.27316
20
-4.5238
11
5.27212
21
-4.52224
0
LINE
8
BLACK
6
CONTINUOUS
10
5.27212
20
-4.52224
11
5.27212
21
-4.56064
0
LINE
8
BLACK
6
CONTINUOUS
10
5.27212
20
-4.56064
11
5.28351
21
-4.56064
0
LINE
8
BLACK
6
CONTINUOUS
10
5.28351
20
-4.56064
11
5.28481
21
-4.56118
0
LINE
8
BLACK
6
CONTINUOUS
10
5.28481
20
-4.56118
11
5.28535
21
-4.56248
0
LINE
8
BLACK
6
CONTINUOUS
10
5.28535
20
-4.56248
11
5.28481
21
-4.56378
0
LINE
8
BLACK
6
CONTINUOUS
10
5.28481
20
-4.56378
11
5.28351
21
-4.56432
0
LINE
8
BLACK
6
CONTINUOUS
10
5.28351
20
-4.56432
11
5.25704
21
-4.56432
0
LINE
8
BLACK
6
CONTINUOUS
10
5.25704
20
-4.56432
11
5.25574
21
-4.56378
0
LINE
8
BLACK
6
CONTINUOUS
10
5.35674
20
-4.55388
11
5.35601
21
-4.55211
0
LINE
8
BLACK
6
CONTINUOUS
10
5.35601
20
-4.55211
11
5.35601
21
-4.48912
0
LINE
8
BLACK
6
CONTINUOUS
10
5.35601
20
-4.48912
11
5.35674
21
-4.48735
0
LINE
8
BLACK
6
CONTINUOUS
10
5.35674
20
-4.48735
11
5.35851
21
-4.48662
0
LINE
8
BLACK
6
CONTINUOUS
10
5.35851
20
-4.48662
11
5.48449
21
-4.48662
0
LINE
8
BLACK
6
CONTINUOUS
10
5.48449
20
-4.48662
11
5.48626
21
-4.48735
0
LINE
8
BLACK
6
CONTINUOUS
10
5.48626
20
-4.48735
11
5.48699
21
-4.48912
0
LINE
8
BLACK
6
CONTINUOUS
10
5.48699
20
-4.48912
11
5.48699
21
-4.55211
0
LINE
8
BLACK
6
CONTINUOUS
10
5.48699
20
-4.55211
11
5.48626
21
-4.55388
0
LINE
8
BLACK
6
CONTINUOUS
10
5.48626
20
-4.55388
11
5.48449
21
-4.55461
0
LINE
8
BLACK
6
CONTINUOUS
10
5.48449
20
-4.55461
11
5.35851
21
-4.55461
0
LINE
8
BLACK
6
CONTINUOUS
10
5.35851
20
-4.55461
11
5.35674
21
-4.55388
0
LINE
8
BLACK
6
CONTINUOUS
10
5.36101
20
-4.49162
11
5.36101
21
-4.54961
0
LINE
8
BLACK
6
CONTINUOUS
10
5.36101
20
-4.54961
11
5.48199
21
-4.54961
0
LINE
8
BLACK
6
CONTINUOUS
10
5.48199
20
-4.54961
11
5.48199
21
-4.49162
0
LINE
8
BLACK
6
CONTINUOUS
10
5.48199
20
-4.49162
11
5.36101
21
-4.49162
0
LINE
8
BLACK
6
CONTINUOUS
10
5.4339
20
-4.49956
11
5.43463
21
-4.50132
0
LINE
8
BLACK
6
CONTINUOUS
10
5.43463
20
-4.50132
11
5.43463
21
-4.54069
0
LINE
8
BLACK
6
CONTINUOUS
10
5.43463
20
-4.54069
11
5.4339
21
-4.54246
0
LINE
8
BLACK
6
CONTINUOUS
10
5.4339
20
-4.54246
11
5.43213
21
-4.54319
0
LINE
8
BLACK
6
CONTINUOUS
10
5.43213
20
-4.54319
11
5.43036
21
-4.54246
0
LINE
8
BLACK
6
CONTINUOUS
10
5.43036
20
-4.54246
11
5.41219
21
-4.52429
0
LINE
8
BLACK
6
CONTINUOUS
10
5.41219
20
-4.52429
11
5.41219
21
-4.54069
0
LINE
8
BLACK
6
CONTINUOUS
10
5.41219
20
-4.54069
11
5.41146
21
-4.54246
0
LINE
8
BLACK
6
CONTINUOUS
10
5.41146
20
-4.54246
11
5.40969
21
-4.54319
0
LINE
8
BLACK
6
CONTINUOUS
10
5.40969
20
-4.54319
11
5.40792
21
-4.54246
0
LINE
8
BLACK
6
CONTINUOUS
10
5.40792
20
-4.54246
11
5.40719
21
-4.54069
0
LINE
8
BLACK
6
CONTINUOUS
10
5.40719
20
-4.54069
11
5.40719
21
-4.50132
0
LINE
8
BLACK
6
CONTINUOUS
10
5.40719
20
-4.50132
11
5.40792
21
-4.49956
0
LINE
8
BLACK
6
CONTINUOUS
10
5.40792
20
-4.49956
11
5.40969
21
-4.49882
0
LINE
8
BLACK
6
CONTINUOUS
10
5.40969
20
-4.49882
11
5.41146
21
-4.49956
0
LINE
8
BLACK
6
CONTINUOUS
10
5.41146
20
-4.49956
11
5.41219
21
-4.50132
0
LINE
8
BLACK
6
CONTINUOUS
10
5.41219
20
-4.50132
11
5.41219
21
-4.51773
0
LINE
8
BLACK
6
CONTINUOUS
10
5.41219
20
-4.51773
11
5.43036
21
-4.49956
0
LINE
8
BLACK
6
CONTINUOUS
10
5.43036
20
-4.49956
11
5.43213
21
-4.49882
0
LINE
8
BLACK
6
CONTINUOUS
10
5.43213
20
-4.49882
11
5.4339
21
-4.49956
0
LINE
8
BLACK
6
CONTINUOUS
10
5.41598
20
-4.52101
11
5.42963
21
-4.53466
0
LINE
8
BLACK
6
CONTINUOUS
10
5.42963
20
-4.53466
11
5.42963
21
-4.50736
0
LINE
8
BLACK
6
CONTINUOUS
10
5.42963
20
-4.50736
11
5.41598
21
-4.52101
0
LINE
8
BLACK
6
CONTINUOUS
10
5.76876
20
-4.50182
11
5.76929
21
-4.50312
0
LINE
8
BLACK
6
CONTINUOUS
10
5.76929
20
-4.50312
11
5.76929
21
-4.52959
0
LINE
8
BLACK
6
CONTINUOUS
10
5.76929
20
-4.52959
11
5.76876
21
-4.53089
0
LINE
8
BLACK
6
CONTINUOUS
10
5.76876
20
-4.53089
11
5.76745
21
-4.53143
0
LINE
8
BLACK
6
CONTINUOUS
10
5.76745
20
-4.53143
11
5.76615
21
-4.53089
0
LINE
8
BLACK
6
CONTINUOUS
10
5.76615
20
-4.53089
11
5.76561
21
-4.52959
0
LINE
8
BLACK
6
CONTINUOUS
10
5.76561
20
-4.52959
11
5.76561
21
-4.51819
0
LINE
8
BLACK
6
CONTINUOUS
10
5.76561
20
-4.51819
11
5.72113
21
-4.51819
0
LINE
8
BLACK
6
CONTINUOUS
10
5.72113
20
-4.51819
11
5.72096
21
-4.51812
0
LINE
8
BLACK
6
CONTINUOUS
10
5.72096
20
-4.51812
11
5.72077
21
-4.51816
0
LINE
8
BLACK
6
CONTINUOUS
10
5.72077
20
-4.51816
11
5.72033
21
-4.51786
0
LINE
8
BLACK
6
CONTINUOUS
10
5.72033
20
-4.51786
11
5.71983
21
-4.51765
0
LINE
8
BLACK
6
CONTINUOUS
10
5.71983
20
-4.51765
11
5.71976
21
-4.51748
0
LINE
8
BLACK
6
CONTINUOUS
10
5.71976
20
-4.51748
11
5.7196
21
-4.51737
0
LINE
8
BLACK
6
CONTINUOUS
10
5.7196
20
-4.51737
11
5.7195
21
-4.51685
0
LINE
8
BLACK
6
CONTINUOUS
10
5.7195
20
-4.51685
11
5.71929
21
-4.51635
0
LINE
8
BLACK
6
CONTINUOUS
10
5.71929
20
-4.51635
11
5.71937
21
-4.51618
0
LINE
8
BLACK
6
CONTINUOUS
10
5.71937
20
-4.51618
11
5.71933
21
-4.51599
0
LINE
8
BLACK
6
CONTINUOUS
10
5.71933
20
-4.51599
11
5.71963
21
-4.51555
0
LINE
8
BLACK
6
CONTINUOUS
10
5.71963
20
-4.51555
11
5.71983
21
-4.51505
0
LINE
8
BLACK
6
CONTINUOUS
10
5.71983
20
-4.51505
11
5.72001
21
-4.51498
0
LINE
8
BLACK
6
CONTINUOUS
10
5.72001
20
-4.51498
11
5.72011
21
-4.51482
0
LINE
8
BLACK
6
CONTINUOUS
10
5.72011
20
-4.51482
11
5.72658
21
-4.51051
0
LINE
8
BLACK
6
CONTINUOUS
10
5.72658
20
-4.51051
11
5.73065
21
-4.50644
0
LINE
8
BLACK
6
CONTINUOUS
10
5.73065
20
-4.50644
11
5.73272
21
-4.5023
0
LINE
8
BLACK
6
CONTINUOUS
10
5.73272
20
-4.5023
11
5.73379
21
-4.50137
0
LINE
8
BLACK
6
CONTINUOUS
10
5.73379
20
-4.50137
11
5.73519
21
-4.50147
0
LINE
8
BLACK
6
CONTINUOUS
10
5.73519
20
-4.50147
11
5.73611
21
-4.50254
0
LINE
8
BLACK
6
CONTINUOUS
10
5.73611
20
-4.50254
11
5.73601
21
-4.50394
0
LINE
8
BLACK
6
CONTINUOUS
10
5.73601
20
-4.50394
11
5.73381
21
-4.50835
0
LINE
8
BLACK
6
CONTINUOUS
10
5.73381
20
-4.50835
11
5.73358
21
-4.50855
0
LINE
8
BLACK
6
CONTINUOUS
10
5.73358
20
-4.50855
11
5.73346
21
-4.50883
0
LINE
8
BLACK
6
CONTINUOUS
10
5.73346
20
-4.50883
11
5.72905
21
-4.51324
0
LINE
8
BLACK
6
CONTINUOUS
10
5.72905
20
-4.51324
11
5.72888
21
-4.51331
0
LINE
8
BLACK
6
CONTINUOUS
10
5.72888
20
-4.51331
11
5.72877
21
-4.51347
0
LINE
8
BLACK
6
CONTINUOUS
10
5.72877
20
-4.51347
11
5.72721
21
-4.51451
0
LINE
8
BLACK
6
CONTINUOUS
10
5.72721
20
-4.51451
11
5.76561
21
-4.51451
0
LINE
8
BLACK
6
CONTINUOUS
10
5.76561
20
-4.51451
11
5.76561
21
-4.50312
0
LINE
8
BLACK
6
CONTINUOUS
10
5.76561
20
-4.50312
11
5.76615
21
-4.50182
0
LINE
8
BLACK
6
CONTINUOUS
10
5.76615
20
-4.50182
11
5.76745
21
-4.50128
0
LINE
8
BLACK
6
CONTINUOUS
10
5.76745
20
-4.50128
11
5.76876
21
-4.50182
0
LINE
8
BLACK
6
CONTINUOUS
10
6.06497
20
-4.45076
11
6.06514
21
-4.45075
0
LINE
8
BLACK
6
CONTINUOUS
10
6.06514
20
-4.45075
11
6.06583
21
-4.45126
0
LINE
8
BLACK
6
CONTINUOUS
10
6.06583
20
-4.45126
11
6.06658
21
-4.45168
0
LINE
8
BLACK
6
CONTINUOUS
10
6.06658
20
-4.45168
11
6.06663
21
-4.45184
0
LINE
8
BLACK
6
CONTINUOUS
10
6.06663
20
-4.45184
11
6.06677
21
-4.45194
0
LINE
8
BLACK
6
CONTINUOUS
10
6.06677
20
-4.45194
11
6.07036
21
-4.45733
0
LINE
8
BLACK
6
CONTINUOUS
10
6.07036
20
-4.45733
11
6.07356
21
-4.46053
0
LINE
8
BLACK
6
CONTINUOUS
10
6.07356
20
-4.46053
11
6.07688
21
-4.46219
0
LINE
8
BLACK
6
CONTINUOUS
10
6.07688
20
-4.46219
11
6.07771
21
-4.4628
0
LINE
8
BLACK
6
CONTINUOUS
10
6.07771
20
-4.4628
11
6.07851
21
-4.46465
0
LINE
8
BLACK
6
CONTINUOUS
10
6.07851
20
-4.46465
11
6.07794
21
-4.46659
0
LINE
8
BLACK
6
CONTINUOUS
10
6.07794
20
-4.46659
11
6.07625
21
-4.4677
0
LINE
8
BLACK
6
CONTINUOUS
10
6.07625
20
-4.4677
11
6.07424
21
-4.46747
0
LINE
8
BLACK
6
CONTINUOUS
10
6.07424
20
-4.46747
11
6.07049
21
-4.4656
0
LINE
8
BLACK
6
CONTINUOUS
10
6.07049
20
-4.4656
11
6.06978
21
-4.46507
0
LINE
8
BLACK
6
CONTINUOUS
10
6.06978
20
-4.46507
11
6.06973
21
-4.46504
0
LINE
8
BLACK
6
CONTINUOUS
10
6.06973
20
-4.46504
11
6.06727
21
-4.46259
0
LINE
8
BLACK
6
CONTINUOUS
10
6.06727
20
-4.46259
11
6.06727
21
-4.49
0
LINE
8
BLACK
6
CONTINUOUS
10
6.06727
20
-4.49
11
6.07556
21
-4.49
0
LINE
8
BLACK
6
CONTINUOUS
10
6.07556
20
-4.49
11
6.07657
21
-4.49018
0
LINE
8
BLACK
6
CONTINUOUS
10
6.07657
20
-4.49018
11
6.07812
21
-4.49148
0
LINE
8
BLACK
6
CONTINUOUS
10
6.07812
20
-4.49148
11
6.07847
21
-4.49346
0
LINE
8
BLACK
6
CONTINUOUS
10
6.07847
20
-4.49346
11
6.07746
21
-4.49521
0
LINE
8
BLACK
6
CONTINUOUS
10
6.07746
20
-4.49521
11
6.07556
21
-4.4959
0
LINE
8
BLACK
6
CONTINUOUS
10
6.07556
20
-4.4959
11
6.05307
21
-4.4959
0
LINE
8
BLACK
6
CONTINUOUS
10
6.05307
20
-4.4959
11
6.05206
21
-4.49573
0
LINE
8
BLACK
6
CONTINUOUS
10
6.05206
20
-4.49573
11
6.05051
21
-4.49443
0
LINE
8
BLACK
6
CONTINUOUS
10
6.05051
20
-4.49443
11
6.05016
21
-4.49244
0
LINE
8
BLACK
6
CONTINUOUS
10
6.05016
20
-4.49244
11
6.05117
21
-4.49069
0
LINE
8
BLACK
6
CONTINUOUS
10
6.05117
20
-4.49069
11
6.05307
21
-4.49
0
LINE
8
BLACK
6
CONTINUOUS
10
6.05307
20
-4.49
11
6.06136
21
-4.49
0
LINE
8
BLACK
6
CONTINUOUS
10
6.06136
20
-4.49
11
6.06136
21
-4.45358
0
LINE
8
BLACK
6
CONTINUOUS
10
6.06136
20
-4.45358
11
6.06154
21
-4.45257
0
LINE
8
BLACK
6
CONTINUOUS
10
6.06154
20
-4.45257
11
6.06165
21
-4.45244
0
LINE
8
BLACK
6
CONTINUOUS
10
6.06165
20
-4.45244
11
6.06167
21
-4.45227
0
LINE
8
BLACK
6
CONTINUOUS
10
6.06167
20
-4.45227
11
6.06229
21
-4.45168
0
LINE
8
BLACK
6
CONTINUOUS
10
6.06229
20
-4.45168
11
6.06284
21
-4.45102
0
LINE
8
BLACK
6
CONTINUOUS
10
6.06284
20
-4.45102
11
6.06301
21
-4.451
0
LINE
8
BLACK
6
CONTINUOUS
10
6.06301
20
-4.451
11
6.06313
21
-4.45088
0
LINE
8
BLACK
6
CONTINUOUS
10
6.06313
20
-4.45088
11
6.06398
21
-4.45082
0
LINE
8
BLACK
6
CONTINUOUS
10
6.06398
20
-4.45082
11
6.06483
21
-4.45067
0
LINE
8
BLACK
6
CONTINUOUS
10
6.06483
20
-4.45067
11
6.06497
21
-4.45076
0
LINE
8
BLACK
6
CONTINUOUS
10
6.10268
20
-4.45078
11
6.10274
21
-4.45078
0
LINE
8
BLACK
6
CONTINUOUS
10
6.10274
20
-4.45078
11
6.10837
21
-4.45266
0
LINE
8
BLACK
6
CONTINUOUS
10
6.10837
20
-4.45266
11
6.10927
21
-4.45314
0
LINE
8
BLACK
6
CONTINUOUS
10
6.10927
20
-4.45314
11
6.10936
21
-4.45329
0
LINE
8
BLACK
6
CONTINUOUS
10
6.10936
20
-4.45329
11
6.10952
21
-4.45337
0
LINE
8
BLACK
6
CONTINUOUS
10
6.10952
20
-4.45337
11
6.11327
21
-4.45712
0
LINE
8
BLACK
6
CONTINUOUS
10
6.11327
20
-4.45712
11
6.11378
21
-4.45784
0
LINE
8
BLACK
6
CONTINUOUS
10
6.11378
20
-4.45784
11
6.11383
21
-4.45789
0
LINE
8
BLACK
6
CONTINUOUS
10
6.11383
20
-4.45789
11
6.1157
21
-4.46164
0
LINE
8
BLACK
6
CONTINUOUS
10
6.1157
20
-4.46164
11
6.11585
21
-4.46212
0
LINE
8
BLACK
6
CONTINUOUS
10
6.11585
20
-4.46212
11
6.11592
21
-4.46224
0
LINE
8
BLACK
6
CONTINUOUS
10
6.11592
20
-4.46224
11
6.1178
21
-4.46974
0
LINE
8
BLACK
6
CONTINUOUS
10
6.1178
20
-4.46974
11
6.11784
21
-4.47033
0
LINE
8
BLACK
6
CONTINUOUS
10
6.11784
20
-4.47033
11
6.11789
21
-4.47045
0
LINE
8
BLACK
6
CONTINUOUS
10
6.11789
20
-4.47045
11
6.11789
21
-4.47608
0
LINE
8
BLACK
6
CONTINUOUS
10
6.11789
20
-4.47608
11
6.11778
21
-4.47666
0
LINE
8
BLACK
6
CONTINUOUS
10
6.11778
20
-4.47666
11
6.1178
21
-4.4768
0
LINE
8
BLACK
6
CONTINUOUS
10
6.1178
20
-4.4768
11
6.11592
21
-4.48429
0
LINE
8
BLACK
6
CONTINUOUS
10
6.11592
20
-4.48429
11
6.11572
21
-4.48476
0
LINE
8
BLACK
6
CONTINUOUS
10
6.11572
20
-4.48476
11
6.1157
21
-4.4849
0
LINE
8
BLACK
6
CONTINUOUS
10
6.1157
20
-4.4849
11
6.11383
21
-4.48865
0
LINE
8
BLACK
6
CONTINUOUS
10
6.11383
20
-4.48865
11
6.1133
21
-4.48936
0
LINE
8
BLACK
6
CONTINUOUS
10
6.1133
20
-4.48936
11
6.11327
21
-4.48942
0
LINE
8
BLACK
6
CONTINUOUS
10
6.11327
20
-4.48942
11
6.10952
21
-4.49317
0
LINE
8
BLACK
6
CONTINUOUS
10
6.10952
20
-4.49317
11
6.10868
21
-4.49375
0
LINE
8
BLACK
6
CONTINUOUS
10
6.10868
20
-4.49375
11
6.10851
21
-4.49377
0
LINE
8
BLACK
6
CONTINUOUS
10
6.10851
20
-4.49377
11
6.10837
21
-4.49388
0
LINE
8
BLACK
6
CONTINUOUS
10
6.10837
20
-4.49388
11
6.10274
21
-4.49575
0
LINE
8
BLACK
6
CONTINUOUS
10
6.10274
20
-4.49575
11
6.10187
21
-4.49588
0
LINE
8
BLACK
6
CONTINUOUS
10
6.10187
20
-4.49588
11
6.10181
21
-4.4959
0
LINE
8
BLACK
6
CONTINUOUS
10
6.10181
20
-4.4959
11
6.09806
21
-4.4959
0
LINE
8
BLACK
6
CONTINUOUS
10
6.09806
20
-4.4959
11
6.09719
21
-4.49575
0
LINE
8
BLACK
6
CONTINUOUS
10
6.09719
20
-4.49575
11
6.09713
21
-4.49575
0
LINE
8
BLACK
6
CONTINUOUS
10
6.09713
20
-4.49575
11
6.0915
21
-4.49388
0
LINE
8
BLACK
6
CONTINUOUS
10
6.0915
20
-4.49388
11
6.0906
21
-4.49339
0
LINE
8
BLACK
6
CONTINUOUS
10
6.0906
20
-4.49339
11
6.09051
21
-4.49324
0
LINE
8
BLACK
6
CONTINUOUS
10
6.09051
20
-4.49324
11
6.09035
21
-4.49317
0
LINE
8
BLACK
6
CONTINUOUS
10
6.09035
20
-4.49317
11
6.08847
21
-4.49129
0
LINE
8
BLACK
6
CONTINUOUS
10
6.08847
20
-4.49129
11
6.08789
21
-4.49045
0
LINE
8
BLACK
6
CONTINUOUS
10
6.08789
20
-4.49045
11
6.08771
21
-4.48844
0
LINE
8
BLACK
6
CONTINUOUS
10
6.08771
20
-4.48844
11
6.08887
21
-4.48678
0
LINE
8
BLACK
6
CONTINUOUS
10
6.08887
20
-4.48678
11
6.09082
21
-4.48626
0
LINE
8
BLACK
6
CONTINUOUS
10
6.09082
20
-4.48626
11
6.09265
21
-4.48711
0
LINE
8
BLACK
6
CONTINUOUS
10
6.09265
20
-4.48711
11
6.09403
21
-4.4885
0
LINE
8
BLACK
6
CONTINUOUS
10
6.09403
20
-4.4885
11
6.09854
21
-4.49
0
LINE
8
BLACK
6
CONTINUOUS
10
6.09854
20
-4.49
11
6.10133
21
-4.49
0
LINE
8
BLACK
6
CONTINUOUS
10
6.10133
20
-4.49
11
6.10584
21
-4.4885
0
LINE
8
BLACK
6
CONTINUOUS
10
6.10584
20
-4.4885
11
6.10876
21
-4.48558
0
LINE
8
BLACK
6
CONTINUOUS
10
6.10876
20
-4.48558
11
6.11027
21
-4.48255
0
LINE
8
BLACK
6
CONTINUOUS
10
6.11027
20
-4.48255
11
6.11198
21
-4.47572
0
LINE
8
BLACK
6
CONTINUOUS
10
6.11198
20
-4.47572
11
6.11198
21
-4.47082
0
LINE
8
BLACK
6
CONTINUOUS
10
6.11198
20
-4.47082
11
6.11027
21
-4.46399
0
LINE
8
BLACK
6
CONTINUOUS
10
6.11027
20
-4.46399
11
6.10876
21
-4.46096
0
LINE
8
BLACK
6
CONTINUOUS
10
6.10876
20
-4.46096
11
6.10584
21
-4.45804
0
LINE
8
BLACK
6
CONTINUOUS
10
6.10584
20
-4.45804
11
6.10133
21
-4.45653
0
LINE
8
BLACK
6
CONTINUOUS
10
6.10133
20
-4.45653
11
6.09854
21
-4.45653
0
LINE
8
BLACK
6
CONTINUOUS
10
6.09854
20
-4.45653
11
6.09403
21
-4.45804
0
LINE
8
BLACK
6
CONTINUOUS
10
6.09403
20
-4.45804
11
6.09265
21
-4.45942
0
LINE
8
BLACK
6
CONTINUOUS
10
6.09265
20
-4.45942
11
6.09181
21
-4.46001
0
LINE
8
BLACK
6
CONTINUOUS
10
6.09181
20
-4.46001
11
6.0898
21
-4.46018
0
LINE
8
BLACK
6
CONTINUOUS
10
6.0898
20
-4.46018
11
6.08814
21
-4.45903
0
LINE
8
BLACK
6
CONTINUOUS
10
6.08814
20
-4.45903
11
6.08762
21
-4.45707
0
LINE
8
BLACK
6
CONTINUOUS
10
6.08762
20
-4.45707
11
6.08847
21
-4.45524
0
LINE
8
BLACK
6
CONTINUOUS
10
6.08847
20
-4.45524
11
6.09035
21
-4.45337
0
LINE
8
BLACK
6
CONTINUOUS
10
6.09035
20
-4.45337
11
6.09119
21
-4.45278
0
LINE
8
BLACK
6
CONTINUOUS
10
6.09119
20
-4.45278
11
6.09136
21
-4.45277
0
LINE
8
BLACK
6
CONTINUOUS
10
6.09136
20
-4.45277
11
6.0915
21
-4.45266
0
LINE
8
BLACK
6
CONTINUOUS
10
6.0915
20
-4.45266
11
6.09713
21
-4.45078
0
LINE
8
BLACK
6
CONTINUOUS
10
6.09713
20
-4.45078
11
6.098
21
-4.45065
0
LINE
8
BLACK
6
CONTINUOUS
10
6.098
20
-4.45065
11
6.09806
21
-4.45063
0
LINE
8
BLACK
6
CONTINUOUS
10
6.09806
20
-4.45063
11
6.10181
21
-4.45063
0
LINE
8
BLACK
6
CONTINUOUS
10
6.10181
20
-4.45063
11
6.10268
21
-4.45078
0
LINE
8
BLACK
6
CONTINUOUS
10
5.76876
20
-4.4577
11
5.76929
21
-4.459
0
LINE
8
BLACK
6
CONTINUOUS
10
5.76929
20
-4.459
11
5.76876
21
-4.46031
0
LINE
8
BLACK
6
CONTINUOUS
10
5.76876
20
-4.46031
11
5.76745
21
-4.46084
0
LINE
8
BLACK
6
CONTINUOUS
10
5.76745
20
-4.46084
11
5.74724
21
-4.46084
0
LINE
8
BLACK
6
CONTINUOUS
10
5.74724
20
-4.46084
11
5.74724
21
-4.47665
0
LINE
8
BLACK
6
CONTINUOUS
10
5.74724
20
-4.47665
11
5.74707
21
-4.47705
0
LINE
8
BLACK
6
CONTINUOUS
10
5.74707
20
-4.47705
11
5.74704
21
-4.47747
0
LINE
8
BLACK
6
CONTINUOUS
10
5.74704
20
-4.47747
11
5.74484
21
-4.48188
0
LINE
8
BLACK
6
CONTINUOUS
10
5.74484
20
-4.48188
11
5.74461
21
-4.48208
0
LINE
8
BLACK
6
CONTINUOUS
10
5.74461
20
-4.48208
11
5.74449
21
-4.48236
0
LINE
8
BLACK
6
CONTINUOUS
10
5.74449
20
-4.48236
11
5.74229
21
-4.48457
0
LINE
8
BLACK
6
CONTINUOUS
10
5.74229
20
-4.48457
11
5.74201
21
-4.48468
0
LINE
8
BLACK
6
CONTINUOUS
10
5.74201
20
-4.48468
11
5.74181
21
-4.48491
0
LINE
8
BLACK
6
CONTINUOUS
10
5.74181
20
-4.48491
11
5.7374
21
-4.48712
0
LINE
8
BLACK
6
CONTINUOUS
10
5.7374
20
-4.48712
11
5.73697
21
-4.48715
0
LINE
8
BLACK
6
CONTINUOUS
10
5.73697
20
-4.48715
11
5.73657
21
-4.48731
0
LINE
8
BLACK
6
CONTINUOUS
10
5.73657
20
-4.48731
11
5.72996
21
-4.48731
0
LINE
8
BLACK
6
CONTINUOUS
10
5.72996
20
-4.48731
11
5.72956
21
-4.48715
0
LINE
8
BLACK
6
CONTINUOUS
10
5.72956
20
-4.48715
11
5.72913
21
-4.48712
0
LINE
8
BLACK
6
CONTINUOUS
10
5.72913
20
-4.48712
11
5.72472
21
-4.48491
0
LINE
8
BLACK
6
CONTINUOUS
10
5.72472
20
-4.48491
11
5.72452
21
-4.48468
0
LINE
8
BLACK
6
CONTINUOUS
10
5.72452
20
-4.48468
11
5.72424
21
-4.48457
0
LINE
8
BLACK
6
CONTINUOUS
10
5.72424
20
-4.48457
11
5.72204
21
-4.48236
0
LINE
8
BLACK
6
CONTINUOUS
10
5.72204
20
-4.48236
11
5.72192
21
-4.48208
0
LINE
8
BLACK
6
CONTINUOUS
10
5.72192
20
-4.48208
11
5.72169
21
-4.48188
0
LINE
8
BLACK
6
CONTINUOUS
10
5.72169
20
-4.48188
11
5.71949
21
-4.47747
0
LINE
8
BLACK
6
CONTINUOUS
10
5.71949
20
-4.47747
11
5.71946
21
-4.47705
0
LINE
8
BLACK
6
CONTINUOUS
10
5.71946
20
-4.47705
11
5.71929
21
-4.47665
0
LINE
8
BLACK
6
CONTINUOUS
10
5.71929
20
-4.47665
11
5.71929
21
-4.459
0
LINE
8
BLACK
6
CONTINUOUS
10
5.71929
20
-4.459
11
5.71983
21
-4.4577
0
LINE
8
BLACK
6
CONTINUOUS
10
5.71983
20
-4.4577
11
5.72113
21
-4.45716
0
LINE
8
BLACK
6
CONTINUOUS
10
5.72113
20
-4.45716
11
5.76745
21
-4.45716
0
LINE
8
BLACK
6
CONTINUOUS
10
5.76745
20
-4.45716
11
5.76876
21
-4.4577
0
LINE
8
BLACK
6
CONTINUOUS
10
5.72297
20
-4.46084
11
5.72297
21
-4.47622
0
LINE
8
BLACK
6
CONTINUOUS
10
5.72297
20
-4.47622
11
5.72485
21
-4.47997
0
LINE
8
BLACK
6
CONTINUOUS
10
5.72485
20
-4.47997
11
5.72664
21
-4.48175
0
LINE
8
BLACK
6
CONTINUOUS
10
5.72664
20
-4.48175
11
5.73039
21
-4.48363
0
LINE
8
BLACK
6
CONTINUOUS
10
5.73039
20
-4.48363
11
5.73614
21
-4.48363
0
LINE
8
BLACK
6
CONTINUOUS
10
5.73614
20
-4.48363
11
5.7399
21
-4.48175
0
LINE
8
BLACK
6
CONTINUOUS
10
5.7399
20
-4.48175
11
5.74168
21
-4.47997
0
LINE
8
BLACK
6
CONTINUOUS
10
5.74168
20
-4.47997
11
5.74356
21
-4.47622
0
LINE
8
BLACK
6
CONTINUOUS
10
5.74356
20
-4.47622
11
5.74356
21
-4.46084
0
LINE
8
BLACK
6
CONTINUOUS
10
5.74356
20
-4.46084
11
5.72297
21
-4.46084
0
LINE
8
BLACK
6
CONTINUOUS
10
6.09596
20
-4.43627
11
6.09665
21
-4.43794
0
LINE
8
BLACK
6
CONTINUOUS
10
6.09665
20
-4.43794
11
6.09596
21
-4.43961
0
LINE
8
BLACK
6
CONTINUOUS
10
6.09596
20
-4.43961
11
6.09429
21
-4.4403
0
LINE
8
BLACK
6
CONTINUOUS
10
6.09429
20
-4.4403
11
6.07371
21
-4.4403
0
LINE
8
BLACK
6
CONTINUOUS
10
6.07371
20
-4.4403
11
6.07204
21
-4.43961
0
LINE
8
BLACK
6
CONTINUOUS
10
6.07204
20
-4.43961
11
6.07135
21
-4.43794
0
LINE
8
BLACK
6
CONTINUOUS
10
6.07135
20
-4.43794
11
6.07204
21
-4.43627
0
LINE
8
BLACK
6
CONTINUOUS
10
6.07204
20
-4.43627
11
6.07371
21
-4.43557
0
LINE
8
BLACK
6
CONTINUOUS
10
6.07371
20
-4.43557
11
6.09429
21
-4.43557
0
LINE
8
BLACK
6
CONTINUOUS
10
6.09429
20
-4.43557
11
6.09596
21
-4.43627
0
LINE
8
BLACK
6
CONTINUOUS
10
5.47624
20
-4.35783
11
5.48031
21
-4.3619
0
LINE
8
BLACK
6
CONTINUOUS
10
5.48031
20
-4.3619
11
5.48445
21
-4.36397
0
LINE
8
BLACK
6
CONTINUOUS
10
5.48445
20
-4.36397
11
5.48538
21
-4.36504
0
LINE
8
BLACK
6
CONTINUOUS
10
5.48538
20
-4.36504
11
5.48528
21
-4.36644
0
LINE
8
BLACK
6
CONTINUOUS
10
5.48528
20
-4.36644
11
5.48421
21
-4.36736
0
LINE
8
BLACK
6
CONTINUOUS
10
5.48421
20
-4.36736
11
5.48281
21
-4.36726
0
LINE
8
BLACK
6
CONTINUOUS
10
5.48281
20
-4.36726
11
5.4784
21
-4.36506
0
LINE
8
BLACK
6
CONTINUOUS
10
5.4784
20
-4.36506
11
5.4782
21
-4.36483
0
LINE
8
BLACK
6
CONTINUOUS
10
5.4782
20
-4.36483
11
5.47792
21
-4.36471
0
LINE
8
BLACK
6
CONTINUOUS
10
5.47792
20
-4.36471
11
5.47351
21
-4.3603
0
LINE
8
BLACK
6
CONTINUOUS
10
5.47351
20
-4.3603
11
5.47344
21
-4.36013
0
LINE
8
BLACK
6
CONTINUOUS
10
5.47344
20
-4.36013
11
5.47328
21
-4.36002
0
LINE
8
BLACK
6
CONTINUOUS
10
5.47328
20
-4.36002
11
5.47224
21
-4.35846
0
LINE
8
BLACK
6
CONTINUOUS
10
5.47224
20
-4.35846
11
5.47224
21
-4.39686
0
LINE
8
BLACK
6
CONTINUOUS
10
5.47224
20
-4.39686
11
5.48363
21
-4.39686
0
LINE
8
BLACK
6
CONTINUOUS
10
5.48363
20
-4.39686
11
5.48493
21
-4.3974
0
LINE
8
BLACK
6
CONTINUOUS
10
5.48493
20
-4.3974
11
5.48547
21
-4.3987
0
LINE
8
BLACK
6
CONTINUOUS
10
5.48547
20
-4.3987
11
5.48493
21
-4.40001
0
LINE
8
BLACK
6
CONTINUOUS
10
5.48493
20
-4.40001
11
5.48363
21
-4.40054
0
LINE
8
BLACK
6
CONTINUOUS
10
5.48363
20
-4.40054
11
5.45716
21
-4.40054
0
LINE
8
BLACK
6
CONTINUOUS
10
5.45716
20
-4.40054
11
5.45586
21
-4.40001
0
LINE
8
BLACK
6
CONTINUOUS
10
5.45586
20
-4.40001
11
5.45532
21
-4.3987
0
LINE
8
BLACK
6
CONTINUOUS
10
5.45532
20
-4.3987
11
5.45586
21
-4.3974
0
LINE
8
BLACK
6
CONTINUOUS
10
5.45586
20
-4.3974
11
5.45716
21
-4.39686
0
LINE
8
BLACK
6
CONTINUOUS
10
5.45716
20
-4.39686
11
5.46856
21
-4.39686
0
LINE
8
BLACK
6
CONTINUOUS
10
5.46856
20
-4.39686
11
5.46856
21
-4.35776
0
LINE
8
BLACK
6
CONTINUOUS
10
5.46856
20
-4.35776
11
5.35851
21
-4.35776
0
LINE
8
BLACK
6
CONTINUOUS
10
5.35851
20
-4.35776
11
5.35674
21
-4.35703
0
LINE
8
BLACK
6
CONTINUOUS
10
5.35674
20
-4.35703
11
5.35601
21
-4.35526
0
LINE
8
BLACK
6
CONTINUOUS
10
5.35601
20
-4.35526
11
5.35601
21
-4.29227
0
LINE
8
BLACK
6
CONTINUOUS
10
5.35601
20
-4.29227
11
5.35674
21
-4.2905
0
LINE
8
BLACK
6
CONTINUOUS
10
5.35674
20
-4.2905
11
5.35851
21
-4.28977
0
LINE
8
BLACK
6
CONTINUOUS
10
5.35851
20
-4.28977
11
5.48449
21
-4.28977
0
LINE
8
BLACK
6
CONTINUOUS
10
5.48449
20
-4.28977
11
5.48626
21
-4.2905
0
LINE
8
BLACK
6
CONTINUOUS
10
5.48626
20
-4.2905
11
5.48699
21
-4.29227
0
LINE
8
BLACK
6
CONTINUOUS
10
5.48699
20
-4.29227
11
5.48699
21
-4.35526
0
LINE
8
BLACK
6
CONTINUOUS
10
5.48699
20
-4.35526
11
5.48626
21
-4.35703
0
LINE
8
BLACK
6
CONTINUOUS
10
5.48626
20
-4.35703
11
5.48449
21
-4.35776
0
LINE
8
BLACK
6
CONTINUOUS
10
5.48449
20
-4.35776
11
5.47619
21
-4.35776
0
LINE
8
BLACK
6
CONTINUOUS
10
5.47619
20
-4.35776
11
5.47624
21
-4.35783
0
LINE
8
BLACK
6
CONTINUOUS
10
5.36101
20
-4.29477
11
5.36101
21
-4.35276
0
LINE
8
BLACK
6
CONTINUOUS
10
5.36101
20
-4.35276
11
5.46856
21
-4.35276
0
LINE
8
BLACK
6
CONTINUOUS
10
5.46856
20
-4.35276
11
5.46856
21
-4.35238
0
LINE
8
BLACK
6
CONTINUOUS
10
5.46856
20
-4.35238
11
5.46863
21
-4.35221
0
LINE
8
BLACK
6
CONTINUOUS
10
5.46863
20
-4.35221
11
5.46859
21
-4.35202
0
LINE
8
BLACK
6
CONTINUOUS
10
5.46859
20
-4.35202
11
5.46889
21
-4.35158
0
LINE
8
BLACK
6
CONTINUOUS
10
5.46889
20
-4.35158
11
5.4691
21
-4.35108
0
LINE
8
BLACK
6
CONTINUOUS
10
5.4691
20
-4.35108
11
5.46927
21
-4.35101
0
LINE
8
BLACK
6
CONTINUOUS
10
5.46927
20
-4.35101
11
5.46938
21
-4.35085
0
LINE
8
BLACK
6
CONTINUOUS
10
5.46938
20
-4.35085
11
5.4699
21
-4.35075
0
LINE
8
BLACK
6
CONTINUOUS
10
5.4699
20
-4.35075
11
5.4704
21
-4.35054
0
LINE
8
BLACK
6
CONTINUOUS
10
5.4704
20
-4.35054
11
5.47057
21
-4.35062
0
LINE
8
BLACK
6
CONTINUOUS
10
5.47057
20
-4.35062
11
5.47076
21
-4.35058
0
LINE
8
BLACK
6
CONTINUOUS
10
5.47076
20
-4.35058
11
5.4712
21
-4.35088
0
LINE
8
BLACK
6
CONTINUOUS
10
5.4712
20
-4.35088
11
5.4717
21
-4.35108
0
LINE
8
BLACK
6
CONTINUOUS
10
5.4717
20
-4.35108
11
5.47177
21
-4.35126
0
LINE
8
BLACK
6
CONTINUOUS
10
5.47177
20
-4.35126
11
5.47193
21
-4.35136
0
LINE
8
BLACK
6
CONTINUOUS
10
5.47193
20
-4.35136
11
5.47286
21
-4.35276
0
LINE
8
BLACK
6
CONTINUOUS
10
5.47286
20
-4.35276
11
5.48199
21
-4.35276
0
LINE
8
BLACK
6
CONTINUOUS
10
5.48199
20
-4.35276
11
5.48199
21
-4.29477
0
LINE
8
BLACK
6
CONTINUOUS
10
5.48199
20
-4.29477
11
5.36101
21
-4.29477
0
LINE
8
BLACK
6
CONTINUOUS
10
5.4339
20
-4.3027
11
5.43463
21
-4.30447
0
LINE
8
BLACK
6
CONTINUOUS
10
5.43463
20
-4.30447
11
5.43463
21
-4.34384
0
LINE
8
BLACK
6
CONTINUOUS
10
5.43463
20
-4.34384
11
5.4339
21
-4.34561
0
LINE
8
BLACK
6
CONTINUOUS
10
5.4339
20
-4.34561
11
5.43213
21
-4.34634
0
LINE
8
BLACK
6
CONTINUOUS
10
5.43213
20
-4.34634
11
5.43036
21
-4.34561
0
LINE
8
BLACK
6
CONTINUOUS
10
5.43036
20
-4.34561
11
5.41219
21
-4.32744
0
LINE
8
BLACK
6
CONTINUOUS
10
5.41219
20
-4.32744
11
5.41219
21
-4.34384
0
LINE
8
BLACK
6
CONTINUOUS
10
5.41219
20
-4.34384
11
5.41146
21
-4.34561
0
LINE
8
BLACK
6
CONTINUOUS
10
5.41146
20
-4.34561
11
5.40969
21
-4.34634
0
LINE
8
BLACK
6
CONTINUOUS
10
5.40969
20
-4.34634
11
5.40792
21
-4.34561
0
LINE
8
BLACK
6
CONTINUOUS
10
5.40792
20
-4.34561
11
5.40719
21
-4.34384
0
LINE
8
BLACK
6
CONTINUOUS
10
5.40719
20
-4.34384
11
5.40719
21
-4.30447
0
LINE
8
BLACK
6
CONTINUOUS
10
5.40719
20
-4.30447
11
5.40792
21
-4.3027
0
LINE
8
BLACK
6
CONTINUOUS
10
5.40792
20
-4.3027
11
5.40969
21
-4.30197
0
LINE
8
BLACK
6
CONTINUOUS
10
5.40969
20
-4.30197
11
5.41146
21
-4.3027
0
LINE
8
BLACK
6
CONTINUOUS
10
5.41146
20
-4.3027
11
5.41219
21
-4.30447
0
LINE
8
BLACK
6
CONTINUOUS
10
5.41219
20
-4.30447
11
5.41219
21
-4.32088
0
LINE
8
BLACK
6
CONTINUOUS
10
5.41219
20
-4.32088
11
5.43036
21
-4.3027
0
LINE
8
BLACK
6
CONTINUOUS
10
5.43036
20
-4.3027
11
5.43213
21
-4.30197
0
LINE
8
BLACK
6
CONTINUOUS
10
5.43213
20
-4.30197
11
5.4339
21
-4.3027
0
LINE
8
BLACK
6
CONTINUOUS
10
5.41598
20
-4.32416
11
5.42963
21
-4.33781
0
LINE
8
BLACK
6
CONTINUOUS
10
5.42963
20
-4.33781
11
5.42963
21
-4.31051
0
LINE
8
BLACK
6
CONTINUOUS
10
5.42963
20
-4.31051
11
5.41598
21
-4.32416
0
LINE
8
BLACK
6
CONTINUOUS
10
5.52905
20
-4.35108
11
5.52959
21
-4.35238
0
LINE
8
BLACK
6
CONTINUOUS
10
5.52959
20
-4.35238
11
5.52959
21
-4.3987
0
LINE
8
BLACK
6
CONTINUOUS
10
5.52959
20
-4.3987
11
5.52905
21
-4.40001
0
LINE
8
BLACK
6
CONTINUOUS
10
5.52905
20
-4.40001
11
5.52775
21
-4.40054
0
LINE
8
BLACK
6
CONTINUOUS
10
5.52775
20
-4.40054
11
5.52644
21
-4.40001
0
LINE
8
BLACK
6
CONTINUOUS
10
5.52644
20
-4.40001
11
5.52591
21
-4.3987
0
LINE
8
BLACK
6
CONTINUOUS
10
5.52591
20
-4.3987
11
5.52591
21
-4.37849
0
LINE
8
BLACK
6
CONTINUOUS
10
5.52591
20
-4.37849
11
5.51768
21
-4.37849
0
LINE
8
BLACK
6
CONTINUOUS
10
5.51768
20
-4.37849
11
5.50278
21
-4.39976
0
LINE
8
BLACK
6
CONTINUOUS
10
5.50278
20
-4.39976
11
5.5016
21
-4.40052
0
LINE
8
BLACK
6
CONTINUOUS
10
5.5016
20
-4.40052
11
5.50022
21
-4.40021
0
LINE
8
BLACK
6
CONTINUOUS
10
5.50022
20
-4.40021
11
5.49947
21
-4.39902
0
LINE
8
BLACK
6
CONTINUOUS
10
5.49947
20
-4.39902
11
5.49977
21
-4.39765
0
LINE
8
BLACK
6
CONTINUOUS
10
5.49977
20
-4.39765
11
5.51318
21
-4.37849
0
LINE
8
BLACK
6
CONTINUOUS
10
5.51318
20
-4.37849
11
5.5101
21
-4.37849
0
LINE
8
BLACK
6
CONTINUOUS
10
5.5101
20
-4.37849
11
5.5097
21
-4.37832
0
LINE
8
BLACK
6
CONTINUOUS
10
5.5097
20
-4.37832
11
5.50928
21
-4.37829
0
LINE
8
BLACK
6
CONTINUOUS
10
5.50928
20
-4.37829
11
5.50487
21
-4.37609
0
LINE
8
BLACK
6
CONTINUOUS
10
5.50487
20
-4.37609
11
5.50467
21
-4.37586
0
LINE
8
BLACK
6
CONTINUOUS
10
5.50467
20
-4.37586
11
5.50439
21
-4.37574
0
LINE
8
BLACK
6
CONTINUOUS
10
5.50439
20
-4.37574
11
5.50218
21
-4.37354
0
LINE
8
BLACK
6
CONTINUOUS
10
5.50218
20
-4.37354
11
5.50207
21
-4.37326
0
LINE
8
BLACK
6
CONTINUOUS
10
5.50207
20
-4.37326
11
5.50184
21
-4.37306
0
LINE
8
BLACK
6
CONTINUOUS
10
5.50184
20
-4.37306
11
5.49963
21
-4.36865
0
LINE
8
BLACK
6
CONTINUOUS
10
5.49963
20
-4.36865
11
5.4996
21
-4.36822
0
LINE
8
BLACK
6
CONTINUOUS
10
5.4996
20
-4.36822
11
5.49944
21
-4.36782
0
LINE
8
BLACK
6
CONTINUOUS
10
5.49944
20
-4.36782
11
5.49944
21
-4.36121
0
LINE
8
BLACK
6
CONTINUOUS
10
5.49944
20
-4.36121
11
5.4996
21
-4.36081
0
LINE
8
BLACK
6
CONTINUOUS
10
5.4996
20
-4.36081
11
5.49963
21
-4.36038
0
LINE
8
BLACK
6
CONTINUOUS
10
5.49963
20
-4.36038
11
5.50184
21
-4.35597
0
LINE
8
BLACK
6
CONTINUOUS
10
5.50184
20
-4.35597
11
5.50207
21
-4.35577
0
LINE
8
BLACK
6
CONTINUOUS
10
5.50207
20
-4.35577
11
5.50218
21
-4.35549
0
LINE
8
BLACK
6
CONTINUOUS
10
5.50218
20
-4.35549
11
5.50439
21
-4.35329
0
LINE
8
BLACK
6
CONTINUOUS
10
5.50439
20
-4.35329
11
5.50467
21
-4.35317
0
LINE
8
BLACK
6
CONTINUOUS
10
5.50467
20
-4.35317
11
5.50487
21
-4.35294
0
LINE
8
BLACK
6
CONTINUOUS
10
5.50487
20
-4.35294
11
5.50928
21
-4.35074
0
LINE
8
BLACK
6
CONTINUOUS
10
5.50928
20
-4.35074
11
5.5097
21
-4.35071
0
LINE
8
BLACK
6
CONTINUOUS
10
5.5097
20
-4.35071
11
5.5101
21
-4.35054
0
LINE
8
BLACK
6
CONTINUOUS
10
5.5101
20
-4.35054
11
5.52775
21
-4.35054
0
LINE
8
BLACK
6
CONTINUOUS
10
5.52775
20
-4.35054
11
5.52905
21
-4.35108
0
LINE
8
BLACK
6
CONTINUOUS
10
5.51053
20
-4.35422
11
5.50678
21
-4.3561
0
LINE
8
BLACK
6
CONTINUOUS
10
5.50678
20
-4.3561
11
5.505
21
-4.35789
0
LINE
8
BLACK
6
CONTINUOUS
10
5.505
20
-4.35789
11
5.50312
21
-4.36164
0
LINE
8
BLACK
6
CONTINUOUS
10
5.50312
20
-4.36164
11
5.50312
21
-4.36739
0
LINE
8
BLACK
6
CONTINUOUS
10
5.50312
20
-4.36739
11
5.505
21
-4.37115
0
LINE
8
BLACK
6
CONTINUOUS
10
5.505
20
-4.37115
11
5.50678
21
-4.37293
0
LINE
8
BLACK
6
CONTINUOUS
10
5.50678
20
-4.37293
11
5.51053
21
-4.37481
0
LINE
8
BLACK
6
CONTINUOUS
10
5.51053
20
-4.37481
11
5.52591
21
-4.37481
0
LINE
8
BLACK
6
CONTINUOUS
10
5.52591
20
-4.37481
11
5.52591
21
-4.35422
0
LINE
8
BLACK
6
CONTINUOUS
10
5.52591
20
-4.35422
11
5.51053
21
-4.35422
0
LINE
8
BLACK
6
CONTINUOUS
10
6.09596
20
-4.37839
11
6.09665
21
-4.38006
0
LINE
8
BLACK
6
CONTINUOUS
10
6.09665
20
-4.38006
11
6.09596
21
-4.38173
0
LINE
8
BLACK
6
CONTINUOUS
10
6.09596
20
-4.38173
11
6.09429
21
-4.38243
0
LINE
8
BLACK
6
CONTINUOUS
10
6.09429
20
-4.38243
11
6.07371
21
-4.38243
0
LINE
8
BLACK
6
CONTINUOUS
10
6.07371
20
-4.38243
11
6.07204
21
-4.38173
0
LINE
8
BLACK
6
CONTINUOUS
10
6.07204
20
-4.38173
11
6.07135
21
-4.38006
0
LINE
8
BLACK
6
CONTINUOUS
10
6.07135
20
-4.38006
11
6.07204
21
-4.37839
0
LINE
8
BLACK
6
CONTINUOUS
10
6.07204
20
-4.37839
11
6.07371
21
-4.3777
0
LINE
8
BLACK
6
CONTINUOUS
10
6.07371
20
-4.3777
11
6.09429
21
-4.3777
0
LINE
8
BLACK
6
CONTINUOUS
10
6.09429
20
-4.3777
11
6.09596
21
-4.37839
0
LINE
8
BLACK
6
CONTINUOUS
10
5.31632
20
-4.36736
11
5.31602
21
-4.36738
0
LINE
8
BLACK
6
CONTINUOUS
10
5.31602
20
-4.36738
11
5.3094
21
-4.36517
0
LINE
8
BLACK
6
CONTINUOUS
10
5.3094
20
-4.36517
11
5.30908
21
-4.36489
0
LINE
8
BLACK
6
CONTINUOUS
10
5.30908
20
-4.36489
11
5.30868
21
-4.36473
0
LINE
8
BLACK
6
CONTINUOUS
10
5.30868
20
-4.36473
11
5.30427
21
-4.36032
0
LINE
8
BLACK
6
CONTINUOUS
10
5.30427
20
-4.36032
11
5.30415
21
-4.36004
0
LINE
8
BLACK
6
CONTINUOUS
10
5.30415
20
-4.36004
11
5.30392
21
-4.35984
0
LINE
8
BLACK
6
CONTINUOUS
10
5.30392
20
-4.35984
11
5.30172
21
-4.35543
0
LINE
8
BLACK
6
CONTINUOUS
10
5.30172
20
-4.35543
11
5.3017
21
-4.35522
0
LINE
8
BLACK
6
CONTINUOUS
10
5.3017
20
-4.35522
11
5.30158
21
-4.35505
0
LINE
8
BLACK
6
CONTINUOUS
10
5.30158
20
-4.35505
11
5.29937
21
-4.34623
0
LINE
8
BLACK
6
CONTINUOUS
10
5.29937
20
-4.34623
11
5.29941
21
-4.346
0
LINE
8
BLACK
6
CONTINUOUS
10
5.29941
20
-4.346
11
5.29932
21
-4.34578
0
LINE
8
BLACK
6
CONTINUOUS
10
5.29932
20
-4.34578
11
5.29932
21
-4.33916
0
LINE
8
BLACK
6
CONTINUOUS
10
5.29932
20
-4.33916
11
5.29941
21
-4.33895
0
LINE
8
BLACK
6
CONTINUOUS
10
5.29941
20
-4.33895
11
5.29937
21
-4.33872
0
LINE
8
BLACK
6
CONTINUOUS
10
5.29937
20
-4.33872
11
5.30158
21
-4.3299
0
LINE
8
BLACK
6
CONTINUOUS
10
5.30158
20
-4.3299
11
5.3017
21
-4.32973
0
LINE
8
BLACK
6
CONTINUOUS
10
5.3017
20
-4.32973
11
5.30172
21
-4.32952
0
LINE
8
BLACK
6
CONTINUOUS
10
5.30172
20
-4.32952
11
5.30392
21
-4.32511
0
LINE
8
BLACK
6
CONTINUOUS
10
5.30392
20
-4.32511
11
5.30415
21
-4.32491
0
LINE
8
BLACK
6
CONTINUOUS
10
5.30415
20
-4.32491
11
5.30427
21
-4.32463
0
LINE
8
BLACK
6
CONTINUOUS
10
5.30427
20
-4.32463
11
5.30868
21
-4.32022
0
LINE
8
BLACK
6
CONTINUOUS
10
5.30868
20
-4.32022
11
5.30908
21
-4.32005
0
LINE
8
BLACK
6
CONTINUOUS
10
5.30908
20
-4.32005
11
5.3094
21
-4.31977
0
LINE
8
BLACK
6
CONTINUOUS
10
5.3094
20
-4.31977
11
5.31602
21
-4.31757
0
LINE
8
BLACK
6
CONTINUOUS
10
5.31602
20
-4.31757
11
5.31632
21
-4.31759
0
LINE
8
BLACK
6
CONTINUOUS
10
5.31632
20
-4.31759
11
5.3166
21
-4.31747
0
LINE
8
BLACK
6
CONTINUOUS
10
5.3166
20
-4.31747
11
5.32763
21
-4.31747
0
LINE
8
BLACK
6
CONTINUOUS
10
5.32763
20
-4.31747
11
5.32893
21
-4.31801
0
LINE
8
BLACK
6
CONTINUOUS
10
5.32893
20
-4.31801
11
5.32947
21
-4.31931
0
LINE
8
BLACK
6
CONTINUOUS
10
5.32947
20
-4.31931
11
5.32947
21
-4.36563
0
LINE
8
BLACK
6
CONTINUOUS
10
5.32947
20
-4.36563
11
5.32893
21
-4.36693
0
LINE
8
BLACK
6
CONTINUOUS
10
5.32893
20
-4.36693
11
5.32763
21
-4.36747
0
LINE
8
BLACK
6
CONTINUOUS
10
5.32763
20
-4.36747
11
5.3166
21
-4.36747
0
LINE
8
BLACK
6
CONTINUOUS
10
5.3166
20
-4.36747
11
5.31632
21
-4.36736
0
LINE
8
BLACK
6
CONTINUOUS
10
5.3169
20
-4.32115
11
5.31098
21
-4.32313
0
LINE
8
BLACK
6
CONTINUOUS
10
5.31098
20
-4.32313
11
5.30708
21
-4.32702
0
LINE
8
BLACK
6
CONTINUOUS
10
5.30708
20
-4.32702
11
5.3051
21
-4.33098
0
LINE
8
BLACK
6
CONTINUOUS
10
5.3051
20
-4.33098
11
5.303
21
-4.33939
0
LINE
8
BLACK
6
CONTINUOUS
10
5.303
20
-4.33939
11
5.303
21
-4.34556
0
LINE
8
BLACK
6
CONTINUOUS
10
5.303
20
-4.34556
11
5.3051
21
-4.35396
0
LINE
8
BLACK
6
CONTINUOUS
10
5.3051
20
-4.35396
11
5.30708
21
-4.35793
0
LINE
8
BLACK
6
CONTINUOUS
10
5.30708
20
-4.35793
11
5.31098
21
-4.36182
0
LINE
8
BLACK
6
CONTINUOUS
10
5.31098
20
-4.36182
11
5.3169
21
-4.36379
0
LINE
8
BLACK
6
CONTINUOUS
10
5.3169
20
-4.36379
11
5.32579
21
-4.36379
0
LINE
8
BLACK
6
CONTINUOUS
10
5.32579
20
-4.36379
11
5.32579
21
-4.32115
0
LINE
8
BLACK
6
CONTINUOUS
10
5.32579
20
-4.32115
11
5.3169
21
-4.32115
0
LINE
8
BLACK
6
CONTINUOUS
10
5.28702
20
-4.31801
11
5.28756
21
-4.31931
0
LINE
8
BLACK
6
CONTINUOUS
10
5.28756
20
-4.31931
11
5.28702
21
-4.32061
0
LINE
8
BLACK
6
CONTINUOUS
10
5.28702
20
-4.32061
11
5.28572
21
-4.32115
0
LINE
8
BLACK
6
CONTINUOUS
10
5.28572
20
-4.32115
11
5.2611
21
-4.32115
0
LINE
8
BLACK
6
CONTINUOUS
10
5.2611
20
-4.32115
11
5.27387
21
-4.33575
0
LINE
8
BLACK
6
CONTINUOUS
10
5.27387
20
-4.33575
11
5.27408
21
-4.33636
0
LINE
8
BLACK
6
CONTINUOUS
10
5.27408
20
-4.33636
11
5.27432
21
-4.33696
0
LINE
8
BLACK
6
CONTINUOUS
10
5.27432
20
-4.33696
11
5.2743
21
-4.33702
0
LINE
8
BLACK
6
CONTINUOUS
10
5.2743
20
-4.33702
11
5.27432
21
-4.33708
0
LINE
8
BLACK
6
CONTINUOUS
10
5.27432
20
-4.33708
11
5.27403
21
-4.33766
0
LINE
8
BLACK
6
CONTINUOUS
10
5.27403
20
-4.33766
11
5.27379
21
-4.33826
0
LINE
8
BLACK
6
CONTINUOUS
10
5.27379
20
-4.33826
11
5.27373
21
-4.33829
0
LINE
8
BLACK
6
CONTINUOUS
10
5.27373
20
-4.33829
11
5.2737
21
-4.33834
0
LINE
8
BLACK
6
CONTINUOUS
10
5.2737
20
-4.33834
11
5.27308
21
-4.33855
0
LINE
8
BLACK
6
CONTINUOUS
10
5.27308
20
-4.33855
11
5.27248
21
-4.3388
0
LINE
8
BLACK
6
CONTINUOUS
10
5.27248
20
-4.3388
11
5.2663
21
-4.3388
0
LINE
8
BLACK
6
CONTINUOUS
10
5.2663
20
-4.3388
11
5.26255
21
-4.34068
0
LINE
8
BLACK
6
CONTINUOUS
10
5.26255
20
-4.34068
11
5.26076
21
-4.34246
0
LINE
8
BLACK
6
CONTINUOUS
10
5.26076
20
-4.34246
11
5.25888
21
-4.34622
0
LINE
8
BLACK
6
CONTINUOUS
10
5.25888
20
-4.34622
11
5.25888
21
-4.35638
0
LINE
8
BLACK
6
CONTINUOUS
10
5.25888
20
-4.35638
11
5.26076
21
-4.36013
0
LINE
8
BLACK
6
CONTINUOUS
10
5.26076
20
-4.36013
11
5.26255
21
-4.36192
0
LINE
8
BLACK
6
CONTINUOUS
10
5.26255
20
-4.36192
11
5.2663
21
-4.36379
0
LINE
8
BLACK
6
CONTINUOUS
10
5.2663
20
-4.36379
11
5.27867
21
-4.36379
0
LINE
8
BLACK
6
CONTINUOUS
10
5.27867
20
-4.36379
11
5.28242
21
-4.36192
0
LINE
8
BLACK
6
CONTINUOUS
10
5.28242
20
-4.36192
11
5.28442
21
-4.35992
0
LINE
8
BLACK
6
CONTINUOUS
10
5.28442
20
-4.35992
11
5.28572
21
-4.35938
0
LINE
8
BLACK
6
CONTINUOUS
10
5.28572
20
-4.35938
11
5.28702
21
-4.35992
0
LINE
8
BLACK
6
CONTINUOUS
10
5.28702
20
-4.35992
11
5.28756
21
-4.36122
0
LINE
8
BLACK
6
CONTINUOUS
10
5.28756
20
-4.36122
11
5.28702
21
-4.36252
0
LINE
8
BLACK
6
CONTINUOUS
10
5.28702
20
-4.36252
11
5.28481
21
-4.36473
0
LINE
8
BLACK
6
CONTINUOUS
10
5.28481
20
-4.36473
11
5.28453
21
-4.36484
0
LINE
8
BLACK
6
CONTINUOUS
10
5.28453
20
-4.36484
11
5.28434
21
-4.36507
0
LINE
8
BLACK
6
CONTINUOUS
10
5.28434
20
-4.36507
11
5.27992
21
-4.36728
0
LINE
8
BLACK
6
CONTINUOUS
10
5.27992
20
-4.36728
11
5.2795
21
-4.36731
0
LINE
8
BLACK
6
CONTINUOUS
10
5.2795
20
-4.36731
11
5.2791
21
-4.36747
0
LINE
8
BLACK
6
CONTINUOUS
10
5.2791
20
-4.36747
11
5.26587
21
-4.36747
0
LINE
8
BLACK
6
CONTINUOUS
10
5.26587
20
-4.36747
11
5.26547
21
-4.36731
0
LINE
8
BLACK
6
CONTINUOUS
10
5.26547
20
-4.36731
11
5.26504
21
-4.36728
0
LINE
8
BLACK
6
CONTINUOUS
10
5.26504
20
-4.36728
11
5.26063
21
-4.36507
0
LINE
8
BLACK
6
CONTINUOUS
10
5.26063
20
-4.36507
11
5.26043
21
-4.36484
0
LINE
8
BLACK
6
CONTINUOUS
10
5.26043
20
-4.36484
11
5.26016
21
-4.36473
0
LINE
8
BLACK
6
CONTINUOUS
10
5.26016
20
-4.36473
11
5.25795
21
-4.36252
0
LINE
8
BLACK
6
CONTINUOUS
10
5.25795
20
-4.36252
11
5.25783
21
-4.36224
0
LINE
8
BLACK
6
CONTINUOUS
10
5.25783
20
-4.36224
11
5.2576
21
-4.36204
0
LINE
8
BLACK
6
CONTINUOUS
10
5.2576
20
-4.36204
11
5.2554
21
-4.35763
0
LINE
8
BLACK
6
CONTINUOUS
10
5.2554
20
-4.35763
11
5.25537
21
-4.35721
0
LINE
8
BLACK
6
CONTINUOUS
10
5.25537
20
-4.35721
11
5.2552
21
-4.35681
0
LINE
8
BLACK
6
CONTINUOUS
10
5.2552
20
-4.35681
11
5.2552
21
-4.34578
0
LINE
8
BLACK
6
CONTINUOUS
10
5.2552
20
-4.34578
11
5.25537
21
-4.34539
0
LINE
8
BLACK
6
CONTINUOUS
10
5.25537
20
-4.34539
11
5.2554
21
-4.34496
0
LINE
8
BLACK
6
CONTINUOUS
10
5.2554
20
-4.34496
11
5.2576
21
-4.34055
0
LINE
8
BLACK
6
CONTINUOUS
10
5.2576
20
-4.34055
11
5.25783
21
-4.34035
0
LINE
8
BLACK
6
CONTINUOUS
10
5.25783
20
-4.34035
11
5.25795
21
-4.34007
0
LINE
8
BLACK
6
CONTINUOUS
10
5.25795
20
-4.34007
11
5.26016
21
-4.33786
0
LINE
8
BLACK
6
CONTINUOUS
10
5.26016
20
-4.33786
11
5.26043
21
-4.33775
0
LINE
8
BLACK
6
CONTINUOUS
10
5.26043
20
-4.33775
11
5.26063
21
-4.33752
0
LINE
8
BLACK
6
CONTINUOUS
10
5.26063
20
-4.33752
11
5.26504
21
-4.33531
0
LINE
8
BLACK
6
CONTINUOUS
10
5.26504
20
-4.33531
11
5.26547
21
-4.33528
0
LINE
8
BLACK
6
CONTINUOUS
10
5.26547
20
-4.33528
11
5.26587
21
-4.33512
0
LINE
8
BLACK
6
CONTINUOUS
10
5.26587
20
-4.33512
11
5.26843
21
-4.33512
0
LINE
8
BLACK
6
CONTINUOUS
10
5.26843
20
-4.33512
11
5.25566
21
-4.32053
0
LINE
8
BLACK
6
CONTINUOUS
10
5.25566
20
-4.32053
11
5.25545
21
-4.31991
0
LINE
8
BLACK
6
CONTINUOUS
10
5.25545
20
-4.31991
11
5.2552
21
-4.31931
0
LINE
8
BLACK
6
CONTINUOUS
10
5.2552
20
-4.31931
11
5.25523
21
-4.31925
0
LINE
8
BLACK
6
CONTINUOUS
10
5.25523
20
-4.31925
11
5.25521
21
-4.31919
0
LINE
8
BLACK
6
CONTINUOUS
10
5.25521
20
-4.31919
11
5.2555
21
-4.31861
0
LINE
8
BLACK
6
CONTINUOUS
10
5.2555
20
-4.31861
11
5.25574
21
-4.31801
0
LINE
8
BLACK
6
CONTINUOUS
10
5.25574
20
-4.31801
11
5.2558
21
-4.31799
0
LINE
8
BLACK
6
CONTINUOUS
10
5.2558
20
-4.31799
11
5.25583
21
-4.31793
0
LINE
8
BLACK
6
CONTINUOUS
10
5.25583
20
-4.31793
11
5.25645
21
-4.31772
0
LINE
8
BLACK
6
CONTINUOUS
10
5.25645
20
-4.31772
11
5.25704
21
-4.31747
0
LINE
8
BLACK
6
CONTINUOUS
10
5.25704
20
-4.31747
11
5.28572
21
-4.31747
0
LINE
8
BLACK
6
CONTINUOUS
10
5.28572
20
-4.31747
11
5.28702
21
-4.31801
0
LINE
8
BLACK
6
CONTINUOUS
10
6.01066
20
-4.28396
11
6.01125
21
-4.28538
0
LINE
8
BLACK
6
CONTINUOUS
10
6.01125
20
-4.28538
11
6.01125
21
-4.33262
0
LINE
8
BLACK
6
CONTINUOUS
10
6.01125
20
-4.33262
11
6.01066
21
-4.33404
0
LINE
8
BLACK
6
CONTINUOUS
10
6.01066
20
-4.33404
11
6.00925
21
-4.33462
0
LINE
8
BLACK
6
CONTINUOUS
10
6.00925
20
-4.33462
11
6.00783
21
-4.33404
0
LINE
8
BLACK
6
CONTINUOUS
10
6.00783
20
-4.33404
11
6.00725
21
-4.33262
0
LINE
8
BLACK
6
CONTINUOUS
10
6.00725
20
-4.33262
11
6.00725
21
-4.3218
0
LINE
8
BLACK
6
CONTINUOUS
10
6.00725
20
-4.3218
11
5.97775
21
-4.3218
0
LINE
8
BLACK
6
CONTINUOUS
10
5.97775
20
-4.3218
11
5.97775
21
-4.309
0
LINE
8
BLACK
6
CONTINUOUS
10
5.97775
20
-4.309
11
6.00725
21
-4.309
0
LINE
8
BLACK
6
CONTINUOUS
10
6.00725
20
-4.309
11
6.00725
21
-4.28538
0
LINE
8
BLACK
6
CONTINUOUS
10
6.00725
20
-4.28538
11
6.00783
21
-4.28396
0
LINE
8
BLACK
6
CONTINUOUS
10
6.00783
20
-4.28396
11
6.00925
21
-4.28338
0
LINE
8
BLACK
6
CONTINUOUS
10
6.00925
20
-4.28338
11
6.01066
21
-4.28396
0
LINE
8
BLACK
6
CONTINUOUS
10
5.94767
20
-4.28396
11
5.94825
21
-4.28538
0
LINE
8
BLACK
6
CONTINUOUS
10
5.94825
20
-4.28538
11
5.94825
21
-4.33262
0
LINE
8
BLACK
6
CONTINUOUS
10
5.94825
20
-4.33262
11
5.94767
21
-4.33404
0
LINE
8
BLACK
6
CONTINUOUS
10
5.94767
20
-4.33404
11
5.94625
21
-4.33462
0
LINE
8
BLACK
6
CONTINUOUS
10
5.94625
20
-4.33462
11
5.94484
21
-4.33404
0
LINE
8
BLACK
6
CONTINUOUS
10
5.94484
20
-4.33404
11
5.94425
21
-4.33262
0
LINE
8
BLACK
6
CONTINUOUS
10
5.94425
20
-4.33262
11
5.94425
21
-4.28538
0
LINE
8
BLACK
6
CONTINUOUS
10
5.94425
20
-4.28538
11
5.94484
21
-4.28396
0
LINE
8
BLACK
6
CONTINUOUS
10
5.94484
20
-4.28396
11
5.94625
21
-4.28338
0
LINE
8
BLACK
6
CONTINUOUS
10
5.94625
20
-4.28338
11
5.94767
21
-4.28396
0
LINE
8
BLACK
6
CONTINUOUS
10
5.91169
20
-4.32981
11
5.91139
21
-4.32983
0
LINE
8
BLACK
6
CONTINUOUS
10
5.91139
20
-4.32983
11
5.90477
21
-4.32762
0
LINE
8
BLACK
6
CONTINUOUS
10
5.90477
20
-4.32762
11
5.90445
21
-4.32734
0
LINE
8
BLACK
6
CONTINUOUS
10
5.90445
20
-4.32734
11
5.90405
21
-4.32718
0
LINE
8
BLACK
6
CONTINUOUS
10
5.90405
20
-4.32718
11
5.89964
21
-4.32277
0
LINE
8
BLACK
6
CONTINUOUS
10
5.89964
20
-4.32277
11
5.89953
21
-4.32249
0
LINE
8
BLACK
6
CONTINUOUS
10
5.89953
20
-4.32249
11
5.8993
21
-4.32229
0
LINE
8
BLACK
6
CONTINUOUS
10
5.8993
20
-4.32229
11
5.89709
21
-4.31788
0
LINE
8
BLACK
6
CONTINUOUS
10
5.89709
20
-4.31788
11
5.89708
21
-4.31767
0
LINE
8
BLACK
6
CONTINUOUS
10
5.89708
20
-4.31767
11
5.89695
21
-4.3175
0
LINE
8
BLACK
6
CONTINUOUS
10
5.89695
20
-4.3175
11
5.89475
21
-4.30868
0
LINE
8
BLACK
6
CONTINUOUS
10
5.89475
20
-4.30868
11
5.89478
21
-4.30845
0
LINE
8
BLACK
6
CONTINUOUS
10
5.89478
20
-4.30845
11
5.89469
21
-4.30823
0
LINE
8
BLACK
6
CONTINUOUS
10
5.89469
20
-4.30823
11
5.89469
21
-4.30162
0
LINE
8
BLACK
6
CONTINUOUS
10
5.89469
20
-4.30162
11
5.89478
21
-4.3014
0
LINE
8
BLACK
6
CONTINUOUS
10
5.89478
20
-4.3014
11
5.89475
21
-4.30117
0
LINE
8
BLACK
6
CONTINUOUS
10
5.89475
20
-4.30117
11
5.89695
21
-4.29235
0
LINE
8
BLACK
6
CONTINUOUS
10
5.89695
20
-4.29235
11
5.89708
21
-4.29218
0
LINE
8
BLACK
6
CONTINUOUS
10
5.89708
20
-4.29218
11
5.89709
21
-4.29197
0
LINE
8
BLACK
6
CONTINUOUS
10
5.89709
20
-4.29197
11
5.8993
21
-4.28756
0
LINE
8
BLACK
6
CONTINUOUS
10
5.8993
20
-4.28756
11
5.89953
21
-4.28736
0
LINE
8
BLACK
6
CONTINUOUS
10
5.89953
20
-4.28736
11
5.89964
21
-4.28708
0
LINE
8
BLACK
6
CONTINUOUS
10
5.89964
20
-4.28708
11
5.90405
21
-4.28267
0
LINE
8
BLACK
6
CONTINUOUS
10
5.90405
20
-4.28267
11
5.90445
21
-4.2825
0
LINE
8
BLACK
6
CONTINUOUS
10
5.90445
20
-4.2825
11
5.90477
21
-4.28222
0
LINE
8
BLACK
6
CONTINUOUS
10
5.90477
20
-4.28222
11
5.91139
21
-4.28002
0
LINE
8
BLACK
6
CONTINUOUS
10
5.91139
20
-4.28002
11
5.91169
21
-4.28004
0
LINE
8
BLACK
6
CONTINUOUS
10
5.91169
20
-4.28004
11
5.91197
21
-4.27992
0
LINE
8
BLACK
6
CONTINUOUS
10
5.91197
20
-4.27992
11
5.923
21
-4.27992
0
LINE
8
BLACK
6
CONTINUOUS
10
5.923
20
-4.27992
11
5.9243
21
-4.28046
0
LINE
8
BLACK
6
CONTINUOUS
10
5.9243
20
-4.28046
11
5.92484
21
-4.28176
0
LINE
8
BLACK
6
CONTINUOUS
10
5.92484
20
-4.28176
11
5.92484
21
-4.32808
0
LINE
8
BLACK
6
CONTINUOUS
10
5.92484
20
-4.32808
11
5.9243
21
-4.32939
0
LINE
8
BLACK
6
CONTINUOUS
10
5.9243
20
-4.32939
11
5.923
21
-4.32992
0
LINE
8
BLACK
6
CONTINUOUS
10
5.923
20
-4.32992
11
5.91197
21
-4.32992
0
LINE
8
BLACK
6
CONTINUOUS
10
5.91197
20
-4.32992
11
5.91169
21
-4.32981
0
LINE
8
BLACK
6
CONTINUOUS
10
5.91227
20
-4.2836
11
5.90635
21
-4.28558
0
LINE
8
BLACK
6
CONTINUOUS
10
5.90635
20
-4.28558
11
5.90246
21
-4.28947
0
LINE
8
BLACK
6
CONTINUOUS
10
5.90246
20
-4.28947
11
5.90047
21
-4.29343
0
LINE
8
BLACK
6
CONTINUOUS
10
5.90047
20
-4.29343
11
5.89837
21
-4.30184
0
LINE
8
BLACK
6
CONTINUOUS
10
5.89837
20
-4.30184
11
5.89837
21
-4.30801
0
LINE
8
BLACK
6
CONTINUOUS
10
5.89837
20
-4.30801
11
5.90047
21
-4.31641
0
LINE
8
BLACK
6
CONTINUOUS
10
5.90047
20
-4.31641
11
5.90246
21
-4.32038
0
LINE
8
BLACK
6
CONTINUOUS
10
5.90246
20
-4.32038
11
5.90635
21
-4.32427
0
LINE
8
BLACK
6
CONTINUOUS
10
5.90635
20
-4.32427
11
5.91227
21
-4.32624
0
LINE
8
BLACK
6
CONTINUOUS
10
5.91227
20
-4.32624
11
5.92116
21
-4.32624
0
LINE
8
BLACK
6
CONTINUOUS
10
5.92116
20
-4.32624
11
5.92116
21
-4.2836
0
LINE
8
BLACK
6
CONTINUOUS
10
5.92116
20
-4.2836
11
5.91227
21
-4.2836
0
LINE
8
BLACK
6
CONTINUOUS
10
5.86868
20
-4.27791
11
5.8696
21
-4.27898
0
LINE
8
BLACK
6
CONTINUOUS
10
5.8696
20
-4.27898
11
5.88063
21
-4.31206
0
LINE
8
BLACK
6
CONTINUOUS
10
5.88063
20
-4.31206
11
5.88061
21
-4.31236
0
LINE
8
BLACK
6
CONTINUOUS
10
5.88061
20
-4.31236
11
5.88073
21
-4.31264
0
LINE
8
BLACK
6
CONTINUOUS
10
5.88073
20
-4.31264
11
5.88056
21
-4.31304
0
LINE
8
BLACK
6
CONTINUOUS
10
5.88056
20
-4.31304
11
5.88053
21
-4.31347
0
LINE
8
BLACK
6
CONTINUOUS
10
5.88053
20
-4.31347
11
5.8803
21
-4.31367
0
LINE
8
BLACK
6
CONTINUOUS
10
5.8803
20
-4.31367
11
5.88019
21
-4.31395
0
LINE
8
BLACK
6
CONTINUOUS
10
5.88019
20
-4.31395
11
5.87979
21
-4.31411
0
LINE
8
BLACK
6
CONTINUOUS
10
5.87979
20
-4.31411
11
5.87947
21
-4.31439
0
LINE
8
BLACK
6
CONTINUOUS
10
5.87947
20
-4.31439
11
5.87917
21
-4.31437
0
LINE
8
BLACK
6
CONTINUOUS
10
5.87917
20
-4.31437
11
5.87889
21
-4.31448
0
LINE
8
BLACK
6
CONTINUOUS
10
5.87889
20
-4.31448
11
5.85867
21
-4.31448
0
LINE
8
BLACK
6
CONTINUOUS
10
5.85867
20
-4.31448
11
5.85867
21
-4.32808
0
LINE
8
BLACK
6
CONTINUOUS
10
5.85867
20
-4.32808
11
5.85813
21
-4.32939
0
LINE
8
BLACK
6
CONTINUOUS
10
5.85813
20
-4.32939
11
5.85683
21
-4.32992
0
LINE
8
BLACK
6
CONTINUOUS
10
5.85683
20
-4.32992
11
5.85553
21
-4.32939
0
LINE
8
BLACK
6
CONTINUOUS
10
5.85553
20
-4.32939
11
5.85499
21
-4.32808
0
LINE
8
BLACK
6
CONTINUOUS
10
5.85499
20
-4.32808
11
5.85499
21
-4.31448
0
LINE
8
BLACK
6
CONTINUOUS
10
5.85499
20
-4.31448
11
5.85021
21
-4.31448
0
LINE
8
BLACK
6
CONTINUOUS
10
5.85021
20
-4.31448
11
5.84891
21
-4.31395
0
LINE
8
BLACK
6
CONTINUOUS
10
5.84891
20
-4.31395
11
5.84837
21
-4.31264
0
LINE
8
BLACK
6
CONTINUOUS
10
5.84837
20
-4.31264
11
5.84891
21
-4.31134
0
LINE
8
BLACK
6
CONTINUOUS
10
5.84891
20
-4.31134
11
5.85021
21
-4.3108
0
LINE
8
BLACK
6
CONTINUOUS
10
5.85021
20
-4.3108
11
5.85499
21
-4.3108
0
LINE
8
BLACK
6
CONTINUOUS
10
5.85499
20
-4.3108
11
5.85499
21
-4.2972
0
LINE
8
BLACK
6
CONTINUOUS
10
5.85499
20
-4.2972
11
5.85553
21
-4.2959
0
LINE
8
BLACK
6
CONTINUOUS
10
5.85553
20
-4.2959
11
5.85683
21
-4.29536
0
LINE
8
BLACK
6
CONTINUOUS
10
5.85683
20
-4.29536
11
5.85813
21
-4.2959
0
LINE
8
BLACK
6
CONTINUOUS
10
5.85813
20
-4.2959
11
5.85867
21
-4.2972
0
LINE
8
BLACK
6
CONTINUOUS
10
5.85867
20
-4.2972
11
5.85867
21
-4.3108
0
LINE
8
BLACK
6
CONTINUOUS
10
5.85867
20
-4.3108
11
5.87633
21
-4.3108
0
LINE
8
BLACK
6
CONTINUOUS
10
5.87633
20
-4.3108
11
5.86611
21
-4.28014
0
LINE
8
BLACK
6
CONTINUOUS
10
5.86611
20
-4.28014
11
5.86621
21
-4.27874
0
LINE
8
BLACK
6
CONTINUOUS
10
5.86621
20
-4.27874
11
5.86728
21
-4.27781
0
LINE
8
BLACK
6
CONTINUOUS
10
5.86728
20
-4.27781
11
5.86868
21
-4.27791
0
LINE
8
BLACK
6
CONTINUOUS
10
5.56681
20
-4.19228
11
5.56773
21
-4.19335
0
LINE
8
BLACK
6
CONTINUOUS
10
5.56773
20
-4.19335
11
5.57876
21
-4.22643
0
LINE
8
BLACK
6
CONTINUOUS
10
5.57876
20
-4.22643
11
5.57874
21
-4.22673
0
LINE
8
BLACK
6
CONTINUOUS
10
5.57874
20
-4.22673
11
5.57886
21
-4.22701
0
LINE
8
BLACK
6
CONTINUOUS
10
5.57886
20
-4.22701
11
5.57869
21
-4.22741
0
LINE
8
BLACK
6
CONTINUOUS
10
5.57869
20
-4.22741
11
5.57866
21
-4.22784
0
LINE
8
BLACK
6
CONTINUOUS
10
5.57866
20
-4.22784
11
5.57843
21
-4.22804
0
LINE
8
BLACK
6
CONTINUOUS
10
5.57843
20
-4.22804
11
5.57832
21
-4.22832
0
LINE
8
BLACK
6
CONTINUOUS
10
5.57832
20
-4.22832
11
5.57792
21
-4.22848
0
LINE
8
BLACK
6
CONTINUOUS
10
5.57792
20
-4.22848
11
5.5776
21
-4.22876
0
LINE
8
BLACK
6
CONTINUOUS
10
5.5776
20
-4.22876
11
5.5773
21
-4.22874
0
LINE
8
BLACK
6
CONTINUOUS
10
5.5773
20
-4.22874
11
5.57702
21
-4.22885
0
LINE
8
BLACK
6
CONTINUOUS
10
5.57702
20
-4.22885
11
5.5568
21
-4.22885
0
LINE
8
BLACK
6
CONTINUOUS
10
5.5568
20
-4.22885
11
5.5568
21
-4.23658
0
LINE
8
BLACK
6
CONTINUOUS
10
5.5568
20
-4.23658
11
5.55809
21
-4.23711
0
LINE
8
BLACK
6
CONTINUOUS
10
5.55809
20
-4.23711
11
5.5603
21
-4.23932
0
LINE
8
BLACK
6
CONTINUOUS
10
5.5603
20
-4.23932
11
5.56042
21
-4.2396
0
LINE
8
BLACK
6
CONTINUOUS
10
5.56042
20
-4.2396
11
5.56064
21
-4.2398
0
LINE
8
BLACK
6
CONTINUOUS
10
5.56064
20
-4.2398
11
5.56285
21
-4.24421
0
LINE
8
BLACK
6
CONTINUOUS
10
5.56285
20
-4.24421
11
5.56288
21
-4.24463
0
LINE
8
BLACK
6
CONTINUOUS
10
5.56288
20
-4.24463
11
5.56304
21
-4.24503
0
LINE
8
BLACK
6
CONTINUOUS
10
5.56304
20
-4.24503
11
5.56304
21
-4.25826
0
LINE
8
BLACK
6
CONTINUOUS
10
5.56304
20
-4.25826
11
5.56288
21
-4.25866
0
LINE
8
BLACK
6
CONTINUOUS
10
5.56288
20
-4.25866
11
5.56285
21
-4.25909
0
LINE
8
BLACK
6
CONTINUOUS
10
5.56285
20
-4.25909
11
5.56064
21
-4.2635
0
LINE
8
BLACK
6
CONTINUOUS
10
5.56064
20
-4.2635
11
5.56042
21
-4.2637
0
LINE
8
BLACK
6
CONTINUOUS
10
5.56042
20
-4.2637
11
5.5603
21
-4.26398
0
LINE
8
BLACK
6
CONTINUOUS
10
5.5603
20
-4.26398
11
5.55809
21
-4.26618
0
LINE
8
BLACK
6
CONTINUOUS
10
5.55809
20
-4.26618
11
5.55781
21
-4.2663
0
LINE
8
BLACK
6
CONTINUOUS
10
5.55781
20
-4.2663
11
5.55762
21
-4.26653
0
LINE
8
BLACK
6
CONTINUOUS
10
5.55762
20
-4.26653
11
5.5532
21
-4.26873
0
LINE
8
BLACK
6
CONTINUOUS
10
5.5532
20
-4.26873
11
5.55278
21
-4.26876
0
LINE
8
BLACK
6
CONTINUOUS
10
5.55278
20
-4.26876
11
5.55238
21
-4.26893
0
LINE
8
BLACK
6
CONTINUOUS
10
5.55238
20
-4.26893
11
5.54135
21
-4.26893
0
LINE
8
BLACK
6
CONTINUOUS
10
5.54135
20
-4.26893
11
5.54096
21
-4.26876
0
LINE
8
BLACK
6
CONTINUOUS
10
5.54096
20
-4.26876
11
5.54053
21
-4.26873
0
LINE
8
BLACK
6
CONTINUOUS
10
5.54053
20
-4.26873
11
5.53612
21
-4.26653
0
LINE
8
BLACK
6
CONTINUOUS
10
5.53612
20
-4.26653
11
5.53592
21
-4.2663
0
LINE
8
BLACK
6
CONTINUOUS
10
5.53592
20
-4.2663
11
5.53564
21
-4.26618
0
LINE
8
BLACK
6
CONTINUOUS
10
5.53564
20
-4.26618
11
5.53343
21
-4.26398
0
LINE
8
BLACK
6
CONTINUOUS
10
5.53343
20
-4.26398
11
5.53332
21
-4.2637
0
LINE
8
BLACK
6
CONTINUOUS
10
5.53332
20
-4.2637
11
5.53309
21
-4.2635
0
LINE
8
BLACK
6
CONTINUOUS
10
5.53309
20
-4.2635
11
5.53088
21
-4.25909
0
LINE
8
BLACK
6
CONTINUOUS
10
5.53088
20
-4.25909
11
5.53085
21
-4.25866
0
LINE
8
BLACK
6
CONTINUOUS
10
5.53085
20
-4.25866
11
5.53069
21
-4.25826
0
LINE
8
BLACK
6
CONTINUOUS
10
5.53069
20
-4.25826
11
5.53069
21
-4.2557
0
LINE
8
BLACK
6
CONTINUOUS
10
5.53069
20
-4.2557
11
5.5161
21
-4.26847
0
LINE
8
BLACK
6
CONTINUOUS
10
5.5161
20
-4.26847
11
5.51548
21
-4.26868
0
LINE
8
BLACK
6
CONTINUOUS
10
5.51548
20
-4.26868
11
5.51488
21
-4.26893
0
LINE
8
BLACK
6
CONTINUOUS
10
5.51488
20
-4.26893
11
5.51482
21
-4.2689
0
LINE
8
BLACK
6
CONTINUOUS
10
5.51482
20
-4.2689
11
5.51476
21
-4.26892
0
LINE
8
BLACK
6
CONTINUOUS
10
5.51476
20
-4.26892
11
5.51418
21
-4.26864
0
LINE
8
BLACK
6
CONTINUOUS
10
5.51418
20
-4.26864
11
5.51358
21
-4.26839
0
LINE
8
BLACK
6
CONTINUOUS
10
5.51358
20
-4.26839
11
5.51356
21
-4.26833
0
LINE
8
BLACK
6
CONTINUOUS
10
5.51356
20
-4.26833
11
5.5135
21
-4.2683
0
LINE
8
BLACK
6
CONTINUOUS
10
5.5135
20
-4.2683
11
5.51329
21
-4.26769
0
LINE
8
BLACK
6
CONTINUOUS
10
5.51329
20
-4.26769
11
5.51304
21
-4.26709
0
LINE
8
BLACK
6
CONTINUOUS
10
5.51304
20
-4.26709
11
5.51304
21
-4.23841
0
LINE
8
BLACK
6
CONTINUOUS
10
5.51304
20
-4.23841
11
5.51358
21
-4.23711
0
LINE
8
BLACK
6
CONTINUOUS
10
5.51358
20
-4.23711
11
5.51488
21
-4.23657
0
LINE
8
BLACK
6
CONTINUOUS
10
5.51488
20
-4.23657
11
5.51619
21
-4.23711
0
LINE
8
BLACK
6
CONTINUOUS
10
5.51619
20
-4.23711
11
5.51672
21
-4.23841
0
LINE
8
BLACK
6
CONTINUOUS
10
5.51672
20
-4.23841
11
5.51672
21
-4.26303
0
LINE
8
BLACK
6
CONTINUOUS
10
5.51672
20
-4.26303
11
5.53132
21
-4.25026
0
LINE
8
BLACK
6
CONTINUOUS
10
5.53132
20
-4.25026
11
5.53193
21
-4.25005
0
LINE
8
BLACK
6
CONTINUOUS
10
5.53193
20
-4.25005
11
5.53253
21
-4.24981
0
LINE
8
BLACK
6
CONTINUOUS
10
5.53253
20
-4.24981
11
5.53259
21
-4.24983
0
LINE
8
BLACK
6
CONTINUOUS
10
5.53259
20
-4.24983
11
5.53265
21
-4.24981
0
LINE
8
BLACK
6
CONTINUOUS
10
5.53265
20
-4.24981
11
5.53323
21
-4.2501
0
LINE
8
BLACK
6
CONTINUOUS
10
5.53323
20
-4.2501
11
5.53383
21
-4.25035
0
LINE
8
BLACK
6
CONTINUOUS
10
5.53383
20
-4.25035
11
5.53386
21
-4.25041
0
LINE
8
BLACK
6
CONTINUOUS
10
5.53386
20
-4.25041
11
5.53391
21
-4.25044
0
LINE
8
BLACK
6
CONTINUOUS
10
5.53391
20
-4.25044
11
5.53412
21
-4.25105
0
LINE
8
BLACK
6
CONTINUOUS
10
5.53412
20
-4.25105
11
5.53437
21
-4.25165
0
LINE
8
BLACK
6
CONTINUOUS
10
5.53437
20
-4.25165
11
5.53437
21
-4.25783
0
LINE
8
BLACK
6
CONTINUOUS
10
5.53437
20
-4.25783
11
5.53625
21
-4.26159
0
LINE
8
BLACK
6
CONTINUOUS
10
5.53625
20
-4.26159
11
5.53803
21
-4.26337
0
LINE
8
BLACK
6
CONTINUOUS
10
5.53803
20
-4.26337
11
5.54179
21
-4.26525
0
LINE
8
BLACK
6
CONTINUOUS
10
5.54179
20
-4.26525
11
5.55195
21
-4.26525
0
LINE
8
BLACK
6
CONTINUOUS
10
5.55195
20
-4.26525
11
5.5557
21
-4.26337
0
LINE
8
BLACK
6
CONTINUOUS
10
5.5557
20
-4.26337
11
5.55749
21
-4.26159
0
LINE
8
BLACK
6
CONTINUOUS
10
5.55749
20
-4.26159
11
5.55936
21
-4.25783
0
LINE
8
BLACK
6
CONTINUOUS
10
5.55936
20
-4.25783
11
5.55936
21
-4.24546
0
LINE
8
BLACK
6
CONTINUOUS
10
5.55936
20
-4.24546
11
5.55749
21
-4.24171
0
LINE
8
BLACK
6
CONTINUOUS
10
5.55749
20
-4.24171
11
5.5568
21
-4.24102
0
LINE
8
BLACK
6
CONTINUOUS
10
5.5568
20
-4.24102
11
5.5568
21
-4.24245
0
LINE
8
BLACK
6
CONTINUOUS
10
5.5568
20
-4.24245
11
5.55626
21
-4.24376
0
LINE
8
BLACK
6
CONTINUOUS
10
5.55626
20
-4.24376
11
5.55496
21
-4.24429
0
LINE
8
BLACK
6
CONTINUOUS
10
5.55496
20
-4.24429
11
5.55366
21
-4.24376
0
LINE
8
BLACK
6
CONTINUOUS
10
5.55366
20
-4.24376
11
5.55312
21
-4.24245
0
LINE
8
BLACK
6
CONTINUOUS
10
5.55312
20
-4.24245
11
5.55312
21
-4.22885
0
LINE
8
BLACK
6
CONTINUOUS
10
5.55312
20
-4.22885
11
5.54834
21
-4.22885
0
LINE
8
BLACK
6
CONTINUOUS
10
5.54834
20
-4.22885
11
5.54704
21
-4.22832
0
LINE
8
BLACK
6
CONTINUOUS
10
5.54704
20
-4.22832
11
5.5465
21
-4.22701
0
LINE
8
BLACK
6
CONTINUOUS
10
5.5465
20
-4.22701
11
5.54704
21
-4.22571
0
LINE
8
BLACK
6
CONTINUOUS
10
5.54704
20
-4.22571
11
5.54834
21
-4.22517
0
LINE
8
BLACK
6
CONTINUOUS
10
5.54834
20
-4.22517
11
5.55312
21
-4.22517
0
LINE
8
BLACK
6
CONTINUOUS
10
5.55312
20
-4.22517
11
5.55312
21
-4.21956
0
LINE
8
BLACK
6
CONTINUOUS
10
5.55312
20
-4.21956
11
5.54099
21
-4.21107
0
LINE
8
BLACK
6
CONTINUOUS
10
5.54099
20
-4.21107
11
5.54099
21
-4.21415
0
LINE
8
BLACK
6
CONTINUOUS
10
5.54099
20
-4.21415
11
5.54082
21
-4.21455
0
LINE
8
BLACK
6
CONTINUOUS
10
5.54082
20
-4.21455
11
5.54079
21
-4.21497
0
LINE
8
BLACK
6
CONTINUOUS
10
5.54079
20
-4.21497
11
5.53859
21
-4.21938
0
LINE
8
BLACK
6
CONTINUOUS
10
5.53859
20
-4.21938
11
5.53836
21
-4.21958
0
LINE
8
BLACK
6
CONTINUOUS
10
5.53836
20
-4.21958
11
5.53824
21
-4.21986
0
LINE
8
BLACK
6
CONTINUOUS
10
5.53824
20
-4.21986
11
5.53604
21
-4.22207
0
LINE
8
BLACK
6
CONTINUOUS
10
5.53604
20
-4.22207
11
5.53576
21
-4.22218
0
LINE
8
BLACK
6
CONTINUOUS
10
5.53576
20
-4.22218
11
5.53556
21
-4.22241
0
LINE
8
BLACK
6
CONTINUOUS
10
5.53556
20
-4.22241
11
5.53115
21
-4.22462
0
LINE
8
BLACK
6
CONTINUOUS
10
5.53115
20
-4.22462
11
5.53072
21
-4.22465
0
LINE
8
BLACK
6
CONTINUOUS
10
5.53072
20
-4.22465
11
5.53032
21
-4.22481
0
LINE
8
BLACK
6
CONTINUOUS
10
5.53032
20
-4.22481
11
5.52371
21
-4.22481
0
LINE
8
BLACK
6
CONTINUOUS
10
5.52371
20
-4.22481
11
5.52331
21
-4.22465
0
LINE
8
BLACK
6
CONTINUOUS
10
5.52331
20
-4.22465
11
5.52288
21
-4.22462
0
LINE
8
BLACK
6
CONTINUOUS
10
5.52288
20
-4.22462
11
5.51847
21
-4.22241
0
LINE
8
BLACK
6
CONTINUOUS
10
5.51847
20
-4.22241
11
5.51827
21
-4.22218
0
LINE
8
BLACK
6
CONTINUOUS
10
5.51827
20
-4.22218
11
5.51799
21
-4.22207
0
LINE
8
BLACK
6
CONTINUOUS
10
5.51799
20
-4.22207
11
5.51579
21
-4.21986
0
LINE
8
BLACK
6
CONTINUOUS
10
5.51579
20
-4.21986
11
5.51567
21
-4.21958
0
LINE
8
BLACK
6
CONTINUOUS
10
5.51567
20
-4.21958
11
5.51544
21
-4.21938
0
LINE
8
BLACK
6
CONTINUOUS
10
5.51544
20
-4.21938
11
5.51324
21
-4.21497
0
LINE
8
BLACK
6
CONTINUOUS
10
5.51324
20
-4.21497
11
5.51321
21
-4.21455
0
LINE
8
BLACK
6
CONTINUOUS
10
5.51321
20
-4.21455
11
5.51304
21
-4.21415
0
LINE
8
BLACK
6
CONTINUOUS
10
5.51304
20
-4.21415
11
5.51304
21
-4.1965
0
LINE
8
BLACK
6
CONTINUOUS
10
5.51304
20
-4.1965
11
5.51358
21
-4.1952
0
LINE
8
BLACK
6
CONTINUOUS
10
5.51358
20
-4.1952
11
5.51488
21
-4.19466
0
LINE
8
BLACK
6
CONTINUOUS
10
5.51488
20
-4.19466
11
5.5612
21
-4.19466
0
LINE
8
BLACK
6
CONTINUOUS
10
5.5612
20
-4.19466
11
5.56251
21
-4.1952
0
LINE
8
BLACK
6
CONTINUOUS
10
5.56251
20
-4.1952
11
5.56304
21
-4.1965
0
LINE
8
BLACK
6
CONTINUOUS
10
5.56304
20
-4.1965
11
5.56251
21
-4.19781
0
LINE
8
BLACK
6
CONTINUOUS
10
5.56251
20
-4.19781
11
5.5612
21
-4.19834
0
LINE
8
BLACK
6
CONTINUOUS
10
5.5612
20
-4.19834
11
5.54099
21
-4.19834
0
LINE
8
BLACK
6
CONTINUOUS
10
5.54099
20
-4.19834
11
5.54099
21
-4.20657
0
LINE
8
BLACK
6
CONTINUOUS
10
5.54099
20
-4.20657
11
5.55312
21
-4.21507
0
LINE
8
BLACK
6
CONTINUOUS
10
5.55312
20
-4.21507
11
5.55312
21
-4.21157
0
LINE
8
BLACK
6
CONTINUOUS
10
5.55312
20
-4.21157
11
5.55366
21
-4.21027
0
LINE
8
BLACK
6
CONTINUOUS
10
5.55366
20
-4.21027
11
5.55496
21
-4.20973
0
LINE
8
BLACK
6
CONTINUOUS
10
5.55496
20
-4.20973
11
5.55626
21
-4.21027
0
LINE
8
BLACK
6
CONTINUOUS
10
5.55626
20
-4.21027
11
5.5568
21
-4.21157
0
LINE
8
BLACK
6
CONTINUOUS
10
5.5568
20
-4.21157
11
5.5568
21
-4.21764
0
LINE
8
BLACK
6
CONTINUOUS
10
5.5568
20
-4.21764
11
5.56226
21
-4.22147
0
LINE
8
BLACK
6
CONTINUOUS
10
5.56226
20
-4.22147
11
5.56302
21
-4.22265
0
LINE
8
BLACK
6
CONTINUOUS
10
5.56302
20
-4.22265
11
5.56271
21
-4.22403
0
LINE
8
BLACK
6
CONTINUOUS
10
5.56271
20
-4.22403
11
5.56152
21
-4.22478
0
LINE
8
BLACK
6
CONTINUOUS
10
5.56152
20
-4.22478
11
5.56015
21
-4.22448
0
LINE
8
BLACK
6
CONTINUOUS
10
5.56015
20
-4.22448
11
5.5568
21
-4.22214
0
LINE
8
BLACK
6
CONTINUOUS
10
5.5568
20
-4.22214
11
5.5568
21
-4.22517
0
LINE
8
BLACK
6
CONTINUOUS
10
5.5568
20
-4.22517
11
5.57446
21
-4.22517
0
LINE
8
BLACK
6
CONTINUOUS
10
5.57446
20
-4.22517
11
5.56424
21
-4.19451
0
LINE
8
BLACK
6
CONTINUOUS
10
5.56424
20
-4.19451
11
5.56434
21
-4.19311
0
LINE
8
BLACK
6
CONTINUOUS
10
5.56434
20
-4.19311
11
5.56541
21
-4.19218
0
LINE
8
BLACK
6
CONTINUOUS
10
5.56541
20
-4.19218
11
5.56681
21
-4.19228
0
LINE
8
BLACK
6
CONTINUOUS
10
5.51672
20
-4.19834
11
5.51672
21
-4.21372
0
LINE
8
BLACK
6
CONTINUOUS
10
5.51672
20
-4.21372
11
5.5186
21
-4.21747
0
LINE
8
BLACK
6
CONTINUOUS
10
5.5186
20
-4.21747
11
5.52039
21
-4.21925
0
LINE
8
BLACK
6
CONTINUOUS
10
5.52039
20
-4.21925
11
5.52414
21
-4.22113
0
LINE
8
BLACK
6
CONTINUOUS
10
5.52414
20
-4.22113
11
5.52989
21
-4.22113
0
LINE
8
BLACK
6
CONTINUOUS
10
5.52989
20
-4.22113
11
5.53365
21
-4.21925
0
LINE
8
BLACK
6
CONTINUOUS
10
5.53365
20
-4.21925
11
5.53543
21
-4.21747
0
LINE
8
BLACK
6
CONTINUOUS
10
5.53543
20
-4.21747
11
5.53731
21
-4.21372
0
LINE
8
BLACK
6
CONTINUOUS
10
5.53731
20
-4.21372
11
5.53731
21
-4.19834
0
LINE
8
BLACK
6
CONTINUOUS
10
5.53731
20
-4.19834
11
5.51672
21
-4.19834
0
LINE
8
BLACK
6
CONTINUOUS
10
5.71938
20
-4.20022
11
5.71951
21
-4.2002
0
LINE
8
BLACK
6
CONTINUOUS
10
5.71951
20
-4.2002
11
5.72701
21
-4.20208
0
LINE
8
BLACK
6
CONTINUOUS
10
5.72701
20
-4.20208
11
5.72748
21
-4.20228
0
LINE
8
BLACK
6
CONTINUOUS
10
5.72748
20
-4.20228
11
5.72762
21
-4.2023
0
LINE
8
BLACK
6
CONTINUOUS
10
5.72762
20
-4.2023
11
5.73136
21
-4.20417
0
LINE
8
BLACK
6
CONTINUOUS
10
5.73136
20
-4.20417
11
5.73207
21
-4.2047
0
LINE
8
BLACK
6
CONTINUOUS
10
5.73207
20
-4.2047
11
5.73213
21
-4.20473
0
LINE
8
BLACK
6
CONTINUOUS
10
5.73213
20
-4.20473
11
5.73588
21
-4.20848
0
LINE
8
BLACK
6
CONTINUOUS
10
5.73588
20
-4.20848
11
5.73647
21
-4.20932
0
LINE
8
BLACK
6
CONTINUOUS
10
5.73647
20
-4.20932
11
5.73649
21
-4.20949
0
LINE
8
BLACK
6
CONTINUOUS
10
5.73649
20
-4.20949
11
5.73659
21
-4.20963
0
LINE
8
BLACK
6
CONTINUOUS
10
5.73659
20
-4.20963
11
5.73847
21
-4.21526
0
LINE
8
BLACK
6
CONTINUOUS
10
5.73847
20
-4.21526
11
5.7386
21
-4.21613
0
LINE
8
BLACK
6
CONTINUOUS
10
5.7386
20
-4.21613
11
5.73862
21
-4.21619
0
LINE
8
BLACK
6
CONTINUOUS
10
5.73862
20
-4.21619
11
5.73862
21
-4.21994
0
LINE
8
BLACK
6
CONTINUOUS
10
5.73862
20
-4.21994
11
5.73847
21
-4.22081
0
LINE
8
BLACK
6
CONTINUOUS
10
5.73847
20
-4.22081
11
5.73847
21
-4.22087
0
LINE
8
BLACK
6
CONTINUOUS
10
5.73847
20
-4.22087
11
5.73659
21
-4.2265
0
LINE
8
BLACK
6
CONTINUOUS
10
5.73659
20
-4.2265
11
5.73611
21
-4.2274
0
LINE
8
BLACK
6
CONTINUOUS
10
5.73611
20
-4.2274
11
5.73596
21
-4.22749
0
LINE
8
BLACK
6
CONTINUOUS
10
5.73596
20
-4.22749
11
5.73588
21
-4.22765
0
LINE
8
BLACK
6
CONTINUOUS
10
5.73588
20
-4.22765
11
5.73405
21
-4.22948
0
LINE
8
BLACK
6
CONTINUOUS
10
5.73405
20
-4.22948
11
5.73405
21
-4.23852
0
LINE
8
BLACK
6
CONTINUOUS
10
5.73405
20
-4.23852
11
5.73588
21
-4.24035
0
LINE
8
BLACK
6
CONTINUOUS
10
5.73588
20
-4.24035
11
5.73639
21
-4.24107
0
LINE
8
BLACK
6
CONTINUOUS
10
5.73639
20
-4.24107
11
5.73643
21
-4.24112
0
LINE
8
BLACK
6
CONTINUOUS
10
5.73643
20
-4.24112
11
5.73831
21
-4.24487
0
LINE
8
BLACK
6
CONTINUOUS
10
5.73831
20
-4.24487
11
5.7386
21
-4.24585
0
LINE
8
BLACK
6
CONTINUOUS
10
5.7386
20
-4.24585
11
5.73856
21
-4.24602
0
LINE
8
BLACK
6
CONTINUOUS
10
5.73856
20
-4.24602
11
5.73862
21
-4.24619
0
LINE
8
BLACK
6
CONTINUOUS
10
5.73862
20
-4.24619
11
5.73862
21
-4.25743
0
LINE
8
BLACK
6
CONTINUOUS
10
5.73862
20
-4.25743
11
5.73844
21
-4.25844
0
LINE
8
BLACK
6
CONTINUOUS
10
5.73844
20
-4.25844
11
5.73833
21
-4.25858
0
LINE
8
BLACK
6
CONTINUOUS
10
5.73833
20
-4.25858
11
5.73831
21
-4.25876
0
LINE
8
BLACK
6
CONTINUOUS
10
5.73831
20
-4.25876
11
5.73643
21
-4.2625
0
LINE
8
BLACK
6
CONTINUOUS
10
5.73643
20
-4.2625
11
5.73591
21
-4.26321
0
LINE
8
BLACK
6
CONTINUOUS
10
5.73591
20
-4.26321
11
5.73588
21
-4.26327
0
LINE
8
BLACK
6
CONTINUOUS
10
5.73588
20
-4.26327
11
5.73401
21
-4.26515
0
LINE
8
BLACK
6
CONTINUOUS
10
5.73401
20
-4.26515
11
5.73328
21
-4.26565
0
LINE
8
BLACK
6
CONTINUOUS
10
5.73328
20
-4.26565
11
5.73324
21
-4.2657
0
LINE
8
BLACK
6
CONTINUOUS
10
5.73324
20
-4.2657
11
5.72949
21
-4.26757
0
LINE
8
BLACK
6
CONTINUOUS
10
5.72949
20
-4.26757
11
5.72851
21
-4.26787
0
LINE
8
BLACK
6
CONTINUOUS
10
5.72851
20
-4.26787
11
5.72834
21
-4.26783
0
LINE
8
BLACK
6
CONTINUOUS
10
5.72834
20
-4.26783
11
5.72817
21
-4.26789
0
LINE
8
BLACK
6
CONTINUOUS
10
5.72817
20
-4.26789
11
5.7188
21
-4.26789
0
LINE
8
BLACK
6
CONTINUOUS
10
5.7188
20
-4.26789
11
5.71779
21
-4.26771
0
LINE
8
BLACK
6
CONTINUOUS
10
5.71779
20
-4.26771
11
5.71765
21
-4.26759
0
LINE
8
BLACK
6
CONTINUOUS
10
5.71765
20
-4.26759
11
5.71748
21
-4.26757
0
LINE
8
BLACK
6
CONTINUOUS
10
5.71748
20
-4.26757
11
5.71373
21
-4.2657
0
LINE
8
BLACK
6
CONTINUOUS
10
5.71373
20
-4.2657
11
5.71302
21
-4.26517
0
LINE
8
BLACK
6
CONTINUOUS
10
5.71302
20
-4.26517
11
5.71296
21
-4.26515
0
LINE
8
BLACK
6
CONTINUOUS
10
5.71296
20
-4.26515
11
5.71108
21
-4.26327
0
LINE
8
BLACK
6
CONTINUOUS
10
5.71108
20
-4.26327
11
5.71058
21
-4.26255
0
LINE
8
BLACK
6
CONTINUOUS
10
5.71058
20
-4.26255
11
5.71053
21
-4.2625
0
LINE
8
BLACK
6
CONTINUOUS
10
5.71053
20
-4.2625
11
5.70866
21
-4.25876
0
LINE
8
BLACK
6
CONTINUOUS
10
5.70866
20
-4.25876
11
5.70849
21
-4.25819
0
LINE
8
BLACK
6
CONTINUOUS
10
5.70849
20
-4.25819
11
5.69824
21
-4.26716
0
LINE
8
BLACK
6
CONTINUOUS
10
5.69824
20
-4.26716
11
5.69786
21
-4.26739
0
LINE
8
BLACK
6
CONTINUOUS
10
5.69786
20
-4.26739
11
5.69777
21
-4.26749
0
LINE
8
BLACK
6
CONTINUOUS
10
5.69777
20
-4.26749
11
5.69765
21
-4.26751
0
LINE
8
BLACK
6
CONTINUOUS
10
5.69765
20
-4.26751
11
5.69737
21
-4.26769
0
LINE
8
BLACK
6
CONTINUOUS
10
5.69737
20
-4.26769
11
5.69657
21
-4.2677
0
LINE
8
BLACK
6
CONTINUOUS
10
5.69657
20
-4.2677
11
5.69579
21
-4.26784
0
LINE
8
BLACK
6
CONTINUOUS
10
5.69579
20
-4.26784
11
5.69558
21
-4.26772
0
LINE
8
BLACK
6
CONTINUOUS
10
5.69558
20
-4.26772
11
5.69535
21
-4.26773
0
LINE
8
BLACK
6
CONTINUOUS
10
5.69535
20
-4.26773
11
5.69473
21
-4.26723
0
LINE
8
BLACK
6
CONTINUOUS
10
5.69473
20
-4.26723
11
5.69404
21
-4.26683
0
LINE
8
BLACK
6
CONTINUOUS
10
5.69404
20
-4.26683
11
5.69396
21
-4.26661
0
LINE
8
BLACK
6
CONTINUOUS
10
5.69396
20
-4.26661
11
5.69377
21
-4.26646
0
LINE
8
BLACK
6
CONTINUOUS
10
5.69377
20
-4.26646
11
5.69362
21
-4.26568
0
LINE
8
BLACK
6
CONTINUOUS
10
5.69362
20
-4.26568
11
5.69335
21
-4.26493
0
LINE
8
BLACK
6
CONTINUOUS
10
5.69335
20
-4.26493
11
5.69335
21
-4.24056
0
LINE
8
BLACK
6
CONTINUOUS
10
5.69335
20
-4.24056
11
5.69352
21
-4.23955
0
LINE
8
BLACK
6
CONTINUOUS
10
5.69352
20
-4.23955
11
5.69482
21
-4.238
0
LINE
8
BLACK
6
CONTINUOUS
10
5.69482
20
-4.238
11
5.69681
21
-4.23765
0
LINE
8
BLACK
6
CONTINUOUS
10
5.69681
20
-4.23765
11
5.69856
21
-4.23866
0
LINE
8
BLACK
6
CONTINUOUS
10
5.69856
20
-4.23866
11
5.69925
21
-4.24056
0
LINE
8
BLACK
6
CONTINUOUS
10
5.69925
20
-4.24056
11
5.69925
21
-4.25843
0
LINE
8
BLACK
6
CONTINUOUS
10
5.69925
20
-4.25843
11
5.70935
21
-4.24959
0
LINE
8
BLACK
6
CONTINUOUS
10
5.70935
20
-4.24959
11
5.70973
21
-4.24936
0
LINE
8
BLACK
6
CONTINUOUS
10
5.70973
20
-4.24936
11
5.70982
21
-4.24925
0
LINE
8
BLACK
6
CONTINUOUS
10
5.70982
20
-4.24925
11
5.70994
21
-4.24923
0
LINE
8
BLACK
6
CONTINUOUS
10
5.70994
20
-4.24923
11
5.71023
21
-4.24906
0
LINE
8
BLACK
6
CONTINUOUS
10
5.71023
20
-4.24906
11
5.71103
21
-4.24904
0
LINE
8
BLACK
6
CONTINUOUS
10
5.71103
20
-4.24904
11
5.71181
21
-4.2489
0
LINE
8
BLACK
6
CONTINUOUS
10
5.71181
20
-4.2489
11
5.71201
21
-4.24902
0
LINE
8
BLACK
6
CONTINUOUS
10
5.71201
20
-4.24902
11
5.71225
21
-4.24902
0
LINE
8
BLACK
6
CONTINUOUS
10
5.71225
20
-4.24902
11
5.71287
21
-4.24951
0
LINE
8
BLACK
6
CONTINUOUS
10
5.71287
20
-4.24951
11
5.71356
21
-4.24991
0
LINE
8
BLACK
6
CONTINUOUS
10
5.71356
20
-4.24991
11
5.71364
21
-4.25013
0
LINE
8
BLACK
6
CONTINUOUS
10
5.71364
20
-4.25013
11
5.71382
21
-4.25028
0
LINE
8
BLACK
6
CONTINUOUS
10
5.71382
20
-4.25028
11
5.71398
21
-4.25106
0
LINE
8
BLACK
6
CONTINUOUS
10
5.71398
20
-4.25106
11
5.71425
21
-4.25181
0
LINE
8
BLACK
6
CONTINUOUS
10
5.71425
20
-4.25181
11
5.71425
21
-4.25674
0
LINE
8
BLACK
6
CONTINUOUS
10
5.71425
20
-4.25674
11
5.7156
21
-4.25943
0
LINE
8
BLACK
6
CONTINUOUS
10
5.7156
20
-4.25943
11
5.7168
21
-4.26063
0
LINE
8
BLACK
6
CONTINUOUS
10
5.7168
20
-4.26063
11
5.71949
21
-4.26198
0
LINE
8
BLACK
6
CONTINUOUS
10
5.71949
20
-4.26198
11
5.72747
21
-4.26198
0
LINE
8
BLACK
6
CONTINUOUS
10
5.72747
20
-4.26198
11
5.73017
21
-4.26063
0
LINE
8
BLACK
6
CONTINUOUS
10
5.73017
20
-4.26063
11
5.73137
21
-4.25943
0
LINE
8
BLACK
6
CONTINUOUS
10
5.73137
20
-4.25943
11
5.73272
21
-4.25674
0
LINE
8
BLACK
6
CONTINUOUS
10
5.73272
20
-4.25674
11
5.73272
21
-4.24688
0
LINE
8
BLACK
6
CONTINUOUS
10
5.73272
20
-4.24688
11
5.73244
21
-4.24634
0
LINE
8
BLACK
6
CONTINUOUS
10
5.73244
20
-4.24634
11
5.73169
21
-4.24665
0
LINE
8
BLACK
6
CONTINUOUS
10
5.73169
20
-4.24665
11
5.73002
21
-4.24596
0
LINE
8
BLACK
6
CONTINUOUS
10
5.73002
20
-4.24596
11
5.72932
21
-4.24429
0
LINE
8
BLACK
6
CONTINUOUS
10
5.72932
20
-4.24429
11
5.72932
21
-4.24193
0
LINE
8
BLACK
6
CONTINUOUS
10
5.72932
20
-4.24193
11
5.72924
21
-4.24181
0
LINE
8
BLACK
6
CONTINUOUS
10
5.72924
20
-4.24181
11
5.72907
21
-4.2398
0
LINE
8
BLACK
6
CONTINUOUS
10
5.72907
20
-4.2398
11
5.72932
21
-4.23943
0
LINE
8
BLACK
6
CONTINUOUS
10
5.72932
20
-4.23943
11
5.72932
21
-4.22848
0
LINE
8
BLACK
6
CONTINUOUS
10
5.72932
20
-4.22848
11
5.72898
21
-4.22718
0
LINE
8
BLACK
6
CONTINUOUS
10
5.72898
20
-4.22718
11
5.72932
21
-4.22644
0
LINE
8
BLACK
6
CONTINUOUS
10
5.72932
20
-4.22644
11
5.72932
21
-4.22371
0
LINE
8
BLACK
6
CONTINUOUS
10
5.72932
20
-4.22371
11
5.73002
21
-4.22204
0
LINE
8
BLACK
6
CONTINUOUS
10
5.73002
20
-4.22204
11
5.73169
21
-4.22135
0
LINE
8
BLACK
6
CONTINUOUS
10
5.73169
20
-4.22135
11
5.73204
21
-4.2215
0
LINE
8
BLACK
6
CONTINUOUS
10
5.73204
20
-4.2215
11
5.73272
21
-4.21946
0
LINE
8
BLACK
6
CONTINUOUS
10
5.73272
20
-4.21946
11
5.73272
21
-4.21667
0
LINE
8
BLACK
6
CONTINUOUS
10
5.73272
20
-4.21667
11
5.73121
21
-4.21216
0
LINE
8
BLACK
6
CONTINUOUS
10
5.73121
20
-4.21216
11
5.7283
21
-4.20924
0
LINE
8
BLACK
6
CONTINUOUS
10
5.7283
20
-4.20924
11
5.72526
21
-4.20773
0
LINE
8
BLACK
6
CONTINUOUS
10
5.72526
20
-4.20773
11
5.71843
21
-4.20602
0
LINE
8
BLACK
6
CONTINUOUS
10
5.71843
20
-4.20602
11
5.71353
21
-4.20602
0
LINE
8
BLACK
6
CONTINUOUS
10
5.71353
20
-4.20602
11
5.7067
21
-4.20773
0
LINE
8
BLACK
6
CONTINUOUS
10
5.7067
20
-4.20773
11
5.70367
21
-4.20924
0
LINE
8
BLACK
6
CONTINUOUS
10
5.70367
20
-4.20924
11
5.70075
21
-4.21216
0
LINE
8
BLACK
6
CONTINUOUS
10
5.70075
20
-4.21216
11
5.69925
21
-4.21667
0
LINE
8
BLACK
6
CONTINUOUS
10
5.69925
20
-4.21667
11
5.69925
21
-4.21946
0
LINE
8
BLACK
6
CONTINUOUS
10
5.69925
20
-4.21946
11
5.70075
21
-4.22397
0
LINE
8
BLACK
6
CONTINUOUS
10
5.70075
20
-4.22397
11
5.70214
21
-4.22535
0
LINE
8
BLACK
6
CONTINUOUS
10
5.70214
20
-4.22535
11
5.70272
21
-4.22619
0
LINE
8
BLACK
6
CONTINUOUS
10
5.70272
20
-4.22619
11
5.7029
21
-4.2282
0
LINE
8
BLACK
6
CONTINUOUS
10
5.7029
20
-4.2282
11
5.70174
21
-4.22986
0
LINE
8
BLACK
6
CONTINUOUS
10
5.70174
20
-4.22986
11
5.69979
21
-4.23038
0
LINE
8
BLACK
6
CONTINUOUS
10
5.69979
20
-4.23038
11
5.69796
21
-4.22953
0
LINE
8
BLACK
6
CONTINUOUS
10
5.69796
20
-4.22953
11
5.69609
21
-4.22765
0
LINE
8
BLACK
6
CONTINUOUS
10
5.69609
20
-4.22765
11
5.6955
21
-4.22681
0
LINE
8
BLACK
6
CONTINUOUS
10
5.6955
20
-4.22681
11
5.69548
21
-4.22664
0
LINE
8
BLACK
6
CONTINUOUS
10
5.69548
20
-4.22664
11
5.69537
21
-4.2265
0
LINE
8
BLACK
6
CONTINUOUS
10
5.69537
20
-4.2265
11
5.6935
21
-4.22087
0
LINE
8
BLACK
6
CONTINUOUS
10
5.6935
20
-4.22087
11
5.69337
21
-4.22
0
LINE
8
BLACK
6
CONTINUOUS
10
5.69337
20
-4.22
11
5.69335
21
-4.21994
0
LINE
8
BLACK
6
CONTINUOUS
10
5.69335
20
-4.21994
11
5.69335
21
-4.21619
0
LINE
8
BLACK
6
CONTINUOUS
10
5.69335
20
-4.21619
11
5.6935
21
-4.21532
0
LINE
8
BLACK
6
CONTINUOUS
10
5.6935
20
-4.21532
11
5.6935
21
-4.21526
0
LINE
8
BLACK
6
CONTINUOUS
10
5.6935
20
-4.21526
11
5.69537
21
-4.20963
0
LINE
8
BLACK
6
CONTINUOUS
10
5.69537
20
-4.20963
11
5.69586
21
-4.20873
0
LINE
8
BLACK
6
CONTINUOUS
10
5.69586
20
-4.20873
11
5.69601
21
-4.20864
0
LINE
8
BLACK
6
CONTINUOUS
10
5.69601
20
-4.20864
11
5.69609
21
-4.20848
0
LINE
8
BLACK
6
CONTINUOUS
10
5.69609
20
-4.20848
11
5.69983
21
-4.20473
0
LINE
8
BLACK
6
CONTINUOUS
10
5.69983
20
-4.20473
11
5.70056
21
-4.20422
0
LINE
8
BLACK
6
CONTINUOUS
10
5.70056
20
-4.20422
11
5.7006
21
-4.20417
0
LINE
8
BLACK
6
CONTINUOUS
10
5.7006
20
-4.20417
11
5.70435
21
-4.2023
0
LINE
8
BLACK
6
CONTINUOUS
10
5.70435
20
-4.2023
11
5.70484
21
-4.20215
0
LINE
8
BLACK
6
CONTINUOUS
10
5.70484
20
-4.20215
11
5.70496
21
-4.20208
0
LINE
8
BLACK
6
CONTINUOUS
10
5.70496
20
-4.20208
11
5.71246
21
-4.2002
0
LINE
8
BLACK
6
CONTINUOUS
10
5.71246
20
-4.2002
11
5.71304
21
-4.20016
0
LINE
8
BLACK
6
CONTINUOUS
10
5.71304
20
-4.20016
11
5.71317
21
-4.20011
0
LINE
8
BLACK
6
CONTINUOUS
10
5.71317
20
-4.20011
11
5.7188
21
-4.20011
0
LINE
8
BLACK
6
CONTINUOUS
10
5.7188
20
-4.20011
11
5.71938
21
-4.20022
0
LINE
8
BLACK
6
CONTINUOUS
10
5.62243
20
-4.19483
11
5.62297
21
-4.19613
0
LINE
8
BLACK
6
CONTINUOUS
10
5.62297
20
-4.19613
11
5.62297
21
-4.20237
0
LINE
8
BLACK
6
CONTINUOUS
10
5.62297
20
-4.20237
11
5.6231
21
-4.2023
0
LINE
8
BLACK
6
CONTINUOUS
10
5.6231
20
-4.2023
11
5.62359
21
-4.20215
0
LINE
8
BLACK
6
CONTINUOUS
10
5.62359
20
-4.20215
11
5.62371
21
-4.20208
0
LINE
8
BLACK
6
CONTINUOUS
10
5.62371
20
-4.20208
11
5.63121
21
-4.2002
0
LINE
8
BLACK
6
CONTINUOUS
10
5.63121
20
-4.2002
11
5.63179
21
-4.20016
0
LINE
8
BLACK
6
CONTINUOUS
10
5.63179
20
-4.20016
11
5.63192
21
-4.20011
0
LINE
8
BLACK
6
CONTINUOUS
10
5.63192
20
-4.20011
11
5.63755
21
-4.20011
0
LINE
8
BLACK
6
CONTINUOUS
10
5.63755
20
-4.20011
11
5.63813
21
-4.20022
0
LINE
8
BLACK
6
CONTINUOUS
10
5.63813
20
-4.20022
11
5.63826
21
-4.2002
0
LINE
8
BLACK
6
CONTINUOUS
10
5.63826
20
-4.2002
11
5.64576
21
-4.20208
0
LINE
8
BLACK
6
CONTINUOUS
10
5.64576
20
-4.20208
11
5.64623
21
-4.20228
0
LINE
8
BLACK
6
CONTINUOUS
10
5.64623
20
-4.20228
11
5.64637
21
-4.2023
0
LINE
8
BLACK
6
CONTINUOUS
10
5.64637
20
-4.2023
11
5.65011
21
-4.20417
0
LINE
8
BLACK
6
CONTINUOUS
10
5.65011
20
-4.20417
11
5.65082
21
-4.2047
0
LINE
8
BLACK
6
CONTINUOUS
10
5.65082
20
-4.2047
11
5.65088
21
-4.20473
0
LINE
8
BLACK
6
CONTINUOUS
10
5.65088
20
-4.20473
11
5.65463
21
-4.20848
0
LINE
8
BLACK
6
CONTINUOUS
10
5.65463
20
-4.20848
11
5.65522
21
-4.20932
0
LINE
8
BLACK
6
CONTINUOUS
10
5.65522
20
-4.20932
11
5.65524
21
-4.20949
0
LINE
8
BLACK
6
CONTINUOUS
10
5.65524
20
-4.20949
11
5.65534
21
-4.20963
0
LINE
8
BLACK
6
CONTINUOUS
10
5.65534
20
-4.20963
11
5.65722
21
-4.21526
0
LINE
8
BLACK
6
CONTINUOUS
10
5.65722
20
-4.21526
11
5.65735
21
-4.21613
0
LINE
8
BLACK
6
CONTINUOUS
10
5.65735
20
-4.21613
11
5.65737
21
-4.21619
0
LINE
8
BLACK
6
CONTINUOUS
10
5.65737
20
-4.21619
11
5.65737
21
-4.21994
0
LINE
8
BLACK
6
CONTINUOUS
10
5.65737
20
-4.21994
11
5.65722
21
-4.22081
0
LINE
8
BLACK
6
CONTINUOUS
10
5.65722
20
-4.22081
11
5.65722
21
-4.22087
0
LINE
8
BLACK
6
CONTINUOUS
10
5.65722
20
-4.22087
11
5.65534
21
-4.2265
0
LINE
8
BLACK
6
CONTINUOUS
10
5.65534
20
-4.2265
11
5.65486
21
-4.2274
0
LINE
8
BLACK
6
CONTINUOUS
10
5.65486
20
-4.2274
11
5.65471
21
-4.22749
0
LINE
8
BLACK
6
CONTINUOUS
10
5.65471
20
-4.22749
11
5.65463
21
-4.22765
0
LINE
8
BLACK
6
CONTINUOUS
10
5.65463
20
-4.22765
11
5.65276
21
-4.22953
0
LINE
8
BLACK
6
CONTINUOUS
10
5.65276
20
-4.22953
11
5.65192
21
-4.23011
0
LINE
8
BLACK
6
CONTINUOUS
10
5.65192
20
-4.23011
11
5.6499
21
-4.23029
0
LINE
8
BLACK
6
CONTINUOUS
10
5.6499
20
-4.23029
11
5.64825
21
-4.22913
0
LINE
8
BLACK
6
CONTINUOUS
10
5.64825
20
-4.22913
11
5.64773
21
-4.22718
0
LINE
8
BLACK
6
CONTINUOUS
10
5.64773
20
-4.22718
11
5.64858
21
-4.22535
0
LINE
8
BLACK
6
CONTINUOUS
10
5.64858
20
-4.22535
11
5.64996
21
-4.22397
0
LINE
8
BLACK
6
CONTINUOUS
10
5.64996
20
-4.22397
11
5.65147
21
-4.21946
0
LINE
8
BLACK
6
CONTINUOUS
10
5.65147
20
-4.21946
11
5.65147
21
-4.21667
0
LINE
8
BLACK
6
CONTINUOUS
10
5.65147
20
-4.21667
11
5.64996
21
-4.21216
0
LINE
8
BLACK
6
CONTINUOUS
10
5.64996
20
-4.21216
11
5.64705
21
-4.20924
0
LINE
8
BLACK
6
CONTINUOUS
10
5.64705
20
-4.20924
11
5.64401
21
-4.20773
0
LINE
8
BLACK
6
CONTINUOUS
10
5.64401
20
-4.20773
11
5.63718
21
-4.20602
0
LINE
8
BLACK
6
CONTINUOUS
10
5.63718
20
-4.20602
11
5.63228
21
-4.20602
0
LINE
8
BLACK
6
CONTINUOUS
10
5.63228
20
-4.20602
11
5.62545
21
-4.20773
0
LINE
8
BLACK
6
CONTINUOUS
10
5.62545
20
-4.20773
11
5.62297
21
-4.20897
0
LINE
8
BLACK
6
CONTINUOUS
10
5.62297
20
-4.20897
11
5.62297
21
-4.24245
0
LINE
8
BLACK
6
CONTINUOUS
10
5.62297
20
-4.24245
11
5.62243
21
-4.24376
0
LINE
8
BLACK
6
CONTINUOUS
10
5.62243
20
-4.24376
11
5.62113
21
-4.24429
0
LINE
8
BLACK
6
CONTINUOUS
10
5.62113
20
-4.24429
11
5.62102
21
-4.24425
0
LINE
8
BLACK
6
CONTINUOUS
10
5.62102
20
-4.24425
11
5.62089
21
-4.24452
0
LINE
8
BLACK
6
CONTINUOUS
10
5.62089
20
-4.24452
11
5.61935
21
-4.24606
0
LINE
8
BLACK
6
CONTINUOUS
10
5.61935
20
-4.24606
11
5.618
21
-4.24876
0
LINE
8
BLACK
6
CONTINUOUS
10
5.618
20
-4.24876
11
5.618
21
-4.25674
0
LINE
8
BLACK
6
CONTINUOUS
10
5.618
20
-4.25674
11
5.61935
21
-4.25943
0
LINE
8
BLACK
6
CONTINUOUS
10
5.61935
20
-4.25943
11
5.62055
21
-4.26063
0
LINE
8
BLACK
6
CONTINUOUS
10
5.62055
20
-4.26063
11
5.62324
21
-4.26198
0
LINE
8
BLACK
6
CONTINUOUS
10
5.62324
20
-4.26198
11
5.62582
21
-4.26198
0
LINE
8
BLACK
6
CONTINUOUS
10
5.62582
20
-4.26198
11
5.63033
21
-4.26048
0
LINE
8
BLACK
6
CONTINUOUS
10
5.63033
20
-4.26048
11
5.65233
21
-4.23847
0
LINE
8
BLACK
6
CONTINUOUS
10
5.65233
20
-4.23847
11
5.65286
21
-4.2381
0
LINE
8
BLACK
6
CONTINUOUS
10
5.65286
20
-4.2381
11
5.65294
21
-4.238
0
LINE
8
BLACK
6
CONTINUOUS
10
5.65294
20
-4.238
11
5.65302
21
-4.23799
0
LINE
8
BLACK
6
CONTINUOUS
10
5.65302
20
-4.23799
11
5.65317
21
-4.23789
0
LINE
8
BLACK
6
CONTINUOUS
10
5.65317
20
-4.23789
11
5.65406
21
-4.23781
0
LINE
8
BLACK
6
CONTINUOUS
10
5.65406
20
-4.23781
11
5.65493
21
-4.23765
0
LINE
8
BLACK
6
CONTINUOUS
10
5.65493
20
-4.23765
11
5.65505
21
-4.23772
0
LINE
8
BLACK
6
CONTINUOUS
10
5.65505
20
-4.23772
11
5.65518
21
-4.23771
0
LINE
8
BLACK
6
CONTINUOUS
10
5.65518
20
-4.23771
11
5.65591
21
-4.23822
0
LINE
8
BLACK
6
CONTINUOUS
10
5.65591
20
-4.23822
11
5.65668
21
-4.23866
0
LINE
8
BLACK
6
CONTINUOUS
10
5.65668
20
-4.23866
11
5.65673
21
-4.23879
0
LINE
8
BLACK
6
CONTINUOUS
10
5.65673
20
-4.23879
11
5.65684
21
-4.23887
0
LINE
8
BLACK
6
CONTINUOUS
10
5.65684
20
-4.23887
11
5.65707
21
-4.23973
0
LINE
8
BLACK
6
CONTINUOUS
10
5.65707
20
-4.23973
11
5.65737
21
-4.24056
0
LINE
8
BLACK
6
CONTINUOUS
10
5.65737
20
-4.24056
11
5.65737
21
-4.26493
0
LINE
8
BLACK
6
CONTINUOUS
10
5.65737
20
-4.26493
11
5.65719
21
-4.26594
0
LINE
8
BLACK
6
CONTINUOUS
10
5.65719
20
-4.26594
11
5.65589
21
-4.26749
0
LINE
8
BLACK
6
CONTINUOUS
10
5.65589
20
-4.26749
11
5.65391
21
-4.26784
0
LINE
8
BLACK
6
CONTINUOUS
10
5.65391
20
-4.26784
11
5.65216
21
-4.26683
0
LINE
8
BLACK
6
CONTINUOUS
10
5.65216
20
-4.26683
11
5.65147
21
-4.26493
0
LINE
8
BLACK
6
CONTINUOUS
10
5.65147
20
-4.26493
11
5.65147
21
-4.24769
0
LINE
8
BLACK
6
CONTINUOUS
10
5.65147
20
-4.24769
11
5.63401
21
-4.26515
0
LINE
8
BLACK
6
CONTINUOUS
10
5.63401
20
-4.26515
11
5.63317
21
-4.26573
0
LINE
8
BLACK
6
CONTINUOUS
10
5.63317
20
-4.26573
11
5.63299
21
-4.26575
0
LINE
8
BLACK
6
CONTINUOUS
10
5.63299
20
-4.26575
11
5.63286
21
-4.26586
0
LINE
8
BLACK
6
CONTINUOUS
10
5.63286
20
-4.26586
11
5.62723
21
-4.26773
0
LINE
8
BLACK
6
CONTINUOUS
10
5.62723
20
-4.26773
11
5.62636
21
-4.26786
0
LINE
8
BLACK
6
CONTINUOUS
10
5.62636
20
-4.26786
11
5.6263
21
-4.26789
0
LINE
8
BLACK
6
CONTINUOUS
10
5.6263
20
-4.26789
11
5.62255
21
-4.26789
0
LINE
8
BLACK
6
CONTINUOUS
10
5.62255
20
-4.26789
11
5.62154
21
-4.26771
0
LINE
8
BLACK
6
CONTINUOUS
10
5.62154
20
-4.26771
11
5.6214
21
-4.26759
0
LINE
8
BLACK
6
CONTINUOUS
10
5.6214
20
-4.26759
11
5.62123
21
-4.26757
0
LINE
8
BLACK
6
CONTINUOUS
10
5.62123
20
-4.26757
11
5.61748
21
-4.2657
0
LINE
8
BLACK
6
CONTINUOUS
10
5.61748
20
-4.2657
11
5.61677
21
-4.26517
0
LINE
8
BLACK
6
CONTINUOUS
10
5.61677
20
-4.26517
11
5.61671
21
-4.26515
0
LINE
8
BLACK
6
CONTINUOUS
10
5.61671
20
-4.26515
11
5.61484
21
-4.26327
0
LINE
8
BLACK
6
CONTINUOUS
10
5.61484
20
-4.26327
11
5.61433
21
-4.26255
0
LINE
8
BLACK
6
CONTINUOUS
10
5.61433
20
-4.26255
11
5.61428
21
-4.2625
0
LINE
8
BLACK
6
CONTINUOUS
10
5.61428
20
-4.2625
11
5.61241
21
-4.25876
0
LINE
8
BLACK
6
CONTINUOUS
10
5.61241
20
-4.25876
11
5.61212
21
-4.25777
0
LINE
8
BLACK
6
CONTINUOUS
10
5.61212
20
-4.25777
11
5.61216
21
-4.2576
0
LINE
8
BLACK
6
CONTINUOUS
10
5.61216
20
-4.2576
11
5.6121
21
-4.25743
0
LINE
8
BLACK
6
CONTINUOUS
10
5.6121
20
-4.25743
11
5.6121
21
-4.24806
0
LINE
8
BLACK
6
CONTINUOUS
10
5.6121
20
-4.24806
11
5.61227
21
-4.24705
0
LINE
8
BLACK
6
CONTINUOUS
10
5.61227
20
-4.24705
11
5.61239
21
-4.24692
0
LINE
8
BLACK
6
CONTINUOUS
10
5.61239
20
-4.24692
11
5.61241
21
-4.24674
0
LINE
8
BLACK
6
CONTINUOUS
10
5.61241
20
-4.24674
11
5.61428
21
-4.24299
0
LINE
8
BLACK
6
CONTINUOUS
10
5.61428
20
-4.24299
11
5.61481
21
-4.24228
0
LINE
8
BLACK
6
CONTINUOUS
10
5.61481
20
-4.24228
11
5.61484
21
-4.24222
0
LINE
8
BLACK
6
CONTINUOUS
10
5.61484
20
-4.24222
11
5.61671
21
-4.24035
0
LINE
8
BLACK
6
CONTINUOUS
10
5.61671
20
-4.24035
11
5.61755
21
-4.23976
0
LINE
8
BLACK
6
CONTINUOUS
10
5.61755
20
-4.23976
11
5.61929
21
-4.23961
0
LINE
8
BLACK
6
CONTINUOUS
10
5.61929
20
-4.23961
11
5.61929
21
-4.23018
0
LINE
8
BLACK
6
CONTINUOUS
10
5.61929
20
-4.23018
11
5.61854
21
-4.23038
0
LINE
8
BLACK
6
CONTINUOUS
10
5.61854
20
-4.23038
11
5.61671
21
-4.22953
0
LINE
8
BLACK
6
CONTINUOUS
10
5.61671
20
-4.22953
11
5.61484
21
-4.22765
0
LINE
8
BLACK
6
CONTINUOUS
10
5.61484
20
-4.22765
11
5.61425
21
-4.22681
0
LINE
8
BLACK
6
CONTINUOUS
10
5.61425
20
-4.22681
11
5.61423
21
-4.22664
0
LINE
8
BLACK
6
CONTINUOUS
10
5.61423
20
-4.22664
11
5.61412
21
-4.2265
0
LINE
8
BLACK
6
CONTINUOUS
10
5.61412
20
-4.2265
11
5.6127
21
-4.22224
0
LINE
8
BLACK
6
CONTINUOUS
10
5.6127
20
-4.22224
11
5.61106
21
-4.22224
0
LINE
8
BLACK
6
CONTINUOUS
10
5.61106
20
-4.22224
11
5.59617
21
-4.24351
0
LINE
8
BLACK
6
CONTINUOUS
10
5.59617
20
-4.24351
11
5.59498
21
-4.24427
0
LINE
8
BLACK
6
CONTINUOUS
10
5.59498
20
-4.24427
11
5.59361
21
-4.24396
0
LINE
8
BLACK
6
CONTINUOUS
10
5.59361
20
-4.24396
11
5.59285
21
-4.24277
0
LINE
8
BLACK
6
CONTINUOUS
10
5.59285
20
-4.24277
11
5.59316
21
-4.2414
0
LINE
8
BLACK
6
CONTINUOUS
10
5.59316
20
-4.2414
11
5.60657
21
-4.22224
0
LINE
8
BLACK
6
CONTINUOUS
10
5.60657
20
-4.22224
11
5.60349
21
-4.22224
0
LINE
8
BLACK
6
CONTINUOUS
10
5.60349
20
-4.22224
11
5.60309
21
-4.22207
0
LINE
8
BLACK
6
CONTINUOUS
10
5.60309
20
-4.22207
11
5.60266
21
-4.22204
0
LINE
8
BLACK
6
CONTINUOUS
10
5.60266
20
-4.22204
11
5.59825
21
-4.21984
0
LINE
8
BLACK
6
CONTINUOUS
10
5.59825
20
-4.21984
11
5.59805
21
-4.21961
0
LINE
8
BLACK
6
CONTINUOUS
10
5.59805
20
-4.21961
11
5.59777
21
-4.21949
0
LINE
8
BLACK
6
CONTINUOUS
10
5.59777
20
-4.21949
11
5.59557
21
-4.21729
0
LINE
8
BLACK
6
CONTINUOUS
10
5.59557
20
-4.21729
11
5.59545
21
-4.21701
0
LINE
8
BLACK
6
CONTINUOUS
10
5.59545
20
-4.21701
11
5.59522
21
-4.21681
0
LINE
8
BLACK
6
CONTINUOUS
10
5.59522
20
-4.21681
11
5.59302
21
-4.2124
0
LINE
8
BLACK
6
CONTINUOUS
10
5.59302
20
-4.2124
11
5.59299
21
-4.21197
0
LINE
8
BLACK
6
CONTINUOUS
10
5.59299
20
-4.21197
11
5.59282
21
-4.21157
0
LINE
8
BLACK
6
CONTINUOUS
10
5.59282
20
-4.21157
11
5.59282
21
-4.20496
0
LINE
8
BLACK
6
CONTINUOUS
10
5.59282
20
-4.20496
11
5.59299
21
-4.20456
0
LINE
8
BLACK
6
CONTINUOUS
10
5.59299
20
-4.20456
11
5.59302
21
-4.20413
0
LINE
8
BLACK
6
CONTINUOUS
10
5.59302
20
-4.20413
11
5.59522
21
-4.19972
0
LINE
8
BLACK
6
CONTINUOUS
10
5.59522
20
-4.19972
11
5.59545
21
-4.19952
0
LINE
8
BLACK
6
CONTINUOUS
10
5.59545
20
-4.19952
11
5.59557
21
-4.19924
0
LINE
8
BLACK
6
CONTINUOUS
10
5.59557
20
-4.19924
11
5.59777
21
-4.19704
0
LINE
8
BLACK
6
CONTINUOUS
10
5.59777
20
-4.19704
11
5.59805
21
-4.19692
0
LINE
8
BLACK
6
CONTINUOUS
10
5.59805
20
-4.19692
11
5.59825
21
-4.19669
0
LINE
8
BLACK
6
CONTINUOUS
10
5.59825
20
-4.19669
11
5.60266
21
-4.19449
0
LINE
8
BLACK
6
CONTINUOUS
10
5.60266
20
-4.19449
11
5.60309
21
-4.19446
0
LINE
8
BLACK
6
CONTINUOUS
10
5.60309
20
-4.19446
11
5.60349
21
-4.19429
0
LINE
8
BLACK
6
CONTINUOUS
10
5.60349
20
-4.19429
11
5.62113
21
-4.19429
0
LINE
8
BLACK
6
CONTINUOUS
10
5.62113
20
-4.19429
11
5.62243
21
-4.19483
0
LINE
8
BLACK
6
CONTINUOUS
10
5.61893
20
-4.22224
11
5.61929
21
-4.22333
0
LINE
8
BLACK
6
CONTINUOUS
10
5.61929
20
-4.22333
11
5.61929
21
-4.22224
0
LINE
8
BLACK
6
CONTINUOUS
10
5.61929
20
-4.22224
11
5.61893
21
-4.22224
0
LINE
8
BLACK
6
CONTINUOUS
10
5.60392
20
-4.19797
11
5.60016
21
-4.19985
0
LINE
8
BLACK
6
CONTINUOUS
10
5.60016
20
-4.19985
11
5.59838
21
-4.20164
0
LINE
8
BLACK
6
CONTINUOUS
10
5.59838
20
-4.20164
11
5.5965
21
-4.20539
0
LINE
8
BLACK
6
CONTINUOUS
10
5.5965
20
-4.20539
11
5.5965
21
-4.21114
0
LINE
8
BLACK
6
CONTINUOUS
10
5.5965
20
-4.21114
11
5.59838
21
-4.2149
0
LINE
8
BLACK
6
CONTINUOUS
10
5.59838
20
-4.2149
11
5.60016
21
-4.21668
0
LINE
8
BLACK
6
CONTINUOUS
10
5.60016
20
-4.21668
11
5.60392
21
-4.21856
0
LINE
8
BLACK
6
CONTINUOUS
10
5.60392
20
-4.21856
11
5.6121
21
-4.21856
0
LINE
8
BLACK
6
CONTINUOUS
10
5.6121
20
-4.21856
11
5.6121
21
-4.21619
0
LINE
8
BLACK
6
CONTINUOUS
10
5.6121
20
-4.21619
11
5.61225
21
-4.21532
0
LINE
8
BLACK
6
CONTINUOUS
10
5.61225
20
-4.21532
11
5.61225
21
-4.21526
0
LINE
8
BLACK
6
CONTINUOUS
10
5.61225
20
-4.21526
11
5.61412
21
-4.20963
0
LINE
8
BLACK
6
CONTINUOUS
10
5.61412
20
-4.20963
11
5.61461
21
-4.20873
0
LINE
8
BLACK
6
CONTINUOUS
10
5.61461
20
-4.20873
11
5.61476
21
-4.20864
0
LINE
8
BLACK
6
CONTINUOUS
10
5.61476
20
-4.20864
11
5.61484
21
-4.20848
0
LINE
8
BLACK
6
CONTINUOUS
10
5.61484
20
-4.20848
11
5.61858
21
-4.20473
0
LINE
8
BLACK
6
CONTINUOUS
10
5.61858
20
-4.20473
11
5.61929
21
-4.20423
0
LINE
8
BLACK
6
CONTINUOUS
10
5.61929
20
-4.20423
11
5.61929
21
-4.19797
0
LINE
8
BLACK
6
CONTINUOUS
10
5.61929
20
-4.19797
11
5.60392
21
-4.19797
0
LINE
8
BLACK
6
CONTINUOUS
10
5.618
20
-4.21667
11
5.618
21
-4.21856
0
LINE
8
BLACK
6
CONTINUOUS
10
5.618
20
-4.21856
11
5.61929
21
-4.21856
0
LINE
8
BLACK
6
CONTINUOUS
10
5.61929
20
-4.21856
11
5.61929
21
-4.2128
0
LINE
8
BLACK
6
CONTINUOUS
10
5.61929
20
-4.2128
11
5.618
21
-4.21667
0
LINE
8
BLACK
6
CONTINUOUS
10
5.75673
20
-4.22204
11
5.75743
21
-4.22371
0
LINE
8
BLACK
6
CONTINUOUS
10
5.75743
20
-4.22371
11
5.75743
21
-4.24429
0
LINE
8
BLACK
6
CONTINUOUS
10
5.75743
20
-4.24429
11
5.75673
21
-4.24596
0
LINE
8
BLACK
6
CONTINUOUS
10
5.75673
20
-4.24596
11
5.75506
21
-4.24665
0
LINE
8
BLACK
6
CONTINUOUS
10
5.75506
20
-4.24665
11
5.75339
21
-4.24596
0
LINE
8
BLACK
6
CONTINUOUS
10
5.75339
20
-4.24596
11
5.7527
21
-4.24429
0
LINE
8
BLACK
6
CONTINUOUS
10
5.7527
20
-4.24429
11
5.7527
21
-4.22371
0
LINE
8
BLACK
6
CONTINUOUS
10
5.7527
20
-4.22371
11
5.75339
21
-4.22204
0
LINE
8
BLACK
6
CONTINUOUS
10
5.75339
20
-4.22204
11
5.75506
21
-4.22135
0
LINE
8
BLACK
6
CONTINUOUS
10
5.75506
20
-4.22135
11
5.75673
21
-4.22204
0
LINE
8
BLACK
6
CONTINUOUS
10
5.81461
20
-4.22204
11
5.8153
21
-4.22371
0
LINE
8
BLACK
6
CONTINUOUS
10
5.8153
20
-4.22371
11
5.8153
21
-4.24429
0
LINE
8
BLACK
6
CONTINUOUS
10
5.8153
20
-4.24429
11
5.81461
21
-4.24596
0
LINE
8
BLACK
6
CONTINUOUS
10
5.81461
20
-4.24596
11
5.81294
21
-4.24665
0
LINE
8
BLACK
6
CONTINUOUS
10
5.81294
20
-4.24665
11
5.81127
21
-4.24596
0
LINE
8
BLACK
6
CONTINUOUS
10
5.81127
20
-4.24596
11
5.81057
21
-4.24429
0
LINE
8
BLACK
6
CONTINUOUS
10
5.81057
20
-4.24429
11
5.81057
21
-4.22371
0
LINE
8
BLACK
6
CONTINUOUS
10
5.81057
20
-4.22371
11
5.81127
21
-4.22204
0
LINE
8
BLACK
6
CONTINUOUS
10
5.81127
20
-4.22204
11
5.81294
21
-4.22135
0
LINE
8
BLACK
6
CONTINUOUS
10
5.81294
20
-4.22135
11
5.81461
21
-4.22204
0
LINE
8
BLACK
6
CONTINUOUS
10
5.67548
20
-4.22204
11
5.67618
21
-4.22371
0
LINE
8
BLACK
6
CONTINUOUS
10
5.67618
20
-4.22371
11
5.67618
21
-4.24429
0
LINE
8
BLACK
6
CONTINUOUS
10
5.67618
20
-4.24429
11
5.67548
21
-4.24596
0
LINE
8
BLACK
6
CONTINUOUS
10
5.67548
20
-4.24596
11
5.67381
21
-4.24665
0
LINE
8
BLACK
6
CONTINUOUS
10
5.67381
20
-4.24665
11
5.67214
21
-4.24596
0
LINE
8
BLACK
6
CONTINUOUS
10
5.67214
20
-4.24596
11
5.67145
21
-4.24429
0
LINE
8
BLACK
6
CONTINUOUS
10
5.67145
20
-4.24429
11
5.67145
21
-4.22371
0
LINE
8
BLACK
6
CONTINUOUS
10
5.67145
20
-4.22371
11
5.67214
21
-4.22204
0
LINE
8
BLACK
6
CONTINUOUS
10
5.67214
20
-4.22204
11
5.67381
21
-4.22135
0
LINE
8
BLACK
6
CONTINUOUS
10
5.67381
20
-4.22135
11
5.67548
21
-4.22204
0
LINE
8
BLACK
6
CONTINUOUS
10
5.89099
20
-4.23951
11
5.89026
21
-4.23774
0
LINE
8
BLACK
6
CONTINUOUS
10
5.89026
20
-4.23774
11
5.89026
21
-4.08026
0
LINE
8
BLACK
6
CONTINUOUS
10
5.89026
20
-4.08026
11
5.89099
21
-4.07849
0
LINE
8
BLACK
6
CONTINUOUS
10
5.89099
20
-4.07849
11
5.89276
21
-4.07776
0
LINE
8
BLACK
6
CONTINUOUS
10
5.89276
20
-4.07776
11
6.05024
21
-4.07776
0
LINE
8
BLACK
6
CONTINUOUS
10
6.05024
20
-4.07776
11
6.05201
21
-4.07849
0
LINE
8
BLACK
6
CONTINUOUS
10
6.05201
20
-4.07849
11
6.05274
21
-4.08026
0
LINE
8
BLACK
6
CONTINUOUS
10
6.05274
20
-4.08026
11
6.05274
21
-4.23774
0
LINE
8
BLACK
6
CONTINUOUS
10
6.05274
20
-4.23774
11
6.05201
21
-4.23951
0
LINE
8
BLACK
6
CONTINUOUS
10
6.05201
20
-4.23951
11
6.05024
21
-4.24024
0
LINE
8
BLACK
6
CONTINUOUS
10
6.05024
20
-4.24024
11
5.89276
21
-4.24024
0
LINE
8
BLACK
6
CONTINUOUS
10
5.89276
20
-4.24024
11
5.89099
21
-4.23951
0
LINE
8
BLACK
6
CONTINUOUS
10
5.89526
20
-4.08276
11
5.89526
21
-4.23524
0
LINE
8
BLACK
6
CONTINUOUS
10
5.89526
20
-4.23524
11
6.04774
21
-4.23524
0
LINE
8
BLACK
6
CONTINUOUS
10
6.04774
20
-4.23524
11
6.04774
21
-4.08276
0
LINE
8
BLACK
6
CONTINUOUS
10
6.04774
20
-4.08276
11
5.89526
21
-4.08276
0
LINE
8
BLACK
6
CONTINUOUS
10
5.92222
20
-4.16049
11
5.92168
21
-4.15919
0
LINE
8
BLACK
6
CONTINUOUS
10
5.92168
20
-4.15919
11
5.92222
21
-4.15789
0
LINE
8
BLACK
6
CONTINUOUS
10
5.92222
20
-4.15789
11
5.92352
21
-4.15735
0
LINE
8
BLACK
6
CONTINUOUS
10
5.92352
20
-4.15735
11
5.93492
21
-4.15735
0
LINE
8
BLACK
6
CONTINUOUS
10
5.93492
20
-4.15735
11
5.93492
21
-4.11287
0
LINE
8
BLACK
6
CONTINUOUS
10
5.93492
20
-4.11287
11
5.93499
21
-4.11269
0
LINE
8
BLACK
6
CONTINUOUS
10
5.93499
20
-4.11269
11
5.93495
21
-4.11251
0
LINE
8
BLACK
6
CONTINUOUS
10
5.93495
20
-4.11251
11
5.93525
21
-4.11206
0
LINE
8
BLACK
6
CONTINUOUS
10
5.93525
20
-4.11206
11
5.93546
21
-4.11157
0
LINE
8
BLACK
6
CONTINUOUS
10
5.93546
20
-4.11157
11
5.93563
21
-4.11149
0
LINE
8
BLACK
6
CONTINUOUS
10
5.93563
20
-4.11149
11
5.93574
21
-4.11134
0
LINE
8
BLACK
6
CONTINUOUS
10
5.93574
20
-4.11134
11
5.93626
21
-4.11123
0
LINE
8
BLACK
6
CONTINUOUS
10
5.93626
20
-4.11123
11
5.93676
21
-4.11103
0
LINE
8
BLACK
6
CONTINUOUS
10
5.93676
20
-4.11103
11
5.93693
21
-4.1111
0
LINE
8
BLACK
6
CONTINUOUS
10
5.93693
20
-4.1111
11
5.93712
21
-4.11106
0
LINE
8
BLACK
6
CONTINUOUS
10
5.93712
20
-4.11106
11
5.93756
21
-4.11136
0
LINE
8
BLACK
6
CONTINUOUS
10
5.93756
20
-4.11136
11
5.93806
21
-4.11157
0
LINE
8
BLACK
6
CONTINUOUS
10
5.93806
20
-4.11157
11
5.93813
21
-4.11174
0
LINE
8
BLACK
6
CONTINUOUS
10
5.93813
20
-4.11174
11
5.93829
21
-4.11185
0
LINE
8
BLACK
6
CONTINUOUS
10
5.93829
20
-4.11185
11
5.9426
21
-4.11831
0
LINE
8
BLACK
6
CONTINUOUS
10
5.9426
20
-4.11831
11
5.94667
21
-4.12238
0
LINE
8
BLACK
6
CONTINUOUS
10
5.94667
20
-4.12238
11
5.95081
21
-4.12446
0
LINE
8
BLACK
6
CONTINUOUS
10
5.95081
20
-4.12446
11
5.95174
21
-4.12552
0
LINE
8
BLACK
6
CONTINUOUS
10
5.95174
20
-4.12552
11
5.95164
21
-4.12692
0
LINE
8
BLACK
6
CONTINUOUS
10
5.95164
20
-4.12692
11
5.95057
21
-4.12785
0
LINE
8
BLACK
6
CONTINUOUS
10
5.95057
20
-4.12785
11
5.94917
21
-4.12775
0
LINE
8
BLACK
6
CONTINUOUS
10
5.94917
20
-4.12775
11
5.94476
21
-4.12554
0
LINE
8
BLACK
6
CONTINUOUS
10
5.94476
20
-4.12554
11
5.94456
21
-4.12531
0
LINE
8
BLACK
6
CONTINUOUS
10
5.94456
20
-4.12531
11
5.94428
21
-4.1252
0
LINE
8
BLACK
6
CONTINUOUS
10
5.94428
20
-4.1252
11
5.93987
21
-4.12078
0
LINE
8
BLACK
6
CONTINUOUS
10
5.93987
20
-4.12078
11
5.93979
21
-4.12061
0
LINE
8
BLACK
6
CONTINUOUS
10
5.93979
20
-4.12061
11
5.93964
21
-4.1205
0
LINE
8
BLACK
6
CONTINUOUS
10
5.93964
20
-4.1205
11
5.9386
21
-4.11894
0
LINE
8
BLACK
6
CONTINUOUS
10
5.9386
20
-4.11894
11
5.9386
21
-4.15735
0
LINE
8
BLACK
6
CONTINUOUS
10
5.9386
20
-4.15735
11
5.94999
21
-4.15735
0
LINE
8
BLACK
6
CONTINUOUS
10
5.94999
20
-4.15735
11
5.95129
21
-4.15789
0
LINE
8
BLACK
6
CONTINUOUS
10
5.95129
20
-4.15789
11
5.95183
21
-4.15919
0
LINE
8
BLACK
6
CONTINUOUS
10
5.95183
20
-4.15919
11
5.95129
21
-4.16049
0
LINE
8
BLACK
6
CONTINUOUS
10
5.95129
20
-4.16049
11
5.94999
21
-4.16103
0
LINE
8
BLACK
6
CONTINUOUS
10
5.94999
20
-4.16103
11
5.92352
21
-4.16103
0
LINE
8
BLACK
6
CONTINUOUS
10
5.92352
20
-4.16103
11
5.92222
21
-4.16049
0
LINE
8
BLACK
6
CONTINUOUS
10
5.99733
20
-4.11134
11
5.99811
21
-4.11251
0
LINE
8
BLACK
6
CONTINUOUS
10
5.99811
20
-4.11251
11
5.99784
21
-4.11389
0
LINE
8
BLACK
6
CONTINUOUS
10
5.99784
20
-4.11389
11
5.98308
21
-4.13603
0
LINE
8
BLACK
6
CONTINUOUS
10
5.98308
20
-4.13603
11
5.99784
21
-4.15817
0
LINE
8
BLACK
6
CONTINUOUS
10
5.99784
20
-4.15817
11
5.99811
21
-4.15955
0
LINE
8
BLACK
6
CONTINUOUS
10
5.99811
20
-4.15955
11
5.99733
21
-4.16072
0
LINE
8
BLACK
6
CONTINUOUS
10
5.99733
20
-4.16072
11
5.99595
21
-4.16099
0
LINE
8
BLACK
6
CONTINUOUS
10
5.99595
20
-4.16099
11
5.99478
21
-4.16021
0
LINE
8
BLACK
6
CONTINUOUS
10
5.99478
20
-4.16021
11
5.98087
21
-4.13934
0
LINE
8
BLACK
6
CONTINUOUS
10
5.98087
20
-4.13934
11
5.96696
21
-4.16021
0
LINE
8
BLACK
6
CONTINUOUS
10
5.96696
20
-4.16021
11
5.96579
21
-4.16099
0
LINE
8
BLACK
6
CONTINUOUS
10
5.96579
20
-4.16099
11
5.96441
21
-4.16072
0
LINE
8
BLACK
6
CONTINUOUS
10
5.96441
20
-4.16072
11
5.96363
21
-4.15955
0
LINE
8
BLACK
6
CONTINUOUS
10
5.96363
20
-4.15955
11
5.9639
21
-4.15817
0
LINE
8
BLACK
6
CONTINUOUS
10
5.9639
20
-4.15817
11
5.97866
21
-4.13603
0
LINE
8
BLACK
6
CONTINUOUS
10
5.97866
20
-4.13603
11
5.9639
21
-4.11389
0
LINE
8
BLACK
6
CONTINUOUS
10
5.9639
20
-4.11389
11
5.96363
21
-4.11251
0
LINE
8
BLACK
6
CONTINUOUS
10
5.96363
20
-4.11251
11
5.96441
21
-4.11134
0
LINE
8
BLACK
6
CONTINUOUS
10
5.96441
20
-4.11134
11
5.96579
21
-4.11106
0
LINE
8
BLACK
6
CONTINUOUS
10
5.96579
20
-4.11106
11
5.96696
21
-4.11185
0
LINE
8
BLACK
6
CONTINUOUS
10
5.96696
20
-4.11185
11
5.98087
21
-4.13271
0
LINE
8
BLACK
6
CONTINUOUS
10
5.98087
20
-4.13271
11
5.99478
21
-4.11185
0
LINE
8
BLACK
6
CONTINUOUS
10
5.99478
20
-4.11185
11
5.99595
21
-4.11106
0
LINE
8
BLACK
6
CONTINUOUS
10
5.99595
20
-4.11106
11
5.99733
21
-4.11134
0
LINE
8
BLACK
6
CONTINUOUS
10
6.02473
20
-4.21223
11
6.02784
21
-4.21016
0
LINE
8
BLACK
6
CONTINUOUS
10
6.02784
20
-4.21016
11
6.0315
21
-4.20943
0
LINE
8
BLACK
6
CONTINUOUS
10
6.0315
20
-4.20943
11
6.03516
21
-4.21016
0
LINE
8
BLACK
6
CONTINUOUS
10
6.03516
20
-4.21016
11
6.03827
21
-4.21223
0
LINE
8
BLACK
6
CONTINUOUS
10
6.03827
20
-4.21223
11
6.04034
21
-4.21534
0
LINE
8
BLACK
6
CONTINUOUS
10
6.04034
20
-4.21534
11
6.04107
21
-4.219
0
LINE
8
BLACK
6
CONTINUOUS
10
6.04107
20
-4.219
11
6.04034
21
-4.22266
0
LINE
8
BLACK
6
CONTINUOUS
10
6.04034
20
-4.22266
11
6.03827
21
-4.22577
0
LINE
8
BLACK
6
CONTINUOUS
10
6.03827
20
-4.22577
11
6.03516
21
-4.22784
0
LINE
8
BLACK
6
CONTINUOUS
10
6.03516
20
-4.22784
11
6.0315
21
-4.22857
0
LINE
8
BLACK
6
CONTINUOUS
10
6.0315
20
-4.22857
11
6.02784
21
-4.22784
0
LINE
8
BLACK
6
CONTINUOUS
10
6.02784
20
-4.22784
11
6.02473
21
-4.22577
0
LINE
8
BLACK
6
CONTINUOUS
10
6.02473
20
-4.22577
11
6.02266
21
-4.22266
0
LINE
8
BLACK
6
CONTINUOUS
10
6.02266
20
-4.22266
11
6.02193
21
-4.219
0
LINE
8
BLACK
6
CONTINUOUS
10
6.02193
20
-4.219
11
6.02266
21
-4.21534
0
LINE
8
BLACK
6
CONTINUOUS
10
6.02266
20
-4.21534
11
6.02473
21
-4.21223
0
LINE
8
BLACK
6
CONTINUOUS
10
6.02913
20
-4.2231
11
6.0315
21
-4.22373
0
LINE
8
BLACK
6
CONTINUOUS
10
6.0315
20
-4.22373
11
6.03387
21
-4.2231
0
LINE
8
BLACK
6
CONTINUOUS
10
6.03387
20
-4.2231
11
6.0356
21
-4.22137
0
LINE
8
BLACK
6
CONTINUOUS
10
6.0356
20
-4.22137
11
6.03623
21
-4.219
0
LINE
8
BLACK
6
CONTINUOUS
10
6.03623
20
-4.219
11
6.0356
21
-4.21663
0
LINE
8
BLACK
6
CONTINUOUS
10
6.0356
20
-4.21663
11
6.03387
21
-4.2149
0
LINE
8
BLACK
6
CONTINUOUS
10
6.03387
20
-4.2149
11
6.0315
21
-4.21427
0
LINE
8
BLACK
6
CONTINUOUS
10
6.0315
20
-4.21427
11
6.02913
21
-4.2149
0
LINE
8
BLACK
6
CONTINUOUS
10
6.02913
20
-4.2149
11
6.0274
21
-4.21663
0
LINE
8
BLACK
6
CONTINUOUS
10
6.0274
20
-4.21663
11
6.02677
21
-4.219
0
LINE
8
BLACK
6
CONTINUOUS
10
6.02677
20
-4.219
11
6.0274
21
-4.22137
0
LINE
8
BLACK
6
CONTINUOUS
10
6.0274
20
-4.22137
11
6.02913
21
-4.2231
0
LINE
8
BLACK
6
CONTINUOUS
10
5.31632
20
-4.17051
11
5.31602
21
-4.17053
0
LINE
8
BLACK
6
CONTINUOUS
10
5.31602
20
-4.17053
11
5.3094
21
-4.16832
0
LINE
8
BLACK
6
CONTINUOUS
10
5.3094
20
-4.16832
11
5.30908
21
-4.16804
0
LINE
8
BLACK
6
CONTINUOUS
10
5.30908
20
-4.16804
11
5.30868
21
-4.16788
0
LINE
8
BLACK
6
CONTINUOUS
10
5.30868
20
-4.16788
11
5.30427
21
-4.16347
0
LINE
8
BLACK
6
CONTINUOUS
10
5.30427
20
-4.16347
11
5.30415
21
-4.16319
0
LINE
8
BLACK
6
CONTINUOUS
10
5.30415
20
-4.16319
11
5.30392
21
-4.16299
0
LINE
8
BLACK
6
CONTINUOUS
10
5.30392
20
-4.16299
11
5.30172
21
-4.15858
0
LINE
8
BLACK
6
CONTINUOUS
10
5.30172
20
-4.15858
11
5.3017
21
-4.15837
0
LINE
8
BLACK
6
CONTINUOUS
10
5.3017
20
-4.15837
11
5.30158
21
-4.1582
0
LINE
8
BLACK
6
CONTINUOUS
10
5.30158
20
-4.1582
11
5.29937
21
-4.14938
0
LINE
8
BLACK
6
CONTINUOUS
10
5.29937
20
-4.14938
11
5.29941
21
-4.14915
0
LINE
8
BLACK
6
CONTINUOUS
10
5.29941
20
-4.14915
11
5.29932
21
-4.14893
0
LINE
8
BLACK
6
CONTINUOUS
10
5.29932
20
-4.14893
11
5.29932
21
-4.14231
0
LINE
8
BLACK
6
CONTINUOUS
10
5.29932
20
-4.14231
11
5.29941
21
-4.1421
0
LINE
8
BLACK
6
CONTINUOUS
10
5.29941
20
-4.1421
11
5.29937
21
-4.14187
0
LINE
8
BLACK
6
CONTINUOUS
10
5.29937
20
-4.14187
11
5.30158
21
-4.13305
0
LINE
8
BLACK
6
CONTINUOUS
10
5.30158
20
-4.13305
11
5.3017
21
-4.13288
0
LINE
8
BLACK
6
CONTINUOUS
10
5.3017
20
-4.13288
11
5.30172
21
-4.13267
0
LINE
8
BLACK
6
CONTINUOUS
10
5.30172
20
-4.13267
11
5.30392
21
-4.12826
0
LINE
8
BLACK
6
CONTINUOUS
10
5.30392
20
-4.12826
11
5.30415
21
-4.12806
0
LINE
8
BLACK
6
CONTINUOUS
10
5.30415
20
-4.12806
11
5.30427
21
-4.12778
0
LINE
8
BLACK
6
CONTINUOUS
10
5.30427
20
-4.12778
11
5.30868
21
-4.12337
0
LINE
8
BLACK
6
CONTINUOUS
10
5.30868
20
-4.12337
11
5.30908
21
-4.1232
0
LINE
8
BLACK
6
CONTINUOUS
10
5.30908
20
-4.1232
11
5.3094
21
-4.12292
0
LINE
8
BLACK
6
CONTINUOUS
10
5.3094
20
-4.12292
11
5.31602
21
-4.12072
0
LINE
8
BLACK
6
CONTINUOUS
10
5.31602
20
-4.12072
11
5.31632
21
-4.12074
0
LINE
8
BLACK
6
CONTINUOUS
10
5.31632
20
-4.12074
11
5.3166
21
-4.12062
0
LINE
8
BLACK
6
CONTINUOUS
10
5.3166
20
-4.12062
11
5.32763
21
-4.12062
0
LINE
8
BLACK
6
CONTINUOUS
10
5.32763
20
-4.12062
11
5.32893
21
-4.12116
0
LINE
8
BLACK
6
CONTINUOUS
10
5.32893
20
-4.12116
11
5.32947
21
-4.12246
0
LINE
8
BLACK
6
CONTINUOUS
10
5.32947
20
-4.12246
11
5.32947
21
-4.16878
0
LINE
8
BLACK
6
CONTINUOUS
10
5.32947
20
-4.16878
11
5.32893
21
-4.17008
0
LINE
8
BLACK
6
CONTINUOUS
10
5.32893
20
-4.17008
11
5.32763
21
-4.17062
0
LINE
8
BLACK
6
CONTINUOUS
10
5.32763
20
-4.17062
11
5.3166
21
-4.17062
0
LINE
8
BLACK
6
CONTINUOUS
10
5.3166
20
-4.17062
11
5.31632
21
-4.17051
0
LINE
8
BLACK
6
CONTINUOUS
10
5.3169
20
-4.1243
11
5.31098
21
-4.12628
0
LINE
8
BLACK
6
CONTINUOUS
10
5.31098
20
-4.12628
11
5.30708
21
-4.13017
0
LINE
8
BLACK
6
CONTINUOUS
10
5.30708
20
-4.13017
11
5.3051
21
-4.13413
0
LINE
8
BLACK
6
CONTINUOUS
10
5.3051
20
-4.13413
11
5.303
21
-4.14254
0
LINE
8
BLACK
6
CONTINUOUS
10
5.303
20
-4.14254
11
5.303
21
-4.1487
0
LINE
8
BLACK
6
CONTINUOUS
10
5.303
20
-4.1487
11
5.3051
21
-4.15711
0
LINE
8
BLACK
6
CONTINUOUS
10
5.3051
20
-4.15711
11
5.30708
21
-4.16108
0
LINE
8
BLACK
6
CONTINUOUS
10
5.30708
20
-4.16108
11
5.31098
21
-4.16497
0
LINE
8
BLACK
6
CONTINUOUS
10
5.31098
20
-4.16497
11
5.3169
21
-4.16694
0
LINE
8
BLACK
6
CONTINUOUS
10
5.3169
20
-4.16694
11
5.32579
21
-4.16694
0
LINE
8
BLACK
6
CONTINUOUS
10
5.32579
20
-4.16694
11
5.32579
21
-4.1243
0
LINE
8
BLACK
6
CONTINUOUS
10
5.32579
20
-4.1243
11
5.3169
21
-4.1243
0
LINE
8
BLACK
6
CONTINUOUS
10
5.25574
20
-4.17008
11
5.2552
21
-4.16878
0
LINE
8
BLACK
6
CONTINUOUS
10
5.2552
20
-4.16878
11
5.25574
21
-4.16748
0
LINE
8
BLACK
6
CONTINUOUS
10
5.25574
20
-4.16748
11
5.25704
21
-4.16694
0
LINE
8
BLACK
6
CONTINUOUS
10
5.25704
20
-4.16694
11
5.28128
21
-4.16694
0
LINE
8
BLACK
6
CONTINUOUS
10
5.28128
20
-4.16694
11
5.25795
21
-4.14362
0
LINE
8
BLACK
6
CONTINUOUS
10
5.25795
20
-4.14362
11
5.25779
21
-4.14322
0
LINE
8
BLACK
6
CONTINUOUS
10
5.25779
20
-4.14322
11
5.2575
21
-4.1429
0
LINE
8
BLACK
6
CONTINUOUS
10
5.2575
20
-4.1429
11
5.2553
21
-4.13628
0
LINE
8
BLACK
6
CONTINUOUS
10
5.2553
20
-4.13628
11
5.25532
21
-4.13598
0
LINE
8
BLACK
6
CONTINUOUS
10
5.25532
20
-4.13598
11
5.2552
21
-4.1357
0
LINE
8
BLACK
6
CONTINUOUS
10
5.2552
20
-4.1357
11
5.2552
21
-4.13129
0
LINE
8
BLACK
6
CONTINUOUS
10
5.2552
20
-4.13129
11
5.25537
21
-4.13089
0
LINE
8
BLACK
6
CONTINUOUS
10
5.25537
20
-4.13089
11
5.2554
21
-4.13046
0
LINE
8
BLACK
6
CONTINUOUS
10
5.2554
20
-4.13046
11
5.2576
21
-4.12605
0
LINE
8
BLACK
6
CONTINUOUS
10
5.2576
20
-4.12605
11
5.25783
21
-4.12585
0
LINE
8
BLACK
6
CONTINUOUS
10
5.25783
20
-4.12585
11
5.25795
21
-4.12557
0
LINE
8
BLACK
6
CONTINUOUS
10
5.25795
20
-4.12557
11
5.26016
21
-4.12337
0
LINE
8
BLACK
6
CONTINUOUS
10
5.26016
20
-4.12337
11
5.26043
21
-4.12325
0
LINE
8
BLACK
6
CONTINUOUS
10
5.26043
20
-4.12325
11
5.26063
21
-4.12302
0
LINE
8
BLACK
6
CONTINUOUS
10
5.26063
20
-4.12302
11
5.26504
21
-4.12082
0
LINE
8
BLACK
6
CONTINUOUS
10
5.26504
20
-4.12082
11
5.26547
21
-4.12079
0
LINE
8
BLACK
6
CONTINUOUS
10
5.26547
20
-4.12079
11
5.26587
21
-4.12062
0
LINE
8
BLACK
6
CONTINUOUS
10
5.26587
20
-4.12062
11
5.2769
21
-4.12062
0
LINE
8
BLACK
6
CONTINUOUS
10
5.2769
20
-4.12062
11
5.27729
21
-4.12079
0
LINE
8
BLACK
6
CONTINUOUS
10
5.27729
20
-4.12079
11
5.27772
21
-4.12082
0
LINE
8
BLACK
6
CONTINUOUS
10
5.27772
20
-4.12082
11
5.28213
21
-4.12302
0
LINE
8
BLACK
6
CONTINUOUS
10
5.28213
20
-4.12302
11
5.28233
21
-4.12325
0
LINE
8
BLACK
6
CONTINUOUS
10
5.28233
20
-4.12325
11
5.28261
21
-4.12337
0
LINE
8
BLACK
6
CONTINUOUS
10
5.28261
20
-4.12337
11
5.28481
21
-4.12557
0
LINE
8
BLACK
6
CONTINUOUS
10
5.28481
20
-4.12557
11
5.28535
21
-4.12687
0
LINE
8
BLACK
6
CONTINUOUS
10
5.28535
20
-4.12687
11
5.28481
21
-4.12818
0
LINE
8
BLACK
6
CONTINUOUS
10
5.28481
20
-4.12818
11
5.28351
21
-4.12871
0
LINE
8
BLACK
6
CONTINUOUS
10
5.28351
20
-4.12871
11
5.28221
21
-4.12818
0
LINE
8
BLACK
6
CONTINUOUS
10
5.28221
20
-4.12818
11
5.28022
21
-4.12618
0
LINE
8
BLACK
6
CONTINUOUS
10
5.28022
20
-4.12618
11
5.27646
21
-4.1243
0
LINE
8
BLACK
6
CONTINUOUS
10
5.27646
20
-4.1243
11
5.2663
21
-4.1243
0
LINE
8
BLACK
6
CONTINUOUS
10
5.2663
20
-4.1243
11
5.26255
21
-4.12618
0
LINE
8
BLACK
6
CONTINUOUS
10
5.26255
20
-4.12618
11
5.26076
21
-4.12796
0
LINE
8
BLACK
6
CONTINUOUS
10
5.26076
20
-4.12796
11
5.25888
21
-4.13172
0
LINE
8
BLACK
6
CONTINUOUS
10
5.25888
20
-4.13172
11
5.25888
21
-4.1354
0
LINE
8
BLACK
6
CONTINUOUS
10
5.25888
20
-4.1354
11
5.26086
21
-4.14132
0
LINE
8
BLACK
6
CONTINUOUS
10
5.26086
20
-4.14132
11
5.28702
21
-4.16748
0
LINE
8
BLACK
6
CONTINUOUS
10
5.28702
20
-4.16748
11
5.28756
21
-4.16878
0
LINE
8
BLACK
6
CONTINUOUS
10
5.28756
20
-4.16878
11
5.28702
21
-4.17008
0
LINE
8
BLACK
6
CONTINUOUS
10
5.28702
20
-4.17008
11
5.28572
21
-4.17062
0
LINE
8
BLACK
6
CONTINUOUS
10
5.28572
20
-4.17062
11
5.25704
21
-4.17062
0
LINE
8
BLACK
6
CONTINUOUS
10
5.25704
20
-4.17062
11
5.25574
21
-4.17008
0
LINE
8
BLACK
6
CONTINUOUS
10
5.35674
20
-4.16018
11
5.35601
21
-4.15841
0
LINE
8
BLACK
6
CONTINUOUS
10
5.35601
20
-4.15841
11
5.35601
21
-4.09542
0
LINE
8
BLACK
6
CONTINUOUS
10
5.35601
20
-4.09542
11
5.35674
21
-4.09365
0
LINE
8
BLACK
6
CONTINUOUS
10
5.35674
20
-4.09365
11
5.35851
21
-4.09292
0
LINE
8
BLACK
6
CONTINUOUS
10
5.35851
20
-4.09292
11
5.48449
21
-4.09292
0
LINE
8
BLACK
6
CONTINUOUS
10
5.48449
20
-4.09292
11
5.48626
21
-4.09365
0
LINE
8
BLACK
6
CONTINUOUS
10
5.48626
20
-4.09365
11
5.48699
21
-4.09542
0
LINE
8
BLACK
6
CONTINUOUS
10
5.48699
20
-4.09542
11
5.48699
21
-4.15841
0
LINE
8
BLACK
6
CONTINUOUS
10
5.48699
20
-4.15841
11
5.48626
21
-4.16018
0
LINE
8
BLACK
6
CONTINUOUS
10
5.48626
20
-4.16018
11
5.48449
21
-4.16091
0
LINE
8
BLACK
6
CONTINUOUS
10
5.48449
20
-4.16091
11
5.35851
21
-4.16091
0
LINE
8
BLACK
6
CONTINUOUS
10
5.35851
20
-4.16091
11
5.35674
21
-4.16018
0
LINE
8
BLACK
6
CONTINUOUS
10
5.36101
20
-4.09792
11
5.36101
21
-4.15591
0
LINE
8
BLACK
6
CONTINUOUS
10
5.36101
20
-4.15591
11
5.48199
21
-4.15591
0
LINE
8
BLACK
6
CONTINUOUS
10
5.48199
20
-4.15591
11
5.48199
21
-4.09792
0
LINE
8
BLACK
6
CONTINUOUS
10
5.48199
20
-4.09792
11
5.36101
21
-4.09792
0
LINE
8
BLACK
6
CONTINUOUS
10
5.4339
20
-4.10585
11
5.43463
21
-4.10762
0
LINE
8
BLACK
6
CONTINUOUS
10
5.43463
20
-4.10762
11
5.43463
21
-4.14699
0
LINE
8
BLACK
6
CONTINUOUS
10
5.43463
20
-4.14699
11
5.4339
21
-4.14876
0
LINE
8
BLACK
6
CONTINUOUS
10
5.4339
20
-4.14876
11
5.43213
21
-4.14949
0
LINE
8
BLACK
6
CONTINUOUS
10
5.43213
20
-4.14949
11
5.43036
21
-4.14876
0
LINE
8
BLACK
6
CONTINUOUS
10
5.43036
20
-4.14876
11
5.41219
21
-4.13059
0
LINE
8
BLACK
6
CONTINUOUS
10
5.41219
20
-4.13059
11
5.41219
21
-4.14699
0
LINE
8
BLACK
6
CONTINUOUS
10
5.41219
20
-4.14699
11
5.41146
21
-4.14876
0
LINE
8
BLACK
6
CONTINUOUS
10
5.41146
20
-4.14876
11
5.40969
21
-4.14949
0
LINE
8
BLACK
6
CONTINUOUS
10
5.40969
20
-4.14949
11
5.40792
21
-4.14876
0
LINE
8
BLACK
6
CONTINUOUS
10
5.40792
20
-4.14876
11
5.40719
21
-4.14699
0
LINE
8
BLACK
6
CONTINUOUS
10
5.40719
20
-4.14699
11
5.40719
21
-4.10762
0
LINE
8
BLACK
6
CONTINUOUS
10
5.40719
20
-4.10762
11
5.40792
21
-4.10585
0
LINE
8
BLACK
6
CONTINUOUS
10
5.40792
20
-4.10585
11
5.40969
21
-4.10512
0
LINE
8
BLACK
6
CONTINUOUS
10
5.40969
20
-4.10512
11
5.41146
21
-4.10585
0
LINE
8
BLACK
6
CONTINUOUS
10
5.41146
20
-4.10585
11
5.41219
21
-4.10762
0
LINE
8
BLACK
6
CONTINUOUS
10
5.41219
20
-4.10762
11
5.41219
21
-4.12403
0
LINE
8
BLACK
6
CONTINUOUS
10
5.41219
20
-4.12403
11
5.43036
21
-4.10585
0
LINE
8
BLACK
6
CONTINUOUS
10
5.43036
20
-4.10585
11
5.43213
21
-4.10512
0
LINE
8
BLACK
6
CONTINUOUS
10
5.43213
20
-4.10512
11
5.4339
21
-4.10585
0
LINE
8
BLACK
6
CONTINUOUS
10
5.41598
20
-4.12731
11
5.42963
21
-4.14096
0
LINE
8
BLACK
6
CONTINUOUS
10
5.42963
20
-4.14096
11
5.42963
21
-4.11366
0
LINE
8
BLACK
6
CONTINUOUS
10
5.42963
20
-4.11366
11
5.41598
21
-4.12731
0
LINE
8
BLACK
6
CONTINUOUS
10
5.88309
20
-3.98343
11
5.8853
21
-3.98564
0
LINE
8
BLACK
6
CONTINUOUS
10
5.8853
20
-3.98564
11
5.88542
21
-3.98592
0
LINE
8
BLACK
6
CONTINUOUS
10
5.88542
20
-3.98592
11
5.88564
21
-3.98612
0
LINE
8
BLACK
6
CONTINUOUS
10
5.88564
20
-3.98612
11
5.88785
21
-3.99053
0
LINE
8
BLACK
6
CONTINUOUS
10
5.88785
20
-3.99053
11
5.88788
21
-3.99095
0
LINE
8
BLACK
6
CONTINUOUS
10
5.88788
20
-3.99095
11
5.88804
21
-3.99135
0
LINE
8
BLACK
6
CONTINUOUS
10
5.88804
20
-3.99135
11
5.88804
21
-4.00238
0
LINE
8
BLACK
6
CONTINUOUS
10
5.88804
20
-4.00238
11
5.88788
21
-4.00277
0
LINE
8
BLACK
6
CONTINUOUS
10
5.88788
20
-4.00277
11
5.88785
21
-4.0032
0
LINE
8
BLACK
6
CONTINUOUS
10
5.88785
20
-4.0032
11
5.88564
21
-4.00761
0
LINE
8
BLACK
6
CONTINUOUS
10
5.88564
20
-4.00761
11
5.88542
21
-4.00781
0
LINE
8
BLACK
6
CONTINUOUS
10
5.88542
20
-4.00781
11
5.8853
21
-4.00809
0
LINE
8
BLACK
6
CONTINUOUS
10
5.8853
20
-4.00809
11
5.88309
21
-4.0103
0
LINE
8
BLACK
6
CONTINUOUS
10
5.88309
20
-4.0103
11
5.88281
21
-4.01041
0
LINE
8
BLACK
6
CONTINUOUS
10
5.88281
20
-4.01041
11
5.88262
21
-4.01064
0
LINE
8
BLACK
6
CONTINUOUS
10
5.88262
20
-4.01064
11
5.8782
21
-4.01285
0
LINE
8
BLACK
6
CONTINUOUS
10
5.8782
20
-4.01285
11
5.87778
21
-4.01288
0
LINE
8
BLACK
6
CONTINUOUS
10
5.87778
20
-4.01288
11
5.87738
21
-4.01304
0
LINE
8
BLACK
6
CONTINUOUS
10
5.87738
20
-4.01304
11
5.86635
21
-4.01304
0
LINE
8
BLACK
6
CONTINUOUS
10
5.86635
20
-4.01304
11
5.86596
21
-4.01288
0
LINE
8
BLACK
6
CONTINUOUS
10
5.86596
20
-4.01288
11
5.86553
21
-4.01285
0
LINE
8
BLACK
6
CONTINUOUS
10
5.86553
20
-4.01285
11
5.86112
21
-4.01064
0
LINE
8
BLACK
6
CONTINUOUS
10
5.86112
20
-4.01064
11
5.86092
21
-4.01041
0
LINE
8
BLACK
6
CONTINUOUS
10
5.86092
20
-4.01041
11
5.86064
21
-4.0103
0
LINE
8
BLACK
6
CONTINUOUS
10
5.86064
20
-4.0103
11
5.85843
21
-4.00809
0
LINE
8
BLACK
6
CONTINUOUS
10
5.85843
20
-4.00809
11
5.85832
21
-4.00781
0
LINE
8
BLACK
6
CONTINUOUS
10
5.85832
20
-4.00781
11
5.85809
21
-4.00761
0
LINE
8
BLACK
6
CONTINUOUS
10
5.85809
20
-4.00761
11
5.85588
21
-4.0032
0
LINE
8
BLACK
6
CONTINUOUS
10
5.85588
20
-4.0032
11
5.85585
21
-4.00277
0
LINE
8
BLACK
6
CONTINUOUS
10
5.85585
20
-4.00277
11
5.85569
21
-4.00238
0
LINE
8
BLACK
6
CONTINUOUS
10
5.85569
20
-4.00238
11
5.85569
21
-3.99135
0
LINE
8
BLACK
6
CONTINUOUS
10
5.85569
20
-3.99135
11
5.85585
21
-3.99095
0
LINE
8
BLACK
6
CONTINUOUS
10
5.85585
20
-3.99095
11
5.85588
21
-3.99053
0
LINE
8
BLACK
6
CONTINUOUS
10
5.85588
20
-3.99053
11
5.85764
21
-3.98701
0
LINE
8
BLACK
6
CONTINUOUS
10
5.85764
20
-3.98701
11
5.84172
21
-3.9886
0
LINE
8
BLACK
6
CONTINUOUS
10
5.84172
20
-3.9886
11
5.84172
21
-4.009
0
LINE
8
BLACK
6
CONTINUOUS
10
5.84172
20
-4.009
11
5.84119
21
-4.0103
0
LINE
8
BLACK
6
CONTINUOUS
10
5.84119
20
-4.0103
11
5.83988
21
-4.01084
0
LINE
8
BLACK
6
CONTINUOUS
10
5.83988
20
-4.01084
11
5.83858
21
-4.0103
0
LINE
8
BLACK
6
CONTINUOUS
10
5.83858
20
-4.0103
11
5.83804
21
-4.009
0
LINE
8
BLACK
6
CONTINUOUS
10
5.83804
20
-4.009
11
5.83804
21
-3.98694
0
LINE
8
BLACK
6
CONTINUOUS
10
5.83804
20
-3.98694
11
5.83828
21
-3.98637
0
LINE
8
BLACK
6
CONTINUOUS
10
5.83828
20
-3.98637
11
5.83846
21
-3.98577
0
LINE
8
BLACK
6
CONTINUOUS
10
5.83846
20
-3.98577
11
5.83855
21
-3.98573
0
LINE
8
BLACK
6
CONTINUOUS
10
5.83855
20
-3.98573
11
5.83858
21
-3.98564
0
LINE
8
BLACK
6
CONTINUOUS
10
5.83858
20
-3.98564
11
5.83916
21
-3.9854
0
LINE
8
BLACK
6
CONTINUOUS
10
5.83916
20
-3.9854
11
5.8397
21
-3.98511
0
LINE
8
BLACK
6
CONTINUOUS
10
5.8397
20
-3.98511
11
5.86176
21
-3.9829
0
LINE
8
BLACK
6
CONTINUOUS
10
5.86176
20
-3.9829
11
5.86185
21
-3.98293
0
LINE
8
BLACK
6
CONTINUOUS
10
5.86185
20
-3.98293
11
5.86194
21
-3.98289
0
LINE
8
BLACK
6
CONTINUOUS
10
5.86194
20
-3.98289
11
5.86251
21
-3.98313
0
LINE
8
BLACK
6
CONTINUOUS
10
5.86251
20
-3.98313
11
5.86311
21
-3.98331
0
LINE
8
BLACK
6
CONTINUOUS
10
5.86311
20
-3.98331
11
5.86315
21
-3.98339
0
LINE
8
BLACK
6
CONTINUOUS
10
5.86315
20
-3.98339
11
5.86324
21
-3.98343
0
LINE
8
BLACK
6
CONTINUOUS
10
5.86324
20
-3.98343
11
5.86348
21
-3.984
0
LINE
8
BLACK
6
CONTINUOUS
10
5.86348
20
-3.984
11
5.86377
21
-3.98455
0
LINE
8
BLACK
6
CONTINUOUS
10
5.86377
20
-3.98455
11
5.86374
21
-3.98464
0
LINE
8
BLACK
6
CONTINUOUS
10
5.86374
20
-3.98464
11
5.86378
21
-3.98473
0
LINE
8
BLACK
6
CONTINUOUS
10
5.86378
20
-3.98473
11
5.86354
21
-3.9853
0
LINE
8
BLACK
6
CONTINUOUS
10
5.86354
20
-3.9853
11
5.86337
21
-3.9859
0
LINE
8
BLACK
6
CONTINUOUS
10
5.86337
20
-3.9859
11
5.86328
21
-3.98594
0
LINE
8
BLACK
6
CONTINUOUS
10
5.86328
20
-3.98594
11
5.86324
21
-3.98603
0
LINE
8
BLACK
6
CONTINUOUS
10
5.86324
20
-3.98603
11
5.86125
21
-3.98803
0
LINE
8
BLACK
6
CONTINUOUS
10
5.86125
20
-3.98803
11
5.85937
21
-3.99178
0
LINE
8
BLACK
6
CONTINUOUS
10
5.85937
20
-3.99178
11
5.85937
21
-4.00194
0
LINE
8
BLACK
6
CONTINUOUS
10
5.85937
20
-4.00194
11
5.86125
21
-4.0057
0
LINE
8
BLACK
6
CONTINUOUS
10
5.86125
20
-4.0057
11
5.86303
21
-4.00748
0
LINE
8
BLACK
6
CONTINUOUS
10
5.86303
20
-4.00748
11
5.86679
21
-4.00936
0
LINE
8
BLACK
6
CONTINUOUS
10
5.86679
20
-4.00936
11
5.87695
21
-4.00936
0
LINE
8
BLACK
6
CONTINUOUS
10
5.87695
20
-4.00936
11
5.8807
21
-4.00748
0
LINE
8
BLACK
6
CONTINUOUS
10
5.8807
20
-4.00748
11
5.88249
21
-4.0057
0
LINE
8
BLACK
6
CONTINUOUS
10
5.88249
20
-4.0057
11
5.88436
21
-4.00194
0
LINE
8
BLACK
6
CONTINUOUS
10
5.88436
20
-4.00194
11
5.88436
21
-3.99178
0
LINE
8
BLACK
6
CONTINUOUS
10
5.88436
20
-3.99178
11
5.88249
21
-3.98803
0
LINE
8
BLACK
6
CONTINUOUS
10
5.88249
20
-3.98803
11
5.88049
21
-3.98603
0
LINE
8
BLACK
6
CONTINUOUS
10
5.88049
20
-3.98603
11
5.87995
21
-3.98473
0
LINE
8
BLACK
6
CONTINUOUS
10
5.87995
20
-3.98473
11
5.88049
21
-3.98343
0
LINE
8
BLACK
6
CONTINUOUS
10
5.88049
20
-3.98343
11
5.88179
21
-3.98289
0
LINE
8
BLACK
6
CONTINUOUS
10
5.88179
20
-3.98289
11
5.88309
21
-3.98343
0
LINE
8
BLACK
6
CONTINUOUS
10
6.07387
20
-3.95207
11
6.07409
21
-3.95203
0
LINE
8
BLACK
6
CONTINUOUS
10
6.07409
20
-3.95203
11
6.07479
21
-3.95243
0
LINE
8
BLACK
6
CONTINUOUS
10
6.07479
20
-3.95243
11
6.07554
21
-3.95273
0
LINE
8
BLACK
6
CONTINUOUS
10
6.07554
20
-3.95273
11
6.07565
21
-3.95293
0
LINE
8
BLACK
6
CONTINUOUS
10
6.07565
20
-3.95293
11
6.07584
21
-3.95304
0
LINE
8
BLACK
6
CONTINUOUS
10
6.07584
20
-3.95304
11
6.07612
21
-3.9538
0
LINE
8
BLACK
6
CONTINUOUS
10
6.07612
20
-3.9538
11
6.0765
21
-3.9545
0
LINE
8
BLACK
6
CONTINUOUS
10
6.0765
20
-3.9545
11
6.07645
21
-3.95472
0
LINE
8
BLACK
6
CONTINUOUS
10
6.07645
20
-3.95472
11
6.07653
21
-3.95494
0
LINE
8
BLACK
6
CONTINUOUS
10
6.07653
20
-3.95494
11
6.07653
21
-3.97073
0
LINE
8
BLACK
6
CONTINUOUS
10
6.07653
20
-3.97073
11
6.0867
21
-3.97073
0
LINE
8
BLACK
6
CONTINUOUS
10
6.0867
20
-3.97073
11
6.08771
21
-3.97091
0
LINE
8
BLACK
6
CONTINUOUS
10
6.08771
20
-3.97091
11
6.08926
21
-3.97221
0
LINE
8
BLACK
6
CONTINUOUS
10
6.08926
20
-3.97221
11
6.08961
21
-3.9742
0
LINE
8
BLACK
6
CONTINUOUS
10
6.08961
20
-3.9742
11
6.0886
21
-3.97595
0
LINE
8
BLACK
6
CONTINUOUS
10
6.0886
20
-3.97595
11
6.0867
21
-3.97664
0
LINE
8
BLACK
6
CONTINUOUS
10
6.0867
20
-3.97664
11
6.07653
21
-3.97664
0
LINE
8
BLACK
6
CONTINUOUS
10
6.07653
20
-3.97664
11
6.07653
21
-3.97931
0
LINE
8
BLACK
6
CONTINUOUS
10
6.07653
20
-3.97931
11
6.07635
21
-3.98032
0
LINE
8
BLACK
6
CONTINUOUS
10
6.07635
20
-3.98032
11
6.07505
21
-3.98187
0
LINE
8
BLACK
6
CONTINUOUS
10
6.07505
20
-3.98187
11
6.07307
21
-3.98222
0
LINE
8
BLACK
6
CONTINUOUS
10
6.07307
20
-3.98222
11
6.07132
21
-3.98121
0
LINE
8
BLACK
6
CONTINUOUS
10
6.07132
20
-3.98121
11
6.07063
21
-3.97931
0
LINE
8
BLACK
6
CONTINUOUS
10
6.07063
20
-3.97931
11
6.07063
21
-3.97664
0
LINE
8
BLACK
6
CONTINUOUS
10
6.07063
20
-3.97664
11
6.06046
21
-3.97664
0
LINE
8
BLACK
6
CONTINUOUS
10
6.06046
20
-3.97664
11
6.05945
21
-3.97646
0
LINE
8
BLACK
6
CONTINUOUS
10
6.05945
20
-3.97646
11
6.0579
21
-3.97516
0
LINE
8
BLACK
6
CONTINUOUS
10
6.0579
20
-3.97516
11
6.05755
21
-3.97317
0
LINE
8
BLACK
6
CONTINUOUS
10
6.05755
20
-3.97317
11
6.05856
21
-3.97142
0
LINE
8
BLACK
6
CONTINUOUS
10
6.05856
20
-3.97142
11
6.06046
21
-3.97073
0
LINE
8
BLACK
6
CONTINUOUS
10
6.06046
20
-3.97073
11
6.07063
21
-3.97073
0
LINE
8
BLACK
6
CONTINUOUS
10
6.07063
20
-3.97073
11
6.07063
21
-3.95903
0
LINE
8
BLACK
6
CONTINUOUS
10
6.07063
20
-3.95903
11
6.04639
21
-3.96711
0
LINE
8
BLACK
6
CONTINUOUS
10
6.04639
20
-3.96711
11
6.04538
21
-3.96726
0
LINE
8
BLACK
6
CONTINUOUS
10
6.04538
20
-3.96726
11
6.0435
21
-3.96652
0
LINE
8
BLACK
6
CONTINUOUS
10
6.0435
20
-3.96652
11
6.04254
21
-3.96474
0
LINE
8
BLACK
6
CONTINUOUS
10
6.04254
20
-3.96474
11
6.04294
21
-3.96276
0
LINE
8
BLACK
6
CONTINUOUS
10
6.04294
20
-3.96276
11
6.04452
21
-3.96151
0
LINE
8
BLACK
6
CONTINUOUS
10
6.04452
20
-3.96151
11
6.07264
21
-3.95214
0
LINE
8
BLACK
6
CONTINUOUS
10
6.07264
20
-3.95214
11
6.07366
21
-3.95198
0
LINE
8
BLACK
6
CONTINUOUS
10
6.07366
20
-3.95198
11
6.07387
21
-3.95207
0
LINE
8
BLACK
6
CONTINUOUS
10
5.88751
20
-3.93932
11
5.88804
21
-3.94062
0
LINE
8
BLACK
6
CONTINUOUS
10
5.88804
20
-3.94062
11
5.88751
21
-3.94192
0
LINE
8
BLACK
6
CONTINUOUS
10
5.88751
20
-3.94192
11
5.8862
21
-3.94246
0
LINE
8
BLACK
6
CONTINUOUS
10
5.8862
20
-3.94246
11
5.86599
21
-3.94246
0
LINE
8
BLACK
6
CONTINUOUS
10
5.86599
20
-3.94246
11
5.86599
21
-3.95069
0
LINE
8
BLACK
6
CONTINUOUS
10
5.86599
20
-3.95069
11
5.88726
21
-3.96558
0
LINE
8
BLACK
6
CONTINUOUS
10
5.88726
20
-3.96558
11
5.88802
21
-3.96677
0
LINE
8
BLACK
6
CONTINUOUS
10
5.88802
20
-3.96677
11
5.88771
21
-3.96814
0
LINE
8
BLACK
6
CONTINUOUS
10
5.88771
20
-3.96814
11
5.88652
21
-3.9689
0
LINE
8
BLACK
6
CONTINUOUS
10
5.88652
20
-3.9689
11
5.88515
21
-3.96859
0
LINE
8
BLACK
6
CONTINUOUS
10
5.88515
20
-3.96859
11
5.86599
21
-3.95518
0
LINE
8
BLACK
6
CONTINUOUS
10
5.86599
20
-3.95518
11
5.86599
21
-3.95826
0
LINE
8
BLACK
6
CONTINUOUS
10
5.86599
20
-3.95826
11
5.86582
21
-3.95866
0
LINE
8
BLACK
6
CONTINUOUS
10
5.86582
20
-3.95866
11
5.86579
21
-3.95909
0
LINE
8
BLACK
6
CONTINUOUS
10
5.86579
20
-3.95909
11
5.86359
21
-3.9635
0
LINE
8
BLACK
6
CONTINUOUS
10
5.86359
20
-3.9635
11
5.86336
21
-3.9637
0
LINE
8
BLACK
6
CONTINUOUS
10
5.86336
20
-3.9637
11
5.86324
21
-3.96398
0
LINE
8
BLACK
6
CONTINUOUS
10
5.86324
20
-3.96398
11
5.86104
21
-3.96618
0
LINE
8
BLACK
6
CONTINUOUS
10
5.86104
20
-3.96618
11
5.86076
21
-3.9663
0
LINE
8
BLACK
6
CONTINUOUS
10
5.86076
20
-3.9663
11
5.86056
21
-3.96653
0
LINE
8
BLACK
6
CONTINUOUS
10
5.86056
20
-3.96653
11
5.85615
21
-3.96873
0
LINE
8
BLACK
6
CONTINUOUS
10
5.85615
20
-3.96873
11
5.85572
21
-3.96876
0
LINE
8
BLACK
6
CONTINUOUS
10
5.85572
20
-3.96876
11
5.85532
21
-3.96893
0
LINE
8
BLACK
6
CONTINUOUS
10
5.85532
20
-3.96893
11
5.84871
21
-3.96893
0
LINE
8
BLACK
6
CONTINUOUS
10
5.84871
20
-3.96893
11
5.84831
21
-3.96876
0
LINE
8
BLACK
6
CONTINUOUS
10
5.84831
20
-3.96876
11
5.84788
21
-3.96873
0
LINE
8
BLACK
6
CONTINUOUS
10
5.84788
20
-3.96873
11
5.84347
21
-3.96653
0
LINE
8
BLACK
6
CONTINUOUS
10
5.84347
20
-3.96653
11
5.84327
21
-3.9663
0
LINE
8
BLACK
6
CONTINUOUS
10
5.84327
20
-3.9663
11
5.84299
21
-3.96618
0
LINE
8
BLACK
6
CONTINUOUS
10
5.84299
20
-3.96618
11
5.84079
21
-3.96398
0
LINE
8
BLACK
6
CONTINUOUS
10
5.84079
20
-3.96398
11
5.84067
21
-3.9637
0
LINE
8
BLACK
6
CONTINUOUS
10
5.84067
20
-3.9637
11
5.84044
21
-3.9635
0
LINE
8
BLACK
6
CONTINUOUS
10
5.84044
20
-3.9635
11
5.83824
21
-3.95909
0
LINE
8
BLACK
6
CONTINUOUS
10
5.83824
20
-3.95909
11
5.83821
21
-3.95866
0
LINE
8
BLACK
6
CONTINUOUS
10
5.83821
20
-3.95866
11
5.83804
21
-3.95826
0
LINE
8
BLACK
6
CONTINUOUS
10
5.83804
20
-3.95826
11
5.83804
21
-3.94062
0
LINE
8
BLACK
6
CONTINUOUS
10
5.83804
20
-3.94062
11
5.83858
21
-3.93932
0
LINE
8
BLACK
6
CONTINUOUS
10
5.83858
20
-3.93932
11
5.83988
21
-3.93878
0
LINE
8
BLACK
6
CONTINUOUS
10
5.83988
20
-3.93878
11
5.8862
21
-3.93878
0
LINE
8
BLACK
6
CONTINUOUS
10
5.8862
20
-3.93878
11
5.88751
21
-3.93932
0
LINE
8
BLACK
6
CONTINUOUS
10
5.84172
20
-3.94246
11
5.84172
21
-3.95783
0
LINE
8
BLACK
6
CONTINUOUS
10
5.84172
20
-3.95783
11
5.8436
21
-3.96159
0
LINE
8
BLACK
6
CONTINUOUS
10
5.8436
20
-3.96159
11
5.84539
21
-3.96337
0
LINE
8
BLACK
6
CONTINUOUS
10
5.84539
20
-3.96337
11
5.84914
21
-3.96525
0
LINE
8
BLACK
6
CONTINUOUS
10
5.84914
20
-3.96525
11
5.85489
21
-3.96525
0
LINE
8
BLACK
6
CONTINUOUS
10
5.85489
20
-3.96525
11
5.85865
21
-3.96337
0
LINE
8
BLACK
6
CONTINUOUS
10
5.85865
20
-3.96337
11
5.86043
21
-3.96159
0
LINE
8
BLACK
6
CONTINUOUS
10
5.86043
20
-3.96159
11
5.86231
21
-3.95783
0
LINE
8
BLACK
6
CONTINUOUS
10
5.86231
20
-3.95783
11
5.86231
21
-3.94246
0
LINE
8
BLACK
6
CONTINUOUS
10
5.86231
20
-3.94246
11
5.84172
21
-3.94246
0
LINE
8
BLACK
6
CONTINUOUS
10
6.03336
20
-3.93454
11
6.03405
21
-3.93621
0
LINE
8
BLACK
6
CONTINUOUS
10
6.03405
20
-3.93621
11
6.03405
21
-3.95679
0
LINE
8
BLACK
6
CONTINUOUS
10
6.03405
20
-3.95679
11
6.03336
21
-3.95846
0
LINE
8
BLACK
6
CONTINUOUS
10
6.03336
20
-3.95846
11
6.03169
21
-3.95915
0
LINE
8
BLACK
6
CONTINUOUS
10
6.03169
20
-3.95915
11
6.03002
21
-3.95846
0
LINE
8
BLACK
6
CONTINUOUS
10
6.03002
20
-3.95846
11
6.02932
21
-3.95679
0
LINE
8
BLACK
6
CONTINUOUS
10
6.02932
20
-3.95679
11
6.02932
21
-3.93621
0
LINE
8
BLACK
6
CONTINUOUS
10
6.02932
20
-3.93621
11
6.03002
21
-3.93454
0
LINE
8
BLACK
6
CONTINUOUS
10
6.03002
20
-3.93454
11
6.03169
21
-3.93385
0
LINE
8
BLACK
6
CONTINUOUS
10
6.03169
20
-3.93385
11
6.03336
21
-3.93454
0
LINE
8
BLACK
6
CONTINUOUS
10
5.97548
20
-3.93454
11
5.97618
21
-3.93621
0
LINE
8
BLACK
6
CONTINUOUS
10
5.97618
20
-3.93621
11
5.97618
21
-3.95679
0
LINE
8
BLACK
6
CONTINUOUS
10
5.97618
20
-3.95679
11
5.97548
21
-3.95846
0
LINE
8
BLACK
6
CONTINUOUS
10
5.97548
20
-3.95846
11
5.97381
21
-3.95915
0
LINE
8
BLACK
6
CONTINUOUS
10
5.97381
20
-3.95915
11
5.97214
21
-3.95846
0
LINE
8
BLACK
6
CONTINUOUS
10
5.97214
20
-3.95846
11
5.97145
21
-3.95679
0
LINE
8
BLACK
6
CONTINUOUS
10
5.97145
20
-3.95679
11
5.97145
21
-3.93621
0
LINE
8
BLACK
6
CONTINUOUS
10
5.97145
20
-3.93621
11
5.97214
21
-3.93454
0
LINE
8
BLACK
6
CONTINUOUS
10
5.97214
20
-3.93454
11
5.97381
21
-3.93385
0
LINE
8
BLACK
6
CONTINUOUS
10
5.97381
20
-3.93385
11
5.97548
21
-3.93454
0
LINE
8
BLACK
6
CONTINUOUS
10
6.07041
20
-3.91272
11
6.07055
21
-3.9127
0
LINE
8
BLACK
6
CONTINUOUS
10
6.07055
20
-3.9127
11
6.07804
21
-3.91458
0
LINE
8
BLACK
6
CONTINUOUS
10
6.07804
20
-3.91458
11
6.07851
21
-3.91478
0
LINE
8
BLACK
6
CONTINUOUS
10
6.07851
20
-3.91478
11
6.07865
21
-3.9148
0
LINE
8
BLACK
6
CONTINUOUS
10
6.07865
20
-3.9148
11
6.0824
21
-3.91667
0
LINE
8
BLACK
6
CONTINUOUS
10
6.0824
20
-3.91667
11
6.08311
21
-3.9172
0
LINE
8
BLACK
6
CONTINUOUS
10
6.08311
20
-3.9172
11
6.08317
21
-3.91723
0
LINE
8
BLACK
6
CONTINUOUS
10
6.08317
20
-3.91723
11
6.08692
21
-3.92098
0
LINE
8
BLACK
6
CONTINUOUS
10
6.08692
20
-3.92098
11
6.0875
21
-3.92182
0
LINE
8
BLACK
6
CONTINUOUS
10
6.0875
20
-3.92182
11
6.08752
21
-3.92199
0
LINE
8
BLACK
6
CONTINUOUS
10
6.08752
20
-3.92199
11
6.08763
21
-3.92213
0
LINE
8
BLACK
6
CONTINUOUS
10
6.08763
20
-3.92213
11
6.0895
21
-3.92776
0
LINE
8
BLACK
6
CONTINUOUS
10
6.0895
20
-3.92776
11
6.08963
21
-3.92863
0
LINE
8
BLACK
6
CONTINUOUS
10
6.08963
20
-3.92863
11
6.08965
21
-3.92869
0
LINE
8
BLACK
6
CONTINUOUS
10
6.08965
20
-3.92869
11
6.08965
21
-3.93244
0
LINE
8
BLACK
6
CONTINUOUS
10
6.08965
20
-3.93244
11
6.0895
21
-3.93331
0
LINE
8
BLACK
6
CONTINUOUS
10
6.0895
20
-3.93331
11
6.0895
21
-3.93337
0
LINE
8
BLACK
6
CONTINUOUS
10
6.0895
20
-3.93337
11
6.08763
21
-3.939
0
LINE
8
BLACK
6
CONTINUOUS
10
6.08763
20
-3.939
11
6.08714
21
-3.9399
0
LINE
8
BLACK
6
CONTINUOUS
10
6.08714
20
-3.9399
11
6.08699
21
-3.93999
0
LINE
8
BLACK
6
CONTINUOUS
10
6.08699
20
-3.93999
11
6.08692
21
-3.94015
0
LINE
8
BLACK
6
CONTINUOUS
10
6.08692
20
-3.94015
11
6.08504
21
-3.94203
0
LINE
8
BLACK
6
CONTINUOUS
10
6.08504
20
-3.94203
11
6.0842
21
-3.94261
0
LINE
8
BLACK
6
CONTINUOUS
10
6.0842
20
-3.94261
11
6.08219
21
-3.94279
0
LINE
8
BLACK
6
CONTINUOUS
10
6.08219
20
-3.94279
11
6.08053
21
-3.94163
0
LINE
8
BLACK
6
CONTINUOUS
10
6.08053
20
-3.94163
11
6.08001
21
-3.93968
0
LINE
8
BLACK
6
CONTINUOUS
10
6.08001
20
-3.93968
11
6.08086
21
-3.93785
0
LINE
8
BLACK
6
CONTINUOUS
10
6.08086
20
-3.93785
11
6.08225
21
-3.93647
0
LINE
8
BLACK
6
CONTINUOUS
10
6.08225
20
-3.93647
11
6.08375
21
-3.93196
0
LINE
8
BLACK
6
CONTINUOUS
10
6.08375
20
-3.93196
11
6.08375
21
-3.92917
0
LINE
8
BLACK
6
CONTINUOUS
10
6.08375
20
-3.92917
11
6.08225
21
-3.92466
0
LINE
8
BLACK
6
CONTINUOUS
10
6.08225
20
-3.92466
11
6.07933
21
-3.92174
0
LINE
8
BLACK
6
CONTINUOUS
10
6.07933
20
-3.92174
11
6.0763
21
-3.92023
0
LINE
8
BLACK
6
CONTINUOUS
10
6.0763
20
-3.92023
11
6.06947
21
-3.91852
0
LINE
8
BLACK
6
CONTINUOUS
10
6.06947
20
-3.91852
11
6.06457
21
-3.91852
0
LINE
8
BLACK
6
CONTINUOUS
10
6.06457
20
-3.91852
11
6.05774
21
-3.92023
0
LINE
8
BLACK
6
CONTINUOUS
10
6.05774
20
-3.92023
11
6.05471
21
-3.92174
0
LINE
8
BLACK
6
CONTINUOUS
10
6.05471
20
-3.92174
11
6.05179
21
-3.92466
0
LINE
8
BLACK
6
CONTINUOUS
10
6.05179
20
-3.92466
11
6.05028
21
-3.92917
0
LINE
8
BLACK
6
CONTINUOUS
10
6.05028
20
-3.92917
11
6.05028
21
-3.93196
0
LINE
8
BLACK
6
CONTINUOUS
10
6.05028
20
-3.93196
11
6.05179
21
-3.93647
0
LINE
8
BLACK
6
CONTINUOUS
10
6.05179
20
-3.93647
11
6.05317
21
-3.93785
0
LINE
8
BLACK
6
CONTINUOUS
10
6.05317
20
-3.93785
11
6.05376
21
-3.93869
0
LINE
8
BLACK
6
CONTINUOUS
10
6.05376
20
-3.93869
11
6.05393
21
-3.9407
0
LINE
8
BLACK
6
CONTINUOUS
10
6.05393
20
-3.9407
11
6.05278
21
-3.94236
0
LINE
8
BLACK
6
CONTINUOUS
10
6.05278
20
-3.94236
11
6.05082
21
-3.94288
0
LINE
8
BLACK
6
CONTINUOUS
10
6.05082
20
-3.94288
11
6.04899
21
-3.94203
0
LINE
8
BLACK
6
CONTINUOUS
10
6.04899
20
-3.94203
11
6.04712
21
-3.94015
0
LINE
8
BLACK
6
CONTINUOUS
10
6.04712
20
-3.94015
11
6.04653
21
-3.93931
0
LINE
8
BLACK
6
CONTINUOUS
10
6.04653
20
-3.93931
11
6.04652
21
-3.93914
0
LINE
8
BLACK
6
CONTINUOUS
10
6.04652
20
-3.93914
11
6.04641
21
-3.939
0
LINE
8
BLACK
6
CONTINUOUS
10
6.04641
20
-3.939
11
6.04453
21
-3.93337
0
LINE
8
BLACK
6
CONTINUOUS
10
6.04453
20
-3.93337
11
6.0444
21
-3.9325
0
LINE
8
BLACK
6
CONTINUOUS
10
6.0444
20
-3.9325
11
6.04438
21
-3.93244
0
LINE
8
BLACK
6
CONTINUOUS
10
6.04438
20
-3.93244
11
6.04438
21
-3.92869
0
LINE
8
BLACK
6
CONTINUOUS
10
6.04438
20
-3.92869
11
6.04453
21
-3.92782
0
LINE
8
BLACK
6
CONTINUOUS
10
6.04453
20
-3.92782
11
6.04453
21
-3.92776
0
LINE
8
BLACK
6
CONTINUOUS
10
6.04453
20
-3.92776
11
6.04641
21
-3.92213
0
LINE
8
BLACK
6
CONTINUOUS
10
6.04641
20
-3.92213
11
6.04689
21
-3.92123
0
LINE
8
BLACK
6
CONTINUOUS
10
6.04689
20
-3.92123
11
6.04704
21
-3.92114
0
LINE
8
BLACK
6
CONTINUOUS
10
6.04704
20
-3.92114
11
6.04712
21
-3.92098
0
LINE
8
BLACK
6
CONTINUOUS
10
6.04712
20
-3.92098
11
6.05087
21
-3.91723
0
LINE
8
BLACK
6
CONTINUOUS
10
6.05087
20
-3.91723
11
6.05159
21
-3.91672
0
LINE
8
BLACK
6
CONTINUOUS
10
6.05159
20
-3.91672
11
6.05164
21
-3.91667
0
LINE
8
BLACK
6
CONTINUOUS
10
6.05164
20
-3.91667
11
6.05539
21
-3.9148
0
LINE
8
BLACK
6
CONTINUOUS
10
6.05539
20
-3.9148
11
6.05587
21
-3.91465
0
LINE
8
BLACK
6
CONTINUOUS
10
6.05587
20
-3.91465
11
6.05599
21
-3.91458
0
LINE
8
BLACK
6
CONTINUOUS
10
6.05599
20
-3.91458
11
6.06349
21
-3.9127
0
LINE
8
BLACK
6
CONTINUOUS
10
6.06349
20
-3.9127
11
6.06408
21
-3.91266
0
LINE
8
BLACK
6
CONTINUOUS
10
6.06408
20
-3.91266
11
6.0642
21
-3.91261
0
LINE
8
BLACK
6
CONTINUOUS
10
6.0642
20
-3.91261
11
6.06983
21
-3.91261
0
LINE
8
BLACK
6
CONTINUOUS
10
6.06983
20
-3.91261
11
6.07041
21
-3.91272
  0
ENDSEC
  0
EOF
