  0
SECTION
  2
HEADER
  9
$ANGBASE
  50
0.0
  9
$ANGDIR
  70
1
  9
$MEASUREMENT
  70
0
  0
ENDSEC
  0
SECTION
  2
TABLES
  0
TABLE
  2
LTYPE
  70
4
  0
LTYPE
  5
40F
  2
CONTINUOUS
  70
0
  3
Solid line
  72
65
  73
0
  40
0.0
  0
LTYPE
  5
410
  2
DASHDOT
 70
0
  3
Dash Dot ____ _ ____ _
 72
65
 73
4
 40
2.0
 49
1.25
 49
-0.25
 49
0.25
 49
-0.25
  0
LTYPE
  5
411
  2
DASHED
 70
0
  3
Dashed __ __ __ __ __
 72
65
 73
2
 40
0.75
 49
0.5
 49
-0.25
  0
LTYPE
  5
43B
  2
DOTTED
 70
0
  3
Dotted .  .  .  .
 72
65
 73
2
 40
0.2
 49
0.0
 49
-0.2
  0
ENDTAB
  0
TABLE
  2
STYLE
  70
4
  0
STYLE
  2
KICAD
  70
0
  40
0
  41
1
  42
1
  50
0
  71
0
  3
isocp.shx
  0
STYLE
  2
KICADB
  70
0
  40
0
  41
1
  42
1
  50
0
  71
0
  3
isocp.shx
  0
STYLE
  2
KICADI
  70
0
  40
0
  41
1
  42
1
  50
15
  71
0
  3
isocp.shx
  0
STYLE
  2
KICADBI
  70
0
  40
0
  41
1
  42
1
  50
15
  71
0
  3
isocp.shx
  0
ENDTAB
  0
TABLE
  2
LAYER
  70
1
  0
LAYER
  2
BLACK
  70
0
  62
7
  6
CONTINUOUS
  0
ENDTAB
  0
ENDSEC
  0
SECTION
  2
ENTITIES
0
LINE
8
BLACK
6
CONTINUOUS
10
5.87447
20
-4.85835
11
5.87501
21
-4.85965
0
LINE
8
BLACK
6
CONTINUOUS
10
5.87501
20
-4.85965
11
5.87447
21
-4.86095
0
LINE
8
BLACK
6
CONTINUOUS
10
5.87447
20
-4.86095
11
5.87317
21
-4.86149
0
LINE
8
BLACK
6
CONTINUOUS
10
5.87317
20
-4.86149
11
5.83788
21
-4.86149
0
LINE
8
BLACK
6
CONTINUOUS
10
5.83788
20
-4.86149
11
5.83658
21
-4.86095
0
LINE
8
BLACK
6
CONTINUOUS
10
5.83658
20
-4.86095
11
5.83604
21
-4.85965
0
LINE
8
BLACK
6
CONTINUOUS
10
5.83604
20
-4.85965
11
5.83658
21
-4.85835
0
LINE
8
BLACK
6
CONTINUOUS
10
5.83658
20
-4.85835
11
5.83788
21
-4.85781
0
LINE
8
BLACK
6
CONTINUOUS
10
5.83788
20
-4.85781
11
5.87317
21
-4.85781
0
LINE
8
BLACK
6
CONTINUOUS
10
5.87317
20
-4.85781
11
5.87447
21
-4.85835
0
LINE
8
BLACK
6
CONTINUOUS
10
5.73772
20
-4.80762
11
5.73826
21
-4.80892
0
LINE
8
BLACK
6
CONTINUOUS
10
5.73826
20
-4.80892
11
5.73826
21
-4.84641
0
LINE
8
BLACK
6
CONTINUOUS
10
5.73826
20
-4.84641
11
5.73809
21
-4.84681
0
LINE
8
BLACK
6
CONTINUOUS
10
5.73809
20
-4.84681
11
5.73806
21
-4.84724
0
LINE
8
BLACK
6
CONTINUOUS
10
5.73806
20
-4.84724
11
5.73586
21
-4.85165
0
LINE
8
BLACK
6
CONTINUOUS
10
5.73586
20
-4.85165
11
5.73563
21
-4.85185
0
LINE
8
BLACK
6
CONTINUOUS
10
5.73563
20
-4.85185
11
5.73551
21
-4.85213
0
LINE
8
BLACK
6
CONTINUOUS
10
5.73551
20
-4.85213
11
5.73331
21
-4.85433
0
LINE
8
BLACK
6
CONTINUOUS
10
5.73331
20
-4.85433
11
5.73303
21
-4.85445
0
LINE
8
BLACK
6
CONTINUOUS
10
5.73303
20
-4.85445
11
5.73283
21
-4.85468
0
LINE
8
BLACK
6
CONTINUOUS
10
5.73283
20
-4.85468
11
5.72842
21
-4.85688
0
LINE
8
BLACK
6
CONTINUOUS
10
5.72842
20
-4.85688
11
5.72799
21
-4.85691
0
LINE
8
BLACK
6
CONTINUOUS
10
5.72799
20
-4.85691
11
5.7276
21
-4.85708
0
LINE
8
BLACK
6
CONTINUOUS
10
5.7276
20
-4.85708
11
5.71877
21
-4.85708
0
LINE
8
BLACK
6
CONTINUOUS
10
5.71877
20
-4.85708
11
5.71838
21
-4.85691
0
LINE
8
BLACK
6
CONTINUOUS
10
5.71838
20
-4.85691
11
5.71795
21
-4.85688
0
LINE
8
BLACK
6
CONTINUOUS
10
5.71795
20
-4.85688
11
5.71354
21
-4.85468
0
LINE
8
BLACK
6
CONTINUOUS
10
5.71354
20
-4.85468
11
5.71334
21
-4.85445
0
LINE
8
BLACK
6
CONTINUOUS
10
5.71334
20
-4.85445
11
5.71306
21
-4.85433
0
LINE
8
BLACK
6
CONTINUOUS
10
5.71306
20
-4.85433
11
5.71085
21
-4.85213
0
LINE
8
BLACK
6
CONTINUOUS
10
5.71085
20
-4.85213
11
5.71074
21
-4.85185
0
LINE
8
BLACK
6
CONTINUOUS
10
5.71074
20
-4.85185
11
5.71051
21
-4.85165
0
LINE
8
BLACK
6
CONTINUOUS
10
5.71051
20
-4.85165
11
5.7083
21
-4.84724
0
LINE
8
BLACK
6
CONTINUOUS
10
5.7083
20
-4.84724
11
5.70827
21
-4.84681
0
LINE
8
BLACK
6
CONTINUOUS
10
5.70827
20
-4.84681
11
5.70811
21
-4.84641
0
LINE
8
BLACK
6
CONTINUOUS
10
5.70811
20
-4.84641
11
5.70811
21
-4.80892
0
LINE
8
BLACK
6
CONTINUOUS
10
5.70811
20
-4.80892
11
5.70865
21
-4.80762
0
LINE
8
BLACK
6
CONTINUOUS
10
5.70865
20
-4.80762
11
5.70995
21
-4.80708
0
LINE
8
BLACK
6
CONTINUOUS
10
5.70995
20
-4.80708
11
5.71125
21
-4.80762
0
LINE
8
BLACK
6
CONTINUOUS
10
5.71125
20
-4.80762
11
5.71179
21
-4.80892
0
LINE
8
BLACK
6
CONTINUOUS
10
5.71179
20
-4.80892
11
5.71179
21
-4.84598
0
LINE
8
BLACK
6
CONTINUOUS
10
5.71179
20
-4.84598
11
5.71367
21
-4.84974
0
LINE
8
BLACK
6
CONTINUOUS
10
5.71367
20
-4.84974
11
5.71545
21
-4.85152
0
LINE
8
BLACK
6
CONTINUOUS
10
5.71545
20
-4.85152
11
5.71921
21
-4.8534
0
LINE
8
BLACK
6
CONTINUOUS
10
5.71921
20
-4.8534
11
5.72716
21
-4.8534
0
LINE
8
BLACK
6
CONTINUOUS
10
5.72716
20
-4.8534
11
5.73092
21
-4.85152
0
LINE
8
BLACK
6
CONTINUOUS
10
5.73092
20
-4.85152
11
5.7327
21
-4.84974
0
LINE
8
BLACK
6
CONTINUOUS
10
5.7327
20
-4.84974
11
5.73458
21
-4.84598
0
LINE
8
BLACK
6
CONTINUOUS
10
5.73458
20
-4.84598
11
5.73458
21
-4.80892
0
LINE
8
BLACK
6
CONTINUOUS
10
5.73458
20
-4.80892
11
5.73512
21
-4.80762
0
LINE
8
BLACK
6
CONTINUOUS
10
5.73512
20
-4.80762
11
5.73642
21
-4.80708
0
LINE
8
BLACK
6
CONTINUOUS
10
5.73642
20
-4.80708
11
5.73772
21
-4.80762
0
LINE
8
BLACK
6
CONTINUOUS
10
5.7764
20
-4.80719
11
5.7767
21
-4.80717
0
LINE
8
BLACK
6
CONTINUOUS
10
5.7767
20
-4.80717
11
5.78332
21
-4.80938
0
LINE
8
BLACK
6
CONTINUOUS
10
5.78332
20
-4.80938
11
5.78438
21
-4.8103
0
LINE
8
BLACK
6
CONTINUOUS
10
5.78438
20
-4.8103
11
5.78448
21
-4.8117
0
LINE
8
BLACK
6
CONTINUOUS
10
5.78448
20
-4.8117
11
5.78356
21
-4.81277
0
LINE
8
BLACK
6
CONTINUOUS
10
5.78356
20
-4.81277
11
5.78216
21
-4.81287
0
LINE
8
BLACK
6
CONTINUOUS
10
5.78216
20
-4.81287
11
5.77582
21
-4.81076
0
LINE
8
BLACK
6
CONTINUOUS
10
5.77582
20
-4.81076
11
5.76553
21
-4.81076
0
LINE
8
BLACK
6
CONTINUOUS
10
5.76553
20
-4.81076
11
5.76177
21
-4.81264
0
LINE
8
BLACK
6
CONTINUOUS
10
5.76177
20
-4.81264
11
5.75999
21
-4.81442
0
LINE
8
BLACK
6
CONTINUOUS
10
5.75999
20
-4.81442
11
5.75811
21
-4.81817
0
LINE
8
BLACK
6
CONTINUOUS
10
5.75811
20
-4.81817
11
5.75811
21
-4.82172
0
LINE
8
BLACK
6
CONTINUOUS
10
5.75811
20
-4.82172
11
5.75999
21
-4.82547
0
LINE
8
BLACK
6
CONTINUOUS
10
5.75999
20
-4.82547
11
5.76177
21
-4.82726
0
LINE
8
BLACK
6
CONTINUOUS
10
5.76177
20
-4.82726
11
5.76573
21
-4.82924
0
LINE
8
BLACK
6
CONTINUOUS
10
5.76573
20
-4.82924
11
5.77436
21
-4.83139
0
LINE
8
BLACK
6
CONTINUOUS
10
5.77436
20
-4.83139
11
5.77453
21
-4.83152
0
LINE
8
BLACK
6
CONTINUOUS
10
5.77453
20
-4.83152
11
5.77474
21
-4.83153
0
LINE
8
BLACK
6
CONTINUOUS
10
5.77474
20
-4.83153
11
5.77915
21
-4.83374
0
LINE
8
BLACK
6
CONTINUOUS
10
5.77915
20
-4.83374
11
5.77935
21
-4.83397
0
LINE
8
BLACK
6
CONTINUOUS
10
5.77935
20
-4.83397
11
5.77963
21
-4.83408
0
LINE
8
BLACK
6
CONTINUOUS
10
5.77963
20
-4.83408
11
5.78183
21
-4.83629
0
LINE
8
BLACK
6
CONTINUOUS
10
5.78183
20
-4.83629
11
5.78195
21
-4.83657
0
LINE
8
BLACK
6
CONTINUOUS
10
5.78195
20
-4.83657
11
5.78218
21
-4.83677
0
LINE
8
BLACK
6
CONTINUOUS
10
5.78218
20
-4.83677
11
5.78438
21
-4.84118
0
LINE
8
BLACK
6
CONTINUOUS
10
5.78438
20
-4.84118
11
5.78441
21
-4.84161
0
LINE
8
BLACK
6
CONTINUOUS
10
5.78441
20
-4.84161
11
5.78458
21
-4.842
0
LINE
8
BLACK
6
CONTINUOUS
10
5.78458
20
-4.842
11
5.78458
21
-4.84641
0
LINE
8
BLACK
6
CONTINUOUS
10
5.78458
20
-4.84641
11
5.78441
21
-4.84681
0
LINE
8
BLACK
6
CONTINUOUS
10
5.78441
20
-4.84681
11
5.78438
21
-4.84724
0
LINE
8
BLACK
6
CONTINUOUS
10
5.78438
20
-4.84724
11
5.78218
21
-4.85165
0
LINE
8
BLACK
6
CONTINUOUS
10
5.78218
20
-4.85165
11
5.78195
21
-4.85185
0
LINE
8
BLACK
6
CONTINUOUS
10
5.78195
20
-4.85185
11
5.78183
21
-4.85213
0
LINE
8
BLACK
6
CONTINUOUS
10
5.78183
20
-4.85213
11
5.77963
21
-4.85433
0
LINE
8
BLACK
6
CONTINUOUS
10
5.77963
20
-4.85433
11
5.77935
21
-4.85445
0
LINE
8
BLACK
6
CONTINUOUS
10
5.77935
20
-4.85445
11
5.77915
21
-4.85468
0
LINE
8
BLACK
6
CONTINUOUS
10
5.77915
20
-4.85468
11
5.77474
21
-4.85688
0
LINE
8
BLACK
6
CONTINUOUS
10
5.77474
20
-4.85688
11
5.77431
21
-4.85691
0
LINE
8
BLACK
6
CONTINUOUS
10
5.77431
20
-4.85691
11
5.77392
21
-4.85708
0
LINE
8
BLACK
6
CONTINUOUS
10
5.77392
20
-4.85708
11
5.76289
21
-4.85708
0
LINE
8
BLACK
6
CONTINUOUS
10
5.76289
20
-4.85708
11
5.76261
21
-4.85696
0
LINE
8
BLACK
6
CONTINUOUS
10
5.76261
20
-4.85696
11
5.7623
21
-4.85698
0
LINE
8
BLACK
6
CONTINUOUS
10
5.7623
20
-4.85698
11
5.75569
21
-4.85478
0
LINE
8
BLACK
6
CONTINUOUS
10
5.75569
20
-4.85478
11
5.75462
21
-4.85385
0
LINE
8
BLACK
6
CONTINUOUS
10
5.75462
20
-4.85385
11
5.75452
21
-4.85245
0
LINE
8
BLACK
6
CONTINUOUS
10
5.75452
20
-4.85245
11
5.75545
21
-4.85139
0
LINE
8
BLACK
6
CONTINUOUS
10
5.75545
20
-4.85139
11
5.75685
21
-4.85129
0
LINE
8
BLACK
6
CONTINUOUS
10
5.75685
20
-4.85129
11
5.76319
21
-4.8534
0
LINE
8
BLACK
6
CONTINUOUS
10
5.76319
20
-4.8534
11
5.77348
21
-4.8534
0
LINE
8
BLACK
6
CONTINUOUS
10
5.77348
20
-4.8534
11
5.77724
21
-4.85152
0
LINE
8
BLACK
6
CONTINUOUS
10
5.77724
20
-4.85152
11
5.77902
21
-4.84974
0
LINE
8
BLACK
6
CONTINUOUS
10
5.77902
20
-4.84974
11
5.7809
21
-4.84598
0
LINE
8
BLACK
6
CONTINUOUS
10
5.7809
20
-4.84598
11
5.7809
21
-4.84244
0
LINE
8
BLACK
6
CONTINUOUS
10
5.7809
20
-4.84244
11
5.77902
21
-4.83868
0
LINE
8
BLACK
6
CONTINUOUS
10
5.77902
20
-4.83868
11
5.77724
21
-4.8369
0
LINE
8
BLACK
6
CONTINUOUS
10
5.77724
20
-4.8369
11
5.77327
21
-4.83492
0
LINE
8
BLACK
6
CONTINUOUS
10
5.77327
20
-4.83492
11
5.76465
21
-4.83276
0
LINE
8
BLACK
6
CONTINUOUS
10
5.76465
20
-4.83276
11
5.76448
21
-4.83263
0
LINE
8
BLACK
6
CONTINUOUS
10
5.76448
20
-4.83263
11
5.76427
21
-4.83262
0
LINE
8
BLACK
6
CONTINUOUS
10
5.76427
20
-4.83262
11
5.75986
21
-4.83041
0
LINE
8
BLACK
6
CONTINUOUS
10
5.75986
20
-4.83041
11
5.75966
21
-4.83019
0
LINE
8
BLACK
6
CONTINUOUS
10
5.75966
20
-4.83019
11
5.75938
21
-4.83007
0
LINE
8
BLACK
6
CONTINUOUS
10
5.75938
20
-4.83007
11
5.75717
21
-4.82786
0
LINE
8
BLACK
6
CONTINUOUS
10
5.75717
20
-4.82786
11
5.75706
21
-4.82758
0
LINE
8
BLACK
6
CONTINUOUS
10
5.75706
20
-4.82758
11
5.75683
21
-4.82739
0
LINE
8
BLACK
6
CONTINUOUS
10
5.75683
20
-4.82739
11
5.75462
21
-4.82297
0
LINE
8
BLACK
6
CONTINUOUS
10
5.75462
20
-4.82297
11
5.75459
21
-4.82255
0
LINE
8
BLACK
6
CONTINUOUS
10
5.75459
20
-4.82255
11
5.75443
21
-4.82215
0
LINE
8
BLACK
6
CONTINUOUS
10
5.75443
20
-4.82215
11
5.75443
21
-4.81774
0
LINE
8
BLACK
6
CONTINUOUS
10
5.75443
20
-4.81774
11
5.75459
21
-4.81734
0
LINE
8
BLACK
6
CONTINUOUS
10
5.75459
20
-4.81734
11
5.75462
21
-4.81692
0
LINE
8
BLACK
6
CONTINUOUS
10
5.75462
20
-4.81692
11
5.75683
21
-4.81251
0
LINE
8
BLACK
6
CONTINUOUS
10
5.75683
20
-4.81251
11
5.75706
21
-4.81231
0
LINE
8
BLACK
6
CONTINUOUS
10
5.75706
20
-4.81231
11
5.75717
21
-4.81203
0
LINE
8
BLACK
6
CONTINUOUS
10
5.75717
20
-4.81203
11
5.75938
21
-4.80982
0
LINE
8
BLACK
6
CONTINUOUS
10
5.75938
20
-4.80982
11
5.75966
21
-4.80971
0
LINE
8
BLACK
6
CONTINUOUS
10
5.75966
20
-4.80971
11
5.75986
21
-4.80948
0
LINE
8
BLACK
6
CONTINUOUS
10
5.75986
20
-4.80948
11
5.76427
21
-4.80727
0
LINE
8
BLACK
6
CONTINUOUS
10
5.76427
20
-4.80727
11
5.7647
21
-4.80724
0
LINE
8
BLACK
6
CONTINUOUS
10
5.7647
20
-4.80724
11
5.76509
21
-4.80708
0
LINE
8
BLACK
6
CONTINUOUS
10
5.76509
20
-4.80708
11
5.77612
21
-4.80708
0
LINE
8
BLACK
6
CONTINUOUS
10
5.77612
20
-4.80708
11
5.7764
21
-4.80719
0
LINE
8
BLACK
6
CONTINUOUS
10
5.81843
20
-4.80724
11
5.81885
21
-4.80727
0
LINE
8
BLACK
6
CONTINUOUS
10
5.81885
20
-4.80727
11
5.82326
21
-4.80948
0
LINE
8
BLACK
6
CONTINUOUS
10
5.82326
20
-4.80948
11
5.82346
21
-4.80971
0
LINE
8
BLACK
6
CONTINUOUS
10
5.82346
20
-4.80971
11
5.82374
21
-4.80982
0
LINE
8
BLACK
6
CONTINUOUS
10
5.82374
20
-4.80982
11
5.82595
21
-4.81203
0
LINE
8
BLACK
6
CONTINUOUS
10
5.82595
20
-4.81203
11
5.82606
21
-4.81231
0
LINE
8
BLACK
6
CONTINUOUS
10
5.82606
20
-4.81231
11
5.82629
21
-4.81251
0
LINE
8
BLACK
6
CONTINUOUS
10
5.82629
20
-4.81251
11
5.8285
21
-4.81692
0
LINE
8
BLACK
6
CONTINUOUS
10
5.8285
20
-4.81692
11
5.82853
21
-4.81734
0
LINE
8
BLACK
6
CONTINUOUS
10
5.82853
20
-4.81734
11
5.82869
21
-4.81774
0
LINE
8
BLACK
6
CONTINUOUS
10
5.82869
20
-4.81774
11
5.82869
21
-4.82215
0
LINE
8
BLACK
6
CONTINUOUS
10
5.82869
20
-4.82215
11
5.82853
21
-4.82255
0
LINE
8
BLACK
6
CONTINUOUS
10
5.82853
20
-4.82255
11
5.8285
21
-4.82297
0
LINE
8
BLACK
6
CONTINUOUS
10
5.8285
20
-4.82297
11
5.82629
21
-4.82739
0
LINE
8
BLACK
6
CONTINUOUS
10
5.82629
20
-4.82739
11
5.82606
21
-4.82758
0
LINE
8
BLACK
6
CONTINUOUS
10
5.82606
20
-4.82758
11
5.82595
21
-4.82786
0
LINE
8
BLACK
6
CONTINUOUS
10
5.82595
20
-4.82786
11
5.82374
21
-4.83007
0
LINE
8
BLACK
6
CONTINUOUS
10
5.82374
20
-4.83007
11
5.82346
21
-4.83019
0
LINE
8
BLACK
6
CONTINUOUS
10
5.82346
20
-4.83019
11
5.82326
21
-4.83041
0
LINE
8
BLACK
6
CONTINUOUS
10
5.82326
20
-4.83041
11
5.82283
21
-4.83063
0
LINE
8
BLACK
6
CONTINUOUS
10
5.82283
20
-4.83063
11
5.82523
21
-4.83143
0
LINE
8
BLACK
6
CONTINUOUS
10
5.82523
20
-4.83143
11
5.82555
21
-4.83172
0
LINE
8
BLACK
6
CONTINUOUS
10
5.82555
20
-4.83172
11
5.82595
21
-4.83188
0
LINE
8
BLACK
6
CONTINUOUS
10
5.82595
20
-4.83188
11
5.82815
21
-4.83408
0
LINE
8
BLACK
6
CONTINUOUS
10
5.82815
20
-4.83408
11
5.82827
21
-4.83436
0
LINE
8
BLACK
6
CONTINUOUS
10
5.82827
20
-4.83436
11
5.8285
21
-4.83456
0
LINE
8
BLACK
6
CONTINUOUS
10
5.8285
20
-4.83456
11
5.8307
21
-4.83897
0
LINE
8
BLACK
6
CONTINUOUS
10
5.8307
20
-4.83897
11
5.83073
21
-4.8394
0
LINE
8
BLACK
6
CONTINUOUS
10
5.83073
20
-4.8394
11
5.8309
21
-4.8398
0
LINE
8
BLACK
6
CONTINUOUS
10
5.8309
20
-4.8398
11
5.8309
21
-4.84641
0
LINE
8
BLACK
6
CONTINUOUS
10
5.8309
20
-4.84641
11
5.83073
21
-4.84681
0
LINE
8
BLACK
6
CONTINUOUS
10
5.83073
20
-4.84681
11
5.8307
21
-4.84724
0
LINE
8
BLACK
6
CONTINUOUS
10
5.8307
20
-4.84724
11
5.8285
21
-4.85165
0
LINE
8
BLACK
6
CONTINUOUS
10
5.8285
20
-4.85165
11
5.82827
21
-4.85185
0
LINE
8
BLACK
6
CONTINUOUS
10
5.82827
20
-4.85185
11
5.82815
21
-4.85213
0
LINE
8
BLACK
6
CONTINUOUS
10
5.82815
20
-4.85213
11
5.82595
21
-4.85433
0
LINE
8
BLACK
6
CONTINUOUS
10
5.82595
20
-4.85433
11
5.82567
21
-4.85445
0
LINE
8
BLACK
6
CONTINUOUS
10
5.82567
20
-4.85445
11
5.82547
21
-4.85468
0
LINE
8
BLACK
6
CONTINUOUS
10
5.82547
20
-4.85468
11
5.82106
21
-4.85688
0
LINE
8
BLACK
6
CONTINUOUS
10
5.82106
20
-4.85688
11
5.82063
21
-4.85691
0
LINE
8
BLACK
6
CONTINUOUS
10
5.82063
20
-4.85691
11
5.82024
21
-4.85708
0
LINE
8
BLACK
6
CONTINUOUS
10
5.82024
20
-4.85708
11
5.80259
21
-4.85708
0
LINE
8
BLACK
6
CONTINUOUS
10
5.80259
20
-4.85708
11
5.80129
21
-4.85654
0
LINE
8
BLACK
6
CONTINUOUS
10
5.80129
20
-4.85654
11
5.80075
21
-4.85524
0
LINE
8
BLACK
6
CONTINUOUS
10
5.80075
20
-4.85524
11
5.80075
21
-4.85524
0
LINE
8
BLACK
6
CONTINUOUS
10
5.80075
20
-4.85524
11
5.80075
21
-4.80892
0
LINE
8
BLACK
6
CONTINUOUS
10
5.80075
20
-4.80892
11
5.80129
21
-4.80762
0
LINE
8
BLACK
6
CONTINUOUS
10
5.80129
20
-4.80762
11
5.80259
21
-4.80708
0
LINE
8
BLACK
6
CONTINUOUS
10
5.80259
20
-4.80708
11
5.81803
21
-4.80708
0
LINE
8
BLACK
6
CONTINUOUS
10
5.81803
20
-4.80708
11
5.81843
21
-4.80724
0
LINE
8
BLACK
6
CONTINUOUS
10
5.80443
20
-4.8534
11
5.8198
21
-4.8534
0
LINE
8
BLACK
6
CONTINUOUS
10
5.8198
20
-4.8534
11
5.82356
21
-4.85152
0
LINE
8
BLACK
6
CONTINUOUS
10
5.82356
20
-4.85152
11
5.82534
21
-4.84974
0
LINE
8
BLACK
6
CONTINUOUS
10
5.82534
20
-4.84974
11
5.82722
21
-4.84598
0
LINE
8
BLACK
6
CONTINUOUS
10
5.82722
20
-4.84598
11
5.82722
21
-4.84023
0
LINE
8
BLACK
6
CONTINUOUS
10
5.82722
20
-4.84023
11
5.82534
21
-4.83648
0
LINE
8
BLACK
6
CONTINUOUS
10
5.82534
20
-4.83648
11
5.82365
21
-4.83479
0
LINE
8
BLACK
6
CONTINUOUS
10
5.82365
20
-4.83479
11
5.81773
21
-4.83281
0
LINE
8
BLACK
6
CONTINUOUS
10
5.81773
20
-4.83281
11
5.80443
21
-4.83281
0
LINE
8
BLACK
6
CONTINUOUS
10
5.80443
20
-4.83281
11
5.80443
21
-4.8534
0
LINE
8
BLACK
6
CONTINUOUS
10
5.80443
20
-4.82913
11
5.8176
21
-4.82913
0
LINE
8
BLACK
6
CONTINUOUS
10
5.8176
20
-4.82913
11
5.82135
21
-4.82726
0
LINE
8
BLACK
6
CONTINUOUS
10
5.82135
20
-4.82726
11
5.82313
21
-4.82547
0
LINE
8
BLACK
6
CONTINUOUS
10
5.82313
20
-4.82547
11
5.82501
21
-4.82172
0
LINE
8
BLACK
6
CONTINUOUS
10
5.82501
20
-4.82172
11
5.82501
21
-4.81817
0
LINE
8
BLACK
6
CONTINUOUS
10
5.82501
20
-4.81817
11
5.82313
21
-4.81442
0
LINE
8
BLACK
6
CONTINUOUS
10
5.82313
20
-4.81442
11
5.82135
21
-4.81264
0
LINE
8
BLACK
6
CONTINUOUS
10
5.82135
20
-4.81264
11
5.8176
21
-4.81076
0
LINE
8
BLACK
6
CONTINUOUS
10
5.8176
20
-4.81076
11
5.80443
21
-4.81076
0
LINE
8
BLACK
6
CONTINUOUS
10
5.80443
20
-4.81076
11
5.80443
21
-4.82913
0
LINE
8
BLACK
6
CONTINUOUS
10
5.90004
20
-4.80724
11
5.90046
21
-4.80727
0
LINE
8
BLACK
6
CONTINUOUS
10
5.90046
20
-4.80727
11
5.90488
21
-4.80948
0
LINE
8
BLACK
6
CONTINUOUS
10
5.90488
20
-4.80948
11
5.90507
21
-4.80971
0
LINE
8
BLACK
6
CONTINUOUS
10
5.90507
20
-4.80971
11
5.90535
21
-4.80982
0
LINE
8
BLACK
6
CONTINUOUS
10
5.90535
20
-4.80982
11
5.90756
21
-4.81203
0
LINE
8
BLACK
6
CONTINUOUS
10
5.90756
20
-4.81203
11
5.90768
21
-4.81231
0
LINE
8
BLACK
6
CONTINUOUS
10
5.90768
20
-4.81231
11
5.9079
21
-4.81251
0
LINE
8
BLACK
6
CONTINUOUS
10
5.9079
20
-4.81251
11
5.91011
21
-4.81692
0
LINE
8
BLACK
6
CONTINUOUS
10
5.91011
20
-4.81692
11
5.91014
21
-4.81734
0
LINE
8
BLACK
6
CONTINUOUS
10
5.91014
20
-4.81734
11
5.9103
21
-4.81774
0
LINE
8
BLACK
6
CONTINUOUS
10
5.9103
20
-4.81774
11
5.9103
21
-4.82215
0
LINE
8
BLACK
6
CONTINUOUS
10
5.9103
20
-4.82215
11
5.91014
21
-4.82255
0
LINE
8
BLACK
6
CONTINUOUS
10
5.91014
20
-4.82255
11
5.91011
21
-4.82297
0
LINE
8
BLACK
6
CONTINUOUS
10
5.91011
20
-4.82297
11
5.9079
21
-4.82739
0
LINE
8
BLACK
6
CONTINUOUS
10
5.9079
20
-4.82739
11
5.90768
21
-4.82758
0
LINE
8
BLACK
6
CONTINUOUS
10
5.90768
20
-4.82758
11
5.90756
21
-4.82786
0
LINE
8
BLACK
6
CONTINUOUS
10
5.90756
20
-4.82786
11
5.90535
21
-4.83007
0
LINE
8
BLACK
6
CONTINUOUS
10
5.90535
20
-4.83007
11
5.90507
21
-4.83019
0
LINE
8
BLACK
6
CONTINUOUS
10
5.90507
20
-4.83019
11
5.90488
21
-4.83041
0
LINE
8
BLACK
6
CONTINUOUS
10
5.90488
20
-4.83041
11
5.90444
21
-4.83063
0
LINE
8
BLACK
6
CONTINUOUS
10
5.90444
20
-4.83063
11
5.90684
21
-4.83143
0
LINE
8
BLACK
6
CONTINUOUS
10
5.90684
20
-4.83143
11
5.90716
21
-4.83172
0
LINE
8
BLACK
6
CONTINUOUS
10
5.90716
20
-4.83172
11
5.90756
21
-4.83188
0
LINE
8
BLACK
6
CONTINUOUS
10
5.90756
20
-4.83188
11
5.90976
21
-4.83408
0
LINE
8
BLACK
6
CONTINUOUS
10
5.90976
20
-4.83408
11
5.90988
21
-4.83436
0
LINE
8
BLACK
6
CONTINUOUS
10
5.90988
20
-4.83436
11
5.91011
21
-4.83456
0
LINE
8
BLACK
6
CONTINUOUS
10
5.91011
20
-4.83456
11
5.91232
21
-4.83897
0
LINE
8
BLACK
6
CONTINUOUS
10
5.91232
20
-4.83897
11
5.91235
21
-4.8394
0
LINE
8
BLACK
6
CONTINUOUS
10
5.91235
20
-4.8394
11
5.91251
21
-4.8398
0
LINE
8
BLACK
6
CONTINUOUS
10
5.91251
20
-4.8398
11
5.91251
21
-4.84641
0
LINE
8
BLACK
6
CONTINUOUS
10
5.91251
20
-4.84641
11
5.91235
21
-4.84681
0
LINE
8
BLACK
6
CONTINUOUS
10
5.91235
20
-4.84681
11
5.91232
21
-4.84724
0
LINE
8
BLACK
6
CONTINUOUS
10
5.91232
20
-4.84724
11
5.91011
21
-4.85165
0
LINE
8
BLACK
6
CONTINUOUS
10
5.91011
20
-4.85165
11
5.90988
21
-4.85185
0
LINE
8
BLACK
6
CONTINUOUS
10
5.90988
20
-4.85185
11
5.90976
21
-4.85213
0
LINE
8
BLACK
6
CONTINUOUS
10
5.90976
20
-4.85213
11
5.90756
21
-4.85433
0
LINE
8
BLACK
6
CONTINUOUS
10
5.90756
20
-4.85433
11
5.90728
21
-4.85445
0
LINE
8
BLACK
6
CONTINUOUS
10
5.90728
20
-4.85445
11
5.90708
21
-4.85468
0
LINE
8
BLACK
6
CONTINUOUS
10
5.90708
20
-4.85468
11
5.90267
21
-4.85688
0
LINE
8
BLACK
6
CONTINUOUS
10
5.90267
20
-4.85688
11
5.90224
21
-4.85691
0
LINE
8
BLACK
6
CONTINUOUS
10
5.90224
20
-4.85691
11
5.90185
21
-4.85708
0
LINE
8
BLACK
6
CONTINUOUS
10
5.90185
20
-4.85708
11
5.8842
21
-4.85708
0
LINE
8
BLACK
6
CONTINUOUS
10
5.8842
20
-4.85708
11
5.8829
21
-4.85654
0
LINE
8
BLACK
6
CONTINUOUS
10
5.8829
20
-4.85654
11
5.88236
21
-4.85524
0
LINE
8
BLACK
6
CONTINUOUS
10
5.88236
20
-4.85524
11
5.88236
21
-4.85524
0
LINE
8
BLACK
6
CONTINUOUS
10
5.88236
20
-4.85524
11
5.88236
21
-4.80892
0
LINE
8
BLACK
6
CONTINUOUS
10
5.88236
20
-4.80892
11
5.8829
21
-4.80762
0
LINE
8
BLACK
6
CONTINUOUS
10
5.8829
20
-4.80762
11
5.8842
21
-4.80708
0
LINE
8
BLACK
6
CONTINUOUS
10
5.8842
20
-4.80708
11
5.89964
21
-4.80708
0
LINE
8
BLACK
6
CONTINUOUS
10
5.89964
20
-4.80708
11
5.90004
21
-4.80724
0
LINE
8
BLACK
6
CONTINUOUS
10
5.88604
20
-4.8534
11
5.90141
21
-4.8534
0
LINE
8
BLACK
6
CONTINUOUS
10
5.90141
20
-4.8534
11
5.90517
21
-4.85152
0
LINE
8
BLACK
6
CONTINUOUS
10
5.90517
20
-4.85152
11
5.90695
21
-4.84974
0
LINE
8
BLACK
6
CONTINUOUS
10
5.90695
20
-4.84974
11
5.90883
21
-4.84598
0
LINE
8
BLACK
6
CONTINUOUS
10
5.90883
20
-4.84598
11
5.90883
21
-4.84023
0
LINE
8
BLACK
6
CONTINUOUS
10
5.90883
20
-4.84023
11
5.90695
21
-4.83648
0
LINE
8
BLACK
6
CONTINUOUS
10
5.90695
20
-4.83648
11
5.90526
21
-4.83479
0
LINE
8
BLACK
6
CONTINUOUS
10
5.90526
20
-4.83479
11
5.89934
21
-4.83281
0
LINE
8
BLACK
6
CONTINUOUS
10
5.89934
20
-4.83281
11
5.88604
21
-4.83281
0
LINE
8
BLACK
6
CONTINUOUS
10
5.88604
20
-4.83281
11
5.88604
21
-4.8534
0
LINE
8
BLACK
6
CONTINUOUS
10
5.88604
20
-4.82913
11
5.89921
21
-4.82913
0
LINE
8
BLACK
6
CONTINUOUS
10
5.89921
20
-4.82913
11
5.90296
21
-4.82726
0
LINE
8
BLACK
6
CONTINUOUS
10
5.90296
20
-4.82726
11
5.90475
21
-4.82547
0
LINE
8
BLACK
6
CONTINUOUS
10
5.90475
20
-4.82547
11
5.90662
21
-4.82172
0
LINE
8
BLACK
6
CONTINUOUS
10
5.90662
20
-4.82172
11
5.90662
21
-4.81817
0
LINE
8
BLACK
6
CONTINUOUS
10
5.90662
20
-4.81817
11
5.90475
21
-4.81442
0
LINE
8
BLACK
6
CONTINUOUS
10
5.90475
20
-4.81442
11
5.90296
21
-4.81264
0
LINE
8
BLACK
6
CONTINUOUS
10
5.90296
20
-4.81264
11
5.89921
21
-4.81076
0
LINE
8
BLACK
6
CONTINUOUS
10
5.89921
20
-4.81076
11
5.88604
21
-4.81076
0
LINE
8
BLACK
6
CONTINUOUS
10
5.88604
20
-4.81076
11
5.88604
21
-4.82913
0
LINE
8
BLACK
6
CONTINUOUS
10
6.2065
20
-4.544
11
6.1865
21
-4.544
0
LINE
8
BLACK
6
CONTINUOUS
10
6.1865
20
-4.544
11
6.1865
21
-4.524
0
LINE
8
BLACK
6
CONTINUOUS
10
6.1865
20
-4.524
11
6.2065
21
-4.524
0
LINE
8
BLACK
6
CONTINUOUS
10
6.2065
20
-4.524
11
6.2065
21
-4.544
0
LINE
8
BLACK
6
CONTINUOUS
10
6.3065
20
-4.544
11
6.2865
21
-4.544
0
LINE
8
BLACK
6
CONTINUOUS
10
6.2865
20
-4.544
11
6.2865
21
-4.524
0
LINE
8
BLACK
6
CONTINUOUS
10
6.2865
20
-4.524
11
6.3065
21
-4.524
0
LINE
8
BLACK
6
CONTINUOUS
10
6.3065
20
-4.524
11
6.3065
21
-4.544
0
LINE
8
BLACK
6
CONTINUOUS
10
6.2065
20
-4.444
11
6.1865
21
-4.444
0
LINE
8
BLACK
6
CONTINUOUS
10
6.1865
20
-4.444
11
6.1865
21
-4.424
0
LINE
8
BLACK
6
CONTINUOUS
10
6.1865
20
-4.424
11
6.2065
21
-4.424
0
LINE
8
BLACK
6
CONTINUOUS
10
6.2065
20
-4.424
11
6.2065
21
-4.444
0
LINE
8
BLACK
6
CONTINUOUS
10
6.3065
20
-4.444
11
6.2865
21
-4.444
0
LINE
8
BLACK
6
CONTINUOUS
10
6.2865
20
-4.444
11
6.2865
21
-4.424
0
LINE
8
BLACK
6
CONTINUOUS
10
6.2865
20
-4.424
11
6.3065
21
-4.424
0
LINE
8
BLACK
6
CONTINUOUS
10
6.3065
20
-4.424
11
6.3065
21
-4.444
0
LINE
8
BLACK
6
CONTINUOUS
10
6.2065
20
-4.344
11
6.1865
21
-4.344
0
LINE
8
BLACK
6
CONTINUOUS
10
6.1865
20
-4.344
11
6.1865
21
-4.324
0
LINE
8
BLACK
6
CONTINUOUS
10
6.1865
20
-4.324
11
6.2065
21
-4.324
0
LINE
8
BLACK
6
CONTINUOUS
10
6.2065
20
-4.324
11
6.2065
21
-4.344
0
LINE
8
BLACK
6
CONTINUOUS
10
6.3065
20
-4.344
11
6.2865
21
-4.344
0
LINE
8
BLACK
6
CONTINUOUS
10
6.2865
20
-4.344
11
6.2865
21
-4.324
0
LINE
8
BLACK
6
CONTINUOUS
10
6.2865
20
-4.324
11
6.3065
21
-4.324
0
LINE
8
BLACK
6
CONTINUOUS
10
6.3065
20
-4.324
11
6.3065
21
-4.344
0
LINE
8
BLACK
6
CONTINUOUS
10
6.43405
20
-4.28838
11
6.43458
21
-4.28965
0
LINE
8
BLACK
6
CONTINUOUS
10
6.43458
20
-4.28965
11
6.43405
21
-4.29092
0
LINE
8
BLACK
6
CONTINUOUS
10
6.43405
20
-4.29092
11
6.43278
21
-4.29145
0
LINE
8
BLACK
6
CONTINUOUS
10
6.43278
20
-4.29145
11
6.39449
21
-4.29145
0
LINE
8
BLACK
6
CONTINUOUS
10
6.39449
20
-4.29145
11
6.42028
21
-4.30349
0
LINE
8
BLACK
6
CONTINUOUS
10
6.42028
20
-4.30349
11
6.4207
21
-4.30394
0
LINE
8
BLACK
6
CONTINUOUS
10
6.4207
20
-4.30394
11
6.42115
21
-4.30436
0
LINE
8
BLACK
6
CONTINUOUS
10
6.42115
20
-4.30436
11
6.42116
21
-4.30444
0
LINE
8
BLACK
6
CONTINUOUS
10
6.42116
20
-4.30444
11
6.42121
21
-4.3045
0
LINE
8
BLACK
6
CONTINUOUS
10
6.42121
20
-4.3045
11
6.42119
21
-4.30512
0
LINE
8
BLACK
6
CONTINUOUS
10
6.42119
20
-4.30512
11
6.42121
21
-4.30573
0
LINE
8
BLACK
6
CONTINUOUS
10
6.42121
20
-4.30573
11
6.42116
21
-4.30579
0
LINE
8
BLACK
6
CONTINUOUS
10
6.42116
20
-4.30579
11
6.42115
21
-4.30588
0
LINE
8
BLACK
6
CONTINUOUS
10
6.42115
20
-4.30588
11
6.4207
21
-4.30629
0
LINE
8
BLACK
6
CONTINUOUS
10
6.4207
20
-4.30629
11
6.42028
21
-4.30675
0
LINE
8
BLACK
6
CONTINUOUS
10
6.42028
20
-4.30675
11
6.39449
21
-4.31878
0
LINE
8
BLACK
6
CONTINUOUS
10
6.39449
20
-4.31878
11
6.43278
21
-4.31878
0
LINE
8
BLACK
6
CONTINUOUS
10
6.43278
20
-4.31878
11
6.43405
21
-4.31931
0
LINE
8
BLACK
6
CONTINUOUS
10
6.43405
20
-4.31931
11
6.43458
21
-4.32058
0
LINE
8
BLACK
6
CONTINUOUS
10
6.43458
20
-4.32058
11
6.43405
21
-4.32186
0
LINE
8
BLACK
6
CONTINUOUS
10
6.43405
20
-4.32186
11
6.43278
21
-4.32238
0
LINE
8
BLACK
6
CONTINUOUS
10
6.43278
20
-4.32238
11
6.38638
21
-4.32238
0
LINE
8
BLACK
6
CONTINUOUS
10
6.38638
20
-4.32238
11
6.38608
21
-4.32226
0
LINE
8
BLACK
6
CONTINUOUS
10
6.38608
20
-4.32226
11
6.38576
21
-4.32228
0
LINE
8
BLACK
6
CONTINUOUS
10
6.38576
20
-4.32228
11
6.38547
21
-4.32201
0
LINE
8
BLACK
6
CONTINUOUS
10
6.38547
20
-4.32201
11
6.38511
21
-4.32186
0
LINE
8
BLACK
6
CONTINUOUS
10
6.38511
20
-4.32186
11
6.38498
21
-4.32156
0
LINE
8
BLACK
6
CONTINUOUS
10
6.38498
20
-4.32156
11
6.38475
21
-4.32135
0
LINE
8
BLACK
6
CONTINUOUS
10
6.38475
20
-4.32135
11
6.38473
21
-4.32095
0
LINE
8
BLACK
6
CONTINUOUS
10
6.38473
20
-4.32095
11
6.38458
21
-4.32058
0
LINE
8
BLACK
6
CONTINUOUS
10
6.38458
20
-4.32058
11
6.3847
21
-4.32029
0
LINE
8
BLACK
6
CONTINUOUS
10
6.3847
20
-4.32029
11
6.38469
21
-4.31997
0
LINE
8
BLACK
6
CONTINUOUS
10
6.38469
20
-4.31997
11
6.38495
21
-4.31968
0
LINE
8
BLACK
6
CONTINUOUS
10
6.38495
20
-4.31968
11
6.38511
21
-4.31931
0
LINE
8
BLACK
6
CONTINUOUS
10
6.38511
20
-4.31931
11
6.3854
21
-4.31919
0
LINE
8
BLACK
6
CONTINUOUS
10
6.3854
20
-4.31919
11
6.38562
21
-4.31895
0
LINE
8
BLACK
6
CONTINUOUS
10
6.38562
20
-4.31895
11
6.41526
21
-4.30512
0
LINE
8
BLACK
6
CONTINUOUS
10
6.41526
20
-4.30512
11
6.38562
21
-4.29128
0
LINE
8
BLACK
6
CONTINUOUS
10
6.38562
20
-4.29128
11
6.3854
21
-4.29105
0
LINE
8
BLACK
6
CONTINUOUS
10
6.3854
20
-4.29105
11
6.38511
21
-4.29092
0
LINE
8
BLACK
6
CONTINUOUS
10
6.38511
20
-4.29092
11
6.38495
21
-4.29056
0
LINE
8
BLACK
6
CONTINUOUS
10
6.38495
20
-4.29056
11
6.38469
21
-4.29027
0
LINE
8
BLACK
6
CONTINUOUS
10
6.38469
20
-4.29027
11
6.3847
21
-4.28995
0
LINE
8
BLACK
6
CONTINUOUS
10
6.3847
20
-4.28995
11
6.38458
21
-4.28965
0
LINE
8
BLACK
6
CONTINUOUS
10
6.38458
20
-4.28965
11
6.38473
21
-4.28928
0
LINE
8
BLACK
6
CONTINUOUS
10
6.38473
20
-4.28928
11
6.38475
21
-4.28889
0
LINE
8
BLACK
6
CONTINUOUS
10
6.38475
20
-4.28889
11
6.38498
21
-4.28867
0
LINE
8
BLACK
6
CONTINUOUS
10
6.38498
20
-4.28867
11
6.38511
21
-4.28838
0
LINE
8
BLACK
6
CONTINUOUS
10
6.38511
20
-4.28838
11
6.38547
21
-4.28823
0
LINE
8
BLACK
6
CONTINUOUS
10
6.38547
20
-4.28823
11
6.38576
21
-4.28796
0
LINE
8
BLACK
6
CONTINUOUS
10
6.38576
20
-4.28796
11
6.38608
21
-4.28797
0
LINE
8
BLACK
6
CONTINUOUS
10
6.38608
20
-4.28797
11
6.38638
21
-4.28785
0
LINE
8
BLACK
6
CONTINUOUS
10
6.38638
20
-4.28785
11
6.43278
21
-4.28785
0
LINE
8
BLACK
6
CONTINUOUS
10
6.43278
20
-4.28785
11
6.43405
21
-4.28838
0
LINE
8
BLACK
6
CONTINUOUS
10
6.43358
20
-4.24164
11
6.43449
21
-4.24268
0
LINE
8
BLACK
6
CONTINUOUS
10
6.43449
20
-4.24268
11
6.43439
21
-4.24406
0
LINE
8
BLACK
6
CONTINUOUS
10
6.43439
20
-4.24406
11
6.43335
21
-4.24496
0
LINE
8
BLACK
6
CONTINUOUS
10
6.43335
20
-4.24496
11
6.42132
21
-4.24897
0
LINE
8
BLACK
6
CONTINUOUS
10
6.42132
20
-4.24897
11
6.42132
21
-4.26847
0
LINE
8
BLACK
6
CONTINUOUS
10
6.42132
20
-4.26847
11
6.43335
21
-4.27248
0
LINE
8
BLACK
6
CONTINUOUS
10
6.43335
20
-4.27248
11
6.43439
21
-4.27338
0
LINE
8
BLACK
6
CONTINUOUS
10
6.43439
20
-4.27338
11
6.43449
21
-4.27475
0
LINE
8
BLACK
6
CONTINUOUS
10
6.43449
20
-4.27475
11
6.43358
21
-4.27579
0
LINE
8
BLACK
6
CONTINUOUS
10
6.43358
20
-4.27579
11
6.43221
21
-4.27589
0
LINE
8
BLACK
6
CONTINUOUS
10
6.43221
20
-4.27589
11
6.38581
21
-4.26042
0
LINE
8
BLACK
6
CONTINUOUS
10
6.38581
20
-4.26042
11
6.38571
21
-4.26034
0
LINE
8
BLACK
6
CONTINUOUS
10
6.38571
20
-4.26034
11
6.38557
21
-4.26033
0
LINE
8
BLACK
6
CONTINUOUS
10
6.38557
20
-4.26033
11
6.3852
21
-4.2599
0
LINE
8
BLACK
6
CONTINUOUS
10
6.3852
20
-4.2599
11
6.38477
21
-4.25952
0
LINE
8
BLACK
6
CONTINUOUS
10
6.38477
20
-4.25952
11
6.38476
21
-4.25939
0
LINE
8
BLACK
6
CONTINUOUS
10
6.38476
20
-4.25939
11
6.38467
21
-4.25929
0
LINE
8
BLACK
6
CONTINUOUS
10
6.38467
20
-4.25929
11
6.38471
21
-4.25872
0
LINE
8
BLACK
6
CONTINUOUS
10
6.38471
20
-4.25872
11
6.38467
21
-4.25815
0
LINE
8
BLACK
6
CONTINUOUS
10
6.38467
20
-4.25815
11
6.38476
21
-4.25805
0
LINE
8
BLACK
6
CONTINUOUS
10
6.38476
20
-4.25805
11
6.38477
21
-4.25791
0
LINE
8
BLACK
6
CONTINUOUS
10
6.38477
20
-4.25791
11
6.3852
21
-4.25754
0
LINE
8
BLACK
6
CONTINUOUS
10
6.3852
20
-4.25754
11
6.38557
21
-4.25711
0
LINE
8
BLACK
6
CONTINUOUS
10
6.38557
20
-4.25711
11
6.38571
21
-4.2571
0
LINE
8
BLACK
6
CONTINUOUS
10
6.38571
20
-4.2571
11
6.38581
21
-4.25701
0
LINE
8
BLACK
6
CONTINUOUS
10
6.38581
20
-4.25701
11
6.43221
21
-4.24154
0
LINE
8
BLACK
6
CONTINUOUS
10
6.43221
20
-4.24154
11
6.43358
21
-4.24164
0
LINE
8
BLACK
6
CONTINUOUS
10
6.39207
20
-4.25872
11
6.41772
21
-4.26727
0
LINE
8
BLACK
6
CONTINUOUS
10
6.41772
20
-4.26727
11
6.41772
21
-4.25017
0
LINE
8
BLACK
6
CONTINUOUS
10
6.41772
20
-4.25017
11
6.39207
21
-4.25872
0
LINE
8
BLACK
6
CONTINUOUS
10
6.2065
20
-4.244
11
6.1865
21
-4.244
0
LINE
8
BLACK
6
CONTINUOUS
10
6.1865
20
-4.244
11
6.1865
21
-4.224
0
LINE
8
BLACK
6
CONTINUOUS
10
6.1865
20
-4.224
11
6.2065
21
-4.224
0
LINE
8
BLACK
6
CONTINUOUS
10
6.2065
20
-4.224
11
6.2065
21
-4.244
0
LINE
8
BLACK
6
CONTINUOUS
10
6.3065
20
-4.244
11
6.2865
21
-4.244
0
LINE
8
BLACK
6
CONTINUOUS
10
6.2865
20
-4.244
11
6.2865
21
-4.224
0
LINE
8
BLACK
6
CONTINUOUS
10
6.2865
20
-4.224
11
6.3065
21
-4.224
0
LINE
8
BLACK
6
CONTINUOUS
10
6.3065
20
-4.224
11
6.3065
21
-4.244
0
LINE
8
BLACK
6
CONTINUOUS
10
6.41531
20
-4.20177
11
6.41554
21
-4.20173
0
LINE
8
BLACK
6
CONTINUOUS
10
6.41554
20
-4.20173
11
6.42438
21
-4.20394
0
LINE
8
BLACK
6
CONTINUOUS
10
6.42438
20
-4.20394
11
6.42454
21
-4.20406
0
LINE
8
BLACK
6
CONTINUOUS
10
6.42454
20
-4.20406
11
6.42475
21
-4.20408
0
LINE
8
BLACK
6
CONTINUOUS
10
6.42475
20
-4.20408
11
6.42916
21
-4.20629
0
LINE
8
BLACK
6
CONTINUOUS
10
6.42916
20
-4.20629
11
6.42936
21
-4.20651
0
LINE
8
BLACK
6
CONTINUOUS
10
6.42936
20
-4.20651
11
6.42963
21
-4.20663
0
LINE
8
BLACK
6
CONTINUOUS
10
6.42963
20
-4.20663
11
6.43184
21
-4.20883
0
LINE
8
BLACK
6
CONTINUOUS
10
6.43184
20
-4.20883
11
6.43195
21
-4.20911
0
LINE
8
BLACK
6
CONTINUOUS
10
6.43195
20
-4.20911
11
6.43218
21
-4.2093
0
LINE
8
BLACK
6
CONTINUOUS
10
6.43218
20
-4.2093
11
6.43439
21
-4.21372
0
LINE
8
BLACK
6
CONTINUOUS
10
6.43439
20
-4.21372
11
6.43442
21
-4.21414
0
LINE
8
BLACK
6
CONTINUOUS
10
6.43442
20
-4.21414
11
6.43458
21
-4.21453
0
LINE
8
BLACK
6
CONTINUOUS
10
6.43458
20
-4.21453
11
6.43458
21
-4.21895
0
LINE
8
BLACK
6
CONTINUOUS
10
6.43458
20
-4.21895
11
6.43442
21
-4.21933
0
LINE
8
BLACK
6
CONTINUOUS
10
6.43442
20
-4.21933
11
6.43439
21
-4.21975
0
LINE
8
BLACK
6
CONTINUOUS
10
6.43439
20
-4.21975
11
6.43218
21
-4.22417
0
LINE
8
BLACK
6
CONTINUOUS
10
6.43218
20
-4.22417
11
6.43195
21
-4.22436
0
LINE
8
BLACK
6
CONTINUOUS
10
6.43195
20
-4.22436
11
6.43184
21
-4.22464
0
LINE
8
BLACK
6
CONTINUOUS
10
6.43184
20
-4.22464
11
6.42963
21
-4.22685
0
LINE
8
BLACK
6
CONTINUOUS
10
6.42963
20
-4.22685
11
6.42936
21
-4.22696
0
LINE
8
BLACK
6
CONTINUOUS
10
6.42936
20
-4.22696
11
6.42916
21
-4.22718
0
LINE
8
BLACK
6
CONTINUOUS
10
6.42916
20
-4.22718
11
6.42475
21
-4.22939
0
LINE
8
BLACK
6
CONTINUOUS
10
6.42475
20
-4.22939
11
6.42454
21
-4.22941
0
LINE
8
BLACK
6
CONTINUOUS
10
6.42454
20
-4.22941
11
6.42438
21
-4.22953
0
LINE
8
BLACK
6
CONTINUOUS
10
6.42438
20
-4.22953
11
6.41554
21
-4.23174
0
LINE
8
BLACK
6
CONTINUOUS
10
6.41554
20
-4.23174
11
6.41531
21
-4.23171
0
LINE
8
BLACK
6
CONTINUOUS
10
6.41531
20
-4.23171
11
6.4151
21
-4.23179
0
LINE
8
BLACK
6
CONTINUOUS
10
6.4151
20
-4.23179
11
6.40405
21
-4.23179
0
LINE
8
BLACK
6
CONTINUOUS
10
6.40405
20
-4.23179
11
6.40384
21
-4.23171
0
LINE
8
BLACK
6
CONTINUOUS
10
6.40384
20
-4.23171
11
6.40362
21
-4.23174
0
LINE
8
BLACK
6
CONTINUOUS
10
6.40362
20
-4.23174
11
6.39478
21
-4.22953
0
LINE
8
BLACK
6
CONTINUOUS
10
6.39478
20
-4.22953
11
6.39462
21
-4.22941
0
LINE
8
BLACK
6
CONTINUOUS
10
6.39462
20
-4.22941
11
6.39441
21
-4.22939
0
LINE
8
BLACK
6
CONTINUOUS
10
6.39441
20
-4.22939
11
6.38999
21
-4.22718
0
LINE
8
BLACK
6
CONTINUOUS
10
6.38999
20
-4.22718
11
6.3898
21
-4.22696
0
LINE
8
BLACK
6
CONTINUOUS
10
6.3898
20
-4.22696
11
6.38952
21
-4.22685
0
LINE
8
BLACK
6
CONTINUOUS
10
6.38952
20
-4.22685
11
6.38732
21
-4.22464
0
LINE
8
BLACK
6
CONTINUOUS
10
6.38732
20
-4.22464
11
6.3872
21
-4.22436
0
LINE
8
BLACK
6
CONTINUOUS
10
6.3872
20
-4.22436
11
6.38698
21
-4.22417
0
LINE
8
BLACK
6
CONTINUOUS
10
6.38698
20
-4.22417
11
6.38477
21
-4.21975
0
LINE
8
BLACK
6
CONTINUOUS
10
6.38477
20
-4.21975
11
6.38474
21
-4.21933
0
LINE
8
BLACK
6
CONTINUOUS
10
6.38474
20
-4.21933
11
6.38458
21
-4.21895
0
LINE
8
BLACK
6
CONTINUOUS
10
6.38458
20
-4.21895
11
6.38458
21
-4.21453
0
LINE
8
BLACK
6
CONTINUOUS
10
6.38458
20
-4.21453
11
6.38474
21
-4.21414
0
LINE
8
BLACK
6
CONTINUOUS
10
6.38474
20
-4.21414
11
6.38477
21
-4.21372
0
LINE
8
BLACK
6
CONTINUOUS
10
6.38477
20
-4.21372
11
6.38698
21
-4.2093
0
LINE
8
BLACK
6
CONTINUOUS
10
6.38698
20
-4.2093
11
6.3872
21
-4.20911
0
LINE
8
BLACK
6
CONTINUOUS
10
6.3872
20
-4.20911
11
6.38732
21
-4.20883
0
LINE
8
BLACK
6
CONTINUOUS
10
6.38732
20
-4.20883
11
6.38952
21
-4.20663
0
LINE
8
BLACK
6
CONTINUOUS
10
6.38952
20
-4.20663
11
6.3898
21
-4.20651
0
LINE
8
BLACK
6
CONTINUOUS
10
6.3898
20
-4.20651
11
6.38999
21
-4.20629
0
LINE
8
BLACK
6
CONTINUOUS
10
6.38999
20
-4.20629
11
6.39441
21
-4.20408
0
LINE
8
BLACK
6
CONTINUOUS
10
6.39441
20
-4.20408
11
6.39462
21
-4.20406
0
LINE
8
BLACK
6
CONTINUOUS
10
6.39462
20
-4.20406
11
6.39478
21
-4.20394
0
LINE
8
BLACK
6
CONTINUOUS
10
6.39478
20
-4.20394
11
6.40362
21
-4.20173
0
LINE
8
BLACK
6
CONTINUOUS
10
6.40362
20
-4.20173
11
6.40384
21
-4.20177
0
LINE
8
BLACK
6
CONTINUOUS
10
6.40384
20
-4.20177
11
6.40405
21
-4.20168
0
LINE
8
BLACK
6
CONTINUOUS
10
6.40405
20
-4.20168
11
6.4151
21
-4.20168
0
LINE
8
BLACK
6
CONTINUOUS
10
6.4151
20
-4.20168
11
6.41531
21
-4.20177
0
LINE
8
BLACK
6
CONTINUOUS
10
6.39584
20
-4.20739
11
6.39186
21
-4.20938
0
LINE
8
BLACK
6
CONTINUOUS
10
6.39186
20
-4.20938
11
6.39007
21
-4.21117
0
LINE
8
BLACK
6
CONTINUOUS
10
6.39007
20
-4.21117
11
6.38818
21
-4.21495
0
LINE
8
BLACK
6
CONTINUOUS
10
6.38818
20
-4.21495
11
6.38818
21
-4.21852
0
LINE
8
BLACK
6
CONTINUOUS
10
6.38818
20
-4.21852
11
6.39007
21
-4.2223
0
LINE
8
BLACK
6
CONTINUOUS
10
6.39007
20
-4.2223
11
6.39186
21
-4.2241
0
LINE
8
BLACK
6
CONTINUOUS
10
6.39186
20
-4.2241
11
6.39584
21
-4.22609
0
LINE
8
BLACK
6
CONTINUOUS
10
6.39584
20
-4.22609
11
6.40428
21
-4.22819
0
LINE
8
BLACK
6
CONTINUOUS
10
6.40428
20
-4.22819
11
6.41488
21
-4.22819
0
LINE
8
BLACK
6
CONTINUOUS
10
6.41488
20
-4.22819
11
6.42331
21
-4.22609
0
LINE
8
BLACK
6
CONTINUOUS
10
6.42331
20
-4.22609
11
6.42729
21
-4.2241
0
LINE
8
BLACK
6
CONTINUOUS
10
6.42729
20
-4.2241
11
6.42909
21
-4.2223
0
LINE
8
BLACK
6
CONTINUOUS
10
6.42909
20
-4.2223
11
6.43098
21
-4.21852
0
LINE
8
BLACK
6
CONTINUOUS
10
6.43098
20
-4.21852
11
6.43098
21
-4.21495
0
LINE
8
BLACK
6
CONTINUOUS
10
6.43098
20
-4.21495
11
6.42909
21
-4.21117
0
LINE
8
BLACK
6
CONTINUOUS
10
6.42909
20
-4.21117
11
6.42729
21
-4.20938
0
LINE
8
BLACK
6
CONTINUOUS
10
6.42729
20
-4.20938
11
6.42331
21
-4.20739
0
LINE
8
BLACK
6
CONTINUOUS
10
6.42331
20
-4.20739
11
6.41488
21
-4.20528
0
LINE
8
BLACK
6
CONTINUOUS
10
6.41488
20
-4.20528
11
6.40428
21
-4.20528
0
LINE
8
BLACK
6
CONTINUOUS
10
6.40428
20
-4.20528
11
6.39584
21
-4.20739
0
LINE
8
BLACK
6
CONTINUOUS
10
6.42433
20
-4.15765
11
6.42475
21
-4.15768
0
LINE
8
BLACK
6
CONTINUOUS
10
6.42475
20
-4.15768
11
6.42916
21
-4.15989
0
LINE
8
BLACK
6
CONTINUOUS
10
6.42916
20
-4.15989
11
6.42936
21
-4.16011
0
LINE
8
BLACK
6
CONTINUOUS
10
6.42936
20
-4.16011
11
6.42963
21
-4.16023
0
LINE
8
BLACK
6
CONTINUOUS
10
6.42963
20
-4.16023
11
6.43184
21
-4.16244
0
LINE
8
BLACK
6
CONTINUOUS
10
6.43184
20
-4.16244
11
6.43195
21
-4.16271
0
LINE
8
BLACK
6
CONTINUOUS
10
6.43195
20
-4.16271
11
6.43218
21
-4.1629
0
LINE
8
BLACK
6
CONTINUOUS
10
6.43218
20
-4.1629
11
6.43439
21
-4.16732
0
LINE
8
BLACK
6
CONTINUOUS
10
6.43439
20
-4.16732
11
6.43442
21
-4.16774
0
LINE
8
BLACK
6
CONTINUOUS
10
6.43442
20
-4.16774
11
6.43458
21
-4.16813
0
LINE
8
BLACK
6
CONTINUOUS
10
6.43458
20
-4.16813
11
6.43458
21
-4.17917
0
LINE
8
BLACK
6
CONTINUOUS
10
6.43458
20
-4.17917
11
6.43442
21
-4.17956
0
LINE
8
BLACK
6
CONTINUOUS
10
6.43442
20
-4.17956
11
6.43439
21
-4.17998
0
LINE
8
BLACK
6
CONTINUOUS
10
6.43439
20
-4.17998
11
6.43218
21
-4.1844
0
LINE
8
BLACK
6
CONTINUOUS
10
6.43218
20
-4.1844
11
6.43195
21
-4.18459
0
LINE
8
BLACK
6
CONTINUOUS
10
6.43195
20
-4.18459
11
6.43184
21
-4.18487
0
LINE
8
BLACK
6
CONTINUOUS
10
6.43184
20
-4.18487
11
6.42963
21
-4.18708
0
LINE
8
BLACK
6
CONTINUOUS
10
6.42963
20
-4.18708
11
6.42836
21
-4.1876
0
LINE
8
BLACK
6
CONTINUOUS
10
6.42836
20
-4.1876
11
6.42709
21
-4.18708
0
LINE
8
BLACK
6
CONTINUOUS
10
6.42709
20
-4.18708
11
6.42656
21
-4.1858
0
LINE
8
BLACK
6
CONTINUOUS
10
6.42656
20
-4.1858
11
6.42709
21
-4.18453
0
LINE
8
BLACK
6
CONTINUOUS
10
6.42709
20
-4.18453
11
6.42909
21
-4.18253
0
LINE
8
BLACK
6
CONTINUOUS
10
6.42909
20
-4.18253
11
6.43098
21
-4.17875
0
LINE
8
BLACK
6
CONTINUOUS
10
6.43098
20
-4.17875
11
6.43098
21
-4.16855
0
LINE
8
BLACK
6
CONTINUOUS
10
6.43098
20
-4.16855
11
6.42909
21
-4.16477
0
LINE
8
BLACK
6
CONTINUOUS
10
6.42909
20
-4.16477
11
6.42729
21
-4.16298
0
LINE
8
BLACK
6
CONTINUOUS
10
6.42729
20
-4.16298
11
6.42352
21
-4.16109
0
LINE
8
BLACK
6
CONTINUOUS
10
6.42352
20
-4.16109
11
6.41332
21
-4.16109
0
LINE
8
BLACK
6
CONTINUOUS
10
6.41332
20
-4.16109
11
6.40954
21
-4.16298
0
LINE
8
BLACK
6
CONTINUOUS
10
6.40954
20
-4.16298
11
6.40774
21
-4.16477
0
LINE
8
BLACK
6
CONTINUOUS
10
6.40774
20
-4.16477
11
6.40585
21
-4.16855
0
LINE
8
BLACK
6
CONTINUOUS
10
6.40585
20
-4.16855
11
6.40585
21
-4.17875
0
LINE
8
BLACK
6
CONTINUOUS
10
6.40585
20
-4.17875
11
6.40774
21
-4.18253
0
LINE
8
BLACK
6
CONTINUOUS
10
6.40774
20
-4.18253
11
6.40975
21
-4.18453
0
LINE
8
BLACK
6
CONTINUOUS
10
6.40975
20
-4.18453
11
6.40978
21
-4.18462
0
LINE
8
BLACK
6
CONTINUOUS
10
6.40978
20
-4.18462
11
6.40987
21
-4.18466
0
LINE
8
BLACK
6
CONTINUOUS
10
6.40987
20
-4.18466
11
6.41004
21
-4.18524
0
LINE
8
BLACK
6
CONTINUOUS
10
6.41004
20
-4.18524
11
6.41027
21
-4.1858
0
LINE
8
BLACK
6
CONTINUOUS
10
6.41027
20
-4.1858
11
6.41024
21
-4.18589
0
LINE
8
BLACK
6
CONTINUOUS
10
6.41024
20
-4.18589
11
6.41026
21
-4.18598
0
LINE
8
BLACK
6
CONTINUOUS
10
6.41026
20
-4.18598
11
6.40998
21
-4.18652
0
LINE
8
BLACK
6
CONTINUOUS
10
6.40998
20
-4.18652
11
6.40975
21
-4.18708
0
LINE
8
BLACK
6
CONTINUOUS
10
6.40975
20
-4.18708
11
6.40966
21
-4.18711
0
LINE
8
BLACK
6
CONTINUOUS
10
6.40966
20
-4.18711
11
6.40961
21
-4.1872
0
LINE
8
BLACK
6
CONTINUOUS
10
6.40961
20
-4.1872
11
6.40903
21
-4.18737
0
LINE
8
BLACK
6
CONTINUOUS
10
6.40903
20
-4.18737
11
6.40847
21
-4.1876
0
LINE
8
BLACK
6
CONTINUOUS
10
6.40847
20
-4.1876
11
6.40839
21
-4.18757
0
LINE
8
BLACK
6
CONTINUOUS
10
6.40839
20
-4.18757
11
6.40829
21
-4.18759
0
LINE
8
BLACK
6
CONTINUOUS
10
6.40829
20
-4.18759
11
6.3862
21
-4.18538
0
LINE
8
BLACK
6
CONTINUOUS
10
6.3862
20
-4.18538
11
6.38567
21
-4.1851
0
LINE
8
BLACK
6
CONTINUOUS
10
6.38567
20
-4.1851
11
6.38511
21
-4.18487
0
LINE
8
BLACK
6
CONTINUOUS
10
6.38511
20
-4.18487
11
6.38507
21
-4.18478
0
LINE
8
BLACK
6
CONTINUOUS
10
6.38507
20
-4.18478
11
6.38499
21
-4.18473
0
LINE
8
BLACK
6
CONTINUOUS
10
6.38499
20
-4.18473
11
6.38481
21
-4.18415
0
LINE
8
BLACK
6
CONTINUOUS
10
6.38481
20
-4.18415
11
6.38458
21
-4.18359
0
LINE
8
BLACK
6
CONTINUOUS
10
6.38458
20
-4.18359
11
6.38458
21
-4.1615
0
LINE
8
BLACK
6
CONTINUOUS
10
6.38458
20
-4.1615
11
6.38511
21
-4.16023
0
LINE
8
BLACK
6
CONTINUOUS
10
6.38511
20
-4.16023
11
6.38638
21
-4.1597
0
LINE
8
BLACK
6
CONTINUOUS
10
6.38638
20
-4.1597
11
6.38765
21
-4.16023
0
LINE
8
BLACK
6
CONTINUOUS
10
6.38765
20
-4.16023
11
6.38818
21
-4.1615
0
LINE
8
BLACK
6
CONTINUOUS
10
6.38818
20
-4.1615
11
6.38818
21
-4.18196
0
LINE
8
BLACK
6
CONTINUOUS
10
6.38818
20
-4.18196
11
6.40424
21
-4.18357
0
LINE
8
BLACK
6
CONTINUOUS
10
6.40424
20
-4.18357
11
6.40244
21
-4.17998
0
LINE
8
BLACK
6
CONTINUOUS
10
6.40244
20
-4.17998
11
6.40241
21
-4.17956
0
LINE
8
BLACK
6
CONTINUOUS
10
6.40241
20
-4.17956
11
6.40225
21
-4.17917
0
LINE
8
BLACK
6
CONTINUOUS
10
6.40225
20
-4.17917
11
6.40225
21
-4.16813
0
LINE
8
BLACK
6
CONTINUOUS
10
6.40225
20
-4.16813
11
6.40241
21
-4.16774
0
LINE
8
BLACK
6
CONTINUOUS
10
6.40241
20
-4.16774
11
6.40244
21
-4.16732
0
LINE
8
BLACK
6
CONTINUOUS
10
6.40244
20
-4.16732
11
6.40465
21
-4.1629
0
LINE
8
BLACK
6
CONTINUOUS
10
6.40465
20
-4.1629
11
6.40488
21
-4.16271
0
LINE
8
BLACK
6
CONTINUOUS
10
6.40488
20
-4.16271
11
6.40499
21
-4.16244
0
LINE
8
BLACK
6
CONTINUOUS
10
6.40499
20
-4.16244
11
6.4072
21
-4.16023
0
LINE
8
BLACK
6
CONTINUOUS
10
6.4072
20
-4.16023
11
6.40747
21
-4.16011
0
LINE
8
BLACK
6
CONTINUOUS
10
6.40747
20
-4.16011
11
6.40767
21
-4.15989
0
LINE
8
BLACK
6
CONTINUOUS
10
6.40767
20
-4.15989
11
6.41209
21
-4.15768
0
LINE
8
BLACK
6
CONTINUOUS
10
6.41209
20
-4.15768
11
6.41251
21
-4.15765
0
LINE
8
BLACK
6
CONTINUOUS
10
6.41251
20
-4.15765
11
6.41289
21
-4.15749
0
LINE
8
BLACK
6
CONTINUOUS
10
6.41289
20
-4.15749
11
6.42394
21
-4.15749
0
LINE
8
BLACK
6
CONTINUOUS
10
6.42394
20
-4.15749
11
6.42433
21
-4.15765
0
LINE
8
BLACK
6
CONTINUOUS
10
6.2065
20
-4.144
11
6.1865
21
-4.144
0
LINE
8
BLACK
6
CONTINUOUS
10
6.1865
20
-4.144
11
6.1865
21
-4.124
0
LINE
8
BLACK
6
CONTINUOUS
10
6.1865
20
-4.124
11
6.2065
21
-4.124
0
LINE
8
BLACK
6
CONTINUOUS
10
6.2065
20
-4.124
11
6.2065
21
-4.144
0
LINE
8
BLACK
6
CONTINUOUS
10
6.3065
20
-4.144
11
6.2865
21
-4.144
0
LINE
8
BLACK
6
CONTINUOUS
10
6.2865
20
-4.144
11
6.2865
21
-4.124
0
LINE
8
BLACK
6
CONTINUOUS
10
6.2865
20
-4.124
11
6.3065
21
-4.124
0
LINE
8
BLACK
6
CONTINUOUS
10
6.3065
20
-4.124
11
6.3065
21
-4.144
0
LINE
8
BLACK
6
CONTINUOUS
10
6.41637
20
-4.10278
11
6.4169
21
-4.10405
0
LINE
8
BLACK
6
CONTINUOUS
10
6.4169
20
-4.10405
11
6.4169
21
-4.1394
0
LINE
8
BLACK
6
CONTINUOUS
10
6.4169
20
-4.1394
11
6.41637
21
-4.14068
0
LINE
8
BLACK
6
CONTINUOUS
10
6.41637
20
-4.14068
11
6.4151
21
-4.1412
0
LINE
8
BLACK
6
CONTINUOUS
10
6.4151
20
-4.1412
11
6.41383
21
-4.14068
0
LINE
8
BLACK
6
CONTINUOUS
10
6.41383
20
-4.14068
11
6.4133
21
-4.1394
0
LINE
8
BLACK
6
CONTINUOUS
10
6.4133
20
-4.1394
11
6.4133
21
-4.10405
0
LINE
8
BLACK
6
CONTINUOUS
10
6.4133
20
-4.10405
11
6.41383
21
-4.10278
0
LINE
8
BLACK
6
CONTINUOUS
10
6.41383
20
-4.10278
11
6.4151
21
-4.10225
0
LINE
8
BLACK
6
CONTINUOUS
10
6.4151
20
-4.10225
11
6.41637
21
-4.10278
0
LINE
8
BLACK
6
CONTINUOUS
10
5.594
20
-4.1315
11
5.574
21
-4.1315
0
LINE
8
BLACK
6
CONTINUOUS
10
5.574
20
-4.1315
11
5.574
21
-4.1115
0
LINE
8
BLACK
6
CONTINUOUS
10
5.574
20
-4.1115
11
5.594
21
-4.1115
0
LINE
8
BLACK
6
CONTINUOUS
10
5.594
20
-4.1115
11
5.594
21
-4.1315
0
LINE
8
BLACK
6
CONTINUOUS
10
5.794
20
-4.1315
11
5.774
21
-4.1315
0
LINE
8
BLACK
6
CONTINUOUS
10
5.774
20
-4.1315
11
5.774
21
-4.1115
0
LINE
8
BLACK
6
CONTINUOUS
10
5.774
20
-4.1115
11
5.794
21
-4.1115
0
LINE
8
BLACK
6
CONTINUOUS
10
5.794
20
-4.1115
11
5.794
21
-4.1315
0
LINE
8
BLACK
6
CONTINUOUS
10
6.39991
20
-4.05596
11
6.4002
21
-4.05594
0
LINE
8
BLACK
6
CONTINUOUS
10
6.4002
20
-4.05594
11
6.40683
21
-4.05815
0
LINE
8
BLACK
6
CONTINUOUS
10
6.40683
20
-4.05815
11
6.40715
21
-4.05843
0
LINE
8
BLACK
6
CONTINUOUS
10
6.40715
20
-4.05843
11
6.40754
21
-4.05859
0
LINE
8
BLACK
6
CONTINUOUS
10
6.40754
20
-4.05859
11
6.43098
21
-4.08203
0
LINE
8
BLACK
6
CONTINUOUS
10
6.43098
20
-4.08203
11
6.43098
21
-4.05765
0
LINE
8
BLACK
6
CONTINUOUS
10
6.43098
20
-4.05765
11
6.43151
21
-4.05638
0
LINE
8
BLACK
6
CONTINUOUS
10
6.43151
20
-4.05638
11
6.43278
21
-4.05585
0
LINE
8
BLACK
6
CONTINUOUS
10
6.43278
20
-4.05585
11
6.43405
21
-4.05638
0
LINE
8
BLACK
6
CONTINUOUS
10
6.43405
20
-4.05638
11
6.43458
21
-4.05765
0
LINE
8
BLACK
6
CONTINUOUS
10
6.43458
20
-4.05765
11
6.43458
21
-4.08637
0
LINE
8
BLACK
6
CONTINUOUS
10
6.43458
20
-4.08637
11
6.43405
21
-4.08765
0
LINE
8
BLACK
6
CONTINUOUS
10
6.43405
20
-4.08765
11
6.43278
21
-4.08817
0
LINE
8
BLACK
6
CONTINUOUS
10
6.43278
20
-4.08817
11
6.43151
21
-4.08765
0
LINE
8
BLACK
6
CONTINUOUS
10
6.43151
20
-4.08765
11
6.40529
21
-4.06143
0
LINE
8
BLACK
6
CONTINUOUS
10
6.40529
20
-4.06143
11
6.39934
21
-4.05945
0
LINE
8
BLACK
6
CONTINUOUS
10
6.39934
20
-4.05945
11
6.39564
21
-4.05945
0
LINE
8
BLACK
6
CONTINUOUS
10
6.39564
20
-4.05945
11
6.39186
21
-4.06134
0
LINE
8
BLACK
6
CONTINUOUS
10
6.39186
20
-4.06134
11
6.39007
21
-4.06314
0
LINE
8
BLACK
6
CONTINUOUS
10
6.39007
20
-4.06314
11
6.38818
21
-4.06691
0
LINE
8
BLACK
6
CONTINUOUS
10
6.38818
20
-4.06691
11
6.38818
21
-4.07711
0
LINE
8
BLACK
6
CONTINUOUS
10
6.38818
20
-4.07711
11
6.39007
21
-4.08089
0
LINE
8
BLACK
6
CONTINUOUS
10
6.39007
20
-4.08089
11
6.39207
21
-4.08289
0
LINE
8
BLACK
6
CONTINUOUS
10
6.39207
20
-4.08289
11
6.3926
21
-4.08416
0
LINE
8
BLACK
6
CONTINUOUS
10
6.3926
20
-4.08416
11
6.39207
21
-4.08544
0
LINE
8
BLACK
6
CONTINUOUS
10
6.39207
20
-4.08544
11
6.3908
21
-4.08596
0
LINE
8
BLACK
6
CONTINUOUS
10
6.3908
20
-4.08596
11
6.38952
21
-4.08544
0
LINE
8
BLACK
6
CONTINUOUS
10
6.38952
20
-4.08544
11
6.38732
21
-4.08323
0
LINE
8
BLACK
6
CONTINUOUS
10
6.38732
20
-4.08323
11
6.3872
21
-4.08295
0
LINE
8
BLACK
6
CONTINUOUS
10
6.3872
20
-4.08295
11
6.38698
21
-4.08276
0
LINE
8
BLACK
6
CONTINUOUS
10
6.38698
20
-4.08276
11
6.38477
21
-4.07834
0
LINE
8
BLACK
6
CONTINUOUS
10
6.38477
20
-4.07834
11
6.38474
21
-4.07792
0
LINE
8
BLACK
6
CONTINUOUS
10
6.38474
20
-4.07792
11
6.38458
21
-4.07754
0
LINE
8
BLACK
6
CONTINUOUS
10
6.38458
20
-4.07754
11
6.38458
21
-4.06649
0
LINE
8
BLACK
6
CONTINUOUS
10
6.38458
20
-4.06649
11
6.38474
21
-4.0661
0
LINE
8
BLACK
6
CONTINUOUS
10
6.38474
20
-4.0661
11
6.38477
21
-4.06568
0
LINE
8
BLACK
6
CONTINUOUS
10
6.38477
20
-4.06568
11
6.38698
21
-4.06126
0
LINE
8
BLACK
6
CONTINUOUS
10
6.38698
20
-4.06126
11
6.3872
21
-4.06107
0
LINE
8
BLACK
6
CONTINUOUS
10
6.3872
20
-4.06107
11
6.38732
21
-4.0608
0
LINE
8
BLACK
6
CONTINUOUS
10
6.38732
20
-4.0608
11
6.38952
21
-4.05859
0
LINE
8
BLACK
6
CONTINUOUS
10
6.38952
20
-4.05859
11
6.3898
21
-4.05847
0
LINE
8
BLACK
6
CONTINUOUS
10
6.3898
20
-4.05847
11
6.38999
21
-4.05825
0
LINE
8
BLACK
6
CONTINUOUS
10
6.38999
20
-4.05825
11
6.39441
21
-4.05604
0
LINE
8
BLACK
6
CONTINUOUS
10
6.39441
20
-4.05604
11
6.39483
21
-4.05601
0
LINE
8
BLACK
6
CONTINUOUS
10
6.39483
20
-4.05601
11
6.39522
21
-4.05585
0
LINE
8
BLACK
6
CONTINUOUS
10
6.39522
20
-4.05585
11
6.39964
21
-4.05585
0
LINE
8
BLACK
6
CONTINUOUS
10
6.39964
20
-4.05585
11
6.39991
21
-4.05596
0
LINE
8
BLACK
6
CONTINUOUS
10
5.59116
20
-3.97973
11
5.59155
21
-3.97975
0
LINE
8
BLACK
6
CONTINUOUS
10
5.59155
20
-3.97975
11
5.59177
21
-3.97998
0
LINE
8
BLACK
6
CONTINUOUS
10
5.59177
20
-3.97998
11
5.59207
21
-3.98011
0
LINE
8
BLACK
6
CONTINUOUS
10
5.59207
20
-3.98011
11
5.59222
21
-3.98047
0
LINE
8
BLACK
6
CONTINUOUS
10
5.59222
20
-3.98047
11
5.59249
21
-3.98076
0
LINE
8
BLACK
6
CONTINUOUS
10
5.59249
20
-3.98076
11
5.59247
21
-3.98108
0
LINE
8
BLACK
6
CONTINUOUS
10
5.59247
20
-3.98108
11
5.59259
21
-3.98138
0
LINE
8
BLACK
6
CONTINUOUS
10
5.59259
20
-3.98138
11
5.59259
21
-4.02778
0
LINE
8
BLACK
6
CONTINUOUS
10
5.59259
20
-4.02778
11
5.59207
21
-4.02905
0
LINE
8
BLACK
6
CONTINUOUS
10
5.59207
20
-4.02905
11
5.59079
21
-4.02958
0
LINE
8
BLACK
6
CONTINUOUS
10
5.59079
20
-4.02958
11
5.58952
21
-4.02905
0
LINE
8
BLACK
6
CONTINUOUS
10
5.58952
20
-4.02905
11
5.58899
21
-4.02778
0
LINE
8
BLACK
6
CONTINUOUS
10
5.58899
20
-4.02778
11
5.58899
21
-3.98949
0
LINE
8
BLACK
6
CONTINUOUS
10
5.58899
20
-3.98949
11
5.57696
21
-4.01528
0
LINE
8
BLACK
6
CONTINUOUS
10
5.57696
20
-4.01528
11
5.5765
21
-4.0157
0
LINE
8
BLACK
6
CONTINUOUS
10
5.5765
20
-4.0157
11
5.57609
21
-4.01615
0
LINE
8
BLACK
6
CONTINUOUS
10
5.57609
20
-4.01615
11
5.576
21
-4.01616
0
LINE
8
BLACK
6
CONTINUOUS
10
5.576
20
-4.01616
11
5.57594
21
-4.01621
0
LINE
8
BLACK
6
CONTINUOUS
10
5.57594
20
-4.01621
11
5.57533
21
-4.01619
0
LINE
8
BLACK
6
CONTINUOUS
10
5.57533
20
-4.01619
11
5.57471
21
-4.01621
0
LINE
8
BLACK
6
CONTINUOUS
10
5.57471
20
-4.01621
11
5.57465
21
-4.01616
0
LINE
8
BLACK
6
CONTINUOUS
10
5.57465
20
-4.01616
11
5.57457
21
-4.01615
0
LINE
8
BLACK
6
CONTINUOUS
10
5.57457
20
-4.01615
11
5.57415
21
-4.0157
0
LINE
8
BLACK
6
CONTINUOUS
10
5.57415
20
-4.0157
11
5.5737
21
-4.01528
0
LINE
8
BLACK
6
CONTINUOUS
10
5.5737
20
-4.01528
11
5.56166
21
-3.98949
0
LINE
8
BLACK
6
CONTINUOUS
10
5.56166
20
-3.98949
11
5.56166
21
-4.02778
0
LINE
8
BLACK
6
CONTINUOUS
10
5.56166
20
-4.02778
11
5.56113
21
-4.02905
0
LINE
8
BLACK
6
CONTINUOUS
10
5.56113
20
-4.02905
11
5.55986
21
-4.02958
0
LINE
8
BLACK
6
CONTINUOUS
10
5.55986
20
-4.02958
11
5.55859
21
-4.02905
0
LINE
8
BLACK
6
CONTINUOUS
10
5.55859
20
-4.02905
11
5.55806
21
-4.02778
0
LINE
8
BLACK
6
CONTINUOUS
10
5.55806
20
-4.02778
11
5.55806
21
-3.98138
0
LINE
8
BLACK
6
CONTINUOUS
10
5.55806
20
-3.98138
11
5.55818
21
-3.98108
0
LINE
8
BLACK
6
CONTINUOUS
10
5.55818
20
-3.98108
11
5.55817
21
-3.98076
0
LINE
8
BLACK
6
CONTINUOUS
10
5.55817
20
-3.98076
11
5.55844
21
-3.98047
0
LINE
8
BLACK
6
CONTINUOUS
10
5.55844
20
-3.98047
11
5.55859
21
-3.98011
0
LINE
8
BLACK
6
CONTINUOUS
10
5.55859
20
-3.98011
11
5.55888
21
-3.97998
0
LINE
8
BLACK
6
CONTINUOUS
10
5.55888
20
-3.97998
11
5.5591
21
-3.97975
0
LINE
8
BLACK
6
CONTINUOUS
10
5.5591
20
-3.97975
11
5.55949
21
-3.97973
0
LINE
8
BLACK
6
CONTINUOUS
10
5.55949
20
-3.97973
11
5.55986
21
-3.97958
0
LINE
8
BLACK
6
CONTINUOUS
10
5.55986
20
-3.97958
11
5.56016
21
-3.9797
0
LINE
8
BLACK
6
CONTINUOUS
10
5.56016
20
-3.9797
11
5.56048
21
-3.97969
0
LINE
8
BLACK
6
CONTINUOUS
10
5.56048
20
-3.97969
11
5.56077
21
-3.97995
0
LINE
8
BLACK
6
CONTINUOUS
10
5.56077
20
-3.97995
11
5.56113
21
-3.98011
0
LINE
8
BLACK
6
CONTINUOUS
10
5.56113
20
-3.98011
11
5.56126
21
-3.9804
0
LINE
8
BLACK
6
CONTINUOUS
10
5.56126
20
-3.9804
11
5.56149
21
-3.98062
0
LINE
8
BLACK
6
CONTINUOUS
10
5.56149
20
-3.98062
11
5.57533
21
-4.01026
0
LINE
8
BLACK
6
CONTINUOUS
10
5.57533
20
-4.01026
11
5.58916
21
-3.98062
0
LINE
8
BLACK
6
CONTINUOUS
10
5.58916
20
-3.98062
11
5.5894
21
-3.9804
0
LINE
8
BLACK
6
CONTINUOUS
10
5.5894
20
-3.9804
11
5.58952
21
-3.98011
0
LINE
8
BLACK
6
CONTINUOUS
10
5.58952
20
-3.98011
11
5.58989
21
-3.97995
0
LINE
8
BLACK
6
CONTINUOUS
10
5.58989
20
-3.97995
11
5.59018
21
-3.97969
0
LINE
8
BLACK
6
CONTINUOUS
10
5.59018
20
-3.97969
11
5.5905
21
-3.9797
0
LINE
8
BLACK
6
CONTINUOUS
10
5.5905
20
-3.9797
11
5.59079
21
-3.97958
0
LINE
8
BLACK
6
CONTINUOUS
10
5.59079
20
-3.97958
11
5.59116
21
-3.97973
0
LINE
8
BLACK
6
CONTINUOUS
10
5.6663
20
-3.97974
11
5.66672
21
-3.97977
0
LINE
8
BLACK
6
CONTINUOUS
10
5.66672
20
-3.97977
11
5.67114
21
-3.98198
0
LINE
8
BLACK
6
CONTINUOUS
10
5.67114
20
-3.98198
11
5.67134
21
-3.9822
0
LINE
8
BLACK
6
CONTINUOUS
10
5.67134
20
-3.9822
11
5.67161
21
-3.98232
0
LINE
8
BLACK
6
CONTINUOUS
10
5.67161
20
-3.98232
11
5.67382
21
-3.98452
0
LINE
8
BLACK
6
CONTINUOUS
10
5.67382
20
-3.98452
11
5.67393
21
-3.9848
0
LINE
8
BLACK
6
CONTINUOUS
10
5.67393
20
-3.9848
11
5.67416
21
-3.98499
0
LINE
8
BLACK
6
CONTINUOUS
10
5.67416
20
-3.98499
11
5.67637
21
-3.98941
0
LINE
8
BLACK
6
CONTINUOUS
10
5.67637
20
-3.98941
11
5.67638
21
-3.98962
0
LINE
8
BLACK
6
CONTINUOUS
10
5.67638
20
-3.98962
11
5.6765
21
-3.98978
0
LINE
8
BLACK
6
CONTINUOUS
10
5.6765
20
-3.98978
11
5.67871
21
-3.99862
0
LINE
8
BLACK
6
CONTINUOUS
10
5.67871
20
-3.99862
11
5.67868
21
-3.99884
0
LINE
8
BLACK
6
CONTINUOUS
10
5.67868
20
-3.99884
11
5.67876
21
-3.99905
0
LINE
8
BLACK
6
CONTINUOUS
10
5.67876
20
-3.99905
11
5.67876
21
-4.0101
0
LINE
8
BLACK
6
CONTINUOUS
10
5.67876
20
-4.0101
11
5.67868
21
-4.01031
0
LINE
8
BLACK
6
CONTINUOUS
10
5.67868
20
-4.01031
11
5.67871
21
-4.01054
0
LINE
8
BLACK
6
CONTINUOUS
10
5.67871
20
-4.01054
11
5.6765
21
-4.01938
0
LINE
8
BLACK
6
CONTINUOUS
10
5.6765
20
-4.01938
11
5.67638
21
-4.01954
0
LINE
8
BLACK
6
CONTINUOUS
10
5.67638
20
-4.01954
11
5.67637
21
-4.01975
0
LINE
8
BLACK
6
CONTINUOUS
10
5.67637
20
-4.01975
11
5.67416
21
-4.02416
0
LINE
8
BLACK
6
CONTINUOUS
10
5.67416
20
-4.02416
11
5.67393
21
-4.02436
0
LINE
8
BLACK
6
CONTINUOUS
10
5.67393
20
-4.02436
11
5.67382
21
-4.02463
0
LINE
8
BLACK
6
CONTINUOUS
10
5.67382
20
-4.02463
11
5.67161
21
-4.02684
0
LINE
8
BLACK
6
CONTINUOUS
10
5.67161
20
-4.02684
11
5.67134
21
-4.02696
0
LINE
8
BLACK
6
CONTINUOUS
10
5.67134
20
-4.02696
11
5.67114
21
-4.02718
0
LINE
8
BLACK
6
CONTINUOUS
10
5.67114
20
-4.02718
11
5.66672
21
-4.02939
0
LINE
8
BLACK
6
CONTINUOUS
10
5.66672
20
-4.02939
11
5.6663
21
-4.02942
0
LINE
8
BLACK
6
CONTINUOUS
10
5.6663
20
-4.02942
11
5.66592
21
-4.02958
0
LINE
8
BLACK
6
CONTINUOUS
10
5.66592
20
-4.02958
11
5.6615
21
-4.02958
0
LINE
8
BLACK
6
CONTINUOUS
10
5.6615
20
-4.02958
11
5.66111
21
-4.02942
0
LINE
8
BLACK
6
CONTINUOUS
10
5.66111
20
-4.02942
11
5.66069
21
-4.02939
0
LINE
8
BLACK
6
CONTINUOUS
10
5.66069
20
-4.02939
11
5.65627
21
-4.02718
0
LINE
8
BLACK
6
CONTINUOUS
10
5.65627
20
-4.02718
11
5.65608
21
-4.02696
0
LINE
8
BLACK
6
CONTINUOUS
10
5.65608
20
-4.02696
11
5.65581
21
-4.02684
0
LINE
8
BLACK
6
CONTINUOUS
10
5.65581
20
-4.02684
11
5.6536
21
-4.02463
0
LINE
8
BLACK
6
CONTINUOUS
10
5.6536
20
-4.02463
11
5.65348
21
-4.02436
0
LINE
8
BLACK
6
CONTINUOUS
10
5.65348
20
-4.02436
11
5.65326
21
-4.02416
0
LINE
8
BLACK
6
CONTINUOUS
10
5.65326
20
-4.02416
11
5.65105
21
-4.01975
0
LINE
8
BLACK
6
CONTINUOUS
10
5.65105
20
-4.01975
11
5.65104
21
-4.01954
0
LINE
8
BLACK
6
CONTINUOUS
10
5.65104
20
-4.01954
11
5.65091
21
-4.01938
0
LINE
8
BLACK
6
CONTINUOUS
10
5.65091
20
-4.01938
11
5.6487
21
-4.01054
0
LINE
8
BLACK
6
CONTINUOUS
10
5.6487
20
-4.01054
11
5.64874
21
-4.01031
0
LINE
8
BLACK
6
CONTINUOUS
10
5.64874
20
-4.01031
11
5.64865
21
-4.0101
0
LINE
8
BLACK
6
CONTINUOUS
10
5.64865
20
-4.0101
11
5.64865
21
-3.99905
0
LINE
8
BLACK
6
CONTINUOUS
10
5.64865
20
-3.99905
11
5.64874
21
-3.99884
0
LINE
8
BLACK
6
CONTINUOUS
10
5.64874
20
-3.99884
11
5.6487
21
-3.99862
0
LINE
8
BLACK
6
CONTINUOUS
10
5.6487
20
-3.99862
11
5.65091
21
-3.98978
0
LINE
8
BLACK
6
CONTINUOUS
10
5.65091
20
-3.98978
11
5.65104
21
-3.98962
0
LINE
8
BLACK
6
CONTINUOUS
10
5.65104
20
-3.98962
11
5.65105
21
-3.98941
0
LINE
8
BLACK
6
CONTINUOUS
10
5.65105
20
-3.98941
11
5.65326
21
-3.98499
0
LINE
8
BLACK
6
CONTINUOUS
10
5.65326
20
-3.98499
11
5.65348
21
-3.9848
0
LINE
8
BLACK
6
CONTINUOUS
10
5.65348
20
-3.9848
11
5.6536
21
-3.98452
0
LINE
8
BLACK
6
CONTINUOUS
10
5.6536
20
-3.98452
11
5.65581
21
-3.98232
0
LINE
8
BLACK
6
CONTINUOUS
10
5.65581
20
-3.98232
11
5.65608
21
-3.9822
0
LINE
8
BLACK
6
CONTINUOUS
10
5.65608
20
-3.9822
11
5.65627
21
-3.98198
0
LINE
8
BLACK
6
CONTINUOUS
10
5.65627
20
-3.98198
11
5.66069
21
-3.97977
0
LINE
8
BLACK
6
CONTINUOUS
10
5.66069
20
-3.97977
11
5.66111
21
-3.97974
0
LINE
8
BLACK
6
CONTINUOUS
10
5.66111
20
-3.97974
11
5.6615
21
-3.97958
0
LINE
8
BLACK
6
CONTINUOUS
10
5.6615
20
-3.97958
11
5.66592
21
-3.97958
0
LINE
8
BLACK
6
CONTINUOUS
10
5.66592
20
-3.97958
11
5.6663
21
-3.97974
0
LINE
8
BLACK
6
CONTINUOUS
10
5.65815
20
-3.98507
11
5.65635
21
-3.98686
0
LINE
8
BLACK
6
CONTINUOUS
10
5.65635
20
-3.98686
11
5.65436
21
-3.99084
0
LINE
8
BLACK
6
CONTINUOUS
10
5.65436
20
-3.99084
11
5.65225
21
-3.99928
0
LINE
8
BLACK
6
CONTINUOUS
10
5.65225
20
-3.99928
11
5.65225
21
-4.00988
0
LINE
8
BLACK
6
CONTINUOUS
10
5.65225
20
-4.00988
11
5.65436
21
-4.01831
0
LINE
8
BLACK
6
CONTINUOUS
10
5.65436
20
-4.01831
11
5.65635
21
-4.02229
0
LINE
8
BLACK
6
CONTINUOUS
10
5.65635
20
-4.02229
11
5.65815
21
-4.02409
0
LINE
8
BLACK
6
CONTINUOUS
10
5.65815
20
-4.02409
11
5.66192
21
-4.02598
0
LINE
8
BLACK
6
CONTINUOUS
10
5.66192
20
-4.02598
11
5.66549
21
-4.02598
0
LINE
8
BLACK
6
CONTINUOUS
10
5.66549
20
-4.02598
11
5.66927
21
-4.02409
0
LINE
8
BLACK
6
CONTINUOUS
10
5.66927
20
-4.02409
11
5.67107
21
-4.02229
0
LINE
8
BLACK
6
CONTINUOUS
10
5.67107
20
-4.02229
11
5.67306
21
-4.01831
0
LINE
8
BLACK
6
CONTINUOUS
10
5.67306
20
-4.01831
11
5.67516
21
-4.00988
0
LINE
8
BLACK
6
CONTINUOUS
10
5.67516
20
-4.00988
11
5.67516
21
-3.99928
0
LINE
8
BLACK
6
CONTINUOUS
10
5.67516
20
-3.99928
11
5.67306
21
-3.99084
0
LINE
8
BLACK
6
CONTINUOUS
10
5.67306
20
-3.99084
11
5.67107
21
-3.98686
0
LINE
8
BLACK
6
CONTINUOUS
10
5.67107
20
-3.98686
11
5.66927
21
-3.98507
0
LINE
8
BLACK
6
CONTINUOUS
10
5.66927
20
-3.98507
11
5.66549
21
-3.98318
0
LINE
8
BLACK
6
CONTINUOUS
10
5.66549
20
-3.98318
11
5.66192
21
-3.98318
0
LINE
8
BLACK
6
CONTINUOUS
10
5.66192
20
-3.98318
11
5.65815
21
-3.98507
0
LINE
8
BLACK
6
CONTINUOUS
10
5.7315
20
-3.9815
11
5.7229
21
-3.9815
0
LINE
8
BLACK
6
CONTINUOUS
10
5.7229
20
-3.9815
11
5.72271
21
-3.98196
0
LINE
8
BLACK
6
CONTINUOUS
10
5.72271
20
-3.98196
11
5.72251
21
-3.98256
0
LINE
8
BLACK
6
CONTINUOUS
10
5.72251
20
-3.98256
11
5.70966
21
-3.99725
0
LINE
8
BLACK
6
CONTINUOUS
10
5.70966
20
-3.99725
11
5.71232
21
-3.99725
0
LINE
8
BLACK
6
CONTINUOUS
10
5.71232
20
-3.99725
11
5.7127
21
-3.99741
0
LINE
8
BLACK
6
CONTINUOUS
10
5.7127
20
-3.99741
11
5.71312
21
-3.99744
0
LINE
8
BLACK
6
CONTINUOUS
10
5.71312
20
-3.99744
11
5.71754
21
-3.99965
0
LINE
8
BLACK
6
CONTINUOUS
10
5.71754
20
-3.99965
11
5.71774
21
-3.99988
0
LINE
8
BLACK
6
CONTINUOUS
10
5.71774
20
-3.99988
11
5.71801
21
-3.99999
0
LINE
8
BLACK
6
CONTINUOUS
10
5.71801
20
-3.99999
11
5.72022
21
-4.0022
0
LINE
8
BLACK
6
CONTINUOUS
10
5.72022
20
-4.0022
11
5.72033
21
-4.00247
0
LINE
8
BLACK
6
CONTINUOUS
10
5.72033
20
-4.00247
11
5.72056
21
-4.00267
0
LINE
8
BLACK
6
CONTINUOUS
10
5.72056
20
-4.00267
11
5.72277
21
-4.00709
0
LINE
8
BLACK
6
CONTINUOUS
10
5.72277
20
-4.00709
11
5.7228
21
-4.00751
0
LINE
8
BLACK
6
CONTINUOUS
10
5.7228
20
-4.00751
11
5.72296
21
-4.00789
0
LINE
8
BLACK
6
CONTINUOUS
10
5.72296
20
-4.00789
11
5.72296
21
-4.01894
0
LINE
8
BLACK
6
CONTINUOUS
10
5.72296
20
-4.01894
11
5.7228
21
-4.01933
0
LINE
8
BLACK
6
CONTINUOUS
10
5.7228
20
-4.01933
11
5.72277
21
-4.01975
0
LINE
8
BLACK
6
CONTINUOUS
10
5.72277
20
-4.01975
11
5.72056
21
-4.02416
0
LINE
8
BLACK
6
CONTINUOUS
10
5.72056
20
-4.02416
11
5.72033
21
-4.02436
0
LINE
8
BLACK
6
CONTINUOUS
10
5.72033
20
-4.02436
11
5.72022
21
-4.02463
0
LINE
8
BLACK
6
CONTINUOUS
10
5.72022
20
-4.02463
11
5.71801
21
-4.02684
0
LINE
8
BLACK
6
CONTINUOUS
10
5.71801
20
-4.02684
11
5.71774
21
-4.02696
0
LINE
8
BLACK
6
CONTINUOUS
10
5.71774
20
-4.02696
11
5.71754
21
-4.02718
0
LINE
8
BLACK
6
CONTINUOUS
10
5.71754
20
-4.02718
11
5.71312
21
-4.02939
0
LINE
8
BLACK
6
CONTINUOUS
10
5.71312
20
-4.02939
11
5.7127
21
-4.02942
0
LINE
8
BLACK
6
CONTINUOUS
10
5.7127
20
-4.02942
11
5.71232
21
-4.02958
0
LINE
8
BLACK
6
CONTINUOUS
10
5.71232
20
-4.02958
11
5.69906
21
-4.02958
0
LINE
8
BLACK
6
CONTINUOUS
10
5.69906
20
-4.02958
11
5.69867
21
-4.02942
0
LINE
8
BLACK
6
CONTINUOUS
10
5.69867
20
-4.02942
11
5.69826
21
-4.02939
0
LINE
8
BLACK
6
CONTINUOUS
10
5.69826
20
-4.02939
11
5.69384
21
-4.02718
0
LINE
8
BLACK
6
CONTINUOUS
10
5.69384
20
-4.02718
11
5.69364
21
-4.02696
0
LINE
8
BLACK
6
CONTINUOUS
10
5.69364
20
-4.02696
11
5.69337
21
-4.02684
0
LINE
8
BLACK
6
CONTINUOUS
10
5.69337
20
-4.02684
11
5.69116
21
-4.02463
0
LINE
8
BLACK
6
CONTINUOUS
10
5.69116
20
-4.02463
11
5.69063
21
-4.02336
0
LINE
8
BLACK
6
CONTINUOUS
10
5.69063
20
-4.02336
11
5.69116
21
-4.02209
0
LINE
8
BLACK
6
CONTINUOUS
10
5.69116
20
-4.02209
11
5.69243
21
-4.02156
0
LINE
8
BLACK
6
CONTINUOUS
10
5.69243
20
-4.02156
11
5.6937
21
-4.02209
0
LINE
8
BLACK
6
CONTINUOUS
10
5.6937
20
-4.02209
11
5.69571
21
-4.02409
0
LINE
8
BLACK
6
CONTINUOUS
10
5.69571
20
-4.02409
11
5.69949
21
-4.02598
0
LINE
8
BLACK
6
CONTINUOUS
10
5.69949
20
-4.02598
11
5.71189
21
-4.02598
0
LINE
8
BLACK
6
CONTINUOUS
10
5.71189
20
-4.02598
11
5.71567
21
-4.02409
0
LINE
8
BLACK
6
CONTINUOUS
10
5.71567
20
-4.02409
11
5.71747
21
-4.02229
0
LINE
8
BLACK
6
CONTINUOUS
10
5.71747
20
-4.02229
11
5.71936
21
-4.01852
0
LINE
8
BLACK
6
CONTINUOUS
10
5.71936
20
-4.01852
11
5.71936
21
-4.00832
0
LINE
8
BLACK
6
CONTINUOUS
10
5.71936
20
-4.00832
11
5.71747
21
-4.00454
0
LINE
8
BLACK
6
CONTINUOUS
10
5.71747
20
-4.00454
11
5.71567
21
-4.00274
0
LINE
8
BLACK
6
CONTINUOUS
10
5.71567
20
-4.00274
11
5.71189
21
-4.00085
0
LINE
8
BLACK
6
CONTINUOUS
10
5.71189
20
-4.00085
11
5.70569
21
-4.00085
0
LINE
8
BLACK
6
CONTINUOUS
10
5.70569
20
-4.00085
11
5.7051
21
-4.00061
0
LINE
8
BLACK
6
CONTINUOUS
10
5.7051
20
-4.00061
11
5.7045
21
-4.00041
0
LINE
8
BLACK
6
CONTINUOUS
10
5.7045
20
-4.00041
11
5.70448
21
-4.00035
0
LINE
8
BLACK
6
CONTINUOUS
10
5.70448
20
-4.00035
11
5.70442
21
-4.00033
0
LINE
8
BLACK
6
CONTINUOUS
10
5.70442
20
-4.00033
11
5.70417
21
-3.99974
0
LINE
8
BLACK
6
CONTINUOUS
10
5.70417
20
-3.99974
11
5.70389
21
-3.99917
0
LINE
8
BLACK
6
CONTINUOUS
10
5.70389
20
-3.99917
11
5.70391
21
-3.99911
0
LINE
8
BLACK
6
CONTINUOUS
10
5.70391
20
-3.99911
11
5.70389
21
-3.99905
0
LINE
8
BLACK
6
CONTINUOUS
10
5.70389
20
-3.99905
11
5.70413
21
-3.99847
0
LINE
8
BLACK
6
CONTINUOUS
10
5.70413
20
-3.99847
11
5.70433
21
-3.99787
0
LINE
8
BLACK
6
CONTINUOUS
10
5.70433
20
-3.99787
11
5.71719
21
-3.98318
0
LINE
8
BLACK
6
CONTINUOUS
10
5.71719
20
-3.98318
11
5.69243
21
-3.98318
0
LINE
8
BLACK
6
CONTINUOUS
10
5.69243
20
-3.98318
11
5.69116
21
-3.98265
0
LINE
8
BLACK
6
CONTINUOUS
10
5.69116
20
-3.98265
11
5.69063
21
-3.98138
0
LINE
8
BLACK
6
CONTINUOUS
10
5.69063
20
-3.98138
11
5.69116
21
-3.98011
0
LINE
8
BLACK
6
CONTINUOUS
10
5.69116
20
-3.98011
11
5.69243
21
-3.97958
0
LINE
8
BLACK
6
CONTINUOUS
10
5.69243
20
-3.97958
11
5.7115
21
-3.97958
0
LINE
8
BLACK
6
CONTINUOUS
10
5.7115
20
-3.97958
11
5.7115
21
-3.9615
0
LINE
8
BLACK
6
CONTINUOUS
10
5.7115
20
-3.9615
11
5.7315
21
-3.9615
0
LINE
8
BLACK
6
CONTINUOUS
10
5.7315
20
-3.9615
11
5.7315
21
-3.9815
0
LINE
8
BLACK
6
CONTINUOUS
10
5.81002
20
-3.97978
11
5.81053
21
-3.97988
0
LINE
8
BLACK
6
CONTINUOUS
10
5.81053
20
-3.97988
11
5.81064
21
-3.98003
0
LINE
8
BLACK
6
CONTINUOUS
10
5.81064
20
-3.98003
11
5.81081
21
-3.98011
0
LINE
8
BLACK
6
CONTINUOUS
10
5.81081
20
-3.98011
11
5.81101
21
-3.98059
0
LINE
8
BLACK
6
CONTINUOUS
10
5.81101
20
-3.98059
11
5.8113
21
-3.98103
0
LINE
8
BLACK
6
CONTINUOUS
10
5.8113
20
-3.98103
11
5.81127
21
-3.98121
0
LINE
8
BLACK
6
CONTINUOUS
10
5.81127
20
-3.98121
11
5.81134
21
-3.98138
0
LINE
8
BLACK
6
CONTINUOUS
10
5.81134
20
-3.98138
11
5.81134
21
-4.02598
0
LINE
8
BLACK
6
CONTINUOUS
10
5.81134
20
-4.02598
11
5.82279
21
-4.02598
0
LINE
8
BLACK
6
CONTINUOUS
10
5.82279
20
-4.02598
11
5.82407
21
-4.02651
0
LINE
8
BLACK
6
CONTINUOUS
10
5.82407
20
-4.02651
11
5.82459
21
-4.02778
0
LINE
8
BLACK
6
CONTINUOUS
10
5.82459
20
-4.02778
11
5.82407
21
-4.02905
0
LINE
8
BLACK
6
CONTINUOUS
10
5.82407
20
-4.02905
11
5.82279
21
-4.02958
0
LINE
8
BLACK
6
CONTINUOUS
10
5.82279
20
-4.02958
11
5.80954
21
-4.02958
0
LINE
8
BLACK
6
CONTINUOUS
10
5.80954
20
-4.02958
11
5.79628
21
-4.02958
0
LINE
8
BLACK
6
CONTINUOUS
10
5.79628
20
-4.02958
11
5.79501
21
-4.02905
0
LINE
8
BLACK
6
CONTINUOUS
10
5.79501
20
-4.02905
11
5.79448
21
-4.02778
0
LINE
8
BLACK
6
CONTINUOUS
10
5.79448
20
-4.02778
11
5.79501
21
-4.02651
0
LINE
8
BLACK
6
CONTINUOUS
10
5.79501
20
-4.02651
11
5.79628
21
-4.02598
0
LINE
8
BLACK
6
CONTINUOUS
10
5.79628
20
-4.02598
11
5.80774
21
-4.02598
0
LINE
8
BLACK
6
CONTINUOUS
10
5.80774
20
-4.02598
11
5.80774
21
-3.98732
0
LINE
8
BLACK
6
CONTINUOUS
10
5.80774
20
-3.98732
11
5.80661
21
-3.98901
0
LINE
8
BLACK
6
CONTINUOUS
10
5.80661
20
-3.98901
11
5.80646
21
-3.98911
0
LINE
8
BLACK
6
CONTINUOUS
10
5.80646
20
-3.98911
11
5.80639
21
-3.98928
0
LINE
8
BLACK
6
CONTINUOUS
10
5.80639
20
-3.98928
11
5.80197
21
-3.9937
0
LINE
8
BLACK
6
CONTINUOUS
10
5.80197
20
-3.9937
11
5.8017
21
-3.99381
0
LINE
8
BLACK
6
CONTINUOUS
10
5.8017
20
-3.99381
11
5.8015
21
-3.99404
0
LINE
8
BLACK
6
CONTINUOUS
10
5.8015
20
-3.99404
11
5.79708
21
-3.99625
0
LINE
8
BLACK
6
CONTINUOUS
10
5.79708
20
-3.99625
11
5.79571
21
-3.99634
0
LINE
8
BLACK
6
CONTINUOUS
10
5.79571
20
-3.99634
11
5.79467
21
-3.99544
0
LINE
8
BLACK
6
CONTINUOUS
10
5.79467
20
-3.99544
11
5.79457
21
-3.99407
0
LINE
8
BLACK
6
CONTINUOUS
10
5.79457
20
-3.99407
11
5.79547
21
-3.99303
0
LINE
8
BLACK
6
CONTINUOUS
10
5.79547
20
-3.99303
11
5.79963
21
-3.99095
0
LINE
8
BLACK
6
CONTINUOUS
10
5.79963
20
-3.99095
11
5.80372
21
-3.98686
0
LINE
8
BLACK
6
CONTINUOUS
10
5.80372
20
-3.98686
11
5.80804
21
-3.98038
0
LINE
8
BLACK
6
CONTINUOUS
10
5.80804
20
-3.98038
11
5.80819
21
-3.98028
0
LINE
8
BLACK
6
CONTINUOUS
10
5.80819
20
-3.98028
11
5.80826
21
-3.98011
0
LINE
8
BLACK
6
CONTINUOUS
10
5.80826
20
-3.98011
11
5.80875
21
-3.9799
0
LINE
8
BLACK
6
CONTINUOUS
10
5.80875
20
-3.9799
11
5.80918
21
-3.97961
0
LINE
8
BLACK
6
CONTINUOUS
10
5.80918
20
-3.97961
11
5.80937
21
-3.97965
0
LINE
8
BLACK
6
CONTINUOUS
10
5.80937
20
-3.97965
11
5.80954
21
-3.97958
0
LINE
8
BLACK
6
CONTINUOUS
10
5.80954
20
-3.97958
11
5.81002
21
-3.97978
0
LINE
8
BLACK
6
CONTINUOUS
10
5.6224
20
-3.97976
11
5.62253
21
-3.97977
0
LINE
8
BLACK
6
CONTINUOUS
10
5.62253
20
-3.97977
11
5.62291
21
-3.9802
0
LINE
8
BLACK
6
CONTINUOUS
10
5.62291
20
-3.9802
11
5.62334
21
-3.98057
0
LINE
8
BLACK
6
CONTINUOUS
10
5.62334
20
-3.98057
11
5.62335
21
-3.98071
0
LINE
8
BLACK
6
CONTINUOUS
10
5.62335
20
-3.98071
11
5.62343
21
-3.98081
0
LINE
8
BLACK
6
CONTINUOUS
10
5.62343
20
-3.98081
11
5.6389
21
-4.02721
0
LINE
8
BLACK
6
CONTINUOUS
10
5.6389
20
-4.02721
11
5.6388
21
-4.02858
0
LINE
8
BLACK
6
CONTINUOUS
10
5.6388
20
-4.02858
11
5.63776
21
-4.02949
0
LINE
8
BLACK
6
CONTINUOUS
10
5.63776
20
-4.02949
11
5.63639
21
-4.02939
0
LINE
8
BLACK
6
CONTINUOUS
10
5.63639
20
-4.02939
11
5.63549
21
-4.02835
0
LINE
8
BLACK
6
CONTINUOUS
10
5.63549
20
-4.02835
11
5.63148
21
-4.01632
0
LINE
8
BLACK
6
CONTINUOUS
10
5.63148
20
-4.01632
11
5.61198
21
-4.01632
0
LINE
8
BLACK
6
CONTINUOUS
10
5.61198
20
-4.01632
11
5.60797
21
-4.02835
0
LINE
8
BLACK
6
CONTINUOUS
10
5.60797
20
-4.02835
11
5.60707
21
-4.02939
0
LINE
8
BLACK
6
CONTINUOUS
10
5.60707
20
-4.02939
11
5.60569
21
-4.02949
0
LINE
8
BLACK
6
CONTINUOUS
10
5.60569
20
-4.02949
11
5.60465
21
-4.02858
0
LINE
8
BLACK
6
CONTINUOUS
10
5.60465
20
-4.02858
11
5.60455
21
-4.02721
0
LINE
8
BLACK
6
CONTINUOUS
10
5.60455
20
-4.02721
11
5.62002
21
-3.98081
0
LINE
8
BLACK
6
CONTINUOUS
10
5.62002
20
-3.98081
11
5.62011
21
-3.98071
0
LINE
8
BLACK
6
CONTINUOUS
10
5.62011
20
-3.98071
11
5.62012
21
-3.98057
0
LINE
8
BLACK
6
CONTINUOUS
10
5.62012
20
-3.98057
11
5.62055
21
-3.9802
0
LINE
8
BLACK
6
CONTINUOUS
10
5.62055
20
-3.9802
11
5.62092
21
-3.97977
0
LINE
8
BLACK
6
CONTINUOUS
10
5.62092
20
-3.97977
11
5.62106
21
-3.97976
0
LINE
8
BLACK
6
CONTINUOUS
10
5.62106
20
-3.97976
11
5.62116
21
-3.97967
0
LINE
8
BLACK
6
CONTINUOUS
10
5.62116
20
-3.97967
11
5.62173
21
-3.97971
0
LINE
8
BLACK
6
CONTINUOUS
10
5.62173
20
-3.97971
11
5.6223
21
-3.97967
0
LINE
8
BLACK
6
CONTINUOUS
10
5.6223
20
-3.97967
11
5.6224
21
-3.97976
0
LINE
8
BLACK
6
CONTINUOUS
10
5.61318
20
-4.01272
11
5.63028
21
-4.01272
0
LINE
8
BLACK
6
CONTINUOUS
10
5.63028
20
-4.01272
11
5.62173
21
-3.98707
0
LINE
8
BLACK
6
CONTINUOUS
10
5.62173
20
-3.98707
11
5.61318
21
-4.01272
0
LINE
8
BLACK
6
CONTINUOUS
10
5.77767
20
-4.00883
11
5.77819
21
-4.0101
0
LINE
8
BLACK
6
CONTINUOUS
10
5.77819
20
-4.0101
11
5.77767
21
-4.01137
0
LINE
8
BLACK
6
CONTINUOUS
10
5.77767
20
-4.01137
11
5.77639
21
-4.0119
0
LINE
8
BLACK
6
CONTINUOUS
10
5.77639
20
-4.0119
11
5.74104
21
-4.0119
0
LINE
8
BLACK
6
CONTINUOUS
10
5.74104
20
-4.0119
11
5.73977
21
-4.01137
0
LINE
8
BLACK
6
CONTINUOUS
10
5.73977
20
-4.01137
11
5.73924
21
-4.0101
0
LINE
8
BLACK
6
CONTINUOUS
10
5.73924
20
-4.0101
11
5.73977
21
-4.00883
0
LINE
8
BLACK
6
CONTINUOUS
10
5.73977
20
-4.00883
11
5.74104
21
-4.0083
0
LINE
8
BLACK
6
CONTINUOUS
10
5.74104
20
-4.0083
11
5.77639
21
-4.0083
0
LINE
8
BLACK
6
CONTINUOUS
10
5.77639
20
-4.0083
11
5.77767
21
-4.00883
0
LINE
8
BLACK
6
CONTINUOUS
10
6.2065
20
-3.97525
11
6.1865
21
-3.97525
0
LINE
8
BLACK
6
CONTINUOUS
10
6.1865
20
-3.97525
11
6.1865
21
-3.95525
0
LINE
8
BLACK
6
CONTINUOUS
10
6.1865
20
-3.95525
11
6.2065
21
-3.95525
0
LINE
8
BLACK
6
CONTINUOUS
10
6.2065
20
-3.95525
11
6.2065
21
-3.97525
0
LINE
8
BLACK
6
CONTINUOUS
10
6.3065
20
-3.97525
11
6.2865
21
-3.97525
0
LINE
8
BLACK
6
CONTINUOUS
10
6.2865
20
-3.97525
11
6.2865
21
-3.95525
0
LINE
8
BLACK
6
CONTINUOUS
10
6.2865
20
-3.95525
11
6.3065
21
-3.95525
0
LINE
8
BLACK
6
CONTINUOUS
10
6.3065
20
-3.95525
11
6.3065
21
-3.97525
0
LINE
8
BLACK
6
CONTINUOUS
10
5.4065
20
-3.944
11
5.3865
21
-3.944
0
LINE
8
BLACK
6
CONTINUOUS
10
5.3865
20
-3.944
11
5.3865
21
-3.924
0
LINE
8
BLACK
6
CONTINUOUS
10
5.3865
20
-3.924
11
5.4065
21
-3.924
0
LINE
8
BLACK
6
CONTINUOUS
10
5.4065
20
-3.924
11
5.4065
21
-3.944
0
LINE
8
BLACK
6
CONTINUOUS
10
5.5065
20
-3.944
11
5.4865
21
-3.944
0
LINE
8
BLACK
6
CONTINUOUS
10
5.4865
20
-3.944
11
5.4865
21
-3.924
0
LINE
8
BLACK
6
CONTINUOUS
10
5.4865
20
-3.924
11
5.5065
21
-3.924
0
LINE
8
BLACK
6
CONTINUOUS
10
5.5065
20
-3.924
11
5.5065
21
-3.944
0
LINE
8
BLACK
6
CONTINUOUS
10
6.02247
20
-3.85973
11
6.02286
21
-3.85975
0
LINE
8
BLACK
6
CONTINUOUS
10
6.02286
20
-3.85975
11
6.02308
21
-3.85998
0
LINE
8
BLACK
6
CONTINUOUS
10
6.02308
20
-3.85998
11
6.02337
21
-3.86011
0
LINE
8
BLACK
6
CONTINUOUS
10
6.02337
20
-3.86011
11
6.02352
21
-3.86047
0
LINE
8
BLACK
6
CONTINUOUS
10
6.02352
20
-3.86047
11
6.02379
21
-3.86076
0
LINE
8
BLACK
6
CONTINUOUS
10
6.02379
20
-3.86076
11
6.02378
21
-3.86108
0
LINE
8
BLACK
6
CONTINUOUS
10
6.02378
20
-3.86108
11
6.0239
21
-3.86138
0
LINE
8
BLACK
6
CONTINUOUS
10
6.0239
20
-3.86138
11
6.0239
21
-3.90778
0
LINE
8
BLACK
6
CONTINUOUS
10
6.0239
20
-3.90778
11
6.02337
21
-3.90905
0
LINE
8
BLACK
6
CONTINUOUS
10
6.02337
20
-3.90905
11
6.0221
21
-3.90958
0
LINE
8
BLACK
6
CONTINUOUS
10
6.0221
20
-3.90958
11
6.02083
21
-3.90905
0
LINE
8
BLACK
6
CONTINUOUS
10
6.02083
20
-3.90905
11
6.0203
21
-3.90778
0
LINE
8
BLACK
6
CONTINUOUS
10
6.0203
20
-3.90778
11
6.0203
21
-3.86949
0
LINE
8
BLACK
6
CONTINUOUS
10
6.0203
20
-3.86949
11
6.00826
21
-3.89528
0
LINE
8
BLACK
6
CONTINUOUS
10
6.00826
20
-3.89528
11
6.00781
21
-3.8957
0
LINE
8
BLACK
6
CONTINUOUS
10
6.00781
20
-3.8957
11
6.00739
21
-3.89615
0
LINE
8
BLACK
6
CONTINUOUS
10
6.00739
20
-3.89615
11
6.00731
21
-3.89616
0
LINE
8
BLACK
6
CONTINUOUS
10
6.00731
20
-3.89616
11
6.00725
21
-3.89621
0
LINE
8
BLACK
6
CONTINUOUS
10
6.00725
20
-3.89621
11
6.00663
21
-3.89619
0
LINE
8
BLACK
6
CONTINUOUS
10
6.00663
20
-3.89619
11
6.00602
21
-3.89621
0
LINE
8
BLACK
6
CONTINUOUS
10
6.00602
20
-3.89621
11
6.00596
21
-3.89616
0
LINE
8
BLACK
6
CONTINUOUS
10
6.00596
20
-3.89616
11
6.00587
21
-3.89615
0
LINE
8
BLACK
6
CONTINUOUS
10
6.00587
20
-3.89615
11
6.00546
21
-3.8957
0
LINE
8
BLACK
6
CONTINUOUS
10
6.00546
20
-3.8957
11
6.005
21
-3.89528
0
LINE
8
BLACK
6
CONTINUOUS
10
6.005
20
-3.89528
11
5.99297
21
-3.86949
0
LINE
8
BLACK
6
CONTINUOUS
10
5.99297
20
-3.86949
11
5.99297
21
-3.90778
0
LINE
8
BLACK
6
CONTINUOUS
10
5.99297
20
-3.90778
11
5.99244
21
-3.90905
0
LINE
8
BLACK
6
CONTINUOUS
10
5.99244
20
-3.90905
11
5.99117
21
-3.90958
0
LINE
8
BLACK
6
CONTINUOUS
10
5.99117
20
-3.90958
11
5.98989
21
-3.90905
0
LINE
8
BLACK
6
CONTINUOUS
10
5.98989
20
-3.90905
11
5.98937
21
-3.90778
0
LINE
8
BLACK
6
CONTINUOUS
10
5.98937
20
-3.90778
11
5.98937
21
-3.86138
0
LINE
8
BLACK
6
CONTINUOUS
10
5.98937
20
-3.86138
11
5.98949
21
-3.86108
0
LINE
8
BLACK
6
CONTINUOUS
10
5.98949
20
-3.86108
11
5.98947
21
-3.86076
0
LINE
8
BLACK
6
CONTINUOUS
10
5.98947
20
-3.86076
11
5.98974
21
-3.86047
0
LINE
8
BLACK
6
CONTINUOUS
10
5.98974
20
-3.86047
11
5.98989
21
-3.86011
0
LINE
8
BLACK
6
CONTINUOUS
10
5.98989
20
-3.86011
11
5.99019
21
-3.85998
0
LINE
8
BLACK
6
CONTINUOUS
10
5.99019
20
-3.85998
11
5.9904
21
-3.85975
0
LINE
8
BLACK
6
CONTINUOUS
10
5.9904
20
-3.85975
11
5.9908
21
-3.85973
0
LINE
8
BLACK
6
CONTINUOUS
10
5.9908
20
-3.85973
11
5.99117
21
-3.85958
0
LINE
8
BLACK
6
CONTINUOUS
10
5.99117
20
-3.85958
11
5.99146
21
-3.8597
0
LINE
8
BLACK
6
CONTINUOUS
10
5.99146
20
-3.8597
11
5.99178
21
-3.85969
0
LINE
8
BLACK
6
CONTINUOUS
10
5.99178
20
-3.85969
11
5.99207
21
-3.85995
0
LINE
8
BLACK
6
CONTINUOUS
10
5.99207
20
-3.85995
11
5.99244
21
-3.86011
0
LINE
8
BLACK
6
CONTINUOUS
10
5.99244
20
-3.86011
11
5.99256
21
-3.8604
0
LINE
8
BLACK
6
CONTINUOUS
10
5.99256
20
-3.8604
11
5.9928
21
-3.86062
0
LINE
8
BLACK
6
CONTINUOUS
10
5.9928
20
-3.86062
11
6.00663
21
-3.89026
0
LINE
8
BLACK
6
CONTINUOUS
10
6.00663
20
-3.89026
11
6.02047
21
-3.86062
0
LINE
8
BLACK
6
CONTINUOUS
10
6.02047
20
-3.86062
11
6.0207
21
-3.8604
0
LINE
8
BLACK
6
CONTINUOUS
10
6.0207
20
-3.8604
11
6.02083
21
-3.86011
0
LINE
8
BLACK
6
CONTINUOUS
10
6.02083
20
-3.86011
11
6.02119
21
-3.85995
0
LINE
8
BLACK
6
CONTINUOUS
10
6.02119
20
-3.85995
11
6.02148
21
-3.85969
0
LINE
8
BLACK
6
CONTINUOUS
10
6.02148
20
-3.85969
11
6.0218
21
-3.8597
0
LINE
8
BLACK
6
CONTINUOUS
10
6.0218
20
-3.8597
11
6.0221
21
-3.85958
0
LINE
8
BLACK
6
CONTINUOUS
10
6.0221
20
-3.85958
11
6.02247
21
-3.85973
0
LINE
8
BLACK
6
CONTINUOUS
10
6.09761
20
-3.85974
11
6.09803
21
-3.85977
0
LINE
8
BLACK
6
CONTINUOUS
10
6.09803
20
-3.85977
11
6.10245
21
-3.86198
0
LINE
8
BLACK
6
CONTINUOUS
10
6.10245
20
-3.86198
11
6.10264
21
-3.8622
0
LINE
8
BLACK
6
CONTINUOUS
10
6.10264
20
-3.8622
11
6.10291
21
-3.86232
0
LINE
8
BLACK
6
CONTINUOUS
10
6.10291
20
-3.86232
11
6.10512
21
-3.86452
0
LINE
8
BLACK
6
CONTINUOUS
10
6.10512
20
-3.86452
11
6.10524
21
-3.8648
0
LINE
8
BLACK
6
CONTINUOUS
10
6.10524
20
-3.8648
11
6.10546
21
-3.86499
0
LINE
8
BLACK
6
CONTINUOUS
10
6.10546
20
-3.86499
11
6.10767
21
-3.86941
0
LINE
8
BLACK
6
CONTINUOUS
10
6.10767
20
-3.86941
11
6.10769
21
-3.86962
0
LINE
8
BLACK
6
CONTINUOUS
10
6.10769
20
-3.86962
11
6.10781
21
-3.86978
0
LINE
8
BLACK
6
CONTINUOUS
10
6.10781
20
-3.86978
11
6.11002
21
-3.87862
0
LINE
8
BLACK
6
CONTINUOUS
10
6.11002
20
-3.87862
11
6.10998
21
-3.87884
0
LINE
8
BLACK
6
CONTINUOUS
10
6.10998
20
-3.87884
11
6.11007
21
-3.87905
0
LINE
8
BLACK
6
CONTINUOUS
10
6.11007
20
-3.87905
11
6.11007
21
-3.8901
0
LINE
8
BLACK
6
CONTINUOUS
10
6.11007
20
-3.8901
11
6.10998
21
-3.89031
0
LINE
8
BLACK
6
CONTINUOUS
10
6.10998
20
-3.89031
11
6.11002
21
-3.89054
0
LINE
8
BLACK
6
CONTINUOUS
10
6.11002
20
-3.89054
11
6.10781
21
-3.89938
0
LINE
8
BLACK
6
CONTINUOUS
10
6.10781
20
-3.89938
11
6.10769
21
-3.89954
0
LINE
8
BLACK
6
CONTINUOUS
10
6.10769
20
-3.89954
11
6.10767
21
-3.89975
0
LINE
8
BLACK
6
CONTINUOUS
10
6.10767
20
-3.89975
11
6.10546
21
-3.90416
0
LINE
8
BLACK
6
CONTINUOUS
10
6.10546
20
-3.90416
11
6.10524
21
-3.90436
0
LINE
8
BLACK
6
CONTINUOUS
10
6.10524
20
-3.90436
11
6.10512
21
-3.90463
0
LINE
8
BLACK
6
CONTINUOUS
10
6.10512
20
-3.90463
11
6.10291
21
-3.90684
0
LINE
8
BLACK
6
CONTINUOUS
10
6.10291
20
-3.90684
11
6.10264
21
-3.90695
0
LINE
8
BLACK
6
CONTINUOUS
10
6.10264
20
-3.90695
11
6.10245
21
-3.90718
0
LINE
8
BLACK
6
CONTINUOUS
10
6.10245
20
-3.90718
11
6.09803
21
-3.90939
0
LINE
8
BLACK
6
CONTINUOUS
10
6.09803
20
-3.90939
11
6.09761
21
-3.90942
0
LINE
8
BLACK
6
CONTINUOUS
10
6.09761
20
-3.90942
11
6.09722
21
-3.90958
0
LINE
8
BLACK
6
CONTINUOUS
10
6.09722
20
-3.90958
11
6.0928
21
-3.90958
0
LINE
8
BLACK
6
CONTINUOUS
10
6.0928
20
-3.90958
11
6.09242
21
-3.90942
0
LINE
8
BLACK
6
CONTINUOUS
10
6.09242
20
-3.90942
11
6.092
21
-3.90939
0
LINE
8
BLACK
6
CONTINUOUS
10
6.092
20
-3.90939
11
6.08758
21
-3.90718
0
LINE
8
BLACK
6
CONTINUOUS
10
6.08758
20
-3.90718
11
6.08739
21
-3.90695
0
LINE
8
BLACK
6
CONTINUOUS
10
6.08739
20
-3.90695
11
6.08711
21
-3.90684
0
LINE
8
BLACK
6
CONTINUOUS
10
6.08711
20
-3.90684
11
6.0849
21
-3.90463
0
LINE
8
BLACK
6
CONTINUOUS
10
6.0849
20
-3.90463
11
6.08479
21
-3.90436
0
LINE
8
BLACK
6
CONTINUOUS
10
6.08479
20
-3.90436
11
6.08457
21
-3.90416
0
LINE
8
BLACK
6
CONTINUOUS
10
6.08457
20
-3.90416
11
6.08236
21
-3.89975
0
LINE
8
BLACK
6
CONTINUOUS
10
6.08236
20
-3.89975
11
6.08234
21
-3.89954
0
LINE
8
BLACK
6
CONTINUOUS
10
6.08234
20
-3.89954
11
6.08222
21
-3.89938
0
LINE
8
BLACK
6
CONTINUOUS
10
6.08222
20
-3.89938
11
6.08001
21
-3.89054
0
LINE
8
BLACK
6
CONTINUOUS
10
6.08001
20
-3.89054
11
6.08004
21
-3.89031
0
LINE
8
BLACK
6
CONTINUOUS
10
6.08004
20
-3.89031
11
6.07996
21
-3.8901
0
LINE
8
BLACK
6
CONTINUOUS
10
6.07996
20
-3.8901
11
6.07996
21
-3.87905
0
LINE
8
BLACK
6
CONTINUOUS
10
6.07996
20
-3.87905
11
6.08004
21
-3.87884
0
LINE
8
BLACK
6
CONTINUOUS
10
6.08004
20
-3.87884
11
6.08001
21
-3.87862
0
LINE
8
BLACK
6
CONTINUOUS
10
6.08001
20
-3.87862
11
6.08222
21
-3.86978
0
LINE
8
BLACK
6
CONTINUOUS
10
6.08222
20
-3.86978
11
6.08234
21
-3.86962
0
LINE
8
BLACK
6
CONTINUOUS
10
6.08234
20
-3.86962
11
6.08236
21
-3.86941
0
LINE
8
BLACK
6
CONTINUOUS
10
6.08236
20
-3.86941
11
6.08457
21
-3.86499
0
LINE
8
BLACK
6
CONTINUOUS
10
6.08457
20
-3.86499
11
6.08479
21
-3.8648
0
LINE
8
BLACK
6
CONTINUOUS
10
6.08479
20
-3.8648
11
6.0849
21
-3.86452
0
LINE
8
BLACK
6
CONTINUOUS
10
6.0849
20
-3.86452
11
6.08711
21
-3.86232
0
LINE
8
BLACK
6
CONTINUOUS
10
6.08711
20
-3.86232
11
6.08739
21
-3.8622
0
LINE
8
BLACK
6
CONTINUOUS
10
6.08739
20
-3.8622
11
6.08758
21
-3.86198
0
LINE
8
BLACK
6
CONTINUOUS
10
6.08758
20
-3.86198
11
6.092
21
-3.85977
0
LINE
8
BLACK
6
CONTINUOUS
10
6.092
20
-3.85977
11
6.09242
21
-3.85974
0
LINE
8
BLACK
6
CONTINUOUS
10
6.09242
20
-3.85974
11
6.0928
21
-3.85958
0
LINE
8
BLACK
6
CONTINUOUS
10
6.0928
20
-3.85958
11
6.09722
21
-3.85958
0
LINE
8
BLACK
6
CONTINUOUS
10
6.09722
20
-3.85958
11
6.09761
21
-3.85974
0
LINE
8
BLACK
6
CONTINUOUS
10
6.08945
20
-3.86507
11
6.08765
21
-3.86686
0
LINE
8
BLACK
6
CONTINUOUS
10
6.08765
20
-3.86686
11
6.08566
21
-3.87084
0
LINE
8
BLACK
6
CONTINUOUS
10
6.08566
20
-3.87084
11
6.08356
21
-3.87928
0
LINE
8
BLACK
6
CONTINUOUS
10
6.08356
20
-3.87928
11
6.08356
21
-3.88988
0
LINE
8
BLACK
6
CONTINUOUS
10
6.08356
20
-3.88988
11
6.08566
21
-3.89831
0
LINE
8
BLACK
6
CONTINUOUS
10
6.08566
20
-3.89831
11
6.08765
21
-3.90229
0
LINE
8
BLACK
6
CONTINUOUS
10
6.08765
20
-3.90229
11
6.08945
21
-3.90409
0
LINE
8
BLACK
6
CONTINUOUS
10
6.08945
20
-3.90409
11
6.09323
21
-3.90598
0
LINE
8
BLACK
6
CONTINUOUS
10
6.09323
20
-3.90598
11
6.0968
21
-3.90598
0
LINE
8
BLACK
6
CONTINUOUS
10
6.0968
20
-3.90598
11
6.10058
21
-3.90409
0
LINE
8
BLACK
6
CONTINUOUS
10
6.10058
20
-3.90409
11
6.10237
21
-3.90229
0
LINE
8
BLACK
6
CONTINUOUS
10
6.10237
20
-3.90229
11
6.10436
21
-3.89831
0
LINE
8
BLACK
6
CONTINUOUS
10
6.10436
20
-3.89831
11
6.10647
21
-3.88988
0
LINE
8
BLACK
6
CONTINUOUS
10
6.10647
20
-3.88988
11
6.10647
21
-3.87928
0
LINE
8
BLACK
6
CONTINUOUS
10
6.10647
20
-3.87928
11
6.10436
21
-3.87084
0
LINE
8
BLACK
6
CONTINUOUS
10
6.10436
20
-3.87084
11
6.10237
21
-3.86686
0
LINE
8
BLACK
6
CONTINUOUS
10
6.10237
20
-3.86686
11
6.10058
21
-3.86507
0
LINE
8
BLACK
6
CONTINUOUS
10
6.10058
20
-3.86507
11
6.0968
21
-3.86318
0
LINE
8
BLACK
6
CONTINUOUS
10
6.0968
20
-3.86318
11
6.09323
21
-3.86318
0
LINE
8
BLACK
6
CONTINUOUS
10
6.09323
20
-3.86318
11
6.08945
21
-3.86507
0
LINE
8
BLACK
6
CONTINUOUS
10
6.13969
20
-3.85978
11
6.1402
21
-3.85988
0
LINE
8
BLACK
6
CONTINUOUS
10
6.1402
20
-3.85988
11
6.14031
21
-3.86003
0
LINE
8
BLACK
6
CONTINUOUS
10
6.14031
20
-3.86003
11
6.14048
21
-3.86011
0
LINE
8
BLACK
6
CONTINUOUS
10
6.14048
20
-3.86011
11
6.14068
21
-3.86059
0
LINE
8
BLACK
6
CONTINUOUS
10
6.14068
20
-3.86059
11
6.14097
21
-3.86103
0
LINE
8
BLACK
6
CONTINUOUS
10
6.14097
20
-3.86103
11
6.14093
21
-3.86121
0
LINE
8
BLACK
6
CONTINUOUS
10
6.14093
20
-3.86121
11
6.141
21
-3.86138
0
LINE
8
BLACK
6
CONTINUOUS
10
6.141
20
-3.86138
11
6.141
21
-3.90598
0
LINE
8
BLACK
6
CONTINUOUS
10
6.141
20
-3.90598
11
6.15246
21
-3.90598
0
LINE
8
BLACK
6
CONTINUOUS
10
6.15246
20
-3.90598
11
6.15373
21
-3.90651
0
LINE
8
BLACK
6
CONTINUOUS
10
6.15373
20
-3.90651
11
6.15426
21
-3.90778
0
LINE
8
BLACK
6
CONTINUOUS
10
6.15426
20
-3.90778
11
6.15373
21
-3.90905
0
LINE
8
BLACK
6
CONTINUOUS
10
6.15373
20
-3.90905
11
6.15246
21
-3.90958
0
LINE
8
BLACK
6
CONTINUOUS
10
6.15246
20
-3.90958
11
6.1392
21
-3.90958
0
LINE
8
BLACK
6
CONTINUOUS
10
6.1392
20
-3.90958
11
6.12595
21
-3.90958
0
LINE
8
BLACK
6
CONTINUOUS
10
6.12595
20
-3.90958
11
6.12467
21
-3.90905
0
LINE
8
BLACK
6
CONTINUOUS
10
6.12467
20
-3.90905
11
6.12415
21
-3.90778
0
LINE
8
BLACK
6
CONTINUOUS
10
6.12415
20
-3.90778
11
6.12467
21
-3.90651
0
LINE
8
BLACK
6
CONTINUOUS
10
6.12467
20
-3.90651
11
6.12595
21
-3.90598
0
LINE
8
BLACK
6
CONTINUOUS
10
6.12595
20
-3.90598
11
6.1374
21
-3.90598
0
LINE
8
BLACK
6
CONTINUOUS
10
6.1374
20
-3.90598
11
6.1374
21
-3.86732
0
LINE
8
BLACK
6
CONTINUOUS
10
6.1374
20
-3.86732
11
6.13628
21
-3.86901
0
LINE
8
BLACK
6
CONTINUOUS
10
6.13628
20
-3.86901
11
6.13613
21
-3.86911
0
LINE
8
BLACK
6
CONTINUOUS
10
6.13613
20
-3.86911
11
6.13606
21
-3.86928
0
LINE
8
BLACK
6
CONTINUOUS
10
6.13606
20
-3.86928
11
6.13164
21
-3.8737
0
LINE
8
BLACK
6
CONTINUOUS
10
6.13164
20
-3.8737
11
6.13137
21
-3.87381
0
LINE
8
BLACK
6
CONTINUOUS
10
6.13137
20
-3.87381
11
6.13117
21
-3.87404
0
LINE
8
BLACK
6
CONTINUOUS
10
6.13117
20
-3.87404
11
6.12675
21
-3.87625
0
LINE
8
BLACK
6
CONTINUOUS
10
6.12675
20
-3.87625
11
6.12538
21
-3.87634
0
LINE
8
BLACK
6
CONTINUOUS
10
6.12538
20
-3.87634
11
6.12434
21
-3.87544
0
LINE
8
BLACK
6
CONTINUOUS
10
6.12434
20
-3.87544
11
6.12424
21
-3.87407
0
LINE
8
BLACK
6
CONTINUOUS
10
6.12424
20
-3.87407
11
6.12514
21
-3.87303
0
LINE
8
BLACK
6
CONTINUOUS
10
6.12514
20
-3.87303
11
6.1293
21
-3.87095
0
LINE
8
BLACK
6
CONTINUOUS
10
6.1293
20
-3.87095
11
6.13339
21
-3.86686
0
LINE
8
BLACK
6
CONTINUOUS
10
6.13339
20
-3.86686
11
6.13771
21
-3.86038
0
LINE
8
BLACK
6
CONTINUOUS
10
6.13771
20
-3.86038
11
6.13786
21
-3.86028
0
LINE
8
BLACK
6
CONTINUOUS
10
6.13786
20
-3.86028
11
6.13793
21
-3.86011
0
LINE
8
BLACK
6
CONTINUOUS
10
6.13793
20
-3.86011
11
6.13842
21
-3.8599
0
LINE
8
BLACK
6
CONTINUOUS
10
6.13842
20
-3.8599
11
6.13885
21
-3.85961
0
LINE
8
BLACK
6
CONTINUOUS
10
6.13885
20
-3.85961
11
6.13903
21
-3.85965
0
LINE
8
BLACK
6
CONTINUOUS
10
6.13903
20
-3.85965
11
6.1392
21
-3.85958
0
LINE
8
BLACK
6
CONTINUOUS
10
6.1392
20
-3.85958
11
6.13969
21
-3.85978
0
LINE
8
BLACK
6
CONTINUOUS
10
6.24133
20
-3.85978
11
6.24184
21
-3.85988
0
LINE
8
BLACK
6
CONTINUOUS
10
6.24184
20
-3.85988
11
6.24194
21
-3.86003
0
LINE
8
BLACK
6
CONTINUOUS
10
6.24194
20
-3.86003
11
6.24212
21
-3.86011
0
LINE
8
BLACK
6
CONTINUOUS
10
6.24212
20
-3.86011
11
6.24232
21
-3.86059
0
LINE
8
BLACK
6
CONTINUOUS
10
6.24232
20
-3.86059
11
6.24261
21
-3.86103
0
LINE
8
BLACK
6
CONTINUOUS
10
6.24261
20
-3.86103
11
6.24257
21
-3.86121
0
LINE
8
BLACK
6
CONTINUOUS
10
6.24257
20
-3.86121
11
6.24264
21
-3.86138
0
LINE
8
BLACK
6
CONTINUOUS
10
6.24264
20
-3.86138
11
6.24264
21
-3.90598
0
LINE
8
BLACK
6
CONTINUOUS
10
6.24264
20
-3.90598
11
6.2541
21
-3.90598
0
LINE
8
BLACK
6
CONTINUOUS
10
6.2541
20
-3.90598
11
6.25537
21
-3.90651
0
LINE
8
BLACK
6
CONTINUOUS
10
6.25537
20
-3.90651
11
6.2559
21
-3.90778
0
LINE
8
BLACK
6
CONTINUOUS
10
6.2559
20
-3.90778
11
6.25537
21
-3.90905
0
LINE
8
BLACK
6
CONTINUOUS
10
6.25537
20
-3.90905
11
6.2541
21
-3.90958
0
LINE
8
BLACK
6
CONTINUOUS
10
6.2541
20
-3.90958
11
6.24084
21
-3.90958
0
LINE
8
BLACK
6
CONTINUOUS
10
6.24084
20
-3.90958
11
6.22759
21
-3.90958
0
LINE
8
BLACK
6
CONTINUOUS
10
6.22759
20
-3.90958
11
6.22631
21
-3.90905
0
LINE
8
BLACK
6
CONTINUOUS
10
6.22631
20
-3.90905
11
6.22579
21
-3.90778
0
LINE
8
BLACK
6
CONTINUOUS
10
6.22579
20
-3.90778
11
6.22631
21
-3.90651
0
LINE
8
BLACK
6
CONTINUOUS
10
6.22631
20
-3.90651
11
6.22759
21
-3.90598
0
LINE
8
BLACK
6
CONTINUOUS
10
6.22759
20
-3.90598
11
6.23904
21
-3.90598
0
LINE
8
BLACK
6
CONTINUOUS
10
6.23904
20
-3.90598
11
6.23904
21
-3.86732
0
LINE
8
BLACK
6
CONTINUOUS
10
6.23904
20
-3.86732
11
6.23792
21
-3.86901
0
LINE
8
BLACK
6
CONTINUOUS
10
6.23792
20
-3.86901
11
6.23777
21
-3.86911
0
LINE
8
BLACK
6
CONTINUOUS
10
6.23777
20
-3.86911
11
6.2377
21
-3.86928
0
LINE
8
BLACK
6
CONTINUOUS
10
6.2377
20
-3.86928
11
6.23328
21
-3.8737
0
LINE
8
BLACK
6
CONTINUOUS
10
6.23328
20
-3.8737
11
6.233
21
-3.87381
0
LINE
8
BLACK
6
CONTINUOUS
10
6.233
20
-3.87381
11
6.23281
21
-3.87404
0
LINE
8
BLACK
6
CONTINUOUS
10
6.23281
20
-3.87404
11
6.22839
21
-3.87625
0
LINE
8
BLACK
6
CONTINUOUS
10
6.22839
20
-3.87625
11
6.22702
21
-3.87634
0
LINE
8
BLACK
6
CONTINUOUS
10
6.22702
20
-3.87634
11
6.22598
21
-3.87544
0
LINE
8
BLACK
6
CONTINUOUS
10
6.22598
20
-3.87544
11
6.22588
21
-3.87407
0
LINE
8
BLACK
6
CONTINUOUS
10
6.22588
20
-3.87407
11
6.22678
21
-3.87303
0
LINE
8
BLACK
6
CONTINUOUS
10
6.22678
20
-3.87303
11
6.23094
21
-3.87095
0
LINE
8
BLACK
6
CONTINUOUS
10
6.23094
20
-3.87095
11
6.23502
21
-3.86686
0
LINE
8
BLACK
6
CONTINUOUS
10
6.23502
20
-3.86686
11
6.23934
21
-3.86038
0
LINE
8
BLACK
6
CONTINUOUS
10
6.23934
20
-3.86038
11
6.2395
21
-3.86028
0
LINE
8
BLACK
6
CONTINUOUS
10
6.2395
20
-3.86028
11
6.23957
21
-3.86011
0
LINE
8
BLACK
6
CONTINUOUS
10
6.23957
20
-3.86011
11
6.24005
21
-3.8599
0
LINE
8
BLACK
6
CONTINUOUS
10
6.24005
20
-3.8599
11
6.24049
21
-3.85961
0
LINE
8
BLACK
6
CONTINUOUS
10
6.24049
20
-3.85961
11
6.24067
21
-3.85965
0
LINE
8
BLACK
6
CONTINUOUS
10
6.24067
20
-3.85965
11
6.24084
21
-3.85958
0
LINE
8
BLACK
6
CONTINUOUS
10
6.24084
20
-3.85958
11
6.24133
21
-3.85978
0
LINE
8
BLACK
6
CONTINUOUS
10
6.0537
20
-3.85976
11
6.05384
21
-3.85977
0
LINE
8
BLACK
6
CONTINUOUS
10
6.05384
20
-3.85977
11
6.05421
21
-3.8602
0
LINE
8
BLACK
6
CONTINUOUS
10
6.05421
20
-3.8602
11
6.05464
21
-3.86057
0
LINE
8
BLACK
6
CONTINUOUS
10
6.05464
20
-3.86057
11
6.05465
21
-3.86071
0
LINE
8
BLACK
6
CONTINUOUS
10
6.05465
20
-3.86071
11
6.05474
21
-3.86081
0
LINE
8
BLACK
6
CONTINUOUS
10
6.05474
20
-3.86081
11
6.07021
21
-3.90721
0
LINE
8
BLACK
6
CONTINUOUS
10
6.07021
20
-3.90721
11
6.07011
21
-3.90858
0
LINE
8
BLACK
6
CONTINUOUS
10
6.07011
20
-3.90858
11
6.06907
21
-3.90949
0
LINE
8
BLACK
6
CONTINUOUS
10
6.06907
20
-3.90949
11
6.06769
21
-3.90939
0
LINE
8
BLACK
6
CONTINUOUS
10
6.06769
20
-3.90939
11
6.06679
21
-3.90835
0
LINE
8
BLACK
6
CONTINUOUS
10
6.06679
20
-3.90835
11
6.06278
21
-3.89632
0
LINE
8
BLACK
6
CONTINUOUS
10
6.06278
20
-3.89632
11
6.04328
21
-3.89632
0
LINE
8
BLACK
6
CONTINUOUS
10
6.04328
20
-3.89632
11
6.03927
21
-3.90835
0
LINE
8
BLACK
6
CONTINUOUS
10
6.03927
20
-3.90835
11
6.03837
21
-3.90939
0
LINE
8
BLACK
6
CONTINUOUS
10
6.03837
20
-3.90939
11
6.037
21
-3.90949
0
LINE
8
BLACK
6
CONTINUOUS
10
6.037
20
-3.90949
11
6.03596
21
-3.90858
0
LINE
8
BLACK
6
CONTINUOUS
10
6.03596
20
-3.90858
11
6.03586
21
-3.90721
0
LINE
8
BLACK
6
CONTINUOUS
10
6.03586
20
-3.90721
11
6.05133
21
-3.86081
0
LINE
8
BLACK
6
CONTINUOUS
10
6.05133
20
-3.86081
11
6.05141
21
-3.86071
0
LINE
8
BLACK
6
CONTINUOUS
10
6.05141
20
-3.86071
11
6.05142
21
-3.86057
0
LINE
8
BLACK
6
CONTINUOUS
10
6.05142
20
-3.86057
11
6.05185
21
-3.8602
0
LINE
8
BLACK
6
CONTINUOUS
10
6.05185
20
-3.8602
11
6.05223
21
-3.85977
0
LINE
8
BLACK
6
CONTINUOUS
10
6.05223
20
-3.85977
11
6.05236
21
-3.85976
0
LINE
8
BLACK
6
CONTINUOUS
10
6.05236
20
-3.85976
11
6.05246
21
-3.85967
0
LINE
8
BLACK
6
CONTINUOUS
10
6.05246
20
-3.85967
11
6.05303
21
-3.85971
0
LINE
8
BLACK
6
CONTINUOUS
10
6.05303
20
-3.85971
11
6.0536
21
-3.85967
0
LINE
8
BLACK
6
CONTINUOUS
10
6.0536
20
-3.85967
11
6.0537
21
-3.85976
0
LINE
8
BLACK
6
CONTINUOUS
10
6.04448
20
-3.89272
11
6.06158
21
-3.89272
0
LINE
8
BLACK
6
CONTINUOUS
10
6.06158
20
-3.89272
11
6.05303
21
-3.86707
0
LINE
8
BLACK
6
CONTINUOUS
10
6.05303
20
-3.86707
11
6.04448
21
-3.89272
0
LINE
8
BLACK
6
CONTINUOUS
10
6.43405
20
-3.86963
11
6.43458
21
-3.8709
0
LINE
8
BLACK
6
CONTINUOUS
10
6.43458
20
-3.8709
11
6.43405
21
-3.87217
0
LINE
8
BLACK
6
CONTINUOUS
10
6.43405
20
-3.87217
11
6.43278
21
-3.8727
0
LINE
8
BLACK
6
CONTINUOUS
10
6.43278
20
-3.8727
11
6.39449
21
-3.8727
0
LINE
8
BLACK
6
CONTINUOUS
10
6.39449
20
-3.8727
11
6.42028
21
-3.88474
0
LINE
8
BLACK
6
CONTINUOUS
10
6.42028
20
-3.88474
11
6.4207
21
-3.88519
0
LINE
8
BLACK
6
CONTINUOUS
10
6.4207
20
-3.88519
11
6.42115
21
-3.88561
0
LINE
8
BLACK
6
CONTINUOUS
10
6.42115
20
-3.88561
11
6.42116
21
-3.88569
0
LINE
8
BLACK
6
CONTINUOUS
10
6.42116
20
-3.88569
11
6.42121
21
-3.88575
0
LINE
8
BLACK
6
CONTINUOUS
10
6.42121
20
-3.88575
11
6.42119
21
-3.88637
0
LINE
8
BLACK
6
CONTINUOUS
10
6.42119
20
-3.88637
11
6.42121
21
-3.88698
0
LINE
8
BLACK
6
CONTINUOUS
10
6.42121
20
-3.88698
11
6.42116
21
-3.88704
0
LINE
8
BLACK
6
CONTINUOUS
10
6.42116
20
-3.88704
11
6.42115
21
-3.88713
0
LINE
8
BLACK
6
CONTINUOUS
10
6.42115
20
-3.88713
11
6.4207
21
-3.88754
0
LINE
8
BLACK
6
CONTINUOUS
10
6.4207
20
-3.88754
11
6.42028
21
-3.888
0
LINE
8
BLACK
6
CONTINUOUS
10
6.42028
20
-3.888
11
6.39449
21
-3.90003
0
LINE
8
BLACK
6
CONTINUOUS
10
6.39449
20
-3.90003
11
6.43278
21
-3.90003
0
LINE
8
BLACK
6
CONTINUOUS
10
6.43278
20
-3.90003
11
6.43405
21
-3.90056
0
LINE
8
BLACK
6
CONTINUOUS
10
6.43405
20
-3.90056
11
6.43458
21
-3.90183
0
LINE
8
BLACK
6
CONTINUOUS
10
6.43458
20
-3.90183
11
6.43405
21
-3.90311
0
LINE
8
BLACK
6
CONTINUOUS
10
6.43405
20
-3.90311
11
6.43278
21
-3.90363
0
LINE
8
BLACK
6
CONTINUOUS
10
6.43278
20
-3.90363
11
6.38638
21
-3.90363
0
LINE
8
BLACK
6
CONTINUOUS
10
6.38638
20
-3.90363
11
6.38608
21
-3.90351
0
LINE
8
BLACK
6
CONTINUOUS
10
6.38608
20
-3.90351
11
6.38576
21
-3.90353
0
LINE
8
BLACK
6
CONTINUOUS
10
6.38576
20
-3.90353
11
6.38547
21
-3.90326
0
LINE
8
BLACK
6
CONTINUOUS
10
6.38547
20
-3.90326
11
6.38511
21
-3.90311
0
LINE
8
BLACK
6
CONTINUOUS
10
6.38511
20
-3.90311
11
6.38498
21
-3.90281
0
LINE
8
BLACK
6
CONTINUOUS
10
6.38498
20
-3.90281
11
6.38475
21
-3.9026
0
LINE
8
BLACK
6
CONTINUOUS
10
6.38475
20
-3.9026
11
6.38473
21
-3.9022
0
LINE
8
BLACK
6
CONTINUOUS
10
6.38473
20
-3.9022
11
6.38458
21
-3.90183
0
LINE
8
BLACK
6
CONTINUOUS
10
6.38458
20
-3.90183
11
6.3847
21
-3.90154
0
LINE
8
BLACK
6
CONTINUOUS
10
6.3847
20
-3.90154
11
6.38469
21
-3.90122
0
LINE
8
BLACK
6
CONTINUOUS
10
6.38469
20
-3.90122
11
6.38495
21
-3.90093
0
LINE
8
BLACK
6
CONTINUOUS
10
6.38495
20
-3.90093
11
6.38511
21
-3.90056
0
LINE
8
BLACK
6
CONTINUOUS
10
6.38511
20
-3.90056
11
6.3854
21
-3.90044
0
LINE
8
BLACK
6
CONTINUOUS
10
6.3854
20
-3.90044
11
6.38562
21
-3.9002
0
LINE
8
BLACK
6
CONTINUOUS
10
6.38562
20
-3.9002
11
6.41526
21
-3.88637
0
LINE
8
BLACK
6
CONTINUOUS
10
6.41526
20
-3.88637
11
6.38562
21
-3.87253
0
LINE
8
BLACK
6
CONTINUOUS
10
6.38562
20
-3.87253
11
6.3854
21
-3.8723
0
LINE
8
BLACK
6
CONTINUOUS
10
6.3854
20
-3.8723
11
6.38511
21
-3.87217
0
LINE
8
BLACK
6
CONTINUOUS
10
6.38511
20
-3.87217
11
6.38495
21
-3.87181
0
LINE
8
BLACK
6
CONTINUOUS
10
6.38495
20
-3.87181
11
6.38469
21
-3.87152
0
LINE
8
BLACK
6
CONTINUOUS
10
6.38469
20
-3.87152
11
6.3847
21
-3.8712
0
LINE
8
BLACK
6
CONTINUOUS
10
6.3847
20
-3.8712
11
6.38458
21
-3.8709
0
LINE
8
BLACK
6
CONTINUOUS
10
6.38458
20
-3.8709
11
6.38473
21
-3.87053
0
LINE
8
BLACK
6
CONTINUOUS
10
6.38473
20
-3.87053
11
6.38475
21
-3.87014
0
LINE
8
BLACK
6
CONTINUOUS
10
6.38475
20
-3.87014
11
6.38498
21
-3.86992
0
LINE
8
BLACK
6
CONTINUOUS
10
6.38498
20
-3.86992
11
6.38511
21
-3.86963
0
LINE
8
BLACK
6
CONTINUOUS
10
6.38511
20
-3.86963
11
6.38547
21
-3.86948
0
LINE
8
BLACK
6
CONTINUOUS
10
6.38547
20
-3.86948
11
6.38576
21
-3.86921
0
LINE
8
BLACK
6
CONTINUOUS
10
6.38576
20
-3.86921
11
6.38608
21
-3.86922
0
LINE
8
BLACK
6
CONTINUOUS
10
6.38608
20
-3.86922
11
6.38638
21
-3.8691
0
LINE
8
BLACK
6
CONTINUOUS
10
6.38638
20
-3.8691
11
6.43278
21
-3.8691
0
LINE
8
BLACK
6
CONTINUOUS
10
6.43278
20
-3.8691
11
6.43405
21
-3.86963
0
LINE
8
BLACK
6
CONTINUOUS
10
6.20897
20
-3.88883
11
6.2095
21
-3.8901
0
LINE
8
BLACK
6
CONTINUOUS
10
6.2095
20
-3.8901
11
6.20897
21
-3.89137
0
LINE
8
BLACK
6
CONTINUOUS
10
6.20897
20
-3.89137
11
6.2077
21
-3.8919
0
LINE
8
BLACK
6
CONTINUOUS
10
6.2077
20
-3.8919
11
6.17235
21
-3.8919
0
LINE
8
BLACK
6
CONTINUOUS
10
6.17235
20
-3.8919
11
6.17107
21
-3.89137
0
LINE
8
BLACK
6
CONTINUOUS
10
6.17107
20
-3.89137
11
6.17055
21
-3.8901
0
LINE
8
BLACK
6
CONTINUOUS
10
6.17055
20
-3.8901
11
6.17107
21
-3.88883
0
LINE
8
BLACK
6
CONTINUOUS
10
6.17107
20
-3.88883
11
6.17235
21
-3.8883
0
LINE
8
BLACK
6
CONTINUOUS
10
6.17235
20
-3.8883
11
6.2077
21
-3.8883
0
LINE
8
BLACK
6
CONTINUOUS
10
6.2077
20
-3.8883
11
6.20897
21
-3.88883
0
LINE
8
BLACK
6
CONTINUOUS
10
6.2065
20
-3.87525
11
6.1865
21
-3.87525
0
LINE
8
BLACK
6
CONTINUOUS
10
6.1865
20
-3.87525
11
6.1865
21
-3.85525
0
LINE
8
BLACK
6
CONTINUOUS
10
6.1865
20
-3.85525
11
6.2065
21
-3.85525
0
LINE
8
BLACK
6
CONTINUOUS
10
6.2065
20
-3.85525
11
6.2065
21
-3.87525
0
LINE
8
BLACK
6
CONTINUOUS
10
6.3065
20
-3.87525
11
6.2865
21
-3.87525
0
LINE
8
BLACK
6
CONTINUOUS
10
6.2865
20
-3.87525
11
6.2865
21
-3.85525
0
LINE
8
BLACK
6
CONTINUOUS
10
6.2865
20
-3.85525
11
6.3065
21
-3.85525
0
LINE
8
BLACK
6
CONTINUOUS
10
6.3065
20
-3.85525
11
6.3065
21
-3.87525
0
LINE
8
BLACK
6
CONTINUOUS
10
5.63405
20
-3.83838
11
5.63458
21
-3.83965
0
LINE
8
BLACK
6
CONTINUOUS
10
5.63458
20
-3.83965
11
5.63405
21
-3.84092
0
LINE
8
BLACK
6
CONTINUOUS
10
5.63405
20
-3.84092
11
5.63278
21
-3.84145
0
LINE
8
BLACK
6
CONTINUOUS
10
5.63278
20
-3.84145
11
5.59449
21
-3.84145
0
LINE
8
BLACK
6
CONTINUOUS
10
5.59449
20
-3.84145
11
5.62028
21
-3.85349
0
LINE
8
BLACK
6
CONTINUOUS
10
5.62028
20
-3.85349
11
5.6207
21
-3.85394
0
LINE
8
BLACK
6
CONTINUOUS
10
5.6207
20
-3.85394
11
5.62115
21
-3.85436
0
LINE
8
BLACK
6
CONTINUOUS
10
5.62115
20
-3.85436
11
5.62116
21
-3.85444
0
LINE
8
BLACK
6
CONTINUOUS
10
5.62116
20
-3.85444
11
5.62121
21
-3.8545
0
LINE
8
BLACK
6
CONTINUOUS
10
5.62121
20
-3.8545
11
5.62119
21
-3.85512
0
LINE
8
BLACK
6
CONTINUOUS
10
5.62119
20
-3.85512
11
5.62121
21
-3.85573
0
LINE
8
BLACK
6
CONTINUOUS
10
5.62121
20
-3.85573
11
5.62116
21
-3.85579
0
LINE
8
BLACK
6
CONTINUOUS
10
5.62116
20
-3.85579
11
5.62115
21
-3.85588
0
LINE
8
BLACK
6
CONTINUOUS
10
5.62115
20
-3.85588
11
5.6207
21
-3.85629
0
LINE
8
BLACK
6
CONTINUOUS
10
5.6207
20
-3.85629
11
5.62028
21
-3.85675
0
LINE
8
BLACK
6
CONTINUOUS
10
5.62028
20
-3.85675
11
5.59449
21
-3.86878
0
LINE
8
BLACK
6
CONTINUOUS
10
5.59449
20
-3.86878
11
5.63278
21
-3.86878
0
LINE
8
BLACK
6
CONTINUOUS
10
5.63278
20
-3.86878
11
5.63405
21
-3.86931
0
LINE
8
BLACK
6
CONTINUOUS
10
5.63405
20
-3.86931
11
5.63458
21
-3.87058
0
LINE
8
BLACK
6
CONTINUOUS
10
5.63458
20
-3.87058
11
5.63405
21
-3.87186
0
LINE
8
BLACK
6
CONTINUOUS
10
5.63405
20
-3.87186
11
5.63278
21
-3.87238
0
LINE
8
BLACK
6
CONTINUOUS
10
5.63278
20
-3.87238
11
5.58638
21
-3.87238
0
LINE
8
BLACK
6
CONTINUOUS
10
5.58638
20
-3.87238
11
5.58608
21
-3.87226
0
LINE
8
BLACK
6
CONTINUOUS
10
5.58608
20
-3.87226
11
5.58576
21
-3.87228
0
LINE
8
BLACK
6
CONTINUOUS
10
5.58576
20
-3.87228
11
5.58547
21
-3.87201
0
LINE
8
BLACK
6
CONTINUOUS
10
5.58547
20
-3.87201
11
5.58511
21
-3.87186
0
LINE
8
BLACK
6
CONTINUOUS
10
5.58511
20
-3.87186
11
5.58498
21
-3.87156
0
LINE
8
BLACK
6
CONTINUOUS
10
5.58498
20
-3.87156
11
5.58475
21
-3.87135
0
LINE
8
BLACK
6
CONTINUOUS
10
5.58475
20
-3.87135
11
5.58473
21
-3.87095
0
LINE
8
BLACK
6
CONTINUOUS
10
5.58473
20
-3.87095
11
5.58458
21
-3.87058
0
LINE
8
BLACK
6
CONTINUOUS
10
5.58458
20
-3.87058
11
5.5847
21
-3.87029
0
LINE
8
BLACK
6
CONTINUOUS
10
5.5847
20
-3.87029
11
5.58469
21
-3.86997
0
LINE
8
BLACK
6
CONTINUOUS
10
5.58469
20
-3.86997
11
5.58495
21
-3.86968
0
LINE
8
BLACK
6
CONTINUOUS
10
5.58495
20
-3.86968
11
5.58511
21
-3.86931
0
LINE
8
BLACK
6
CONTINUOUS
10
5.58511
20
-3.86931
11
5.5854
21
-3.86919
0
LINE
8
BLACK
6
CONTINUOUS
10
5.5854
20
-3.86919
11
5.58562
21
-3.86895
0
LINE
8
BLACK
6
CONTINUOUS
10
5.58562
20
-3.86895
11
5.61526
21
-3.85512
0
LINE
8
BLACK
6
CONTINUOUS
10
5.61526
20
-3.85512
11
5.58562
21
-3.84128
0
LINE
8
BLACK
6
CONTINUOUS
10
5.58562
20
-3.84128
11
5.5854
21
-3.84105
0
LINE
8
BLACK
6
CONTINUOUS
10
5.5854
20
-3.84105
11
5.58511
21
-3.84092
0
LINE
8
BLACK
6
CONTINUOUS
10
5.58511
20
-3.84092
11
5.58495
21
-3.84056
0
LINE
8
BLACK
6
CONTINUOUS
10
5.58495
20
-3.84056
11
5.58469
21
-3.84027
0
LINE
8
BLACK
6
CONTINUOUS
10
5.58469
20
-3.84027
11
5.5847
21
-3.83995
0
LINE
8
BLACK
6
CONTINUOUS
10
5.5847
20
-3.83995
11
5.58458
21
-3.83965
0
LINE
8
BLACK
6
CONTINUOUS
10
5.58458
20
-3.83965
11
5.58473
21
-3.83928
0
LINE
8
BLACK
6
CONTINUOUS
10
5.58473
20
-3.83928
11
5.58475
21
-3.83889
0
LINE
8
BLACK
6
CONTINUOUS
10
5.58475
20
-3.83889
11
5.58498
21
-3.83867
0
LINE
8
BLACK
6
CONTINUOUS
10
5.58498
20
-3.83867
11
5.58511
21
-3.83838
0
LINE
8
BLACK
6
CONTINUOUS
10
5.58511
20
-3.83838
11
5.58547
21
-3.83823
0
LINE
8
BLACK
6
CONTINUOUS
10
5.58547
20
-3.83823
11
5.58576
21
-3.83796
0
LINE
8
BLACK
6
CONTINUOUS
10
5.58576
20
-3.83796
11
5.58608
21
-3.83797
0
LINE
8
BLACK
6
CONTINUOUS
10
5.58608
20
-3.83797
11
5.58638
21
-3.83785
0
LINE
8
BLACK
6
CONTINUOUS
10
5.58638
20
-3.83785
11
5.63278
21
-3.83785
0
LINE
8
BLACK
6
CONTINUOUS
10
5.63278
20
-3.83785
11
5.63405
21
-3.83838
0
LINE
8
BLACK
6
CONTINUOUS
10
6.43358
20
-3.82289
11
6.43449
21
-3.82393
0
LINE
8
BLACK
6
CONTINUOUS
10
6.43449
20
-3.82393
11
6.43439
21
-3.82531
0
LINE
8
BLACK
6
CONTINUOUS
10
6.43439
20
-3.82531
11
6.43335
21
-3.82621
0
LINE
8
BLACK
6
CONTINUOUS
10
6.43335
20
-3.82621
11
6.42132
21
-3.83022
0
LINE
8
BLACK
6
CONTINUOUS
10
6.42132
20
-3.83022
11
6.42132
21
-3.84972
0
LINE
8
BLACK
6
CONTINUOUS
10
6.42132
20
-3.84972
11
6.43335
21
-3.85373
0
LINE
8
BLACK
6
CONTINUOUS
10
6.43335
20
-3.85373
11
6.43439
21
-3.85463
0
LINE
8
BLACK
6
CONTINUOUS
10
6.43439
20
-3.85463
11
6.43449
21
-3.856
0
LINE
8
BLACK
6
CONTINUOUS
10
6.43449
20
-3.856
11
6.43358
21
-3.85704
0
LINE
8
BLACK
6
CONTINUOUS
10
6.43358
20
-3.85704
11
6.43221
21
-3.85714
0
LINE
8
BLACK
6
CONTINUOUS
10
6.43221
20
-3.85714
11
6.38581
21
-3.84167
0
LINE
8
BLACK
6
CONTINUOUS
10
6.38581
20
-3.84167
11
6.38571
21
-3.84159
0
LINE
8
BLACK
6
CONTINUOUS
10
6.38571
20
-3.84159
11
6.38557
21
-3.84158
0
LINE
8
BLACK
6
CONTINUOUS
10
6.38557
20
-3.84158
11
6.3852
21
-3.84115
0
LINE
8
BLACK
6
CONTINUOUS
10
6.3852
20
-3.84115
11
6.38477
21
-3.84077
0
LINE
8
BLACK
6
CONTINUOUS
10
6.38477
20
-3.84077
11
6.38476
21
-3.84064
0
LINE
8
BLACK
6
CONTINUOUS
10
6.38476
20
-3.84064
11
6.38467
21
-3.84054
0
LINE
8
BLACK
6
CONTINUOUS
10
6.38467
20
-3.84054
11
6.38471
21
-3.83997
0
LINE
8
BLACK
6
CONTINUOUS
10
6.38471
20
-3.83997
11
6.38467
21
-3.8394
0
LINE
8
BLACK
6
CONTINUOUS
10
6.38467
20
-3.8394
11
6.38476
21
-3.8393
0
LINE
8
BLACK
6
CONTINUOUS
10
6.38476
20
-3.8393
11
6.38477
21
-3.83916
0
LINE
8
BLACK
6
CONTINUOUS
10
6.38477
20
-3.83916
11
6.3852
21
-3.83879
0
LINE
8
BLACK
6
CONTINUOUS
10
6.3852
20
-3.83879
11
6.38557
21
-3.83836
0
LINE
8
BLACK
6
CONTINUOUS
10
6.38557
20
-3.83836
11
6.38571
21
-3.83835
0
LINE
8
BLACK
6
CONTINUOUS
10
6.38571
20
-3.83835
11
6.38581
21
-3.83826
0
LINE
8
BLACK
6
CONTINUOUS
10
6.38581
20
-3.83826
11
6.43221
21
-3.82279
0
LINE
8
BLACK
6
CONTINUOUS
10
6.43221
20
-3.82279
11
6.43358
21
-3.82289
0
LINE
8
BLACK
6
CONTINUOUS
10
6.39207
20
-3.83997
11
6.41772
21
-3.84852
0
LINE
8
BLACK
6
CONTINUOUS
10
6.41772
20
-3.84852
11
6.41772
21
-3.83142
0
LINE
8
BLACK
6
CONTINUOUS
10
6.41772
20
-3.83142
11
6.39207
21
-3.83997
0
LINE
8
BLACK
6
CONTINUOUS
10
5.4065
20
-3.844
11
5.3865
21
-3.844
0
LINE
8
BLACK
6
CONTINUOUS
10
5.3865
20
-3.844
11
5.3865
21
-3.824
0
LINE
8
BLACK
6
CONTINUOUS
10
5.3865
20
-3.824
11
5.4065
21
-3.824
0
LINE
8
BLACK
6
CONTINUOUS
10
5.4065
20
-3.824
11
5.4065
21
-3.844
0
LINE
8
BLACK
6
CONTINUOUS
10
5.5065
20
-3.844
11
5.4865
21
-3.844
0
LINE
8
BLACK
6
CONTINUOUS
10
5.4865
20
-3.844
11
5.4865
21
-3.824
0
LINE
8
BLACK
6
CONTINUOUS
10
5.4865
20
-3.824
11
5.5065
21
-3.824
0
LINE
8
BLACK
6
CONTINUOUS
10
5.5065
20
-3.824
11
5.5065
21
-3.844
0
LINE
8
BLACK
6
CONTINUOUS
10
5.63358
20
-3.79164
11
5.63449
21
-3.79268
0
LINE
8
BLACK
6
CONTINUOUS
10
5.63449
20
-3.79268
11
5.63439
21
-3.79406
0
LINE
8
BLACK
6
CONTINUOUS
10
5.63439
20
-3.79406
11
5.63335
21
-3.79496
0
LINE
8
BLACK
6
CONTINUOUS
10
5.63335
20
-3.79496
11
5.62132
21
-3.79897
0
LINE
8
BLACK
6
CONTINUOUS
10
5.62132
20
-3.79897
11
5.62132
21
-3.81847
0
LINE
8
BLACK
6
CONTINUOUS
10
5.62132
20
-3.81847
11
5.63335
21
-3.82248
0
LINE
8
BLACK
6
CONTINUOUS
10
5.63335
20
-3.82248
11
5.63439
21
-3.82338
0
LINE
8
BLACK
6
CONTINUOUS
10
5.63439
20
-3.82338
11
5.63449
21
-3.82475
0
LINE
8
BLACK
6
CONTINUOUS
10
5.63449
20
-3.82475
11
5.63358
21
-3.82579
0
LINE
8
BLACK
6
CONTINUOUS
10
5.63358
20
-3.82579
11
5.63221
21
-3.82589
0
LINE
8
BLACK
6
CONTINUOUS
10
5.63221
20
-3.82589
11
5.58581
21
-3.81042
0
LINE
8
BLACK
6
CONTINUOUS
10
5.58581
20
-3.81042
11
5.58571
21
-3.81034
0
LINE
8
BLACK
6
CONTINUOUS
10
5.58571
20
-3.81034
11
5.58557
21
-3.81033
0
LINE
8
BLACK
6
CONTINUOUS
10
5.58557
20
-3.81033
11
5.5852
21
-3.8099
0
LINE
8
BLACK
6
CONTINUOUS
10
5.5852
20
-3.8099
11
5.58477
21
-3.80952
0
LINE
8
BLACK
6
CONTINUOUS
10
5.58477
20
-3.80952
11
5.58476
21
-3.80939
0
LINE
8
BLACK
6
CONTINUOUS
10
5.58476
20
-3.80939
11
5.58467
21
-3.80929
0
LINE
8
BLACK
6
CONTINUOUS
10
5.58467
20
-3.80929
11
5.58471
21
-3.80872
0
LINE
8
BLACK
6
CONTINUOUS
10
5.58471
20
-3.80872
11
5.58467
21
-3.80815
0
LINE
8
BLACK
6
CONTINUOUS
10
5.58467
20
-3.80815
11
5.58476
21
-3.80805
0
LINE
8
BLACK
6
CONTINUOUS
10
5.58476
20
-3.80805
11
5.58477
21
-3.80791
0
LINE
8
BLACK
6
CONTINUOUS
10
5.58477
20
-3.80791
11
5.5852
21
-3.80754
0
LINE
8
BLACK
6
CONTINUOUS
10
5.5852
20
-3.80754
11
5.58557
21
-3.80711
0
LINE
8
BLACK
6
CONTINUOUS
10
5.58557
20
-3.80711
11
5.58571
21
-3.8071
0
LINE
8
BLACK
6
CONTINUOUS
10
5.58571
20
-3.8071
11
5.58581
21
-3.80701
0
LINE
8
BLACK
6
CONTINUOUS
10
5.58581
20
-3.80701
11
5.63221
21
-3.79154
0
LINE
8
BLACK
6
CONTINUOUS
10
5.63221
20
-3.79154
11
5.63358
21
-3.79164
0
LINE
8
BLACK
6
CONTINUOUS
10
5.59207
20
-3.80872
11
5.61772
21
-3.81727
0
LINE
8
BLACK
6
CONTINUOUS
10
5.61772
20
-3.81727
11
5.61772
21
-3.80017
0
LINE
8
BLACK
6
CONTINUOUS
10
5.61772
20
-3.80017
11
5.59207
21
-3.80872
0
LINE
8
BLACK
6
CONTINUOUS
10
6.41531
20
-3.78302
11
6.41554
21
-3.78298
0
LINE
8
BLACK
6
CONTINUOUS
10
6.41554
20
-3.78298
11
6.42438
21
-3.78519
0
LINE
8
BLACK
6
CONTINUOUS
10
6.42438
20
-3.78519
11
6.42454
21
-3.78531
0
LINE
8
BLACK
6
CONTINUOUS
10
6.42454
20
-3.78531
11
6.42475
21
-3.78533
0
LINE
8
BLACK
6
CONTINUOUS
10
6.42475
20
-3.78533
11
6.42916
21
-3.78754
0
LINE
8
BLACK
6
CONTINUOUS
10
6.42916
20
-3.78754
11
6.42936
21
-3.78776
0
LINE
8
BLACK
6
CONTINUOUS
10
6.42936
20
-3.78776
11
6.42963
21
-3.78788
0
LINE
8
BLACK
6
CONTINUOUS
10
6.42963
20
-3.78788
11
6.43184
21
-3.79008
0
LINE
8
BLACK
6
CONTINUOUS
10
6.43184
20
-3.79008
11
6.43195
21
-3.79036
0
LINE
8
BLACK
6
CONTINUOUS
10
6.43195
20
-3.79036
11
6.43218
21
-3.79055
0
LINE
8
BLACK
6
CONTINUOUS
10
6.43218
20
-3.79055
11
6.43439
21
-3.79497
0
LINE
8
BLACK
6
CONTINUOUS
10
6.43439
20
-3.79497
11
6.43442
21
-3.79539
0
LINE
8
BLACK
6
CONTINUOUS
10
6.43442
20
-3.79539
11
6.43458
21
-3.79578
0
LINE
8
BLACK
6
CONTINUOUS
10
6.43458
20
-3.79578
11
6.43458
21
-3.8002
0
LINE
8
BLACK
6
CONTINUOUS
10
6.43458
20
-3.8002
11
6.43442
21
-3.80058
0
LINE
8
BLACK
6
CONTINUOUS
10
6.43442
20
-3.80058
11
6.43439
21
-3.801
0
LINE
8
BLACK
6
CONTINUOUS
10
6.43439
20
-3.801
11
6.43218
21
-3.80542
0
LINE
8
BLACK
6
CONTINUOUS
10
6.43218
20
-3.80542
11
6.43195
21
-3.80561
0
LINE
8
BLACK
6
CONTINUOUS
10
6.43195
20
-3.80561
11
6.43184
21
-3.80589
0
LINE
8
BLACK
6
CONTINUOUS
10
6.43184
20
-3.80589
11
6.42963
21
-3.8081
0
LINE
8
BLACK
6
CONTINUOUS
10
6.42963
20
-3.8081
11
6.42936
21
-3.80821
0
LINE
8
BLACK
6
CONTINUOUS
10
6.42936
20
-3.80821
11
6.42916
21
-3.80843
0
LINE
8
BLACK
6
CONTINUOUS
10
6.42916
20
-3.80843
11
6.42475
21
-3.81064
0
LINE
8
BLACK
6
CONTINUOUS
10
6.42475
20
-3.81064
11
6.42454
21
-3.81066
0
LINE
8
BLACK
6
CONTINUOUS
10
6.42454
20
-3.81066
11
6.42438
21
-3.81078
0
LINE
8
BLACK
6
CONTINUOUS
10
6.42438
20
-3.81078
11
6.41554
21
-3.81299
0
LINE
8
BLACK
6
CONTINUOUS
10
6.41554
20
-3.81299
11
6.41531
21
-3.81296
0
LINE
8
BLACK
6
CONTINUOUS
10
6.41531
20
-3.81296
11
6.4151
21
-3.81304
0
LINE
8
BLACK
6
CONTINUOUS
10
6.4151
20
-3.81304
11
6.40405
21
-3.81304
0
LINE
8
BLACK
6
CONTINUOUS
10
6.40405
20
-3.81304
11
6.40384
21
-3.81296
0
LINE
8
BLACK
6
CONTINUOUS
10
6.40384
20
-3.81296
11
6.40362
21
-3.81299
0
LINE
8
BLACK
6
CONTINUOUS
10
6.40362
20
-3.81299
11
6.39478
21
-3.81078
0
LINE
8
BLACK
6
CONTINUOUS
10
6.39478
20
-3.81078
11
6.39462
21
-3.81066
0
LINE
8
BLACK
6
CONTINUOUS
10
6.39462
20
-3.81066
11
6.39441
21
-3.81064
0
LINE
8
BLACK
6
CONTINUOUS
10
6.39441
20
-3.81064
11
6.38999
21
-3.80843
0
LINE
8
BLACK
6
CONTINUOUS
10
6.38999
20
-3.80843
11
6.3898
21
-3.80821
0
LINE
8
BLACK
6
CONTINUOUS
10
6.3898
20
-3.80821
11
6.38952
21
-3.8081
0
LINE
8
BLACK
6
CONTINUOUS
10
6.38952
20
-3.8081
11
6.38732
21
-3.80589
0
LINE
8
BLACK
6
CONTINUOUS
10
6.38732
20
-3.80589
11
6.3872
21
-3.80561
0
LINE
8
BLACK
6
CONTINUOUS
10
6.3872
20
-3.80561
11
6.38698
21
-3.80542
0
LINE
8
BLACK
6
CONTINUOUS
10
6.38698
20
-3.80542
11
6.38477
21
-3.801
0
LINE
8
BLACK
6
CONTINUOUS
10
6.38477
20
-3.801
11
6.38474
21
-3.80058
0
LINE
8
BLACK
6
CONTINUOUS
10
6.38474
20
-3.80058
11
6.38458
21
-3.8002
0
LINE
8
BLACK
6
CONTINUOUS
10
6.38458
20
-3.8002
11
6.38458
21
-3.79578
0
LINE
8
BLACK
6
CONTINUOUS
10
6.38458
20
-3.79578
11
6.38474
21
-3.79539
0
LINE
8
BLACK
6
CONTINUOUS
10
6.38474
20
-3.79539
11
6.38477
21
-3.79497
0
LINE
8
BLACK
6
CONTINUOUS
10
6.38477
20
-3.79497
11
6.38698
21
-3.79055
0
LINE
8
BLACK
6
CONTINUOUS
10
6.38698
20
-3.79055
11
6.3872
21
-3.79036
0
LINE
8
BLACK
6
CONTINUOUS
10
6.3872
20
-3.79036
11
6.38732
21
-3.79008
0
LINE
8
BLACK
6
CONTINUOUS
10
6.38732
20
-3.79008
11
6.38952
21
-3.78788
0
LINE
8
BLACK
6
CONTINUOUS
10
6.38952
20
-3.78788
11
6.3898
21
-3.78776
0
LINE
8
BLACK
6
CONTINUOUS
10
6.3898
20
-3.78776
11
6.38999
21
-3.78754
0
LINE
8
BLACK
6
CONTINUOUS
10
6.38999
20
-3.78754
11
6.39441
21
-3.78533
0
LINE
8
BLACK
6
CONTINUOUS
10
6.39441
20
-3.78533
11
6.39462
21
-3.78531
0
LINE
8
BLACK
6
CONTINUOUS
10
6.39462
20
-3.78531
11
6.39478
21
-3.78519
0
LINE
8
BLACK
6
CONTINUOUS
10
6.39478
20
-3.78519
11
6.40362
21
-3.78298
0
LINE
8
BLACK
6
CONTINUOUS
10
6.40362
20
-3.78298
11
6.40384
21
-3.78302
0
LINE
8
BLACK
6
CONTINUOUS
10
6.40384
20
-3.78302
11
6.40405
21
-3.78293
0
LINE
8
BLACK
6
CONTINUOUS
10
6.40405
20
-3.78293
11
6.4151
21
-3.78293
0
LINE
8
BLACK
6
CONTINUOUS
10
6.4151
20
-3.78293
11
6.41531
21
-3.78302
0
LINE
8
BLACK
6
CONTINUOUS
10
6.39584
20
-3.78864
11
6.39186
21
-3.79063
0
LINE
8
BLACK
6
CONTINUOUS
10
6.39186
20
-3.79063
11
6.39007
21
-3.79242
0
LINE
8
BLACK
6
CONTINUOUS
10
6.39007
20
-3.79242
11
6.38818
21
-3.7962
0
LINE
8
BLACK
6
CONTINUOUS
10
6.38818
20
-3.7962
11
6.38818
21
-3.79977
0
LINE
8
BLACK
6
CONTINUOUS
10
6.38818
20
-3.79977
11
6.39007
21
-3.80355
0
LINE
8
BLACK
6
CONTINUOUS
10
6.39007
20
-3.80355
11
6.39186
21
-3.80535
0
LINE
8
BLACK
6
CONTINUOUS
10
6.39186
20
-3.80535
11
6.39584
21
-3.80734
0
LINE
8
BLACK
6
CONTINUOUS
10
6.39584
20
-3.80734
11
6.40428
21
-3.80944
0
LINE
8
BLACK
6
CONTINUOUS
10
6.40428
20
-3.80944
11
6.41488
21
-3.80944
0
LINE
8
BLACK
6
CONTINUOUS
10
6.41488
20
-3.80944
11
6.42331
21
-3.80734
0
LINE
8
BLACK
6
CONTINUOUS
10
6.42331
20
-3.80734
11
6.42729
21
-3.80535
0
LINE
8
BLACK
6
CONTINUOUS
10
6.42729
20
-3.80535
11
6.42909
21
-3.80355
0
LINE
8
BLACK
6
CONTINUOUS
10
6.42909
20
-3.80355
11
6.43098
21
-3.79977
0
LINE
8
BLACK
6
CONTINUOUS
10
6.43098
20
-3.79977
11
6.43098
21
-3.7962
0
LINE
8
BLACK
6
CONTINUOUS
10
6.43098
20
-3.7962
11
6.42909
21
-3.79242
0
LINE
8
BLACK
6
CONTINUOUS
10
6.42909
20
-3.79242
11
6.42729
21
-3.79063
0
LINE
8
BLACK
6
CONTINUOUS
10
6.42729
20
-3.79063
11
6.42331
21
-3.78864
0
LINE
8
BLACK
6
CONTINUOUS
10
6.42331
20
-3.78864
11
6.41488
21
-3.78653
0
LINE
8
BLACK
6
CONTINUOUS
10
6.41488
20
-3.78653
11
6.40428
21
-3.78653
0
LINE
8
BLACK
6
CONTINUOUS
10
6.40428
20
-3.78653
11
6.39584
21
-3.78864
0
LINE
8
BLACK
6
CONTINUOUS
10
5.61531
20
-3.75177
11
5.61554
21
-3.75173
0
LINE
8
BLACK
6
CONTINUOUS
10
5.61554
20
-3.75173
11
5.62438
21
-3.75394
0
LINE
8
BLACK
6
CONTINUOUS
10
5.62438
20
-3.75394
11
5.62454
21
-3.75406
0
LINE
8
BLACK
6
CONTINUOUS
10
5.62454
20
-3.75406
11
5.62475
21
-3.75408
0
LINE
8
BLACK
6
CONTINUOUS
10
5.62475
20
-3.75408
11
5.62916
21
-3.75629
0
LINE
8
BLACK
6
CONTINUOUS
10
5.62916
20
-3.75629
11
5.62936
21
-3.75651
0
LINE
8
BLACK
6
CONTINUOUS
10
5.62936
20
-3.75651
11
5.62963
21
-3.75663
0
LINE
8
BLACK
6
CONTINUOUS
10
5.62963
20
-3.75663
11
5.63184
21
-3.75883
0
LINE
8
BLACK
6
CONTINUOUS
10
5.63184
20
-3.75883
11
5.63195
21
-3.75911
0
LINE
8
BLACK
6
CONTINUOUS
10
5.63195
20
-3.75911
11
5.63218
21
-3.7593
0
LINE
8
BLACK
6
CONTINUOUS
10
5.63218
20
-3.7593
11
5.63439
21
-3.76372
0
LINE
8
BLACK
6
CONTINUOUS
10
5.63439
20
-3.76372
11
5.63442
21
-3.76414
0
LINE
8
BLACK
6
CONTINUOUS
10
5.63442
20
-3.76414
11
5.63458
21
-3.76453
0
LINE
8
BLACK
6
CONTINUOUS
10
5.63458
20
-3.76453
11
5.63458
21
-3.76895
0
LINE
8
BLACK
6
CONTINUOUS
10
5.63458
20
-3.76895
11
5.63442
21
-3.76933
0
LINE
8
BLACK
6
CONTINUOUS
10
5.63442
20
-3.76933
11
5.63439
21
-3.76975
0
LINE
8
BLACK
6
CONTINUOUS
10
5.63439
20
-3.76975
11
5.63218
21
-3.77417
0
LINE
8
BLACK
6
CONTINUOUS
10
5.63218
20
-3.77417
11
5.63195
21
-3.77436
0
LINE
8
BLACK
6
CONTINUOUS
10
5.63195
20
-3.77436
11
5.63184
21
-3.77464
0
LINE
8
BLACK
6
CONTINUOUS
10
5.63184
20
-3.77464
11
5.62963
21
-3.77685
0
LINE
8
BLACK
6
CONTINUOUS
10
5.62963
20
-3.77685
11
5.62936
21
-3.77696
0
LINE
8
BLACK
6
CONTINUOUS
10
5.62936
20
-3.77696
11
5.62916
21
-3.77718
0
LINE
8
BLACK
6
CONTINUOUS
10
5.62916
20
-3.77718
11
5.62475
21
-3.77939
0
LINE
8
BLACK
6
CONTINUOUS
10
5.62475
20
-3.77939
11
5.62454
21
-3.77941
0
LINE
8
BLACK
6
CONTINUOUS
10
5.62454
20
-3.77941
11
5.62438
21
-3.77953
0
LINE
8
BLACK
6
CONTINUOUS
10
5.62438
20
-3.77953
11
5.61554
21
-3.78174
0
LINE
8
BLACK
6
CONTINUOUS
10
5.61554
20
-3.78174
11
5.61531
21
-3.78171
0
LINE
8
BLACK
6
CONTINUOUS
10
5.61531
20
-3.78171
11
5.6151
21
-3.78179
0
LINE
8
BLACK
6
CONTINUOUS
10
5.6151
20
-3.78179
11
5.60405
21
-3.78179
0
LINE
8
BLACK
6
CONTINUOUS
10
5.60405
20
-3.78179
11
5.60384
21
-3.78171
0
LINE
8
BLACK
6
CONTINUOUS
10
5.60384
20
-3.78171
11
5.60362
21
-3.78174
0
LINE
8
BLACK
6
CONTINUOUS
10
5.60362
20
-3.78174
11
5.59478
21
-3.77953
0
LINE
8
BLACK
6
CONTINUOUS
10
5.59478
20
-3.77953
11
5.59462
21
-3.77941
0
LINE
8
BLACK
6
CONTINUOUS
10
5.59462
20
-3.77941
11
5.59441
21
-3.77939
0
LINE
8
BLACK
6
CONTINUOUS
10
5.59441
20
-3.77939
11
5.58999
21
-3.77718
0
LINE
8
BLACK
6
CONTINUOUS
10
5.58999
20
-3.77718
11
5.5898
21
-3.77696
0
LINE
8
BLACK
6
CONTINUOUS
10
5.5898
20
-3.77696
11
5.58952
21
-3.77685
0
LINE
8
BLACK
6
CONTINUOUS
10
5.58952
20
-3.77685
11
5.58732
21
-3.77464
0
LINE
8
BLACK
6
CONTINUOUS
10
5.58732
20
-3.77464
11
5.5872
21
-3.77436
0
LINE
8
BLACK
6
CONTINUOUS
10
5.5872
20
-3.77436
11
5.58698
21
-3.77417
0
LINE
8
BLACK
6
CONTINUOUS
10
5.58698
20
-3.77417
11
5.58477
21
-3.76975
0
LINE
8
BLACK
6
CONTINUOUS
10
5.58477
20
-3.76975
11
5.58474
21
-3.76933
0
LINE
8
BLACK
6
CONTINUOUS
10
5.58474
20
-3.76933
11
5.58458
21
-3.76895
0
LINE
8
BLACK
6
CONTINUOUS
10
5.58458
20
-3.76895
11
5.58458
21
-3.76453
0
LINE
8
BLACK
6
CONTINUOUS
10
5.58458
20
-3.76453
11
5.58474
21
-3.76414
0
LINE
8
BLACK
6
CONTINUOUS
10
5.58474
20
-3.76414
11
5.58477
21
-3.76372
0
LINE
8
BLACK
6
CONTINUOUS
10
5.58477
20
-3.76372
11
5.58698
21
-3.7593
0
LINE
8
BLACK
6
CONTINUOUS
10
5.58698
20
-3.7593
11
5.5872
21
-3.75911
0
LINE
8
BLACK
6
CONTINUOUS
10
5.5872
20
-3.75911
11
5.58732
21
-3.75883
0
LINE
8
BLACK
6
CONTINUOUS
10
5.58732
20
-3.75883
11
5.58952
21
-3.75663
0
LINE
8
BLACK
6
CONTINUOUS
10
5.58952
20
-3.75663
11
5.5898
21
-3.75651
0
LINE
8
BLACK
6
CONTINUOUS
10
5.5898
20
-3.75651
11
5.58999
21
-3.75629
0
LINE
8
BLACK
6
CONTINUOUS
10
5.58999
20
-3.75629
11
5.59441
21
-3.75408
0
LINE
8
BLACK
6
CONTINUOUS
10
5.59441
20
-3.75408
11
5.59462
21
-3.75406
0
LINE
8
BLACK
6
CONTINUOUS
10
5.59462
20
-3.75406
11
5.59478
21
-3.75394
0
LINE
8
BLACK
6
CONTINUOUS
10
5.59478
20
-3.75394
11
5.60362
21
-3.75173
0
LINE
8
BLACK
6
CONTINUOUS
10
5.60362
20
-3.75173
11
5.60384
21
-3.75177
0
LINE
8
BLACK
6
CONTINUOUS
10
5.60384
20
-3.75177
11
5.60405
21
-3.75168
0
LINE
8
BLACK
6
CONTINUOUS
10
5.60405
20
-3.75168
11
5.6151
21
-3.75168
0
LINE
8
BLACK
6
CONTINUOUS
10
5.6151
20
-3.75168
11
5.61531
21
-3.75177
0
LINE
8
BLACK
6
CONTINUOUS
10
5.59584
20
-3.75739
11
5.59186
21
-3.75938
0
LINE
8
BLACK
6
CONTINUOUS
10
5.59186
20
-3.75938
11
5.59007
21
-3.76117
0
LINE
8
BLACK
6
CONTINUOUS
10
5.59007
20
-3.76117
11
5.58818
21
-3.76495
0
LINE
8
BLACK
6
CONTINUOUS
10
5.58818
20
-3.76495
11
5.58818
21
-3.76852
0
LINE
8
BLACK
6
CONTINUOUS
10
5.58818
20
-3.76852
11
5.59007
21
-3.7723
0
LINE
8
BLACK
6
CONTINUOUS
10
5.59007
20
-3.7723
11
5.59186
21
-3.7741
0
LINE
8
BLACK
6
CONTINUOUS
10
5.59186
20
-3.7741
11
5.59584
21
-3.77609
0
LINE
8
BLACK
6
CONTINUOUS
10
5.59584
20
-3.77609
11
5.60428
21
-3.77819
0
LINE
8
BLACK
6
CONTINUOUS
10
5.60428
20
-3.77819
11
5.61488
21
-3.77819
0
LINE
8
BLACK
6
CONTINUOUS
10
5.61488
20
-3.77819
11
5.62331
21
-3.77609
0
LINE
8
BLACK
6
CONTINUOUS
10
5.62331
20
-3.77609
11
5.62729
21
-3.7741
0
LINE
8
BLACK
6
CONTINUOUS
10
5.62729
20
-3.7741
11
5.62909
21
-3.7723
0
LINE
8
BLACK
6
CONTINUOUS
10
5.62909
20
-3.7723
11
5.63098
21
-3.76852
0
LINE
8
BLACK
6
CONTINUOUS
10
5.63098
20
-3.76852
11
5.63098
21
-3.76495
0
LINE
8
BLACK
6
CONTINUOUS
10
5.63098
20
-3.76495
11
5.62909
21
-3.76117
0
LINE
8
BLACK
6
CONTINUOUS
10
5.62909
20
-3.76117
11
5.62729
21
-3.75938
0
LINE
8
BLACK
6
CONTINUOUS
10
5.62729
20
-3.75938
11
5.62331
21
-3.75739
0
LINE
8
BLACK
6
CONTINUOUS
10
5.62331
20
-3.75739
11
5.61488
21
-3.75528
0
LINE
8
BLACK
6
CONTINUOUS
10
5.61488
20
-3.75528
11
5.60428
21
-3.75528
0
LINE
8
BLACK
6
CONTINUOUS
10
5.60428
20
-3.75528
11
5.59584
21
-3.75739
0
LINE
8
BLACK
6
CONTINUOUS
10
6.03775
20
-3.7815
11
6.01775
21
-3.7815
0
LINE
8
BLACK
6
CONTINUOUS
10
6.01775
20
-3.7815
11
6.01775
21
-3.7615
0
LINE
8
BLACK
6
CONTINUOUS
10
6.01775
20
-3.7615
11
6.03775
21
-3.7615
0
LINE
8
BLACK
6
CONTINUOUS
10
6.03775
20
-3.7615
11
6.03775
21
-3.7815
0
LINE
8
BLACK
6
CONTINUOUS
10
6.2065
20
-3.77525
11
6.1865
21
-3.77525
0
LINE
8
BLACK
6
CONTINUOUS
10
6.1865
20
-3.77525
11
6.1865
21
-3.75525
0
LINE
8
BLACK
6
CONTINUOUS
10
6.1865
20
-3.75525
11
6.2065
21
-3.75525
0
LINE
8
BLACK
6
CONTINUOUS
10
6.2065
20
-3.75525
11
6.2065
21
-3.77525
0
LINE
8
BLACK
6
CONTINUOUS
10
6.3065
20
-3.77525
11
6.2865
21
-3.77525
0
LINE
8
BLACK
6
CONTINUOUS
10
6.2865
20
-3.77525
11
6.2865
21
-3.75525
0
LINE
8
BLACK
6
CONTINUOUS
10
6.2865
20
-3.75525
11
6.3065
21
-3.75525
0
LINE
8
BLACK
6
CONTINUOUS
10
6.3065
20
-3.75525
11
6.3065
21
-3.77525
0
LINE
8
BLACK
6
CONTINUOUS
10
6.42433
20
-3.7389
11
6.42475
21
-3.73893
0
LINE
8
BLACK
6
CONTINUOUS
10
6.42475
20
-3.73893
11
6.42916
21
-3.74114
0
LINE
8
BLACK
6
CONTINUOUS
10
6.42916
20
-3.74114
11
6.42936
21
-3.74136
0
LINE
8
BLACK
6
CONTINUOUS
10
6.42936
20
-3.74136
11
6.42963
21
-3.74148
0
LINE
8
BLACK
6
CONTINUOUS
10
6.42963
20
-3.74148
11
6.43184
21
-3.74368
0
LINE
8
BLACK
6
CONTINUOUS
10
6.43184
20
-3.74368
11
6.43195
21
-3.74396
0
LINE
8
BLACK
6
CONTINUOUS
10
6.43195
20
-3.74396
11
6.43218
21
-3.74415
0
LINE
8
BLACK
6
CONTINUOUS
10
6.43218
20
-3.74415
11
6.43439
21
-3.74857
0
LINE
8
BLACK
6
CONTINUOUS
10
6.43439
20
-3.74857
11
6.43442
21
-3.74899
0
LINE
8
BLACK
6
CONTINUOUS
10
6.43442
20
-3.74899
11
6.43458
21
-3.74938
0
LINE
8
BLACK
6
CONTINUOUS
10
6.43458
20
-3.74938
11
6.43458
21
-3.76263
0
LINE
8
BLACK
6
CONTINUOUS
10
6.43458
20
-3.76263
11
6.43442
21
-3.76302
0
LINE
8
BLACK
6
CONTINUOUS
10
6.43442
20
-3.76302
11
6.43439
21
-3.76344
0
LINE
8
BLACK
6
CONTINUOUS
10
6.43439
20
-3.76344
11
6.43218
21
-3.76786
0
LINE
8
BLACK
6
CONTINUOUS
10
6.43218
20
-3.76786
11
6.43195
21
-3.76805
0
LINE
8
BLACK
6
CONTINUOUS
10
6.43195
20
-3.76805
11
6.43184
21
-3.76833
0
LINE
8
BLACK
6
CONTINUOUS
10
6.43184
20
-3.76833
11
6.42963
21
-3.77054
0
LINE
8
BLACK
6
CONTINUOUS
10
6.42963
20
-3.77054
11
6.42836
21
-3.77106
0
LINE
8
BLACK
6
CONTINUOUS
10
6.42836
20
-3.77106
11
6.42709
21
-3.77054
0
LINE
8
BLACK
6
CONTINUOUS
10
6.42709
20
-3.77054
11
6.42656
21
-3.76926
0
LINE
8
BLACK
6
CONTINUOUS
10
6.42656
20
-3.76926
11
6.42709
21
-3.76799
0
LINE
8
BLACK
6
CONTINUOUS
10
6.42709
20
-3.76799
11
6.42909
21
-3.76599
0
LINE
8
BLACK
6
CONTINUOUS
10
6.42909
20
-3.76599
11
6.43098
21
-3.76221
0
LINE
8
BLACK
6
CONTINUOUS
10
6.43098
20
-3.76221
11
6.43098
21
-3.7498
0
LINE
8
BLACK
6
CONTINUOUS
10
6.43098
20
-3.7498
11
6.42909
21
-3.74602
0
LINE
8
BLACK
6
CONTINUOUS
10
6.42909
20
-3.74602
11
6.42729
21
-3.74423
0
LINE
8
BLACK
6
CONTINUOUS
10
6.42729
20
-3.74423
11
6.42352
21
-3.74234
0
LINE
8
BLACK
6
CONTINUOUS
10
6.42352
20
-3.74234
11
6.41332
21
-3.74234
0
LINE
8
BLACK
6
CONTINUOUS
10
6.41332
20
-3.74234
11
6.40954
21
-3.74423
0
LINE
8
BLACK
6
CONTINUOUS
10
6.40954
20
-3.74423
11
6.40774
21
-3.74602
0
LINE
8
BLACK
6
CONTINUOUS
10
6.40774
20
-3.74602
11
6.40585
21
-3.7498
0
LINE
8
BLACK
6
CONTINUOUS
10
6.40585
20
-3.7498
11
6.40585
21
-3.75601
0
LINE
8
BLACK
6
CONTINUOUS
10
6.40585
20
-3.75601
11
6.40561
21
-3.75659
0
LINE
8
BLACK
6
CONTINUOUS
10
6.40561
20
-3.75659
11
6.40541
21
-3.75719
0
LINE
8
BLACK
6
CONTINUOUS
10
6.40541
20
-3.75719
11
6.40535
21
-3.75722
0
LINE
8
BLACK
6
CONTINUOUS
10
6.40535
20
-3.75722
11
6.40533
21
-3.75728
0
LINE
8
BLACK
6
CONTINUOUS
10
6.40533
20
-3.75728
11
6.40474
21
-3.75752
0
LINE
8
BLACK
6
CONTINUOUS
10
6.40474
20
-3.75752
11
6.40417
21
-3.7578
0
LINE
8
BLACK
6
CONTINUOUS
10
6.40417
20
-3.7578
11
6.40411
21
-3.75778
0
LINE
8
BLACK
6
CONTINUOUS
10
6.40411
20
-3.75778
11
6.40405
21
-3.75781
0
LINE
8
BLACK
6
CONTINUOUS
10
6.40405
20
-3.75781
11
6.40347
21
-3.75756
0
LINE
8
BLACK
6
CONTINUOUS
10
6.40347
20
-3.75756
11
6.40287
21
-3.75736
0
LINE
8
BLACK
6
CONTINUOUS
10
6.40287
20
-3.75736
11
6.38818
21
-3.74451
0
LINE
8
BLACK
6
CONTINUOUS
10
6.38818
20
-3.74451
11
6.38818
21
-3.76926
0
LINE
8
BLACK
6
CONTINUOUS
10
6.38818
20
-3.76926
11
6.38765
21
-3.77054
0
LINE
8
BLACK
6
CONTINUOUS
10
6.38765
20
-3.77054
11
6.38638
21
-3.77106
0
LINE
8
BLACK
6
CONTINUOUS
10
6.38638
20
-3.77106
11
6.38511
21
-3.77054
0
LINE
8
BLACK
6
CONTINUOUS
10
6.38511
20
-3.77054
11
6.38458
21
-3.76926
0
LINE
8
BLACK
6
CONTINUOUS
10
6.38458
20
-3.76926
11
6.38458
21
-3.74054
0
LINE
8
BLACK
6
CONTINUOUS
10
6.38458
20
-3.74054
11
6.38482
21
-3.73995
0
LINE
8
BLACK
6
CONTINUOUS
10
6.38482
20
-3.73995
11
6.38502
21
-3.73935
0
LINE
8
BLACK
6
CONTINUOUS
10
6.38502
20
-3.73935
11
6.38508
21
-3.73933
0
LINE
8
BLACK
6
CONTINUOUS
10
6.38508
20
-3.73933
11
6.38511
21
-3.73927
0
LINE
8
BLACK
6
CONTINUOUS
10
6.38511
20
-3.73927
11
6.38569
21
-3.73902
0
LINE
8
BLACK
6
CONTINUOUS
10
6.38569
20
-3.73902
11
6.38626
21
-3.73874
0
LINE
8
BLACK
6
CONTINUOUS
10
6.38626
20
-3.73874
11
6.38632
21
-3.73876
0
LINE
8
BLACK
6
CONTINUOUS
10
6.38632
20
-3.73876
11
6.38638
21
-3.73874
0
LINE
8
BLACK
6
CONTINUOUS
10
6.38638
20
-3.73874
11
6.38696
21
-3.73898
0
LINE
8
BLACK
6
CONTINUOUS
10
6.38696
20
-3.73898
11
6.38756
21
-3.73918
0
LINE
8
BLACK
6
CONTINUOUS
10
6.38756
20
-3.73918
11
6.40225
21
-3.75204
0
LINE
8
BLACK
6
CONTINUOUS
10
6.40225
20
-3.75204
11
6.40225
21
-3.74938
0
LINE
8
BLACK
6
CONTINUOUS
10
6.40225
20
-3.74938
11
6.40241
21
-3.74899
0
LINE
8
BLACK
6
CONTINUOUS
10
6.40241
20
-3.74899
11
6.40244
21
-3.74857
0
LINE
8
BLACK
6
CONTINUOUS
10
6.40244
20
-3.74857
11
6.40465
21
-3.74415
0
LINE
8
BLACK
6
CONTINUOUS
10
6.40465
20
-3.74415
11
6.40488
21
-3.74396
0
LINE
8
BLACK
6
CONTINUOUS
10
6.40488
20
-3.74396
11
6.40499
21
-3.74368
0
LINE
8
BLACK
6
CONTINUOUS
10
6.40499
20
-3.74368
11
6.4072
21
-3.74148
0
LINE
8
BLACK
6
CONTINUOUS
10
6.4072
20
-3.74148
11
6.40747
21
-3.74136
0
LINE
8
BLACK
6
CONTINUOUS
10
6.40747
20
-3.74136
11
6.40767
21
-3.74114
0
LINE
8
BLACK
6
CONTINUOUS
10
6.40767
20
-3.74114
11
6.41209
21
-3.73893
0
LINE
8
BLACK
6
CONTINUOUS
10
6.41209
20
-3.73893
11
6.41251
21
-3.7389
0
LINE
8
BLACK
6
CONTINUOUS
10
6.41251
20
-3.7389
11
6.41289
21
-3.73874
0
LINE
8
BLACK
6
CONTINUOUS
10
6.41289
20
-3.73874
11
6.42394
21
-3.73874
0
LINE
8
BLACK
6
CONTINUOUS
10
6.42394
20
-3.73874
11
6.42433
21
-3.7389
0
LINE
8
BLACK
6
CONTINUOUS
10
5.4065
20
-3.744
11
5.3865
21
-3.744
0
LINE
8
BLACK
6
CONTINUOUS
10
5.3865
20
-3.744
11
5.3865
21
-3.724
0
LINE
8
BLACK
6
CONTINUOUS
10
5.3865
20
-3.724
11
5.4065
21
-3.724
0
LINE
8
BLACK
6
CONTINUOUS
10
5.4065
20
-3.724
11
5.4065
21
-3.744
0
LINE
8
BLACK
6
CONTINUOUS
10
5.5065
20
-3.744
11
5.4865
21
-3.744
0
LINE
8
BLACK
6
CONTINUOUS
10
5.4865
20
-3.744
11
5.4865
21
-3.724
0
LINE
8
BLACK
6
CONTINUOUS
10
5.4865
20
-3.724
11
5.5065
21
-3.724
0
LINE
8
BLACK
6
CONTINUOUS
10
5.5065
20
-3.724
11
5.5065
21
-3.744
0
LINE
8
BLACK
6
CONTINUOUS
10
5.62433
20
-3.70765
11
5.62475
21
-3.70768
0
LINE
8
BLACK
6
CONTINUOUS
10
5.62475
20
-3.70768
11
5.62916
21
-3.70989
0
LINE
8
BLACK
6
CONTINUOUS
10
5.62916
20
-3.70989
11
5.62936
21
-3.71011
0
LINE
8
BLACK
6
CONTINUOUS
10
5.62936
20
-3.71011
11
5.62963
21
-3.71023
0
LINE
8
BLACK
6
CONTINUOUS
10
5.62963
20
-3.71023
11
5.63184
21
-3.71243
0
LINE
8
BLACK
6
CONTINUOUS
10
5.63184
20
-3.71243
11
5.63195
21
-3.71271
0
LINE
8
BLACK
6
CONTINUOUS
10
5.63195
20
-3.71271
11
5.63218
21
-3.7129
0
LINE
8
BLACK
6
CONTINUOUS
10
5.63218
20
-3.7129
11
5.63439
21
-3.71732
0
LINE
8
BLACK
6
CONTINUOUS
10
5.63439
20
-3.71732
11
5.63442
21
-3.71774
0
LINE
8
BLACK
6
CONTINUOUS
10
5.63442
20
-3.71774
11
5.63458
21
-3.71813
0
LINE
8
BLACK
6
CONTINUOUS
10
5.63458
20
-3.71813
11
5.63458
21
-3.73138
0
LINE
8
BLACK
6
CONTINUOUS
10
5.63458
20
-3.73138
11
5.63442
21
-3.73177
0
LINE
8
BLACK
6
CONTINUOUS
10
5.63442
20
-3.73177
11
5.63439
21
-3.73219
0
LINE
8
BLACK
6
CONTINUOUS
10
5.63439
20
-3.73219
11
5.63218
21
-3.73661
0
LINE
8
BLACK
6
CONTINUOUS
10
5.63218
20
-3.73661
11
5.63195
21
-3.7368
0
LINE
8
BLACK
6
CONTINUOUS
10
5.63195
20
-3.7368
11
5.63184
21
-3.73708
0
LINE
8
BLACK
6
CONTINUOUS
10
5.63184
20
-3.73708
11
5.62963
21
-3.73929
0
LINE
8
BLACK
6
CONTINUOUS
10
5.62963
20
-3.73929
11
5.62836
21
-3.73981
0
LINE
8
BLACK
6
CONTINUOUS
10
5.62836
20
-3.73981
11
5.62709
21
-3.73929
0
LINE
8
BLACK
6
CONTINUOUS
10
5.62709
20
-3.73929
11
5.62656
21
-3.73801
0
LINE
8
BLACK
6
CONTINUOUS
10
5.62656
20
-3.73801
11
5.62709
21
-3.73674
0
LINE
8
BLACK
6
CONTINUOUS
10
5.62709
20
-3.73674
11
5.62909
21
-3.73474
0
LINE
8
BLACK
6
CONTINUOUS
10
5.62909
20
-3.73474
11
5.63098
21
-3.73096
0
LINE
8
BLACK
6
CONTINUOUS
10
5.63098
20
-3.73096
11
5.63098
21
-3.71855
0
LINE
8
BLACK
6
CONTINUOUS
10
5.63098
20
-3.71855
11
5.62909
21
-3.71477
0
LINE
8
BLACK
6
CONTINUOUS
10
5.62909
20
-3.71477
11
5.62729
21
-3.71298
0
LINE
8
BLACK
6
CONTINUOUS
10
5.62729
20
-3.71298
11
5.62352
21
-3.71109
0
LINE
8
BLACK
6
CONTINUOUS
10
5.62352
20
-3.71109
11
5.61332
21
-3.71109
0
LINE
8
BLACK
6
CONTINUOUS
10
5.61332
20
-3.71109
11
5.60954
21
-3.71298
0
LINE
8
BLACK
6
CONTINUOUS
10
5.60954
20
-3.71298
11
5.60774
21
-3.71477
0
LINE
8
BLACK
6
CONTINUOUS
10
5.60774
20
-3.71477
11
5.60585
21
-3.71855
0
LINE
8
BLACK
6
CONTINUOUS
10
5.60585
20
-3.71855
11
5.60585
21
-3.72476
0
LINE
8
BLACK
6
CONTINUOUS
10
5.60585
20
-3.72476
11
5.60561
21
-3.72534
0
LINE
8
BLACK
6
CONTINUOUS
10
5.60561
20
-3.72534
11
5.60541
21
-3.72594
0
LINE
8
BLACK
6
CONTINUOUS
10
5.60541
20
-3.72594
11
5.60535
21
-3.72597
0
LINE
8
BLACK
6
CONTINUOUS
10
5.60535
20
-3.72597
11
5.60533
21
-3.72603
0
LINE
8
BLACK
6
CONTINUOUS
10
5.60533
20
-3.72603
11
5.60474
21
-3.72627
0
LINE
8
BLACK
6
CONTINUOUS
10
5.60474
20
-3.72627
11
5.60417
21
-3.72655
0
LINE
8
BLACK
6
CONTINUOUS
10
5.60417
20
-3.72655
11
5.60411
21
-3.72653
0
LINE
8
BLACK
6
CONTINUOUS
10
5.60411
20
-3.72653
11
5.60405
21
-3.72656
0
LINE
8
BLACK
6
CONTINUOUS
10
5.60405
20
-3.72656
11
5.60347
21
-3.72631
0
LINE
8
BLACK
6
CONTINUOUS
10
5.60347
20
-3.72631
11
5.60287
21
-3.72611
0
LINE
8
BLACK
6
CONTINUOUS
10
5.60287
20
-3.72611
11
5.58818
21
-3.71326
0
LINE
8
BLACK
6
CONTINUOUS
10
5.58818
20
-3.71326
11
5.58818
21
-3.73801
0
LINE
8
BLACK
6
CONTINUOUS
10
5.58818
20
-3.73801
11
5.58765
21
-3.73929
0
LINE
8
BLACK
6
CONTINUOUS
10
5.58765
20
-3.73929
11
5.58638
21
-3.73981
0
LINE
8
BLACK
6
CONTINUOUS
10
5.58638
20
-3.73981
11
5.58511
21
-3.73929
0
LINE
8
BLACK
6
CONTINUOUS
10
5.58511
20
-3.73929
11
5.58458
21
-3.73801
0
LINE
8
BLACK
6
CONTINUOUS
10
5.58458
20
-3.73801
11
5.58458
21
-3.70929
0
LINE
8
BLACK
6
CONTINUOUS
10
5.58458
20
-3.70929
11
5.58482
21
-3.7087
0
LINE
8
BLACK
6
CONTINUOUS
10
5.58482
20
-3.7087
11
5.58502
21
-3.7081
0
LINE
8
BLACK
6
CONTINUOUS
10
5.58502
20
-3.7081
11
5.58508
21
-3.70808
0
LINE
8
BLACK
6
CONTINUOUS
10
5.58508
20
-3.70808
11
5.58511
21
-3.70802
0
LINE
8
BLACK
6
CONTINUOUS
10
5.58511
20
-3.70802
11
5.58569
21
-3.70777
0
LINE
8
BLACK
6
CONTINUOUS
10
5.58569
20
-3.70777
11
5.58626
21
-3.70749
0
LINE
8
BLACK
6
CONTINUOUS
10
5.58626
20
-3.70749
11
5.58632
21
-3.70751
0
LINE
8
BLACK
6
CONTINUOUS
10
5.58632
20
-3.70751
11
5.58638
21
-3.70749
0
LINE
8
BLACK
6
CONTINUOUS
10
5.58638
20
-3.70749
11
5.58696
21
-3.70773
0
LINE
8
BLACK
6
CONTINUOUS
10
5.58696
20
-3.70773
11
5.58756
21
-3.70793
0
LINE
8
BLACK
6
CONTINUOUS
10
5.58756
20
-3.70793
11
5.60225
21
-3.72079
0
LINE
8
BLACK
6
CONTINUOUS
10
5.60225
20
-3.72079
11
5.60225
21
-3.71813
0
LINE
8
BLACK
6
CONTINUOUS
10
5.60225
20
-3.71813
11
5.60241
21
-3.71774
0
LINE
8
BLACK
6
CONTINUOUS
10
5.60241
20
-3.71774
11
5.60244
21
-3.71732
0
LINE
8
BLACK
6
CONTINUOUS
10
5.60244
20
-3.71732
11
5.60465
21
-3.7129
0
LINE
8
BLACK
6
CONTINUOUS
10
5.60465
20
-3.7129
11
5.60488
21
-3.71271
0
LINE
8
BLACK
6
CONTINUOUS
10
5.60488
20
-3.71271
11
5.60499
21
-3.71243
0
LINE
8
BLACK
6
CONTINUOUS
10
5.60499
20
-3.71243
11
5.6072
21
-3.71023
0
LINE
8
BLACK
6
CONTINUOUS
10
5.6072
20
-3.71023
11
5.60747
21
-3.71011
0
LINE
8
BLACK
6
CONTINUOUS
10
5.60747
20
-3.71011
11
5.60767
21
-3.70989
0
LINE
8
BLACK
6
CONTINUOUS
10
5.60767
20
-3.70989
11
5.61209
21
-3.70768
0
LINE
8
BLACK
6
CONTINUOUS
10
5.61209
20
-3.70768
11
5.61251
21
-3.70765
0
LINE
8
BLACK
6
CONTINUOUS
10
5.61251
20
-3.70765
11
5.61289
21
-3.70749
0
LINE
8
BLACK
6
CONTINUOUS
10
5.61289
20
-3.70749
11
5.62394
21
-3.70749
0
LINE
8
BLACK
6
CONTINUOUS
10
5.62394
20
-3.70749
11
5.62433
21
-3.70765
0
LINE
8
BLACK
6
CONTINUOUS
10
6.41637
20
-3.68403
11
6.4169
21
-3.6853
0
LINE
8
BLACK
6
CONTINUOUS
10
6.4169
20
-3.6853
11
6.4169
21
-3.72065
0
LINE
8
BLACK
6
CONTINUOUS
10
6.4169
20
-3.72065
11
6.41637
21
-3.72193
0
LINE
8
BLACK
6
CONTINUOUS
10
6.41637
20
-3.72193
11
6.4151
21
-3.72245
0
LINE
8
BLACK
6
CONTINUOUS
10
6.4151
20
-3.72245
11
6.41383
21
-3.72193
0
LINE
8
BLACK
6
CONTINUOUS
10
6.41383
20
-3.72193
11
6.4133
21
-3.72065
0
LINE
8
BLACK
6
CONTINUOUS
10
6.4133
20
-3.72065
11
6.4133
21
-3.6853
0
LINE
8
BLACK
6
CONTINUOUS
10
6.4133
20
-3.6853
11
6.41383
21
-3.68403
0
LINE
8
BLACK
6
CONTINUOUS
10
6.41383
20
-3.68403
11
6.4151
21
-3.6835
0
LINE
8
BLACK
6
CONTINUOUS
10
6.4151
20
-3.6835
11
6.41637
21
-3.68403
0
LINE
8
BLACK
6
CONTINUOUS
10
5.61637
20
-3.65278
11
5.6169
21
-3.65405
0
LINE
8
BLACK
6
CONTINUOUS
10
5.6169
20
-3.65405
11
5.6169
21
-3.6894
0
LINE
8
BLACK
6
CONTINUOUS
10
5.6169
20
-3.6894
11
5.61637
21
-3.69068
0
LINE
8
BLACK
6
CONTINUOUS
10
5.61637
20
-3.69068
11
5.6151
21
-3.6912
0
LINE
8
BLACK
6
CONTINUOUS
10
5.6151
20
-3.6912
11
5.61383
21
-3.69068
0
LINE
8
BLACK
6
CONTINUOUS
10
5.61383
20
-3.69068
11
5.6133
21
-3.6894
0
LINE
8
BLACK
6
CONTINUOUS
10
5.6133
20
-3.6894
11
5.6133
21
-3.65405
0
LINE
8
BLACK
6
CONTINUOUS
10
5.6133
20
-3.65405
11
5.61383
21
-3.65278
0
LINE
8
BLACK
6
CONTINUOUS
10
5.61383
20
-3.65278
11
5.6151
21
-3.65225
0
LINE
8
BLACK
6
CONTINUOUS
10
5.6151
20
-3.65225
11
5.61637
21
-3.65278
0
LINE
8
BLACK
6
CONTINUOUS
10
6.39991
20
-3.63721
11
6.4002
21
-3.63719
0
LINE
8
BLACK
6
CONTINUOUS
10
6.4002
20
-3.63719
11
6.40683
21
-3.6394
0
LINE
8
BLACK
6
CONTINUOUS
10
6.40683
20
-3.6394
11
6.40715
21
-3.63968
0
LINE
8
BLACK
6
CONTINUOUS
10
6.40715
20
-3.63968
11
6.40754
21
-3.63984
0
LINE
8
BLACK
6
CONTINUOUS
10
6.40754
20
-3.63984
11
6.43098
21
-3.66328
0
LINE
8
BLACK
6
CONTINUOUS
10
6.43098
20
-3.66328
11
6.43098
21
-3.6389
0
LINE
8
BLACK
6
CONTINUOUS
10
6.43098
20
-3.6389
11
6.43151
21
-3.63763
0
LINE
8
BLACK
6
CONTINUOUS
10
6.43151
20
-3.63763
11
6.43278
21
-3.6371
0
LINE
8
BLACK
6
CONTINUOUS
10
6.43278
20
-3.6371
11
6.43405
21
-3.63763
0
LINE
8
BLACK
6
CONTINUOUS
10
6.43405
20
-3.63763
11
6.43458
21
-3.6389
0
LINE
8
BLACK
6
CONTINUOUS
10
6.43458
20
-3.6389
11
6.43458
21
-3.66762
0
LINE
8
BLACK
6
CONTINUOUS
10
6.43458
20
-3.66762
11
6.43405
21
-3.6689
0
LINE
8
BLACK
6
CONTINUOUS
10
6.43405
20
-3.6689
11
6.43278
21
-3.66942
0
LINE
8
BLACK
6
CONTINUOUS
10
6.43278
20
-3.66942
11
6.43151
21
-3.6689
0
LINE
8
BLACK
6
CONTINUOUS
10
6.43151
20
-3.6689
11
6.43151
21
-3.6689
0
LINE
8
BLACK
6
CONTINUOUS
10
6.43151
20
-3.6689
11
6.40529
21
-3.64268
0
LINE
8
BLACK
6
CONTINUOUS
10
6.40529
20
-3.64268
11
6.39934
21
-3.6407
0
LINE
8
BLACK
6
CONTINUOUS
10
6.39934
20
-3.6407
11
6.39564
21
-3.6407
0
LINE
8
BLACK
6
CONTINUOUS
10
6.39564
20
-3.6407
11
6.39186
21
-3.64259
0
LINE
8
BLACK
6
CONTINUOUS
10
6.39186
20
-3.64259
11
6.39007
21
-3.64439
0
LINE
8
BLACK
6
CONTINUOUS
10
6.39007
20
-3.64439
11
6.38818
21
-3.64816
0
LINE
8
BLACK
6
CONTINUOUS
10
6.38818
20
-3.64816
11
6.38818
21
-3.65836
0
LINE
8
BLACK
6
CONTINUOUS
10
6.38818
20
-3.65836
11
6.39007
21
-3.66214
0
LINE
8
BLACK
6
CONTINUOUS
10
6.39007
20
-3.66214
11
6.39207
21
-3.66414
0
LINE
8
BLACK
6
CONTINUOUS
10
6.39207
20
-3.66414
11
6.3926
21
-3.66541
0
LINE
8
BLACK
6
CONTINUOUS
10
6.3926
20
-3.66541
11
6.39207
21
-3.66669
0
LINE
8
BLACK
6
CONTINUOUS
10
6.39207
20
-3.66669
11
6.3908
21
-3.66721
0
LINE
8
BLACK
6
CONTINUOUS
10
6.3908
20
-3.66721
11
6.38952
21
-3.66669
0
LINE
8
BLACK
6
CONTINUOUS
10
6.38952
20
-3.66669
11
6.38732
21
-3.66448
0
LINE
8
BLACK
6
CONTINUOUS
10
6.38732
20
-3.66448
11
6.3872
21
-3.6642
0
LINE
8
BLACK
6
CONTINUOUS
10
6.3872
20
-3.6642
11
6.38698
21
-3.66401
0
LINE
8
BLACK
6
CONTINUOUS
10
6.38698
20
-3.66401
11
6.38477
21
-3.65959
0
LINE
8
BLACK
6
CONTINUOUS
10
6.38477
20
-3.65959
11
6.38474
21
-3.65917
0
LINE
8
BLACK
6
CONTINUOUS
10
6.38474
20
-3.65917
11
6.38458
21
-3.65879
0
LINE
8
BLACK
6
CONTINUOUS
10
6.38458
20
-3.65879
11
6.38458
21
-3.64774
0
LINE
8
BLACK
6
CONTINUOUS
10
6.38458
20
-3.64774
11
6.38474
21
-3.64735
0
LINE
8
BLACK
6
CONTINUOUS
10
6.38474
20
-3.64735
11
6.38477
21
-3.64693
0
LINE
8
BLACK
6
CONTINUOUS
10
6.38477
20
-3.64693
11
6.38698
21
-3.64251
0
LINE
8
BLACK
6
CONTINUOUS
10
6.38698
20
-3.64251
11
6.3872
21
-3.64232
0
LINE
8
BLACK
6
CONTINUOUS
10
6.3872
20
-3.64232
11
6.38732
21
-3.64205
0
LINE
8
BLACK
6
CONTINUOUS
10
6.38732
20
-3.64205
11
6.38952
21
-3.63984
0
LINE
8
BLACK
6
CONTINUOUS
10
6.38952
20
-3.63984
11
6.3898
21
-3.63972
0
LINE
8
BLACK
6
CONTINUOUS
10
6.3898
20
-3.63972
11
6.38999
21
-3.6395
0
LINE
8
BLACK
6
CONTINUOUS
10
6.38999
20
-3.6395
11
6.39441
21
-3.63729
0
LINE
8
BLACK
6
CONTINUOUS
10
6.39441
20
-3.63729
11
6.39483
21
-3.63726
0
LINE
8
BLACK
6
CONTINUOUS
10
6.39483
20
-3.63726
11
6.39522
21
-3.6371
0
LINE
8
BLACK
6
CONTINUOUS
10
6.39522
20
-3.6371
11
6.39964
21
-3.6371
0
LINE
8
BLACK
6
CONTINUOUS
10
6.39964
20
-3.6371
11
6.39991
21
-3.63721
0
LINE
8
BLACK
6
CONTINUOUS
10
5.59991
20
-3.60596
11
5.6002
21
-3.60594
0
LINE
8
BLACK
6
CONTINUOUS
10
5.6002
20
-3.60594
11
5.60683
21
-3.60815
0
LINE
8
BLACK
6
CONTINUOUS
10
5.60683
20
-3.60815
11
5.60715
21
-3.60843
0
LINE
8
BLACK
6
CONTINUOUS
10
5.60715
20
-3.60843
11
5.60754
21
-3.60859
0
LINE
8
BLACK
6
CONTINUOUS
10
5.60754
20
-3.60859
11
5.63098
21
-3.63203
0
LINE
8
BLACK
6
CONTINUOUS
10
5.63098
20
-3.63203
11
5.63098
21
-3.60765
0
LINE
8
BLACK
6
CONTINUOUS
10
5.63098
20
-3.60765
11
5.63151
21
-3.60638
0
LINE
8
BLACK
6
CONTINUOUS
10
5.63151
20
-3.60638
11
5.63278
21
-3.60585
0
LINE
8
BLACK
6
CONTINUOUS
10
5.63278
20
-3.60585
11
5.63405
21
-3.60638
0
LINE
8
BLACK
6
CONTINUOUS
10
5.63405
20
-3.60638
11
5.63458
21
-3.60765
0
LINE
8
BLACK
6
CONTINUOUS
10
5.63458
20
-3.60765
11
5.63458
21
-3.63637
0
LINE
8
BLACK
6
CONTINUOUS
10
5.63458
20
-3.63637
11
5.63405
21
-3.63765
0
LINE
8
BLACK
6
CONTINUOUS
10
5.63405
20
-3.63765
11
5.63278
21
-3.63817
0
LINE
8
BLACK
6
CONTINUOUS
10
5.63278
20
-3.63817
11
5.63151
21
-3.63765
0
LINE
8
BLACK
6
CONTINUOUS
10
5.63151
20
-3.63765
11
5.60529
21
-3.61143
0
LINE
8
BLACK
6
CONTINUOUS
10
5.60529
20
-3.61143
11
5.59934
21
-3.60945
0
LINE
8
BLACK
6
CONTINUOUS
10
5.59934
20
-3.60945
11
5.59564
21
-3.60945
0
LINE
8
BLACK
6
CONTINUOUS
10
5.59564
20
-3.60945
11
5.59186
21
-3.61134
0
LINE
8
BLACK
6
CONTINUOUS
10
5.59186
20
-3.61134
11
5.59007
21
-3.61314
0
LINE
8
BLACK
6
CONTINUOUS
10
5.59007
20
-3.61314
11
5.58818
21
-3.61691
0
LINE
8
BLACK
6
CONTINUOUS
10
5.58818
20
-3.61691
11
5.58818
21
-3.62711
0
LINE
8
BLACK
6
CONTINUOUS
10
5.58818
20
-3.62711
11
5.59007
21
-3.63089
0
LINE
8
BLACK
6
CONTINUOUS
10
5.59007
20
-3.63089
11
5.59207
21
-3.63289
0
LINE
8
BLACK
6
CONTINUOUS
10
5.59207
20
-3.63289
11
5.5926
21
-3.63416
0
LINE
8
BLACK
6
CONTINUOUS
10
5.5926
20
-3.63416
11
5.59207
21
-3.63544
0
LINE
8
BLACK
6
CONTINUOUS
10
5.59207
20
-3.63544
11
5.5908
21
-3.63596
0
LINE
8
BLACK
6
CONTINUOUS
10
5.5908
20
-3.63596
11
5.58952
21
-3.63544
0
LINE
8
BLACK
6
CONTINUOUS
10
5.58952
20
-3.63544
11
5.58732
21
-3.63323
0
LINE
8
BLACK
6
CONTINUOUS
10
5.58732
20
-3.63323
11
5.5872
21
-3.63295
0
LINE
8
BLACK
6
CONTINUOUS
10
5.5872
20
-3.63295
11
5.58698
21
-3.63276
0
LINE
8
BLACK
6
CONTINUOUS
10
5.58698
20
-3.63276
11
5.58477
21
-3.62834
0
LINE
8
BLACK
6
CONTINUOUS
10
5.58477
20
-3.62834
11
5.58474
21
-3.62792
0
LINE
8
BLACK
6
CONTINUOUS
10
5.58474
20
-3.62792
11
5.58458
21
-3.62754
0
LINE
8
BLACK
6
CONTINUOUS
10
5.58458
20
-3.62754
11
5.58458
21
-3.61649
0
LINE
8
BLACK
6
CONTINUOUS
10
5.58458
20
-3.61649
11
5.58474
21
-3.6161
0
LINE
8
BLACK
6
CONTINUOUS
10
5.58474
20
-3.6161
11
5.58477
21
-3.61568
0
LINE
8
BLACK
6
CONTINUOUS
10
5.58477
20
-3.61568
11
5.58698
21
-3.61126
0
LINE
8
BLACK
6
CONTINUOUS
10
5.58698
20
-3.61126
11
5.5872
21
-3.61107
0
LINE
8
BLACK
6
CONTINUOUS
10
5.5872
20
-3.61107
11
5.58732
21
-3.6108
0
LINE
8
BLACK
6
CONTINUOUS
10
5.58732
20
-3.6108
11
5.58952
21
-3.60859
0
LINE
8
BLACK
6
CONTINUOUS
10
5.58952
20
-3.60859
11
5.5898
21
-3.60847
0
LINE
8
BLACK
6
CONTINUOUS
10
5.5898
20
-3.60847
11
5.58999
21
-3.60825
0
LINE
8
BLACK
6
CONTINUOUS
10
5.58999
20
-3.60825
11
5.59441
21
-3.60604
0
LINE
8
BLACK
6
CONTINUOUS
10
5.59441
20
-3.60604
11
5.59483
21
-3.60601
0
LINE
8
BLACK
6
CONTINUOUS
10
5.59483
20
-3.60601
11
5.59522
21
-3.60585
0
LINE
8
BLACK
6
CONTINUOUS
10
5.59522
20
-3.60585
11
5.59964
21
-3.60585
0
LINE
8
BLACK
6
CONTINUOUS
10
5.59964
20
-3.60585
11
5.59991
21
-3.60596
0
LINE
8
BLACK
6
CONTINUOUS
10
5.6565
20
-3.594
11
5.6365
21
-3.594
0
LINE
8
BLACK
6
CONTINUOUS
10
5.6365
20
-3.594
11
5.6365
21
-3.574
0
LINE
8
BLACK
6
CONTINUOUS
10
5.6365
20
-3.574
11
5.6565
21
-3.574
0
LINE
8
BLACK
6
CONTINUOUS
10
5.6565
20
-3.574
11
5.6565
21
-3.594
0
LINE
8
BLACK
6
CONTINUOUS
10
5.7565
20
-3.594
11
5.7365
21
-3.594
0
LINE
8
BLACK
6
CONTINUOUS
10
5.7365
20
-3.594
11
5.7365
21
-3.574
0
LINE
8
BLACK
6
CONTINUOUS
10
5.7365
20
-3.574
11
5.7565
21
-3.574
0
LINE
8
BLACK
6
CONTINUOUS
10
5.7565
20
-3.574
11
5.7565
21
-3.594
0
LINE
8
BLACK
6
CONTINUOUS
10
5.8565
20
-3.594
11
5.8365
21
-3.594
0
LINE
8
BLACK
6
CONTINUOUS
10
5.8365
20
-3.594
11
5.8365
21
-3.574
0
LINE
8
BLACK
6
CONTINUOUS
10
5.8365
20
-3.574
11
5.8565
21
-3.574
0
LINE
8
BLACK
6
CONTINUOUS
10
5.8565
20
-3.574
11
5.8565
21
-3.594
0
LINE
8
BLACK
6
CONTINUOUS
10
5.9565
20
-3.594
11
5.9365
21
-3.594
0
LINE
8
BLACK
6
CONTINUOUS
10
5.9365
20
-3.594
11
5.9365
21
-3.574
0
LINE
8
BLACK
6
CONTINUOUS
10
5.9365
20
-3.574
11
5.9565
21
-3.574
0
LINE
8
BLACK
6
CONTINUOUS
10
5.9565
20
-3.574
11
5.9565
21
-3.594
0
LINE
8
BLACK
6
CONTINUOUS
10
6.0565
20
-3.594
11
6.0365
21
-3.594
0
LINE
8
BLACK
6
CONTINUOUS
10
6.0365
20
-3.594
11
6.0365
21
-3.574
0
LINE
8
BLACK
6
CONTINUOUS
10
6.0365
20
-3.574
11
6.0565
21
-3.574
0
LINE
8
BLACK
6
CONTINUOUS
10
6.0565
20
-3.574
11
6.0565
21
-3.594
0
LINE
8
BLACK
6
CONTINUOUS
10
5.6565
20
-3.494
11
5.6365
21
-3.494
0
LINE
8
BLACK
6
CONTINUOUS
10
5.6365
20
-3.494
11
5.6365
21
-3.474
0
LINE
8
BLACK
6
CONTINUOUS
10
5.6365
20
-3.474
11
5.6565
21
-3.474
0
LINE
8
BLACK
6
CONTINUOUS
10
5.6565
20
-3.474
11
5.6565
21
-3.494
0
LINE
8
BLACK
6
CONTINUOUS
10
5.7565
20
-3.494
11
5.7365
21
-3.494
0
LINE
8
BLACK
6
CONTINUOUS
10
5.7365
20
-3.494
11
5.7365
21
-3.474
0
LINE
8
BLACK
6
CONTINUOUS
10
5.7365
20
-3.474
11
5.7565
21
-3.474
0
LINE
8
BLACK
6
CONTINUOUS
10
5.7565
20
-3.474
11
5.7565
21
-3.494
0
LINE
8
BLACK
6
CONTINUOUS
10
5.8565
20
-3.494
11
5.8365
21
-3.494
0
LINE
8
BLACK
6
CONTINUOUS
10
5.8365
20
-3.494
11
5.8365
21
-3.474
0
LINE
8
BLACK
6
CONTINUOUS
10
5.8365
20
-3.474
11
5.8565
21
-3.474
0
LINE
8
BLACK
6
CONTINUOUS
10
5.8565
20
-3.474
11
5.8565
21
-3.494
0
LINE
8
BLACK
6
CONTINUOUS
10
5.9565
20
-3.494
11
5.9365
21
-3.494
0
LINE
8
BLACK
6
CONTINUOUS
10
5.9365
20
-3.494
11
5.9365
21
-3.474
0
LINE
8
BLACK
6
CONTINUOUS
10
5.9365
20
-3.474
11
5.9565
21
-3.474
0
LINE
8
BLACK
6
CONTINUOUS
10
5.9565
20
-3.474
11
5.9565
21
-3.494
0
LINE
8
BLACK
6
CONTINUOUS
10
6.0565
20
-3.494
11
6.0365
21
-3.494
0
LINE
8
BLACK
6
CONTINUOUS
10
6.0365
20
-3.494
11
6.0365
21
-3.474
0
LINE
8
BLACK
6
CONTINUOUS
10
6.0365
20
-3.474
11
6.0565
21
-3.474
0
LINE
8
BLACK
6
CONTINUOUS
10
6.0565
20
-3.474
11
6.0565
21
-3.494
0
LINE
8
BLACK
6
CONTINUOUS
10
5.60366
20
-3.34223
11
5.60405
21
-3.34225
0
LINE
8
BLACK
6
CONTINUOUS
10
5.60405
20
-3.34225
11
5.60427
21
-3.34248
0
LINE
8
BLACK
6
CONTINUOUS
10
5.60427
20
-3.34248
11
5.60457
21
-3.34261
0
LINE
8
BLACK
6
CONTINUOUS
10
5.60457
20
-3.34261
11
5.60472
21
-3.34297
0
LINE
8
BLACK
6
CONTINUOUS
10
5.60472
20
-3.34297
11
5.60499
21
-3.34326
0
LINE
8
BLACK
6
CONTINUOUS
10
5.60499
20
-3.34326
11
5.60497
21
-3.34358
0
LINE
8
BLACK
6
CONTINUOUS
10
5.60497
20
-3.34358
11
5.60509
21
-3.34388
0
LINE
8
BLACK
6
CONTINUOUS
10
5.60509
20
-3.34388
11
5.60509
21
-3.39028
0
LINE
8
BLACK
6
CONTINUOUS
10
5.60509
20
-3.39028
11
5.60457
21
-3.39155
0
LINE
8
BLACK
6
CONTINUOUS
10
5.60457
20
-3.39155
11
5.60329
21
-3.39208
0
LINE
8
BLACK
6
CONTINUOUS
10
5.60329
20
-3.39208
11
5.60202
21
-3.39155
0
LINE
8
BLACK
6
CONTINUOUS
10
5.60202
20
-3.39155
11
5.60149
21
-3.39028
0
LINE
8
BLACK
6
CONTINUOUS
10
5.60149
20
-3.39028
11
5.60149
21
-3.35199
0
LINE
8
BLACK
6
CONTINUOUS
10
5.60149
20
-3.35199
11
5.58946
21
-3.37778
0
LINE
8
BLACK
6
CONTINUOUS
10
5.58946
20
-3.37778
11
5.589
21
-3.3782
0
LINE
8
BLACK
6
CONTINUOUS
10
5.589
20
-3.3782
11
5.58859
21
-3.37865
0
LINE
8
BLACK
6
CONTINUOUS
10
5.58859
20
-3.37865
11
5.5885
21
-3.37866
0
LINE
8
BLACK
6
CONTINUOUS
10
5.5885
20
-3.37866
11
5.58844
21
-3.37871
0
LINE
8
BLACK
6
CONTINUOUS
10
5.58844
20
-3.37871
11
5.58783
21
-3.37869
0
LINE
8
BLACK
6
CONTINUOUS
10
5.58783
20
-3.37869
11
5.58721
21
-3.37871
0
LINE
8
BLACK
6
CONTINUOUS
10
5.58721
20
-3.37871
11
5.58715
21
-3.37866
0
LINE
8
BLACK
6
CONTINUOUS
10
5.58715
20
-3.37866
11
5.58707
21
-3.37865
0
LINE
8
BLACK
6
CONTINUOUS
10
5.58707
20
-3.37865
11
5.58665
21
-3.3782
0
LINE
8
BLACK
6
CONTINUOUS
10
5.58665
20
-3.3782
11
5.5862
21
-3.37778
0
LINE
8
BLACK
6
CONTINUOUS
10
5.5862
20
-3.37778
11
5.57416
21
-3.35199
0
LINE
8
BLACK
6
CONTINUOUS
10
5.57416
20
-3.35199
11
5.57416
21
-3.39028
0
LINE
8
BLACK
6
CONTINUOUS
10
5.57416
20
-3.39028
11
5.57363
21
-3.39155
0
LINE
8
BLACK
6
CONTINUOUS
10
5.57363
20
-3.39155
11
5.57236
21
-3.39208
0
LINE
8
BLACK
6
CONTINUOUS
10
5.57236
20
-3.39208
11
5.57109
21
-3.39155
0
LINE
8
BLACK
6
CONTINUOUS
10
5.57109
20
-3.39155
11
5.57056
21
-3.39028
0
LINE
8
BLACK
6
CONTINUOUS
10
5.57056
20
-3.39028
11
5.57056
21
-3.34388
0
LINE
8
BLACK
6
CONTINUOUS
10
5.57056
20
-3.34388
11
5.57068
21
-3.34358
0
LINE
8
BLACK
6
CONTINUOUS
10
5.57068
20
-3.34358
11
5.57067
21
-3.34326
0
LINE
8
BLACK
6
CONTINUOUS
10
5.57067
20
-3.34326
11
5.57094
21
-3.34297
0
LINE
8
BLACK
6
CONTINUOUS
10
5.57094
20
-3.34297
11
5.57109
21
-3.34261
0
LINE
8
BLACK
6
CONTINUOUS
10
5.57109
20
-3.34261
11
5.57138
21
-3.34248
0
LINE
8
BLACK
6
CONTINUOUS
10
5.57138
20
-3.34248
11
5.5716
21
-3.34225
0
LINE
8
BLACK
6
CONTINUOUS
10
5.5716
20
-3.34225
11
5.57199
21
-3.34223
0
LINE
8
BLACK
6
CONTINUOUS
10
5.57199
20
-3.34223
11
5.57236
21
-3.34208
0
LINE
8
BLACK
6
CONTINUOUS
10
5.57236
20
-3.34208
11
5.57266
21
-3.3422
0
LINE
8
BLACK
6
CONTINUOUS
10
5.57266
20
-3.3422
11
5.57298
21
-3.34219
0
LINE
8
BLACK
6
CONTINUOUS
10
5.57298
20
-3.34219
11
5.57327
21
-3.34245
0
LINE
8
BLACK
6
CONTINUOUS
10
5.57327
20
-3.34245
11
5.57363
21
-3.34261
0
LINE
8
BLACK
6
CONTINUOUS
10
5.57363
20
-3.34261
11
5.57376
21
-3.3429
0
LINE
8
BLACK
6
CONTINUOUS
10
5.57376
20
-3.3429
11
5.57399
21
-3.34312
0
LINE
8
BLACK
6
CONTINUOUS
10
5.57399
20
-3.34312
11
5.58783
21
-3.37276
0
LINE
8
BLACK
6
CONTINUOUS
10
5.58783
20
-3.37276
11
5.60166
21
-3.34312
0
LINE
8
BLACK
6
CONTINUOUS
10
5.60166
20
-3.34312
11
5.6019
21
-3.3429
0
LINE
8
BLACK
6
CONTINUOUS
10
5.6019
20
-3.3429
11
5.60202
21
-3.34261
0
LINE
8
BLACK
6
CONTINUOUS
10
5.60202
20
-3.34261
11
5.60239
21
-3.34245
0
LINE
8
BLACK
6
CONTINUOUS
10
5.60239
20
-3.34245
11
5.60268
21
-3.34219
0
LINE
8
BLACK
6
CONTINUOUS
10
5.60268
20
-3.34219
11
5.603
21
-3.3422
0
LINE
8
BLACK
6
CONTINUOUS
10
5.603
20
-3.3422
11
5.60329
21
-3.34208
0
LINE
8
BLACK
6
CONTINUOUS
10
5.60329
20
-3.34208
11
5.60366
21
-3.34223
0
LINE
8
BLACK
6
CONTINUOUS
10
5.6788
20
-3.34224
11
5.67922
21
-3.34227
0
LINE
8
BLACK
6
CONTINUOUS
10
5.67922
20
-3.34227
11
5.68364
21
-3.34448
0
LINE
8
BLACK
6
CONTINUOUS
10
5.68364
20
-3.34448
11
5.68384
21
-3.3447
0
LINE
8
BLACK
6
CONTINUOUS
10
5.68384
20
-3.3447
11
5.68411
21
-3.34482
0
LINE
8
BLACK
6
CONTINUOUS
10
5.68411
20
-3.34482
11
5.68632
21
-3.34702
0
LINE
8
BLACK
6
CONTINUOUS
10
5.68632
20
-3.34702
11
5.68643
21
-3.3473
0
LINE
8
BLACK
6
CONTINUOUS
10
5.68643
20
-3.3473
11
5.68666
21
-3.34749
0
LINE
8
BLACK
6
CONTINUOUS
10
5.68666
20
-3.34749
11
5.68887
21
-3.35191
0
LINE
8
BLACK
6
CONTINUOUS
10
5.68887
20
-3.35191
11
5.68888
21
-3.35212
0
LINE
8
BLACK
6
CONTINUOUS
10
5.68888
20
-3.35212
11
5.689
21
-3.35228
0
LINE
8
BLACK
6
CONTINUOUS
10
5.689
20
-3.35228
11
5.69121
21
-3.36112
0
LINE
8
BLACK
6
CONTINUOUS
10
5.69121
20
-3.36112
11
5.69118
21
-3.36134
0
LINE
8
BLACK
6
CONTINUOUS
10
5.69118
20
-3.36134
11
5.69126
21
-3.36155
0
LINE
8
BLACK
6
CONTINUOUS
10
5.69126
20
-3.36155
11
5.69126
21
-3.3726
0
LINE
8
BLACK
6
CONTINUOUS
10
5.69126
20
-3.3726
11
5.69118
21
-3.37281
0
LINE
8
BLACK
6
CONTINUOUS
10
5.69118
20
-3.37281
11
5.69121
21
-3.37304
0
LINE
8
BLACK
6
CONTINUOUS
10
5.69121
20
-3.37304
11
5.689
21
-3.38188
0
LINE
8
BLACK
6
CONTINUOUS
10
5.689
20
-3.38188
11
5.68888
21
-3.38204
0
LINE
8
BLACK
6
CONTINUOUS
10
5.68888
20
-3.38204
11
5.68887
21
-3.38225
0
LINE
8
BLACK
6
CONTINUOUS
10
5.68887
20
-3.38225
11
5.68666
21
-3.38666
0
LINE
8
BLACK
6
CONTINUOUS
10
5.68666
20
-3.38666
11
5.68643
21
-3.38686
0
LINE
8
BLACK
6
CONTINUOUS
10
5.68643
20
-3.38686
11
5.68632
21
-3.38713
0
LINE
8
BLACK
6
CONTINUOUS
10
5.68632
20
-3.38713
11
5.68411
21
-3.38934
0
LINE
8
BLACK
6
CONTINUOUS
10
5.68411
20
-3.38934
11
5.68384
21
-3.38945
0
LINE
8
BLACK
6
CONTINUOUS
10
5.68384
20
-3.38945
11
5.68364
21
-3.38968
0
LINE
8
BLACK
6
CONTINUOUS
10
5.68364
20
-3.38968
11
5.67922
21
-3.39189
0
LINE
8
BLACK
6
CONTINUOUS
10
5.67922
20
-3.39189
11
5.6788
21
-3.39192
0
LINE
8
BLACK
6
CONTINUOUS
10
5.6788
20
-3.39192
11
5.67842
21
-3.39208
0
LINE
8
BLACK
6
CONTINUOUS
10
5.67842
20
-3.39208
11
5.674
21
-3.39208
0
LINE
8
BLACK
6
CONTINUOUS
10
5.674
20
-3.39208
11
5.67361
21
-3.39192
0
LINE
8
BLACK
6
CONTINUOUS
10
5.67361
20
-3.39192
11
5.67319
21
-3.39189
0
LINE
8
BLACK
6
CONTINUOUS
10
5.67319
20
-3.39189
11
5.66877
21
-3.38968
0
LINE
8
BLACK
6
CONTINUOUS
10
5.66877
20
-3.38968
11
5.66858
21
-3.38945
0
LINE
8
BLACK
6
CONTINUOUS
10
5.66858
20
-3.38945
11
5.66831
21
-3.38934
0
LINE
8
BLACK
6
CONTINUOUS
10
5.66831
20
-3.38934
11
5.6661
21
-3.38713
0
LINE
8
BLACK
6
CONTINUOUS
10
5.6661
20
-3.38713
11
5.66598
21
-3.38686
0
LINE
8
BLACK
6
CONTINUOUS
10
5.66598
20
-3.38686
11
5.66576
21
-3.38666
0
LINE
8
BLACK
6
CONTINUOUS
10
5.66576
20
-3.38666
11
5.66355
21
-3.38225
0
LINE
8
BLACK
6
CONTINUOUS
10
5.66355
20
-3.38225
11
5.66354
21
-3.38204
0
LINE
8
BLACK
6
CONTINUOUS
10
5.66354
20
-3.38204
11
5.66341
21
-3.38188
0
LINE
8
BLACK
6
CONTINUOUS
10
5.66341
20
-3.38188
11
5.6612
21
-3.37304
0
LINE
8
BLACK
6
CONTINUOUS
10
5.6612
20
-3.37304
11
5.66124
21
-3.37281
0
LINE
8
BLACK
6
CONTINUOUS
10
5.66124
20
-3.37281
11
5.66115
21
-3.3726
0
LINE
8
BLACK
6
CONTINUOUS
10
5.66115
20
-3.3726
11
5.66115
21
-3.36155
0
LINE
8
BLACK
6
CONTINUOUS
10
5.66115
20
-3.36155
11
5.66124
21
-3.36134
0
LINE
8
BLACK
6
CONTINUOUS
10
5.66124
20
-3.36134
11
5.6612
21
-3.36112
0
LINE
8
BLACK
6
CONTINUOUS
10
5.6612
20
-3.36112
11
5.66341
21
-3.35228
0
LINE
8
BLACK
6
CONTINUOUS
10
5.66341
20
-3.35228
11
5.66354
21
-3.35212
0
LINE
8
BLACK
6
CONTINUOUS
10
5.66354
20
-3.35212
11
5.66355
21
-3.35191
0
LINE
8
BLACK
6
CONTINUOUS
10
5.66355
20
-3.35191
11
5.66576
21
-3.34749
0
LINE
8
BLACK
6
CONTINUOUS
10
5.66576
20
-3.34749
11
5.66598
21
-3.3473
0
LINE
8
BLACK
6
CONTINUOUS
10
5.66598
20
-3.3473
11
5.6661
21
-3.34702
0
LINE
8
BLACK
6
CONTINUOUS
10
5.6661
20
-3.34702
11
5.66831
21
-3.34482
0
LINE
8
BLACK
6
CONTINUOUS
10
5.66831
20
-3.34482
11
5.66858
21
-3.3447
0
LINE
8
BLACK
6
CONTINUOUS
10
5.66858
20
-3.3447
11
5.66877
21
-3.34448
0
LINE
8
BLACK
6
CONTINUOUS
10
5.66877
20
-3.34448
11
5.67319
21
-3.34227
0
LINE
8
BLACK
6
CONTINUOUS
10
5.67319
20
-3.34227
11
5.67361
21
-3.34224
0
LINE
8
BLACK
6
CONTINUOUS
10
5.67361
20
-3.34224
11
5.674
21
-3.34208
0
LINE
8
BLACK
6
CONTINUOUS
10
5.674
20
-3.34208
11
5.67842
21
-3.34208
0
LINE
8
BLACK
6
CONTINUOUS
10
5.67842
20
-3.34208
11
5.6788
21
-3.34224
0
LINE
8
BLACK
6
CONTINUOUS
10
5.67065
20
-3.34757
11
5.66885
21
-3.34936
0
LINE
8
BLACK
6
CONTINUOUS
10
5.66885
20
-3.34936
11
5.66686
21
-3.35334
0
LINE
8
BLACK
6
CONTINUOUS
10
5.66686
20
-3.35334
11
5.66475
21
-3.36178
0
LINE
8
BLACK
6
CONTINUOUS
10
5.66475
20
-3.36178
11
5.66475
21
-3.37238
0
LINE
8
BLACK
6
CONTINUOUS
10
5.66475
20
-3.37238
11
5.66686
21
-3.38081
0
LINE
8
BLACK
6
CONTINUOUS
10
5.66686
20
-3.38081
11
5.66885
21
-3.38479
0
LINE
8
BLACK
6
CONTINUOUS
10
5.66885
20
-3.38479
11
5.67065
21
-3.38659
0
LINE
8
BLACK
6
CONTINUOUS
10
5.67065
20
-3.38659
11
5.67442
21
-3.38848
0
LINE
8
BLACK
6
CONTINUOUS
10
5.67442
20
-3.38848
11
5.67799
21
-3.38848
0
LINE
8
BLACK
6
CONTINUOUS
10
5.67799
20
-3.38848
11
5.68177
21
-3.38659
0
LINE
8
BLACK
6
CONTINUOUS
10
5.68177
20
-3.38659
11
5.68357
21
-3.38479
0
LINE
8
BLACK
6
CONTINUOUS
10
5.68357
20
-3.38479
11
5.68556
21
-3.38081
0
LINE
8
BLACK
6
CONTINUOUS
10
5.68556
20
-3.38081
11
5.68766
21
-3.37238
0
LINE
8
BLACK
6
CONTINUOUS
10
5.68766
20
-3.37238
11
5.68766
21
-3.36178
0
LINE
8
BLACK
6
CONTINUOUS
10
5.68766
20
-3.36178
11
5.68556
21
-3.35334
0
LINE
8
BLACK
6
CONTINUOUS
10
5.68556
20
-3.35334
11
5.68357
21
-3.34936
0
LINE
8
BLACK
6
CONTINUOUS
10
5.68357
20
-3.34936
11
5.68177
21
-3.34757
0
LINE
8
BLACK
6
CONTINUOUS
10
5.68177
20
-3.34757
11
5.67799
21
-3.34568
0
LINE
8
BLACK
6
CONTINUOUS
10
5.67799
20
-3.34568
11
5.67442
21
-3.34568
0
LINE
8
BLACK
6
CONTINUOUS
10
5.67442
20
-3.34568
11
5.67065
21
-3.34757
0
LINE
8
BLACK
6
CONTINUOUS
10
5.73272
20
-3.34261
11
5.73325
21
-3.34388
0
LINE
8
BLACK
6
CONTINUOUS
10
5.73325
20
-3.34388
11
5.73272
21
-3.34515
0
LINE
8
BLACK
6
CONTINUOUS
10
5.73272
20
-3.34515
11
5.73145
21
-3.34568
0
LINE
8
BLACK
6
CONTINUOUS
10
5.73145
20
-3.34568
11
5.71098
21
-3.34568
0
LINE
8
BLACK
6
CONTINUOUS
10
5.71098
20
-3.34568
11
5.70937
21
-3.36174
0
LINE
8
BLACK
6
CONTINUOUS
10
5.70937
20
-3.36174
11
5.71296
21
-3.35994
0
LINE
8
BLACK
6
CONTINUOUS
10
5.71296
20
-3.35994
11
5.71338
21
-3.35991
0
LINE
8
BLACK
6
CONTINUOUS
10
5.71338
20
-3.35991
11
5.71377
21
-3.35975
0
LINE
8
BLACK
6
CONTINUOUS
10
5.71377
20
-3.35975
11
5.72482
21
-3.35975
0
LINE
8
BLACK
6
CONTINUOUS
10
5.72482
20
-3.35975
11
5.7252
21
-3.35991
0
LINE
8
BLACK
6
CONTINUOUS
10
5.7252
20
-3.35991
11
5.72562
21
-3.35994
0
LINE
8
BLACK
6
CONTINUOUS
10
5.72562
20
-3.35994
11
5.73004
21
-3.36215
0
LINE
8
BLACK
6
CONTINUOUS
10
5.73004
20
-3.36215
11
5.73024
21
-3.36238
0
LINE
8
BLACK
6
CONTINUOUS
10
5.73024
20
-3.36238
11
5.73051
21
-3.36249
0
LINE
8
BLACK
6
CONTINUOUS
10
5.73051
20
-3.36249
11
5.73272
21
-3.3647
0
LINE
8
BLACK
6
CONTINUOUS
10
5.73272
20
-3.3647
11
5.73283
21
-3.36497
0
LINE
8
BLACK
6
CONTINUOUS
10
5.73283
20
-3.36497
11
5.73306
21
-3.36517
0
LINE
8
BLACK
6
CONTINUOUS
10
5.73306
20
-3.36517
11
5.73527
21
-3.36959
0
LINE
8
BLACK
6
CONTINUOUS
10
5.73527
20
-3.36959
11
5.7353
21
-3.37001
0
LINE
8
BLACK
6
CONTINUOUS
10
5.7353
20
-3.37001
11
5.73546
21
-3.37039
0
LINE
8
BLACK
6
CONTINUOUS
10
5.73546
20
-3.37039
11
5.73546
21
-3.38144
0
LINE
8
BLACK
6
CONTINUOUS
10
5.73546
20
-3.38144
11
5.7353
21
-3.38183
0
LINE
8
BLACK
6
CONTINUOUS
10
5.7353
20
-3.38183
11
5.73527
21
-3.38225
0
LINE
8
BLACK
6
CONTINUOUS
10
5.73527
20
-3.38225
11
5.73306
21
-3.38666
0
LINE
8
BLACK
6
CONTINUOUS
10
5.73306
20
-3.38666
11
5.73283
21
-3.38686
0
LINE
8
BLACK
6
CONTINUOUS
10
5.73283
20
-3.38686
11
5.73272
21
-3.38713
0
LINE
8
BLACK
6
CONTINUOUS
10
5.73272
20
-3.38713
11
5.73051
21
-3.38934
0
LINE
8
BLACK
6
CONTINUOUS
10
5.73051
20
-3.38934
11
5.73024
21
-3.38945
0
LINE
8
BLACK
6
CONTINUOUS
10
5.73024
20
-3.38945
11
5.73004
21
-3.38968
0
LINE
8
BLACK
6
CONTINUOUS
10
5.73004
20
-3.38968
11
5.72562
21
-3.39189
0
LINE
8
BLACK
6
CONTINUOUS
10
5.72562
20
-3.39189
11
5.7252
21
-3.39192
0
LINE
8
BLACK
6
CONTINUOUS
10
5.7252
20
-3.39192
11
5.72482
21
-3.39208
0
LINE
8
BLACK
6
CONTINUOUS
10
5.72482
20
-3.39208
11
5.71377
21
-3.39208
0
LINE
8
BLACK
6
CONTINUOUS
10
5.71377
20
-3.39208
11
5.71338
21
-3.39192
0
LINE
8
BLACK
6
CONTINUOUS
10
5.71338
20
-3.39192
11
5.71296
21
-3.39189
0
LINE
8
BLACK
6
CONTINUOUS
10
5.71296
20
-3.39189
11
5.70855
21
-3.38968
0
LINE
8
BLACK
6
CONTINUOUS
10
5.70855
20
-3.38968
11
5.70835
21
-3.38945
0
LINE
8
BLACK
6
CONTINUOUS
10
5.70835
20
-3.38945
11
5.70808
21
-3.38934
0
LINE
8
BLACK
6
CONTINUOUS
10
5.70808
20
-3.38934
11
5.70587
21
-3.38713
0
LINE
8
BLACK
6
CONTINUOUS
10
5.70587
20
-3.38713
11
5.70534
21
-3.38586
0
LINE
8
BLACK
6
CONTINUOUS
10
5.70534
20
-3.38586
11
5.70587
21
-3.38459
0
LINE
8
BLACK
6
CONTINUOUS
10
5.70587
20
-3.38459
11
5.70714
21
-3.38406
0
LINE
8
BLACK
6
CONTINUOUS
10
5.70714
20
-3.38406
11
5.70841
21
-3.38459
0
LINE
8
BLACK
6
CONTINUOUS
10
5.70841
20
-3.38459
11
5.71042
21
-3.38659
0
LINE
8
BLACK
6
CONTINUOUS
10
5.71042
20
-3.38659
11
5.71419
21
-3.38848
0
LINE
8
BLACK
6
CONTINUOUS
10
5.71419
20
-3.38848
11
5.72439
21
-3.38848
0
LINE
8
BLACK
6
CONTINUOUS
10
5.72439
20
-3.38848
11
5.72817
21
-3.38659
0
LINE
8
BLACK
6
CONTINUOUS
10
5.72817
20
-3.38659
11
5.72997
21
-3.38479
0
LINE
8
BLACK
6
CONTINUOUS
10
5.72997
20
-3.38479
11
5.73186
21
-3.38102
0
LINE
8
BLACK
6
CONTINUOUS
10
5.73186
20
-3.38102
11
5.73186
21
-3.37082
0
LINE
8
BLACK
6
CONTINUOUS
10
5.73186
20
-3.37082
11
5.72997
21
-3.36704
0
LINE
8
BLACK
6
CONTINUOUS
10
5.72997
20
-3.36704
11
5.72817
21
-3.36524
0
LINE
8
BLACK
6
CONTINUOUS
10
5.72817
20
-3.36524
11
5.72439
21
-3.36335
0
LINE
8
BLACK
6
CONTINUOUS
10
5.72439
20
-3.36335
11
5.71419
21
-3.36335
0
LINE
8
BLACK
6
CONTINUOUS
10
5.71419
20
-3.36335
11
5.71042
21
-3.36524
0
LINE
8
BLACK
6
CONTINUOUS
10
5.71042
20
-3.36524
11
5.70841
21
-3.36725
0
LINE
8
BLACK
6
CONTINUOUS
10
5.70841
20
-3.36725
11
5.70833
21
-3.36728
0
LINE
8
BLACK
6
CONTINUOUS
10
5.70833
20
-3.36728
11
5.70828
21
-3.36737
0
LINE
8
BLACK
6
CONTINUOUS
10
5.70828
20
-3.36737
11
5.7077
21
-3.36754
0
LINE
8
BLACK
6
CONTINUOUS
10
5.7077
20
-3.36754
11
5.70714
21
-3.36777
0
LINE
8
BLACK
6
CONTINUOUS
10
5.70714
20
-3.36777
11
5.70705
21
-3.36774
0
LINE
8
BLACK
6
CONTINUOUS
10
5.70705
20
-3.36774
11
5.70696
21
-3.36776
0
LINE
8
BLACK
6
CONTINUOUS
10
5.70696
20
-3.36776
11
5.70643
21
-3.36748
0
LINE
8
BLACK
6
CONTINUOUS
10
5.70643
20
-3.36748
11
5.70587
21
-3.36725
0
LINE
8
BLACK
6
CONTINUOUS
10
5.70587
20
-3.36725
11
5.70583
21
-3.36716
0
LINE
8
BLACK
6
CONTINUOUS
10
5.70583
20
-3.36716
11
5.70575
21
-3.36711
0
LINE
8
BLACK
6
CONTINUOUS
10
5.70575
20
-3.36711
11
5.70557
21
-3.36653
0
LINE
8
BLACK
6
CONTINUOUS
10
5.70557
20
-3.36653
11
5.70534
21
-3.36597
0
LINE
8
BLACK
6
CONTINUOUS
10
5.70534
20
-3.36597
11
5.70538
21
-3.36589
0
LINE
8
BLACK
6
CONTINUOUS
10
5.70538
20
-3.36589
11
5.70535
21
-3.36579
0
LINE
8
BLACK
6
CONTINUOUS
10
5.70535
20
-3.36579
11
5.70756
21
-3.3437
0
LINE
8
BLACK
6
CONTINUOUS
10
5.70756
20
-3.3437
11
5.70785
21
-3.34317
0
LINE
8
BLACK
6
CONTINUOUS
10
5.70785
20
-3.34317
11
5.70808
21
-3.34261
0
LINE
8
BLACK
6
CONTINUOUS
10
5.70808
20
-3.34261
11
5.70817
21
-3.34257
0
LINE
8
BLACK
6
CONTINUOUS
10
5.70817
20
-3.34257
11
5.70821
21
-3.34249
0
LINE
8
BLACK
6
CONTINUOUS
10
5.70821
20
-3.34249
11
5.70879
21
-3.34231
0
LINE
8
BLACK
6
CONTINUOUS
10
5.70879
20
-3.34231
11
5.70935
21
-3.34208
0
LINE
8
BLACK
6
CONTINUOUS
10
5.70935
20
-3.34208
11
5.73145
21
-3.34208
0
LINE
8
BLACK
6
CONTINUOUS
10
5.73145
20
-3.34208
11
5.73272
21
-3.34261
0
LINE
8
BLACK
6
CONTINUOUS
10
5.82684
20
-3.34224
11
5.82726
21
-3.34227
0
LINE
8
BLACK
6
CONTINUOUS
10
5.82726
20
-3.34227
11
5.83168
21
-3.34448
0
LINE
8
BLACK
6
CONTINUOUS
10
5.83168
20
-3.34448
11
5.83187
21
-3.3447
0
LINE
8
BLACK
6
CONTINUOUS
10
5.83187
20
-3.3447
11
5.83215
21
-3.34482
0
LINE
8
BLACK
6
CONTINUOUS
10
5.83215
20
-3.34482
11
5.83436
21
-3.34702
0
LINE
8
BLACK
6
CONTINUOUS
10
5.83436
20
-3.34702
11
5.83447
21
-3.3473
0
LINE
8
BLACK
6
CONTINUOUS
10
5.83447
20
-3.3473
11
5.83469
21
-3.34749
0
LINE
8
BLACK
6
CONTINUOUS
10
5.83469
20
-3.34749
11
5.8369
21
-3.35191
0
LINE
8
BLACK
6
CONTINUOUS
10
5.8369
20
-3.35191
11
5.83693
21
-3.35233
0
LINE
8
BLACK
6
CONTINUOUS
10
5.83693
20
-3.35233
11
5.83709
21
-3.35272
0
LINE
8
BLACK
6
CONTINUOUS
10
5.83709
20
-3.35272
11
5.83709
21
-3.35714
0
LINE
8
BLACK
6
CONTINUOUS
10
5.83709
20
-3.35714
11
5.83698
21
-3.35741
0
LINE
8
BLACK
6
CONTINUOUS
10
5.83698
20
-3.35741
11
5.837
21
-3.3577
0
LINE
8
BLACK
6
CONTINUOUS
10
5.837
20
-3.3577
11
5.83479
21
-3.36433
0
LINE
8
BLACK
6
CONTINUOUS
10
5.83479
20
-3.36433
11
5.83452
21
-3.36465
0
LINE
8
BLACK
6
CONTINUOUS
10
5.83452
20
-3.36465
11
5.83436
21
-3.36504
0
LINE
8
BLACK
6
CONTINUOUS
10
5.83436
20
-3.36504
11
5.81092
21
-3.38848
0
LINE
8
BLACK
6
CONTINUOUS
10
5.81092
20
-3.38848
11
5.83529
21
-3.38848
0
LINE
8
BLACK
6
CONTINUOUS
10
5.83529
20
-3.38848
11
5.83657
21
-3.38901
0
LINE
8
BLACK
6
CONTINUOUS
10
5.83657
20
-3.38901
11
5.83709
21
-3.39028
0
LINE
8
BLACK
6
CONTINUOUS
10
5.83709
20
-3.39028
11
5.83657
21
-3.39155
0
LINE
8
BLACK
6
CONTINUOUS
10
5.83657
20
-3.39155
11
5.83529
21
-3.39208
0
LINE
8
BLACK
6
CONTINUOUS
10
5.83529
20
-3.39208
11
5.80657
21
-3.39208
0
LINE
8
BLACK
6
CONTINUOUS
10
5.80657
20
-3.39208
11
5.8053
21
-3.39155
0
LINE
8
BLACK
6
CONTINUOUS
10
5.8053
20
-3.39155
11
5.80477
21
-3.39028
0
LINE
8
BLACK
6
CONTINUOUS
10
5.80477
20
-3.39028
11
5.8053
21
-3.38901
0
LINE
8
BLACK
6
CONTINUOUS
10
5.8053
20
-3.38901
11
5.83151
21
-3.36279
0
LINE
8
BLACK
6
CONTINUOUS
10
5.83151
20
-3.36279
11
5.83349
21
-3.35684
0
LINE
8
BLACK
6
CONTINUOUS
10
5.83349
20
-3.35684
11
5.83349
21
-3.35314
0
LINE
8
BLACK
6
CONTINUOUS
10
5.83349
20
-3.35314
11
5.8316
21
-3.34936
0
LINE
8
BLACK
6
CONTINUOUS
10
5.8316
20
-3.34936
11
5.82981
21
-3.34757
0
LINE
8
BLACK
6
CONTINUOUS
10
5.82981
20
-3.34757
11
5.82603
21
-3.34568
0
LINE
8
BLACK
6
CONTINUOUS
10
5.82603
20
-3.34568
11
5.81583
21
-3.34568
0
LINE
8
BLACK
6
CONTINUOUS
10
5.81583
20
-3.34568
11
5.81205
21
-3.34757
0
LINE
8
BLACK
6
CONTINUOUS
10
5.81205
20
-3.34757
11
5.81005
21
-3.34957
0
LINE
8
BLACK
6
CONTINUOUS
10
5.81005
20
-3.34957
11
5.80878
21
-3.3501
0
LINE
8
BLACK
6
CONTINUOUS
10
5.80878
20
-3.3501
11
5.80751
21
-3.34957
0
LINE
8
BLACK
6
CONTINUOUS
10
5.80751
20
-3.34957
11
5.80698
21
-3.3483
0
LINE
8
BLACK
6
CONTINUOUS
10
5.80698
20
-3.3483
11
5.80751
21
-3.34702
0
LINE
8
BLACK
6
CONTINUOUS
10
5.80751
20
-3.34702
11
5.80972
21
-3.34482
0
LINE
8
BLACK
6
CONTINUOUS
10
5.80972
20
-3.34482
11
5.80999
21
-3.3447
0
LINE
8
BLACK
6
CONTINUOUS
10
5.80999
20
-3.3447
11
5.81018
21
-3.34448
0
LINE
8
BLACK
6
CONTINUOUS
10
5.81018
20
-3.34448
11
5.8146
21
-3.34227
0
LINE
8
BLACK
6
CONTINUOUS
10
5.8146
20
-3.34227
11
5.81502
21
-3.34224
0
LINE
8
BLACK
6
CONTINUOUS
10
5.81502
20
-3.34224
11
5.81541
21
-3.34208
0
LINE
8
BLACK
6
CONTINUOUS
10
5.81541
20
-3.34208
11
5.82646
21
-3.34208
0
LINE
8
BLACK
6
CONTINUOUS
10
5.82646
20
-3.34208
11
5.82684
21
-3.34224
0
LINE
8
BLACK
6
CONTINUOUS
10
5.6349
20
-3.34226
11
5.63503
21
-3.34227
0
LINE
8
BLACK
6
CONTINUOUS
10
5.63503
20
-3.34227
11
5.63541
21
-3.3427
0
LINE
8
BLACK
6
CONTINUOUS
10
5.63541
20
-3.3427
11
5.63584
21
-3.34307
0
LINE
8
BLACK
6
CONTINUOUS
10
5.63584
20
-3.34307
11
5.63585
21
-3.34321
0
LINE
8
BLACK
6
CONTINUOUS
10
5.63585
20
-3.34321
11
5.63593
21
-3.34331
0
LINE
8
BLACK
6
CONTINUOUS
10
5.63593
20
-3.34331
11
5.6514
21
-3.38971
0
LINE
8
BLACK
6
CONTINUOUS
10
5.6514
20
-3.38971
11
5.6513
21
-3.39108
0
LINE
8
BLACK
6
CONTINUOUS
10
5.6513
20
-3.39108
11
5.65026
21
-3.39199
0
LINE
8
BLACK
6
CONTINUOUS
10
5.65026
20
-3.39199
11
5.64889
21
-3.39189
0
LINE
8
BLACK
6
CONTINUOUS
10
5.64889
20
-3.39189
11
5.64799
21
-3.39085
0
LINE
8
BLACK
6
CONTINUOUS
10
5.64799
20
-3.39085
11
5.64398
21
-3.37882
0
LINE
8
BLACK
6
CONTINUOUS
10
5.64398
20
-3.37882
11
5.62448
21
-3.37882
0
LINE
8
BLACK
6
CONTINUOUS
10
5.62448
20
-3.37882
11
5.62047
21
-3.39085
0
LINE
8
BLACK
6
CONTINUOUS
10
5.62047
20
-3.39085
11
5.61957
21
-3.39189
0
LINE
8
BLACK
6
CONTINUOUS
10
5.61957
20
-3.39189
11
5.61819
21
-3.39199
0
LINE
8
BLACK
6
CONTINUOUS
10
5.61819
20
-3.39199
11
5.61715
21
-3.39108
0
LINE
8
BLACK
6
CONTINUOUS
10
5.61715
20
-3.39108
11
5.61705
21
-3.38971
0
LINE
8
BLACK
6
CONTINUOUS
10
5.61705
20
-3.38971
11
5.63252
21
-3.34331
0
LINE
8
BLACK
6
CONTINUOUS
10
5.63252
20
-3.34331
11
5.63261
21
-3.34321
0
LINE
8
BLACK
6
CONTINUOUS
10
5.63261
20
-3.34321
11
5.63262
21
-3.34307
0
LINE
8
BLACK
6
CONTINUOUS
10
5.63262
20
-3.34307
11
5.63305
21
-3.3427
0
LINE
8
BLACK
6
CONTINUOUS
10
5.63305
20
-3.3427
11
5.63342
21
-3.34227
0
LINE
8
BLACK
6
CONTINUOUS
10
5.63342
20
-3.34227
11
5.63356
21
-3.34226
0
LINE
8
BLACK
6
CONTINUOUS
10
5.63356
20
-3.34226
11
5.63366
21
-3.34217
0
LINE
8
BLACK
6
CONTINUOUS
10
5.63366
20
-3.34217
11
5.63423
21
-3.34221
0
LINE
8
BLACK
6
CONTINUOUS
10
5.63423
20
-3.34221
11
5.6348
21
-3.34217
0
LINE
8
BLACK
6
CONTINUOUS
10
5.6348
20
-3.34217
11
5.6349
21
-3.34226
0
LINE
8
BLACK
6
CONTINUOUS
10
5.62568
20
-3.37522
11
5.64278
21
-3.37522
0
LINE
8
BLACK
6
CONTINUOUS
10
5.64278
20
-3.37522
11
5.63423
21
-3.34957
0
LINE
8
BLACK
6
CONTINUOUS
10
5.63423
20
-3.34957
11
5.62568
21
-3.37522
0
LINE
8
BLACK
6
CONTINUOUS
10
5.79017
20
-3.37133
11
5.79069
21
-3.3726
0
LINE
8
BLACK
6
CONTINUOUS
10
5.79069
20
-3.3726
11
5.79017
21
-3.37387
0
LINE
8
BLACK
6
CONTINUOUS
10
5.79017
20
-3.37387
11
5.78889
21
-3.3744
0
LINE
8
BLACK
6
CONTINUOUS
10
5.78889
20
-3.3744
11
5.75354
21
-3.3744
0
LINE
8
BLACK
6
CONTINUOUS
10
5.75354
20
-3.3744
11
5.75227
21
-3.37387
0
LINE
8
BLACK
6
CONTINUOUS
10
5.75227
20
-3.37387
11
5.75174
21
-3.3726
0
LINE
8
BLACK
6
CONTINUOUS
10
5.75174
20
-3.3726
11
5.75227
21
-3.37133
0
LINE
8
BLACK
6
CONTINUOUS
10
5.75227
20
-3.37133
11
5.75354
21
-3.3708
0
LINE
8
BLACK
6
CONTINUOUS
10
5.75354
20
-3.3708
11
5.78889
21
-3.3708
0
LINE
8
BLACK
6
CONTINUOUS
10
5.78889
20
-3.3708
11
5.79017
21
-3.37133
  0
ENDSEC
  0
EOF
