  0
SECTION
  2
HEADER
  9
$ANGBASE
  50
0.0
  9
$ANGDIR
  70
1
  9
$MEASUREMENT
  70
0
  0
ENDSEC
  0
SECTION
  2
TABLES
  0
TABLE
  2
LTYPE
  70
4
  0
LTYPE
  5
40F
  2
CONTINUOUS
  70
0
  3
Solid line
  72
65
  73
0
  40
0.0
  0
LTYPE
  5
410
  2
DASHDOT
 70
0
  3
Dash Dot ____ _ ____ _
 72
65
 73
4
 40
2.0
 49
1.25
 49
-0.25
 49
0.25
 49
-0.25
  0
LTYPE
  5
411
  2
DASHED
 70
0
  3
Dashed __ __ __ __ __
 72
65
 73
2
 40
0.75
 49
0.5
 49
-0.25
  0
LTYPE
  5
43B
  2
DOTTED
 70
0
  3
Dotted .  .  .  .
 72
65
 73
2
 40
0.2
 49
0.0
 49
-0.2
  0
ENDTAB
  0
TABLE
  2
STYLE
  70
4
  0
STYLE
  2
KICAD
  70
0
  40
0
  41
1
  42
1
  50
0
  71
0
  3
isocp.shx
  0
STYLE
  2
KICADB
  70
0
  40
0
  41
1
  42
1
  50
0
  71
0
  3
isocp.shx
  0
STYLE
  2
KICADI
  70
0
  40
0
  41
1
  42
1
  50
15
  71
0
  3
isocp.shx
  0
STYLE
  2
KICADBI
  70
0
  40
0
  41
1
  42
1
  50
15
  71
0
  3
isocp.shx
  0
ENDTAB
  0
TABLE
  2
LAYER
  70
1
  0
LAYER
  2
BLACK
  70
0
  62
7
  6
CONTINUOUS
  0
ENDTAB
  0
ENDSEC
  0
SECTION
  2
ENTITIES
0
LINE
8
BLACK
6
CONTINUOUS
10
5.45381
20
-4.6032
11
5.4679
21
-4.60476
0
LINE
8
BLACK
6
CONTINUOUS
10
5.4679
20
-4.60476
11
5.48173
21
-4.60783
0
LINE
8
BLACK
6
CONTINUOUS
10
5.48173
20
-4.60783
11
5.49515
21
-4.61237
0
LINE
8
BLACK
6
CONTINUOUS
10
5.49515
20
-4.61237
11
5.508
21
-4.61833
0
LINE
8
BLACK
6
CONTINUOUS
10
5.508
20
-4.61833
11
5.52013
21
-4.62565
0
LINE
8
BLACK
6
CONTINUOUS
10
5.52013
20
-4.62565
11
5.5314
21
-4.63424
0
LINE
8
BLACK
6
CONTINUOUS
10
5.5314
20
-4.63424
11
5.54168
21
-4.64399
0
LINE
8
BLACK
6
CONTINUOUS
10
5.54168
20
-4.64399
11
5.55085
21
-4.6548
0
LINE
8
BLACK
6
CONTINUOUS
10
5.55085
20
-4.6548
11
5.55879
21
-4.66653
0
LINE
8
BLACK
6
CONTINUOUS
10
5.55879
20
-4.66653
11
5.56542
21
-4.67905
0
LINE
8
BLACK
6
CONTINUOUS
10
5.56542
20
-4.67905
11
5.57066
21
-4.69222
0
LINE
8
BLACK
6
CONTINUOUS
10
5.57066
20
-4.69222
11
5.57444
21
-4.70587
0
LINE
8
BLACK
6
CONTINUOUS
10
5.57444
20
-4.70587
11
5.57673
21
-4.71985
0
LINE
8
BLACK
6
CONTINUOUS
10
5.57673
20
-4.71985
11
5.5775
21
-4.734
0
LINE
8
BLACK
6
CONTINUOUS
10
5.5775
20
-4.734
11
5.5775
21
-4.73491
0
LINE
8
BLACK
6
CONTINUOUS
10
5.5775
20
-4.73491
11
5.57663
21
-4.74906
0
LINE
8
BLACK
6
CONTINUOUS
10
5.57663
20
-4.74906
11
5.57424
21
-4.76302
0
LINE
8
BLACK
6
CONTINUOUS
10
5.57424
20
-4.76302
11
5.57036
21
-4.77665
0
LINE
8
BLACK
6
CONTINUOUS
10
5.57036
20
-4.77665
11
5.56503
21
-4.78978
0
LINE
8
BLACK
6
CONTINUOUS
10
5.56503
20
-4.78978
11
5.55832
21
-4.80225
0
LINE
8
BLACK
6
CONTINUOUS
10
5.55832
20
-4.80225
11
5.55029
21
-4.81393
0
LINE
8
BLACK
6
CONTINUOUS
10
5.55029
20
-4.81393
11
5.54105
21
-4.82467
0
LINE
8
BLACK
6
CONTINUOUS
10
5.54105
20
-4.82467
11
5.53071
21
-4.83435
0
LINE
8
BLACK
6
CONTINUOUS
10
5.53071
20
-4.83435
11
5.51937
21
-4.84286
0
LINE
8
BLACK
6
CONTINUOUS
10
5.51937
20
-4.84286
11
5.50719
21
-4.85009
0
LINE
8
BLACK
6
CONTINUOUS
10
5.50719
20
-4.85009
11
5.4943
21
-4.85597
0
LINE
8
BLACK
6
CONTINUOUS
10
5.4943
20
-4.85597
11
5.48085
21
-4.86042
0
LINE
8
BLACK
6
CONTINUOUS
10
5.48085
20
-4.86042
11
5.46699
21
-4.86339
0
LINE
8
BLACK
6
CONTINUOUS
10
5.46699
20
-4.86339
11
5.4529
21
-4.86484
0
LINE
8
BLACK
6
CONTINUOUS
10
5.4529
20
-4.86484
11
5.43873
21
-4.86477
0
LINE
8
BLACK
6
CONTINUOUS
10
5.43873
20
-4.86477
11
5.42465
21
-4.86317
0
LINE
8
BLACK
6
CONTINUOUS
10
5.42465
20
-4.86317
11
5.41083
21
-4.86005
0
LINE
8
BLACK
6
CONTINUOUS
10
5.41083
20
-4.86005
11
5.39743
21
-4.85546
0
LINE
8
BLACK
6
CONTINUOUS
10
5.39743
20
-4.85546
11
5.3846
21
-4.84945
0
LINE
8
BLACK
6
CONTINUOUS
10
5.3846
20
-4.84945
11
5.37249
21
-4.84209
0
LINE
8
BLACK
6
CONTINUOUS
10
5.37249
20
-4.84209
11
5.36125
21
-4.83346
0
LINE
8
BLACK
6
CONTINUOUS
10
5.36125
20
-4.83346
11
5.35101
21
-4.82368
0
LINE
8
BLACK
6
CONTINUOUS
10
5.35101
20
-4.82368
11
5.34188
21
-4.81284
0
LINE
8
BLACK
6
CONTINUOUS
10
5.34188
20
-4.81284
11
5.33398
21
-4.80108
0
LINE
8
BLACK
6
CONTINUOUS
10
5.33398
20
-4.80108
11
5.32739
21
-4.78853
0
LINE
8
BLACK
6
CONTINUOUS
10
5.32739
20
-4.78853
11
5.3222
21
-4.77535
0
LINE
8
BLACK
6
CONTINUOUS
10
5.3222
20
-4.77535
11
5.31846
21
-4.76168
0
LINE
8
BLACK
6
CONTINUOUS
10
5.31846
20
-4.76168
11
5.31622
21
-4.74769
0
LINE
8
BLACK
6
CONTINUOUS
10
5.31622
20
-4.74769
11
5.3155
21
-4.73354
0
LINE
8
BLACK
6
CONTINUOUS
10
5.3155
20
-4.73354
11
5.31632
21
-4.7194
0
LINE
8
BLACK
6
CONTINUOUS
10
5.31632
20
-4.7194
11
5.31865
21
-4.70542
0
LINE
8
BLACK
6
CONTINUOUS
10
5.31865
20
-4.70542
11
5.32249
21
-4.69178
0
LINE
8
BLACK
6
CONTINUOUS
10
5.32249
20
-4.69178
11
5.32777
21
-4.67864
0
LINE
8
BLACK
6
CONTINUOUS
10
5.32777
20
-4.67864
11
5.33445
21
-4.66614
0
LINE
8
BLACK
6
CONTINUOUS
10
5.33445
20
-4.66614
11
5.34243
21
-4.65443
0
LINE
8
BLACK
6
CONTINUOUS
10
5.34243
20
-4.65443
11
5.35163
21
-4.64366
0
LINE
8
BLACK
6
CONTINUOUS
10
5.35163
20
-4.64366
11
5.36195
21
-4.63394
0
LINE
8
BLACK
6
CONTINUOUS
10
5.36195
20
-4.63394
11
5.37325
21
-4.6254
0
LINE
8
BLACK
6
CONTINUOUS
10
5.37325
20
-4.6254
11
5.3854
21
-4.61812
0
LINE
8
BLACK
6
CONTINUOUS
10
5.3854
20
-4.61812
11
5.39828
21
-4.6122
0
LINE
8
BLACK
6
CONTINUOUS
10
5.39828
20
-4.6122
11
5.41171
21
-4.6077
0
LINE
8
BLACK
6
CONTINUOUS
10
5.41171
20
-4.6077
11
5.42556
21
-4.60469
0
LINE
8
BLACK
6
CONTINUOUS
10
5.42556
20
-4.60469
11
5.43964
21
-4.60318
0
LINE
8
BLACK
6
CONTINUOUS
10
5.43964
20
-4.60318
11
5.45381
21
-4.6032
0
LINE
8
BLACK
6
CONTINUOUS
10
6.25381
20
-4.6032
11
6.2679
21
-4.60476
0
LINE
8
BLACK
6
CONTINUOUS
10
6.2679
20
-4.60476
11
6.28173
21
-4.60783
0
LINE
8
BLACK
6
CONTINUOUS
10
6.28173
20
-4.60783
11
6.29515
21
-4.61237
0
LINE
8
BLACK
6
CONTINUOUS
10
6.29515
20
-4.61237
11
6.308
21
-4.61833
0
LINE
8
BLACK
6
CONTINUOUS
10
6.308
20
-4.61833
11
6.32013
21
-4.62565
0
LINE
8
BLACK
6
CONTINUOUS
10
6.32013
20
-4.62565
11
6.3314
21
-4.63424
0
LINE
8
BLACK
6
CONTINUOUS
10
6.3314
20
-4.63424
11
6.34168
21
-4.64399
0
LINE
8
BLACK
6
CONTINUOUS
10
6.34168
20
-4.64399
11
6.35085
21
-4.6548
0
LINE
8
BLACK
6
CONTINUOUS
10
6.35085
20
-4.6548
11
6.35879
21
-4.66653
0
LINE
8
BLACK
6
CONTINUOUS
10
6.35879
20
-4.66653
11
6.36542
21
-4.67905
0
LINE
8
BLACK
6
CONTINUOUS
10
6.36542
20
-4.67905
11
6.37066
21
-4.69222
0
LINE
8
BLACK
6
CONTINUOUS
10
6.37066
20
-4.69222
11
6.37444
21
-4.70587
0
LINE
8
BLACK
6
CONTINUOUS
10
6.37444
20
-4.70587
11
6.37673
21
-4.71985
0
LINE
8
BLACK
6
CONTINUOUS
10
6.37673
20
-4.71985
11
6.3775
21
-4.734
0
LINE
8
BLACK
6
CONTINUOUS
10
6.3775
20
-4.734
11
6.3775
21
-4.73491
0
LINE
8
BLACK
6
CONTINUOUS
10
6.3775
20
-4.73491
11
6.37663
21
-4.74906
0
LINE
8
BLACK
6
CONTINUOUS
10
6.37663
20
-4.74906
11
6.37424
21
-4.76302
0
LINE
8
BLACK
6
CONTINUOUS
10
6.37424
20
-4.76302
11
6.37036
21
-4.77665
0
LINE
8
BLACK
6
CONTINUOUS
10
6.37036
20
-4.77665
11
6.36503
21
-4.78978
0
LINE
8
BLACK
6
CONTINUOUS
10
6.36503
20
-4.78978
11
6.35832
21
-4.80225
0
LINE
8
BLACK
6
CONTINUOUS
10
6.35832
20
-4.80225
11
6.35029
21
-4.81393
0
LINE
8
BLACK
6
CONTINUOUS
10
6.35029
20
-4.81393
11
6.34105
21
-4.82467
0
LINE
8
BLACK
6
CONTINUOUS
10
6.34105
20
-4.82467
11
6.33071
21
-4.83435
0
LINE
8
BLACK
6
CONTINUOUS
10
6.33071
20
-4.83435
11
6.31937
21
-4.84286
0
LINE
8
BLACK
6
CONTINUOUS
10
6.31937
20
-4.84286
11
6.30719
21
-4.85009
0
LINE
8
BLACK
6
CONTINUOUS
10
6.30719
20
-4.85009
11
6.2943
21
-4.85597
0
LINE
8
BLACK
6
CONTINUOUS
10
6.2943
20
-4.85597
11
6.28085
21
-4.86042
0
LINE
8
BLACK
6
CONTINUOUS
10
6.28085
20
-4.86042
11
6.26699
21
-4.86339
0
LINE
8
BLACK
6
CONTINUOUS
10
6.26699
20
-4.86339
11
6.2529
21
-4.86484
0
LINE
8
BLACK
6
CONTINUOUS
10
6.2529
20
-4.86484
11
6.23873
21
-4.86477
0
LINE
8
BLACK
6
CONTINUOUS
10
6.23873
20
-4.86477
11
6.22465
21
-4.86317
0
LINE
8
BLACK
6
CONTINUOUS
10
6.22465
20
-4.86317
11
6.21083
21
-4.86005
0
LINE
8
BLACK
6
CONTINUOUS
10
6.21083
20
-4.86005
11
6.19743
21
-4.85546
0
LINE
8
BLACK
6
CONTINUOUS
10
6.19743
20
-4.85546
11
6.1846
21
-4.84945
0
LINE
8
BLACK
6
CONTINUOUS
10
6.1846
20
-4.84945
11
6.17249
21
-4.84209
0
LINE
8
BLACK
6
CONTINUOUS
10
6.17249
20
-4.84209
11
6.16125
21
-4.83346
0
LINE
8
BLACK
6
CONTINUOUS
10
6.16125
20
-4.83346
11
6.15101
21
-4.82368
0
LINE
8
BLACK
6
CONTINUOUS
10
6.15101
20
-4.82368
11
6.14188
21
-4.81284
0
LINE
8
BLACK
6
CONTINUOUS
10
6.14188
20
-4.81284
11
6.13398
21
-4.80108
0
LINE
8
BLACK
6
CONTINUOUS
10
6.13398
20
-4.80108
11
6.12739
21
-4.78853
0
LINE
8
BLACK
6
CONTINUOUS
10
6.12739
20
-4.78853
11
6.1222
21
-4.77535
0
LINE
8
BLACK
6
CONTINUOUS
10
6.1222
20
-4.77535
11
6.11846
21
-4.76168
0
LINE
8
BLACK
6
CONTINUOUS
10
6.11846
20
-4.76168
11
6.11622
21
-4.74769
0
LINE
8
BLACK
6
CONTINUOUS
10
6.11622
20
-4.74769
11
6.1155
21
-4.73354
0
LINE
8
BLACK
6
CONTINUOUS
10
6.1155
20
-4.73354
11
6.11632
21
-4.7194
0
LINE
8
BLACK
6
CONTINUOUS
10
6.11632
20
-4.7194
11
6.11865
21
-4.70542
0
LINE
8
BLACK
6
CONTINUOUS
10
6.11865
20
-4.70542
11
6.12249
21
-4.69178
0
LINE
8
BLACK
6
CONTINUOUS
10
6.12249
20
-4.69178
11
6.12777
21
-4.67864
0
LINE
8
BLACK
6
CONTINUOUS
10
6.12777
20
-4.67864
11
6.13445
21
-4.66614
0
LINE
8
BLACK
6
CONTINUOUS
10
6.13445
20
-4.66614
11
6.14243
21
-4.65443
0
LINE
8
BLACK
6
CONTINUOUS
10
6.14243
20
-4.65443
11
6.15163
21
-4.64366
0
LINE
8
BLACK
6
CONTINUOUS
10
6.15163
20
-4.64366
11
6.16195
21
-4.63394
0
LINE
8
BLACK
6
CONTINUOUS
10
6.16195
20
-4.63394
11
6.17325
21
-4.6254
0
LINE
8
BLACK
6
CONTINUOUS
10
6.17325
20
-4.6254
11
6.1854
21
-4.61812
0
LINE
8
BLACK
6
CONTINUOUS
10
6.1854
20
-4.61812
11
6.19828
21
-4.6122
0
LINE
8
BLACK
6
CONTINUOUS
10
6.19828
20
-4.6122
11
6.21171
21
-4.6077
0
LINE
8
BLACK
6
CONTINUOUS
10
6.21171
20
-4.6077
11
6.22556
21
-4.60469
0
LINE
8
BLACK
6
CONTINUOUS
10
6.22556
20
-4.60469
11
6.23964
21
-4.60318
0
LINE
8
BLACK
6
CONTINUOUS
10
6.23964
20
-4.60318
11
6.25381
21
-4.6032
0
LINE
8
BLACK
6
CONTINUOUS
10
6.09508
20
-4.45597
11
6.10595
21
-4.45849
0
LINE
8
BLACK
6
CONTINUOUS
10
6.10595
20
-4.45849
11
6.11636
21
-4.46252
0
LINE
8
BLACK
6
CONTINUOUS
10
6.11636
20
-4.46252
11
6.12609
21
-4.46797
0
LINE
8
BLACK
6
CONTINUOUS
10
6.12609
20
-4.46797
11
6.13496
21
-4.47474
0
LINE
8
BLACK
6
CONTINUOUS
10
6.13496
20
-4.47474
11
6.14279
21
-4.48269
0
LINE
8
BLACK
6
CONTINUOUS
10
6.14279
20
-4.48269
11
6.14942
21
-4.49167
0
LINE
8
BLACK
6
CONTINUOUS
10
6.14942
20
-4.49167
11
6.15472
21
-4.50149
0
LINE
8
BLACK
6
CONTINUOUS
10
6.15472
20
-4.50149
11
6.15858
21
-4.51196
0
LINE
8
BLACK
6
CONTINUOUS
10
6.15858
20
-4.51196
11
6.16
21
-4.51854
0
LINE
8
BLACK
6
CONTINUOUS
10
6.16
20
-4.51854
11
6.16
21
-4.5015
0
LINE
8
BLACK
6
CONTINUOUS
10
6.16
20
-4.5015
11
6.1603
21
-4.49997
0
LINE
8
BLACK
6
CONTINUOUS
10
6.1603
20
-4.49997
11
6.16117
21
-4.49867
0
LINE
8
BLACK
6
CONTINUOUS
10
6.16117
20
-4.49867
11
6.16247
21
-4.4978
0
LINE
8
BLACK
6
CONTINUOUS
10
6.16247
20
-4.4978
11
6.164
21
-4.4975
0
LINE
8
BLACK
6
CONTINUOUS
10
6.164
20
-4.4975
11
6.229
21
-4.4975
0
LINE
8
BLACK
6
CONTINUOUS
10
6.229
20
-4.4975
11
6.23053
21
-4.4978
0
LINE
8
BLACK
6
CONTINUOUS
10
6.23053
20
-4.4978
11
6.23183
21
-4.49867
0
LINE
8
BLACK
6
CONTINUOUS
10
6.23183
20
-4.49867
11
6.2327
21
-4.49997
0
LINE
8
BLACK
6
CONTINUOUS
10
6.2327
20
-4.49997
11
6.233
21
-4.5015
0
LINE
8
BLACK
6
CONTINUOUS
10
6.233
20
-4.5015
11
6.233
21
-4.5665
0
LINE
8
BLACK
6
CONTINUOUS
10
6.233
20
-4.5665
11
6.2327
21
-4.56803
0
LINE
8
BLACK
6
CONTINUOUS
10
6.2327
20
-4.56803
11
6.23183
21
-4.56933
0
LINE
8
BLACK
6
CONTINUOUS
10
6.23183
20
-4.56933
11
6.23053
21
-4.5702
0
LINE
8
BLACK
6
CONTINUOUS
10
6.23053
20
-4.5702
11
6.229
21
-4.5705
0
LINE
8
BLACK
6
CONTINUOUS
10
6.229
20
-4.5705
11
6.164
21
-4.5705
0
LINE
8
BLACK
6
CONTINUOUS
10
6.164
20
-4.5705
11
6.16247
21
-4.5702
0
LINE
8
BLACK
6
CONTINUOUS
10
6.16247
20
-4.5702
11
6.16117
21
-4.56933
0
LINE
8
BLACK
6
CONTINUOUS
10
6.16117
20
-4.56933
11
6.1603
21
-4.56803
0
LINE
8
BLACK
6
CONTINUOUS
10
6.1603
20
-4.56803
11
6.16
21
-4.5665
0
LINE
8
BLACK
6
CONTINUOUS
10
6.16
20
-4.5665
11
6.16
21
-4.5503
0
LINE
8
BLACK
6
CONTINUOUS
10
6.16
20
-4.5503
11
6.15705
21
-4.56076
0
LINE
8
BLACK
6
CONTINUOUS
10
6.15705
20
-4.56076
11
6.15254
21
-4.57097
0
LINE
8
BLACK
6
CONTINUOUS
10
6.15254
20
-4.57097
11
6.14663
21
-4.58044
0
LINE
8
BLACK
6
CONTINUOUS
10
6.14663
20
-4.58044
11
6.13945
21
-4.58898
0
LINE
8
BLACK
6
CONTINUOUS
10
6.13945
20
-4.58898
11
6.13114
21
-4.59642
0
LINE
8
BLACK
6
CONTINUOUS
10
6.13114
20
-4.59642
11
6.12186
21
-4.60262
0
LINE
8
BLACK
6
CONTINUOUS
10
6.12186
20
-4.60262
11
6.1118
21
-4.60745
0
LINE
8
BLACK
6
CONTINUOUS
10
6.1118
20
-4.60745
11
6.10116
21
-4.61082
0
LINE
8
BLACK
6
CONTINUOUS
10
6.10116
20
-4.61082
11
6.09016
21
-4.61265
0
LINE
8
BLACK
6
CONTINUOUS
10
6.09016
20
-4.61265
11
6.079
21
-4.61291
0
LINE
8
BLACK
6
CONTINUOUS
10
6.079
20
-4.61291
11
6.06792
21
-4.6116
0
LINE
8
BLACK
6
CONTINUOUS
10
6.06792
20
-4.6116
11
6.05713
21
-4.60874
0
LINE
8
BLACK
6
CONTINUOUS
10
6.05713
20
-4.60874
11
6.04686
21
-4.60439
0
LINE
8
BLACK
6
CONTINUOUS
10
6.04686
20
-4.60439
11
6.0373
21
-4.59863
0
LINE
8
BLACK
6
CONTINUOUS
10
6.0373
20
-4.59863
11
6.02864
21
-4.59159
0
LINE
8
BLACK
6
CONTINUOUS
10
6.02864
20
-4.59159
11
6.02107
21
-4.58339
0
LINE
8
BLACK
6
CONTINUOUS
10
6.02107
20
-4.58339
11
6.01472
21
-4.57421
0
LINE
8
BLACK
6
CONTINUOUS
10
6.01472
20
-4.57421
11
6.00973
21
-4.56423
0
LINE
8
BLACK
6
CONTINUOUS
10
6.00973
20
-4.56423
11
6.0062
21
-4.55365
0
LINE
8
BLACK
6
CONTINUOUS
10
6.0062
20
-4.55365
11
6.0042
21
-4.54267
0
LINE
8
BLACK
6
CONTINUOUS
10
6.0042
20
-4.54267
11
6.00376
21
-4.53152
0
LINE
8
BLACK
6
CONTINUOUS
10
6.00376
20
-4.53152
11
6.0049
21
-4.52042
0
LINE
8
BLACK
6
CONTINUOUS
10
6.0049
20
-4.52042
11
6.00759
21
-4.50959
0
LINE
8
BLACK
6
CONTINUOUS
10
6.00759
20
-4.50959
11
6.01178
21
-4.49924
0
LINE
8
BLACK
6
CONTINUOUS
10
6.01178
20
-4.49924
11
6.01738
21
-4.4896
0
LINE
8
BLACK
6
CONTINUOUS
10
6.01738
20
-4.4896
11
6.02429
21
-4.48083
0
LINE
8
BLACK
6
CONTINUOUS
10
6.02429
20
-4.48083
11
6.03236
21
-4.47313
0
LINE
8
BLACK
6
CONTINUOUS
10
6.03236
20
-4.47313
11
6.04144
21
-4.46664
0
LINE
8
BLACK
6
CONTINUOUS
10
6.04144
20
-4.46664
11
6.05135
21
-4.4615
0
LINE
8
BLACK
6
CONTINUOUS
10
6.05135
20
-4.4615
11
6.06187
21
-4.4578
0
LINE
8
BLACK
6
CONTINUOUS
10
6.06187
20
-4.4578
11
6.07282
21
-4.45562
0
LINE
8
BLACK
6
CONTINUOUS
10
6.07282
20
-4.45562
11
6.08396
21
-4.45501
0
LINE
8
BLACK
6
CONTINUOUS
10
6.08396
20
-4.45501
11
6.09508
21
-4.45597
0
LINE
8
BLACK
6
CONTINUOUS
10
5.62264
20
-4.45597
11
5.63351
21
-4.45849
0
LINE
8
BLACK
6
CONTINUOUS
10
5.63351
20
-4.45849
11
5.64392
21
-4.46252
0
LINE
8
BLACK
6
CONTINUOUS
10
5.64392
20
-4.46252
11
5.65365
21
-4.46797
0
LINE
8
BLACK
6
CONTINUOUS
10
5.65365
20
-4.46797
11
5.66252
21
-4.47474
0
LINE
8
BLACK
6
CONTINUOUS
10
5.66252
20
-4.47474
11
5.67035
21
-4.48269
0
LINE
8
BLACK
6
CONTINUOUS
10
5.67035
20
-4.48269
11
5.67698
21
-4.49167
0
LINE
8
BLACK
6
CONTINUOUS
10
5.67698
20
-4.49167
11
5.68228
21
-4.50149
0
LINE
8
BLACK
6
CONTINUOUS
10
5.68228
20
-4.50149
11
5.68614
21
-4.51196
0
LINE
8
BLACK
6
CONTINUOUS
10
5.68614
20
-4.51196
11
5.68849
21
-4.52287
0
LINE
8
BLACK
6
CONTINUOUS
10
5.68849
20
-4.52287
11
5.68928
21
-4.534
0
LINE
8
BLACK
6
CONTINUOUS
10
5.68928
20
-4.534
11
5.68912
21
-4.53896
0
LINE
8
BLACK
6
CONTINUOUS
10
5.68912
20
-4.53896
11
5.68764
21
-4.55002
0
LINE
8
BLACK
6
CONTINUOUS
10
5.68764
20
-4.55002
11
5.68461
21
-4.56076
0
LINE
8
BLACK
6
CONTINUOUS
10
5.68461
20
-4.56076
11
5.6801
21
-4.57097
0
LINE
8
BLACK
6
CONTINUOUS
10
5.6801
20
-4.57097
11
5.67419
21
-4.58044
0
LINE
8
BLACK
6
CONTINUOUS
10
5.67419
20
-4.58044
11
5.66701
21
-4.58898
0
LINE
8
BLACK
6
CONTINUOUS
10
5.66701
20
-4.58898
11
5.6587
21
-4.59642
0
LINE
8
BLACK
6
CONTINUOUS
10
5.6587
20
-4.59642
11
5.64942
21
-4.60262
0
LINE
8
BLACK
6
CONTINUOUS
10
5.64942
20
-4.60262
11
5.63936
21
-4.60745
0
LINE
8
BLACK
6
CONTINUOUS
10
5.63936
20
-4.60745
11
5.62872
21
-4.61082
0
LINE
8
BLACK
6
CONTINUOUS
10
5.62872
20
-4.61082
11
5.61771
21
-4.61265
0
LINE
8
BLACK
6
CONTINUOUS
10
5.61771
20
-4.61265
11
5.60656
21
-4.61291
0
LINE
8
BLACK
6
CONTINUOUS
10
5.60656
20
-4.61291
11
5.59548
21
-4.6116
0
LINE
8
BLACK
6
CONTINUOUS
10
5.59548
20
-4.6116
11
5.58469
21
-4.60874
0
LINE
8
BLACK
6
CONTINUOUS
10
5.58469
20
-4.60874
11
5.57441
21
-4.60439
0
LINE
8
BLACK
6
CONTINUOUS
10
5.57441
20
-4.60439
11
5.56485
21
-4.59863
0
LINE
8
BLACK
6
CONTINUOUS
10
5.56485
20
-4.59863
11
5.5562
21
-4.59159
0
LINE
8
BLACK
6
CONTINUOUS
10
5.5562
20
-4.59159
11
5.54863
21
-4.58339
0
LINE
8
BLACK
6
CONTINUOUS
10
5.54863
20
-4.58339
11
5.54228
21
-4.57421
0
LINE
8
BLACK
6
CONTINUOUS
10
5.54228
20
-4.57421
11
5.53729
21
-4.56423
0
LINE
8
BLACK
6
CONTINUOUS
10
5.53729
20
-4.56423
11
5.53376
21
-4.55365
0
LINE
8
BLACK
6
CONTINUOUS
10
5.53376
20
-4.55365
11
5.53176
21
-4.54267
0
LINE
8
BLACK
6
CONTINUOUS
10
5.53176
20
-4.54267
11
5.53132
21
-4.53152
0
LINE
8
BLACK
6
CONTINUOUS
10
5.53132
20
-4.53152
11
5.53246
21
-4.52042
0
LINE
8
BLACK
6
CONTINUOUS
10
5.53246
20
-4.52042
11
5.53515
21
-4.50959
0
LINE
8
BLACK
6
CONTINUOUS
10
5.53515
20
-4.50959
11
5.53934
21
-4.49924
0
LINE
8
BLACK
6
CONTINUOUS
10
5.53934
20
-4.49924
11
5.54494
21
-4.4896
0
LINE
8
BLACK
6
CONTINUOUS
10
5.54494
20
-4.4896
11
5.55185
21
-4.48083
0
LINE
8
BLACK
6
CONTINUOUS
10
5.55185
20
-4.48083
11
5.55992
21
-4.47313
0
LINE
8
BLACK
6
CONTINUOUS
10
5.55992
20
-4.47313
11
5.569
21
-4.46664
0
LINE
8
BLACK
6
CONTINUOUS
10
5.569
20
-4.46664
11
5.5789
21
-4.4615
0
LINE
8
BLACK
6
CONTINUOUS
10
5.5789
20
-4.4615
11
5.58943
21
-4.4578
0
LINE
8
BLACK
6
CONTINUOUS
10
5.58943
20
-4.4578
11
5.60038
21
-4.45562
0
LINE
8
BLACK
6
CONTINUOUS
10
5.60038
20
-4.45562
11
5.61152
21
-4.45501
0
LINE
8
BLACK
6
CONTINUOUS
10
5.61152
20
-4.45501
11
5.62264
21
-4.45597
0
LINE
8
BLACK
6
CONTINUOUS
10
5.43105
20
-4.46034
11
5.44036
21
-4.46258
0
LINE
8
BLACK
6
CONTINUOUS
10
5.44036
20
-4.46258
11
5.4492
21
-4.46624
0
LINE
8
BLACK
6
CONTINUOUS
10
5.4492
20
-4.46624
11
5.45737
21
-4.47125
0
LINE
8
BLACK
6
CONTINUOUS
10
5.45737
20
-4.47125
11
5.46465
21
-4.47746
0
LINE
8
BLACK
6
CONTINUOUS
10
5.46465
20
-4.47746
11
5.47087
21
-4.48475
0
LINE
8
BLACK
6
CONTINUOUS
10
5.47087
20
-4.48475
11
5.47587
21
-4.49291
0
LINE
8
BLACK
6
CONTINUOUS
10
5.47587
20
-4.49291
11
5.47954
21
-4.50176
0
LINE
8
BLACK
6
CONTINUOUS
10
5.47954
20
-4.50176
11
5.48177
21
-4.51107
0
LINE
8
BLACK
6
CONTINUOUS
10
5.48177
20
-4.51107
11
5.48252
21
-4.52061
0
LINE
8
BLACK
6
CONTINUOUS
10
5.48252
20
-4.52061
11
5.48177
21
-4.53016
0
LINE
8
BLACK
6
CONTINUOUS
10
5.48177
20
-4.53016
11
5.47954
21
-4.53947
0
LINE
8
BLACK
6
CONTINUOUS
10
5.47954
20
-4.53947
11
5.47587
21
-4.54832
0
LINE
8
BLACK
6
CONTINUOUS
10
5.47587
20
-4.54832
11
5.47087
21
-4.55648
0
LINE
8
BLACK
6
CONTINUOUS
10
5.47087
20
-4.55648
11
5.46465
21
-4.56376
0
LINE
8
BLACK
6
CONTINUOUS
10
5.46465
20
-4.56376
11
5.45737
21
-4.56998
0
LINE
8
BLACK
6
CONTINUOUS
10
5.45737
20
-4.56998
11
5.4492
21
-4.57499
0
LINE
8
BLACK
6
CONTINUOUS
10
5.4492
20
-4.57499
11
5.44036
21
-4.57865
0
LINE
8
BLACK
6
CONTINUOUS
10
5.44036
20
-4.57865
11
5.43105
21
-4.58089
0
LINE
8
BLACK
6
CONTINUOUS
10
5.43105
20
-4.58089
11
5.4215
21
-4.58164
0
LINE
8
BLACK
6
CONTINUOUS
10
5.4215
20
-4.58164
11
5.41195
21
-4.58089
0
LINE
8
BLACK
6
CONTINUOUS
10
5.41195
20
-4.58089
11
5.40264
21
-4.57865
0
LINE
8
BLACK
6
CONTINUOUS
10
5.40264
20
-4.57865
11
5.3938
21
-4.57499
0
LINE
8
BLACK
6
CONTINUOUS
10
5.3938
20
-4.57499
11
5.38563
21
-4.56998
0
LINE
8
BLACK
6
CONTINUOUS
10
5.38563
20
-4.56998
11
5.37835
21
-4.56376
0
LINE
8
BLACK
6
CONTINUOUS
10
5.37835
20
-4.56376
11
5.37213
21
-4.55648
0
LINE
8
BLACK
6
CONTINUOUS
10
5.37213
20
-4.55648
11
5.36713
21
-4.54832
0
LINE
8
BLACK
6
CONTINUOUS
10
5.36713
20
-4.54832
11
5.36346
21
-4.53947
0
LINE
8
BLACK
6
CONTINUOUS
10
5.36346
20
-4.53947
11
5.36123
21
-4.53016
0
LINE
8
BLACK
6
CONTINUOUS
10
5.36123
20
-4.53016
11
5.36048
21
-4.52061
0
LINE
8
BLACK
6
CONTINUOUS
10
5.36048
20
-4.52061
11
5.36123
21
-4.51107
0
LINE
8
BLACK
6
CONTINUOUS
10
5.36123
20
-4.51107
11
5.36346
21
-4.50176
0
LINE
8
BLACK
6
CONTINUOUS
10
5.36346
20
-4.50176
11
5.36713
21
-4.49291
0
LINE
8
BLACK
6
CONTINUOUS
10
5.36713
20
-4.49291
11
5.37213
21
-4.48475
0
LINE
8
BLACK
6
CONTINUOUS
10
5.37213
20
-4.48475
11
5.37835
21
-4.47746
0
LINE
8
BLACK
6
CONTINUOUS
10
5.37835
20
-4.47746
11
5.38563
21
-4.47125
0
LINE
8
BLACK
6
CONTINUOUS
10
5.38563
20
-4.47125
11
5.3938
21
-4.46624
0
LINE
8
BLACK
6
CONTINUOUS
10
5.3938
20
-4.46624
11
5.40264
21
-4.46258
0
LINE
8
BLACK
6
CONTINUOUS
10
5.40264
20
-4.46258
11
5.41195
21
-4.46034
0
LINE
8
BLACK
6
CONTINUOUS
10
5.41195
20
-4.46034
11
5.4215
21
-4.45959
0
LINE
8
BLACK
6
CONTINUOUS
10
5.4215
20
-4.45959
11
5.43105
21
-4.46034
0
LINE
8
BLACK
6
CONTINUOUS
10
6.33053
20
-4.4978
11
6.33183
21
-4.49867
0
LINE
8
BLACK
6
CONTINUOUS
10
6.33183
20
-4.49867
11
6.3327
21
-4.49997
0
LINE
8
BLACK
6
CONTINUOUS
10
6.3327
20
-4.49997
11
6.333
21
-4.5015
0
LINE
8
BLACK
6
CONTINUOUS
10
6.333
20
-4.5015
11
6.333
21
-4.5665
0
LINE
8
BLACK
6
CONTINUOUS
10
6.333
20
-4.5665
11
6.3327
21
-4.56803
0
LINE
8
BLACK
6
CONTINUOUS
10
6.3327
20
-4.56803
11
6.33183
21
-4.56933
0
LINE
8
BLACK
6
CONTINUOUS
10
6.33183
20
-4.56933
11
6.33053
21
-4.5702
0
LINE
8
BLACK
6
CONTINUOUS
10
6.33053
20
-4.5702
11
6.329
21
-4.5705
0
LINE
8
BLACK
6
CONTINUOUS
10
6.329
20
-4.5705
11
6.264
21
-4.5705
0
LINE
8
BLACK
6
CONTINUOUS
10
6.264
20
-4.5705
11
6.26247
21
-4.5702
0
LINE
8
BLACK
6
CONTINUOUS
10
6.26247
20
-4.5702
11
6.26117
21
-4.56933
0
LINE
8
BLACK
6
CONTINUOUS
10
6.26117
20
-4.56933
11
6.2603
21
-4.56803
0
LINE
8
BLACK
6
CONTINUOUS
10
6.2603
20
-4.56803
11
6.26
21
-4.5665
0
LINE
8
BLACK
6
CONTINUOUS
10
6.26
20
-4.5665
11
6.26
21
-4.5015
0
LINE
8
BLACK
6
CONTINUOUS
10
6.26
20
-4.5015
11
6.2603
21
-4.49997
0
LINE
8
BLACK
6
CONTINUOUS
10
6.2603
20
-4.49997
11
6.26117
21
-4.49867
0
LINE
8
BLACK
6
CONTINUOUS
10
6.26117
20
-4.49867
11
6.26247
21
-4.4978
0
LINE
8
BLACK
6
CONTINUOUS
10
6.26247
20
-4.4978
11
6.264
21
-4.4975
0
LINE
8
BLACK
6
CONTINUOUS
10
6.264
20
-4.4975
11
6.329
21
-4.4975
0
LINE
8
BLACK
6
CONTINUOUS
10
6.329
20
-4.4975
11
6.33053
21
-4.4978
0
LINE
8
BLACK
6
CONTINUOUS
10
6.23053
20
-4.3978
11
6.23183
21
-4.39867
0
LINE
8
BLACK
6
CONTINUOUS
10
6.23183
20
-4.39867
11
6.2327
21
-4.39997
0
LINE
8
BLACK
6
CONTINUOUS
10
6.2327
20
-4.39997
11
6.233
21
-4.4015
0
LINE
8
BLACK
6
CONTINUOUS
10
6.233
20
-4.4015
11
6.233
21
-4.4665
0
LINE
8
BLACK
6
CONTINUOUS
10
6.233
20
-4.4665
11
6.2327
21
-4.46803
0
LINE
8
BLACK
6
CONTINUOUS
10
6.2327
20
-4.46803
11
6.23183
21
-4.46933
0
LINE
8
BLACK
6
CONTINUOUS
10
6.23183
20
-4.46933
11
6.23053
21
-4.4702
0
LINE
8
BLACK
6
CONTINUOUS
10
6.23053
20
-4.4702
11
6.229
21
-4.4705
0
LINE
8
BLACK
6
CONTINUOUS
10
6.229
20
-4.4705
11
6.164
21
-4.4705
0
LINE
8
BLACK
6
CONTINUOUS
10
6.164
20
-4.4705
11
6.16247
21
-4.4702
0
LINE
8
BLACK
6
CONTINUOUS
10
6.16247
20
-4.4702
11
6.16117
21
-4.46933
0
LINE
8
BLACK
6
CONTINUOUS
10
6.16117
20
-4.46933
11
6.1603
21
-4.46803
0
LINE
8
BLACK
6
CONTINUOUS
10
6.1603
20
-4.46803
11
6.16
21
-4.4665
0
LINE
8
BLACK
6
CONTINUOUS
10
6.16
20
-4.4665
11
6.16
21
-4.4015
0
LINE
8
BLACK
6
CONTINUOUS
10
6.16
20
-4.4015
11
6.1603
21
-4.39997
0
LINE
8
BLACK
6
CONTINUOUS
10
6.1603
20
-4.39997
11
6.16117
21
-4.39867
0
LINE
8
BLACK
6
CONTINUOUS
10
6.16117
20
-4.39867
11
6.16247
21
-4.3978
0
LINE
8
BLACK
6
CONTINUOUS
10
6.16247
20
-4.3978
11
6.164
21
-4.3975
0
LINE
8
BLACK
6
CONTINUOUS
10
6.164
20
-4.3975
11
6.229
21
-4.3975
0
LINE
8
BLACK
6
CONTINUOUS
10
6.229
20
-4.3975
11
6.23053
21
-4.3978
0
LINE
8
BLACK
6
CONTINUOUS
10
6.33053
20
-4.3978
11
6.33183
21
-4.39867
0
LINE
8
BLACK
6
CONTINUOUS
10
6.33183
20
-4.39867
11
6.3327
21
-4.39997
0
LINE
8
BLACK
6
CONTINUOUS
10
6.3327
20
-4.39997
11
6.333
21
-4.4015
0
LINE
8
BLACK
6
CONTINUOUS
10
6.333
20
-4.4015
11
6.333
21
-4.4665
0
LINE
8
BLACK
6
CONTINUOUS
10
6.333
20
-4.4665
11
6.3327
21
-4.46803
0
LINE
8
BLACK
6
CONTINUOUS
10
6.3327
20
-4.46803
11
6.33183
21
-4.46933
0
LINE
8
BLACK
6
CONTINUOUS
10
6.33183
20
-4.46933
11
6.33053
21
-4.4702
0
LINE
8
BLACK
6
CONTINUOUS
10
6.33053
20
-4.4702
11
6.329
21
-4.4705
0
LINE
8
BLACK
6
CONTINUOUS
10
6.329
20
-4.4705
11
6.264
21
-4.4705
0
LINE
8
BLACK
6
CONTINUOUS
10
6.264
20
-4.4705
11
6.26247
21
-4.4702
0
LINE
8
BLACK
6
CONTINUOUS
10
6.26247
20
-4.4702
11
6.26117
21
-4.46933
0
LINE
8
BLACK
6
CONTINUOUS
10
6.26117
20
-4.46933
11
6.2603
21
-4.46803
0
LINE
8
BLACK
6
CONTINUOUS
10
6.2603
20
-4.46803
11
6.26
21
-4.4665
0
LINE
8
BLACK
6
CONTINUOUS
10
6.26
20
-4.4665
11
6.26
21
-4.4015
0
LINE
8
BLACK
6
CONTINUOUS
10
6.26
20
-4.4015
11
6.2603
21
-4.39997
0
LINE
8
BLACK
6
CONTINUOUS
10
6.2603
20
-4.39997
11
6.26117
21
-4.39867
0
LINE
8
BLACK
6
CONTINUOUS
10
6.26117
20
-4.39867
11
6.26247
21
-4.3978
0
LINE
8
BLACK
6
CONTINUOUS
10
6.26247
20
-4.3978
11
6.264
21
-4.3975
0
LINE
8
BLACK
6
CONTINUOUS
10
6.264
20
-4.3975
11
6.329
21
-4.3975
0
LINE
8
BLACK
6
CONTINUOUS
10
6.329
20
-4.3975
11
6.33053
21
-4.3978
0
LINE
8
BLACK
6
CONTINUOUS
10
5.90302
20
-4.39655
11
5.90974
21
-4.39894
0
LINE
8
BLACK
6
CONTINUOUS
10
5.90974
20
-4.39894
11
5.91576
21
-4.40276
0
LINE
8
BLACK
6
CONTINUOUS
10
5.91576
20
-4.40276
11
5.92079
21
-4.40782
0
LINE
8
BLACK
6
CONTINUOUS
10
5.92079
20
-4.40782
11
5.92457
21
-4.41387
0
LINE
8
BLACK
6
CONTINUOUS
10
5.92457
20
-4.41387
11
5.92692
21
-4.42061
0
LINE
8
BLACK
6
CONTINUOUS
10
5.92692
20
-4.42061
11
5.92771
21
-4.4277
0
LINE
8
BLACK
6
CONTINUOUS
10
5.92771
20
-4.4277
11
5.9277
21
-4.42859
0
LINE
8
BLACK
6
CONTINUOUS
10
5.9277
20
-4.42859
11
5.92671
21
-4.43566
0
LINE
8
BLACK
6
CONTINUOUS
10
5.92671
20
-4.43566
11
5.92417
21
-4.44233
0
LINE
8
BLACK
6
CONTINUOUS
10
5.92417
20
-4.44233
11
5.92023
21
-4.44827
0
LINE
8
BLACK
6
CONTINUOUS
10
5.92023
20
-4.44827
11
5.91506
21
-4.45319
0
LINE
8
BLACK
6
CONTINUOUS
10
5.91506
20
-4.45319
11
5.90893
21
-4.45684
0
LINE
8
BLACK
6
CONTINUOUS
10
5.90893
20
-4.45684
11
5.90215
21
-4.45905
0
LINE
8
BLACK
6
CONTINUOUS
10
5.90215
20
-4.45905
11
5.89504
21
-4.45969
0
LINE
8
BLACK
6
CONTINUOUS
10
5.89504
20
-4.45969
11
5.88797
21
-4.45875
0
LINE
8
BLACK
6
CONTINUOUS
10
5.88797
20
-4.45875
11
5.88128
21
-4.45626
0
LINE
8
BLACK
6
CONTINUOUS
10
5.88128
20
-4.45626
11
5.87532
21
-4.45236
0
LINE
8
BLACK
6
CONTINUOUS
10
5.87532
20
-4.45236
11
5.87036
21
-4.44723
0
LINE
8
BLACK
6
CONTINUOUS
10
5.87036
20
-4.44723
11
5.86666
21
-4.44112
0
LINE
8
BLACK
6
CONTINUOUS
10
5.86666
20
-4.44112
11
5.86441
21
-4.43435
0
LINE
8
BLACK
6
CONTINUOUS
10
5.86441
20
-4.43435
11
5.86372
21
-4.42725
0
LINE
8
BLACK
6
CONTINUOUS
10
5.86372
20
-4.42725
11
5.86461
21
-4.42018
0
LINE
8
BLACK
6
CONTINUOUS
10
5.86461
20
-4.42018
11
5.86705
21
-4.41347
0
LINE
8
BLACK
6
CONTINUOUS
10
5.86705
20
-4.41347
11
5.87091
21
-4.40748
0
LINE
8
BLACK
6
CONTINUOUS
10
5.87091
20
-4.40748
11
5.87601
21
-4.40248
0
LINE
8
BLACK
6
CONTINUOUS
10
5.87601
20
-4.40248
11
5.88209
21
-4.39875
0
LINE
8
BLACK
6
CONTINUOUS
10
5.88209
20
-4.39875
11
5.88884
21
-4.39645
0
LINE
8
BLACK
6
CONTINUOUS
10
5.88884
20
-4.39645
11
5.89594
21
-4.3957
0
LINE
8
BLACK
6
CONTINUOUS
10
5.89594
20
-4.3957
11
5.90302
21
-4.39655
0
LINE
8
BLACK
6
CONTINUOUS
10
5.80459
20
-4.39655
11
5.81132
21
-4.39894
0
LINE
8
BLACK
6
CONTINUOUS
10
5.81132
20
-4.39894
11
5.81734
21
-4.40276
0
LINE
8
BLACK
6
CONTINUOUS
10
5.81734
20
-4.40276
11
5.82237
21
-4.40782
0
LINE
8
BLACK
6
CONTINUOUS
10
5.82237
20
-4.40782
11
5.82615
21
-4.41387
0
LINE
8
BLACK
6
CONTINUOUS
10
5.82615
20
-4.41387
11
5.82849
21
-4.42061
0
LINE
8
BLACK
6
CONTINUOUS
10
5.82849
20
-4.42061
11
5.82929
21
-4.4277
0
LINE
8
BLACK
6
CONTINUOUS
10
5.82929
20
-4.4277
11
5.82927
21
-4.42859
0
LINE
8
BLACK
6
CONTINUOUS
10
5.82927
20
-4.42859
11
5.82828
21
-4.43566
0
LINE
8
BLACK
6
CONTINUOUS
10
5.82828
20
-4.43566
11
5.82575
21
-4.44233
0
LINE
8
BLACK
6
CONTINUOUS
10
5.82575
20
-4.44233
11
5.8218
21
-4.44827
0
LINE
8
BLACK
6
CONTINUOUS
10
5.8218
20
-4.44827
11
5.81663
21
-4.45319
0
LINE
8
BLACK
6
CONTINUOUS
10
5.81663
20
-4.45319
11
5.81051
21
-4.45684
0
LINE
8
BLACK
6
CONTINUOUS
10
5.81051
20
-4.45684
11
5.80372
21
-4.45905
0
LINE
8
BLACK
6
CONTINUOUS
10
5.80372
20
-4.45905
11
5.79662
21
-4.45969
0
LINE
8
BLACK
6
CONTINUOUS
10
5.79662
20
-4.45969
11
5.78955
21
-4.45875
0
LINE
8
BLACK
6
CONTINUOUS
10
5.78955
20
-4.45875
11
5.78286
21
-4.45626
0
LINE
8
BLACK
6
CONTINUOUS
10
5.78286
20
-4.45626
11
5.77689
21
-4.45236
0
LINE
8
BLACK
6
CONTINUOUS
10
5.77689
20
-4.45236
11
5.77193
21
-4.44723
0
LINE
8
BLACK
6
CONTINUOUS
10
5.77193
20
-4.44723
11
5.76824
21
-4.44112
0
LINE
8
BLACK
6
CONTINUOUS
10
5.76824
20
-4.44112
11
5.76599
21
-4.43435
0
LINE
8
BLACK
6
CONTINUOUS
10
5.76599
20
-4.43435
11
5.76529
21
-4.42725
0
LINE
8
BLACK
6
CONTINUOUS
10
5.76529
20
-4.42725
11
5.76618
21
-4.42018
0
LINE
8
BLACK
6
CONTINUOUS
10
5.76618
20
-4.42018
11
5.76862
21
-4.41347
0
LINE
8
BLACK
6
CONTINUOUS
10
5.76862
20
-4.41347
11
5.77249
21
-4.40748
0
LINE
8
BLACK
6
CONTINUOUS
10
5.77249
20
-4.40748
11
5.77759
21
-4.40248
0
LINE
8
BLACK
6
CONTINUOUS
10
5.77759
20
-4.40248
11
5.78366
21
-4.39875
0
LINE
8
BLACK
6
CONTINUOUS
10
5.78366
20
-4.39875
11
5.79042
21
-4.39645
0
LINE
8
BLACK
6
CONTINUOUS
10
5.79042
20
-4.39645
11
5.79751
21
-4.3957
0
LINE
8
BLACK
6
CONTINUOUS
10
5.79751
20
-4.3957
11
5.80459
21
-4.39655
0
LINE
8
BLACK
6
CONTINUOUS
10
5.43105
20
-4.26349
11
5.44036
21
-4.26573
0
LINE
8
BLACK
6
CONTINUOUS
10
5.44036
20
-4.26573
11
5.4492
21
-4.26939
0
LINE
8
BLACK
6
CONTINUOUS
10
5.4492
20
-4.26939
11
5.45737
21
-4.27439
0
LINE
8
BLACK
6
CONTINUOUS
10
5.45737
20
-4.27439
11
5.46465
21
-4.28061
0
LINE
8
BLACK
6
CONTINUOUS
10
5.46465
20
-4.28061
11
5.47087
21
-4.28789
0
LINE
8
BLACK
6
CONTINUOUS
10
5.47087
20
-4.28789
11
5.47587
21
-4.29606
0
LINE
8
BLACK
6
CONTINUOUS
10
5.47587
20
-4.29606
11
5.47954
21
-4.30491
0
LINE
8
BLACK
6
CONTINUOUS
10
5.47954
20
-4.30491
11
5.48177
21
-4.31422
0
LINE
8
BLACK
6
CONTINUOUS
10
5.48177
20
-4.31422
11
5.48252
21
-4.32376
0
LINE
8
BLACK
6
CONTINUOUS
10
5.48252
20
-4.32376
11
5.48177
21
-4.33331
0
LINE
8
BLACK
6
CONTINUOUS
10
5.48177
20
-4.33331
11
5.47954
21
-4.34262
0
LINE
8
BLACK
6
CONTINUOUS
10
5.47954
20
-4.34262
11
5.47587
21
-4.35147
0
LINE
8
BLACK
6
CONTINUOUS
10
5.47587
20
-4.35147
11
5.47087
21
-4.35963
0
LINE
8
BLACK
6
CONTINUOUS
10
5.47087
20
-4.35963
11
5.46465
21
-4.36691
0
LINE
8
BLACK
6
CONTINUOUS
10
5.46465
20
-4.36691
11
5.45737
21
-4.37313
0
LINE
8
BLACK
6
CONTINUOUS
10
5.45737
20
-4.37313
11
5.4492
21
-4.37814
0
LINE
8
BLACK
6
CONTINUOUS
10
5.4492
20
-4.37814
11
5.44036
21
-4.3818
0
LINE
8
BLACK
6
CONTINUOUS
10
5.44036
20
-4.3818
11
5.43105
21
-4.38404
0
LINE
8
BLACK
6
CONTINUOUS
10
5.43105
20
-4.38404
11
5.4215
21
-4.38479
0
LINE
8
BLACK
6
CONTINUOUS
10
5.4215
20
-4.38479
11
5.41195
21
-4.38404
0
LINE
8
BLACK
6
CONTINUOUS
10
5.41195
20
-4.38404
11
5.40264
21
-4.3818
0
LINE
8
BLACK
6
CONTINUOUS
10
5.40264
20
-4.3818
11
5.3938
21
-4.37814
0
LINE
8
BLACK
6
CONTINUOUS
10
5.3938
20
-4.37814
11
5.38563
21
-4.37313
0
LINE
8
BLACK
6
CONTINUOUS
10
5.38563
20
-4.37313
11
5.37835
21
-4.36691
0
LINE
8
BLACK
6
CONTINUOUS
10
5.37835
20
-4.36691
11
5.37213
21
-4.35963
0
LINE
8
BLACK
6
CONTINUOUS
10
5.37213
20
-4.35963
11
5.36713
21
-4.35147
0
LINE
8
BLACK
6
CONTINUOUS
10
5.36713
20
-4.35147
11
5.36346
21
-4.34262
0
LINE
8
BLACK
6
CONTINUOUS
10
5.36346
20
-4.34262
11
5.36123
21
-4.33331
0
LINE
8
BLACK
6
CONTINUOUS
10
5.36123
20
-4.33331
11
5.36048
21
-4.32376
0
LINE
8
BLACK
6
CONTINUOUS
10
5.36048
20
-4.32376
11
5.36123
21
-4.31422
0
LINE
8
BLACK
6
CONTINUOUS
10
5.36123
20
-4.31422
11
5.36346
21
-4.30491
0
LINE
8
BLACK
6
CONTINUOUS
10
5.36346
20
-4.30491
11
5.36713
21
-4.29606
0
LINE
8
BLACK
6
CONTINUOUS
10
5.36713
20
-4.29606
11
5.37213
21
-4.28789
0
LINE
8
BLACK
6
CONTINUOUS
10
5.37213
20
-4.28789
11
5.37835
21
-4.28061
0
LINE
8
BLACK
6
CONTINUOUS
10
5.37835
20
-4.28061
11
5.38563
21
-4.27439
0
LINE
8
BLACK
6
CONTINUOUS
10
5.38563
20
-4.27439
11
5.3938
21
-4.26939
0
LINE
8
BLACK
6
CONTINUOUS
10
5.3938
20
-4.26939
11
5.40264
21
-4.26573
0
LINE
8
BLACK
6
CONTINUOUS
10
5.40264
20
-4.26573
11
5.41195
21
-4.26349
0
LINE
8
BLACK
6
CONTINUOUS
10
5.41195
20
-4.26349
11
5.4215
21
-4.26274
0
LINE
8
BLACK
6
CONTINUOUS
10
5.4215
20
-4.26274
11
5.43105
21
-4.26349
0
LINE
8
BLACK
6
CONTINUOUS
10
5.90302
20
-4.31781
11
5.90974
21
-4.3202
0
LINE
8
BLACK
6
CONTINUOUS
10
5.90974
20
-4.3202
11
5.91576
21
-4.32402
0
LINE
8
BLACK
6
CONTINUOUS
10
5.91576
20
-4.32402
11
5.92079
21
-4.32908
0
LINE
8
BLACK
6
CONTINUOUS
10
5.92079
20
-4.32908
11
5.92457
21
-4.33513
0
LINE
8
BLACK
6
CONTINUOUS
10
5.92457
20
-4.33513
11
5.92692
21
-4.34187
0
LINE
8
BLACK
6
CONTINUOUS
10
5.92692
20
-4.34187
11
5.92771
21
-4.34896
0
LINE
8
BLACK
6
CONTINUOUS
10
5.92771
20
-4.34896
11
5.9277
21
-4.34985
0
LINE
8
BLACK
6
CONTINUOUS
10
5.9277
20
-4.34985
11
5.92671
21
-4.35692
0
LINE
8
BLACK
6
CONTINUOUS
10
5.92671
20
-4.35692
11
5.92417
21
-4.36359
0
LINE
8
BLACK
6
CONTINUOUS
10
5.92417
20
-4.36359
11
5.92023
21
-4.36953
0
LINE
8
BLACK
6
CONTINUOUS
10
5.92023
20
-4.36953
11
5.91506
21
-4.37445
0
LINE
8
BLACK
6
CONTINUOUS
10
5.91506
20
-4.37445
11
5.90893
21
-4.3781
0
LINE
8
BLACK
6
CONTINUOUS
10
5.90893
20
-4.3781
11
5.90215
21
-4.38031
0
LINE
8
BLACK
6
CONTINUOUS
10
5.90215
20
-4.38031
11
5.89504
21
-4.38095
0
LINE
8
BLACK
6
CONTINUOUS
10
5.89504
20
-4.38095
11
5.88797
21
-4.38001
0
LINE
8
BLACK
6
CONTINUOUS
10
5.88797
20
-4.38001
11
5.88128
21
-4.37752
0
LINE
8
BLACK
6
CONTINUOUS
10
5.88128
20
-4.37752
11
5.87532
21
-4.37362
0
LINE
8
BLACK
6
CONTINUOUS
10
5.87532
20
-4.37362
11
5.87036
21
-4.36849
0
LINE
8
BLACK
6
CONTINUOUS
10
5.87036
20
-4.36849
11
5.86666
21
-4.36238
0
LINE
8
BLACK
6
CONTINUOUS
10
5.86666
20
-4.36238
11
5.86441
21
-4.35561
0
LINE
8
BLACK
6
CONTINUOUS
10
5.86441
20
-4.35561
11
5.86372
21
-4.34851
0
LINE
8
BLACK
6
CONTINUOUS
10
5.86372
20
-4.34851
11
5.86461
21
-4.34144
0
LINE
8
BLACK
6
CONTINUOUS
10
5.86461
20
-4.34144
11
5.86705
21
-4.33473
0
LINE
8
BLACK
6
CONTINUOUS
10
5.86705
20
-4.33473
11
5.87091
21
-4.32874
0
LINE
8
BLACK
6
CONTINUOUS
10
5.87091
20
-4.32874
11
5.87601
21
-4.32374
0
LINE
8
BLACK
6
CONTINUOUS
10
5.87601
20
-4.32374
11
5.88209
21
-4.32001
0
LINE
8
BLACK
6
CONTINUOUS
10
5.88209
20
-4.32001
11
5.88884
21
-4.31771
0
LINE
8
BLACK
6
CONTINUOUS
10
5.88884
20
-4.31771
11
5.89594
21
-4.31696
0
LINE
8
BLACK
6
CONTINUOUS
10
5.89594
20
-4.31696
11
5.90302
21
-4.31781
0
LINE
8
BLACK
6
CONTINUOUS
10
5.80459
20
-4.31781
11
5.81132
21
-4.3202
0
LINE
8
BLACK
6
CONTINUOUS
10
5.81132
20
-4.3202
11
5.81734
21
-4.32402
0
LINE
8
BLACK
6
CONTINUOUS
10
5.81734
20
-4.32402
11
5.82237
21
-4.32908
0
LINE
8
BLACK
6
CONTINUOUS
10
5.82237
20
-4.32908
11
5.82615
21
-4.33513
0
LINE
8
BLACK
6
CONTINUOUS
10
5.82615
20
-4.33513
11
5.82849
21
-4.34187
0
LINE
8
BLACK
6
CONTINUOUS
10
5.82849
20
-4.34187
11
5.82929
21
-4.34896
0
LINE
8
BLACK
6
CONTINUOUS
10
5.82929
20
-4.34896
11
5.82927
21
-4.34985
0
LINE
8
BLACK
6
CONTINUOUS
10
5.82927
20
-4.34985
11
5.82828
21
-4.35692
0
LINE
8
BLACK
6
CONTINUOUS
10
5.82828
20
-4.35692
11
5.82575
21
-4.36359
0
LINE
8
BLACK
6
CONTINUOUS
10
5.82575
20
-4.36359
11
5.8218
21
-4.36953
0
LINE
8
BLACK
6
CONTINUOUS
10
5.8218
20
-4.36953
11
5.81663
21
-4.37445
0
LINE
8
BLACK
6
CONTINUOUS
10
5.81663
20
-4.37445
11
5.81051
21
-4.3781
0
LINE
8
BLACK
6
CONTINUOUS
10
5.81051
20
-4.3781
11
5.80372
21
-4.38031
0
LINE
8
BLACK
6
CONTINUOUS
10
5.80372
20
-4.38031
11
5.79662
21
-4.38095
0
LINE
8
BLACK
6
CONTINUOUS
10
5.79662
20
-4.38095
11
5.78955
21
-4.38001
0
LINE
8
BLACK
6
CONTINUOUS
10
5.78955
20
-4.38001
11
5.78286
21
-4.37752
0
LINE
8
BLACK
6
CONTINUOUS
10
5.78286
20
-4.37752
11
5.77689
21
-4.37362
0
LINE
8
BLACK
6
CONTINUOUS
10
5.77689
20
-4.37362
11
5.77193
21
-4.36849
0
LINE
8
BLACK
6
CONTINUOUS
10
5.77193
20
-4.36849
11
5.76824
21
-4.36238
0
LINE
8
BLACK
6
CONTINUOUS
10
5.76824
20
-4.36238
11
5.76599
21
-4.35561
0
LINE
8
BLACK
6
CONTINUOUS
10
5.76599
20
-4.35561
11
5.76529
21
-4.34851
0
LINE
8
BLACK
6
CONTINUOUS
10
5.76529
20
-4.34851
11
5.76618
21
-4.34144
0
LINE
8
BLACK
6
CONTINUOUS
10
5.76618
20
-4.34144
11
5.76862
21
-4.33473
0
LINE
8
BLACK
6
CONTINUOUS
10
5.76862
20
-4.33473
11
5.77249
21
-4.32874
0
LINE
8
BLACK
6
CONTINUOUS
10
5.77249
20
-4.32874
11
5.77759
21
-4.32374
0
LINE
8
BLACK
6
CONTINUOUS
10
5.77759
20
-4.32374
11
5.78366
21
-4.32001
0
LINE
8
BLACK
6
CONTINUOUS
10
5.78366
20
-4.32001
11
5.79042
21
-4.31771
0
LINE
8
BLACK
6
CONTINUOUS
10
5.79042
20
-4.31771
11
5.79751
21
-4.31696
0
LINE
8
BLACK
6
CONTINUOUS
10
5.79751
20
-4.31696
11
5.80459
21
-4.31781
0
LINE
8
BLACK
6
CONTINUOUS
10
6.33053
20
-4.2978
11
6.33183
21
-4.29867
0
LINE
8
BLACK
6
CONTINUOUS
10
6.33183
20
-4.29867
11
6.3327
21
-4.29997
0
LINE
8
BLACK
6
CONTINUOUS
10
6.3327
20
-4.29997
11
6.333
21
-4.3015
0
LINE
8
BLACK
6
CONTINUOUS
10
6.333
20
-4.3015
11
6.333
21
-4.3665
0
LINE
8
BLACK
6
CONTINUOUS
10
6.333
20
-4.3665
11
6.3327
21
-4.36803
0
LINE
8
BLACK
6
CONTINUOUS
10
6.3327
20
-4.36803
11
6.33183
21
-4.36933
0
LINE
8
BLACK
6
CONTINUOUS
10
6.33183
20
-4.36933
11
6.33053
21
-4.3702
0
LINE
8
BLACK
6
CONTINUOUS
10
6.33053
20
-4.3702
11
6.329
21
-4.3705
0
LINE
8
BLACK
6
CONTINUOUS
10
6.329
20
-4.3705
11
6.264
21
-4.3705
0
LINE
8
BLACK
6
CONTINUOUS
10
6.264
20
-4.3705
11
6.26247
21
-4.3702
0
LINE
8
BLACK
6
CONTINUOUS
10
6.26247
20
-4.3702
11
6.26117
21
-4.36933
0
LINE
8
BLACK
6
CONTINUOUS
10
6.26117
20
-4.36933
11
6.2603
21
-4.36803
0
LINE
8
BLACK
6
CONTINUOUS
10
6.2603
20
-4.36803
11
6.26
21
-4.3665
0
LINE
8
BLACK
6
CONTINUOUS
10
6.26
20
-4.3665
11
6.26
21
-4.3015
0
LINE
8
BLACK
6
CONTINUOUS
10
6.26
20
-4.3015
11
6.2603
21
-4.29997
0
LINE
8
BLACK
6
CONTINUOUS
10
6.2603
20
-4.29997
11
6.26117
21
-4.29867
0
LINE
8
BLACK
6
CONTINUOUS
10
6.26117
20
-4.29867
11
6.26247
21
-4.2978
0
LINE
8
BLACK
6
CONTINUOUS
10
6.26247
20
-4.2978
11
6.264
21
-4.2975
0
LINE
8
BLACK
6
CONTINUOUS
10
6.264
20
-4.2975
11
6.329
21
-4.2975
0
LINE
8
BLACK
6
CONTINUOUS
10
6.329
20
-4.2975
11
6.33053
21
-4.2978
0
LINE
8
BLACK
6
CONTINUOUS
10
6.23053
20
-4.2978
11
6.23183
21
-4.29867
0
LINE
8
BLACK
6
CONTINUOUS
10
6.23183
20
-4.29867
11
6.2327
21
-4.29997
0
LINE
8
BLACK
6
CONTINUOUS
10
6.2327
20
-4.29997
11
6.233
21
-4.3015
0
LINE
8
BLACK
6
CONTINUOUS
10
6.233
20
-4.3015
11
6.233
21
-4.3665
0
LINE
8
BLACK
6
CONTINUOUS
10
6.233
20
-4.3665
11
6.2327
21
-4.36803
0
LINE
8
BLACK
6
CONTINUOUS
10
6.2327
20
-4.36803
11
6.23183
21
-4.36933
0
LINE
8
BLACK
6
CONTINUOUS
10
6.23183
20
-4.36933
11
6.23053
21
-4.3702
0
LINE
8
BLACK
6
CONTINUOUS
10
6.23053
20
-4.3702
11
6.229
21
-4.3705
0
LINE
8
BLACK
6
CONTINUOUS
10
6.229
20
-4.3705
11
6.164
21
-4.3705
0
LINE
8
BLACK
6
CONTINUOUS
10
6.164
20
-4.3705
11
6.16247
21
-4.3702
0
LINE
8
BLACK
6
CONTINUOUS
10
6.16247
20
-4.3702
11
6.16117
21
-4.36933
0
LINE
8
BLACK
6
CONTINUOUS
10
6.16117
20
-4.36933
11
6.1603
21
-4.36803
0
LINE
8
BLACK
6
CONTINUOUS
10
6.1603
20
-4.36803
11
6.16
21
-4.3665
0
LINE
8
BLACK
6
CONTINUOUS
10
6.16
20
-4.3665
11
6.16
21
-4.3015
0
LINE
8
BLACK
6
CONTINUOUS
10
6.16
20
-4.3015
11
6.1603
21
-4.29997
0
LINE
8
BLACK
6
CONTINUOUS
10
6.1603
20
-4.29997
11
6.16117
21
-4.29867
0
LINE
8
BLACK
6
CONTINUOUS
10
6.16117
20
-4.29867
11
6.16247
21
-4.2978
0
LINE
8
BLACK
6
CONTINUOUS
10
6.16247
20
-4.2978
11
6.164
21
-4.2975
0
LINE
8
BLACK
6
CONTINUOUS
10
6.164
20
-4.2975
11
6.229
21
-4.2975
0
LINE
8
BLACK
6
CONTINUOUS
10
6.229
20
-4.2975
11
6.23053
21
-4.2978
0
LINE
8
BLACK
6
CONTINUOUS
10
6.23053
20
-4.1978
11
6.23183
21
-4.19867
0
LINE
8
BLACK
6
CONTINUOUS
10
6.23183
20
-4.19867
11
6.2327
21
-4.19997
0
LINE
8
BLACK
6
CONTINUOUS
10
6.2327
20
-4.19997
11
6.233
21
-4.2015
0
LINE
8
BLACK
6
CONTINUOUS
10
6.233
20
-4.2015
11
6.233
21
-4.2665
0
LINE
8
BLACK
6
CONTINUOUS
10
6.233
20
-4.2665
11
6.2327
21
-4.26803
0
LINE
8
BLACK
6
CONTINUOUS
10
6.2327
20
-4.26803
11
6.23183
21
-4.26933
0
LINE
8
BLACK
6
CONTINUOUS
10
6.23183
20
-4.26933
11
6.23053
21
-4.2702
0
LINE
8
BLACK
6
CONTINUOUS
10
6.23053
20
-4.2702
11
6.229
21
-4.2705
0
LINE
8
BLACK
6
CONTINUOUS
10
6.229
20
-4.2705
11
6.164
21
-4.2705
0
LINE
8
BLACK
6
CONTINUOUS
10
6.164
20
-4.2705
11
6.16247
21
-4.2702
0
LINE
8
BLACK
6
CONTINUOUS
10
6.16247
20
-4.2702
11
6.16117
21
-4.26933
0
LINE
8
BLACK
6
CONTINUOUS
10
6.16117
20
-4.26933
11
6.1603
21
-4.26803
0
LINE
8
BLACK
6
CONTINUOUS
10
6.1603
20
-4.26803
11
6.16
21
-4.2665
0
LINE
8
BLACK
6
CONTINUOUS
10
6.16
20
-4.2665
11
6.16
21
-4.2015
0
LINE
8
BLACK
6
CONTINUOUS
10
6.16
20
-4.2015
11
6.1603
21
-4.19997
0
LINE
8
BLACK
6
CONTINUOUS
10
6.1603
20
-4.19997
11
6.16117
21
-4.19867
0
LINE
8
BLACK
6
CONTINUOUS
10
6.16117
20
-4.19867
11
6.16247
21
-4.1978
0
LINE
8
BLACK
6
CONTINUOUS
10
6.16247
20
-4.1978
11
6.164
21
-4.1975
0
LINE
8
BLACK
6
CONTINUOUS
10
6.164
20
-4.1975
11
6.229
21
-4.1975
0
LINE
8
BLACK
6
CONTINUOUS
10
6.229
20
-4.1975
11
6.23053
21
-4.1978
0
LINE
8
BLACK
6
CONTINUOUS
10
6.33053
20
-4.1978
11
6.33183
21
-4.19867
0
LINE
8
BLACK
6
CONTINUOUS
10
6.33183
20
-4.19867
11
6.3327
21
-4.19997
0
LINE
8
BLACK
6
CONTINUOUS
10
6.3327
20
-4.19997
11
6.333
21
-4.2015
0
LINE
8
BLACK
6
CONTINUOUS
10
6.333
20
-4.2015
11
6.333
21
-4.2665
0
LINE
8
BLACK
6
CONTINUOUS
10
6.333
20
-4.2665
11
6.3327
21
-4.26803
0
LINE
8
BLACK
6
CONTINUOUS
10
6.3327
20
-4.26803
11
6.33183
21
-4.26933
0
LINE
8
BLACK
6
CONTINUOUS
10
6.33183
20
-4.26933
11
6.33053
21
-4.2702
0
LINE
8
BLACK
6
CONTINUOUS
10
6.33053
20
-4.2702
11
6.329
21
-4.2705
0
LINE
8
BLACK
6
CONTINUOUS
10
6.329
20
-4.2705
11
6.264
21
-4.2705
0
LINE
8
BLACK
6
CONTINUOUS
10
6.264
20
-4.2705
11
6.26247
21
-4.2702
0
LINE
8
BLACK
6
CONTINUOUS
10
6.26247
20
-4.2702
11
6.26117
21
-4.26933
0
LINE
8
BLACK
6
CONTINUOUS
10
6.26117
20
-4.26933
11
6.2603
21
-4.26803
0
LINE
8
BLACK
6
CONTINUOUS
10
6.2603
20
-4.26803
11
6.26
21
-4.2665
0
LINE
8
BLACK
6
CONTINUOUS
10
6.26
20
-4.2665
11
6.26
21
-4.2015
0
LINE
8
BLACK
6
CONTINUOUS
10
6.26
20
-4.2015
11
6.2603
21
-4.19997
0
LINE
8
BLACK
6
CONTINUOUS
10
6.2603
20
-4.19997
11
6.26117
21
-4.19867
0
LINE
8
BLACK
6
CONTINUOUS
10
6.26117
20
-4.19867
11
6.26247
21
-4.1978
0
LINE
8
BLACK
6
CONTINUOUS
10
6.26247
20
-4.1978
11
6.264
21
-4.1975
0
LINE
8
BLACK
6
CONTINUOUS
10
6.264
20
-4.1975
11
6.329
21
-4.1975
0
LINE
8
BLACK
6
CONTINUOUS
10
6.329
20
-4.1975
11
6.33053
21
-4.1978
0
LINE
8
BLACK
6
CONTINUOUS
10
5.43105
20
-4.06664
11
5.44036
21
-4.06888
0
LINE
8
BLACK
6
CONTINUOUS
10
5.44036
20
-4.06888
11
5.4492
21
-4.07254
0
LINE
8
BLACK
6
CONTINUOUS
10
5.4492
20
-4.07254
11
5.45737
21
-4.07754
0
LINE
8
BLACK
6
CONTINUOUS
10
5.45737
20
-4.07754
11
5.46465
21
-4.08376
0
LINE
8
BLACK
6
CONTINUOUS
10
5.46465
20
-4.08376
11
5.47087
21
-4.09104
0
LINE
8
BLACK
6
CONTINUOUS
10
5.47087
20
-4.09104
11
5.47587
21
-4.09921
0
LINE
8
BLACK
6
CONTINUOUS
10
5.47587
20
-4.09921
11
5.47954
21
-4.10806
0
LINE
8
BLACK
6
CONTINUOUS
10
5.47954
20
-4.10806
11
5.48177
21
-4.11737
0
LINE
8
BLACK
6
CONTINUOUS
10
5.48177
20
-4.11737
11
5.48252
21
-4.12691
0
LINE
8
BLACK
6
CONTINUOUS
10
5.48252
20
-4.12691
11
5.48177
21
-4.13646
0
LINE
8
BLACK
6
CONTINUOUS
10
5.48177
20
-4.13646
11
5.47954
21
-4.14577
0
LINE
8
BLACK
6
CONTINUOUS
10
5.47954
20
-4.14577
11
5.47587
21
-4.15462
0
LINE
8
BLACK
6
CONTINUOUS
10
5.47587
20
-4.15462
11
5.47087
21
-4.16278
0
LINE
8
BLACK
6
CONTINUOUS
10
5.47087
20
-4.16278
11
5.46465
21
-4.17006
0
LINE
8
BLACK
6
CONTINUOUS
10
5.46465
20
-4.17006
11
5.45737
21
-4.17628
0
LINE
8
BLACK
6
CONTINUOUS
10
5.45737
20
-4.17628
11
5.4492
21
-4.18129
0
LINE
8
BLACK
6
CONTINUOUS
10
5.4492
20
-4.18129
11
5.44036
21
-4.18495
0
LINE
8
BLACK
6
CONTINUOUS
10
5.44036
20
-4.18495
11
5.43105
21
-4.18719
0
LINE
8
BLACK
6
CONTINUOUS
10
5.43105
20
-4.18719
11
5.4215
21
-4.18794
0
LINE
8
BLACK
6
CONTINUOUS
10
5.4215
20
-4.18794
11
5.41195
21
-4.18719
0
LINE
8
BLACK
6
CONTINUOUS
10
5.41195
20
-4.18719
11
5.40264
21
-4.18495
0
LINE
8
BLACK
6
CONTINUOUS
10
5.40264
20
-4.18495
11
5.3938
21
-4.18129
0
LINE
8
BLACK
6
CONTINUOUS
10
5.3938
20
-4.18129
11
5.38563
21
-4.17628
0
LINE
8
BLACK
6
CONTINUOUS
10
5.38563
20
-4.17628
11
5.37835
21
-4.17006
0
LINE
8
BLACK
6
CONTINUOUS
10
5.37835
20
-4.17006
11
5.37213
21
-4.16278
0
LINE
8
BLACK
6
CONTINUOUS
10
5.37213
20
-4.16278
11
5.36713
21
-4.15462
0
LINE
8
BLACK
6
CONTINUOUS
10
5.36713
20
-4.15462
11
5.36346
21
-4.14577
0
LINE
8
BLACK
6
CONTINUOUS
10
5.36346
20
-4.14577
11
5.36123
21
-4.13646
0
LINE
8
BLACK
6
CONTINUOUS
10
5.36123
20
-4.13646
11
5.36048
21
-4.12691
0
LINE
8
BLACK
6
CONTINUOUS
10
5.36048
20
-4.12691
11
5.36123
21
-4.11737
0
LINE
8
BLACK
6
CONTINUOUS
10
5.36123
20
-4.11737
11
5.36346
21
-4.10806
0
LINE
8
BLACK
6
CONTINUOUS
10
5.36346
20
-4.10806
11
5.36713
21
-4.09921
0
LINE
8
BLACK
6
CONTINUOUS
10
5.36713
20
-4.09921
11
5.37213
21
-4.09104
0
LINE
8
BLACK
6
CONTINUOUS
10
5.37213
20
-4.09104
11
5.37835
21
-4.08376
0
LINE
8
BLACK
6
CONTINUOUS
10
5.37835
20
-4.08376
11
5.38563
21
-4.07754
0
LINE
8
BLACK
6
CONTINUOUS
10
5.38563
20
-4.07754
11
5.3938
21
-4.07254
0
LINE
8
BLACK
6
CONTINUOUS
10
5.3938
20
-4.07254
11
5.40264
21
-4.06888
0
LINE
8
BLACK
6
CONTINUOUS
10
5.40264
20
-4.06888
11
5.41195
21
-4.06664
0
LINE
8
BLACK
6
CONTINUOUS
10
5.41195
20
-4.06664
11
5.4215
21
-4.06589
0
LINE
8
BLACK
6
CONTINUOUS
10
5.4215
20
-4.06589
11
5.43105
21
-4.06664
0
LINE
8
BLACK
6
CONTINUOUS
10
6.23053
20
-4.0978
11
6.23183
21
-4.09867
0
LINE
8
BLACK
6
CONTINUOUS
10
6.23183
20
-4.09867
11
6.2327
21
-4.09997
0
LINE
8
BLACK
6
CONTINUOUS
10
6.2327
20
-4.09997
11
6.233
21
-4.1015
0
LINE
8
BLACK
6
CONTINUOUS
10
6.233
20
-4.1015
11
6.233
21
-4.1665
0
LINE
8
BLACK
6
CONTINUOUS
10
6.233
20
-4.1665
11
6.2327
21
-4.16803
0
LINE
8
BLACK
6
CONTINUOUS
10
6.2327
20
-4.16803
11
6.23183
21
-4.16933
0
LINE
8
BLACK
6
CONTINUOUS
10
6.23183
20
-4.16933
11
6.23053
21
-4.1702
0
LINE
8
BLACK
6
CONTINUOUS
10
6.23053
20
-4.1702
11
6.229
21
-4.1705
0
LINE
8
BLACK
6
CONTINUOUS
10
6.229
20
-4.1705
11
6.164
21
-4.1705
0
LINE
8
BLACK
6
CONTINUOUS
10
6.164
20
-4.1705
11
6.16247
21
-4.1702
0
LINE
8
BLACK
6
CONTINUOUS
10
6.16247
20
-4.1702
11
6.16117
21
-4.16933
0
LINE
8
BLACK
6
CONTINUOUS
10
6.16117
20
-4.16933
11
6.1603
21
-4.16803
0
LINE
8
BLACK
6
CONTINUOUS
10
6.1603
20
-4.16803
11
6.16
21
-4.1665
0
LINE
8
BLACK
6
CONTINUOUS
10
6.16
20
-4.1665
11
6.16
21
-4.1015
0
LINE
8
BLACK
6
CONTINUOUS
10
6.16
20
-4.1015
11
6.1603
21
-4.09997
0
LINE
8
BLACK
6
CONTINUOUS
10
6.1603
20
-4.09997
11
6.16117
21
-4.09867
0
LINE
8
BLACK
6
CONTINUOUS
10
6.16117
20
-4.09867
11
6.16247
21
-4.0978
0
LINE
8
BLACK
6
CONTINUOUS
10
6.16247
20
-4.0978
11
6.164
21
-4.0975
0
LINE
8
BLACK
6
CONTINUOUS
10
6.164
20
-4.0975
11
6.229
21
-4.0975
0
LINE
8
BLACK
6
CONTINUOUS
10
6.229
20
-4.0975
11
6.23053
21
-4.0978
0
LINE
8
BLACK
6
CONTINUOUS
10
6.33053
20
-4.0978
11
6.33183
21
-4.09867
0
LINE
8
BLACK
6
CONTINUOUS
10
6.33183
20
-4.09867
11
6.3327
21
-4.09997
0
LINE
8
BLACK
6
CONTINUOUS
10
6.3327
20
-4.09997
11
6.333
21
-4.1015
0
LINE
8
BLACK
6
CONTINUOUS
10
6.333
20
-4.1015
11
6.333
21
-4.1665
0
LINE
8
BLACK
6
CONTINUOUS
10
6.333
20
-4.1665
11
6.3327
21
-4.16803
0
LINE
8
BLACK
6
CONTINUOUS
10
6.3327
20
-4.16803
11
6.33183
21
-4.16933
0
LINE
8
BLACK
6
CONTINUOUS
10
6.33183
20
-4.16933
11
6.33053
21
-4.1702
0
LINE
8
BLACK
6
CONTINUOUS
10
6.33053
20
-4.1702
11
6.329
21
-4.1705
0
LINE
8
BLACK
6
CONTINUOUS
10
6.329
20
-4.1705
11
6.264
21
-4.1705
0
LINE
8
BLACK
6
CONTINUOUS
10
6.264
20
-4.1705
11
6.26247
21
-4.1702
0
LINE
8
BLACK
6
CONTINUOUS
10
6.26247
20
-4.1702
11
6.26117
21
-4.16933
0
LINE
8
BLACK
6
CONTINUOUS
10
6.26117
20
-4.16933
11
6.2603
21
-4.16803
0
LINE
8
BLACK
6
CONTINUOUS
10
6.2603
20
-4.16803
11
6.26
21
-4.1665
0
LINE
8
BLACK
6
CONTINUOUS
10
6.26
20
-4.1665
11
6.26
21
-4.1015
0
LINE
8
BLACK
6
CONTINUOUS
10
6.26
20
-4.1015
11
6.2603
21
-4.09997
0
LINE
8
BLACK
6
CONTINUOUS
10
6.2603
20
-4.09997
11
6.26117
21
-4.09867
0
LINE
8
BLACK
6
CONTINUOUS
10
6.26117
20
-4.09867
11
6.26247
21
-4.0978
0
LINE
8
BLACK
6
CONTINUOUS
10
6.26247
20
-4.0978
11
6.264
21
-4.0975
0
LINE
8
BLACK
6
CONTINUOUS
10
6.264
20
-4.0975
11
6.329
21
-4.0975
0
LINE
8
BLACK
6
CONTINUOUS
10
6.329
20
-4.0975
11
6.33053
21
-4.0978
0
LINE
8
BLACK
6
CONTINUOUS
10
5.71803
20
-4.0853
11
5.71933
21
-4.08617
0
LINE
8
BLACK
6
CONTINUOUS
10
5.71933
20
-4.08617
11
5.7202
21
-4.08747
0
LINE
8
BLACK
6
CONTINUOUS
10
5.7202
20
-4.08747
11
5.7205
21
-4.089
0
LINE
8
BLACK
6
CONTINUOUS
10
5.7205
20
-4.089
11
5.7205
21
-4.154
0
LINE
8
BLACK
6
CONTINUOUS
10
5.7205
20
-4.154
11
5.7202
21
-4.15553
0
LINE
8
BLACK
6
CONTINUOUS
10
5.7202
20
-4.15553
11
5.71933
21
-4.15683
0
LINE
8
BLACK
6
CONTINUOUS
10
5.71933
20
-4.15683
11
5.71803
21
-4.1577
0
LINE
8
BLACK
6
CONTINUOUS
10
5.71803
20
-4.1577
11
5.7165
21
-4.158
0
LINE
8
BLACK
6
CONTINUOUS
10
5.7165
20
-4.158
11
5.6515
21
-4.158
0
LINE
8
BLACK
6
CONTINUOUS
10
5.6515
20
-4.158
11
5.64997
21
-4.1577
0
LINE
8
BLACK
6
CONTINUOUS
10
5.64997
20
-4.1577
11
5.64867
21
-4.15683
0
LINE
8
BLACK
6
CONTINUOUS
10
5.64867
20
-4.15683
11
5.6478
21
-4.15553
0
LINE
8
BLACK
6
CONTINUOUS
10
5.6478
20
-4.15553
11
5.6475
21
-4.154
0
LINE
8
BLACK
6
CONTINUOUS
10
5.6475
20
-4.154
11
5.6475
21
-4.089
0
LINE
8
BLACK
6
CONTINUOUS
10
5.6475
20
-4.089
11
5.6478
21
-4.08747
0
LINE
8
BLACK
6
CONTINUOUS
10
5.6478
20
-4.08747
11
5.64867
21
-4.08617
0
LINE
8
BLACK
6
CONTINUOUS
10
5.64867
20
-4.08617
11
5.64997
21
-4.0853
0
LINE
8
BLACK
6
CONTINUOUS
10
5.64997
20
-4.0853
11
5.6515
21
-4.085
0
LINE
8
BLACK
6
CONTINUOUS
10
5.6515
20
-4.085
11
5.7165
21
-4.085
0
LINE
8
BLACK
6
CONTINUOUS
10
5.7165
20
-4.085
11
5.71803
21
-4.0853
0
LINE
8
BLACK
6
CONTINUOUS
10
5.81803
20
-4.0853
11
5.81933
21
-4.08617
0
LINE
8
BLACK
6
CONTINUOUS
10
5.81933
20
-4.08617
11
5.8202
21
-4.08747
0
LINE
8
BLACK
6
CONTINUOUS
10
5.8202
20
-4.08747
11
5.8205
21
-4.089
0
LINE
8
BLACK
6
CONTINUOUS
10
5.8205
20
-4.089
11
5.8205
21
-4.154
0
LINE
8
BLACK
6
CONTINUOUS
10
5.8205
20
-4.154
11
5.8202
21
-4.15553
0
LINE
8
BLACK
6
CONTINUOUS
10
5.8202
20
-4.15553
11
5.81933
21
-4.15683
0
LINE
8
BLACK
6
CONTINUOUS
10
5.81933
20
-4.15683
11
5.81803
21
-4.1577
0
LINE
8
BLACK
6
CONTINUOUS
10
5.81803
20
-4.1577
11
5.8165
21
-4.158
0
LINE
8
BLACK
6
CONTINUOUS
10
5.8165
20
-4.158
11
5.7515
21
-4.158
0
LINE
8
BLACK
6
CONTINUOUS
10
5.7515
20
-4.158
11
5.74997
21
-4.1577
0
LINE
8
BLACK
6
CONTINUOUS
10
5.74997
20
-4.1577
11
5.74867
21
-4.15683
0
LINE
8
BLACK
6
CONTINUOUS
10
5.74867
20
-4.15683
11
5.7478
21
-4.15553
0
LINE
8
BLACK
6
CONTINUOUS
10
5.7478
20
-4.15553
11
5.7475
21
-4.154
0
LINE
8
BLACK
6
CONTINUOUS
10
5.7475
20
-4.154
11
5.7475
21
-4.089
0
LINE
8
BLACK
6
CONTINUOUS
10
5.7475
20
-4.089
11
5.7478
21
-4.08747
0
LINE
8
BLACK
6
CONTINUOUS
10
5.7478
20
-4.08747
11
5.74867
21
-4.08617
0
LINE
8
BLACK
6
CONTINUOUS
10
5.74867
20
-4.08617
11
5.74997
21
-4.0853
0
LINE
8
BLACK
6
CONTINUOUS
10
5.74997
20
-4.0853
11
5.7515
21
-4.085
0
LINE
8
BLACK
6
CONTINUOUS
10
5.7515
20
-4.085
11
5.8165
21
-4.085
0
LINE
8
BLACK
6
CONTINUOUS
10
5.8165
20
-4.085
11
5.81803
21
-4.0853
0
LINE
8
BLACK
6
CONTINUOUS
10
5.61803
20
-4.0853
11
5.61933
21
-4.08617
0
LINE
8
BLACK
6
CONTINUOUS
10
5.61933
20
-4.08617
11
5.6202
21
-4.08747
0
LINE
8
BLACK
6
CONTINUOUS
10
5.6202
20
-4.08747
11
5.6205
21
-4.089
0
LINE
8
BLACK
6
CONTINUOUS
10
5.6205
20
-4.089
11
5.6205
21
-4.154
0
LINE
8
BLACK
6
CONTINUOUS
10
5.6205
20
-4.154
11
5.6202
21
-4.15553
0
LINE
8
BLACK
6
CONTINUOUS
10
5.6202
20
-4.15553
11
5.61933
21
-4.15683
0
LINE
8
BLACK
6
CONTINUOUS
10
5.61933
20
-4.15683
11
5.61803
21
-4.1577
0
LINE
8
BLACK
6
CONTINUOUS
10
5.61803
20
-4.1577
11
5.6165
21
-4.158
0
LINE
8
BLACK
6
CONTINUOUS
10
5.6165
20
-4.158
11
5.5515
21
-4.158
0
LINE
8
BLACK
6
CONTINUOUS
10
5.5515
20
-4.158
11
5.54997
21
-4.1577
0
LINE
8
BLACK
6
CONTINUOUS
10
5.54997
20
-4.1577
11
5.54867
21
-4.15683
0
LINE
8
BLACK
6
CONTINUOUS
10
5.54867
20
-4.15683
11
5.5478
21
-4.15553
0
LINE
8
BLACK
6
CONTINUOUS
10
5.5478
20
-4.15553
11
5.5475
21
-4.154
0
LINE
8
BLACK
6
CONTINUOUS
10
5.5475
20
-4.154
11
5.5475
21
-4.089
0
LINE
8
BLACK
6
CONTINUOUS
10
5.5475
20
-4.089
11
5.5478
21
-4.08747
0
LINE
8
BLACK
6
CONTINUOUS
10
5.5478
20
-4.08747
11
5.54867
21
-4.08617
0
LINE
8
BLACK
6
CONTINUOUS
10
5.54867
20
-4.08617
11
5.54997
21
-4.0853
0
LINE
8
BLACK
6
CONTINUOUS
10
5.54997
20
-4.0853
11
5.5515
21
-4.085
0
LINE
8
BLACK
6
CONTINUOUS
10
5.5515
20
-4.085
11
5.6165
21
-4.085
0
LINE
8
BLACK
6
CONTINUOUS
10
5.6165
20
-4.085
11
5.61803
21
-4.0853
0
LINE
8
BLACK
6
CONTINUOUS
10
5.75553
20
-3.9353
11
5.75683
21
-3.93617
0
LINE
8
BLACK
6
CONTINUOUS
10
5.75683
20
-3.93617
11
5.7577
21
-3.93747
0
LINE
8
BLACK
6
CONTINUOUS
10
5.7577
20
-3.93747
11
5.758
21
-3.939
0
LINE
8
BLACK
6
CONTINUOUS
10
5.758
20
-3.939
11
5.758
21
-4.004
0
LINE
8
BLACK
6
CONTINUOUS
10
5.758
20
-4.004
11
5.7577
21
-4.00553
0
LINE
8
BLACK
6
CONTINUOUS
10
5.7577
20
-4.00553
11
5.75683
21
-4.00683
0
LINE
8
BLACK
6
CONTINUOUS
10
5.75683
20
-4.00683
11
5.75553
21
-4.0077
0
LINE
8
BLACK
6
CONTINUOUS
10
5.75553
20
-4.0077
11
5.754
21
-4.008
0
LINE
8
BLACK
6
CONTINUOUS
10
5.754
20
-4.008
11
5.689
21
-4.008
0
LINE
8
BLACK
6
CONTINUOUS
10
5.689
20
-4.008
11
5.68747
21
-4.0077
0
LINE
8
BLACK
6
CONTINUOUS
10
5.68747
20
-4.0077
11
5.68617
21
-4.00683
0
LINE
8
BLACK
6
CONTINUOUS
10
5.68617
20
-4.00683
11
5.6853
21
-4.00553
0
LINE
8
BLACK
6
CONTINUOUS
10
5.6853
20
-4.00553
11
5.685
21
-4.004
0
LINE
8
BLACK
6
CONTINUOUS
10
5.685
20
-4.004
11
5.685
21
-3.939
0
LINE
8
BLACK
6
CONTINUOUS
10
5.685
20
-3.939
11
5.6853
21
-3.93747
0
LINE
8
BLACK
6
CONTINUOUS
10
5.6853
20
-3.93747
11
5.68617
21
-3.93617
0
LINE
8
BLACK
6
CONTINUOUS
10
5.68617
20
-3.93617
11
5.68747
21
-3.9353
0
LINE
8
BLACK
6
CONTINUOUS
10
5.68747
20
-3.9353
11
5.689
21
-3.935
0
LINE
8
BLACK
6
CONTINUOUS
10
5.689
20
-3.935
11
5.754
21
-3.935
0
LINE
8
BLACK
6
CONTINUOUS
10
5.754
20
-3.935
11
5.75553
21
-3.9353
0
LINE
8
BLACK
6
CONTINUOUS
10
6.33053
20
-3.92905
11
6.33183
21
-3.92992
0
LINE
8
BLACK
6
CONTINUOUS
10
6.33183
20
-3.92992
11
6.3327
21
-3.93122
0
LINE
8
BLACK
6
CONTINUOUS
10
6.3327
20
-3.93122
11
6.333
21
-3.93275
0
LINE
8
BLACK
6
CONTINUOUS
10
6.333
20
-3.93275
11
6.333
21
-3.99775
0
LINE
8
BLACK
6
CONTINUOUS
10
6.333
20
-3.99775
11
6.3327
21
-3.99928
0
LINE
8
BLACK
6
CONTINUOUS
10
6.3327
20
-3.99928
11
6.33183
21
-4.00058
0
LINE
8
BLACK
6
CONTINUOUS
10
6.33183
20
-4.00058
11
6.33053
21
-4.00145
0
LINE
8
BLACK
6
CONTINUOUS
10
6.33053
20
-4.00145
11
6.329
21
-4.00175
0
LINE
8
BLACK
6
CONTINUOUS
10
6.329
20
-4.00175
11
6.264
21
-4.00175
0
LINE
8
BLACK
6
CONTINUOUS
10
6.264
20
-4.00175
11
6.26247
21
-4.00145
0
LINE
8
BLACK
6
CONTINUOUS
10
6.26247
20
-4.00145
11
6.26117
21
-4.00058
0
LINE
8
BLACK
6
CONTINUOUS
10
6.26117
20
-4.00058
11
6.2603
21
-3.99928
0
LINE
8
BLACK
6
CONTINUOUS
10
6.2603
20
-3.99928
11
6.26
21
-3.99775
0
LINE
8
BLACK
6
CONTINUOUS
10
6.26
20
-3.99775
11
6.26
21
-3.93275
0
LINE
8
BLACK
6
CONTINUOUS
10
6.26
20
-3.93275
11
6.2603
21
-3.93122
0
LINE
8
BLACK
6
CONTINUOUS
10
6.2603
20
-3.93122
11
6.26117
21
-3.92992
0
LINE
8
BLACK
6
CONTINUOUS
10
6.26117
20
-3.92992
11
6.26247
21
-3.92905
0
LINE
8
BLACK
6
CONTINUOUS
10
6.26247
20
-3.92905
11
6.264
21
-3.92875
0
LINE
8
BLACK
6
CONTINUOUS
10
6.264
20
-3.92875
11
6.329
21
-3.92875
0
LINE
8
BLACK
6
CONTINUOUS
10
6.329
20
-3.92875
11
6.33053
21
-3.92905
0
LINE
8
BLACK
6
CONTINUOUS
10
6.23053
20
-3.92905
11
6.23183
21
-3.92992
0
LINE
8
BLACK
6
CONTINUOUS
10
6.23183
20
-3.92992
11
6.2327
21
-3.93122
0
LINE
8
BLACK
6
CONTINUOUS
10
6.2327
20
-3.93122
11
6.233
21
-3.93275
0
LINE
8
BLACK
6
CONTINUOUS
10
6.233
20
-3.93275
11
6.233
21
-3.99775
0
LINE
8
BLACK
6
CONTINUOUS
10
6.233
20
-3.99775
11
6.2327
21
-3.99928
0
LINE
8
BLACK
6
CONTINUOUS
10
6.2327
20
-3.99928
11
6.23183
21
-4.00058
0
LINE
8
BLACK
6
CONTINUOUS
10
6.23183
20
-4.00058
11
6.23053
21
-4.00145
0
LINE
8
BLACK
6
CONTINUOUS
10
6.23053
20
-4.00145
11
6.229
21
-4.00175
0
LINE
8
BLACK
6
CONTINUOUS
10
6.229
20
-4.00175
11
6.164
21
-4.00175
0
LINE
8
BLACK
6
CONTINUOUS
10
6.164
20
-4.00175
11
6.16247
21
-4.00145
0
LINE
8
BLACK
6
CONTINUOUS
10
6.16247
20
-4.00145
11
6.16117
21
-4.00058
0
LINE
8
BLACK
6
CONTINUOUS
10
6.16117
20
-4.00058
11
6.1603
21
-3.99928
0
LINE
8
BLACK
6
CONTINUOUS
10
6.1603
20
-3.99928
11
6.16
21
-3.99775
0
LINE
8
BLACK
6
CONTINUOUS
10
6.16
20
-3.99775
11
6.16
21
-3.93275
0
LINE
8
BLACK
6
CONTINUOUS
10
6.16
20
-3.93275
11
6.1603
21
-3.93122
0
LINE
8
BLACK
6
CONTINUOUS
10
6.1603
20
-3.93122
11
6.16117
21
-3.92992
0
LINE
8
BLACK
6
CONTINUOUS
10
6.16117
20
-3.92992
11
6.16247
21
-3.92905
0
LINE
8
BLACK
6
CONTINUOUS
10
6.16247
20
-3.92905
11
6.164
21
-3.92875
0
LINE
8
BLACK
6
CONTINUOUS
10
6.164
20
-3.92875
11
6.229
21
-3.92875
0
LINE
8
BLACK
6
CONTINUOUS
10
6.229
20
-3.92875
11
6.23053
21
-3.92905
0
LINE
8
BLACK
6
CONTINUOUS
10
5.43053
20
-3.8978
11
5.43183
21
-3.89867
0
LINE
8
BLACK
6
CONTINUOUS
10
5.43183
20
-3.89867
11
5.4327
21
-3.89997
0
LINE
8
BLACK
6
CONTINUOUS
10
5.4327
20
-3.89997
11
5.433
21
-3.9015
0
LINE
8
BLACK
6
CONTINUOUS
10
5.433
20
-3.9015
11
5.433
21
-3.9665
0
LINE
8
BLACK
6
CONTINUOUS
10
5.433
20
-3.9665
11
5.4327
21
-3.96803
0
LINE
8
BLACK
6
CONTINUOUS
10
5.4327
20
-3.96803
11
5.43183
21
-3.96933
0
LINE
8
BLACK
6
CONTINUOUS
10
5.43183
20
-3.96933
11
5.43053
21
-3.9702
0
LINE
8
BLACK
6
CONTINUOUS
10
5.43053
20
-3.9702
11
5.429
21
-3.9705
0
LINE
8
BLACK
6
CONTINUOUS
10
5.429
20
-3.9705
11
5.364
21
-3.9705
0
LINE
8
BLACK
6
CONTINUOUS
10
5.364
20
-3.9705
11
5.36247
21
-3.9702
0
LINE
8
BLACK
6
CONTINUOUS
10
5.36247
20
-3.9702
11
5.36117
21
-3.96933
0
LINE
8
BLACK
6
CONTINUOUS
10
5.36117
20
-3.96933
11
5.3603
21
-3.96803
0
LINE
8
BLACK
6
CONTINUOUS
10
5.3603
20
-3.96803
11
5.36
21
-3.9665
0
LINE
8
BLACK
6
CONTINUOUS
10
5.36
20
-3.9665
11
5.36
21
-3.9015
0
LINE
8
BLACK
6
CONTINUOUS
10
5.36
20
-3.9015
11
5.3603
21
-3.89997
0
LINE
8
BLACK
6
CONTINUOUS
10
5.3603
20
-3.89997
11
5.36117
21
-3.89867
0
LINE
8
BLACK
6
CONTINUOUS
10
5.36117
20
-3.89867
11
5.36247
21
-3.8978
0
LINE
8
BLACK
6
CONTINUOUS
10
5.36247
20
-3.8978
11
5.364
21
-3.8975
0
LINE
8
BLACK
6
CONTINUOUS
10
5.364
20
-3.8975
11
5.429
21
-3.8975
0
LINE
8
BLACK
6
CONTINUOUS
10
5.429
20
-3.8975
11
5.43053
21
-3.8978
0
LINE
8
BLACK
6
CONTINUOUS
10
5.53053
20
-3.8978
11
5.53183
21
-3.89867
0
LINE
8
BLACK
6
CONTINUOUS
10
5.53183
20
-3.89867
11
5.5327
21
-3.89997
0
LINE
8
BLACK
6
CONTINUOUS
10
5.5327
20
-3.89997
11
5.533
21
-3.9015
0
LINE
8
BLACK
6
CONTINUOUS
10
5.533
20
-3.9015
11
5.533
21
-3.9665
0
LINE
8
BLACK
6
CONTINUOUS
10
5.533
20
-3.9665
11
5.5327
21
-3.96803
0
LINE
8
BLACK
6
CONTINUOUS
10
5.5327
20
-3.96803
11
5.53183
21
-3.96933
0
LINE
8
BLACK
6
CONTINUOUS
10
5.53183
20
-3.96933
11
5.53053
21
-3.9702
0
LINE
8
BLACK
6
CONTINUOUS
10
5.53053
20
-3.9702
11
5.529
21
-3.9705
0
LINE
8
BLACK
6
CONTINUOUS
10
5.529
20
-3.9705
11
5.464
21
-3.9705
0
LINE
8
BLACK
6
CONTINUOUS
10
5.464
20
-3.9705
11
5.46247
21
-3.9702
0
LINE
8
BLACK
6
CONTINUOUS
10
5.46247
20
-3.9702
11
5.46117
21
-3.96933
0
LINE
8
BLACK
6
CONTINUOUS
10
5.46117
20
-3.96933
11
5.4603
21
-3.96803
0
LINE
8
BLACK
6
CONTINUOUS
10
5.4603
20
-3.96803
11
5.46
21
-3.9665
0
LINE
8
BLACK
6
CONTINUOUS
10
5.46
20
-3.9665
11
5.46
21
-3.9015
0
LINE
8
BLACK
6
CONTINUOUS
10
5.46
20
-3.9015
11
5.4603
21
-3.89997
0
LINE
8
BLACK
6
CONTINUOUS
10
5.4603
20
-3.89997
11
5.46117
21
-3.89867
0
LINE
8
BLACK
6
CONTINUOUS
10
5.46117
20
-3.89867
11
5.46247
21
-3.8978
0
LINE
8
BLACK
6
CONTINUOUS
10
5.46247
20
-3.8978
11
5.464
21
-3.8975
0
LINE
8
BLACK
6
CONTINUOUS
10
5.464
20
-3.8975
11
5.529
21
-3.8975
0
LINE
8
BLACK
6
CONTINUOUS
10
5.529
20
-3.8975
11
5.53053
21
-3.8978
0
LINE
8
BLACK
6
CONTINUOUS
10
5.75553
20
-3.8353
11
5.75683
21
-3.83617
0
LINE
8
BLACK
6
CONTINUOUS
10
5.75683
20
-3.83617
11
5.7577
21
-3.83747
0
LINE
8
BLACK
6
CONTINUOUS
10
5.7577
20
-3.83747
11
5.758
21
-3.839
0
LINE
8
BLACK
6
CONTINUOUS
10
5.758
20
-3.839
11
5.758
21
-3.904
0
LINE
8
BLACK
6
CONTINUOUS
10
5.758
20
-3.904
11
5.7577
21
-3.90553
0
LINE
8
BLACK
6
CONTINUOUS
10
5.7577
20
-3.90553
11
5.75683
21
-3.90683
0
LINE
8
BLACK
6
CONTINUOUS
10
5.75683
20
-3.90683
11
5.75553
21
-3.9077
0
LINE
8
BLACK
6
CONTINUOUS
10
5.75553
20
-3.9077
11
5.754
21
-3.908
0
LINE
8
BLACK
6
CONTINUOUS
10
5.754
20
-3.908
11
5.689
21
-3.908
0
LINE
8
BLACK
6
CONTINUOUS
10
5.689
20
-3.908
11
5.68747
21
-3.9077
0
LINE
8
BLACK
6
CONTINUOUS
10
5.68747
20
-3.9077
11
5.68617
21
-3.90683
0
LINE
8
BLACK
6
CONTINUOUS
10
5.68617
20
-3.90683
11
5.6853
21
-3.90553
0
LINE
8
BLACK
6
CONTINUOUS
10
5.6853
20
-3.90553
11
5.685
21
-3.904
0
LINE
8
BLACK
6
CONTINUOUS
10
5.685
20
-3.904
11
5.685
21
-3.839
0
LINE
8
BLACK
6
CONTINUOUS
10
5.685
20
-3.839
11
5.6853
21
-3.83747
0
LINE
8
BLACK
6
CONTINUOUS
10
5.6853
20
-3.83747
11
5.68617
21
-3.83617
0
LINE
8
BLACK
6
CONTINUOUS
10
5.68617
20
-3.83617
11
5.68747
21
-3.8353
0
LINE
8
BLACK
6
CONTINUOUS
10
5.68747
20
-3.8353
11
5.689
21
-3.835
0
LINE
8
BLACK
6
CONTINUOUS
10
5.689
20
-3.835
11
5.754
21
-3.835
0
LINE
8
BLACK
6
CONTINUOUS
10
5.754
20
-3.835
11
5.75553
21
-3.8353
0
LINE
8
BLACK
6
CONTINUOUS
10
6.33053
20
-3.82905
11
6.33183
21
-3.82992
0
LINE
8
BLACK
6
CONTINUOUS
10
6.33183
20
-3.82992
11
6.3327
21
-3.83122
0
LINE
8
BLACK
6
CONTINUOUS
10
6.3327
20
-3.83122
11
6.333
21
-3.83275
0
LINE
8
BLACK
6
CONTINUOUS
10
6.333
20
-3.83275
11
6.333
21
-3.89775
0
LINE
8
BLACK
6
CONTINUOUS
10
6.333
20
-3.89775
11
6.3327
21
-3.89928
0
LINE
8
BLACK
6
CONTINUOUS
10
6.3327
20
-3.89928
11
6.33183
21
-3.90058
0
LINE
8
BLACK
6
CONTINUOUS
10
6.33183
20
-3.90058
11
6.33053
21
-3.90145
0
LINE
8
BLACK
6
CONTINUOUS
10
6.33053
20
-3.90145
11
6.329
21
-3.90175
0
LINE
8
BLACK
6
CONTINUOUS
10
6.329
20
-3.90175
11
6.264
21
-3.90175
0
LINE
8
BLACK
6
CONTINUOUS
10
6.264
20
-3.90175
11
6.26247
21
-3.90145
0
LINE
8
BLACK
6
CONTINUOUS
10
6.26247
20
-3.90145
11
6.26117
21
-3.90058
0
LINE
8
BLACK
6
CONTINUOUS
10
6.26117
20
-3.90058
11
6.2603
21
-3.89928
0
LINE
8
BLACK
6
CONTINUOUS
10
6.2603
20
-3.89928
11
6.26
21
-3.89775
0
LINE
8
BLACK
6
CONTINUOUS
10
6.26
20
-3.89775
11
6.26
21
-3.83275
0
LINE
8
BLACK
6
CONTINUOUS
10
6.26
20
-3.83275
11
6.2603
21
-3.83122
0
LINE
8
BLACK
6
CONTINUOUS
10
6.2603
20
-3.83122
11
6.26117
21
-3.82992
0
LINE
8
BLACK
6
CONTINUOUS
10
6.26117
20
-3.82992
11
6.26247
21
-3.82905
0
LINE
8
BLACK
6
CONTINUOUS
10
6.26247
20
-3.82905
11
6.264
21
-3.82875
0
LINE
8
BLACK
6
CONTINUOUS
10
6.264
20
-3.82875
11
6.329
21
-3.82875
0
LINE
8
BLACK
6
CONTINUOUS
10
6.329
20
-3.82875
11
6.33053
21
-3.82905
0
LINE
8
BLACK
6
CONTINUOUS
10
6.23053
20
-3.82905
11
6.23183
21
-3.82992
0
LINE
8
BLACK
6
CONTINUOUS
10
6.23183
20
-3.82992
11
6.2327
21
-3.83122
0
LINE
8
BLACK
6
CONTINUOUS
10
6.2327
20
-3.83122
11
6.233
21
-3.83275
0
LINE
8
BLACK
6
CONTINUOUS
10
6.233
20
-3.83275
11
6.233
21
-3.89775
0
LINE
8
BLACK
6
CONTINUOUS
10
6.233
20
-3.89775
11
6.2327
21
-3.89928
0
LINE
8
BLACK
6
CONTINUOUS
10
6.2327
20
-3.89928
11
6.23183
21
-3.90058
0
LINE
8
BLACK
6
CONTINUOUS
10
6.23183
20
-3.90058
11
6.23053
21
-3.90145
0
LINE
8
BLACK
6
CONTINUOUS
10
6.23053
20
-3.90145
11
6.229
21
-3.90175
0
LINE
8
BLACK
6
CONTINUOUS
10
6.229
20
-3.90175
11
6.164
21
-3.90175
0
LINE
8
BLACK
6
CONTINUOUS
10
6.164
20
-3.90175
11
6.16247
21
-3.90145
0
LINE
8
BLACK
6
CONTINUOUS
10
6.16247
20
-3.90145
11
6.16117
21
-3.90058
0
LINE
8
BLACK
6
CONTINUOUS
10
6.16117
20
-3.90058
11
6.1603
21
-3.89928
0
LINE
8
BLACK
6
CONTINUOUS
10
6.1603
20
-3.89928
11
6.16
21
-3.89775
0
LINE
8
BLACK
6
CONTINUOUS
10
6.16
20
-3.89775
11
6.16
21
-3.83275
0
LINE
8
BLACK
6
CONTINUOUS
10
6.16
20
-3.83275
11
6.1603
21
-3.83122
0
LINE
8
BLACK
6
CONTINUOUS
10
6.1603
20
-3.83122
11
6.16117
21
-3.82992
0
LINE
8
BLACK
6
CONTINUOUS
10
6.16117
20
-3.82992
11
6.16247
21
-3.82905
0
LINE
8
BLACK
6
CONTINUOUS
10
6.16247
20
-3.82905
11
6.164
21
-3.82875
0
LINE
8
BLACK
6
CONTINUOUS
10
6.164
20
-3.82875
11
6.229
21
-3.82875
0
LINE
8
BLACK
6
CONTINUOUS
10
6.229
20
-3.82875
11
6.23053
21
-3.82905
0
LINE
8
BLACK
6
CONTINUOUS
10
5.43053
20
-3.7978
11
5.43183
21
-3.79867
0
LINE
8
BLACK
6
CONTINUOUS
10
5.43183
20
-3.79867
11
5.4327
21
-3.79997
0
LINE
8
BLACK
6
CONTINUOUS
10
5.4327
20
-3.79997
11
5.433
21
-3.8015
0
LINE
8
BLACK
6
CONTINUOUS
10
5.433
20
-3.8015
11
5.433
21
-3.8665
0
LINE
8
BLACK
6
CONTINUOUS
10
5.433
20
-3.8665
11
5.4327
21
-3.86803
0
LINE
8
BLACK
6
CONTINUOUS
10
5.4327
20
-3.86803
11
5.43183
21
-3.86933
0
LINE
8
BLACK
6
CONTINUOUS
10
5.43183
20
-3.86933
11
5.43053
21
-3.8702
0
LINE
8
BLACK
6
CONTINUOUS
10
5.43053
20
-3.8702
11
5.429
21
-3.8705
0
LINE
8
BLACK
6
CONTINUOUS
10
5.429
20
-3.8705
11
5.364
21
-3.8705
0
LINE
8
BLACK
6
CONTINUOUS
10
5.364
20
-3.8705
11
5.36247
21
-3.8702
0
LINE
8
BLACK
6
CONTINUOUS
10
5.36247
20
-3.8702
11
5.36117
21
-3.86933
0
LINE
8
BLACK
6
CONTINUOUS
10
5.36117
20
-3.86933
11
5.3603
21
-3.86803
0
LINE
8
BLACK
6
CONTINUOUS
10
5.3603
20
-3.86803
11
5.36
21
-3.8665
0
LINE
8
BLACK
6
CONTINUOUS
10
5.36
20
-3.8665
11
5.36
21
-3.8015
0
LINE
8
BLACK
6
CONTINUOUS
10
5.36
20
-3.8015
11
5.3603
21
-3.79997
0
LINE
8
BLACK
6
CONTINUOUS
10
5.3603
20
-3.79997
11
5.36117
21
-3.79867
0
LINE
8
BLACK
6
CONTINUOUS
10
5.36117
20
-3.79867
11
5.36247
21
-3.7978
0
LINE
8
BLACK
6
CONTINUOUS
10
5.36247
20
-3.7978
11
5.364
21
-3.7975
0
LINE
8
BLACK
6
CONTINUOUS
10
5.364
20
-3.7975
11
5.429
21
-3.7975
0
LINE
8
BLACK
6
CONTINUOUS
10
5.429
20
-3.7975
11
5.43053
21
-3.7978
0
LINE
8
BLACK
6
CONTINUOUS
10
5.53053
20
-3.7978
11
5.53183
21
-3.79867
0
LINE
8
BLACK
6
CONTINUOUS
10
5.53183
20
-3.79867
11
5.5327
21
-3.79997
0
LINE
8
BLACK
6
CONTINUOUS
10
5.5327
20
-3.79997
11
5.533
21
-3.8015
0
LINE
8
BLACK
6
CONTINUOUS
10
5.533
20
-3.8015
11
5.533
21
-3.8665
0
LINE
8
BLACK
6
CONTINUOUS
10
5.533
20
-3.8665
11
5.5327
21
-3.86803
0
LINE
8
BLACK
6
CONTINUOUS
10
5.5327
20
-3.86803
11
5.53183
21
-3.86933
0
LINE
8
BLACK
6
CONTINUOUS
10
5.53183
20
-3.86933
11
5.53053
21
-3.8702
0
LINE
8
BLACK
6
CONTINUOUS
10
5.53053
20
-3.8702
11
5.529
21
-3.8705
0
LINE
8
BLACK
6
CONTINUOUS
10
5.529
20
-3.8705
11
5.464
21
-3.8705
0
LINE
8
BLACK
6
CONTINUOUS
10
5.464
20
-3.8705
11
5.46247
21
-3.8702
0
LINE
8
BLACK
6
CONTINUOUS
10
5.46247
20
-3.8702
11
5.46117
21
-3.86933
0
LINE
8
BLACK
6
CONTINUOUS
10
5.46117
20
-3.86933
11
5.4603
21
-3.86803
0
LINE
8
BLACK
6
CONTINUOUS
10
5.4603
20
-3.86803
11
5.46
21
-3.8665
0
LINE
8
BLACK
6
CONTINUOUS
10
5.46
20
-3.8665
11
5.46
21
-3.8015
0
LINE
8
BLACK
6
CONTINUOUS
10
5.46
20
-3.8015
11
5.4603
21
-3.79997
0
LINE
8
BLACK
6
CONTINUOUS
10
5.4603
20
-3.79997
11
5.46117
21
-3.79867
0
LINE
8
BLACK
6
CONTINUOUS
10
5.46117
20
-3.79867
11
5.46247
21
-3.7978
0
LINE
8
BLACK
6
CONTINUOUS
10
5.46247
20
-3.7978
11
5.464
21
-3.7975
0
LINE
8
BLACK
6
CONTINUOUS
10
5.464
20
-3.7975
11
5.529
21
-3.7975
0
LINE
8
BLACK
6
CONTINUOUS
10
5.529
20
-3.7975
11
5.53053
21
-3.7978
0
LINE
8
BLACK
6
CONTINUOUS
10
6.06178
20
-3.7353
11
6.06308
21
-3.73617
0
LINE
8
BLACK
6
CONTINUOUS
10
6.06308
20
-3.73617
11
6.06395
21
-3.73747
0
LINE
8
BLACK
6
CONTINUOUS
10
6.06395
20
-3.73747
11
6.06425
21
-3.739
0
LINE
8
BLACK
6
CONTINUOUS
10
6.06425
20
-3.739
11
6.06425
21
-3.804
0
LINE
8
BLACK
6
CONTINUOUS
10
6.06425
20
-3.804
11
6.06395
21
-3.80553
0
LINE
8
BLACK
6
CONTINUOUS
10
6.06395
20
-3.80553
11
6.06308
21
-3.80683
0
LINE
8
BLACK
6
CONTINUOUS
10
6.06308
20
-3.80683
11
6.06178
21
-3.8077
0
LINE
8
BLACK
6
CONTINUOUS
10
6.06178
20
-3.8077
11
6.06025
21
-3.808
0
LINE
8
BLACK
6
CONTINUOUS
10
6.06025
20
-3.808
11
5.99525
21
-3.808
0
LINE
8
BLACK
6
CONTINUOUS
10
5.99525
20
-3.808
11
5.99372
21
-3.8077
0
LINE
8
BLACK
6
CONTINUOUS
10
5.99372
20
-3.8077
11
5.99242
21
-3.80683
0
LINE
8
BLACK
6
CONTINUOUS
10
5.99242
20
-3.80683
11
5.99155
21
-3.80553
0
LINE
8
BLACK
6
CONTINUOUS
10
5.99155
20
-3.80553
11
5.99125
21
-3.804
0
LINE
8
BLACK
6
CONTINUOUS
10
5.99125
20
-3.804
11
5.99125
21
-3.739
0
LINE
8
BLACK
6
CONTINUOUS
10
5.99125
20
-3.739
11
5.99155
21
-3.73747
0
LINE
8
BLACK
6
CONTINUOUS
10
5.99155
20
-3.73747
11
5.99242
21
-3.73617
0
LINE
8
BLACK
6
CONTINUOUS
10
5.99242
20
-3.73617
11
5.99372
21
-3.7353
0
LINE
8
BLACK
6
CONTINUOUS
10
5.99372
20
-3.7353
11
5.99525
21
-3.735
0
LINE
8
BLACK
6
CONTINUOUS
10
5.99525
20
-3.735
11
6.06025
21
-3.735
0
LINE
8
BLACK
6
CONTINUOUS
10
6.06025
20
-3.735
11
6.06178
21
-3.7353
0
LINE
8
BLACK
6
CONTINUOUS
10
6.23053
20
-3.72905
11
6.23183
21
-3.72992
0
LINE
8
BLACK
6
CONTINUOUS
10
6.23183
20
-3.72992
11
6.2327
21
-3.73122
0
LINE
8
BLACK
6
CONTINUOUS
10
6.2327
20
-3.73122
11
6.233
21
-3.73275
0
LINE
8
BLACK
6
CONTINUOUS
10
6.233
20
-3.73275
11
6.233
21
-3.79775
0
LINE
8
BLACK
6
CONTINUOUS
10
6.233
20
-3.79775
11
6.2327
21
-3.79928
0
LINE
8
BLACK
6
CONTINUOUS
10
6.2327
20
-3.79928
11
6.23183
21
-3.80058
0
LINE
8
BLACK
6
CONTINUOUS
10
6.23183
20
-3.80058
11
6.23053
21
-3.80145
0
LINE
8
BLACK
6
CONTINUOUS
10
6.23053
20
-3.80145
11
6.229
21
-3.80175
0
LINE
8
BLACK
6
CONTINUOUS
10
6.229
20
-3.80175
11
6.164
21
-3.80175
0
LINE
8
BLACK
6
CONTINUOUS
10
6.164
20
-3.80175
11
6.16247
21
-3.80145
0
LINE
8
BLACK
6
CONTINUOUS
10
6.16247
20
-3.80145
11
6.16117
21
-3.80058
0
LINE
8
BLACK
6
CONTINUOUS
10
6.16117
20
-3.80058
11
6.1603
21
-3.79928
0
LINE
8
BLACK
6
CONTINUOUS
10
6.1603
20
-3.79928
11
6.16
21
-3.79775
0
LINE
8
BLACK
6
CONTINUOUS
10
6.16
20
-3.79775
11
6.16
21
-3.73275
0
LINE
8
BLACK
6
CONTINUOUS
10
6.16
20
-3.73275
11
6.1603
21
-3.73122
0
LINE
8
BLACK
6
CONTINUOUS
10
6.1603
20
-3.73122
11
6.16117
21
-3.72992
0
LINE
8
BLACK
6
CONTINUOUS
10
6.16117
20
-3.72992
11
6.16247
21
-3.72905
0
LINE
8
BLACK
6
CONTINUOUS
10
6.16247
20
-3.72905
11
6.164
21
-3.72875
0
LINE
8
BLACK
6
CONTINUOUS
10
6.164
20
-3.72875
11
6.229
21
-3.72875
0
LINE
8
BLACK
6
CONTINUOUS
10
6.229
20
-3.72875
11
6.23053
21
-3.72905
0
LINE
8
BLACK
6
CONTINUOUS
10
6.33053
20
-3.72905
11
6.33183
21
-3.72992
0
LINE
8
BLACK
6
CONTINUOUS
10
6.33183
20
-3.72992
11
6.3327
21
-3.73122
0
LINE
8
BLACK
6
CONTINUOUS
10
6.3327
20
-3.73122
11
6.333
21
-3.73275
0
LINE
8
BLACK
6
CONTINUOUS
10
6.333
20
-3.73275
11
6.333
21
-3.79775
0
LINE
8
BLACK
6
CONTINUOUS
10
6.333
20
-3.79775
11
6.3327
21
-3.79928
0
LINE
8
BLACK
6
CONTINUOUS
10
6.3327
20
-3.79928
11
6.33183
21
-3.80058
0
LINE
8
BLACK
6
CONTINUOUS
10
6.33183
20
-3.80058
11
6.33053
21
-3.80145
0
LINE
8
BLACK
6
CONTINUOUS
10
6.33053
20
-3.80145
11
6.329
21
-3.80175
0
LINE
8
BLACK
6
CONTINUOUS
10
6.329
20
-3.80175
11
6.264
21
-3.80175
0
LINE
8
BLACK
6
CONTINUOUS
10
6.264
20
-3.80175
11
6.26247
21
-3.80145
0
LINE
8
BLACK
6
CONTINUOUS
10
6.26247
20
-3.80145
11
6.26117
21
-3.80058
0
LINE
8
BLACK
6
CONTINUOUS
10
6.26117
20
-3.80058
11
6.2603
21
-3.79928
0
LINE
8
BLACK
6
CONTINUOUS
10
6.2603
20
-3.79928
11
6.26
21
-3.79775
0
LINE
8
BLACK
6
CONTINUOUS
10
6.26
20
-3.79775
11
6.26
21
-3.73275
0
LINE
8
BLACK
6
CONTINUOUS
10
6.26
20
-3.73275
11
6.2603
21
-3.73122
0
LINE
8
BLACK
6
CONTINUOUS
10
6.2603
20
-3.73122
11
6.26117
21
-3.72992
0
LINE
8
BLACK
6
CONTINUOUS
10
6.26117
20
-3.72992
11
6.26247
21
-3.72905
0
LINE
8
BLACK
6
CONTINUOUS
10
6.26247
20
-3.72905
11
6.264
21
-3.72875
0
LINE
8
BLACK
6
CONTINUOUS
10
6.264
20
-3.72875
11
6.329
21
-3.72875
0
LINE
8
BLACK
6
CONTINUOUS
10
6.329
20
-3.72875
11
6.33053
21
-3.72905
0
LINE
8
BLACK
6
CONTINUOUS
10
5.43053
20
-3.6978
11
5.43183
21
-3.69867
0
LINE
8
BLACK
6
CONTINUOUS
10
5.43183
20
-3.69867
11
5.4327
21
-3.69997
0
LINE
8
BLACK
6
CONTINUOUS
10
5.4327
20
-3.69997
11
5.433
21
-3.7015
0
LINE
8
BLACK
6
CONTINUOUS
10
5.433
20
-3.7015
11
5.433
21
-3.7665
0
LINE
8
BLACK
6
CONTINUOUS
10
5.433
20
-3.7665
11
5.4327
21
-3.76803
0
LINE
8
BLACK
6
CONTINUOUS
10
5.4327
20
-3.76803
11
5.43183
21
-3.76933
0
LINE
8
BLACK
6
CONTINUOUS
10
5.43183
20
-3.76933
11
5.43053
21
-3.7702
0
LINE
8
BLACK
6
CONTINUOUS
10
5.43053
20
-3.7702
11
5.429
21
-3.7705
0
LINE
8
BLACK
6
CONTINUOUS
10
5.429
20
-3.7705
11
5.364
21
-3.7705
0
LINE
8
BLACK
6
CONTINUOUS
10
5.364
20
-3.7705
11
5.36247
21
-3.7702
0
LINE
8
BLACK
6
CONTINUOUS
10
5.36247
20
-3.7702
11
5.36117
21
-3.76933
0
LINE
8
BLACK
6
CONTINUOUS
10
5.36117
20
-3.76933
11
5.3603
21
-3.76803
0
LINE
8
BLACK
6
CONTINUOUS
10
5.3603
20
-3.76803
11
5.36
21
-3.7665
0
LINE
8
BLACK
6
CONTINUOUS
10
5.36
20
-3.7665
11
5.36
21
-3.7015
0
LINE
8
BLACK
6
CONTINUOUS
10
5.36
20
-3.7015
11
5.3603
21
-3.69997
0
LINE
8
BLACK
6
CONTINUOUS
10
5.3603
20
-3.69997
11
5.36117
21
-3.69867
0
LINE
8
BLACK
6
CONTINUOUS
10
5.36117
20
-3.69867
11
5.36247
21
-3.6978
0
LINE
8
BLACK
6
CONTINUOUS
10
5.36247
20
-3.6978
11
5.364
21
-3.6975
0
LINE
8
BLACK
6
CONTINUOUS
10
5.364
20
-3.6975
11
5.429
21
-3.6975
0
LINE
8
BLACK
6
CONTINUOUS
10
5.429
20
-3.6975
11
5.43053
21
-3.6978
0
LINE
8
BLACK
6
CONTINUOUS
10
5.53053
20
-3.6978
11
5.53183
21
-3.69867
0
LINE
8
BLACK
6
CONTINUOUS
10
5.53183
20
-3.69867
11
5.5327
21
-3.69997
0
LINE
8
BLACK
6
CONTINUOUS
10
5.5327
20
-3.69997
11
5.533
21
-3.7015
0
LINE
8
BLACK
6
CONTINUOUS
10
5.533
20
-3.7015
11
5.533
21
-3.7665
0
LINE
8
BLACK
6
CONTINUOUS
10
5.533
20
-3.7665
11
5.5327
21
-3.76803
0
LINE
8
BLACK
6
CONTINUOUS
10
5.5327
20
-3.76803
11
5.53183
21
-3.76933
0
LINE
8
BLACK
6
CONTINUOUS
10
5.53183
20
-3.76933
11
5.53053
21
-3.7702
0
LINE
8
BLACK
6
CONTINUOUS
10
5.53053
20
-3.7702
11
5.529
21
-3.7705
0
LINE
8
BLACK
6
CONTINUOUS
10
5.529
20
-3.7705
11
5.464
21
-3.7705
0
LINE
8
BLACK
6
CONTINUOUS
10
5.464
20
-3.7705
11
5.46247
21
-3.7702
0
LINE
8
BLACK
6
CONTINUOUS
10
5.46247
20
-3.7702
11
5.46117
21
-3.76933
0
LINE
8
BLACK
6
CONTINUOUS
10
5.46117
20
-3.76933
11
5.4603
21
-3.76803
0
LINE
8
BLACK
6
CONTINUOUS
10
5.4603
20
-3.76803
11
5.46
21
-3.7665
0
LINE
8
BLACK
6
CONTINUOUS
10
5.46
20
-3.7665
11
5.46
21
-3.7015
0
LINE
8
BLACK
6
CONTINUOUS
10
5.46
20
-3.7015
11
5.4603
21
-3.69997
0
LINE
8
BLACK
6
CONTINUOUS
10
5.4603
20
-3.69997
11
5.46117
21
-3.69867
0
LINE
8
BLACK
6
CONTINUOUS
10
5.46117
20
-3.69867
11
5.46247
21
-3.6978
0
LINE
8
BLACK
6
CONTINUOUS
10
5.46247
20
-3.6978
11
5.464
21
-3.6975
0
LINE
8
BLACK
6
CONTINUOUS
10
5.464
20
-3.6975
11
5.529
21
-3.6975
0
LINE
8
BLACK
6
CONTINUOUS
10
5.529
20
-3.6975
11
5.53053
21
-3.6978
0
LINE
8
BLACK
6
CONTINUOUS
10
5.45381
20
-3.4032
11
5.4679
21
-3.40476
0
LINE
8
BLACK
6
CONTINUOUS
10
5.4679
20
-3.40476
11
5.48173
21
-3.40783
0
LINE
8
BLACK
6
CONTINUOUS
10
5.48173
20
-3.40783
11
5.49515
21
-3.41237
0
LINE
8
BLACK
6
CONTINUOUS
10
5.49515
20
-3.41237
11
5.508
21
-3.41833
0
LINE
8
BLACK
6
CONTINUOUS
10
5.508
20
-3.41833
11
5.52013
21
-3.42565
0
LINE
8
BLACK
6
CONTINUOUS
10
5.52013
20
-3.42565
11
5.5314
21
-3.43424
0
LINE
8
BLACK
6
CONTINUOUS
10
5.5314
20
-3.43424
11
5.54168
21
-3.44399
0
LINE
8
BLACK
6
CONTINUOUS
10
5.54168
20
-3.44399
11
5.55085
21
-3.4548
0
LINE
8
BLACK
6
CONTINUOUS
10
5.55085
20
-3.4548
11
5.55879
21
-3.46653
0
LINE
8
BLACK
6
CONTINUOUS
10
5.55879
20
-3.46653
11
5.56542
21
-3.47905
0
LINE
8
BLACK
6
CONTINUOUS
10
5.56542
20
-3.47905
11
5.57066
21
-3.49222
0
LINE
8
BLACK
6
CONTINUOUS
10
5.57066
20
-3.49222
11
5.57444
21
-3.50587
0
LINE
8
BLACK
6
CONTINUOUS
10
5.57444
20
-3.50587
11
5.57673
21
-3.51985
0
LINE
8
BLACK
6
CONTINUOUS
10
5.57673
20
-3.51985
11
5.5775
21
-3.534
0
LINE
8
BLACK
6
CONTINUOUS
10
5.5775
20
-3.534
11
5.5775
21
-3.53491
0
LINE
8
BLACK
6
CONTINUOUS
10
5.5775
20
-3.53491
11
5.57663
21
-3.54906
0
LINE
8
BLACK
6
CONTINUOUS
10
5.57663
20
-3.54906
11
5.57424
21
-3.56302
0
LINE
8
BLACK
6
CONTINUOUS
10
5.57424
20
-3.56302
11
5.57036
21
-3.57665
0
LINE
8
BLACK
6
CONTINUOUS
10
5.57036
20
-3.57665
11
5.56503
21
-3.58978
0
LINE
8
BLACK
6
CONTINUOUS
10
5.56503
20
-3.58978
11
5.55832
21
-3.60225
0
LINE
8
BLACK
6
CONTINUOUS
10
5.55832
20
-3.60225
11
5.55029
21
-3.61393
0
LINE
8
BLACK
6
CONTINUOUS
10
5.55029
20
-3.61393
11
5.54105
21
-3.62467
0
LINE
8
BLACK
6
CONTINUOUS
10
5.54105
20
-3.62467
11
5.53071
21
-3.63435
0
LINE
8
BLACK
6
CONTINUOUS
10
5.53071
20
-3.63435
11
5.51937
21
-3.64286
0
LINE
8
BLACK
6
CONTINUOUS
10
5.51937
20
-3.64286
11
5.50719
21
-3.65009
0
LINE
8
BLACK
6
CONTINUOUS
10
5.50719
20
-3.65009
11
5.4943
21
-3.65597
0
LINE
8
BLACK
6
CONTINUOUS
10
5.4943
20
-3.65597
11
5.48085
21
-3.66042
0
LINE
8
BLACK
6
CONTINUOUS
10
5.48085
20
-3.66042
11
5.46699
21
-3.66339
0
LINE
8
BLACK
6
CONTINUOUS
10
5.46699
20
-3.66339
11
5.4529
21
-3.66484
0
LINE
8
BLACK
6
CONTINUOUS
10
5.4529
20
-3.66484
11
5.43873
21
-3.66477
0
LINE
8
BLACK
6
CONTINUOUS
10
5.43873
20
-3.66477
11
5.42465
21
-3.66317
0
LINE
8
BLACK
6
CONTINUOUS
10
5.42465
20
-3.66317
11
5.41083
21
-3.66005
0
LINE
8
BLACK
6
CONTINUOUS
10
5.41083
20
-3.66005
11
5.39743
21
-3.65546
0
LINE
8
BLACK
6
CONTINUOUS
10
5.39743
20
-3.65546
11
5.3846
21
-3.64945
0
LINE
8
BLACK
6
CONTINUOUS
10
5.3846
20
-3.64945
11
5.37249
21
-3.64209
0
LINE
8
BLACK
6
CONTINUOUS
10
5.37249
20
-3.64209
11
5.36125
21
-3.63346
0
LINE
8
BLACK
6
CONTINUOUS
10
5.36125
20
-3.63346
11
5.35101
21
-3.62368
0
LINE
8
BLACK
6
CONTINUOUS
10
5.35101
20
-3.62368
11
5.34188
21
-3.61284
0
LINE
8
BLACK
6
CONTINUOUS
10
5.34188
20
-3.61284
11
5.33398
21
-3.60108
0
LINE
8
BLACK
6
CONTINUOUS
10
5.33398
20
-3.60108
11
5.32739
21
-3.58853
0
LINE
8
BLACK
6
CONTINUOUS
10
5.32739
20
-3.58853
11
5.3222
21
-3.57535
0
LINE
8
BLACK
6
CONTINUOUS
10
5.3222
20
-3.57535
11
5.31846
21
-3.56168
0
LINE
8
BLACK
6
CONTINUOUS
10
5.31846
20
-3.56168
11
5.31622
21
-3.54769
0
LINE
8
BLACK
6
CONTINUOUS
10
5.31622
20
-3.54769
11
5.3155
21
-3.53354
0
LINE
8
BLACK
6
CONTINUOUS
10
5.3155
20
-3.53354
11
5.31632
21
-3.5194
0
LINE
8
BLACK
6
CONTINUOUS
10
5.31632
20
-3.5194
11
5.31865
21
-3.50542
0
LINE
8
BLACK
6
CONTINUOUS
10
5.31865
20
-3.50542
11
5.32249
21
-3.49178
0
LINE
8
BLACK
6
CONTINUOUS
10
5.32249
20
-3.49178
11
5.32777
21
-3.47864
0
LINE
8
BLACK
6
CONTINUOUS
10
5.32777
20
-3.47864
11
5.33445
21
-3.46614
0
LINE
8
BLACK
6
CONTINUOUS
10
5.33445
20
-3.46614
11
5.34243
21
-3.45443
0
LINE
8
BLACK
6
CONTINUOUS
10
5.34243
20
-3.45443
11
5.35163
21
-3.44366
0
LINE
8
BLACK
6
CONTINUOUS
10
5.35163
20
-3.44366
11
5.36195
21
-3.43394
0
LINE
8
BLACK
6
CONTINUOUS
10
5.36195
20
-3.43394
11
5.37325
21
-3.4254
0
LINE
8
BLACK
6
CONTINUOUS
10
5.37325
20
-3.4254
11
5.3854
21
-3.41812
0
LINE
8
BLACK
6
CONTINUOUS
10
5.3854
20
-3.41812
11
5.39828
21
-3.4122
0
LINE
8
BLACK
6
CONTINUOUS
10
5.39828
20
-3.4122
11
5.41171
21
-3.4077
0
LINE
8
BLACK
6
CONTINUOUS
10
5.41171
20
-3.4077
11
5.42556
21
-3.40469
0
LINE
8
BLACK
6
CONTINUOUS
10
5.42556
20
-3.40469
11
5.43964
21
-3.40318
0
LINE
8
BLACK
6
CONTINUOUS
10
5.43964
20
-3.40318
11
5.45381
21
-3.4032
0
LINE
8
BLACK
6
CONTINUOUS
10
6.25381
20
-3.4032
11
6.2679
21
-3.40476
0
LINE
8
BLACK
6
CONTINUOUS
10
6.2679
20
-3.40476
11
6.28173
21
-3.40783
0
LINE
8
BLACK
6
CONTINUOUS
10
6.28173
20
-3.40783
11
6.29515
21
-3.41237
0
LINE
8
BLACK
6
CONTINUOUS
10
6.29515
20
-3.41237
11
6.308
21
-3.41833
0
LINE
8
BLACK
6
CONTINUOUS
10
6.308
20
-3.41833
11
6.32013
21
-3.42565
0
LINE
8
BLACK
6
CONTINUOUS
10
6.32013
20
-3.42565
11
6.3314
21
-3.43424
0
LINE
8
BLACK
6
CONTINUOUS
10
6.3314
20
-3.43424
11
6.34168
21
-3.44399
0
LINE
8
BLACK
6
CONTINUOUS
10
6.34168
20
-3.44399
11
6.35085
21
-3.4548
0
LINE
8
BLACK
6
CONTINUOUS
10
6.35085
20
-3.4548
11
6.35879
21
-3.46653
0
LINE
8
BLACK
6
CONTINUOUS
10
6.35879
20
-3.46653
11
6.36542
21
-3.47905
0
LINE
8
BLACK
6
CONTINUOUS
10
6.36542
20
-3.47905
11
6.37066
21
-3.49222
0
LINE
8
BLACK
6
CONTINUOUS
10
6.37066
20
-3.49222
11
6.37444
21
-3.50587
0
LINE
8
BLACK
6
CONTINUOUS
10
6.37444
20
-3.50587
11
6.37673
21
-3.51985
0
LINE
8
BLACK
6
CONTINUOUS
10
6.37673
20
-3.51985
11
6.3775
21
-3.534
0
LINE
8
BLACK
6
CONTINUOUS
10
6.3775
20
-3.534
11
6.3775
21
-3.53491
0
LINE
8
BLACK
6
CONTINUOUS
10
6.3775
20
-3.53491
11
6.37663
21
-3.54906
0
LINE
8
BLACK
6
CONTINUOUS
10
6.37663
20
-3.54906
11
6.37424
21
-3.56302
0
LINE
8
BLACK
6
CONTINUOUS
10
6.37424
20
-3.56302
11
6.37036
21
-3.57665
0
LINE
8
BLACK
6
CONTINUOUS
10
6.37036
20
-3.57665
11
6.36503
21
-3.58978
0
LINE
8
BLACK
6
CONTINUOUS
10
6.36503
20
-3.58978
11
6.35832
21
-3.60225
0
LINE
8
BLACK
6
CONTINUOUS
10
6.35832
20
-3.60225
11
6.35029
21
-3.61393
0
LINE
8
BLACK
6
CONTINUOUS
10
6.35029
20
-3.61393
11
6.34105
21
-3.62467
0
LINE
8
BLACK
6
CONTINUOUS
10
6.34105
20
-3.62467
11
6.33071
21
-3.63435
0
LINE
8
BLACK
6
CONTINUOUS
10
6.33071
20
-3.63435
11
6.31937
21
-3.64286
0
LINE
8
BLACK
6
CONTINUOUS
10
6.31937
20
-3.64286
11
6.30719
21
-3.65009
0
LINE
8
BLACK
6
CONTINUOUS
10
6.30719
20
-3.65009
11
6.2943
21
-3.65597
0
LINE
8
BLACK
6
CONTINUOUS
10
6.2943
20
-3.65597
11
6.28085
21
-3.66042
0
LINE
8
BLACK
6
CONTINUOUS
10
6.28085
20
-3.66042
11
6.26699
21
-3.66339
0
LINE
8
BLACK
6
CONTINUOUS
10
6.26699
20
-3.66339
11
6.2529
21
-3.66484
0
LINE
8
BLACK
6
CONTINUOUS
10
6.2529
20
-3.66484
11
6.23873
21
-3.66477
0
LINE
8
BLACK
6
CONTINUOUS
10
6.23873
20
-3.66477
11
6.22465
21
-3.66317
0
LINE
8
BLACK
6
CONTINUOUS
10
6.22465
20
-3.66317
11
6.21083
21
-3.66005
0
LINE
8
BLACK
6
CONTINUOUS
10
6.21083
20
-3.66005
11
6.19743
21
-3.65546
0
LINE
8
BLACK
6
CONTINUOUS
10
6.19743
20
-3.65546
11
6.1846
21
-3.64945
0
LINE
8
BLACK
6
CONTINUOUS
10
6.1846
20
-3.64945
11
6.17249
21
-3.64209
0
LINE
8
BLACK
6
CONTINUOUS
10
6.17249
20
-3.64209
11
6.16125
21
-3.63346
0
LINE
8
BLACK
6
CONTINUOUS
10
6.16125
20
-3.63346
11
6.15101
21
-3.62368
0
LINE
8
BLACK
6
CONTINUOUS
10
6.15101
20
-3.62368
11
6.14188
21
-3.61284
0
LINE
8
BLACK
6
CONTINUOUS
10
6.14188
20
-3.61284
11
6.13398
21
-3.60108
0
LINE
8
BLACK
6
CONTINUOUS
10
6.13398
20
-3.60108
11
6.12739
21
-3.58853
0
LINE
8
BLACK
6
CONTINUOUS
10
6.12739
20
-3.58853
11
6.1222
21
-3.57535
0
LINE
8
BLACK
6
CONTINUOUS
10
6.1222
20
-3.57535
11
6.11846
21
-3.56168
0
LINE
8
BLACK
6
CONTINUOUS
10
6.11846
20
-3.56168
11
6.11622
21
-3.54769
0
LINE
8
BLACK
6
CONTINUOUS
10
6.11622
20
-3.54769
11
6.1155
21
-3.53354
0
LINE
8
BLACK
6
CONTINUOUS
10
6.1155
20
-3.53354
11
6.11632
21
-3.5194
0
LINE
8
BLACK
6
CONTINUOUS
10
6.11632
20
-3.5194
11
6.11865
21
-3.50542
0
LINE
8
BLACK
6
CONTINUOUS
10
6.11865
20
-3.50542
11
6.12249
21
-3.49178
0
LINE
8
BLACK
6
CONTINUOUS
10
6.12249
20
-3.49178
11
6.12777
21
-3.47864
0
LINE
8
BLACK
6
CONTINUOUS
10
6.12777
20
-3.47864
11
6.13445
21
-3.46614
0
LINE
8
BLACK
6
CONTINUOUS
10
6.13445
20
-3.46614
11
6.14243
21
-3.45443
0
LINE
8
BLACK
6
CONTINUOUS
10
6.14243
20
-3.45443
11
6.15163
21
-3.44366
0
LINE
8
BLACK
6
CONTINUOUS
10
6.15163
20
-3.44366
11
6.16195
21
-3.43394
0
LINE
8
BLACK
6
CONTINUOUS
10
6.16195
20
-3.43394
11
6.17325
21
-3.4254
0
LINE
8
BLACK
6
CONTINUOUS
10
6.17325
20
-3.4254
11
6.1854
21
-3.41812
0
LINE
8
BLACK
6
CONTINUOUS
10
6.1854
20
-3.41812
11
6.19828
21
-3.4122
0
LINE
8
BLACK
6
CONTINUOUS
10
6.19828
20
-3.4122
11
6.21171
21
-3.4077
0
LINE
8
BLACK
6
CONTINUOUS
10
6.21171
20
-3.4077
11
6.22556
21
-3.40469
0
LINE
8
BLACK
6
CONTINUOUS
10
6.22556
20
-3.40469
11
6.23964
21
-3.40318
0
LINE
8
BLACK
6
CONTINUOUS
10
6.23964
20
-3.40318
11
6.25381
21
-3.4032
0
LINE
8
BLACK
6
CONTINUOUS
10
5.68053
20
-3.5478
11
5.68183
21
-3.54867
0
LINE
8
BLACK
6
CONTINUOUS
10
5.68183
20
-3.54867
11
5.6827
21
-3.54997
0
LINE
8
BLACK
6
CONTINUOUS
10
5.6827
20
-3.54997
11
5.683
21
-3.5515
0
LINE
8
BLACK
6
CONTINUOUS
10
5.683
20
-3.5515
11
5.683
21
-3.6165
0
LINE
8
BLACK
6
CONTINUOUS
10
5.683
20
-3.6165
11
5.6827
21
-3.61803
0
LINE
8
BLACK
6
CONTINUOUS
10
5.6827
20
-3.61803
11
5.68183
21
-3.61933
0
LINE
8
BLACK
6
CONTINUOUS
10
5.68183
20
-3.61933
11
5.68053
21
-3.6202
0
LINE
8
BLACK
6
CONTINUOUS
10
5.68053
20
-3.6202
11
5.679
21
-3.6205
0
LINE
8
BLACK
6
CONTINUOUS
10
5.679
20
-3.6205
11
5.614
21
-3.6205
0
LINE
8
BLACK
6
CONTINUOUS
10
5.614
20
-3.6205
11
5.61247
21
-3.6202
0
LINE
8
BLACK
6
CONTINUOUS
10
5.61247
20
-3.6202
11
5.61117
21
-3.61933
0
LINE
8
BLACK
6
CONTINUOUS
10
5.61117
20
-3.61933
11
5.6103
21
-3.61803
0
LINE
8
BLACK
6
CONTINUOUS
10
5.6103
20
-3.61803
11
5.61
21
-3.6165
0
LINE
8
BLACK
6
CONTINUOUS
10
5.61
20
-3.6165
11
5.61
21
-3.5515
0
LINE
8
BLACK
6
CONTINUOUS
10
5.61
20
-3.5515
11
5.6103
21
-3.54997
0
LINE
8
BLACK
6
CONTINUOUS
10
5.6103
20
-3.54997
11
5.61117
21
-3.54867
0
LINE
8
BLACK
6
CONTINUOUS
10
5.61117
20
-3.54867
11
5.61247
21
-3.5478
0
LINE
8
BLACK
6
CONTINUOUS
10
5.61247
20
-3.5478
11
5.614
21
-3.5475
0
LINE
8
BLACK
6
CONTINUOUS
10
5.614
20
-3.5475
11
5.679
21
-3.5475
0
LINE
8
BLACK
6
CONTINUOUS
10
5.679
20
-3.5475
11
5.68053
21
-3.5478
0
LINE
8
BLACK
6
CONTINUOUS
10
5.78053
20
-3.5478
11
5.78183
21
-3.54867
0
LINE
8
BLACK
6
CONTINUOUS
10
5.78183
20
-3.54867
11
5.7827
21
-3.54997
0
LINE
8
BLACK
6
CONTINUOUS
10
5.7827
20
-3.54997
11
5.783
21
-3.5515
0
LINE
8
BLACK
6
CONTINUOUS
10
5.783
20
-3.5515
11
5.783
21
-3.6165
0
LINE
8
BLACK
6
CONTINUOUS
10
5.783
20
-3.6165
11
5.7827
21
-3.61803
0
LINE
8
BLACK
6
CONTINUOUS
10
5.7827
20
-3.61803
11
5.78183
21
-3.61933
0
LINE
8
BLACK
6
CONTINUOUS
10
5.78183
20
-3.61933
11
5.78053
21
-3.6202
0
LINE
8
BLACK
6
CONTINUOUS
10
5.78053
20
-3.6202
11
5.779
21
-3.6205
0
LINE
8
BLACK
6
CONTINUOUS
10
5.779
20
-3.6205
11
5.714
21
-3.6205
0
LINE
8
BLACK
6
CONTINUOUS
10
5.714
20
-3.6205
11
5.71247
21
-3.6202
0
LINE
8
BLACK
6
CONTINUOUS
10
5.71247
20
-3.6202
11
5.71117
21
-3.61933
0
LINE
8
BLACK
6
CONTINUOUS
10
5.71117
20
-3.61933
11
5.7103
21
-3.61803
0
LINE
8
BLACK
6
CONTINUOUS
10
5.7103
20
-3.61803
11
5.71
21
-3.6165
0
LINE
8
BLACK
6
CONTINUOUS
10
5.71
20
-3.6165
11
5.71
21
-3.5515
0
LINE
8
BLACK
6
CONTINUOUS
10
5.71
20
-3.5515
11
5.7103
21
-3.54997
0
LINE
8
BLACK
6
CONTINUOUS
10
5.7103
20
-3.54997
11
5.71117
21
-3.54867
0
LINE
8
BLACK
6
CONTINUOUS
10
5.71117
20
-3.54867
11
5.71247
21
-3.5478
0
LINE
8
BLACK
6
CONTINUOUS
10
5.71247
20
-3.5478
11
5.714
21
-3.5475
0
LINE
8
BLACK
6
CONTINUOUS
10
5.714
20
-3.5475
11
5.779
21
-3.5475
0
LINE
8
BLACK
6
CONTINUOUS
10
5.779
20
-3.5475
11
5.78053
21
-3.5478
0
LINE
8
BLACK
6
CONTINUOUS
10
5.88053
20
-3.5478
11
5.88183
21
-3.54867
0
LINE
8
BLACK
6
CONTINUOUS
10
5.88183
20
-3.54867
11
5.8827
21
-3.54997
0
LINE
8
BLACK
6
CONTINUOUS
10
5.8827
20
-3.54997
11
5.883
21
-3.5515
0
LINE
8
BLACK
6
CONTINUOUS
10
5.883
20
-3.5515
11
5.883
21
-3.6165
0
LINE
8
BLACK
6
CONTINUOUS
10
5.883
20
-3.6165
11
5.8827
21
-3.61803
0
LINE
8
BLACK
6
CONTINUOUS
10
5.8827
20
-3.61803
11
5.88183
21
-3.61933
0
LINE
8
BLACK
6
CONTINUOUS
10
5.88183
20
-3.61933
11
5.88053
21
-3.6202
0
LINE
8
BLACK
6
CONTINUOUS
10
5.88053
20
-3.6202
11
5.879
21
-3.6205
0
LINE
8
BLACK
6
CONTINUOUS
10
5.879
20
-3.6205
11
5.814
21
-3.6205
0
LINE
8
BLACK
6
CONTINUOUS
10
5.814
20
-3.6205
11
5.81247
21
-3.6202
0
LINE
8
BLACK
6
CONTINUOUS
10
5.81247
20
-3.6202
11
5.81117
21
-3.61933
0
LINE
8
BLACK
6
CONTINUOUS
10
5.81117
20
-3.61933
11
5.8103
21
-3.61803
0
LINE
8
BLACK
6
CONTINUOUS
10
5.8103
20
-3.61803
11
5.81
21
-3.6165
0
LINE
8
BLACK
6
CONTINUOUS
10
5.81
20
-3.6165
11
5.81
21
-3.5515
0
LINE
8
BLACK
6
CONTINUOUS
10
5.81
20
-3.5515
11
5.8103
21
-3.54997
0
LINE
8
BLACK
6
CONTINUOUS
10
5.8103
20
-3.54997
11
5.81117
21
-3.54867
0
LINE
8
BLACK
6
CONTINUOUS
10
5.81117
20
-3.54867
11
5.81247
21
-3.5478
0
LINE
8
BLACK
6
CONTINUOUS
10
5.81247
20
-3.5478
11
5.814
21
-3.5475
0
LINE
8
BLACK
6
CONTINUOUS
10
5.814
20
-3.5475
11
5.879
21
-3.5475
0
LINE
8
BLACK
6
CONTINUOUS
10
5.879
20
-3.5475
11
5.88053
21
-3.5478
0
LINE
8
BLACK
6
CONTINUOUS
10
5.98053
20
-3.5478
11
5.98183
21
-3.54867
0
LINE
8
BLACK
6
CONTINUOUS
10
5.98183
20
-3.54867
11
5.9827
21
-3.54997
0
LINE
8
BLACK
6
CONTINUOUS
10
5.9827
20
-3.54997
11
5.983
21
-3.5515
0
LINE
8
BLACK
6
CONTINUOUS
10
5.983
20
-3.5515
11
5.983
21
-3.6165
0
LINE
8
BLACK
6
CONTINUOUS
10
5.983
20
-3.6165
11
5.9827
21
-3.61803
0
LINE
8
BLACK
6
CONTINUOUS
10
5.9827
20
-3.61803
11
5.98183
21
-3.61933
0
LINE
8
BLACK
6
CONTINUOUS
10
5.98183
20
-3.61933
11
5.98053
21
-3.6202
0
LINE
8
BLACK
6
CONTINUOUS
10
5.98053
20
-3.6202
11
5.979
21
-3.6205
0
LINE
8
BLACK
6
CONTINUOUS
10
5.979
20
-3.6205
11
5.914
21
-3.6205
0
LINE
8
BLACK
6
CONTINUOUS
10
5.914
20
-3.6205
11
5.91247
21
-3.6202
0
LINE
8
BLACK
6
CONTINUOUS
10
5.91247
20
-3.6202
11
5.91117
21
-3.61933
0
LINE
8
BLACK
6
CONTINUOUS
10
5.91117
20
-3.61933
11
5.9103
21
-3.61803
0
LINE
8
BLACK
6
CONTINUOUS
10
5.9103
20
-3.61803
11
5.91
21
-3.6165
0
LINE
8
BLACK
6
CONTINUOUS
10
5.91
20
-3.6165
11
5.91
21
-3.5515
0
LINE
8
BLACK
6
CONTINUOUS
10
5.91
20
-3.5515
11
5.9103
21
-3.54997
0
LINE
8
BLACK
6
CONTINUOUS
10
5.9103
20
-3.54997
11
5.91117
21
-3.54867
0
LINE
8
BLACK
6
CONTINUOUS
10
5.91117
20
-3.54867
11
5.91247
21
-3.5478
0
LINE
8
BLACK
6
CONTINUOUS
10
5.91247
20
-3.5478
11
5.914
21
-3.5475
0
LINE
8
BLACK
6
CONTINUOUS
10
5.914
20
-3.5475
11
5.979
21
-3.5475
0
LINE
8
BLACK
6
CONTINUOUS
10
5.979
20
-3.5475
11
5.98053
21
-3.5478
0
LINE
8
BLACK
6
CONTINUOUS
10
6.08053
20
-3.5478
11
6.08183
21
-3.54867
0
LINE
8
BLACK
6
CONTINUOUS
10
6.08183
20
-3.54867
11
6.0827
21
-3.54997
0
LINE
8
BLACK
6
CONTINUOUS
10
6.0827
20
-3.54997
11
6.083
21
-3.5515
0
LINE
8
BLACK
6
CONTINUOUS
10
6.083
20
-3.5515
11
6.083
21
-3.6165
0
LINE
8
BLACK
6
CONTINUOUS
10
6.083
20
-3.6165
11
6.0827
21
-3.61803
0
LINE
8
BLACK
6
CONTINUOUS
10
6.0827
20
-3.61803
11
6.08183
21
-3.61933
0
LINE
8
BLACK
6
CONTINUOUS
10
6.08183
20
-3.61933
11
6.08053
21
-3.6202
0
LINE
8
BLACK
6
CONTINUOUS
10
6.08053
20
-3.6202
11
6.079
21
-3.6205
0
LINE
8
BLACK
6
CONTINUOUS
10
6.079
20
-3.6205
11
6.014
21
-3.6205
0
LINE
8
BLACK
6
CONTINUOUS
10
6.014
20
-3.6205
11
6.01247
21
-3.6202
0
LINE
8
BLACK
6
CONTINUOUS
10
6.01247
20
-3.6202
11
6.01117
21
-3.61933
0
LINE
8
BLACK
6
CONTINUOUS
10
6.01117
20
-3.61933
11
6.0103
21
-3.61803
0
LINE
8
BLACK
6
CONTINUOUS
10
6.0103
20
-3.61803
11
6.01
21
-3.6165
0
LINE
8
BLACK
6
CONTINUOUS
10
6.01
20
-3.6165
11
6.01
21
-3.5515
0
LINE
8
BLACK
6
CONTINUOUS
10
6.01
20
-3.5515
11
6.0103
21
-3.54997
0
LINE
8
BLACK
6
CONTINUOUS
10
6.0103
20
-3.54997
11
6.01117
21
-3.54867
0
LINE
8
BLACK
6
CONTINUOUS
10
6.01117
20
-3.54867
11
6.01247
21
-3.5478
0
LINE
8
BLACK
6
CONTINUOUS
10
6.01247
20
-3.5478
11
6.014
21
-3.5475
0
LINE
8
BLACK
6
CONTINUOUS
10
6.014
20
-3.5475
11
6.079
21
-3.5475
0
LINE
8
BLACK
6
CONTINUOUS
10
6.079
20
-3.5475
11
6.08053
21
-3.5478
0
LINE
8
BLACK
6
CONTINUOUS
10
5.68053
20
-3.4478
11
5.68183
21
-3.44867
0
LINE
8
BLACK
6
CONTINUOUS
10
5.68183
20
-3.44867
11
5.6827
21
-3.44997
0
LINE
8
BLACK
6
CONTINUOUS
10
5.6827
20
-3.44997
11
5.683
21
-3.4515
0
LINE
8
BLACK
6
CONTINUOUS
10
5.683
20
-3.4515
11
5.683
21
-3.5165
0
LINE
8
BLACK
6
CONTINUOUS
10
5.683
20
-3.5165
11
5.6827
21
-3.51803
0
LINE
8
BLACK
6
CONTINUOUS
10
5.6827
20
-3.51803
11
5.68183
21
-3.51933
0
LINE
8
BLACK
6
CONTINUOUS
10
5.68183
20
-3.51933
11
5.68053
21
-3.5202
0
LINE
8
BLACK
6
CONTINUOUS
10
5.68053
20
-3.5202
11
5.679
21
-3.5205
0
LINE
8
BLACK
6
CONTINUOUS
10
5.679
20
-3.5205
11
5.614
21
-3.5205
0
LINE
8
BLACK
6
CONTINUOUS
10
5.614
20
-3.5205
11
5.61247
21
-3.5202
0
LINE
8
BLACK
6
CONTINUOUS
10
5.61247
20
-3.5202
11
5.61117
21
-3.51933
0
LINE
8
BLACK
6
CONTINUOUS
10
5.61117
20
-3.51933
11
5.6103
21
-3.51803
0
LINE
8
BLACK
6
CONTINUOUS
10
5.6103
20
-3.51803
11
5.61
21
-3.5165
0
LINE
8
BLACK
6
CONTINUOUS
10
5.61
20
-3.5165
11
5.61
21
-3.4515
0
LINE
8
BLACK
6
CONTINUOUS
10
5.61
20
-3.4515
11
5.6103
21
-3.44997
0
LINE
8
BLACK
6
CONTINUOUS
10
5.6103
20
-3.44997
11
5.61117
21
-3.44867
0
LINE
8
BLACK
6
CONTINUOUS
10
5.61117
20
-3.44867
11
5.61247
21
-3.4478
0
LINE
8
BLACK
6
CONTINUOUS
10
5.61247
20
-3.4478
11
5.614
21
-3.4475
0
LINE
8
BLACK
6
CONTINUOUS
10
5.614
20
-3.4475
11
5.679
21
-3.4475
0
LINE
8
BLACK
6
CONTINUOUS
10
5.679
20
-3.4475
11
5.68053
21
-3.4478
0
LINE
8
BLACK
6
CONTINUOUS
10
5.78053
20
-3.4478
11
5.78183
21
-3.44867
0
LINE
8
BLACK
6
CONTINUOUS
10
5.78183
20
-3.44867
11
5.7827
21
-3.44997
0
LINE
8
BLACK
6
CONTINUOUS
10
5.7827
20
-3.44997
11
5.783
21
-3.4515
0
LINE
8
BLACK
6
CONTINUOUS
10
5.783
20
-3.4515
11
5.783
21
-3.5165
0
LINE
8
BLACK
6
CONTINUOUS
10
5.783
20
-3.5165
11
5.7827
21
-3.51803
0
LINE
8
BLACK
6
CONTINUOUS
10
5.7827
20
-3.51803
11
5.78183
21
-3.51933
0
LINE
8
BLACK
6
CONTINUOUS
10
5.78183
20
-3.51933
11
5.78053
21
-3.5202
0
LINE
8
BLACK
6
CONTINUOUS
10
5.78053
20
-3.5202
11
5.779
21
-3.5205
0
LINE
8
BLACK
6
CONTINUOUS
10
5.779
20
-3.5205
11
5.714
21
-3.5205
0
LINE
8
BLACK
6
CONTINUOUS
10
5.714
20
-3.5205
11
5.71247
21
-3.5202
0
LINE
8
BLACK
6
CONTINUOUS
10
5.71247
20
-3.5202
11
5.71117
21
-3.51933
0
LINE
8
BLACK
6
CONTINUOUS
10
5.71117
20
-3.51933
11
5.7103
21
-3.51803
0
LINE
8
BLACK
6
CONTINUOUS
10
5.7103
20
-3.51803
11
5.71
21
-3.5165
0
LINE
8
BLACK
6
CONTINUOUS
10
5.71
20
-3.5165
11
5.71
21
-3.4515
0
LINE
8
BLACK
6
CONTINUOUS
10
5.71
20
-3.4515
11
5.7103
21
-3.44997
0
LINE
8
BLACK
6
CONTINUOUS
10
5.7103
20
-3.44997
11
5.71117
21
-3.44867
0
LINE
8
BLACK
6
CONTINUOUS
10
5.71117
20
-3.44867
11
5.71247
21
-3.4478
0
LINE
8
BLACK
6
CONTINUOUS
10
5.71247
20
-3.4478
11
5.714
21
-3.4475
0
LINE
8
BLACK
6
CONTINUOUS
10
5.714
20
-3.4475
11
5.779
21
-3.4475
0
LINE
8
BLACK
6
CONTINUOUS
10
5.779
20
-3.4475
11
5.78053
21
-3.4478
0
LINE
8
BLACK
6
CONTINUOUS
10
5.88053
20
-3.4478
11
5.88183
21
-3.44867
0
LINE
8
BLACK
6
CONTINUOUS
10
5.88183
20
-3.44867
11
5.8827
21
-3.44997
0
LINE
8
BLACK
6
CONTINUOUS
10
5.8827
20
-3.44997
11
5.883
21
-3.4515
0
LINE
8
BLACK
6
CONTINUOUS
10
5.883
20
-3.4515
11
5.883
21
-3.5165
0
LINE
8
BLACK
6
CONTINUOUS
10
5.883
20
-3.5165
11
5.8827
21
-3.51803
0
LINE
8
BLACK
6
CONTINUOUS
10
5.8827
20
-3.51803
11
5.88183
21
-3.51933
0
LINE
8
BLACK
6
CONTINUOUS
10
5.88183
20
-3.51933
11
5.88053
21
-3.5202
0
LINE
8
BLACK
6
CONTINUOUS
10
5.88053
20
-3.5202
11
5.879
21
-3.5205
0
LINE
8
BLACK
6
CONTINUOUS
10
5.879
20
-3.5205
11
5.814
21
-3.5205
0
LINE
8
BLACK
6
CONTINUOUS
10
5.814
20
-3.5205
11
5.81247
21
-3.5202
0
LINE
8
BLACK
6
CONTINUOUS
10
5.81247
20
-3.5202
11
5.81117
21
-3.51933
0
LINE
8
BLACK
6
CONTINUOUS
10
5.81117
20
-3.51933
11
5.8103
21
-3.51803
0
LINE
8
BLACK
6
CONTINUOUS
10
5.8103
20
-3.51803
11
5.81
21
-3.5165
0
LINE
8
BLACK
6
CONTINUOUS
10
5.81
20
-3.5165
11
5.81
21
-3.4515
0
LINE
8
BLACK
6
CONTINUOUS
10
5.81
20
-3.4515
11
5.8103
21
-3.44997
0
LINE
8
BLACK
6
CONTINUOUS
10
5.8103
20
-3.44997
11
5.81117
21
-3.44867
0
LINE
8
BLACK
6
CONTINUOUS
10
5.81117
20
-3.44867
11
5.81247
21
-3.4478
0
LINE
8
BLACK
6
CONTINUOUS
10
5.81247
20
-3.4478
11
5.814
21
-3.4475
0
LINE
8
BLACK
6
CONTINUOUS
10
5.814
20
-3.4475
11
5.879
21
-3.4475
0
LINE
8
BLACK
6
CONTINUOUS
10
5.879
20
-3.4475
11
5.88053
21
-3.4478
0
LINE
8
BLACK
6
CONTINUOUS
10
5.98053
20
-3.4478
11
5.98183
21
-3.44867
0
LINE
8
BLACK
6
CONTINUOUS
10
5.98183
20
-3.44867
11
5.9827
21
-3.44997
0
LINE
8
BLACK
6
CONTINUOUS
10
5.9827
20
-3.44997
11
5.983
21
-3.4515
0
LINE
8
BLACK
6
CONTINUOUS
10
5.983
20
-3.4515
11
5.983
21
-3.5165
0
LINE
8
BLACK
6
CONTINUOUS
10
5.983
20
-3.5165
11
5.9827
21
-3.51803
0
LINE
8
BLACK
6
CONTINUOUS
10
5.9827
20
-3.51803
11
5.98183
21
-3.51933
0
LINE
8
BLACK
6
CONTINUOUS
10
5.98183
20
-3.51933
11
5.98053
21
-3.5202
0
LINE
8
BLACK
6
CONTINUOUS
10
5.98053
20
-3.5202
11
5.979
21
-3.5205
0
LINE
8
BLACK
6
CONTINUOUS
10
5.979
20
-3.5205
11
5.914
21
-3.5205
0
LINE
8
BLACK
6
CONTINUOUS
10
5.914
20
-3.5205
11
5.91247
21
-3.5202
0
LINE
8
BLACK
6
CONTINUOUS
10
5.91247
20
-3.5202
11
5.91117
21
-3.51933
0
LINE
8
BLACK
6
CONTINUOUS
10
5.91117
20
-3.51933
11
5.9103
21
-3.51803
0
LINE
8
BLACK
6
CONTINUOUS
10
5.9103
20
-3.51803
11
5.91
21
-3.5165
0
LINE
8
BLACK
6
CONTINUOUS
10
5.91
20
-3.5165
11
5.91
21
-3.4515
0
LINE
8
BLACK
6
CONTINUOUS
10
5.91
20
-3.4515
11
5.9103
21
-3.44997
0
LINE
8
BLACK
6
CONTINUOUS
10
5.9103
20
-3.44997
11
5.91117
21
-3.44867
0
LINE
8
BLACK
6
CONTINUOUS
10
5.91117
20
-3.44867
11
5.91247
21
-3.4478
0
LINE
8
BLACK
6
CONTINUOUS
10
5.91247
20
-3.4478
11
5.914
21
-3.4475
0
LINE
8
BLACK
6
CONTINUOUS
10
5.914
20
-3.4475
11
5.979
21
-3.4475
0
LINE
8
BLACK
6
CONTINUOUS
10
5.979
20
-3.4475
11
5.98053
21
-3.4478
0
LINE
8
BLACK
6
CONTINUOUS
10
6.08053
20
-3.4478
11
6.08183
21
-3.44867
0
LINE
8
BLACK
6
CONTINUOUS
10
6.08183
20
-3.44867
11
6.0827
21
-3.44997
0
LINE
8
BLACK
6
CONTINUOUS
10
6.0827
20
-3.44997
11
6.083
21
-3.4515
0
LINE
8
BLACK
6
CONTINUOUS
10
6.083
20
-3.4515
11
6.083
21
-3.5165
0
LINE
8
BLACK
6
CONTINUOUS
10
6.083
20
-3.5165
11
6.0827
21
-3.51803
0
LINE
8
BLACK
6
CONTINUOUS
10
6.0827
20
-3.51803
11
6.08183
21
-3.51933
0
LINE
8
BLACK
6
CONTINUOUS
10
6.08183
20
-3.51933
11
6.08053
21
-3.5202
0
LINE
8
BLACK
6
CONTINUOUS
10
6.08053
20
-3.5202
11
6.079
21
-3.5205
0
LINE
8
BLACK
6
CONTINUOUS
10
6.079
20
-3.5205
11
6.014
21
-3.5205
0
LINE
8
BLACK
6
CONTINUOUS
10
6.014
20
-3.5205
11
6.01247
21
-3.5202
0
LINE
8
BLACK
6
CONTINUOUS
10
6.01247
20
-3.5202
11
6.01117
21
-3.51933
0
LINE
8
BLACK
6
CONTINUOUS
10
6.01117
20
-3.51933
11
6.0103
21
-3.51803
0
LINE
8
BLACK
6
CONTINUOUS
10
6.0103
20
-3.51803
11
6.01
21
-3.5165
0
LINE
8
BLACK
6
CONTINUOUS
10
6.01
20
-3.5165
11
6.01
21
-3.4515
0
LINE
8
BLACK
6
CONTINUOUS
10
6.01
20
-3.4515
11
6.0103
21
-3.44997
0
LINE
8
BLACK
6
CONTINUOUS
10
6.0103
20
-3.44997
11
6.01117
21
-3.44867
0
LINE
8
BLACK
6
CONTINUOUS
10
6.01117
20
-3.44867
11
6.01247
21
-3.4478
0
LINE
8
BLACK
6
CONTINUOUS
10
6.01247
20
-3.4478
11
6.014
21
-3.4475
0
LINE
8
BLACK
6
CONTINUOUS
10
6.014
20
-3.4475
11
6.079
21
-3.4475
0
LINE
8
BLACK
6
CONTINUOUS
10
6.079
20
-3.4475
11
6.08053
21
-3.4478
  0
ENDSEC
  0
EOF
