  0
SECTION
  2
HEADER
  9
$ANGBASE
  50
0.0
  9
$ANGDIR
  70
1
  9
$MEASUREMENT
  70
0
  0
ENDSEC
  0
SECTION
  2
TABLES
  0
TABLE
  2
LTYPE
  70
4
  0
LTYPE
  5
40F
  2
CONTINUOUS
  70
0
  3
Solid line
  72
65
  73
0
  40
0.0
  0
LTYPE
  5
410
  2
DASHDOT
 70
0
  3
Dash Dot ____ _ ____ _
 72
65
 73
4
 40
2.0
 49
1.25
 49
-0.25
 49
0.25
 49
-0.25
  0
LTYPE
  5
411
  2
DASHED
 70
0
  3
Dashed __ __ __ __ __
 72
65
 73
2
 40
0.75
 49
0.5
 49
-0.25
  0
LTYPE
  5
43B
  2
DOTTED
 70
0
  3
Dotted .  .  .  .
 72
65
 73
2
 40
0.2
 49
0.0
 49
-0.2
  0
ENDTAB
  0
TABLE
  2
STYLE
  70
4
  0
STYLE
  2
KICAD
  70
0
  40
0
  41
1
  42
1
  50
0
  71
0
  3
isocp.shx
  0
STYLE
  2
KICADB
  70
0
  40
0
  41
1
  42
1
  50
0
  71
0
  3
isocp.shx
  0
STYLE
  2
KICADI
  70
0
  40
0
  41
1
  42
1
  50
15
  71
0
  3
isocp.shx
  0
STYLE
  2
KICADBI
  70
0
  40
0
  41
1
  42
1
  50
15
  71
0
  3
isocp.shx
  0
ENDTAB
  0
TABLE
  2
LAYER
  70
1
  0
LAYER
  2
BLACK
  70
0
  62
7
  6
CONTINUOUS
  0
ENDTAB
  0
ENDSEC
  0
SECTION
  2
ENTITIES
0
LINE
8
BLACK
6
CONTINUOUS
10
5.26987
20
-4.51468
11
5.27006
21
-4.51464
0
LINE
8
BLACK
6
CONTINUOUS
10
5.27006
20
-4.51464
11
5.2705
21
-4.51494
0
LINE
8
BLACK
6
CONTINUOUS
10
5.2705
20
-4.51494
11
5.271
21
-4.51515
0
LINE
8
BLACK
6
CONTINUOUS
10
5.271
20
-4.51515
11
5.27107
21
-4.51532
0
LINE
8
BLACK
6
CONTINUOUS
10
5.27107
20
-4.51532
11
5.27123
21
-4.51543
0
LINE
8
BLACK
6
CONTINUOUS
10
5.27123
20
-4.51543
11
5.27554
21
-4.52189
0
LINE
8
BLACK
6
CONTINUOUS
10
5.27554
20
-4.52189
11
5.27961
21
-4.52596
0
LINE
8
BLACK
6
CONTINUOUS
10
5.27961
20
-4.52596
11
5.28376
21
-4.52804
0
LINE
8
BLACK
6
CONTINUOUS
10
5.28376
20
-4.52804
11
5.28468
21
-4.5291
0
LINE
8
BLACK
6
CONTINUOUS
10
5.28468
20
-4.5291
11
5.28458
21
-4.5305
0
LINE
8
BLACK
6
CONTINUOUS
10
5.28458
20
-4.5305
11
5.28351
21
-4.53143
0
LINE
8
BLACK
6
CONTINUOUS
10
5.28351
20
-4.53143
11
5.28211
21
-4.53133
0
LINE
8
BLACK
6
CONTINUOUS
10
5.28211
20
-4.53133
11
5.2777
21
-4.52912
0
LINE
8
BLACK
6
CONTINUOUS
10
5.2777
20
-4.52912
11
5.2775
21
-4.52889
0
LINE
8
BLACK
6
CONTINUOUS
10
5.2775
20
-4.52889
11
5.27722
21
-4.52878
0
LINE
8
BLACK
6
CONTINUOUS
10
5.27722
20
-4.52878
11
5.27281
21
-4.52436
0
LINE
8
BLACK
6
CONTINUOUS
10
5.27281
20
-4.52436
11
5.27274
21
-4.52419
0
LINE
8
BLACK
6
CONTINUOUS
10
5.27274
20
-4.52419
11
5.27258
21
-4.52408
0
LINE
8
BLACK
6
CONTINUOUS
10
5.27258
20
-4.52408
11
5.27154
21
-4.52252
0
LINE
8
BLACK
6
CONTINUOUS
10
5.27154
20
-4.52252
11
5.27154
21
-4.56093
0
LINE
8
BLACK
6
CONTINUOUS
10
5.27154
20
-4.56093
11
5.28293
21
-4.56093
0
LINE
8
BLACK
6
CONTINUOUS
10
5.28293
20
-4.56093
11
5.28423
21
-4.56147
0
LINE
8
BLACK
6
CONTINUOUS
10
5.28423
20
-4.56147
11
5.28477
21
-4.56277
0
LINE
8
BLACK
6
CONTINUOUS
10
5.28477
20
-4.56277
11
5.28423
21
-4.56407
0
LINE
8
BLACK
6
CONTINUOUS
10
5.28423
20
-4.56407
11
5.28293
21
-4.56461
0
LINE
8
BLACK
6
CONTINUOUS
10
5.28293
20
-4.56461
11
5.2697
21
-4.56461
0
LINE
8
BLACK
6
CONTINUOUS
10
5.2697
20
-4.56461
11
5.25646
21
-4.56461
0
LINE
8
BLACK
6
CONTINUOUS
10
5.25646
20
-4.56461
11
5.25516
21
-4.56407
0
LINE
8
BLACK
6
CONTINUOUS
10
5.25516
20
-4.56407
11
5.25462
21
-4.56277
0
LINE
8
BLACK
6
CONTINUOUS
10
5.25462
20
-4.56277
11
5.25516
21
-4.56147
0
LINE
8
BLACK
6
CONTINUOUS
10
5.25516
20
-4.56147
11
5.25646
21
-4.56093
0
LINE
8
BLACK
6
CONTINUOUS
10
5.25646
20
-4.56093
11
5.26786
21
-4.56093
0
LINE
8
BLACK
6
CONTINUOUS
10
5.26786
20
-4.56093
11
5.26786
21
-4.51645
0
LINE
8
BLACK
6
CONTINUOUS
10
5.26786
20
-4.51645
11
5.26793
21
-4.51627
0
LINE
8
BLACK
6
CONTINUOUS
10
5.26793
20
-4.51627
11
5.26789
21
-4.51609
0
LINE
8
BLACK
6
CONTINUOUS
10
5.26789
20
-4.51609
11
5.26819
21
-4.51564
0
LINE
8
BLACK
6
CONTINUOUS
10
5.26819
20
-4.51564
11
5.2684
21
-4.51515
0
LINE
8
BLACK
6
CONTINUOUS
10
5.2684
20
-4.51515
11
5.26857
21
-4.51507
0
LINE
8
BLACK
6
CONTINUOUS
10
5.26857
20
-4.51507
11
5.26868
21
-4.51492
0
LINE
8
BLACK
6
CONTINUOUS
10
5.26868
20
-4.51492
11
5.2692
21
-4.51481
0
LINE
8
BLACK
6
CONTINUOUS
10
5.2692
20
-4.51481
11
5.2697
21
-4.51461
0
LINE
8
BLACK
6
CONTINUOUS
10
5.2697
20
-4.51461
11
5.26987
21
-4.51468
0
LINE
8
BLACK
6
CONTINUOUS
10
5.32835
20
-4.51515
11
5.32889
21
-4.51645
0
LINE
8
BLACK
6
CONTINUOUS
10
5.32889
20
-4.51645
11
5.32889
21
-4.56277
0
LINE
8
BLACK
6
CONTINUOUS
10
5.32889
20
-4.56277
11
5.32835
21
-4.56407
0
LINE
8
BLACK
6
CONTINUOUS
10
5.32835
20
-4.56407
11
5.32705
21
-4.56461
0
LINE
8
BLACK
6
CONTINUOUS
10
5.32705
20
-4.56461
11
5.31602
21
-4.56461
0
LINE
8
BLACK
6
CONTINUOUS
10
5.31602
20
-4.56461
11
5.31574
21
-4.56449
0
LINE
8
BLACK
6
CONTINUOUS
10
5.31574
20
-4.56449
11
5.31544
21
-4.56451
0
LINE
8
BLACK
6
CONTINUOUS
10
5.31544
20
-4.56451
11
5.30882
21
-4.56231
0
LINE
8
BLACK
6
CONTINUOUS
10
5.30882
20
-4.56231
11
5.3085
21
-4.56203
0
LINE
8
BLACK
6
CONTINUOUS
10
5.3085
20
-4.56203
11
5.3081
21
-4.56186
0
LINE
8
BLACK
6
CONTINUOUS
10
5.3081
20
-4.56186
11
5.30369
21
-4.55745
0
LINE
8
BLACK
6
CONTINUOUS
10
5.30369
20
-4.55745
11
5.30357
21
-4.55717
0
LINE
8
BLACK
6
CONTINUOUS
10
5.30357
20
-4.55717
11
5.30334
21
-4.55697
0
LINE
8
BLACK
6
CONTINUOUS
10
5.30334
20
-4.55697
11
5.30114
21
-4.55256
0
LINE
8
BLACK
6
CONTINUOUS
10
5.30114
20
-4.55256
11
5.30112
21
-4.55235
0
LINE
8
BLACK
6
CONTINUOUS
10
5.30112
20
-4.55235
11
5.301
21
-4.55218
0
LINE
8
BLACK
6
CONTINUOUS
10
5.301
20
-4.55218
11
5.29879
21
-4.54336
0
LINE
8
BLACK
6
CONTINUOUS
10
5.29879
20
-4.54336
11
5.29883
21
-4.54313
0
LINE
8
BLACK
6
CONTINUOUS
10
5.29883
20
-4.54313
11
5.29874
21
-4.54292
0
LINE
8
BLACK
6
CONTINUOUS
10
5.29874
20
-4.54292
11
5.29874
21
-4.5363
0
LINE
8
BLACK
6
CONTINUOUS
10
5.29874
20
-4.5363
11
5.29883
21
-4.53608
0
LINE
8
BLACK
6
CONTINUOUS
10
5.29883
20
-4.53608
11
5.29879
21
-4.53585
0
LINE
8
BLACK
6
CONTINUOUS
10
5.29879
20
-4.53585
11
5.301
21
-4.52703
0
LINE
8
BLACK
6
CONTINUOUS
10
5.301
20
-4.52703
11
5.30112
21
-4.52686
0
LINE
8
BLACK
6
CONTINUOUS
10
5.30112
20
-4.52686
11
5.30114
21
-4.52665
0
LINE
8
BLACK
6
CONTINUOUS
10
5.30114
20
-4.52665
11
5.30334
21
-4.52224
0
LINE
8
BLACK
6
CONTINUOUS
10
5.30334
20
-4.52224
11
5.30357
21
-4.52204
0
LINE
8
BLACK
6
CONTINUOUS
10
5.30357
20
-4.52204
11
5.30369
21
-4.52176
0
LINE
8
BLACK
6
CONTINUOUS
10
5.30369
20
-4.52176
11
5.3081
21
-4.51735
0
LINE
8
BLACK
6
CONTINUOUS
10
5.3081
20
-4.51735
11
5.3085
21
-4.51719
0
LINE
8
BLACK
6
CONTINUOUS
10
5.3085
20
-4.51719
11
5.30882
21
-4.51691
0
LINE
8
BLACK
6
CONTINUOUS
10
5.30882
20
-4.51691
11
5.31544
21
-4.5147
0
LINE
8
BLACK
6
CONTINUOUS
10
5.31544
20
-4.5147
11
5.31574
21
-4.51472
0
LINE
8
BLACK
6
CONTINUOUS
10
5.31574
20
-4.51472
11
5.31602
21
-4.51461
0
LINE
8
BLACK
6
CONTINUOUS
10
5.31602
20
-4.51461
11
5.32705
21
-4.51461
0
LINE
8
BLACK
6
CONTINUOUS
10
5.32705
20
-4.51461
11
5.32835
21
-4.51515
0
LINE
8
BLACK
6
CONTINUOUS
10
5.31039
20
-4.52026
11
5.3065
21
-4.52415
0
LINE
8
BLACK
6
CONTINUOUS
10
5.3065
20
-4.52415
11
5.30452
21
-4.52812
0
LINE
8
BLACK
6
CONTINUOUS
10
5.30452
20
-4.52812
11
5.30242
21
-4.53652
0
LINE
8
BLACK
6
CONTINUOUS
10
5.30242
20
-4.53652
11
5.30242
21
-4.54269
0
LINE
8
BLACK
6
CONTINUOUS
10
5.30242
20
-4.54269
11
5.30452
21
-4.5511
0
LINE
8
BLACK
6
CONTINUOUS
10
5.30452
20
-4.5511
11
5.3065
21
-4.55506
0
LINE
8
BLACK
6
CONTINUOUS
10
5.3065
20
-4.55506
11
5.31039
21
-4.55895
0
LINE
8
BLACK
6
CONTINUOUS
10
5.31039
20
-4.55895
11
5.31632
21
-4.56093
0
LINE
8
BLACK
6
CONTINUOUS
10
5.31632
20
-4.56093
11
5.32521
21
-4.56093
0
LINE
8
BLACK
6
CONTINUOUS
10
5.32521
20
-4.56093
11
5.32521
21
-4.51829
0
LINE
8
BLACK
6
CONTINUOUS
10
5.32521
20
-4.51829
11
5.31632
21
-4.51829
0
LINE
8
BLACK
6
CONTINUOUS
10
5.31632
20
-4.51829
11
5.31039
21
-4.52026
0
LINE
8
BLACK
6
CONTINUOUS
10
5.4339
20
-4.49956
11
5.43463
21
-4.50132
0
LINE
8
BLACK
6
CONTINUOUS
10
5.43463
20
-4.50132
11
5.43463
21
-4.54069
0
LINE
8
BLACK
6
CONTINUOUS
10
5.43463
20
-4.54069
11
5.4339
21
-4.54246
0
LINE
8
BLACK
6
CONTINUOUS
10
5.4339
20
-4.54246
11
5.43213
21
-4.54319
0
LINE
8
BLACK
6
CONTINUOUS
10
5.43213
20
-4.54319
11
5.43036
21
-4.54246
0
LINE
8
BLACK
6
CONTINUOUS
10
5.43036
20
-4.54246
11
5.41219
21
-4.52429
0
LINE
8
BLACK
6
CONTINUOUS
10
5.41219
20
-4.52429
11
5.41219
21
-4.54069
0
LINE
8
BLACK
6
CONTINUOUS
10
5.41219
20
-4.54069
11
5.41146
21
-4.54246
0
LINE
8
BLACK
6
CONTINUOUS
10
5.41146
20
-4.54246
11
5.40969
21
-4.54319
0
LINE
8
BLACK
6
CONTINUOUS
10
5.40969
20
-4.54319
11
5.40792
21
-4.54246
0
LINE
8
BLACK
6
CONTINUOUS
10
5.40792
20
-4.54246
11
5.40719
21
-4.54069
0
LINE
8
BLACK
6
CONTINUOUS
10
5.40719
20
-4.54069
11
5.40719
21
-4.50132
0
LINE
8
BLACK
6
CONTINUOUS
10
5.40719
20
-4.50132
11
5.40792
21
-4.49956
0
LINE
8
BLACK
6
CONTINUOUS
10
5.40792
20
-4.49956
11
5.40969
21
-4.49882
0
LINE
8
BLACK
6
CONTINUOUS
10
5.40969
20
-4.49882
11
5.41146
21
-4.49956
0
LINE
8
BLACK
6
CONTINUOUS
10
5.41146
20
-4.49956
11
5.41219
21
-4.50132
0
LINE
8
BLACK
6
CONTINUOUS
10
5.41219
20
-4.50132
11
5.41219
21
-4.51773
0
LINE
8
BLACK
6
CONTINUOUS
10
5.41219
20
-4.51773
11
5.43036
21
-4.49956
0
LINE
8
BLACK
6
CONTINUOUS
10
5.43036
20
-4.49956
11
5.43213
21
-4.49882
0
LINE
8
BLACK
6
CONTINUOUS
10
5.43213
20
-4.49882
11
5.4339
21
-4.49956
0
LINE
8
BLACK
6
CONTINUOUS
10
5.41598
20
-4.52101
11
5.42963
21
-4.53466
0
LINE
8
BLACK
6
CONTINUOUS
10
5.42963
20
-4.53466
11
5.42963
21
-4.50736
0
LINE
8
BLACK
6
CONTINUOUS
10
5.42963
20
-4.50736
11
5.41598
21
-4.52101
0
LINE
8
BLACK
6
CONTINUOUS
10
5.48449
20
-4.48662
11
5.48626
21
-4.48735
0
LINE
8
BLACK
6
CONTINUOUS
10
5.48626
20
-4.48735
11
5.48699
21
-4.48912
0
LINE
8
BLACK
6
CONTINUOUS
10
5.48699
20
-4.48912
11
5.48699
21
-4.55211
0
LINE
8
BLACK
6
CONTINUOUS
10
5.48699
20
-4.55211
11
5.48626
21
-4.55388
0
LINE
8
BLACK
6
CONTINUOUS
10
5.48626
20
-4.55388
11
5.48449
21
-4.55461
0
LINE
8
BLACK
6
CONTINUOUS
10
5.48449
20
-4.55461
11
5.35851
21
-4.55461
0
LINE
8
BLACK
6
CONTINUOUS
10
5.35851
20
-4.55461
11
5.35674
21
-4.55388
0
LINE
8
BLACK
6
CONTINUOUS
10
5.35674
20
-4.55388
11
5.35601
21
-4.55211
0
LINE
8
BLACK
6
CONTINUOUS
10
5.35601
20
-4.55211
11
5.35601
21
-4.48912
0
LINE
8
BLACK
6
CONTINUOUS
10
5.35601
20
-4.48912
11
5.35674
21
-4.48735
0
LINE
8
BLACK
6
CONTINUOUS
10
5.35674
20
-4.48735
11
5.35851
21
-4.48662
0
LINE
8
BLACK
6
CONTINUOUS
10
5.35851
20
-4.48662
11
5.48449
21
-4.48662
0
LINE
8
BLACK
6
CONTINUOUS
10
5.36101
20
-4.49162
11
5.36101
21
-4.54961
0
LINE
8
BLACK
6
CONTINUOUS
10
5.36101
20
-4.54961
11
5.48199
21
-4.54961
0
LINE
8
BLACK
6
CONTINUOUS
10
5.48199
20
-4.54961
11
5.48199
21
-4.49162
0
LINE
8
BLACK
6
CONTINUOUS
10
5.48199
20
-4.49162
11
5.36101
21
-4.49162
0
LINE
8
BLACK
6
CONTINUOUS
10
5.76904
20
-4.50124
11
5.76958
21
-4.50254
0
LINE
8
BLACK
6
CONTINUOUS
10
5.76958
20
-4.50254
11
5.76958
21
-4.52901
0
LINE
8
BLACK
6
CONTINUOUS
10
5.76958
20
-4.52901
11
5.76904
21
-4.53031
0
LINE
8
BLACK
6
CONTINUOUS
10
5.76904
20
-4.53031
11
5.76774
21
-4.53085
0
LINE
8
BLACK
6
CONTINUOUS
10
5.76774
20
-4.53085
11
5.76644
21
-4.53031
0
LINE
8
BLACK
6
CONTINUOUS
10
5.76644
20
-4.53031
11
5.7659
21
-4.52901
0
LINE
8
BLACK
6
CONTINUOUS
10
5.7659
20
-4.52901
11
5.7659
21
-4.51761
0
LINE
8
BLACK
6
CONTINUOUS
10
5.7659
20
-4.51761
11
5.72142
21
-4.51761
0
LINE
8
BLACK
6
CONTINUOUS
10
5.72142
20
-4.51761
11
5.72124
21
-4.51754
0
LINE
8
BLACK
6
CONTINUOUS
10
5.72124
20
-4.51754
11
5.72106
21
-4.51758
0
LINE
8
BLACK
6
CONTINUOUS
10
5.72106
20
-4.51758
11
5.72061
21
-4.51728
0
LINE
8
BLACK
6
CONTINUOUS
10
5.72061
20
-4.51728
11
5.72012
21
-4.51707
0
LINE
8
BLACK
6
CONTINUOUS
10
5.72012
20
-4.51707
11
5.72004
21
-4.5169
0
LINE
8
BLACK
6
CONTINUOUS
10
5.72004
20
-4.5169
11
5.71989
21
-4.51679
0
LINE
8
BLACK
6
CONTINUOUS
10
5.71989
20
-4.51679
11
5.71978
21
-4.51627
0
LINE
8
BLACK
6
CONTINUOUS
10
5.71978
20
-4.51627
11
5.71958
21
-4.51577
0
LINE
8
BLACK
6
CONTINUOUS
10
5.71958
20
-4.51577
11
5.71965
21
-4.5156
0
LINE
8
BLACK
6
CONTINUOUS
10
5.71965
20
-4.5156
11
5.71961
21
-4.51541
0
LINE
8
BLACK
6
CONTINUOUS
10
5.71961
20
-4.51541
11
5.71991
21
-4.51497
0
LINE
8
BLACK
6
CONTINUOUS
10
5.71991
20
-4.51497
11
5.72012
21
-4.51447
0
LINE
8
BLACK
6
CONTINUOUS
10
5.72012
20
-4.51447
11
5.72029
21
-4.5144
0
LINE
8
BLACK
6
CONTINUOUS
10
5.72029
20
-4.5144
11
5.7204
21
-4.51424
0
LINE
8
BLACK
6
CONTINUOUS
10
5.7204
20
-4.51424
11
5.72686
21
-4.50993
0
LINE
8
BLACK
6
CONTINUOUS
10
5.72686
20
-4.50993
11
5.73093
21
-4.50586
0
LINE
8
BLACK
6
CONTINUOUS
10
5.73093
20
-4.50586
11
5.73301
21
-4.50171
0
LINE
8
BLACK
6
CONTINUOUS
10
5.73301
20
-4.50171
11
5.73407
21
-4.50079
0
LINE
8
BLACK
6
CONTINUOUS
10
5.73407
20
-4.50079
11
5.73547
21
-4.50089
0
LINE
8
BLACK
6
CONTINUOUS
10
5.73547
20
-4.50089
11
5.7364
21
-4.50196
0
LINE
8
BLACK
6
CONTINUOUS
10
5.7364
20
-4.50196
11
5.7363
21
-4.50336
0
LINE
8
BLACK
6
CONTINUOUS
10
5.7363
20
-4.50336
11
5.73409
21
-4.50777
0
LINE
8
BLACK
6
CONTINUOUS
10
5.73409
20
-4.50777
11
5.73386
21
-4.50797
0
LINE
8
BLACK
6
CONTINUOUS
10
5.73386
20
-4.50797
11
5.73375
21
-4.50825
0
LINE
8
BLACK
6
CONTINUOUS
10
5.73375
20
-4.50825
11
5.72934
21
-4.51266
0
LINE
8
BLACK
6
CONTINUOUS
10
5.72934
20
-4.51266
11
5.72916
21
-4.51273
0
LINE
8
BLACK
6
CONTINUOUS
10
5.72916
20
-4.51273
11
5.72905
21
-4.51289
0
LINE
8
BLACK
6
CONTINUOUS
10
5.72905
20
-4.51289
11
5.72749
21
-4.51393
0
LINE
8
BLACK
6
CONTINUOUS
10
5.72749
20
-4.51393
11
5.7659
21
-4.51393
0
LINE
8
BLACK
6
CONTINUOUS
10
5.7659
20
-4.51393
11
5.7659
21
-4.50254
0
LINE
8
BLACK
6
CONTINUOUS
10
5.7659
20
-4.50254
11
5.76644
21
-4.50124
0
LINE
8
BLACK
6
CONTINUOUS
10
5.76644
20
-4.50124
11
5.76774
21
-4.5007
0
LINE
8
BLACK
6
CONTINUOUS
10
5.76774
20
-4.5007
11
5.76904
21
-4.50124
0
LINE
8
BLACK
6
CONTINUOUS
10
6.06497
20
-4.45085
11
6.06514
21
-4.45084
0
LINE
8
BLACK
6
CONTINUOUS
10
6.06514
20
-4.45084
11
6.06583
21
-4.45135
0
LINE
8
BLACK
6
CONTINUOUS
10
6.06583
20
-4.45135
11
6.06658
21
-4.45178
0
LINE
8
BLACK
6
CONTINUOUS
10
6.06658
20
-4.45178
11
6.06663
21
-4.45194
0
LINE
8
BLACK
6
CONTINUOUS
10
6.06663
20
-4.45194
11
6.06677
21
-4.45204
0
LINE
8
BLACK
6
CONTINUOUS
10
6.06677
20
-4.45204
11
6.07036
21
-4.45742
0
LINE
8
BLACK
6
CONTINUOUS
10
6.07036
20
-4.45742
11
6.07356
21
-4.46063
0
LINE
8
BLACK
6
CONTINUOUS
10
6.07356
20
-4.46063
11
6.07688
21
-4.46229
0
LINE
8
BLACK
6
CONTINUOUS
10
6.07688
20
-4.46229
11
6.07771
21
-4.4629
0
LINE
8
BLACK
6
CONTINUOUS
10
6.07771
20
-4.4629
11
6.07851
21
-4.46475
0
LINE
8
BLACK
6
CONTINUOUS
10
6.07851
20
-4.46475
11
6.07794
21
-4.46669
0
LINE
8
BLACK
6
CONTINUOUS
10
6.07794
20
-4.46669
11
6.07625
21
-4.4678
0
LINE
8
BLACK
6
CONTINUOUS
10
6.07625
20
-4.4678
11
6.07424
21
-4.46757
0
LINE
8
BLACK
6
CONTINUOUS
10
6.07424
20
-4.46757
11
6.07049
21
-4.46569
0
LINE
8
BLACK
6
CONTINUOUS
10
6.07049
20
-4.46569
11
6.06978
21
-4.46517
0
LINE
8
BLACK
6
CONTINUOUS
10
6.06978
20
-4.46517
11
6.06973
21
-4.46514
0
LINE
8
BLACK
6
CONTINUOUS
10
6.06973
20
-4.46514
11
6.06727
21
-4.46268
0
LINE
8
BLACK
6
CONTINUOUS
10
6.06727
20
-4.46268
11
6.06727
21
-4.4901
0
LINE
8
BLACK
6
CONTINUOUS
10
6.06727
20
-4.4901
11
6.07556
21
-4.4901
0
LINE
8
BLACK
6
CONTINUOUS
10
6.07556
20
-4.4901
11
6.07657
21
-4.49027
0
LINE
8
BLACK
6
CONTINUOUS
10
6.07657
20
-4.49027
11
6.07812
21
-4.49157
0
LINE
8
BLACK
6
CONTINUOUS
10
6.07812
20
-4.49157
11
6.07847
21
-4.49356
0
LINE
8
BLACK
6
CONTINUOUS
10
6.07847
20
-4.49356
11
6.07746
21
-4.49531
0
LINE
8
BLACK
6
CONTINUOUS
10
6.07746
20
-4.49531
11
6.07556
21
-4.496
0
LINE
8
BLACK
6
CONTINUOUS
10
6.07556
20
-4.496
11
6.05307
21
-4.496
0
LINE
8
BLACK
6
CONTINUOUS
10
6.05307
20
-4.496
11
6.05206
21
-4.49582
0
LINE
8
BLACK
6
CONTINUOUS
10
6.05206
20
-4.49582
11
6.05051
21
-4.49452
0
LINE
8
BLACK
6
CONTINUOUS
10
6.05051
20
-4.49452
11
6.05016
21
-4.49254
0
LINE
8
BLACK
6
CONTINUOUS
10
6.05016
20
-4.49254
11
6.05117
21
-4.49079
0
LINE
8
BLACK
6
CONTINUOUS
10
6.05117
20
-4.49079
11
6.05307
21
-4.4901
0
LINE
8
BLACK
6
CONTINUOUS
10
6.05307
20
-4.4901
11
6.06136
21
-4.4901
0
LINE
8
BLACK
6
CONTINUOUS
10
6.06136
20
-4.4901
11
6.06136
21
-4.45368
0
LINE
8
BLACK
6
CONTINUOUS
10
6.06136
20
-4.45368
11
6.06154
21
-4.45267
0
LINE
8
BLACK
6
CONTINUOUS
10
6.06154
20
-4.45267
11
6.06165
21
-4.45254
0
LINE
8
BLACK
6
CONTINUOUS
10
6.06165
20
-4.45254
11
6.06167
21
-4.45237
0
LINE
8
BLACK
6
CONTINUOUS
10
6.06167
20
-4.45237
11
6.06229
21
-4.45178
0
LINE
8
BLACK
6
CONTINUOUS
10
6.06229
20
-4.45178
11
6.06284
21
-4.45112
0
LINE
8
BLACK
6
CONTINUOUS
10
6.06284
20
-4.45112
11
6.06301
21
-4.45109
0
LINE
8
BLACK
6
CONTINUOUS
10
6.06301
20
-4.45109
11
6.06313
21
-4.45097
0
LINE
8
BLACK
6
CONTINUOUS
10
6.06313
20
-4.45097
11
6.06398
21
-4.45092
0
LINE
8
BLACK
6
CONTINUOUS
10
6.06398
20
-4.45092
11
6.06483
21
-4.45077
0
LINE
8
BLACK
6
CONTINUOUS
10
6.06483
20
-4.45077
11
6.06497
21
-4.45085
0
LINE
8
BLACK
6
CONTINUOUS
10
6.10268
20
-4.45088
11
6.10274
21
-4.45088
0
LINE
8
BLACK
6
CONTINUOUS
10
6.10274
20
-4.45088
11
6.10837
21
-4.45275
0
LINE
8
BLACK
6
CONTINUOUS
10
6.10837
20
-4.45275
11
6.10927
21
-4.45324
0
LINE
8
BLACK
6
CONTINUOUS
10
6.10927
20
-4.45324
11
6.10936
21
-4.45339
0
LINE
8
BLACK
6
CONTINUOUS
10
6.10936
20
-4.45339
11
6.10952
21
-4.45346
0
LINE
8
BLACK
6
CONTINUOUS
10
6.10952
20
-4.45346
11
6.11327
21
-4.45721
0
LINE
8
BLACK
6
CONTINUOUS
10
6.11327
20
-4.45721
11
6.11378
21
-4.45794
0
LINE
8
BLACK
6
CONTINUOUS
10
6.11378
20
-4.45794
11
6.11383
21
-4.45798
0
LINE
8
BLACK
6
CONTINUOUS
10
6.11383
20
-4.45798
11
6.1157
21
-4.46173
0
LINE
8
BLACK
6
CONTINUOUS
10
6.1157
20
-4.46173
11
6.11585
21
-4.46222
0
LINE
8
BLACK
6
CONTINUOUS
10
6.11585
20
-4.46222
11
6.11592
21
-4.46234
0
LINE
8
BLACK
6
CONTINUOUS
10
6.11592
20
-4.46234
11
6.1178
21
-4.46983
0
LINE
8
BLACK
6
CONTINUOUS
10
6.1178
20
-4.46983
11
6.11784
21
-4.47042
0
LINE
8
BLACK
6
CONTINUOUS
10
6.11784
20
-4.47042
11
6.11789
21
-4.47055
0
LINE
8
BLACK
6
CONTINUOUS
10
6.11789
20
-4.47055
11
6.11789
21
-4.47618
0
LINE
8
BLACK
6
CONTINUOUS
10
6.11789
20
-4.47618
11
6.11778
21
-4.47676
0
LINE
8
BLACK
6
CONTINUOUS
10
6.11778
20
-4.47676
11
6.1178
21
-4.47689
0
LINE
8
BLACK
6
CONTINUOUS
10
6.1178
20
-4.47689
11
6.11592
21
-4.48439
0
LINE
8
BLACK
6
CONTINUOUS
10
6.11592
20
-4.48439
11
6.11572
21
-4.48486
0
LINE
8
BLACK
6
CONTINUOUS
10
6.11572
20
-4.48486
11
6.1157
21
-4.48499
0
LINE
8
BLACK
6
CONTINUOUS
10
6.1157
20
-4.48499
11
6.11383
21
-4.48874
0
LINE
8
BLACK
6
CONTINUOUS
10
6.11383
20
-4.48874
11
6.1133
21
-4.48945
0
LINE
8
BLACK
6
CONTINUOUS
10
6.1133
20
-4.48945
11
6.11327
21
-4.48951
0
LINE
8
BLACK
6
CONTINUOUS
10
6.11327
20
-4.48951
11
6.10952
21
-4.49326
0
LINE
8
BLACK
6
CONTINUOUS
10
6.10952
20
-4.49326
11
6.10868
21
-4.49385
0
LINE
8
BLACK
6
CONTINUOUS
10
6.10868
20
-4.49385
11
6.10851
21
-4.49386
0
LINE
8
BLACK
6
CONTINUOUS
10
6.10851
20
-4.49386
11
6.10837
21
-4.49397
0
LINE
8
BLACK
6
CONTINUOUS
10
6.10837
20
-4.49397
11
6.10274
21
-4.49585
0
LINE
8
BLACK
6
CONTINUOUS
10
6.10274
20
-4.49585
11
6.10187
21
-4.49598
0
LINE
8
BLACK
6
CONTINUOUS
10
6.10187
20
-4.49598
11
6.10181
21
-4.496
0
LINE
8
BLACK
6
CONTINUOUS
10
6.10181
20
-4.496
11
6.09806
21
-4.496
0
LINE
8
BLACK
6
CONTINUOUS
10
6.09806
20
-4.496
11
6.09719
21
-4.49585
0
LINE
8
BLACK
6
CONTINUOUS
10
6.09719
20
-4.49585
11
6.09713
21
-4.49585
0
LINE
8
BLACK
6
CONTINUOUS
10
6.09713
20
-4.49585
11
6.0915
21
-4.49397
0
LINE
8
BLACK
6
CONTINUOUS
10
6.0915
20
-4.49397
11
6.0906
21
-4.49349
0
LINE
8
BLACK
6
CONTINUOUS
10
6.0906
20
-4.49349
11
6.09051
21
-4.49334
0
LINE
8
BLACK
6
CONTINUOUS
10
6.09051
20
-4.49334
11
6.09035
21
-4.49326
0
LINE
8
BLACK
6
CONTINUOUS
10
6.09035
20
-4.49326
11
6.08847
21
-4.49139
0
LINE
8
BLACK
6
CONTINUOUS
10
6.08847
20
-4.49139
11
6.08789
21
-4.49055
0
LINE
8
BLACK
6
CONTINUOUS
10
6.08789
20
-4.49055
11
6.08771
21
-4.48853
0
LINE
8
BLACK
6
CONTINUOUS
10
6.08771
20
-4.48853
11
6.08887
21
-4.48688
0
LINE
8
BLACK
6
CONTINUOUS
10
6.08887
20
-4.48688
11
6.09082
21
-4.48636
0
LINE
8
BLACK
6
CONTINUOUS
10
6.09082
20
-4.48636
11
6.09265
21
-4.48721
0
LINE
8
BLACK
6
CONTINUOUS
10
6.09265
20
-4.48721
11
6.09403
21
-4.48859
0
LINE
8
BLACK
6
CONTINUOUS
10
6.09403
20
-4.48859
11
6.09854
21
-4.4901
0
LINE
8
BLACK
6
CONTINUOUS
10
6.09854
20
-4.4901
11
6.10133
21
-4.4901
0
LINE
8
BLACK
6
CONTINUOUS
10
6.10133
20
-4.4901
11
6.10584
21
-4.48859
0
LINE
8
BLACK
6
CONTINUOUS
10
6.10584
20
-4.48859
11
6.10876
21
-4.48567
0
LINE
8
BLACK
6
CONTINUOUS
10
6.10876
20
-4.48567
11
6.11027
21
-4.48264
0
LINE
8
BLACK
6
CONTINUOUS
10
6.11027
20
-4.48264
11
6.11198
21
-4.47581
0
LINE
8
BLACK
6
CONTINUOUS
10
6.11198
20
-4.47581
11
6.11198
21
-4.47091
0
LINE
8
BLACK
6
CONTINUOUS
10
6.11198
20
-4.47091
11
6.11027
21
-4.46408
0
LINE
8
BLACK
6
CONTINUOUS
10
6.11027
20
-4.46408
11
6.10876
21
-4.46105
0
LINE
8
BLACK
6
CONTINUOUS
10
6.10876
20
-4.46105
11
6.10584
21
-4.45813
0
LINE
8
BLACK
6
CONTINUOUS
10
6.10584
20
-4.45813
11
6.10133
21
-4.45663
0
LINE
8
BLACK
6
CONTINUOUS
10
6.10133
20
-4.45663
11
6.09854
21
-4.45663
0
LINE
8
BLACK
6
CONTINUOUS
10
6.09854
20
-4.45663
11
6.09403
21
-4.45813
0
LINE
8
BLACK
6
CONTINUOUS
10
6.09403
20
-4.45813
11
6.09265
21
-4.45952
0
LINE
8
BLACK
6
CONTINUOUS
10
6.09265
20
-4.45952
11
6.09181
21
-4.4601
0
LINE
8
BLACK
6
CONTINUOUS
10
6.09181
20
-4.4601
11
6.0898
21
-4.46028
0
LINE
8
BLACK
6
CONTINUOUS
10
6.0898
20
-4.46028
11
6.08814
21
-4.45912
0
LINE
8
BLACK
6
CONTINUOUS
10
6.08814
20
-4.45912
11
6.08762
21
-4.45717
0
LINE
8
BLACK
6
CONTINUOUS
10
6.08762
20
-4.45717
11
6.08847
21
-4.45534
0
LINE
8
BLACK
6
CONTINUOUS
10
6.08847
20
-4.45534
11
6.09035
21
-4.45346
0
LINE
8
BLACK
6
CONTINUOUS
10
6.09035
20
-4.45346
11
6.09119
21
-4.45288
0
LINE
8
BLACK
6
CONTINUOUS
10
6.09119
20
-4.45288
11
6.09136
21
-4.45286
0
LINE
8
BLACK
6
CONTINUOUS
10
6.09136
20
-4.45286
11
6.0915
21
-4.45275
0
LINE
8
BLACK
6
CONTINUOUS
10
6.0915
20
-4.45275
11
6.09713
21
-4.45088
0
LINE
8
BLACK
6
CONTINUOUS
10
6.09713
20
-4.45088
11
6.098
21
-4.45075
0
LINE
8
BLACK
6
CONTINUOUS
10
6.098
20
-4.45075
11
6.09806
21
-4.45073
0
LINE
8
BLACK
6
CONTINUOUS
10
6.09806
20
-4.45073
11
6.10181
21
-4.45073
0
LINE
8
BLACK
6
CONTINUOUS
10
6.10181
20
-4.45073
11
6.10268
21
-4.45088
0
LINE
8
BLACK
6
CONTINUOUS
10
5.76904
20
-4.45712
11
5.76958
21
-4.45842
0
LINE
8
BLACK
6
CONTINUOUS
10
5.76958
20
-4.45842
11
5.76904
21
-4.45972
0
LINE
8
BLACK
6
CONTINUOUS
10
5.76904
20
-4.45972
11
5.76774
21
-4.46026
0
LINE
8
BLACK
6
CONTINUOUS
10
5.76774
20
-4.46026
11
5.74752
21
-4.46026
0
LINE
8
BLACK
6
CONTINUOUS
10
5.74752
20
-4.46026
11
5.74752
21
-4.47607
0
LINE
8
BLACK
6
CONTINUOUS
10
5.74752
20
-4.47607
11
5.74736
21
-4.47646
0
LINE
8
BLACK
6
CONTINUOUS
10
5.74736
20
-4.47646
11
5.74733
21
-4.47689
0
LINE
8
BLACK
6
CONTINUOUS
10
5.74733
20
-4.47689
11
5.74512
21
-4.4813
0
LINE
8
BLACK
6
CONTINUOUS
10
5.74512
20
-4.4813
11
5.74489
21
-4.4815
0
LINE
8
BLACK
6
CONTINUOUS
10
5.74489
20
-4.4815
11
5.74478
21
-4.48178
0
LINE
8
BLACK
6
CONTINUOUS
10
5.74478
20
-4.48178
11
5.74257
21
-4.48399
0
LINE
8
BLACK
6
CONTINUOUS
10
5.74257
20
-4.48399
11
5.74229
21
-4.4841
0
LINE
8
BLACK
6
CONTINUOUS
10
5.74229
20
-4.4841
11
5.74209
21
-4.48433
0
LINE
8
BLACK
6
CONTINUOUS
10
5.74209
20
-4.48433
11
5.73768
21
-4.48654
0
LINE
8
BLACK
6
CONTINUOUS
10
5.73768
20
-4.48654
11
5.73725
21
-4.48657
0
LINE
8
BLACK
6
CONTINUOUS
10
5.73725
20
-4.48657
11
5.73686
21
-4.48673
0
LINE
8
BLACK
6
CONTINUOUS
10
5.73686
20
-4.48673
11
5.73024
21
-4.48673
0
LINE
8
BLACK
6
CONTINUOUS
10
5.73024
20
-4.48673
11
5.72984
21
-4.48657
0
LINE
8
BLACK
6
CONTINUOUS
10
5.72984
20
-4.48657
11
5.72942
21
-4.48654
0
LINE
8
BLACK
6
CONTINUOUS
10
5.72942
20
-4.48654
11
5.72501
21
-4.48433
0
LINE
8
BLACK
6
CONTINUOUS
10
5.72501
20
-4.48433
11
5.72481
21
-4.4841
0
LINE
8
BLACK
6
CONTINUOUS
10
5.72481
20
-4.4841
11
5.72453
21
-4.48399
0
LINE
8
BLACK
6
CONTINUOUS
10
5.72453
20
-4.48399
11
5.72232
21
-4.48178
0
LINE
8
BLACK
6
CONTINUOUS
10
5.72232
20
-4.48178
11
5.72221
21
-4.4815
0
LINE
8
BLACK
6
CONTINUOUS
10
5.72221
20
-4.4815
11
5.72198
21
-4.4813
0
LINE
8
BLACK
6
CONTINUOUS
10
5.72198
20
-4.4813
11
5.71977
21
-4.47689
0
LINE
8
BLACK
6
CONTINUOUS
10
5.71977
20
-4.47689
11
5.71974
21
-4.47646
0
LINE
8
BLACK
6
CONTINUOUS
10
5.71974
20
-4.47646
11
5.71958
21
-4.47607
0
LINE
8
BLACK
6
CONTINUOUS
10
5.71958
20
-4.47607
11
5.71958
21
-4.45842
0
LINE
8
BLACK
6
CONTINUOUS
10
5.71958
20
-4.45842
11
5.72012
21
-4.45712
0
LINE
8
BLACK
6
CONTINUOUS
10
5.72012
20
-4.45712
11
5.72142
21
-4.45658
0
LINE
8
BLACK
6
CONTINUOUS
10
5.72142
20
-4.45658
11
5.76774
21
-4.45658
0
LINE
8
BLACK
6
CONTINUOUS
10
5.76774
20
-4.45658
11
5.76904
21
-4.45712
0
LINE
8
BLACK
6
CONTINUOUS
10
5.72326
20
-4.47563
11
5.72514
21
-4.47939
0
LINE
8
BLACK
6
CONTINUOUS
10
5.72514
20
-4.47939
11
5.72692
21
-4.48117
0
LINE
8
BLACK
6
CONTINUOUS
10
5.72692
20
-4.48117
11
5.73067
21
-4.48305
0
LINE
8
BLACK
6
CONTINUOUS
10
5.73067
20
-4.48305
11
5.73642
21
-4.48305
0
LINE
8
BLACK
6
CONTINUOUS
10
5.73642
20
-4.48305
11
5.74018
21
-4.48117
0
LINE
8
BLACK
6
CONTINUOUS
10
5.74018
20
-4.48117
11
5.74196
21
-4.47939
0
LINE
8
BLACK
6
CONTINUOUS
10
5.74196
20
-4.47939
11
5.74384
21
-4.47563
0
LINE
8
BLACK
6
CONTINUOUS
10
5.74384
20
-4.47563
11
5.74384
21
-4.46026
0
LINE
8
BLACK
6
CONTINUOUS
10
5.74384
20
-4.46026
11
5.72326
21
-4.46026
0
LINE
8
BLACK
6
CONTINUOUS
10
5.72326
20
-4.46026
11
5.72326
21
-4.47563
0
LINE
8
BLACK
6
CONTINUOUS
10
6.09596
20
-4.43627
11
6.09665
21
-4.43794
0
LINE
8
BLACK
6
CONTINUOUS
10
6.09665
20
-4.43794
11
6.09596
21
-4.43961
0
LINE
8
BLACK
6
CONTINUOUS
10
6.09596
20
-4.43961
11
6.09429
21
-4.4403
0
LINE
8
BLACK
6
CONTINUOUS
10
6.09429
20
-4.4403
11
6.07371
21
-4.4403
0
LINE
8
BLACK
6
CONTINUOUS
10
6.07371
20
-4.4403
11
6.07204
21
-4.43961
0
LINE
8
BLACK
6
CONTINUOUS
10
6.07204
20
-4.43961
11
6.07135
21
-4.43794
0
LINE
8
BLACK
6
CONTINUOUS
10
6.07135
20
-4.43794
11
6.07204
21
-4.43627
0
LINE
8
BLACK
6
CONTINUOUS
10
6.07204
20
-4.43627
11
6.07371
21
-4.43557
0
LINE
8
BLACK
6
CONTINUOUS
10
6.07371
20
-4.43557
11
6.09429
21
-4.43557
0
LINE
8
BLACK
6
CONTINUOUS
10
6.09429
20
-4.43557
11
6.09596
21
-4.43627
0
LINE
8
BLACK
6
CONTINUOUS
10
5.4339
20
-4.3027
11
5.43463
21
-4.30447
0
LINE
8
BLACK
6
CONTINUOUS
10
5.43463
20
-4.30447
11
5.43463
21
-4.34384
0
LINE
8
BLACK
6
CONTINUOUS
10
5.43463
20
-4.34384
11
5.4339
21
-4.34561
0
LINE
8
BLACK
6
CONTINUOUS
10
5.4339
20
-4.34561
11
5.43213
21
-4.34634
0
LINE
8
BLACK
6
CONTINUOUS
10
5.43213
20
-4.34634
11
5.43036
21
-4.34561
0
LINE
8
BLACK
6
CONTINUOUS
10
5.43036
20
-4.34561
11
5.41219
21
-4.32744
0
LINE
8
BLACK
6
CONTINUOUS
10
5.41219
20
-4.32744
11
5.41219
21
-4.34384
0
LINE
8
BLACK
6
CONTINUOUS
10
5.41219
20
-4.34384
11
5.41146
21
-4.34561
0
LINE
8
BLACK
6
CONTINUOUS
10
5.41146
20
-4.34561
11
5.40969
21
-4.34634
0
LINE
8
BLACK
6
CONTINUOUS
10
5.40969
20
-4.34634
11
5.40792
21
-4.34561
0
LINE
8
BLACK
6
CONTINUOUS
10
5.40792
20
-4.34561
11
5.40719
21
-4.34384
0
LINE
8
BLACK
6
CONTINUOUS
10
5.40719
20
-4.34384
11
5.40719
21
-4.30447
0
LINE
8
BLACK
6
CONTINUOUS
10
5.40719
20
-4.30447
11
5.40792
21
-4.3027
0
LINE
8
BLACK
6
CONTINUOUS
10
5.40792
20
-4.3027
11
5.40969
21
-4.30197
0
LINE
8
BLACK
6
CONTINUOUS
10
5.40969
20
-4.30197
11
5.41146
21
-4.3027
0
LINE
8
BLACK
6
CONTINUOUS
10
5.41146
20
-4.3027
11
5.41219
21
-4.30447
0
LINE
8
BLACK
6
CONTINUOUS
10
5.41219
20
-4.30447
11
5.41219
21
-4.32088
0
LINE
8
BLACK
6
CONTINUOUS
10
5.41219
20
-4.32088
11
5.43036
21
-4.3027
0
LINE
8
BLACK
6
CONTINUOUS
10
5.43036
20
-4.3027
11
5.43213
21
-4.30197
0
LINE
8
BLACK
6
CONTINUOUS
10
5.43213
20
-4.30197
11
5.4339
21
-4.3027
0
LINE
8
BLACK
6
CONTINUOUS
10
5.41598
20
-4.32416
11
5.42963
21
-4.33781
0
LINE
8
BLACK
6
CONTINUOUS
10
5.42963
20
-4.33781
11
5.42963
21
-4.31051
0
LINE
8
BLACK
6
CONTINUOUS
10
5.42963
20
-4.31051
11
5.41598
21
-4.32416
0
LINE
8
BLACK
6
CONTINUOUS
10
5.48449
20
-4.28977
11
5.48626
21
-4.2905
0
LINE
8
BLACK
6
CONTINUOUS
10
5.48626
20
-4.2905
11
5.48699
21
-4.29227
0
LINE
8
BLACK
6
CONTINUOUS
10
5.48699
20
-4.29227
11
5.48699
21
-4.35526
0
LINE
8
BLACK
6
CONTINUOUS
10
5.48699
20
-4.35526
11
5.48626
21
-4.35703
0
LINE
8
BLACK
6
CONTINUOUS
10
5.48626
20
-4.35703
11
5.48449
21
-4.35776
0
LINE
8
BLACK
6
CONTINUOUS
10
5.48449
20
-4.35776
11
5.47658
21
-4.35776
0
LINE
8
BLACK
6
CONTINUOUS
10
5.47658
20
-4.35776
11
5.47682
21
-4.35811
0
LINE
8
BLACK
6
CONTINUOUS
10
5.47682
20
-4.35811
11
5.48089
21
-4.36218
0
LINE
8
BLACK
6
CONTINUOUS
10
5.48089
20
-4.36218
11
5.48504
21
-4.36426
0
LINE
8
BLACK
6
CONTINUOUS
10
5.48504
20
-4.36426
11
5.48596
21
-4.36532
0
LINE
8
BLACK
6
CONTINUOUS
10
5.48596
20
-4.36532
11
5.48586
21
-4.36672
0
LINE
8
BLACK
6
CONTINUOUS
10
5.48586
20
-4.36672
11
5.48479
21
-4.36765
0
LINE
8
BLACK
6
CONTINUOUS
10
5.48479
20
-4.36765
11
5.48339
21
-4.36755
0
LINE
8
BLACK
6
CONTINUOUS
10
5.48339
20
-4.36755
11
5.47898
21
-4.36534
0
LINE
8
BLACK
6
CONTINUOUS
10
5.47898
20
-4.36534
11
5.47878
21
-4.36511
0
LINE
8
BLACK
6
CONTINUOUS
10
5.47878
20
-4.36511
11
5.4785
21
-4.365
0
LINE
8
BLACK
6
CONTINUOUS
10
5.4785
20
-4.365
11
5.47409
21
-4.36059
0
LINE
8
BLACK
6
CONTINUOUS
10
5.47409
20
-4.36059
11
5.47402
21
-4.36041
0
LINE
8
BLACK
6
CONTINUOUS
10
5.47402
20
-4.36041
11
5.47386
21
-4.3603
0
LINE
8
BLACK
6
CONTINUOUS
10
5.47386
20
-4.3603
11
5.47282
21
-4.35874
0
LINE
8
BLACK
6
CONTINUOUS
10
5.47282
20
-4.35874
11
5.47282
21
-4.39715
0
LINE
8
BLACK
6
CONTINUOUS
10
5.47282
20
-4.39715
11
5.48421
21
-4.39715
0
LINE
8
BLACK
6
CONTINUOUS
10
5.48421
20
-4.39715
11
5.48551
21
-4.39769
0
LINE
8
BLACK
6
CONTINUOUS
10
5.48551
20
-4.39769
11
5.48605
21
-4.39899
0
LINE
8
BLACK
6
CONTINUOUS
10
5.48605
20
-4.39899
11
5.48551
21
-4.40029
0
LINE
8
BLACK
6
CONTINUOUS
10
5.48551
20
-4.40029
11
5.48421
21
-4.40083
0
LINE
8
BLACK
6
CONTINUOUS
10
5.48421
20
-4.40083
11
5.47098
21
-4.40083
0
LINE
8
BLACK
6
CONTINUOUS
10
5.47098
20
-4.40083
11
5.45774
21
-4.40083
0
LINE
8
BLACK
6
CONTINUOUS
10
5.45774
20
-4.40083
11
5.45644
21
-4.40029
0
LINE
8
BLACK
6
CONTINUOUS
10
5.45644
20
-4.40029
11
5.4559
21
-4.39899
0
LINE
8
BLACK
6
CONTINUOUS
10
5.4559
20
-4.39899
11
5.45644
21
-4.39769
0
LINE
8
BLACK
6
CONTINUOUS
10
5.45644
20
-4.39769
11
5.45774
21
-4.39715
0
LINE
8
BLACK
6
CONTINUOUS
10
5.45774
20
-4.39715
11
5.46914
21
-4.39715
0
LINE
8
BLACK
6
CONTINUOUS
10
5.46914
20
-4.39715
11
5.46914
21
-4.35776
0
LINE
8
BLACK
6
CONTINUOUS
10
5.46914
20
-4.35776
11
5.35851
21
-4.35776
0
LINE
8
BLACK
6
CONTINUOUS
10
5.35851
20
-4.35776
11
5.35674
21
-4.35703
0
LINE
8
BLACK
6
CONTINUOUS
10
5.35674
20
-4.35703
11
5.35601
21
-4.35526
0
LINE
8
BLACK
6
CONTINUOUS
10
5.35601
20
-4.35526
11
5.35601
21
-4.29227
0
LINE
8
BLACK
6
CONTINUOUS
10
5.35601
20
-4.29227
11
5.35674
21
-4.2905
0
LINE
8
BLACK
6
CONTINUOUS
10
5.35674
20
-4.2905
11
5.35851
21
-4.28977
0
LINE
8
BLACK
6
CONTINUOUS
10
5.35851
20
-4.28977
11
5.48449
21
-4.28977
0
LINE
8
BLACK
6
CONTINUOUS
10
5.36101
20
-4.29477
11
5.36101
21
-4.35276
0
LINE
8
BLACK
6
CONTINUOUS
10
5.36101
20
-4.35276
11
5.46914
21
-4.35276
0
LINE
8
BLACK
6
CONTINUOUS
10
5.46914
20
-4.35276
11
5.46914
21
-4.35267
0
LINE
8
BLACK
6
CONTINUOUS
10
5.46914
20
-4.35267
11
5.46921
21
-4.35249
0
LINE
8
BLACK
6
CONTINUOUS
10
5.46921
20
-4.35249
11
5.46917
21
-4.35231
0
LINE
8
BLACK
6
CONTINUOUS
10
5.46917
20
-4.35231
11
5.46947
21
-4.35186
0
LINE
8
BLACK
6
CONTINUOUS
10
5.46947
20
-4.35186
11
5.46968
21
-4.35137
0
LINE
8
BLACK
6
CONTINUOUS
10
5.46968
20
-4.35137
11
5.46985
21
-4.35129
0
LINE
8
BLACK
6
CONTINUOUS
10
5.46985
20
-4.35129
11
5.46996
21
-4.35114
0
LINE
8
BLACK
6
CONTINUOUS
10
5.46996
20
-4.35114
11
5.47048
21
-4.35103
0
LINE
8
BLACK
6
CONTINUOUS
10
5.47048
20
-4.35103
11
5.47098
21
-4.35083
0
LINE
8
BLACK
6
CONTINUOUS
10
5.47098
20
-4.35083
11
5.47115
21
-4.3509
0
LINE
8
BLACK
6
CONTINUOUS
10
5.47115
20
-4.3509
11
5.47134
21
-4.35086
0
LINE
8
BLACK
6
CONTINUOUS
10
5.47134
20
-4.35086
11
5.47178
21
-4.35116
0
LINE
8
BLACK
6
CONTINUOUS
10
5.47178
20
-4.35116
11
5.47228
21
-4.35137
0
LINE
8
BLACK
6
CONTINUOUS
10
5.47228
20
-4.35137
11
5.47235
21
-4.35154
0
LINE
8
BLACK
6
CONTINUOUS
10
5.47235
20
-4.35154
11
5.47251
21
-4.35165
0
LINE
8
BLACK
6
CONTINUOUS
10
5.47251
20
-4.35165
11
5.47325
21
-4.35276
0
LINE
8
BLACK
6
CONTINUOUS
10
5.47325
20
-4.35276
11
5.48199
21
-4.35276
0
LINE
8
BLACK
6
CONTINUOUS
10
5.48199
20
-4.35276
11
5.48199
21
-4.29477
0
LINE
8
BLACK
6
CONTINUOUS
10
5.48199
20
-4.29477
11
5.36101
21
-4.29477
0
LINE
8
BLACK
6
CONTINUOUS
10
5.52963
20
-4.35137
11
5.53017
21
-4.35267
0
LINE
8
BLACK
6
CONTINUOUS
10
5.53017
20
-4.35267
11
5.53017
21
-4.39899
0
LINE
8
BLACK
6
CONTINUOUS
10
5.53017
20
-4.39899
11
5.52963
21
-4.40029
0
LINE
8
BLACK
6
CONTINUOUS
10
5.52963
20
-4.40029
11
5.52833
21
-4.40083
0
LINE
8
BLACK
6
CONTINUOUS
10
5.52833
20
-4.40083
11
5.52703
21
-4.40029
0
LINE
8
BLACK
6
CONTINUOUS
10
5.52703
20
-4.40029
11
5.52649
21
-4.39899
0
LINE
8
BLACK
6
CONTINUOUS
10
5.52649
20
-4.39899
11
5.52649
21
-4.37877
0
LINE
8
BLACK
6
CONTINUOUS
10
5.52649
20
-4.37877
11
5.51826
21
-4.37877
0
LINE
8
BLACK
6
CONTINUOUS
10
5.51826
20
-4.37877
11
5.50337
21
-4.40004
0
LINE
8
BLACK
6
CONTINUOUS
10
5.50337
20
-4.40004
11
5.50218
21
-4.4008
0
LINE
8
BLACK
6
CONTINUOUS
10
5.50218
20
-4.4008
11
5.5008
21
-4.40049
0
LINE
8
BLACK
6
CONTINUOUS
10
5.5008
20
-4.40049
11
5.50005
21
-4.39931
0
LINE
8
BLACK
6
CONTINUOUS
10
5.50005
20
-4.39931
11
5.50035
21
-4.39793
0
LINE
8
BLACK
6
CONTINUOUS
10
5.50035
20
-4.39793
11
5.51376
21
-4.37877
0
LINE
8
BLACK
6
CONTINUOUS
10
5.51376
20
-4.37877
11
5.51068
21
-4.37877
0
LINE
8
BLACK
6
CONTINUOUS
10
5.51068
20
-4.37877
11
5.51029
21
-4.37861
0
LINE
8
BLACK
6
CONTINUOUS
10
5.51029
20
-4.37861
11
5.50986
21
-4.37858
0
LINE
8
BLACK
6
CONTINUOUS
10
5.50986
20
-4.37858
11
5.50545
21
-4.37637
0
LINE
8
BLACK
6
CONTINUOUS
10
5.50545
20
-4.37637
11
5.50525
21
-4.37614
0
LINE
8
BLACK
6
CONTINUOUS
10
5.50525
20
-4.37614
11
5.50497
21
-4.37603
0
LINE
8
BLACK
6
CONTINUOUS
10
5.50497
20
-4.37603
11
5.50276
21
-4.37382
0
LINE
8
BLACK
6
CONTINUOUS
10
5.50276
20
-4.37382
11
5.50265
21
-4.37354
0
LINE
8
BLACK
6
CONTINUOUS
10
5.50265
20
-4.37354
11
5.50242
21
-4.37334
0
LINE
8
BLACK
6
CONTINUOUS
10
5.50242
20
-4.37334
11
5.50021
21
-4.36893
0
LINE
8
BLACK
6
CONTINUOUS
10
5.50021
20
-4.36893
11
5.50018
21
-4.3685
0
LINE
8
BLACK
6
CONTINUOUS
10
5.50018
20
-4.3685
11
5.50002
21
-4.36811
0
LINE
8
BLACK
6
CONTINUOUS
10
5.50002
20
-4.36811
11
5.50002
21
-4.36149
0
LINE
8
BLACK
6
CONTINUOUS
10
5.50002
20
-4.36149
11
5.50018
21
-4.36109
0
LINE
8
BLACK
6
CONTINUOUS
10
5.50018
20
-4.36109
11
5.50021
21
-4.36067
0
LINE
8
BLACK
6
CONTINUOUS
10
5.50021
20
-4.36067
11
5.50242
21
-4.35626
0
LINE
8
BLACK
6
CONTINUOUS
10
5.50242
20
-4.35626
11
5.50265
21
-4.35606
0
LINE
8
BLACK
6
CONTINUOUS
10
5.50265
20
-4.35606
11
5.50276
21
-4.35578
0
LINE
8
BLACK
6
CONTINUOUS
10
5.50276
20
-4.35578
11
5.50497
21
-4.35357
0
LINE
8
BLACK
6
CONTINUOUS
10
5.50497
20
-4.35357
11
5.50525
21
-4.35346
0
LINE
8
BLACK
6
CONTINUOUS
10
5.50525
20
-4.35346
11
5.50545
21
-4.35323
0
LINE
8
BLACK
6
CONTINUOUS
10
5.50545
20
-4.35323
11
5.50986
21
-4.35102
0
LINE
8
BLACK
6
CONTINUOUS
10
5.50986
20
-4.35102
11
5.51029
21
-4.35099
0
LINE
8
BLACK
6
CONTINUOUS
10
5.51029
20
-4.35099
11
5.51068
21
-4.35083
0
LINE
8
BLACK
6
CONTINUOUS
10
5.51068
20
-4.35083
11
5.52833
21
-4.35083
0
LINE
8
BLACK
6
CONTINUOUS
10
5.52833
20
-4.35083
11
5.52963
21
-4.35137
0
LINE
8
BLACK
6
CONTINUOUS
10
5.50736
20
-4.35639
11
5.50558
21
-4.35817
0
LINE
8
BLACK
6
CONTINUOUS
10
5.50558
20
-4.35817
11
5.5037
21
-4.36192
0
LINE
8
BLACK
6
CONTINUOUS
10
5.5037
20
-4.36192
11
5.5037
21
-4.36767
0
LINE
8
BLACK
6
CONTINUOUS
10
5.5037
20
-4.36767
11
5.50558
21
-4.37143
0
LINE
8
BLACK
6
CONTINUOUS
10
5.50558
20
-4.37143
11
5.50736
21
-4.37321
0
LINE
8
BLACK
6
CONTINUOUS
10
5.50736
20
-4.37321
11
5.51112
21
-4.37509
0
LINE
8
BLACK
6
CONTINUOUS
10
5.51112
20
-4.37509
11
5.52649
21
-4.37509
0
LINE
8
BLACK
6
CONTINUOUS
10
5.52649
20
-4.37509
11
5.52649
21
-4.35451
0
LINE
8
BLACK
6
CONTINUOUS
10
5.52649
20
-4.35451
11
5.51112
21
-4.35451
0
LINE
8
BLACK
6
CONTINUOUS
10
5.51112
20
-4.35451
11
5.50736
21
-4.35639
0
LINE
8
BLACK
6
CONTINUOUS
10
6.09596
20
-4.37839
11
6.09665
21
-4.38006
0
LINE
8
BLACK
6
CONTINUOUS
10
6.09665
20
-4.38006
11
6.09596
21
-4.38173
0
LINE
8
BLACK
6
CONTINUOUS
10
6.09596
20
-4.38173
11
6.09429
21
-4.38243
0
LINE
8
BLACK
6
CONTINUOUS
10
6.09429
20
-4.38243
11
6.07371
21
-4.38243
0
LINE
8
BLACK
6
CONTINUOUS
10
6.07371
20
-4.38243
11
6.07204
21
-4.38173
0
LINE
8
BLACK
6
CONTINUOUS
10
6.07204
20
-4.38173
11
6.07135
21
-4.38006
0
LINE
8
BLACK
6
CONTINUOUS
10
6.07135
20
-4.38006
11
6.07204
21
-4.37839
0
LINE
8
BLACK
6
CONTINUOUS
10
6.07204
20
-4.37839
11
6.07371
21
-4.3777
0
LINE
8
BLACK
6
CONTINUOUS
10
6.07371
20
-4.3777
11
6.09429
21
-4.3777
0
LINE
8
BLACK
6
CONTINUOUS
10
6.09429
20
-4.3777
11
6.09596
21
-4.37839
0
LINE
8
BLACK
6
CONTINUOUS
10
5.28644
20
-4.3183
11
5.28698
21
-4.3196
0
LINE
8
BLACK
6
CONTINUOUS
10
5.28698
20
-4.3196
11
5.28644
21
-4.3209
0
LINE
8
BLACK
6
CONTINUOUS
10
5.28644
20
-4.3209
11
5.28514
21
-4.32144
0
LINE
8
BLACK
6
CONTINUOUS
10
5.28514
20
-4.32144
11
5.26052
21
-4.32144
0
LINE
8
BLACK
6
CONTINUOUS
10
5.26052
20
-4.32144
11
5.27329
21
-4.33603
0
LINE
8
BLACK
6
CONTINUOUS
10
5.27329
20
-4.33603
11
5.2735
21
-4.33664
0
LINE
8
BLACK
6
CONTINUOUS
10
5.2735
20
-4.33664
11
5.27374
21
-4.33724
0
LINE
8
BLACK
6
CONTINUOUS
10
5.27374
20
-4.33724
11
5.27372
21
-4.3373
0
LINE
8
BLACK
6
CONTINUOUS
10
5.27372
20
-4.3373
11
5.27374
21
-4.33736
0
LINE
8
BLACK
6
CONTINUOUS
10
5.27374
20
-4.33736
11
5.27345
21
-4.33794
0
LINE
8
BLACK
6
CONTINUOUS
10
5.27345
20
-4.33794
11
5.2732
21
-4.33854
0
LINE
8
BLACK
6
CONTINUOUS
10
5.2732
20
-4.33854
11
5.27314
21
-4.33857
0
LINE
8
BLACK
6
CONTINUOUS
10
5.27314
20
-4.33857
11
5.27312
21
-4.33863
0
LINE
8
BLACK
6
CONTINUOUS
10
5.27312
20
-4.33863
11
5.2725
21
-4.33883
0
LINE
8
BLACK
6
CONTINUOUS
10
5.2725
20
-4.33883
11
5.2719
21
-4.33908
0
LINE
8
BLACK
6
CONTINUOUS
10
5.2719
20
-4.33908
11
5.26572
21
-4.33908
0
LINE
8
BLACK
6
CONTINUOUS
10
5.26572
20
-4.33908
11
5.26196
21
-4.34096
0
LINE
8
BLACK
6
CONTINUOUS
10
5.26196
20
-4.34096
11
5.26018
21
-4.34274
0
LINE
8
BLACK
6
CONTINUOUS
10
5.26018
20
-4.34274
11
5.2583
21
-4.3465
0
LINE
8
BLACK
6
CONTINUOUS
10
5.2583
20
-4.3465
11
5.2583
21
-4.35666
0
LINE
8
BLACK
6
CONTINUOUS
10
5.2583
20
-4.35666
11
5.26018
21
-4.36041
0
LINE
8
BLACK
6
CONTINUOUS
10
5.26018
20
-4.36041
11
5.26196
21
-4.3622
0
LINE
8
BLACK
6
CONTINUOUS
10
5.26196
20
-4.3622
11
5.26572
21
-4.36408
0
LINE
8
BLACK
6
CONTINUOUS
10
5.26572
20
-4.36408
11
5.27809
21
-4.36408
0
LINE
8
BLACK
6
CONTINUOUS
10
5.27809
20
-4.36408
11
5.28184
21
-4.3622
0
LINE
8
BLACK
6
CONTINUOUS
10
5.28184
20
-4.3622
11
5.28384
21
-4.3602
0
LINE
8
BLACK
6
CONTINUOUS
10
5.28384
20
-4.3602
11
5.28514
21
-4.35966
0
LINE
8
BLACK
6
CONTINUOUS
10
5.28514
20
-4.35966
11
5.28644
21
-4.3602
0
LINE
8
BLACK
6
CONTINUOUS
10
5.28644
20
-4.3602
11
5.28698
21
-4.3615
0
LINE
8
BLACK
6
CONTINUOUS
10
5.28698
20
-4.3615
11
5.28644
21
-4.36281
0
LINE
8
BLACK
6
CONTINUOUS
10
5.28644
20
-4.36281
11
5.28423
21
-4.36501
0
LINE
8
BLACK
6
CONTINUOUS
10
5.28423
20
-4.36501
11
5.28395
21
-4.36513
0
LINE
8
BLACK
6
CONTINUOUS
10
5.28395
20
-4.36513
11
5.28376
21
-4.36536
0
LINE
8
BLACK
6
CONTINUOUS
10
5.28376
20
-4.36536
11
5.27934
21
-4.36756
0
LINE
8
BLACK
6
CONTINUOUS
10
5.27934
20
-4.36756
11
5.27892
21
-4.36759
0
LINE
8
BLACK
6
CONTINUOUS
10
5.27892
20
-4.36759
11
5.27852
21
-4.36776
0
LINE
8
BLACK
6
CONTINUOUS
10
5.27852
20
-4.36776
11
5.26529
21
-4.36776
0
LINE
8
BLACK
6
CONTINUOUS
10
5.26529
20
-4.36776
11
5.26489
21
-4.36759
0
LINE
8
BLACK
6
CONTINUOUS
10
5.26489
20
-4.36759
11
5.26446
21
-4.36756
0
LINE
8
BLACK
6
CONTINUOUS
10
5.26446
20
-4.36756
11
5.26005
21
-4.36536
0
LINE
8
BLACK
6
CONTINUOUS
10
5.26005
20
-4.36536
11
5.25985
21
-4.36513
0
LINE
8
BLACK
6
CONTINUOUS
10
5.25985
20
-4.36513
11
5.25957
21
-4.36501
0
LINE
8
BLACK
6
CONTINUOUS
10
5.25957
20
-4.36501
11
5.25737
21
-4.36281
0
LINE
8
BLACK
6
CONTINUOUS
10
5.25737
20
-4.36281
11
5.25725
21
-4.36253
0
LINE
8
BLACK
6
CONTINUOUS
10
5.25725
20
-4.36253
11
5.25702
21
-4.36233
0
LINE
8
BLACK
6
CONTINUOUS
10
5.25702
20
-4.36233
11
5.25482
21
-4.35792
0
LINE
8
BLACK
6
CONTINUOUS
10
5.25482
20
-4.35792
11
5.25479
21
-4.35749
0
LINE
8
BLACK
6
CONTINUOUS
10
5.25479
20
-4.35749
11
5.25462
21
-4.35709
0
LINE
8
BLACK
6
CONTINUOUS
10
5.25462
20
-4.35709
11
5.25462
21
-4.34606
0
LINE
8
BLACK
6
CONTINUOUS
10
5.25462
20
-4.34606
11
5.25479
21
-4.34567
0
LINE
8
BLACK
6
CONTINUOUS
10
5.25479
20
-4.34567
11
5.25482
21
-4.34524
0
LINE
8
BLACK
6
CONTINUOUS
10
5.25482
20
-4.34524
11
5.25702
21
-4.34083
0
LINE
8
BLACK
6
CONTINUOUS
10
5.25702
20
-4.34083
11
5.25725
21
-4.34063
0
LINE
8
BLACK
6
CONTINUOUS
10
5.25725
20
-4.34063
11
5.25737
21
-4.34035
0
LINE
8
BLACK
6
CONTINUOUS
10
5.25737
20
-4.34035
11
5.25957
21
-4.33815
0
LINE
8
BLACK
6
CONTINUOUS
10
5.25957
20
-4.33815
11
5.25985
21
-4.33803
0
LINE
8
BLACK
6
CONTINUOUS
10
5.25985
20
-4.33803
11
5.26005
21
-4.3378
0
LINE
8
BLACK
6
CONTINUOUS
10
5.26005
20
-4.3378
11
5.26446
21
-4.3356
0
LINE
8
BLACK
6
CONTINUOUS
10
5.26446
20
-4.3356
11
5.26489
21
-4.33557
0
LINE
8
BLACK
6
CONTINUOUS
10
5.26489
20
-4.33557
11
5.26529
21
-4.3354
0
LINE
8
BLACK
6
CONTINUOUS
10
5.26529
20
-4.3354
11
5.26785
21
-4.3354
0
LINE
8
BLACK
6
CONTINUOUS
10
5.26785
20
-4.3354
11
5.25508
21
-4.32081
0
LINE
8
BLACK
6
CONTINUOUS
10
5.25508
20
-4.32081
11
5.25487
21
-4.32019
0
LINE
8
BLACK
6
CONTINUOUS
10
5.25487
20
-4.32019
11
5.25462
21
-4.3196
0
LINE
8
BLACK
6
CONTINUOUS
10
5.25462
20
-4.3196
11
5.25465
21
-4.31954
0
LINE
8
BLACK
6
CONTINUOUS
10
5.25465
20
-4.31954
11
5.25463
21
-4.31947
0
LINE
8
BLACK
6
CONTINUOUS
10
5.25463
20
-4.31947
11
5.25491
21
-4.31889
0
LINE
8
BLACK
6
CONTINUOUS
10
5.25491
20
-4.31889
11
5.25516
21
-4.3183
0
LINE
8
BLACK
6
CONTINUOUS
10
5.25516
20
-4.3183
11
5.25522
21
-4.31827
0
LINE
8
BLACK
6
CONTINUOUS
10
5.25522
20
-4.31827
11
5.25525
21
-4.31821
0
LINE
8
BLACK
6
CONTINUOUS
10
5.25525
20
-4.31821
11
5.25587
21
-4.318
0
LINE
8
BLACK
6
CONTINUOUS
10
5.25587
20
-4.318
11
5.25646
21
-4.31776
0
LINE
8
BLACK
6
CONTINUOUS
10
5.25646
20
-4.31776
11
5.28514
21
-4.31776
0
LINE
8
BLACK
6
CONTINUOUS
10
5.28514
20
-4.31776
11
5.28644
21
-4.3183
0
LINE
8
BLACK
6
CONTINUOUS
10
5.32835
20
-4.3183
11
5.32889
21
-4.3196
0
LINE
8
BLACK
6
CONTINUOUS
10
5.32889
20
-4.3196
11
5.32889
21
-4.36592
0
LINE
8
BLACK
6
CONTINUOUS
10
5.32889
20
-4.36592
11
5.32835
21
-4.36722
0
LINE
8
BLACK
6
CONTINUOUS
10
5.32835
20
-4.36722
11
5.32705
21
-4.36776
0
LINE
8
BLACK
6
CONTINUOUS
10
5.32705
20
-4.36776
11
5.31602
21
-4.36776
0
LINE
8
BLACK
6
CONTINUOUS
10
5.31602
20
-4.36776
11
5.31574
21
-4.36764
0
LINE
8
BLACK
6
CONTINUOUS
10
5.31574
20
-4.36764
11
5.31544
21
-4.36766
0
LINE
8
BLACK
6
CONTINUOUS
10
5.31544
20
-4.36766
11
5.30882
21
-4.36546
0
LINE
8
BLACK
6
CONTINUOUS
10
5.30882
20
-4.36546
11
5.3085
21
-4.36518
0
LINE
8
BLACK
6
CONTINUOUS
10
5.3085
20
-4.36518
11
5.3081
21
-4.36501
0
LINE
8
BLACK
6
CONTINUOUS
10
5.3081
20
-4.36501
11
5.30369
21
-4.3606
0
LINE
8
BLACK
6
CONTINUOUS
10
5.30369
20
-4.3606
11
5.30357
21
-4.36032
0
LINE
8
BLACK
6
CONTINUOUS
10
5.30357
20
-4.36032
11
5.30334
21
-4.36012
0
LINE
8
BLACK
6
CONTINUOUS
10
5.30334
20
-4.36012
11
5.30114
21
-4.35571
0
LINE
8
BLACK
6
CONTINUOUS
10
5.30114
20
-4.35571
11
5.30112
21
-4.3555
0
LINE
8
BLACK
6
CONTINUOUS
10
5.30112
20
-4.3555
11
5.301
21
-4.35533
0
LINE
8
BLACK
6
CONTINUOUS
10
5.301
20
-4.35533
11
5.29879
21
-4.34651
0
LINE
8
BLACK
6
CONTINUOUS
10
5.29879
20
-4.34651
11
5.29883
21
-4.34628
0
LINE
8
BLACK
6
CONTINUOUS
10
5.29883
20
-4.34628
11
5.29874
21
-4.34606
0
LINE
8
BLACK
6
CONTINUOUS
10
5.29874
20
-4.34606
11
5.29874
21
-4.33945
0
LINE
8
BLACK
6
CONTINUOUS
10
5.29874
20
-4.33945
11
5.29883
21
-4.33923
0
LINE
8
BLACK
6
CONTINUOUS
10
5.29883
20
-4.33923
11
5.29879
21
-4.339
0
LINE
8
BLACK
6
CONTINUOUS
10
5.29879
20
-4.339
11
5.301
21
-4.33018
0
LINE
8
BLACK
6
CONTINUOUS
10
5.301
20
-4.33018
11
5.30112
21
-4.33001
0
LINE
8
BLACK
6
CONTINUOUS
10
5.30112
20
-4.33001
11
5.30114
21
-4.3298
0
LINE
8
BLACK
6
CONTINUOUS
10
5.30114
20
-4.3298
11
5.30334
21
-4.32539
0
LINE
8
BLACK
6
CONTINUOUS
10
5.30334
20
-4.32539
11
5.30357
21
-4.32519
0
LINE
8
BLACK
6
CONTINUOUS
10
5.30357
20
-4.32519
11
5.30369
21
-4.32491
0
LINE
8
BLACK
6
CONTINUOUS
10
5.30369
20
-4.32491
11
5.3081
21
-4.3205
0
LINE
8
BLACK
6
CONTINUOUS
10
5.3081
20
-4.3205
11
5.3085
21
-4.32034
0
LINE
8
BLACK
6
CONTINUOUS
10
5.3085
20
-4.32034
11
5.30882
21
-4.32006
0
LINE
8
BLACK
6
CONTINUOUS
10
5.30882
20
-4.32006
11
5.31544
21
-4.31785
0
LINE
8
BLACK
6
CONTINUOUS
10
5.31544
20
-4.31785
11
5.31574
21
-4.31787
0
LINE
8
BLACK
6
CONTINUOUS
10
5.31574
20
-4.31787
11
5.31602
21
-4.31776
0
LINE
8
BLACK
6
CONTINUOUS
10
5.31602
20
-4.31776
11
5.32705
21
-4.31776
0
LINE
8
BLACK
6
CONTINUOUS
10
5.32705
20
-4.31776
11
5.32835
21
-4.3183
0
LINE
8
BLACK
6
CONTINUOUS
10
5.31039
20
-4.32341
11
5.3065
21
-4.3273
0
LINE
8
BLACK
6
CONTINUOUS
10
5.3065
20
-4.3273
11
5.30452
21
-4.33127
0
LINE
8
BLACK
6
CONTINUOUS
10
5.30452
20
-4.33127
11
5.30242
21
-4.33967
0
LINE
8
BLACK
6
CONTINUOUS
10
5.30242
20
-4.33967
11
5.30242
21
-4.34584
0
LINE
8
BLACK
6
CONTINUOUS
10
5.30242
20
-4.34584
11
5.30452
21
-4.35425
0
LINE
8
BLACK
6
CONTINUOUS
10
5.30452
20
-4.35425
11
5.3065
21
-4.35821
0
LINE
8
BLACK
6
CONTINUOUS
10
5.3065
20
-4.35821
11
5.31039
21
-4.3621
0
LINE
8
BLACK
6
CONTINUOUS
10
5.31039
20
-4.3621
11
5.31632
21
-4.36408
0
LINE
8
BLACK
6
CONTINUOUS
10
5.31632
20
-4.36408
11
5.32521
21
-4.36408
0
LINE
8
BLACK
6
CONTINUOUS
10
5.32521
20
-4.36408
11
5.32521
21
-4.32144
0
LINE
8
BLACK
6
CONTINUOUS
10
5.32521
20
-4.32144
11
5.31632
21
-4.32144
0
LINE
8
BLACK
6
CONTINUOUS
10
5.31632
20
-4.32144
11
5.31039
21
-4.32341
0
LINE
8
BLACK
6
CONTINUOUS
10
5.94767
20
-4.28396
11
5.94825
21
-4.28538
0
LINE
8
BLACK
6
CONTINUOUS
10
5.94825
20
-4.28538
11
5.94825
21
-4.33262
0
LINE
8
BLACK
6
CONTINUOUS
10
5.94825
20
-4.33262
11
5.94767
21
-4.33404
0
LINE
8
BLACK
6
CONTINUOUS
10
5.94767
20
-4.33404
11
5.94625
21
-4.33462
0
LINE
8
BLACK
6
CONTINUOUS
10
5.94625
20
-4.33462
11
5.94484
21
-4.33404
0
LINE
8
BLACK
6
CONTINUOUS
10
5.94484
20
-4.33404
11
5.94425
21
-4.33262
0
LINE
8
BLACK
6
CONTINUOUS
10
5.94425
20
-4.33262
11
5.94425
21
-4.28538
0
LINE
8
BLACK
6
CONTINUOUS
10
5.94425
20
-4.28538
11
5.94484
21
-4.28396
0
LINE
8
BLACK
6
CONTINUOUS
10
5.94484
20
-4.28396
11
5.94625
21
-4.28338
0
LINE
8
BLACK
6
CONTINUOUS
10
5.94625
20
-4.28338
11
5.94767
21
-4.28396
0
LINE
8
BLACK
6
CONTINUOUS
10
6.01066
20
-4.28396
11
6.01125
21
-4.28538
0
LINE
8
BLACK
6
CONTINUOUS
10
6.01125
20
-4.28538
11
6.01125
21
-4.33262
0
LINE
8
BLACK
6
CONTINUOUS
10
6.01125
20
-4.33262
11
6.01066
21
-4.33404
0
LINE
8
BLACK
6
CONTINUOUS
10
6.01066
20
-4.33404
11
6.00925
21
-4.33462
0
LINE
8
BLACK
6
CONTINUOUS
10
6.00925
20
-4.33462
11
6.00783
21
-4.33404
0
LINE
8
BLACK
6
CONTINUOUS
10
6.00783
20
-4.33404
11
6.00725
21
-4.33262
0
LINE
8
BLACK
6
CONTINUOUS
10
6.00725
20
-4.33262
11
6.00725
21
-4.3218
0
LINE
8
BLACK
6
CONTINUOUS
10
6.00725
20
-4.3218
11
5.97775
21
-4.3218
0
LINE
8
BLACK
6
CONTINUOUS
10
5.97775
20
-4.3218
11
5.97775
21
-4.309
0
LINE
8
BLACK
6
CONTINUOUS
10
5.97775
20
-4.309
11
6.00725
21
-4.309
0
LINE
8
BLACK
6
CONTINUOUS
10
6.00725
20
-4.309
11
6.00725
21
-4.28538
0
LINE
8
BLACK
6
CONTINUOUS
10
6.00725
20
-4.28538
11
6.00783
21
-4.28396
0
LINE
8
BLACK
6
CONTINUOUS
10
6.00783
20
-4.28396
11
6.00925
21
-4.28338
0
LINE
8
BLACK
6
CONTINUOUS
10
6.00925
20
-4.28338
11
6.01066
21
-4.28396
0
LINE
8
BLACK
6
CONTINUOUS
10
5.8681
20
-4.2782
11
5.86902
21
-4.27926
0
LINE
8
BLACK
6
CONTINUOUS
10
5.86902
20
-4.27926
11
5.88005
21
-4.31235
0
LINE
8
BLACK
6
CONTINUOUS
10
5.88005
20
-4.31235
11
5.88003
21
-4.31265
0
LINE
8
BLACK
6
CONTINUOUS
10
5.88003
20
-4.31265
11
5.88015
21
-4.31293
0
LINE
8
BLACK
6
CONTINUOUS
10
5.88015
20
-4.31293
11
5.87998
21
-4.31332
0
LINE
8
BLACK
6
CONTINUOUS
10
5.87998
20
-4.31332
11
5.87995
21
-4.31375
0
LINE
8
BLACK
6
CONTINUOUS
10
5.87995
20
-4.31375
11
5.87972
21
-4.31395
0
LINE
8
BLACK
6
CONTINUOUS
10
5.87972
20
-4.31395
11
5.87961
21
-4.31423
0
LINE
8
BLACK
6
CONTINUOUS
10
5.87961
20
-4.31423
11
5.87921
21
-4.31439
0
LINE
8
BLACK
6
CONTINUOUS
10
5.87921
20
-4.31439
11
5.87889
21
-4.31467
0
LINE
8
BLACK
6
CONTINUOUS
10
5.87889
20
-4.31467
11
5.87859
21
-4.31465
0
LINE
8
BLACK
6
CONTINUOUS
10
5.87859
20
-4.31465
11
5.87831
21
-4.31477
0
LINE
8
BLACK
6
CONTINUOUS
10
5.87831
20
-4.31477
11
5.85809
21
-4.31477
0
LINE
8
BLACK
6
CONTINUOUS
10
5.85809
20
-4.31477
11
5.85809
21
-4.32837
0
LINE
8
BLACK
6
CONTINUOUS
10
5.85809
20
-4.32837
11
5.85755
21
-4.32967
0
LINE
8
BLACK
6
CONTINUOUS
10
5.85755
20
-4.32967
11
5.85625
21
-4.33021
0
LINE
8
BLACK
6
CONTINUOUS
10
5.85625
20
-4.33021
11
5.85495
21
-4.32967
0
LINE
8
BLACK
6
CONTINUOUS
10
5.85495
20
-4.32967
11
5.85441
21
-4.32837
0
LINE
8
BLACK
6
CONTINUOUS
10
5.85441
20
-4.32837
11
5.85441
21
-4.31477
0
LINE
8
BLACK
6
CONTINUOUS
10
5.85441
20
-4.31477
11
5.84963
21
-4.31477
0
LINE
8
BLACK
6
CONTINUOUS
10
5.84963
20
-4.31477
11
5.84833
21
-4.31423
0
LINE
8
BLACK
6
CONTINUOUS
10
5.84833
20
-4.31423
11
5.84779
21
-4.31293
0
LINE
8
BLACK
6
CONTINUOUS
10
5.84779
20
-4.31293
11
5.84833
21
-4.31163
0
LINE
8
BLACK
6
CONTINUOUS
10
5.84833
20
-4.31163
11
5.84963
21
-4.31109
0
LINE
8
BLACK
6
CONTINUOUS
10
5.84963
20
-4.31109
11
5.85441
21
-4.31109
0
LINE
8
BLACK
6
CONTINUOUS
10
5.85441
20
-4.31109
11
5.85441
21
-4.29749
0
LINE
8
BLACK
6
CONTINUOUS
10
5.85441
20
-4.29749
11
5.85495
21
-4.29619
0
LINE
8
BLACK
6
CONTINUOUS
10
5.85495
20
-4.29619
11
5.85625
21
-4.29565
0
LINE
8
BLACK
6
CONTINUOUS
10
5.85625
20
-4.29565
11
5.85755
21
-4.29619
0
LINE
8
BLACK
6
CONTINUOUS
10
5.85755
20
-4.29619
11
5.85809
21
-4.29749
0
LINE
8
BLACK
6
CONTINUOUS
10
5.85809
20
-4.29749
11
5.85809
21
-4.31109
0
LINE
8
BLACK
6
CONTINUOUS
10
5.85809
20
-4.31109
11
5.87575
21
-4.31109
0
LINE
8
BLACK
6
CONTINUOUS
10
5.87575
20
-4.31109
11
5.86553
21
-4.28042
0
LINE
8
BLACK
6
CONTINUOUS
10
5.86553
20
-4.28042
11
5.86563
21
-4.27902
0
LINE
8
BLACK
6
CONTINUOUS
10
5.86563
20
-4.27902
11
5.8667
21
-4.2781
0
LINE
8
BLACK
6
CONTINUOUS
10
5.8667
20
-4.2781
11
5.8681
21
-4.2782
0
LINE
8
BLACK
6
CONTINUOUS
10
5.92372
20
-4.28075
11
5.92426
21
-4.28205
0
LINE
8
BLACK
6
CONTINUOUS
10
5.92426
20
-4.28205
11
5.92426
21
-4.32837
0
LINE
8
BLACK
6
CONTINUOUS
10
5.92426
20
-4.32837
11
5.92372
21
-4.32967
0
LINE
8
BLACK
6
CONTINUOUS
10
5.92372
20
-4.32967
11
5.92242
21
-4.33021
0
LINE
8
BLACK
6
CONTINUOUS
10
5.92242
20
-4.33021
11
5.91139
21
-4.33021
0
LINE
8
BLACK
6
CONTINUOUS
10
5.91139
20
-4.33021
11
5.91111
21
-4.33009
0
LINE
8
BLACK
6
CONTINUOUS
10
5.91111
20
-4.33009
11
5.91081
21
-4.33011
0
LINE
8
BLACK
6
CONTINUOUS
10
5.91081
20
-4.33011
11
5.90419
21
-4.32791
0
LINE
8
BLACK
6
CONTINUOUS
10
5.90419
20
-4.32791
11
5.90387
21
-4.32763
0
LINE
8
BLACK
6
CONTINUOUS
10
5.90387
20
-4.32763
11
5.90347
21
-4.32746
0
LINE
8
BLACK
6
CONTINUOUS
10
5.90347
20
-4.32746
11
5.89906
21
-4.32305
0
LINE
8
BLACK
6
CONTINUOUS
10
5.89906
20
-4.32305
11
5.89895
21
-4.32277
0
LINE
8
BLACK
6
CONTINUOUS
10
5.89895
20
-4.32277
11
5.89872
21
-4.32257
0
LINE
8
BLACK
6
CONTINUOUS
10
5.89872
20
-4.32257
11
5.89651
21
-4.31816
0
LINE
8
BLACK
6
CONTINUOUS
10
5.89651
20
-4.31816
11
5.8965
21
-4.31795
0
LINE
8
BLACK
6
CONTINUOUS
10
5.8965
20
-4.31795
11
5.89637
21
-4.31778
0
LINE
8
BLACK
6
CONTINUOUS
10
5.89637
20
-4.31778
11
5.89417
21
-4.30896
0
LINE
8
BLACK
6
CONTINUOUS
10
5.89417
20
-4.30896
11
5.8942
21
-4.30873
0
LINE
8
BLACK
6
CONTINUOUS
10
5.8942
20
-4.30873
11
5.89411
21
-4.30852
0
LINE
8
BLACK
6
CONTINUOUS
10
5.89411
20
-4.30852
11
5.89411
21
-4.3019
0
LINE
8
BLACK
6
CONTINUOUS
10
5.89411
20
-4.3019
11
5.8942
21
-4.30168
0
LINE
8
BLACK
6
CONTINUOUS
10
5.8942
20
-4.30168
11
5.89417
21
-4.30145
0
LINE
8
BLACK
6
CONTINUOUS
10
5.89417
20
-4.30145
11
5.89637
21
-4.29263
0
LINE
8
BLACK
6
CONTINUOUS
10
5.89637
20
-4.29263
11
5.8965
21
-4.29246
0
LINE
8
BLACK
6
CONTINUOUS
10
5.8965
20
-4.29246
11
5.89651
21
-4.29225
0
LINE
8
BLACK
6
CONTINUOUS
10
5.89651
20
-4.29225
11
5.89872
21
-4.28784
0
LINE
8
BLACK
6
CONTINUOUS
10
5.89872
20
-4.28784
11
5.89895
21
-4.28764
0
LINE
8
BLACK
6
CONTINUOUS
10
5.89895
20
-4.28764
11
5.89906
21
-4.28736
0
LINE
8
BLACK
6
CONTINUOUS
10
5.89906
20
-4.28736
11
5.90347
21
-4.28295
0
LINE
8
BLACK
6
CONTINUOUS
10
5.90347
20
-4.28295
11
5.90387
21
-4.28279
0
LINE
8
BLACK
6
CONTINUOUS
10
5.90387
20
-4.28279
11
5.90419
21
-4.28251
0
LINE
8
BLACK
6
CONTINUOUS
10
5.90419
20
-4.28251
11
5.91081
21
-4.2803
0
LINE
8
BLACK
6
CONTINUOUS
10
5.91081
20
-4.2803
11
5.91111
21
-4.28032
0
LINE
8
BLACK
6
CONTINUOUS
10
5.91111
20
-4.28032
11
5.91139
21
-4.28021
0
LINE
8
BLACK
6
CONTINUOUS
10
5.91139
20
-4.28021
11
5.92242
21
-4.28021
0
LINE
8
BLACK
6
CONTINUOUS
10
5.92242
20
-4.28021
11
5.92372
21
-4.28075
0
LINE
8
BLACK
6
CONTINUOUS
10
5.90577
20
-4.28586
11
5.90188
21
-4.28975
0
LINE
8
BLACK
6
CONTINUOUS
10
5.90188
20
-4.28975
11
5.89989
21
-4.29372
0
LINE
8
BLACK
6
CONTINUOUS
10
5.89989
20
-4.29372
11
5.89779
21
-4.30213
0
LINE
8
BLACK
6
CONTINUOUS
10
5.89779
20
-4.30213
11
5.89779
21
-4.30829
0
LINE
8
BLACK
6
CONTINUOUS
10
5.89779
20
-4.30829
11
5.89989
21
-4.3167
0
LINE
8
BLACK
6
CONTINUOUS
10
5.89989
20
-4.3167
11
5.90188
21
-4.32066
0
LINE
8
BLACK
6
CONTINUOUS
10
5.90188
20
-4.32066
11
5.90577
21
-4.32455
0
LINE
8
BLACK
6
CONTINUOUS
10
5.90577
20
-4.32455
11
5.91169
21
-4.32653
0
LINE
8
BLACK
6
CONTINUOUS
10
5.91169
20
-4.32653
11
5.92058
21
-4.32653
0
LINE
8
BLACK
6
CONTINUOUS
10
5.92058
20
-4.32653
11
5.92058
21
-4.28389
0
LINE
8
BLACK
6
CONTINUOUS
10
5.92058
20
-4.28389
11
5.91169
21
-4.28389
0
LINE
8
BLACK
6
CONTINUOUS
10
5.91169
20
-4.28389
11
5.90577
21
-4.28586
0
LINE
8
BLACK
6
CONTINUOUS
10
5.56623
20
-4.19257
11
5.56715
21
-4.19363
0
LINE
8
BLACK
6
CONTINUOUS
10
5.56715
20
-4.19363
11
5.57818
21
-4.22672
0
LINE
8
BLACK
6
CONTINUOUS
10
5.57818
20
-4.22672
11
5.57816
21
-4.22702
0
LINE
8
BLACK
6
CONTINUOUS
10
5.57816
20
-4.22702
11
5.57828
21
-4.2273
0
LINE
8
BLACK
6
CONTINUOUS
10
5.57828
20
-4.2273
11
5.57811
21
-4.22769
0
LINE
8
BLACK
6
CONTINUOUS
10
5.57811
20
-4.22769
11
5.57808
21
-4.22812
0
LINE
8
BLACK
6
CONTINUOUS
10
5.57808
20
-4.22812
11
5.57785
21
-4.22832
0
LINE
8
BLACK
6
CONTINUOUS
10
5.57785
20
-4.22832
11
5.57774
21
-4.2286
0
LINE
8
BLACK
6
CONTINUOUS
10
5.57774
20
-4.2286
11
5.57734
21
-4.22876
0
LINE
8
BLACK
6
CONTINUOUS
10
5.57734
20
-4.22876
11
5.57702
21
-4.22904
0
LINE
8
BLACK
6
CONTINUOUS
10
5.57702
20
-4.22904
11
5.57672
21
-4.22902
0
LINE
8
BLACK
6
CONTINUOUS
10
5.57672
20
-4.22902
11
5.57644
21
-4.22914
0
LINE
8
BLACK
6
CONTINUOUS
10
5.57644
20
-4.22914
11
5.55622
21
-4.22914
0
LINE
8
BLACK
6
CONTINUOUS
10
5.55622
20
-4.22914
11
5.55622
21
-4.23635
0
LINE
8
BLACK
6
CONTINUOUS
10
5.55622
20
-4.23635
11
5.55708
21
-4.23599
0
LINE
8
BLACK
6
CONTINUOUS
10
5.55708
20
-4.23599
11
5.55838
21
-4.23653
0
LINE
8
BLACK
6
CONTINUOUS
10
5.55838
20
-4.23653
11
5.56058
21
-4.23874
0
LINE
8
BLACK
6
CONTINUOUS
10
5.56058
20
-4.23874
11
5.5607
21
-4.23902
0
LINE
8
BLACK
6
CONTINUOUS
10
5.5607
20
-4.23902
11
5.56093
21
-4.23921
0
LINE
8
BLACK
6
CONTINUOUS
10
5.56093
20
-4.23921
11
5.56313
21
-4.24363
0
LINE
8
BLACK
6
CONTINUOUS
10
5.56313
20
-4.24363
11
5.56316
21
-4.24405
0
LINE
8
BLACK
6
CONTINUOUS
10
5.56316
20
-4.24405
11
5.56333
21
-4.24445
0
LINE
8
BLACK
6
CONTINUOUS
10
5.56333
20
-4.24445
11
5.56333
21
-4.25768
0
LINE
8
BLACK
6
CONTINUOUS
10
5.56333
20
-4.25768
11
5.56316
21
-4.25808
0
LINE
8
BLACK
6
CONTINUOUS
10
5.56316
20
-4.25808
11
5.56313
21
-4.25851
0
LINE
8
BLACK
6
CONTINUOUS
10
5.56313
20
-4.25851
11
5.56093
21
-4.26292
0
LINE
8
BLACK
6
CONTINUOUS
10
5.56093
20
-4.26292
11
5.5607
21
-4.26312
0
LINE
8
BLACK
6
CONTINUOUS
10
5.5607
20
-4.26312
11
5.56058
21
-4.2634
0
LINE
8
BLACK
6
CONTINUOUS
10
5.56058
20
-4.2634
11
5.55838
21
-4.2656
0
LINE
8
BLACK
6
CONTINUOUS
10
5.55838
20
-4.2656
11
5.5581
21
-4.26572
0
LINE
8
BLACK
6
CONTINUOUS
10
5.5581
20
-4.26572
11
5.5579
21
-4.26595
0
LINE
8
BLACK
6
CONTINUOUS
10
5.5579
20
-4.26595
11
5.55349
21
-4.26815
0
LINE
8
BLACK
6
CONTINUOUS
10
5.55349
20
-4.26815
11
5.55306
21
-4.26818
0
LINE
8
BLACK
6
CONTINUOUS
10
5.55306
20
-4.26818
11
5.55266
21
-4.26835
0
LINE
8
BLACK
6
CONTINUOUS
10
5.55266
20
-4.26835
11
5.54164
21
-4.26835
0
LINE
8
BLACK
6
CONTINUOUS
10
5.54164
20
-4.26835
11
5.54124
21
-4.26818
0
LINE
8
BLACK
6
CONTINUOUS
10
5.54124
20
-4.26818
11
5.54081
21
-4.26815
0
LINE
8
BLACK
6
CONTINUOUS
10
5.54081
20
-4.26815
11
5.5364
21
-4.26595
0
LINE
8
BLACK
6
CONTINUOUS
10
5.5364
20
-4.26595
11
5.5362
21
-4.26572
0
LINE
8
BLACK
6
CONTINUOUS
10
5.5362
20
-4.26572
11
5.53592
21
-4.2656
0
LINE
8
BLACK
6
CONTINUOUS
10
5.53592
20
-4.2656
11
5.53372
21
-4.2634
0
LINE
8
BLACK
6
CONTINUOUS
10
5.53372
20
-4.2634
11
5.5336
21
-4.26312
0
LINE
8
BLACK
6
CONTINUOUS
10
5.5336
20
-4.26312
11
5.53337
21
-4.26292
0
LINE
8
BLACK
6
CONTINUOUS
10
5.53337
20
-4.26292
11
5.53117
21
-4.25851
0
LINE
8
BLACK
6
CONTINUOUS
10
5.53117
20
-4.25851
11
5.53114
21
-4.25808
0
LINE
8
BLACK
6
CONTINUOUS
10
5.53114
20
-4.25808
11
5.53097
21
-4.25768
0
LINE
8
BLACK
6
CONTINUOUS
10
5.53097
20
-4.25768
11
5.53097
21
-4.25512
0
LINE
8
BLACK
6
CONTINUOUS
10
5.53097
20
-4.25512
11
5.51638
21
-4.26789
0
LINE
8
BLACK
6
CONTINUOUS
10
5.51638
20
-4.26789
11
5.51577
21
-4.2681
0
LINE
8
BLACK
6
CONTINUOUS
10
5.51577
20
-4.2681
11
5.51517
21
-4.26835
0
LINE
8
BLACK
6
CONTINUOUS
10
5.51517
20
-4.26835
11
5.51511
21
-4.26832
0
LINE
8
BLACK
6
CONTINUOUS
10
5.51511
20
-4.26832
11
5.51504
21
-4.26834
0
LINE
8
BLACK
6
CONTINUOUS
10
5.51504
20
-4.26834
11
5.51446
21
-4.26805
0
LINE
8
BLACK
6
CONTINUOUS
10
5.51446
20
-4.26805
11
5.51387
21
-4.26781
0
LINE
8
BLACK
6
CONTINUOUS
10
5.51387
20
-4.26781
11
5.51384
21
-4.26775
0
LINE
8
BLACK
6
CONTINUOUS
10
5.51384
20
-4.26775
11
5.51378
21
-4.26772
0
LINE
8
BLACK
6
CONTINUOUS
10
5.51378
20
-4.26772
11
5.51357
21
-4.2671
0
LINE
8
BLACK
6
CONTINUOUS
10
5.51357
20
-4.2671
11
5.51333
21
-4.26651
0
LINE
8
BLACK
6
CONTINUOUS
10
5.51333
20
-4.26651
11
5.51333
21
-4.23783
0
LINE
8
BLACK
6
CONTINUOUS
10
5.51333
20
-4.23783
11
5.51387
21
-4.23653
0
LINE
8
BLACK
6
CONTINUOUS
10
5.51387
20
-4.23653
11
5.51517
21
-4.23599
0
LINE
8
BLACK
6
CONTINUOUS
10
5.51517
20
-4.23599
11
5.51647
21
-4.23653
0
LINE
8
BLACK
6
CONTINUOUS
10
5.51647
20
-4.23653
11
5.51701
21
-4.23783
0
LINE
8
BLACK
6
CONTINUOUS
10
5.51701
20
-4.23783
11
5.51701
21
-4.26245
0
LINE
8
BLACK
6
CONTINUOUS
10
5.51701
20
-4.26245
11
5.5316
21
-4.24968
0
LINE
8
BLACK
6
CONTINUOUS
10
5.5316
20
-4.24968
11
5.53221
21
-4.24947
0
LINE
8
BLACK
6
CONTINUOUS
10
5.53221
20
-4.24947
11
5.53281
21
-4.24923
0
LINE
8
BLACK
6
CONTINUOUS
10
5.53281
20
-4.24923
11
5.53287
21
-4.24925
0
LINE
8
BLACK
6
CONTINUOUS
10
5.53287
20
-4.24925
11
5.53294
21
-4.24923
0
LINE
8
BLACK
6
CONTINUOUS
10
5.53294
20
-4.24923
11
5.53352
21
-4.24952
0
LINE
8
BLACK
6
CONTINUOUS
10
5.53352
20
-4.24952
11
5.53411
21
-4.24977
0
LINE
8
BLACK
6
CONTINUOUS
10
5.53411
20
-4.24977
11
5.53414
21
-4.24983
0
LINE
8
BLACK
6
CONTINUOUS
10
5.53414
20
-4.24983
11
5.5342
21
-4.24985
0
LINE
8
BLACK
6
CONTINUOUS
10
5.5342
20
-4.24985
11
5.5344
21
-4.25047
0
LINE
8
BLACK
6
CONTINUOUS
10
5.5344
20
-4.25047
11
5.53465
21
-4.25107
0
LINE
8
BLACK
6
CONTINUOUS
10
5.53465
20
-4.25107
11
5.53465
21
-4.25725
0
LINE
8
BLACK
6
CONTINUOUS
10
5.53465
20
-4.25725
11
5.53653
21
-4.261
0
LINE
8
BLACK
6
CONTINUOUS
10
5.53653
20
-4.261
11
5.53831
21
-4.26279
0
LINE
8
BLACK
6
CONTINUOUS
10
5.53831
20
-4.26279
11
5.54207
21
-4.26467
0
LINE
8
BLACK
6
CONTINUOUS
10
5.54207
20
-4.26467
11
5.55223
21
-4.26467
0
LINE
8
BLACK
6
CONTINUOUS
10
5.55223
20
-4.26467
11
5.55599
21
-4.26279
0
LINE
8
BLACK
6
CONTINUOUS
10
5.55599
20
-4.26279
11
5.55777
21
-4.261
0
LINE
8
BLACK
6
CONTINUOUS
10
5.55777
20
-4.261
11
5.55965
21
-4.25725
0
LINE
8
BLACK
6
CONTINUOUS
10
5.55965
20
-4.25725
11
5.55965
21
-4.24488
0
LINE
8
BLACK
6
CONTINUOUS
10
5.55965
20
-4.24488
11
5.55777
21
-4.24113
0
LINE
8
BLACK
6
CONTINUOUS
10
5.55777
20
-4.24113
11
5.55622
21
-4.23958
0
LINE
8
BLACK
6
CONTINUOUS
10
5.55622
20
-4.23958
11
5.55622
21
-4.24274
0
LINE
8
BLACK
6
CONTINUOUS
10
5.55622
20
-4.24274
11
5.55568
21
-4.24404
0
LINE
8
BLACK
6
CONTINUOUS
10
5.55568
20
-4.24404
11
5.55438
21
-4.24458
0
LINE
8
BLACK
6
CONTINUOUS
10
5.55438
20
-4.24458
11
5.55308
21
-4.24404
0
LINE
8
BLACK
6
CONTINUOUS
10
5.55308
20
-4.24404
11
5.55254
21
-4.24274
0
LINE
8
BLACK
6
CONTINUOUS
10
5.55254
20
-4.24274
11
5.55254
21
-4.22914
0
LINE
8
BLACK
6
CONTINUOUS
10
5.55254
20
-4.22914
11
5.54776
21
-4.22914
0
LINE
8
BLACK
6
CONTINUOUS
10
5.54776
20
-4.22914
11
5.54646
21
-4.2286
0
LINE
8
BLACK
6
CONTINUOUS
10
5.54646
20
-4.2286
11
5.54592
21
-4.2273
0
LINE
8
BLACK
6
CONTINUOUS
10
5.54592
20
-4.2273
11
5.54646
21
-4.226
0
LINE
8
BLACK
6
CONTINUOUS
10
5.54646
20
-4.226
11
5.54776
21
-4.22546
0
LINE
8
BLACK
6
CONTINUOUS
10
5.54776
20
-4.22546
11
5.55254
21
-4.22546
0
LINE
8
BLACK
6
CONTINUOUS
10
5.55254
20
-4.22546
11
5.55254
21
-4.21837
0
LINE
8
BLACK
6
CONTINUOUS
10
5.55254
20
-4.21837
11
5.54127
21
-4.21049
0
LINE
8
BLACK
6
CONTINUOUS
10
5.54127
20
-4.21049
11
5.54127
21
-4.21357
0
LINE
8
BLACK
6
CONTINUOUS
10
5.54127
20
-4.21357
11
5.54111
21
-4.21396
0
LINE
8
BLACK
6
CONTINUOUS
10
5.54111
20
-4.21396
11
5.54108
21
-4.21439
0
LINE
8
BLACK
6
CONTINUOUS
10
5.54108
20
-4.21439
11
5.53887
21
-4.2188
0
LINE
8
BLACK
6
CONTINUOUS
10
5.53887
20
-4.2188
11
5.53864
21
-4.219
0
LINE
8
BLACK
6
CONTINUOUS
10
5.53864
20
-4.219
11
5.53853
21
-4.21928
0
LINE
8
BLACK
6
CONTINUOUS
10
5.53853
20
-4.21928
11
5.53632
21
-4.22149
0
LINE
8
BLACK
6
CONTINUOUS
10
5.53632
20
-4.22149
11
5.53604
21
-4.2216
0
LINE
8
BLACK
6
CONTINUOUS
10
5.53604
20
-4.2216
11
5.53584
21
-4.22183
0
LINE
8
BLACK
6
CONTINUOUS
10
5.53584
20
-4.22183
11
5.53143
21
-4.22404
0
LINE
8
BLACK
6
CONTINUOUS
10
5.53143
20
-4.22404
11
5.531
21
-4.22407
0
LINE
8
BLACK
6
CONTINUOUS
10
5.531
20
-4.22407
11
5.53061
21
-4.22423
0
LINE
8
BLACK
6
CONTINUOUS
10
5.53061
20
-4.22423
11
5.52399
21
-4.22423
0
LINE
8
BLACK
6
CONTINUOUS
10
5.52399
20
-4.22423
11
5.52359
21
-4.22407
0
LINE
8
BLACK
6
CONTINUOUS
10
5.52359
20
-4.22407
11
5.52317
21
-4.22404
0
LINE
8
BLACK
6
CONTINUOUS
10
5.52317
20
-4.22404
11
5.51876
21
-4.22183
0
LINE
8
BLACK
6
CONTINUOUS
10
5.51876
20
-4.22183
11
5.51856
21
-4.2216
0
LINE
8
BLACK
6
CONTINUOUS
10
5.51856
20
-4.2216
11
5.51828
21
-4.22149
0
LINE
8
BLACK
6
CONTINUOUS
10
5.51828
20
-4.22149
11
5.51607
21
-4.21928
0
LINE
8
BLACK
6
CONTINUOUS
10
5.51607
20
-4.21928
11
5.51596
21
-4.219
0
LINE
8
BLACK
6
CONTINUOUS
10
5.51596
20
-4.219
11
5.51573
21
-4.2188
0
LINE
8
BLACK
6
CONTINUOUS
10
5.51573
20
-4.2188
11
5.51352
21
-4.21439
0
LINE
8
BLACK
6
CONTINUOUS
10
5.51352
20
-4.21439
11
5.51349
21
-4.21396
0
LINE
8
BLACK
6
CONTINUOUS
10
5.51349
20
-4.21396
11
5.51333
21
-4.21357
0
LINE
8
BLACK
6
CONTINUOUS
10
5.51333
20
-4.21357
11
5.51333
21
-4.19592
0
LINE
8
BLACK
6
CONTINUOUS
10
5.51333
20
-4.19592
11
5.51387
21
-4.19462
0
LINE
8
BLACK
6
CONTINUOUS
10
5.51387
20
-4.19462
11
5.51517
21
-4.19408
0
LINE
8
BLACK
6
CONTINUOUS
10
5.51517
20
-4.19408
11
5.56149
21
-4.19408
0
LINE
8
BLACK
6
CONTINUOUS
10
5.56149
20
-4.19408
11
5.56279
21
-4.19462
0
LINE
8
BLACK
6
CONTINUOUS
10
5.56279
20
-4.19462
11
5.56333
21
-4.19592
0
LINE
8
BLACK
6
CONTINUOUS
10
5.56333
20
-4.19592
11
5.56279
21
-4.19722
0
LINE
8
BLACK
6
CONTINUOUS
10
5.56279
20
-4.19722
11
5.56149
21
-4.19776
0
LINE
8
BLACK
6
CONTINUOUS
10
5.56149
20
-4.19776
11
5.54127
21
-4.19776
0
LINE
8
BLACK
6
CONTINUOUS
10
5.54127
20
-4.19776
11
5.54127
21
-4.20599
0
LINE
8
BLACK
6
CONTINUOUS
10
5.54127
20
-4.20599
11
5.55254
21
-4.21388
0
LINE
8
BLACK
6
CONTINUOUS
10
5.55254
20
-4.21388
11
5.55254
21
-4.21186
0
LINE
8
BLACK
6
CONTINUOUS
10
5.55254
20
-4.21186
11
5.55308
21
-4.21056
0
LINE
8
BLACK
6
CONTINUOUS
10
5.55308
20
-4.21056
11
5.55438
21
-4.21002
0
LINE
8
BLACK
6
CONTINUOUS
10
5.55438
20
-4.21002
11
5.55568
21
-4.21056
0
LINE
8
BLACK
6
CONTINUOUS
10
5.55568
20
-4.21056
11
5.55622
21
-4.21186
0
LINE
8
BLACK
6
CONTINUOUS
10
5.55622
20
-4.21186
11
5.55622
21
-4.21646
0
LINE
8
BLACK
6
CONTINUOUS
10
5.55622
20
-4.21646
11
5.56254
21
-4.22088
0
LINE
8
BLACK
6
CONTINUOUS
10
5.56254
20
-4.22088
11
5.5633
21
-4.22207
0
LINE
8
BLACK
6
CONTINUOUS
10
5.5633
20
-4.22207
11
5.56299
21
-4.22345
0
LINE
8
BLACK
6
CONTINUOUS
10
5.56299
20
-4.22345
11
5.56181
21
-4.2242
0
LINE
8
BLACK
6
CONTINUOUS
10
5.56181
20
-4.2242
11
5.56043
21
-4.2239
0
LINE
8
BLACK
6
CONTINUOUS
10
5.56043
20
-4.2239
11
5.55622
21
-4.22095
0
LINE
8
BLACK
6
CONTINUOUS
10
5.55622
20
-4.22095
11
5.55622
21
-4.22546
0
LINE
8
BLACK
6
CONTINUOUS
10
5.55622
20
-4.22546
11
5.57388
21
-4.22546
0
LINE
8
BLACK
6
CONTINUOUS
10
5.57388
20
-4.22546
11
5.56366
21
-4.19479
0
LINE
8
BLACK
6
CONTINUOUS
10
5.56366
20
-4.19479
11
5.56376
21
-4.19339
0
LINE
8
BLACK
6
CONTINUOUS
10
5.56376
20
-4.19339
11
5.56483
21
-4.19247
0
LINE
8
BLACK
6
CONTINUOUS
10
5.56483
20
-4.19247
11
5.56623
21
-4.19257
0
LINE
8
BLACK
6
CONTINUOUS
10
5.51701
20
-4.21313
11
5.51889
21
-4.21689
0
LINE
8
BLACK
6
CONTINUOUS
10
5.51889
20
-4.21689
11
5.52067
21
-4.21867
0
LINE
8
BLACK
6
CONTINUOUS
10
5.52067
20
-4.21867
11
5.52442
21
-4.22055
0
LINE
8
BLACK
6
CONTINUOUS
10
5.52442
20
-4.22055
11
5.53017
21
-4.22055
0
LINE
8
BLACK
6
CONTINUOUS
10
5.53017
20
-4.22055
11
5.53393
21
-4.21867
0
LINE
8
BLACK
6
CONTINUOUS
10
5.53393
20
-4.21867
11
5.53571
21
-4.21689
0
LINE
8
BLACK
6
CONTINUOUS
10
5.53571
20
-4.21689
11
5.53759
21
-4.21313
0
LINE
8
BLACK
6
CONTINUOUS
10
5.53759
20
-4.21313
11
5.53759
21
-4.19776
0
LINE
8
BLACK
6
CONTINUOUS
10
5.53759
20
-4.19776
11
5.51701
21
-4.19776
0
LINE
8
BLACK
6
CONTINUOUS
10
5.51701
20
-4.19776
11
5.51701
21
-4.21313
0
LINE
8
BLACK
6
CONTINUOUS
10
5.62185
20
-4.19512
11
5.62239
21
-4.19642
0
LINE
8
BLACK
6
CONTINUOUS
10
5.62239
20
-4.19642
11
5.62239
21
-4.2027
0
LINE
8
BLACK
6
CONTINUOUS
10
5.62239
20
-4.2027
11
5.6232
21
-4.2023
0
LINE
8
BLACK
6
CONTINUOUS
10
5.6232
20
-4.2023
11
5.62369
21
-4.20215
0
LINE
8
BLACK
6
CONTINUOUS
10
5.62369
20
-4.20215
11
5.6238
21
-4.20208
0
LINE
8
BLACK
6
CONTINUOUS
10
5.6238
20
-4.20208
11
5.6313
21
-4.2002
0
LINE
8
BLACK
6
CONTINUOUS
10
5.6313
20
-4.2002
11
5.63189
21
-4.20016
0
LINE
8
BLACK
6
CONTINUOUS
10
5.63189
20
-4.20016
11
5.63202
21
-4.20011
0
LINE
8
BLACK
6
CONTINUOUS
10
5.63202
20
-4.20011
11
5.63764
21
-4.20011
0
LINE
8
BLACK
6
CONTINUOUS
10
5.63764
20
-4.20011
11
5.63822
21
-4.20022
0
LINE
8
BLACK
6
CONTINUOUS
10
5.63822
20
-4.20022
11
5.63836
21
-4.2002
0
LINE
8
BLACK
6
CONTINUOUS
10
5.63836
20
-4.2002
11
5.64586
21
-4.20208
0
LINE
8
BLACK
6
CONTINUOUS
10
5.64586
20
-4.20208
11
5.64632
21
-4.20228
0
LINE
8
BLACK
6
CONTINUOUS
10
5.64632
20
-4.20228
11
5.64646
21
-4.2023
0
LINE
8
BLACK
6
CONTINUOUS
10
5.64646
20
-4.2023
11
5.65021
21
-4.20417
0
LINE
8
BLACK
6
CONTINUOUS
10
5.65021
20
-4.20417
11
5.65092
21
-4.2047
0
LINE
8
BLACK
6
CONTINUOUS
10
5.65092
20
-4.2047
11
5.65098
21
-4.20473
0
LINE
8
BLACK
6
CONTINUOUS
10
5.65098
20
-4.20473
11
5.65473
21
-4.20848
0
LINE
8
BLACK
6
CONTINUOUS
10
5.65473
20
-4.20848
11
5.65532
21
-4.20932
0
LINE
8
BLACK
6
CONTINUOUS
10
5.65532
20
-4.20932
11
5.65533
21
-4.20949
0
LINE
8
BLACK
6
CONTINUOUS
10
5.65533
20
-4.20949
11
5.65544
21
-4.20963
0
LINE
8
BLACK
6
CONTINUOUS
10
5.65544
20
-4.20963
11
5.65732
21
-4.21526
0
LINE
8
BLACK
6
CONTINUOUS
10
5.65732
20
-4.21526
11
5.65745
21
-4.21613
0
LINE
8
BLACK
6
CONTINUOUS
10
5.65745
20
-4.21613
11
5.65747
21
-4.21619
0
LINE
8
BLACK
6
CONTINUOUS
10
5.65747
20
-4.21619
11
5.65747
21
-4.21994
0
LINE
8
BLACK
6
CONTINUOUS
10
5.65747
20
-4.21994
11
5.65731
21
-4.22081
0
LINE
8
BLACK
6
CONTINUOUS
10
5.65731
20
-4.22081
11
5.65732
21
-4.22087
0
LINE
8
BLACK
6
CONTINUOUS
10
5.65732
20
-4.22087
11
5.65544
21
-4.2265
0
LINE
8
BLACK
6
CONTINUOUS
10
5.65544
20
-4.2265
11
5.65495
21
-4.2274
0
LINE
8
BLACK
6
CONTINUOUS
10
5.65495
20
-4.2274
11
5.6548
21
-4.22749
0
LINE
8
BLACK
6
CONTINUOUS
10
5.6548
20
-4.22749
11
5.65473
21
-4.22765
0
LINE
8
BLACK
6
CONTINUOUS
10
5.65473
20
-4.22765
11
5.65285
21
-4.22953
0
LINE
8
BLACK
6
CONTINUOUS
10
5.65285
20
-4.22953
11
5.65201
21
-4.23011
0
LINE
8
BLACK
6
CONTINUOUS
10
5.65201
20
-4.23011
11
5.65
21
-4.23029
0
LINE
8
BLACK
6
CONTINUOUS
10
5.65
20
-4.23029
11
5.64835
21
-4.22913
0
LINE
8
BLACK
6
CONTINUOUS
10
5.64835
20
-4.22913
11
5.64782
21
-4.22718
0
LINE
8
BLACK
6
CONTINUOUS
10
5.64782
20
-4.22718
11
5.64868
21
-4.22535
0
LINE
8
BLACK
6
CONTINUOUS
10
5.64868
20
-4.22535
11
5.65006
21
-4.22397
0
LINE
8
BLACK
6
CONTINUOUS
10
5.65006
20
-4.22397
11
5.65156
21
-4.21946
0
LINE
8
BLACK
6
CONTINUOUS
10
5.65156
20
-4.21946
11
5.65156
21
-4.21667
0
LINE
8
BLACK
6
CONTINUOUS
10
5.65156
20
-4.21667
11
5.65006
21
-4.21216
0
LINE
8
BLACK
6
CONTINUOUS
10
5.65006
20
-4.21216
11
5.64714
21
-4.20924
0
LINE
8
BLACK
6
CONTINUOUS
10
5.64714
20
-4.20924
11
5.64411
21
-4.20773
0
LINE
8
BLACK
6
CONTINUOUS
10
5.64411
20
-4.20773
11
5.63728
21
-4.20602
0
LINE
8
BLACK
6
CONTINUOUS
10
5.63728
20
-4.20602
11
5.63238
21
-4.20602
0
LINE
8
BLACK
6
CONTINUOUS
10
5.63238
20
-4.20602
11
5.62555
21
-4.20773
0
LINE
8
BLACK
6
CONTINUOUS
10
5.62555
20
-4.20773
11
5.62252
21
-4.20924
0
LINE
8
BLACK
6
CONTINUOUS
10
5.62252
20
-4.20924
11
5.62239
21
-4.20937
0
LINE
8
BLACK
6
CONTINUOUS
10
5.62239
20
-4.20937
11
5.62239
21
-4.24274
0
LINE
8
BLACK
6
CONTINUOUS
10
5.62239
20
-4.24274
11
5.62185
21
-4.24404
0
LINE
8
BLACK
6
CONTINUOUS
10
5.62185
20
-4.24404
11
5.62105
21
-4.24437
0
LINE
8
BLACK
6
CONTINUOUS
10
5.62105
20
-4.24437
11
5.62098
21
-4.24452
0
LINE
8
BLACK
6
CONTINUOUS
10
5.62098
20
-4.24452
11
5.61945
21
-4.24606
0
LINE
8
BLACK
6
CONTINUOUS
10
5.61945
20
-4.24606
11
5.6181
21
-4.24876
0
LINE
8
BLACK
6
CONTINUOUS
10
5.6181
20
-4.24876
11
5.6181
21
-4.25674
0
LINE
8
BLACK
6
CONTINUOUS
10
5.6181
20
-4.25674
11
5.61945
21
-4.25943
0
LINE
8
BLACK
6
CONTINUOUS
10
5.61945
20
-4.25943
11
5.62064
21
-4.26063
0
LINE
8
BLACK
6
CONTINUOUS
10
5.62064
20
-4.26063
11
5.62334
21
-4.26198
0
LINE
8
BLACK
6
CONTINUOUS
10
5.62334
20
-4.26198
11
5.62591
21
-4.26198
0
LINE
8
BLACK
6
CONTINUOUS
10
5.62591
20
-4.26198
11
5.63042
21
-4.26048
0
LINE
8
BLACK
6
CONTINUOUS
10
5.63042
20
-4.26048
11
5.65243
21
-4.23847
0
LINE
8
BLACK
6
CONTINUOUS
10
5.65243
20
-4.23847
11
5.65295
21
-4.2381
0
LINE
8
BLACK
6
CONTINUOUS
10
5.65295
20
-4.2381
11
5.65304
21
-4.238
0
LINE
8
BLACK
6
CONTINUOUS
10
5.65304
20
-4.238
11
5.65312
21
-4.23799
0
LINE
8
BLACK
6
CONTINUOUS
10
5.65312
20
-4.23799
11
5.65327
21
-4.23789
0
LINE
8
BLACK
6
CONTINUOUS
10
5.65327
20
-4.23789
11
5.65415
21
-4.23781
0
LINE
8
BLACK
6
CONTINUOUS
10
5.65415
20
-4.23781
11
5.65503
21
-4.23765
0
LINE
8
BLACK
6
CONTINUOUS
10
5.65503
20
-4.23765
11
5.65514
21
-4.23772
0
LINE
8
BLACK
6
CONTINUOUS
10
5.65514
20
-4.23772
11
5.65528
21
-4.23771
0
LINE
8
BLACK
6
CONTINUOUS
10
5.65528
20
-4.23771
11
5.65601
21
-4.23822
0
LINE
8
BLACK
6
CONTINUOUS
10
5.65601
20
-4.23822
11
5.65678
21
-4.23866
0
LINE
8
BLACK
6
CONTINUOUS
10
5.65678
20
-4.23866
11
5.65682
21
-4.23879
0
LINE
8
BLACK
6
CONTINUOUS
10
5.65682
20
-4.23879
11
5.65693
21
-4.23887
0
LINE
8
BLACK
6
CONTINUOUS
10
5.65693
20
-4.23887
11
5.65716
21
-4.23973
0
LINE
8
BLACK
6
CONTINUOUS
10
5.65716
20
-4.23973
11
5.65747
21
-4.24056
0
LINE
8
BLACK
6
CONTINUOUS
10
5.65747
20
-4.24056
11
5.65747
21
-4.26493
0
LINE
8
BLACK
6
CONTINUOUS
10
5.65747
20
-4.26493
11
5.65729
21
-4.26594
0
LINE
8
BLACK
6
CONTINUOUS
10
5.65729
20
-4.26594
11
5.65599
21
-4.26749
0
LINE
8
BLACK
6
CONTINUOUS
10
5.65599
20
-4.26749
11
5.654
21
-4.26784
0
LINE
8
BLACK
6
CONTINUOUS
10
5.654
20
-4.26784
11
5.65225
21
-4.26683
0
LINE
8
BLACK
6
CONTINUOUS
10
5.65225
20
-4.26683
11
5.65156
21
-4.26493
0
LINE
8
BLACK
6
CONTINUOUS
10
5.65156
20
-4.26493
11
5.65156
21
-4.24769
0
LINE
8
BLACK
6
CONTINUOUS
10
5.65156
20
-4.24769
11
5.63411
21
-4.26515
0
LINE
8
BLACK
6
CONTINUOUS
10
5.63411
20
-4.26515
11
5.63327
21
-4.26573
0
LINE
8
BLACK
6
CONTINUOUS
10
5.63327
20
-4.26573
11
5.63309
21
-4.26575
0
LINE
8
BLACK
6
CONTINUOUS
10
5.63309
20
-4.26575
11
5.63295
21
-4.26586
0
LINE
8
BLACK
6
CONTINUOUS
10
5.63295
20
-4.26586
11
5.62733
21
-4.26773
0
LINE
8
BLACK
6
CONTINUOUS
10
5.62733
20
-4.26773
11
5.62645
21
-4.26786
0
LINE
8
BLACK
6
CONTINUOUS
10
5.62645
20
-4.26786
11
5.62639
21
-4.26789
0
LINE
8
BLACK
6
CONTINUOUS
10
5.62639
20
-4.26789
11
5.62264
21
-4.26789
0
LINE
8
BLACK
6
CONTINUOUS
10
5.62264
20
-4.26789
11
5.62163
21
-4.26771
0
LINE
8
BLACK
6
CONTINUOUS
10
5.62163
20
-4.26771
11
5.6215
21
-4.26759
0
LINE
8
BLACK
6
CONTINUOUS
10
5.6215
20
-4.26759
11
5.62132
21
-4.26757
0
LINE
8
BLACK
6
CONTINUOUS
10
5.62132
20
-4.26757
11
5.61757
21
-4.2657
0
LINE
8
BLACK
6
CONTINUOUS
10
5.61757
20
-4.2657
11
5.61686
21
-4.26517
0
LINE
8
BLACK
6
CONTINUOUS
10
5.61686
20
-4.26517
11
5.61681
21
-4.26515
0
LINE
8
BLACK
6
CONTINUOUS
10
5.61681
20
-4.26515
11
5.61493
21
-4.26327
0
LINE
8
BLACK
6
CONTINUOUS
10
5.61493
20
-4.26327
11
5.61442
21
-4.26255
0
LINE
8
BLACK
6
CONTINUOUS
10
5.61442
20
-4.26255
11
5.61438
21
-4.2625
0
LINE
8
BLACK
6
CONTINUOUS
10
5.61438
20
-4.2625
11
5.6125
21
-4.25876
0
LINE
8
BLACK
6
CONTINUOUS
10
5.6125
20
-4.25876
11
5.61221
21
-4.25777
0
LINE
8
BLACK
6
CONTINUOUS
10
5.61221
20
-4.25777
11
5.61225
21
-4.2576
0
LINE
8
BLACK
6
CONTINUOUS
10
5.61225
20
-4.2576
11
5.61219
21
-4.25743
0
LINE
8
BLACK
6
CONTINUOUS
10
5.61219
20
-4.25743
11
5.61219
21
-4.24806
0
LINE
8
BLACK
6
CONTINUOUS
10
5.61219
20
-4.24806
11
5.61237
21
-4.24705
0
LINE
8
BLACK
6
CONTINUOUS
10
5.61237
20
-4.24705
11
5.61248
21
-4.24692
0
LINE
8
BLACK
6
CONTINUOUS
10
5.61248
20
-4.24692
11
5.6125
21
-4.24674
0
LINE
8
BLACK
6
CONTINUOUS
10
5.6125
20
-4.24674
11
5.61438
21
-4.24299
0
LINE
8
BLACK
6
CONTINUOUS
10
5.61438
20
-4.24299
11
5.6149
21
-4.24228
0
LINE
8
BLACK
6
CONTINUOUS
10
5.6149
20
-4.24228
11
5.61493
21
-4.24222
0
LINE
8
BLACK
6
CONTINUOUS
10
5.61493
20
-4.24222
11
5.61681
21
-4.24035
0
LINE
8
BLACK
6
CONTINUOUS
10
5.61681
20
-4.24035
11
5.61765
21
-4.23976
0
LINE
8
BLACK
6
CONTINUOUS
10
5.61765
20
-4.23976
11
5.61871
21
-4.23967
0
LINE
8
BLACK
6
CONTINUOUS
10
5.61871
20
-4.23967
11
5.61871
21
-4.23036
0
LINE
8
BLACK
6
CONTINUOUS
10
5.61871
20
-4.23036
11
5.61864
21
-4.23038
0
LINE
8
BLACK
6
CONTINUOUS
10
5.61864
20
-4.23038
11
5.61681
21
-4.22953
0
LINE
8
BLACK
6
CONTINUOUS
10
5.61681
20
-4.22953
11
5.61493
21
-4.22765
0
LINE
8
BLACK
6
CONTINUOUS
10
5.61493
20
-4.22765
11
5.61434
21
-4.22681
0
LINE
8
BLACK
6
CONTINUOUS
10
5.61434
20
-4.22681
11
5.61433
21
-4.22664
0
LINE
8
BLACK
6
CONTINUOUS
10
5.61433
20
-4.22664
11
5.61422
21
-4.2265
0
LINE
8
BLACK
6
CONTINUOUS
10
5.61422
20
-4.2265
11
5.61289
21
-4.22252
0
LINE
8
BLACK
6
CONTINUOUS
10
5.61289
20
-4.22252
11
5.61048
21
-4.22252
0
LINE
8
BLACK
6
CONTINUOUS
10
5.61048
20
-4.22252
11
5.59559
21
-4.24379
0
LINE
8
BLACK
6
CONTINUOUS
10
5.59559
20
-4.24379
11
5.5944
21
-4.24455
0
LINE
8
BLACK
6
CONTINUOUS
10
5.5944
20
-4.24455
11
5.59303
21
-4.24424
0
LINE
8
BLACK
6
CONTINUOUS
10
5.59303
20
-4.24424
11
5.59227
21
-4.24306
0
LINE
8
BLACK
6
CONTINUOUS
10
5.59227
20
-4.24306
11
5.59257
21
-4.24168
0
LINE
8
BLACK
6
CONTINUOUS
10
5.59257
20
-4.24168
11
5.60599
21
-4.22252
0
LINE
8
BLACK
6
CONTINUOUS
10
5.60599
20
-4.22252
11
5.6029
21
-4.22252
0
LINE
8
BLACK
6
CONTINUOUS
10
5.6029
20
-4.22252
11
5.60251
21
-4.22236
0
LINE
8
BLACK
6
CONTINUOUS
10
5.60251
20
-4.22236
11
5.60208
21
-4.22233
0
LINE
8
BLACK
6
CONTINUOUS
10
5.60208
20
-4.22233
11
5.59767
21
-4.22012
0
LINE
8
BLACK
6
CONTINUOUS
10
5.59767
20
-4.22012
11
5.59747
21
-4.21989
0
LINE
8
BLACK
6
CONTINUOUS
10
5.59747
20
-4.21989
11
5.59719
21
-4.21978
0
LINE
8
BLACK
6
CONTINUOUS
10
5.59719
20
-4.21978
11
5.59499
21
-4.21757
0
LINE
8
BLACK
6
CONTINUOUS
10
5.59499
20
-4.21757
11
5.59487
21
-4.21729
0
LINE
8
BLACK
6
CONTINUOUS
10
5.59487
20
-4.21729
11
5.59464
21
-4.21709
0
LINE
8
BLACK
6
CONTINUOUS
10
5.59464
20
-4.21709
11
5.59244
21
-4.21268
0
LINE
8
BLACK
6
CONTINUOUS
10
5.59244
20
-4.21268
11
5.59241
21
-4.21225
0
LINE
8
BLACK
6
CONTINUOUS
10
5.59241
20
-4.21225
11
5.59224
21
-4.21186
0
LINE
8
BLACK
6
CONTINUOUS
10
5.59224
20
-4.21186
11
5.59224
21
-4.20524
0
LINE
8
BLACK
6
CONTINUOUS
10
5.59224
20
-4.20524
11
5.59241
21
-4.20484
0
LINE
8
BLACK
6
CONTINUOUS
10
5.59241
20
-4.20484
11
5.59244
21
-4.20442
0
LINE
8
BLACK
6
CONTINUOUS
10
5.59244
20
-4.20442
11
5.59464
21
-4.20001
0
LINE
8
BLACK
6
CONTINUOUS
10
5.59464
20
-4.20001
11
5.59487
21
-4.19981
0
LINE
8
BLACK
6
CONTINUOUS
10
5.59487
20
-4.19981
11
5.59499
21
-4.19953
0
LINE
8
BLACK
6
CONTINUOUS
10
5.59499
20
-4.19953
11
5.59719
21
-4.19732
0
LINE
8
BLACK
6
CONTINUOUS
10
5.59719
20
-4.19732
11
5.59747
21
-4.19721
0
LINE
8
BLACK
6
CONTINUOUS
10
5.59747
20
-4.19721
11
5.59767
21
-4.19698
0
LINE
8
BLACK
6
CONTINUOUS
10
5.59767
20
-4.19698
11
5.60208
21
-4.19477
0
LINE
8
BLACK
6
CONTINUOUS
10
5.60208
20
-4.19477
11
5.60251
21
-4.19474
0
LINE
8
BLACK
6
CONTINUOUS
10
5.60251
20
-4.19474
11
5.6029
21
-4.19458
0
LINE
8
BLACK
6
CONTINUOUS
10
5.6029
20
-4.19458
11
5.62055
21
-4.19458
0
LINE
8
BLACK
6
CONTINUOUS
10
5.62055
20
-4.19458
11
5.62185
21
-4.19512
0
LINE
8
BLACK
6
CONTINUOUS
10
5.6181
20
-4.21667
11
5.6181
21
-4.21884
0
LINE
8
BLACK
6
CONTINUOUS
10
5.6181
20
-4.21884
11
5.61871
21
-4.21884
0
LINE
8
BLACK
6
CONTINUOUS
10
5.61871
20
-4.21884
11
5.61871
21
-4.21483
0
LINE
8
BLACK
6
CONTINUOUS
10
5.61871
20
-4.21483
11
5.6181
21
-4.21667
0
LINE
8
BLACK
6
CONTINUOUS
10
5.59958
20
-4.20014
11
5.5978
21
-4.20192
0
LINE
8
BLACK
6
CONTINUOUS
10
5.5978
20
-4.20192
11
5.59592
21
-4.20567
0
LINE
8
BLACK
6
CONTINUOUS
10
5.59592
20
-4.20567
11
5.59592
21
-4.21142
0
LINE
8
BLACK
6
CONTINUOUS
10
5.59592
20
-4.21142
11
5.5978
21
-4.21518
0
LINE
8
BLACK
6
CONTINUOUS
10
5.5978
20
-4.21518
11
5.59958
21
-4.21696
0
LINE
8
BLACK
6
CONTINUOUS
10
5.59958
20
-4.21696
11
5.60334
21
-4.21884
0
LINE
8
BLACK
6
CONTINUOUS
10
5.60334
20
-4.21884
11
5.61219
21
-4.21884
0
LINE
8
BLACK
6
CONTINUOUS
10
5.61219
20
-4.21884
11
5.61219
21
-4.21619
0
LINE
8
BLACK
6
CONTINUOUS
10
5.61219
20
-4.21619
11
5.61234
21
-4.21532
0
LINE
8
BLACK
6
CONTINUOUS
10
5.61234
20
-4.21532
11
5.61234
21
-4.21526
0
LINE
8
BLACK
6
CONTINUOUS
10
5.61234
20
-4.21526
11
5.61422
21
-4.20963
0
LINE
8
BLACK
6
CONTINUOUS
10
5.61422
20
-4.20963
11
5.61471
21
-4.20873
0
LINE
8
BLACK
6
CONTINUOUS
10
5.61471
20
-4.20873
11
5.61486
21
-4.20864
0
LINE
8
BLACK
6
CONTINUOUS
10
5.61486
20
-4.20864
11
5.61493
21
-4.20848
0
LINE
8
BLACK
6
CONTINUOUS
10
5.61493
20
-4.20848
11
5.61868
21
-4.20473
0
LINE
8
BLACK
6
CONTINUOUS
10
5.61868
20
-4.20473
11
5.61871
21
-4.20471
0
LINE
8
BLACK
6
CONTINUOUS
10
5.61871
20
-4.20471
11
5.61871
21
-4.19826
0
LINE
8
BLACK
6
CONTINUOUS
10
5.61871
20
-4.19826
11
5.60334
21
-4.19826
0
LINE
8
BLACK
6
CONTINUOUS
10
5.60334
20
-4.19826
11
5.59958
21
-4.20014
0
LINE
8
BLACK
6
CONTINUOUS
10
5.71947
20
-4.20022
11
5.71961
21
-4.2002
0
LINE
8
BLACK
6
CONTINUOUS
10
5.71961
20
-4.2002
11
5.72711
21
-4.20208
0
LINE
8
BLACK
6
CONTINUOUS
10
5.72711
20
-4.20208
11
5.72757
21
-4.20228
0
LINE
8
BLACK
6
CONTINUOUS
10
5.72757
20
-4.20228
11
5.72771
21
-4.2023
0
LINE
8
BLACK
6
CONTINUOUS
10
5.72771
20
-4.2023
11
5.73146
21
-4.20417
0
LINE
8
BLACK
6
CONTINUOUS
10
5.73146
20
-4.20417
11
5.73217
21
-4.2047
0
LINE
8
BLACK
6
CONTINUOUS
10
5.73217
20
-4.2047
11
5.73223
21
-4.20473
0
LINE
8
BLACK
6
CONTINUOUS
10
5.73223
20
-4.20473
11
5.73598
21
-4.20848
0
LINE
8
BLACK
6
CONTINUOUS
10
5.73598
20
-4.20848
11
5.73657
21
-4.20932
0
LINE
8
BLACK
6
CONTINUOUS
10
5.73657
20
-4.20932
11
5.73658
21
-4.20949
0
LINE
8
BLACK
6
CONTINUOUS
10
5.73658
20
-4.20949
11
5.73669
21
-4.20963
0
LINE
8
BLACK
6
CONTINUOUS
10
5.73669
20
-4.20963
11
5.73857
21
-4.21526
0
LINE
8
BLACK
6
CONTINUOUS
10
5.73857
20
-4.21526
11
5.7387
21
-4.21613
0
LINE
8
BLACK
6
CONTINUOUS
10
5.7387
20
-4.21613
11
5.73872
21
-4.21619
0
LINE
8
BLACK
6
CONTINUOUS
10
5.73872
20
-4.21619
11
5.73872
21
-4.21994
0
LINE
8
BLACK
6
CONTINUOUS
10
5.73872
20
-4.21994
11
5.73856
21
-4.22081
0
LINE
8
BLACK
6
CONTINUOUS
10
5.73856
20
-4.22081
11
5.73857
21
-4.22087
0
LINE
8
BLACK
6
CONTINUOUS
10
5.73857
20
-4.22087
11
5.73669
21
-4.2265
0
LINE
8
BLACK
6
CONTINUOUS
10
5.73669
20
-4.2265
11
5.7362
21
-4.2274
0
LINE
8
BLACK
6
CONTINUOUS
10
5.7362
20
-4.2274
11
5.73605
21
-4.22749
0
LINE
8
BLACK
6
CONTINUOUS
10
5.73605
20
-4.22749
11
5.73598
21
-4.22765
0
LINE
8
BLACK
6
CONTINUOUS
10
5.73598
20
-4.22765
11
5.7341
21
-4.22953
0
LINE
8
BLACK
6
CONTINUOUS
10
5.7341
20
-4.22953
11
5.73405
21
-4.22956
0
LINE
8
BLACK
6
CONTINUOUS
10
5.73405
20
-4.22956
11
5.73405
21
-4.23845
0
LINE
8
BLACK
6
CONTINUOUS
10
5.73405
20
-4.23845
11
5.7341
21
-4.23847
0
LINE
8
BLACK
6
CONTINUOUS
10
5.7341
20
-4.23847
11
5.73598
21
-4.24035
0
LINE
8
BLACK
6
CONTINUOUS
10
5.73598
20
-4.24035
11
5.73648
21
-4.24107
0
LINE
8
BLACK
6
CONTINUOUS
10
5.73648
20
-4.24107
11
5.73653
21
-4.24112
0
LINE
8
BLACK
6
CONTINUOUS
10
5.73653
20
-4.24112
11
5.73841
21
-4.24487
0
LINE
8
BLACK
6
CONTINUOUS
10
5.73841
20
-4.24487
11
5.7387
21
-4.24585
0
LINE
8
BLACK
6
CONTINUOUS
10
5.7387
20
-4.24585
11
5.73866
21
-4.24602
0
LINE
8
BLACK
6
CONTINUOUS
10
5.73866
20
-4.24602
11
5.73872
21
-4.24619
0
LINE
8
BLACK
6
CONTINUOUS
10
5.73872
20
-4.24619
11
5.73872
21
-4.25743
0
LINE
8
BLACK
6
CONTINUOUS
10
5.73872
20
-4.25743
11
5.73854
21
-4.25844
0
LINE
8
BLACK
6
CONTINUOUS
10
5.73854
20
-4.25844
11
5.73843
21
-4.25858
0
LINE
8
BLACK
6
CONTINUOUS
10
5.73843
20
-4.25858
11
5.73841
21
-4.25876
0
LINE
8
BLACK
6
CONTINUOUS
10
5.73841
20
-4.25876
11
5.73653
21
-4.2625
0
LINE
8
BLACK
6
CONTINUOUS
10
5.73653
20
-4.2625
11
5.736
21
-4.26321
0
LINE
8
BLACK
6
CONTINUOUS
10
5.736
20
-4.26321
11
5.73598
21
-4.26327
0
LINE
8
BLACK
6
CONTINUOUS
10
5.73598
20
-4.26327
11
5.7341
21
-4.26515
0
LINE
8
BLACK
6
CONTINUOUS
10
5.7341
20
-4.26515
11
5.73338
21
-4.26565
0
LINE
8
BLACK
6
CONTINUOUS
10
5.73338
20
-4.26565
11
5.73334
21
-4.2657
0
LINE
8
BLACK
6
CONTINUOUS
10
5.73334
20
-4.2657
11
5.72959
21
-4.26757
0
LINE
8
BLACK
6
CONTINUOUS
10
5.72959
20
-4.26757
11
5.7286
21
-4.26787
0
LINE
8
BLACK
6
CONTINUOUS
10
5.7286
20
-4.26787
11
5.72843
21
-4.26783
0
LINE
8
BLACK
6
CONTINUOUS
10
5.72843
20
-4.26783
11
5.72827
21
-4.26789
0
LINE
8
BLACK
6
CONTINUOUS
10
5.72827
20
-4.26789
11
5.71889
21
-4.26789
0
LINE
8
BLACK
6
CONTINUOUS
10
5.71889
20
-4.26789
11
5.71788
21
-4.26771
0
LINE
8
BLACK
6
CONTINUOUS
10
5.71788
20
-4.26771
11
5.71775
21
-4.26759
0
LINE
8
BLACK
6
CONTINUOUS
10
5.71775
20
-4.26759
11
5.71757
21
-4.26757
0
LINE
8
BLACK
6
CONTINUOUS
10
5.71757
20
-4.26757
11
5.71382
21
-4.2657
0
LINE
8
BLACK
6
CONTINUOUS
10
5.71382
20
-4.2657
11
5.71311
21
-4.26517
0
LINE
8
BLACK
6
CONTINUOUS
10
5.71311
20
-4.26517
11
5.71305
21
-4.26515
0
LINE
8
BLACK
6
CONTINUOUS
10
5.71305
20
-4.26515
11
5.71118
21
-4.26327
0
LINE
8
BLACK
6
CONTINUOUS
10
5.71118
20
-4.26327
11
5.71067
21
-4.26255
0
LINE
8
BLACK
6
CONTINUOUS
10
5.71067
20
-4.26255
11
5.71063
21
-4.2625
0
LINE
8
BLACK
6
CONTINUOUS
10
5.71063
20
-4.2625
11
5.70875
21
-4.25876
0
LINE
8
BLACK
6
CONTINUOUS
10
5.70875
20
-4.25876
11
5.70858
21
-4.25819
0
LINE
8
BLACK
6
CONTINUOUS
10
5.70858
20
-4.25819
11
5.69834
21
-4.26716
0
LINE
8
BLACK
6
CONTINUOUS
10
5.69834
20
-4.26716
11
5.69796
21
-4.26739
0
LINE
8
BLACK
6
CONTINUOUS
10
5.69796
20
-4.26739
11
5.69787
21
-4.26749
0
LINE
8
BLACK
6
CONTINUOUS
10
5.69787
20
-4.26749
11
5.69775
21
-4.26751
0
LINE
8
BLACK
6
CONTINUOUS
10
5.69775
20
-4.26751
11
5.69746
21
-4.26769
0
LINE
8
BLACK
6
CONTINUOUS
10
5.69746
20
-4.26769
11
5.69667
21
-4.2677
0
LINE
8
BLACK
6
CONTINUOUS
10
5.69667
20
-4.2677
11
5.69588
21
-4.26784
0
LINE
8
BLACK
6
CONTINUOUS
10
5.69588
20
-4.26784
11
5.69568
21
-4.26772
0
LINE
8
BLACK
6
CONTINUOUS
10
5.69568
20
-4.26772
11
5.69544
21
-4.26773
0
LINE
8
BLACK
6
CONTINUOUS
10
5.69544
20
-4.26773
11
5.69482
21
-4.26723
0
LINE
8
BLACK
6
CONTINUOUS
10
5.69482
20
-4.26723
11
5.69413
21
-4.26683
0
LINE
8
BLACK
6
CONTINUOUS
10
5.69413
20
-4.26683
11
5.69405
21
-4.26661
0
LINE
8
BLACK
6
CONTINUOUS
10
5.69405
20
-4.26661
11
5.69387
21
-4.26646
0
LINE
8
BLACK
6
CONTINUOUS
10
5.69387
20
-4.26646
11
5.69371
21
-4.26568
0
LINE
8
BLACK
6
CONTINUOUS
10
5.69371
20
-4.26568
11
5.69344
21
-4.26493
0
LINE
8
BLACK
6
CONTINUOUS
10
5.69344
20
-4.26493
11
5.69344
21
-4.24056
0
LINE
8
BLACK
6
CONTINUOUS
10
5.69344
20
-4.24056
11
5.69362
21
-4.23955
0
LINE
8
BLACK
6
CONTINUOUS
10
5.69362
20
-4.23955
11
5.69492
21
-4.238
0
LINE
8
BLACK
6
CONTINUOUS
10
5.69492
20
-4.238
11
5.69691
21
-4.23765
0
LINE
8
BLACK
6
CONTINUOUS
10
5.69691
20
-4.23765
11
5.69866
21
-4.23866
0
LINE
8
BLACK
6
CONTINUOUS
10
5.69866
20
-4.23866
11
5.69935
21
-4.24056
0
LINE
8
BLACK
6
CONTINUOUS
10
5.69935
20
-4.24056
11
5.69935
21
-4.25843
0
LINE
8
BLACK
6
CONTINUOUS
10
5.69935
20
-4.25843
11
5.70945
21
-4.24959
0
LINE
8
BLACK
6
CONTINUOUS
10
5.70945
20
-4.24959
11
5.70983
21
-4.24936
0
LINE
8
BLACK
6
CONTINUOUS
10
5.70983
20
-4.24936
11
5.70992
21
-4.24925
0
LINE
8
BLACK
6
CONTINUOUS
10
5.70992
20
-4.24925
11
5.71004
21
-4.24923
0
LINE
8
BLACK
6
CONTINUOUS
10
5.71004
20
-4.24923
11
5.71033
21
-4.24906
0
LINE
8
BLACK
6
CONTINUOUS
10
5.71033
20
-4.24906
11
5.71112
21
-4.24904
0
LINE
8
BLACK
6
CONTINUOUS
10
5.71112
20
-4.24904
11
5.71191
21
-4.2489
0
LINE
8
BLACK
6
CONTINUOUS
10
5.71191
20
-4.2489
11
5.71211
21
-4.24902
0
LINE
8
BLACK
6
CONTINUOUS
10
5.71211
20
-4.24902
11
5.71234
21
-4.24902
0
LINE
8
BLACK
6
CONTINUOUS
10
5.71234
20
-4.24902
11
5.71297
21
-4.24951
0
LINE
8
BLACK
6
CONTINUOUS
10
5.71297
20
-4.24951
11
5.71365
21
-4.24991
0
LINE
8
BLACK
6
CONTINUOUS
10
5.71365
20
-4.24991
11
5.71374
21
-4.25013
0
LINE
8
BLACK
6
CONTINUOUS
10
5.71374
20
-4.25013
11
5.71392
21
-4.25028
0
LINE
8
BLACK
6
CONTINUOUS
10
5.71392
20
-4.25028
11
5.71407
21
-4.25106
0
LINE
8
BLACK
6
CONTINUOUS
10
5.71407
20
-4.25106
11
5.71435
21
-4.25181
0
LINE
8
BLACK
6
CONTINUOUS
10
5.71435
20
-4.25181
11
5.71435
21
-4.25674
0
LINE
8
BLACK
6
CONTINUOUS
10
5.71435
20
-4.25674
11
5.71569
21
-4.25943
0
LINE
8
BLACK
6
CONTINUOUS
10
5.71569
20
-4.25943
11
5.71689
21
-4.26063
0
LINE
8
BLACK
6
CONTINUOUS
10
5.71689
20
-4.26063
11
5.71959
21
-4.26198
0
LINE
8
BLACK
6
CONTINUOUS
10
5.71959
20
-4.26198
11
5.72757
21
-4.26198
0
LINE
8
BLACK
6
CONTINUOUS
10
5.72757
20
-4.26198
11
5.73027
21
-4.26063
0
LINE
8
BLACK
6
CONTINUOUS
10
5.73027
20
-4.26063
11
5.73146
21
-4.25943
0
LINE
8
BLACK
6
CONTINUOUS
10
5.73146
20
-4.25943
11
5.73281
21
-4.25674
0
LINE
8
BLACK
6
CONTINUOUS
10
5.73281
20
-4.25674
11
5.73281
21
-4.24688
0
LINE
8
BLACK
6
CONTINUOUS
10
5.73281
20
-4.24688
11
5.73252
21
-4.2463
0
LINE
8
BLACK
6
CONTINUOUS
10
5.73252
20
-4.2463
11
5.73169
21
-4.24665
0
LINE
8
BLACK
6
CONTINUOUS
10
5.73169
20
-4.24665
11
5.73002
21
-4.24596
0
LINE
8
BLACK
6
CONTINUOUS
10
5.73002
20
-4.24596
11
5.72932
21
-4.24429
0
LINE
8
BLACK
6
CONTINUOUS
10
5.72932
20
-4.24429
11
5.72932
21
-4.24165
0
LINE
8
BLACK
6
CONTINUOUS
10
5.72932
20
-4.24165
11
5.72916
21
-4.2398
0
LINE
8
BLACK
6
CONTINUOUS
10
5.72916
20
-4.2398
11
5.72932
21
-4.23957
0
LINE
8
BLACK
6
CONTINUOUS
10
5.72932
20
-4.23957
11
5.72932
21
-4.22812
0
LINE
8
BLACK
6
CONTINUOUS
10
5.72932
20
-4.22812
11
5.72907
21
-4.22718
0
LINE
8
BLACK
6
CONTINUOUS
10
5.72907
20
-4.22718
11
5.72932
21
-4.22664
0
LINE
8
BLACK
6
CONTINUOUS
10
5.72932
20
-4.22664
11
5.72932
21
-4.22371
0
LINE
8
BLACK
6
CONTINUOUS
10
5.72932
20
-4.22371
11
5.73002
21
-4.22204
0
LINE
8
BLACK
6
CONTINUOUS
10
5.73002
20
-4.22204
11
5.73169
21
-4.22135
0
LINE
8
BLACK
6
CONTINUOUS
10
5.73169
20
-4.22135
11
5.73212
21
-4.22153
0
LINE
8
BLACK
6
CONTINUOUS
10
5.73212
20
-4.22153
11
5.73281
21
-4.21946
0
LINE
8
BLACK
6
CONTINUOUS
10
5.73281
20
-4.21946
11
5.73281
21
-4.21667
0
LINE
8
BLACK
6
CONTINUOUS
10
5.73281
20
-4.21667
11
5.73131
21
-4.21216
0
LINE
8
BLACK
6
CONTINUOUS
10
5.73131
20
-4.21216
11
5.72839
21
-4.20924
0
LINE
8
BLACK
6
CONTINUOUS
10
5.72839
20
-4.20924
11
5.72536
21
-4.20773
0
LINE
8
BLACK
6
CONTINUOUS
10
5.72536
20
-4.20773
11
5.71853
21
-4.20602
0
LINE
8
BLACK
6
CONTINUOUS
10
5.71853
20
-4.20602
11
5.71363
21
-4.20602
0
LINE
8
BLACK
6
CONTINUOUS
10
5.71363
20
-4.20602
11
5.7068
21
-4.20773
0
LINE
8
BLACK
6
CONTINUOUS
10
5.7068
20
-4.20773
11
5.70377
21
-4.20924
0
LINE
8
BLACK
6
CONTINUOUS
10
5.70377
20
-4.20924
11
5.70085
21
-4.21216
0
LINE
8
BLACK
6
CONTINUOUS
10
5.70085
20
-4.21216
11
5.69935
21
-4.21667
0
LINE
8
BLACK
6
CONTINUOUS
10
5.69935
20
-4.21667
11
5.69935
21
-4.21946
0
LINE
8
BLACK
6
CONTINUOUS
10
5.69935
20
-4.21946
11
5.70085
21
-4.22397
0
LINE
8
BLACK
6
CONTINUOUS
10
5.70085
20
-4.22397
11
5.70223
21
-4.22535
0
LINE
8
BLACK
6
CONTINUOUS
10
5.70223
20
-4.22535
11
5.70282
21
-4.22619
0
LINE
8
BLACK
6
CONTINUOUS
10
5.70282
20
-4.22619
11
5.703
21
-4.2282
0
LINE
8
BLACK
6
CONTINUOUS
10
5.703
20
-4.2282
11
5.70184
21
-4.22986
0
LINE
8
BLACK
6
CONTINUOUS
10
5.70184
20
-4.22986
11
5.69989
21
-4.23038
0
LINE
8
BLACK
6
CONTINUOUS
10
5.69989
20
-4.23038
11
5.69806
21
-4.22953
0
LINE
8
BLACK
6
CONTINUOUS
10
5.69806
20
-4.22953
11
5.69618
21
-4.22765
0
LINE
8
BLACK
6
CONTINUOUS
10
5.69618
20
-4.22765
11
5.69559
21
-4.22681
0
LINE
8
BLACK
6
CONTINUOUS
10
5.69559
20
-4.22681
11
5.69558
21
-4.22664
0
LINE
8
BLACK
6
CONTINUOUS
10
5.69558
20
-4.22664
11
5.69547
21
-4.2265
0
LINE
8
BLACK
6
CONTINUOUS
10
5.69547
20
-4.2265
11
5.69359
21
-4.22087
0
LINE
8
BLACK
6
CONTINUOUS
10
5.69359
20
-4.22087
11
5.69346
21
-4.22
0
LINE
8
BLACK
6
CONTINUOUS
10
5.69346
20
-4.22
11
5.69344
21
-4.21994
0
LINE
8
BLACK
6
CONTINUOUS
10
5.69344
20
-4.21994
11
5.69344
21
-4.21619
0
LINE
8
BLACK
6
CONTINUOUS
10
5.69344
20
-4.21619
11
5.69359
21
-4.21532
0
LINE
8
BLACK
6
CONTINUOUS
10
5.69359
20
-4.21532
11
5.69359
21
-4.21526
0
LINE
8
BLACK
6
CONTINUOUS
10
5.69359
20
-4.21526
11
5.69547
21
-4.20963
0
LINE
8
BLACK
6
CONTINUOUS
10
5.69547
20
-4.20963
11
5.69596
21
-4.20873
0
LINE
8
BLACK
6
CONTINUOUS
10
5.69596
20
-4.20873
11
5.69611
21
-4.20864
0
LINE
8
BLACK
6
CONTINUOUS
10
5.69611
20
-4.20864
11
5.69618
21
-4.20848
0
LINE
8
BLACK
6
CONTINUOUS
10
5.69618
20
-4.20848
11
5.69993
21
-4.20473
0
LINE
8
BLACK
6
CONTINUOUS
10
5.69993
20
-4.20473
11
5.70065
21
-4.20422
0
LINE
8
BLACK
6
CONTINUOUS
10
5.70065
20
-4.20422
11
5.7007
21
-4.20417
0
LINE
8
BLACK
6
CONTINUOUS
10
5.7007
20
-4.20417
11
5.70445
21
-4.2023
0
LINE
8
BLACK
6
CONTINUOUS
10
5.70445
20
-4.2023
11
5.70494
21
-4.20215
0
LINE
8
BLACK
6
CONTINUOUS
10
5.70494
20
-4.20215
11
5.70505
21
-4.20208
0
LINE
8
BLACK
6
CONTINUOUS
10
5.70505
20
-4.20208
11
5.71255
21
-4.2002
0
LINE
8
BLACK
6
CONTINUOUS
10
5.71255
20
-4.2002
11
5.71314
21
-4.20016
0
LINE
8
BLACK
6
CONTINUOUS
10
5.71314
20
-4.20016
11
5.71327
21
-4.20011
0
LINE
8
BLACK
6
CONTINUOUS
10
5.71327
20
-4.20011
11
5.71889
21
-4.20011
0
LINE
8
BLACK
6
CONTINUOUS
10
5.71889
20
-4.20011
11
5.71947
21
-4.20022
0
LINE
8
BLACK
6
CONTINUOUS
10
5.67548
20
-4.22204
11
5.67618
21
-4.22371
0
LINE
8
BLACK
6
CONTINUOUS
10
5.67618
20
-4.22371
11
5.67618
21
-4.24429
0
LINE
8
BLACK
6
CONTINUOUS
10
5.67618
20
-4.24429
11
5.67548
21
-4.24596
0
LINE
8
BLACK
6
CONTINUOUS
10
5.67548
20
-4.24596
11
5.67381
21
-4.24665
0
LINE
8
BLACK
6
CONTINUOUS
10
5.67381
20
-4.24665
11
5.67214
21
-4.24596
0
LINE
8
BLACK
6
CONTINUOUS
10
5.67214
20
-4.24596
11
5.67145
21
-4.24429
0
LINE
8
BLACK
6
CONTINUOUS
10
5.67145
20
-4.24429
11
5.67145
21
-4.22371
0
LINE
8
BLACK
6
CONTINUOUS
10
5.67145
20
-4.22371
11
5.67214
21
-4.22204
0
LINE
8
BLACK
6
CONTINUOUS
10
5.67214
20
-4.22204
11
5.67381
21
-4.22135
0
LINE
8
BLACK
6
CONTINUOUS
10
5.67381
20
-4.22135
11
5.67548
21
-4.22204
0
LINE
8
BLACK
6
CONTINUOUS
10
5.75673
20
-4.22204
11
5.75743
21
-4.22371
0
LINE
8
BLACK
6
CONTINUOUS
10
5.75743
20
-4.22371
11
5.75743
21
-4.24429
0
LINE
8
BLACK
6
CONTINUOUS
10
5.75743
20
-4.24429
11
5.75673
21
-4.24596
0
LINE
8
BLACK
6
CONTINUOUS
10
5.75673
20
-4.24596
11
5.75506
21
-4.24665
0
LINE
8
BLACK
6
CONTINUOUS
10
5.75506
20
-4.24665
11
5.75339
21
-4.24596
0
LINE
8
BLACK
6
CONTINUOUS
10
5.75339
20
-4.24596
11
5.7527
21
-4.24429
0
LINE
8
BLACK
6
CONTINUOUS
10
5.7527
20
-4.24429
11
5.7527
21
-4.22371
0
LINE
8
BLACK
6
CONTINUOUS
10
5.7527
20
-4.22371
11
5.75339
21
-4.22204
0
LINE
8
BLACK
6
CONTINUOUS
10
5.75339
20
-4.22204
11
5.75506
21
-4.22135
0
LINE
8
BLACK
6
CONTINUOUS
10
5.75506
20
-4.22135
11
5.75673
21
-4.22204
0
LINE
8
BLACK
6
CONTINUOUS
10
5.81461
20
-4.22204
11
5.8153
21
-4.22371
0
LINE
8
BLACK
6
CONTINUOUS
10
5.8153
20
-4.22371
11
5.8153
21
-4.24429
0
LINE
8
BLACK
6
CONTINUOUS
10
5.8153
20
-4.24429
11
5.81461
21
-4.24596
0
LINE
8
BLACK
6
CONTINUOUS
10
5.81461
20
-4.24596
11
5.81294
21
-4.24665
0
LINE
8
BLACK
6
CONTINUOUS
10
5.81294
20
-4.24665
11
5.81127
21
-4.24596
0
LINE
8
BLACK
6
CONTINUOUS
10
5.81127
20
-4.24596
11
5.81057
21
-4.24429
0
LINE
8
BLACK
6
CONTINUOUS
10
5.81057
20
-4.24429
11
5.81057
21
-4.22371
0
LINE
8
BLACK
6
CONTINUOUS
10
5.81057
20
-4.22371
11
5.81127
21
-4.22204
0
LINE
8
BLACK
6
CONTINUOUS
10
5.81127
20
-4.22204
11
5.81294
21
-4.22135
0
LINE
8
BLACK
6
CONTINUOUS
10
5.81294
20
-4.22135
11
5.81461
21
-4.22204
0
LINE
8
BLACK
6
CONTINUOUS
10
6.03516
20
-4.21016
11
6.03827
21
-4.21223
0
LINE
8
BLACK
6
CONTINUOUS
10
6.03827
20
-4.21223
11
6.04034
21
-4.21534
0
LINE
8
BLACK
6
CONTINUOUS
10
6.04034
20
-4.21534
11
6.04107
21
-4.219
0
LINE
8
BLACK
6
CONTINUOUS
10
6.04107
20
-4.219
11
6.04034
21
-4.22266
0
LINE
8
BLACK
6
CONTINUOUS
10
6.04034
20
-4.22266
11
6.03827
21
-4.22577
0
LINE
8
BLACK
6
CONTINUOUS
10
6.03827
20
-4.22577
11
6.03516
21
-4.22784
0
LINE
8
BLACK
6
CONTINUOUS
10
6.03516
20
-4.22784
11
6.0315
21
-4.22857
0
LINE
8
BLACK
6
CONTINUOUS
10
6.0315
20
-4.22857
11
6.02784
21
-4.22784
0
LINE
8
BLACK
6
CONTINUOUS
10
6.02784
20
-4.22784
11
6.02473
21
-4.22577
0
LINE
8
BLACK
6
CONTINUOUS
10
6.02473
20
-4.22577
11
6.02266
21
-4.22266
0
LINE
8
BLACK
6
CONTINUOUS
10
6.02266
20
-4.22266
11
6.02193
21
-4.219
0
LINE
8
BLACK
6
CONTINUOUS
10
6.02193
20
-4.219
11
6.02266
21
-4.21534
0
LINE
8
BLACK
6
CONTINUOUS
10
6.02266
20
-4.21534
11
6.02473
21
-4.21223
0
LINE
8
BLACK
6
CONTINUOUS
10
6.02473
20
-4.21223
11
6.02784
21
-4.21016
0
LINE
8
BLACK
6
CONTINUOUS
10
6.02784
20
-4.21016
11
6.0315
21
-4.20943
0
LINE
8
BLACK
6
CONTINUOUS
10
6.0315
20
-4.20943
11
6.03516
21
-4.21016
0
LINE
8
BLACK
6
CONTINUOUS
10
6.0274
20
-4.22137
11
6.02913
21
-4.2231
0
LINE
8
BLACK
6
CONTINUOUS
10
6.02913
20
-4.2231
11
6.0315
21
-4.22373
0
LINE
8
BLACK
6
CONTINUOUS
10
6.0315
20
-4.22373
11
6.03387
21
-4.2231
0
LINE
8
BLACK
6
CONTINUOUS
10
6.03387
20
-4.2231
11
6.0356
21
-4.22137
0
LINE
8
BLACK
6
CONTINUOUS
10
6.0356
20
-4.22137
11
6.03623
21
-4.219
0
LINE
8
BLACK
6
CONTINUOUS
10
6.03623
20
-4.219
11
6.0356
21
-4.21663
0
LINE
8
BLACK
6
CONTINUOUS
10
6.0356
20
-4.21663
11
6.03387
21
-4.2149
0
LINE
8
BLACK
6
CONTINUOUS
10
6.03387
20
-4.2149
11
6.0315
21
-4.21427
0
LINE
8
BLACK
6
CONTINUOUS
10
6.0315
20
-4.21427
11
6.02913
21
-4.2149
0
LINE
8
BLACK
6
CONTINUOUS
10
6.02913
20
-4.2149
11
6.0274
21
-4.21663
0
LINE
8
BLACK
6
CONTINUOUS
10
6.0274
20
-4.21663
11
6.02677
21
-4.219
0
LINE
8
BLACK
6
CONTINUOUS
10
6.02677
20
-4.219
11
6.0274
21
-4.22137
0
LINE
8
BLACK
6
CONTINUOUS
10
5.93635
20
-4.11138
11
5.93654
21
-4.11135
0
LINE
8
BLACK
6
CONTINUOUS
10
5.93654
20
-4.11135
11
5.93698
21
-4.11164
0
LINE
8
BLACK
6
CONTINUOUS
10
5.93698
20
-4.11164
11
5.93748
21
-4.11185
0
LINE
8
BLACK
6
CONTINUOUS
10
5.93748
20
-4.11185
11
5.93755
21
-4.11202
0
LINE
8
BLACK
6
CONTINUOUS
10
5.93755
20
-4.11202
11
5.93771
21
-4.11213
0
LINE
8
BLACK
6
CONTINUOUS
10
5.93771
20
-4.11213
11
5.94202
21
-4.11859
0
LINE
8
BLACK
6
CONTINUOUS
10
5.94202
20
-4.11859
11
5.94609
21
-4.12267
0
LINE
8
BLACK
6
CONTINUOUS
10
5.94609
20
-4.12267
11
5.95023
21
-4.12474
0
LINE
8
BLACK
6
CONTINUOUS
10
5.95023
20
-4.12474
11
5.95116
21
-4.1258
0
LINE
8
BLACK
6
CONTINUOUS
10
5.95116
20
-4.1258
11
5.95106
21
-4.12721
0
LINE
8
BLACK
6
CONTINUOUS
10
5.95106
20
-4.12721
11
5.94999
21
-4.12813
0
LINE
8
BLACK
6
CONTINUOUS
10
5.94999
20
-4.12813
11
5.94859
21
-4.12803
0
LINE
8
BLACK
6
CONTINUOUS
10
5.94859
20
-4.12803
11
5.94418
21
-4.12582
0
LINE
8
BLACK
6
CONTINUOUS
10
5.94418
20
-4.12582
11
5.94398
21
-4.12559
0
LINE
8
BLACK
6
CONTINUOUS
10
5.94398
20
-4.12559
11
5.9437
21
-4.12548
0
LINE
8
BLACK
6
CONTINUOUS
10
5.9437
20
-4.12548
11
5.93929
21
-4.12107
0
LINE
8
BLACK
6
CONTINUOUS
10
5.93929
20
-4.12107
11
5.93921
21
-4.12089
0
LINE
8
BLACK
6
CONTINUOUS
10
5.93921
20
-4.12089
11
5.93906
21
-4.12079
0
LINE
8
BLACK
6
CONTINUOUS
10
5.93906
20
-4.12079
11
5.93802
21
-4.11923
0
LINE
8
BLACK
6
CONTINUOUS
10
5.93802
20
-4.11923
11
5.93802
21
-4.15763
0
LINE
8
BLACK
6
CONTINUOUS
10
5.93802
20
-4.15763
11
5.94941
21
-4.15763
0
LINE
8
BLACK
6
CONTINUOUS
10
5.94941
20
-4.15763
11
5.95071
21
-4.15817
0
LINE
8
BLACK
6
CONTINUOUS
10
5.95071
20
-4.15817
11
5.95125
21
-4.15947
0
LINE
8
BLACK
6
CONTINUOUS
10
5.95125
20
-4.15947
11
5.95071
21
-4.16077
0
LINE
8
BLACK
6
CONTINUOUS
10
5.95071
20
-4.16077
11
5.94941
21
-4.16131
0
LINE
8
BLACK
6
CONTINUOUS
10
5.94941
20
-4.16131
11
5.93618
21
-4.16131
0
LINE
8
BLACK
6
CONTINUOUS
10
5.93618
20
-4.16131
11
5.92294
21
-4.16131
0
LINE
8
BLACK
6
CONTINUOUS
10
5.92294
20
-4.16131
11
5.92164
21
-4.16077
0
LINE
8
BLACK
6
CONTINUOUS
10
5.92164
20
-4.16077
11
5.9211
21
-4.15947
0
LINE
8
BLACK
6
CONTINUOUS
10
5.9211
20
-4.15947
11
5.92164
21
-4.15817
0
LINE
8
BLACK
6
CONTINUOUS
10
5.92164
20
-4.15817
11
5.92294
21
-4.15763
0
LINE
8
BLACK
6
CONTINUOUS
10
5.92294
20
-4.15763
11
5.93434
21
-4.15763
0
LINE
8
BLACK
6
CONTINUOUS
10
5.93434
20
-4.15763
11
5.93434
21
-4.11315
0
LINE
8
BLACK
6
CONTINUOUS
10
5.93434
20
-4.11315
11
5.93441
21
-4.11297
0
LINE
8
BLACK
6
CONTINUOUS
10
5.93441
20
-4.11297
11
5.93437
21
-4.11279
0
LINE
8
BLACK
6
CONTINUOUS
10
5.93437
20
-4.11279
11
5.93467
21
-4.11234
0
LINE
8
BLACK
6
CONTINUOUS
10
5.93467
20
-4.11234
11
5.93487
21
-4.11185
0
LINE
8
BLACK
6
CONTINUOUS
10
5.93487
20
-4.11185
11
5.93505
21
-4.11178
0
LINE
8
BLACK
6
CONTINUOUS
10
5.93505
20
-4.11178
11
5.93515
21
-4.11162
0
LINE
8
BLACK
6
CONTINUOUS
10
5.93515
20
-4.11162
11
5.93568
21
-4.11151
0
LINE
8
BLACK
6
CONTINUOUS
10
5.93568
20
-4.11151
11
5.93618
21
-4.11131
0
LINE
8
BLACK
6
CONTINUOUS
10
5.93618
20
-4.11131
11
5.93635
21
-4.11138
0
LINE
8
BLACK
6
CONTINUOUS
10
5.99675
20
-4.11162
11
5.99753
21
-4.11279
0
LINE
8
BLACK
6
CONTINUOUS
10
5.99753
20
-4.11279
11
5.99726
21
-4.11417
0
LINE
8
BLACK
6
CONTINUOUS
10
5.99726
20
-4.11417
11
5.9825
21
-4.13631
0
LINE
8
BLACK
6
CONTINUOUS
10
5.9825
20
-4.13631
11
5.99726
21
-4.15845
0
LINE
8
BLACK
6
CONTINUOUS
10
5.99726
20
-4.15845
11
5.99753
21
-4.15983
0
LINE
8
BLACK
6
CONTINUOUS
10
5.99753
20
-4.15983
11
5.99675
21
-4.161
0
LINE
8
BLACK
6
CONTINUOUS
10
5.99675
20
-4.161
11
5.99537
21
-4.16127
0
LINE
8
BLACK
6
CONTINUOUS
10
5.99537
20
-4.16127
11
5.9942
21
-4.16049
0
LINE
8
BLACK
6
CONTINUOUS
10
5.9942
20
-4.16049
11
5.98029
21
-4.13963
0
LINE
8
BLACK
6
CONTINUOUS
10
5.98029
20
-4.13963
11
5.96638
21
-4.16049
0
LINE
8
BLACK
6
CONTINUOUS
10
5.96638
20
-4.16049
11
5.96521
21
-4.16127
0
LINE
8
BLACK
6
CONTINUOUS
10
5.96521
20
-4.16127
11
5.96383
21
-4.161
0
LINE
8
BLACK
6
CONTINUOUS
10
5.96383
20
-4.161
11
5.96305
21
-4.15983
0
LINE
8
BLACK
6
CONTINUOUS
10
5.96305
20
-4.15983
11
5.96332
21
-4.15845
0
LINE
8
BLACK
6
CONTINUOUS
10
5.96332
20
-4.15845
11
5.97808
21
-4.13631
0
LINE
8
BLACK
6
CONTINUOUS
10
5.97808
20
-4.13631
11
5.96332
21
-4.11417
0
LINE
8
BLACK
6
CONTINUOUS
10
5.96332
20
-4.11417
11
5.96305
21
-4.11279
0
LINE
8
BLACK
6
CONTINUOUS
10
5.96305
20
-4.11279
11
5.96383
21
-4.11162
0
LINE
8
BLACK
6
CONTINUOUS
10
5.96383
20
-4.11162
11
5.96521
21
-4.11135
0
LINE
8
BLACK
6
CONTINUOUS
10
5.96521
20
-4.11135
11
5.96638
21
-4.11213
0
LINE
8
BLACK
6
CONTINUOUS
10
5.96638
20
-4.11213
11
5.98029
21
-4.13299
0
LINE
8
BLACK
6
CONTINUOUS
10
5.98029
20
-4.13299
11
5.9942
21
-4.11213
0
LINE
8
BLACK
6
CONTINUOUS
10
5.9942
20
-4.11213
11
5.99537
21
-4.11135
0
LINE
8
BLACK
6
CONTINUOUS
10
5.99537
20
-4.11135
11
5.99675
21
-4.11162
0
LINE
8
BLACK
6
CONTINUOUS
10
6.05024
20
-4.07776
11
6.05201
21
-4.07849
0
LINE
8
BLACK
6
CONTINUOUS
10
6.05201
20
-4.07849
11
6.05274
21
-4.08026
0
LINE
8
BLACK
6
CONTINUOUS
10
6.05274
20
-4.08026
11
6.05274
21
-4.23774
0
LINE
8
BLACK
6
CONTINUOUS
10
6.05274
20
-4.23774
11
6.05201
21
-4.23951
0
LINE
8
BLACK
6
CONTINUOUS
10
6.05201
20
-4.23951
11
6.05024
21
-4.24024
0
LINE
8
BLACK
6
CONTINUOUS
10
6.05024
20
-4.24024
11
5.89276
21
-4.24024
0
LINE
8
BLACK
6
CONTINUOUS
10
5.89276
20
-4.24024
11
5.89099
21
-4.23951
0
LINE
8
BLACK
6
CONTINUOUS
10
5.89099
20
-4.23951
11
5.89026
21
-4.23774
0
LINE
8
BLACK
6
CONTINUOUS
10
5.89026
20
-4.23774
11
5.89026
21
-4.23774
0
LINE
8
BLACK
6
CONTINUOUS
10
5.89026
20
-4.23774
11
5.89026
21
-4.08026
0
LINE
8
BLACK
6
CONTINUOUS
10
5.89026
20
-4.08026
11
5.89099
21
-4.07849
0
LINE
8
BLACK
6
CONTINUOUS
10
5.89099
20
-4.07849
11
5.89276
21
-4.07776
0
LINE
8
BLACK
6
CONTINUOUS
10
5.89276
20
-4.07776
11
6.05024
21
-4.07776
0
LINE
8
BLACK
6
CONTINUOUS
10
5.89526
20
-4.08276
11
5.89526
21
-4.23524
0
LINE
8
BLACK
6
CONTINUOUS
10
5.89526
20
-4.23524
11
6.04774
21
-4.23524
0
LINE
8
BLACK
6
CONTINUOUS
10
6.04774
20
-4.23524
11
6.04774
21
-4.08276
0
LINE
8
BLACK
6
CONTINUOUS
10
6.04774
20
-4.08276
11
5.89526
21
-4.08276
0
LINE
8
BLACK
6
CONTINUOUS
10
5.27671
20
-4.12107
11
5.27714
21
-4.1211
0
LINE
8
BLACK
6
CONTINUOUS
10
5.27714
20
-4.1211
11
5.28155
21
-4.12331
0
LINE
8
BLACK
6
CONTINUOUS
10
5.28155
20
-4.12331
11
5.28175
21
-4.12353
0
LINE
8
BLACK
6
CONTINUOUS
10
5.28175
20
-4.12353
11
5.28203
21
-4.12365
0
LINE
8
BLACK
6
CONTINUOUS
10
5.28203
20
-4.12365
11
5.28423
21
-4.12586
0
LINE
8
BLACK
6
CONTINUOUS
10
5.28423
20
-4.12586
11
5.28477
21
-4.12716
0
LINE
8
BLACK
6
CONTINUOUS
10
5.28477
20
-4.12716
11
5.28423
21
-4.12846
0
LINE
8
BLACK
6
CONTINUOUS
10
5.28423
20
-4.12846
11
5.28293
21
-4.129
0
LINE
8
BLACK
6
CONTINUOUS
10
5.28293
20
-4.129
11
5.28163
21
-4.12846
0
LINE
8
BLACK
6
CONTINUOUS
10
5.28163
20
-4.12846
11
5.27964
21
-4.12646
0
LINE
8
BLACK
6
CONTINUOUS
10
5.27964
20
-4.12646
11
5.27588
21
-4.12459
0
LINE
8
BLACK
6
CONTINUOUS
10
5.27588
20
-4.12459
11
5.26572
21
-4.12459
0
LINE
8
BLACK
6
CONTINUOUS
10
5.26572
20
-4.12459
11
5.26196
21
-4.12646
0
LINE
8
BLACK
6
CONTINUOUS
10
5.26196
20
-4.12646
11
5.26018
21
-4.12825
0
LINE
8
BLACK
6
CONTINUOUS
10
5.26018
20
-4.12825
11
5.2583
21
-4.132
0
LINE
8
BLACK
6
CONTINUOUS
10
5.2583
20
-4.132
11
5.2583
21
-4.13568
0
LINE
8
BLACK
6
CONTINUOUS
10
5.2583
20
-4.13568
11
5.26028
21
-4.1416
0
LINE
8
BLACK
6
CONTINUOUS
10
5.26028
20
-4.1416
11
5.28644
21
-4.16776
0
LINE
8
BLACK
6
CONTINUOUS
10
5.28644
20
-4.16776
11
5.28698
21
-4.16907
0
LINE
8
BLACK
6
CONTINUOUS
10
5.28698
20
-4.16907
11
5.28644
21
-4.17037
0
LINE
8
BLACK
6
CONTINUOUS
10
5.28644
20
-4.17037
11
5.28514
21
-4.17091
0
LINE
8
BLACK
6
CONTINUOUS
10
5.28514
20
-4.17091
11
5.25646
21
-4.17091
0
LINE
8
BLACK
6
CONTINUOUS
10
5.25646
20
-4.17091
11
5.25516
21
-4.17037
0
LINE
8
BLACK
6
CONTINUOUS
10
5.25516
20
-4.17037
11
5.25462
21
-4.16907
0
LINE
8
BLACK
6
CONTINUOUS
10
5.25462
20
-4.16907
11
5.25516
21
-4.16776
0
LINE
8
BLACK
6
CONTINUOUS
10
5.25516
20
-4.16776
11
5.25646
21
-4.16723
0
LINE
8
BLACK
6
CONTINUOUS
10
5.25646
20
-4.16723
11
5.2807
21
-4.16723
0
LINE
8
BLACK
6
CONTINUOUS
10
5.2807
20
-4.16723
11
5.25737
21
-4.1439
0
LINE
8
BLACK
6
CONTINUOUS
10
5.25737
20
-4.1439
11
5.2572
21
-4.1435
0
LINE
8
BLACK
6
CONTINUOUS
10
5.2572
20
-4.1435
11
5.25692
21
-4.14318
0
LINE
8
BLACK
6
CONTINUOUS
10
5.25692
20
-4.14318
11
5.25472
21
-4.13656
0
LINE
8
BLACK
6
CONTINUOUS
10
5.25472
20
-4.13656
11
5.25474
21
-4.13626
0
LINE
8
BLACK
6
CONTINUOUS
10
5.25474
20
-4.13626
11
5.25462
21
-4.13598
0
LINE
8
BLACK
6
CONTINUOUS
10
5.25462
20
-4.13598
11
5.25462
21
-4.13157
0
LINE
8
BLACK
6
CONTINUOUS
10
5.25462
20
-4.13157
11
5.25479
21
-4.13117
0
LINE
8
BLACK
6
CONTINUOUS
10
5.25479
20
-4.13117
11
5.25482
21
-4.13075
0
LINE
8
BLACK
6
CONTINUOUS
10
5.25482
20
-4.13075
11
5.25702
21
-4.12633
0
LINE
8
BLACK
6
CONTINUOUS
10
5.25702
20
-4.12633
11
5.25725
21
-4.12614
0
LINE
8
BLACK
6
CONTINUOUS
10
5.25725
20
-4.12614
11
5.25737
21
-4.12586
0
LINE
8
BLACK
6
CONTINUOUS
10
5.25737
20
-4.12586
11
5.25957
21
-4.12365
0
LINE
8
BLACK
6
CONTINUOUS
10
5.25957
20
-4.12365
11
5.25985
21
-4.12353
0
LINE
8
BLACK
6
CONTINUOUS
10
5.25985
20
-4.12353
11
5.26005
21
-4.12331
0
LINE
8
BLACK
6
CONTINUOUS
10
5.26005
20
-4.12331
11
5.26446
21
-4.1211
0
LINE
8
BLACK
6
CONTINUOUS
10
5.26446
20
-4.1211
11
5.26489
21
-4.12107
0
LINE
8
BLACK
6
CONTINUOUS
10
5.26489
20
-4.12107
11
5.26529
21
-4.12091
0
LINE
8
BLACK
6
CONTINUOUS
10
5.26529
20
-4.12091
11
5.27632
21
-4.12091
0
LINE
8
BLACK
6
CONTINUOUS
10
5.27632
20
-4.12091
11
5.27671
21
-4.12107
0
LINE
8
BLACK
6
CONTINUOUS
10
5.32835
20
-4.12144
11
5.32889
21
-4.12275
0
LINE
8
BLACK
6
CONTINUOUS
10
5.32889
20
-4.12275
11
5.32889
21
-4.16907
0
LINE
8
BLACK
6
CONTINUOUS
10
5.32889
20
-4.16907
11
5.32835
21
-4.17037
0
LINE
8
BLACK
6
CONTINUOUS
10
5.32835
20
-4.17037
11
5.32705
21
-4.17091
0
LINE
8
BLACK
6
CONTINUOUS
10
5.32705
20
-4.17091
11
5.31602
21
-4.17091
0
LINE
8
BLACK
6
CONTINUOUS
10
5.31602
20
-4.17091
11
5.31574
21
-4.17079
0
LINE
8
BLACK
6
CONTINUOUS
10
5.31574
20
-4.17079
11
5.31544
21
-4.17081
0
LINE
8
BLACK
6
CONTINUOUS
10
5.31544
20
-4.17081
11
5.30882
21
-4.16861
0
LINE
8
BLACK
6
CONTINUOUS
10
5.30882
20
-4.16861
11
5.3085
21
-4.16833
0
LINE
8
BLACK
6
CONTINUOUS
10
5.3085
20
-4.16833
11
5.3081
21
-4.16816
0
LINE
8
BLACK
6
CONTINUOUS
10
5.3081
20
-4.16816
11
5.30369
21
-4.16375
0
LINE
8
BLACK
6
CONTINUOUS
10
5.30369
20
-4.16375
11
5.30357
21
-4.16347
0
LINE
8
BLACK
6
CONTINUOUS
10
5.30357
20
-4.16347
11
5.30334
21
-4.16327
0
LINE
8
BLACK
6
CONTINUOUS
10
5.30334
20
-4.16327
11
5.30114
21
-4.15886
0
LINE
8
BLACK
6
CONTINUOUS
10
5.30114
20
-4.15886
11
5.30112
21
-4.15865
0
LINE
8
BLACK
6
CONTINUOUS
10
5.30112
20
-4.15865
11
5.301
21
-4.15848
0
LINE
8
BLACK
6
CONTINUOUS
10
5.301
20
-4.15848
11
5.29879
21
-4.14966
0
LINE
8
BLACK
6
CONTINUOUS
10
5.29879
20
-4.14966
11
5.29883
21
-4.14943
0
LINE
8
BLACK
6
CONTINUOUS
10
5.29883
20
-4.14943
11
5.29874
21
-4.14921
0
LINE
8
BLACK
6
CONTINUOUS
10
5.29874
20
-4.14921
11
5.29874
21
-4.1426
0
LINE
8
BLACK
6
CONTINUOUS
10
5.29874
20
-4.1426
11
5.29883
21
-4.14238
0
LINE
8
BLACK
6
CONTINUOUS
10
5.29883
20
-4.14238
11
5.29879
21
-4.14215
0
LINE
8
BLACK
6
CONTINUOUS
10
5.29879
20
-4.14215
11
5.301
21
-4.13333
0
LINE
8
BLACK
6
CONTINUOUS
10
5.301
20
-4.13333
11
5.30112
21
-4.13316
0
LINE
8
BLACK
6
CONTINUOUS
10
5.30112
20
-4.13316
11
5.30114
21
-4.13295
0
LINE
8
BLACK
6
CONTINUOUS
10
5.30114
20
-4.13295
11
5.30334
21
-4.12854
0
LINE
8
BLACK
6
CONTINUOUS
10
5.30334
20
-4.12854
11
5.30357
21
-4.12834
0
LINE
8
BLACK
6
CONTINUOUS
10
5.30357
20
-4.12834
11
5.30369
21
-4.12806
0
LINE
8
BLACK
6
CONTINUOUS
10
5.30369
20
-4.12806
11
5.3081
21
-4.12365
0
LINE
8
BLACK
6
CONTINUOUS
10
5.3081
20
-4.12365
11
5.3085
21
-4.12349
0
LINE
8
BLACK
6
CONTINUOUS
10
5.3085
20
-4.12349
11
5.30882
21
-4.12321
0
LINE
8
BLACK
6
CONTINUOUS
10
5.30882
20
-4.12321
11
5.31544
21
-4.121
0
LINE
8
BLACK
6
CONTINUOUS
10
5.31544
20
-4.121
11
5.31574
21
-4.12102
0
LINE
8
BLACK
6
CONTINUOUS
10
5.31574
20
-4.12102
11
5.31602
21
-4.12091
0
LINE
8
BLACK
6
CONTINUOUS
10
5.31602
20
-4.12091
11
5.32705
21
-4.12091
0
LINE
8
BLACK
6
CONTINUOUS
10
5.32705
20
-4.12091
11
5.32835
21
-4.12144
0
LINE
8
BLACK
6
CONTINUOUS
10
5.31039
20
-4.12656
11
5.3065
21
-4.13045
0
LINE
8
BLACK
6
CONTINUOUS
10
5.3065
20
-4.13045
11
5.30452
21
-4.13442
0
LINE
8
BLACK
6
CONTINUOUS
10
5.30452
20
-4.13442
11
5.30242
21
-4.14282
0
LINE
8
BLACK
6
CONTINUOUS
10
5.30242
20
-4.14282
11
5.30242
21
-4.14899
0
LINE
8
BLACK
6
CONTINUOUS
10
5.30242
20
-4.14899
11
5.30452
21
-4.1574
0
LINE
8
BLACK
6
CONTINUOUS
10
5.30452
20
-4.1574
11
5.3065
21
-4.16136
0
LINE
8
BLACK
6
CONTINUOUS
10
5.3065
20
-4.16136
11
5.31039
21
-4.16525
0
LINE
8
BLACK
6
CONTINUOUS
10
5.31039
20
-4.16525
11
5.31632
21
-4.16723
0
LINE
8
BLACK
6
CONTINUOUS
10
5.31632
20
-4.16723
11
5.32521
21
-4.16723
0
LINE
8
BLACK
6
CONTINUOUS
10
5.32521
20
-4.16723
11
5.32521
21
-4.12459
0
LINE
8
BLACK
6
CONTINUOUS
10
5.32521
20
-4.12459
11
5.31632
21
-4.12459
0
LINE
8
BLACK
6
CONTINUOUS
10
5.31632
20
-4.12459
11
5.31039
21
-4.12656
0
LINE
8
BLACK
6
CONTINUOUS
10
5.4339
20
-4.10585
11
5.43463
21
-4.10762
0
LINE
8
BLACK
6
CONTINUOUS
10
5.43463
20
-4.10762
11
5.43463
21
-4.14699
0
LINE
8
BLACK
6
CONTINUOUS
10
5.43463
20
-4.14699
11
5.4339
21
-4.14876
0
LINE
8
BLACK
6
CONTINUOUS
10
5.4339
20
-4.14876
11
5.43213
21
-4.14949
0
LINE
8
BLACK
6
CONTINUOUS
10
5.43213
20
-4.14949
11
5.43036
21
-4.14876
0
LINE
8
BLACK
6
CONTINUOUS
10
5.43036
20
-4.14876
11
5.41219
21
-4.13059
0
LINE
8
BLACK
6
CONTINUOUS
10
5.41219
20
-4.13059
11
5.41219
21
-4.14699
0
LINE
8
BLACK
6
CONTINUOUS
10
5.41219
20
-4.14699
11
5.41146
21
-4.14876
0
LINE
8
BLACK
6
CONTINUOUS
10
5.41146
20
-4.14876
11
5.40969
21
-4.14949
0
LINE
8
BLACK
6
CONTINUOUS
10
5.40969
20
-4.14949
11
5.40792
21
-4.14876
0
LINE
8
BLACK
6
CONTINUOUS
10
5.40792
20
-4.14876
11
5.40719
21
-4.14699
0
LINE
8
BLACK
6
CONTINUOUS
10
5.40719
20
-4.14699
11
5.40719
21
-4.10762
0
LINE
8
BLACK
6
CONTINUOUS
10
5.40719
20
-4.10762
11
5.40792
21
-4.10585
0
LINE
8
BLACK
6
CONTINUOUS
10
5.40792
20
-4.10585
11
5.40969
21
-4.10512
0
LINE
8
BLACK
6
CONTINUOUS
10
5.40969
20
-4.10512
11
5.41146
21
-4.10585
0
LINE
8
BLACK
6
CONTINUOUS
10
5.41146
20
-4.10585
11
5.41219
21
-4.10762
0
LINE
8
BLACK
6
CONTINUOUS
10
5.41219
20
-4.10762
11
5.41219
21
-4.12403
0
LINE
8
BLACK
6
CONTINUOUS
10
5.41219
20
-4.12403
11
5.43036
21
-4.10585
0
LINE
8
BLACK
6
CONTINUOUS
10
5.43036
20
-4.10585
11
5.43213
21
-4.10512
0
LINE
8
BLACK
6
CONTINUOUS
10
5.43213
20
-4.10512
11
5.4339
21
-4.10585
0
LINE
8
BLACK
6
CONTINUOUS
10
5.41598
20
-4.12731
11
5.42963
21
-4.14096
0
LINE
8
BLACK
6
CONTINUOUS
10
5.42963
20
-4.14096
11
5.42963
21
-4.11366
0
LINE
8
BLACK
6
CONTINUOUS
10
5.42963
20
-4.11366
11
5.41598
21
-4.12731
0
LINE
8
BLACK
6
CONTINUOUS
10
5.48449
20
-4.09292
11
5.48626
21
-4.09365
0
LINE
8
BLACK
6
CONTINUOUS
10
5.48626
20
-4.09365
11
5.48699
21
-4.09542
0
LINE
8
BLACK
6
CONTINUOUS
10
5.48699
20
-4.09542
11
5.48699
21
-4.15841
0
LINE
8
BLACK
6
CONTINUOUS
10
5.48699
20
-4.15841
11
5.48626
21
-4.16018
0
LINE
8
BLACK
6
CONTINUOUS
10
5.48626
20
-4.16018
11
5.48449
21
-4.16091
0
LINE
8
BLACK
6
CONTINUOUS
10
5.48449
20
-4.16091
11
5.35851
21
-4.16091
0
LINE
8
BLACK
6
CONTINUOUS
10
5.35851
20
-4.16091
11
5.35674
21
-4.16018
0
LINE
8
BLACK
6
CONTINUOUS
10
5.35674
20
-4.16018
11
5.35601
21
-4.15841
0
LINE
8
BLACK
6
CONTINUOUS
10
5.35601
20
-4.15841
11
5.35601
21
-4.09542
0
LINE
8
BLACK
6
CONTINUOUS
10
5.35601
20
-4.09542
11
5.35674
21
-4.09365
0
LINE
8
BLACK
6
CONTINUOUS
10
5.35674
20
-4.09365
11
5.35851
21
-4.09292
0
LINE
8
BLACK
6
CONTINUOUS
10
5.35851
20
-4.09292
11
5.48449
21
-4.09292
0
LINE
8
BLACK
6
CONTINUOUS
10
5.36101
20
-4.09792
11
5.36101
21
-4.15591
0
LINE
8
BLACK
6
CONTINUOUS
10
5.36101
20
-4.15591
11
5.48199
21
-4.15591
0
LINE
8
BLACK
6
CONTINUOUS
10
5.48199
20
-4.15591
11
5.48199
21
-4.09792
0
LINE
8
BLACK
6
CONTINUOUS
10
5.48199
20
-4.09792
11
5.36101
21
-4.09792
0
LINE
8
BLACK
6
CONTINUOUS
10
5.88338
20
-3.98401
11
5.88558
21
-3.98622
0
LINE
8
BLACK
6
CONTINUOUS
10
5.88558
20
-3.98622
11
5.8857
21
-3.9865
0
LINE
8
BLACK
6
CONTINUOUS
10
5.8857
20
-3.9865
11
5.88593
21
-3.9867
0
LINE
8
BLACK
6
CONTINUOUS
10
5.88593
20
-3.9867
11
5.88813
21
-3.99111
0
LINE
8
BLACK
6
CONTINUOUS
10
5.88813
20
-3.99111
11
5.88816
21
-3.99154
0
LINE
8
BLACK
6
CONTINUOUS
10
5.88816
20
-3.99154
11
5.88833
21
-3.99193
0
LINE
8
BLACK
6
CONTINUOUS
10
5.88833
20
-3.99193
11
5.88833
21
-4.00296
0
LINE
8
BLACK
6
CONTINUOUS
10
5.88833
20
-4.00296
11
5.88816
21
-4.00336
0
LINE
8
BLACK
6
CONTINUOUS
10
5.88816
20
-4.00336
11
5.88813
21
-4.00378
0
LINE
8
BLACK
6
CONTINUOUS
10
5.88813
20
-4.00378
11
5.88593
21
-4.00819
0
LINE
8
BLACK
6
CONTINUOUS
10
5.88593
20
-4.00819
11
5.8857
21
-4.00839
0
LINE
8
BLACK
6
CONTINUOUS
10
5.8857
20
-4.00839
11
5.88558
21
-4.00867
0
LINE
8
BLACK
6
CONTINUOUS
10
5.88558
20
-4.00867
11
5.88338
21
-4.01088
0
LINE
8
BLACK
6
CONTINUOUS
10
5.88338
20
-4.01088
11
5.8831
21
-4.01099
0
LINE
8
BLACK
6
CONTINUOUS
10
5.8831
20
-4.01099
11
5.8829
21
-4.01122
0
LINE
8
BLACK
6
CONTINUOUS
10
5.8829
20
-4.01122
11
5.87849
21
-4.01343
0
LINE
8
BLACK
6
CONTINUOUS
10
5.87849
20
-4.01343
11
5.87806
21
-4.01346
0
LINE
8
BLACK
6
CONTINUOUS
10
5.87806
20
-4.01346
11
5.87766
21
-4.01362
0
LINE
8
BLACK
6
CONTINUOUS
10
5.87766
20
-4.01362
11
5.86664
21
-4.01362
0
LINE
8
BLACK
6
CONTINUOUS
10
5.86664
20
-4.01362
11
5.86624
21
-4.01346
0
LINE
8
BLACK
6
CONTINUOUS
10
5.86624
20
-4.01346
11
5.86581
21
-4.01343
0
LINE
8
BLACK
6
CONTINUOUS
10
5.86581
20
-4.01343
11
5.8614
21
-4.01122
0
LINE
8
BLACK
6
CONTINUOUS
10
5.8614
20
-4.01122
11
5.8612
21
-4.01099
0
LINE
8
BLACK
6
CONTINUOUS
10
5.8612
20
-4.01099
11
5.86092
21
-4.01088
0
LINE
8
BLACK
6
CONTINUOUS
10
5.86092
20
-4.01088
11
5.85872
21
-4.00867
0
LINE
8
BLACK
6
CONTINUOUS
10
5.85872
20
-4.00867
11
5.8586
21
-4.00839
0
LINE
8
BLACK
6
CONTINUOUS
10
5.8586
20
-4.00839
11
5.85837
21
-4.00819
0
LINE
8
BLACK
6
CONTINUOUS
10
5.85837
20
-4.00819
11
5.85617
21
-4.00378
0
LINE
8
BLACK
6
CONTINUOUS
10
5.85617
20
-4.00378
11
5.85614
21
-4.00336
0
LINE
8
BLACK
6
CONTINUOUS
10
5.85614
20
-4.00336
11
5.85597
21
-4.00296
0
LINE
8
BLACK
6
CONTINUOUS
10
5.85597
20
-4.00296
11
5.85597
21
-3.99193
0
LINE
8
BLACK
6
CONTINUOUS
10
5.85597
20
-3.99193
11
5.85614
21
-3.99154
0
LINE
8
BLACK
6
CONTINUOUS
10
5.85614
20
-3.99154
11
5.85617
21
-3.99111
0
LINE
8
BLACK
6
CONTINUOUS
10
5.85617
20
-3.99111
11
5.85792
21
-3.98759
0
LINE
8
BLACK
6
CONTINUOUS
10
5.85792
20
-3.98759
11
5.84201
21
-3.98918
0
LINE
8
BLACK
6
CONTINUOUS
10
5.84201
20
-3.98918
11
5.84201
21
-4.00958
0
LINE
8
BLACK
6
CONTINUOUS
10
5.84201
20
-4.00958
11
5.84147
21
-4.01088
0
LINE
8
BLACK
6
CONTINUOUS
10
5.84147
20
-4.01088
11
5.84017
21
-4.01142
0
LINE
8
BLACK
6
CONTINUOUS
10
5.84017
20
-4.01142
11
5.83887
21
-4.01088
0
LINE
8
BLACK
6
CONTINUOUS
10
5.83887
20
-4.01088
11
5.83833
21
-4.00958
0
LINE
8
BLACK
6
CONTINUOUS
10
5.83833
20
-4.00958
11
5.83833
21
-3.98752
0
LINE
8
BLACK
6
CONTINUOUS
10
5.83833
20
-3.98752
11
5.83856
21
-3.98695
0
LINE
8
BLACK
6
CONTINUOUS
10
5.83856
20
-3.98695
11
5.83874
21
-3.98635
0
LINE
8
BLACK
6
CONTINUOUS
10
5.83874
20
-3.98635
11
5.83883
21
-3.98631
0
LINE
8
BLACK
6
CONTINUOUS
10
5.83883
20
-3.98631
11
5.83887
21
-3.98622
0
LINE
8
BLACK
6
CONTINUOUS
10
5.83887
20
-3.98622
11
5.83944
21
-3.98598
0
LINE
8
BLACK
6
CONTINUOUS
10
5.83944
20
-3.98598
11
5.83998
21
-3.98569
0
LINE
8
BLACK
6
CONTINUOUS
10
5.83998
20
-3.98569
11
5.86204
21
-3.98348
0
LINE
8
BLACK
6
CONTINUOUS
10
5.86204
20
-3.98348
11
5.86213
21
-3.98351
0
LINE
8
BLACK
6
CONTINUOUS
10
5.86213
20
-3.98351
11
5.86222
21
-3.98347
0
LINE
8
BLACK
6
CONTINUOUS
10
5.86222
20
-3.98347
11
5.8628
21
-3.98371
0
LINE
8
BLACK
6
CONTINUOUS
10
5.8628
20
-3.98371
11
5.86339
21
-3.98389
0
LINE
8
BLACK
6
CONTINUOUS
10
5.86339
20
-3.98389
11
5.86344
21
-3.98398
0
LINE
8
BLACK
6
CONTINUOUS
10
5.86344
20
-3.98398
11
5.86353
21
-3.98401
0
LINE
8
BLACK
6
CONTINUOUS
10
5.86353
20
-3.98401
11
5.86376
21
-3.98459
0
LINE
8
BLACK
6
CONTINUOUS
10
5.86376
20
-3.98459
11
5.86406
21
-3.98513
0
LINE
8
BLACK
6
CONTINUOUS
10
5.86406
20
-3.98513
11
5.86403
21
-3.98522
0
LINE
8
BLACK
6
CONTINUOUS
10
5.86403
20
-3.98522
11
5.86406
21
-3.98531
0
LINE
8
BLACK
6
CONTINUOUS
10
5.86406
20
-3.98531
11
5.86383
21
-3.98589
0
LINE
8
BLACK
6
CONTINUOUS
10
5.86383
20
-3.98589
11
5.86365
21
-3.98648
0
LINE
8
BLACK
6
CONTINUOUS
10
5.86365
20
-3.98648
11
5.86356
21
-3.98652
0
LINE
8
BLACK
6
CONTINUOUS
10
5.86356
20
-3.98652
11
5.86353
21
-3.98661
0
LINE
8
BLACK
6
CONTINUOUS
10
5.86353
20
-3.98661
11
5.86153
21
-3.98861
0
LINE
8
BLACK
6
CONTINUOUS
10
5.86153
20
-3.98861
11
5.85965
21
-3.99237
0
LINE
8
BLACK
6
CONTINUOUS
10
5.85965
20
-3.99237
11
5.85965
21
-4.00253
0
LINE
8
BLACK
6
CONTINUOUS
10
5.85965
20
-4.00253
11
5.86153
21
-4.00628
0
LINE
8
BLACK
6
CONTINUOUS
10
5.86153
20
-4.00628
11
5.86331
21
-4.00806
0
LINE
8
BLACK
6
CONTINUOUS
10
5.86331
20
-4.00806
11
5.86707
21
-4.00994
0
LINE
8
BLACK
6
CONTINUOUS
10
5.86707
20
-4.00994
11
5.87723
21
-4.00994
0
LINE
8
BLACK
6
CONTINUOUS
10
5.87723
20
-4.00994
11
5.88099
21
-4.00806
0
LINE
8
BLACK
6
CONTINUOUS
10
5.88099
20
-4.00806
11
5.88277
21
-4.00628
0
LINE
8
BLACK
6
CONTINUOUS
10
5.88277
20
-4.00628
11
5.88465
21
-4.00253
0
LINE
8
BLACK
6
CONTINUOUS
10
5.88465
20
-4.00253
11
5.88465
21
-3.99237
0
LINE
8
BLACK
6
CONTINUOUS
10
5.88465
20
-3.99237
11
5.88277
21
-3.98861
0
LINE
8
BLACK
6
CONTINUOUS
10
5.88277
20
-3.98861
11
5.88077
21
-3.98661
0
LINE
8
BLACK
6
CONTINUOUS
10
5.88077
20
-3.98661
11
5.88024
21
-3.98531
0
LINE
8
BLACK
6
CONTINUOUS
10
5.88024
20
-3.98531
11
5.88077
21
-3.98401
0
LINE
8
BLACK
6
CONTINUOUS
10
5.88077
20
-3.98401
11
5.88208
21
-3.98347
0
LINE
8
BLACK
6
CONTINUOUS
10
5.88208
20
-3.98347
11
5.88338
21
-3.98401
0
LINE
8
BLACK
6
CONTINUOUS
10
6.07397
20
-3.95207
11
6.07419
21
-3.95203
0
LINE
8
BLACK
6
CONTINUOUS
10
6.07419
20
-3.95203
11
6.07488
21
-3.95243
0
LINE
8
BLACK
6
CONTINUOUS
10
6.07488
20
-3.95243
11
6.07563
21
-3.95273
0
LINE
8
BLACK
6
CONTINUOUS
10
6.07563
20
-3.95273
11
6.07574
21
-3.95293
0
LINE
8
BLACK
6
CONTINUOUS
10
6.07574
20
-3.95293
11
6.07594
21
-3.95304
0
LINE
8
BLACK
6
CONTINUOUS
10
6.07594
20
-3.95304
11
6.07621
21
-3.9538
0
LINE
8
BLACK
6
CONTINUOUS
10
6.07621
20
-3.9538
11
6.0766
21
-3.9545
0
LINE
8
BLACK
6
CONTINUOUS
10
6.0766
20
-3.9545
11
6.07655
21
-3.95472
0
LINE
8
BLACK
6
CONTINUOUS
10
6.07655
20
-3.95472
11
6.07663
21
-3.95494
0
LINE
8
BLACK
6
CONTINUOUS
10
6.07663
20
-3.95494
11
6.07663
21
-3.97073
0
LINE
8
BLACK
6
CONTINUOUS
10
6.07663
20
-3.97073
11
6.0868
21
-3.97073
0
LINE
8
BLACK
6
CONTINUOUS
10
6.0868
20
-3.97073
11
6.08781
21
-3.97091
0
LINE
8
BLACK
6
CONTINUOUS
10
6.08781
20
-3.97091
11
6.08936
21
-3.97221
0
LINE
8
BLACK
6
CONTINUOUS
10
6.08936
20
-3.97221
11
6.08971
21
-3.9742
0
LINE
8
BLACK
6
CONTINUOUS
10
6.08971
20
-3.9742
11
6.0887
21
-3.97595
0
LINE
8
BLACK
6
CONTINUOUS
10
6.0887
20
-3.97595
11
6.0868
21
-3.97664
0
LINE
8
BLACK
6
CONTINUOUS
10
6.0868
20
-3.97664
11
6.07663
21
-3.97664
0
LINE
8
BLACK
6
CONTINUOUS
10
6.07663
20
-3.97664
11
6.07663
21
-3.97931
0
LINE
8
BLACK
6
CONTINUOUS
10
6.07663
20
-3.97931
11
6.07645
21
-3.98032
0
LINE
8
BLACK
6
CONTINUOUS
10
6.07645
20
-3.98032
11
6.07515
21
-3.98187
0
LINE
8
BLACK
6
CONTINUOUS
10
6.07515
20
-3.98187
11
6.07316
21
-3.98222
0
LINE
8
BLACK
6
CONTINUOUS
10
6.07316
20
-3.98222
11
6.07141
21
-3.98121
0
LINE
8
BLACK
6
CONTINUOUS
10
6.07141
20
-3.98121
11
6.07072
21
-3.97931
0
LINE
8
BLACK
6
CONTINUOUS
10
6.07072
20
-3.97931
11
6.07072
21
-3.97664
0
LINE
8
BLACK
6
CONTINUOUS
10
6.07072
20
-3.97664
11
6.06055
21
-3.97664
0
LINE
8
BLACK
6
CONTINUOUS
10
6.06055
20
-3.97664
11
6.05954
21
-3.97646
0
LINE
8
BLACK
6
CONTINUOUS
10
6.05954
20
-3.97646
11
6.05799
21
-3.97516
0
LINE
8
BLACK
6
CONTINUOUS
10
6.05799
20
-3.97516
11
6.05764
21
-3.97317
0
LINE
8
BLACK
6
CONTINUOUS
10
6.05764
20
-3.97317
11
6.05865
21
-3.97142
0
LINE
8
BLACK
6
CONTINUOUS
10
6.05865
20
-3.97142
11
6.06055
21
-3.97073
0
LINE
8
BLACK
6
CONTINUOUS
10
6.06055
20
-3.97073
11
6.07072
21
-3.97073
0
LINE
8
BLACK
6
CONTINUOUS
10
6.07072
20
-3.97073
11
6.07072
21
-3.95903
0
LINE
8
BLACK
6
CONTINUOUS
10
6.07072
20
-3.95903
11
6.04649
21
-3.96711
0
LINE
8
BLACK
6
CONTINUOUS
10
6.04649
20
-3.96711
11
6.04547
21
-3.96726
0
LINE
8
BLACK
6
CONTINUOUS
10
6.04547
20
-3.96726
11
6.04359
21
-3.96652
0
LINE
8
BLACK
6
CONTINUOUS
10
6.04359
20
-3.96652
11
6.04263
21
-3.96474
0
LINE
8
BLACK
6
CONTINUOUS
10
6.04263
20
-3.96474
11
6.04304
21
-3.96276
0
LINE
8
BLACK
6
CONTINUOUS
10
6.04304
20
-3.96276
11
6.04462
21
-3.96151
0
LINE
8
BLACK
6
CONTINUOUS
10
6.04462
20
-3.96151
11
6.07274
21
-3.95214
0
LINE
8
BLACK
6
CONTINUOUS
10
6.07274
20
-3.95214
11
6.07376
21
-3.95198
0
LINE
8
BLACK
6
CONTINUOUS
10
6.07376
20
-3.95198
11
6.07397
21
-3.95207
0
LINE
8
BLACK
6
CONTINUOUS
10
5.88779
20
-3.9399
11
5.88833
21
-3.9412
0
LINE
8
BLACK
6
CONTINUOUS
10
5.88833
20
-3.9412
11
5.88779
21
-3.9425
0
LINE
8
BLACK
6
CONTINUOUS
10
5.88779
20
-3.9425
11
5.88649
21
-3.94304
0
LINE
8
BLACK
6
CONTINUOUS
10
5.88649
20
-3.94304
11
5.86627
21
-3.94304
0
LINE
8
BLACK
6
CONTINUOUS
10
5.86627
20
-3.94304
11
5.86627
21
-3.95127
0
LINE
8
BLACK
6
CONTINUOUS
10
5.86627
20
-3.95127
11
5.88754
21
-3.96616
0
LINE
8
BLACK
6
CONTINUOUS
10
5.88754
20
-3.96616
11
5.8883
21
-3.96735
0
LINE
8
BLACK
6
CONTINUOUS
10
5.8883
20
-3.96735
11
5.88799
21
-3.96872
0
LINE
8
BLACK
6
CONTINUOUS
10
5.88799
20
-3.96872
11
5.88681
21
-3.96948
0
LINE
8
BLACK
6
CONTINUOUS
10
5.88681
20
-3.96948
11
5.88543
21
-3.96918
0
LINE
8
BLACK
6
CONTINUOUS
10
5.88543
20
-3.96918
11
5.86627
21
-3.95576
0
LINE
8
BLACK
6
CONTINUOUS
10
5.86627
20
-3.95576
11
5.86627
21
-3.95885
0
LINE
8
BLACK
6
CONTINUOUS
10
5.86627
20
-3.95885
11
5.86611
21
-3.95924
0
LINE
8
BLACK
6
CONTINUOUS
10
5.86611
20
-3.95924
11
5.86608
21
-3.95967
0
LINE
8
BLACK
6
CONTINUOUS
10
5.86608
20
-3.95967
11
5.86387
21
-3.96408
0
LINE
8
BLACK
6
CONTINUOUS
10
5.86387
20
-3.96408
11
5.86364
21
-3.96428
0
LINE
8
BLACK
6
CONTINUOUS
10
5.86364
20
-3.96428
11
5.86353
21
-3.96456
0
LINE
8
BLACK
6
CONTINUOUS
10
5.86353
20
-3.96456
11
5.86132
21
-3.96676
0
LINE
8
BLACK
6
CONTINUOUS
10
5.86132
20
-3.96676
11
5.86104
21
-3.96688
0
LINE
8
BLACK
6
CONTINUOUS
10
5.86104
20
-3.96688
11
5.86084
21
-3.96711
0
LINE
8
BLACK
6
CONTINUOUS
10
5.86084
20
-3.96711
11
5.85643
21
-3.96931
0
LINE
8
BLACK
6
CONTINUOUS
10
5.85643
20
-3.96931
11
5.856
21
-3.96934
0
LINE
8
BLACK
6
CONTINUOUS
10
5.856
20
-3.96934
11
5.85561
21
-3.96951
0
LINE
8
BLACK
6
CONTINUOUS
10
5.85561
20
-3.96951
11
5.84899
21
-3.96951
0
LINE
8
BLACK
6
CONTINUOUS
10
5.84899
20
-3.96951
11
5.84859
21
-3.96934
0
LINE
8
BLACK
6
CONTINUOUS
10
5.84859
20
-3.96934
11
5.84817
21
-3.96931
0
LINE
8
BLACK
6
CONTINUOUS
10
5.84817
20
-3.96931
11
5.84376
21
-3.96711
0
LINE
8
BLACK
6
CONTINUOUS
10
5.84376
20
-3.96711
11
5.84356
21
-3.96688
0
LINE
8
BLACK
6
CONTINUOUS
10
5.84356
20
-3.96688
11
5.84328
21
-3.96676
0
LINE
8
BLACK
6
CONTINUOUS
10
5.84328
20
-3.96676
11
5.84107
21
-3.96456
0
LINE
8
BLACK
6
CONTINUOUS
10
5.84107
20
-3.96456
11
5.84096
21
-3.96428
0
LINE
8
BLACK
6
CONTINUOUS
10
5.84096
20
-3.96428
11
5.84073
21
-3.96408
0
LINE
8
BLACK
6
CONTINUOUS
10
5.84073
20
-3.96408
11
5.83852
21
-3.95967
0
LINE
8
BLACK
6
CONTINUOUS
10
5.83852
20
-3.95967
11
5.83849
21
-3.95924
0
LINE
8
BLACK
6
CONTINUOUS
10
5.83849
20
-3.95924
11
5.83833
21
-3.95885
0
LINE
8
BLACK
6
CONTINUOUS
10
5.83833
20
-3.95885
11
5.83833
21
-3.9412
0
LINE
8
BLACK
6
CONTINUOUS
10
5.83833
20
-3.9412
11
5.83887
21
-3.9399
0
LINE
8
BLACK
6
CONTINUOUS
10
5.83887
20
-3.9399
11
5.84017
21
-3.93936
0
LINE
8
BLACK
6
CONTINUOUS
10
5.84017
20
-3.93936
11
5.88649
21
-3.93936
0
LINE
8
BLACK
6
CONTINUOUS
10
5.88649
20
-3.93936
11
5.88779
21
-3.9399
0
LINE
8
BLACK
6
CONTINUOUS
10
5.84201
20
-3.95841
11
5.84389
21
-3.96217
0
LINE
8
BLACK
6
CONTINUOUS
10
5.84389
20
-3.96217
11
5.84567
21
-3.96395
0
LINE
8
BLACK
6
CONTINUOUS
10
5.84567
20
-3.96395
11
5.84942
21
-3.96583
0
LINE
8
BLACK
6
CONTINUOUS
10
5.84942
20
-3.96583
11
5.85517
21
-3.96583
0
LINE
8
BLACK
6
CONTINUOUS
10
5.85517
20
-3.96583
11
5.85893
21
-3.96395
0
LINE
8
BLACK
6
CONTINUOUS
10
5.85893
20
-3.96395
11
5.86071
21
-3.96217
0
LINE
8
BLACK
6
CONTINUOUS
10
5.86071
20
-3.96217
11
5.86259
21
-3.95841
0
LINE
8
BLACK
6
CONTINUOUS
10
5.86259
20
-3.95841
11
5.86259
21
-3.94304
0
LINE
8
BLACK
6
CONTINUOUS
10
5.86259
20
-3.94304
11
5.84201
21
-3.94304
0
LINE
8
BLACK
6
CONTINUOUS
10
5.84201
20
-3.94304
11
5.84201
21
-3.95841
0
LINE
8
BLACK
6
CONTINUOUS
10
5.97548
20
-3.93454
11
5.97618
21
-3.93621
0
LINE
8
BLACK
6
CONTINUOUS
10
5.97618
20
-3.93621
11
5.97618
21
-3.95679
0
LINE
8
BLACK
6
CONTINUOUS
10
5.97618
20
-3.95679
11
5.97548
21
-3.95846
0
LINE
8
BLACK
6
CONTINUOUS
10
5.97548
20
-3.95846
11
5.97381
21
-3.95915
0
LINE
8
BLACK
6
CONTINUOUS
10
5.97381
20
-3.95915
11
5.97214
21
-3.95846
0
LINE
8
BLACK
6
CONTINUOUS
10
5.97214
20
-3.95846
11
5.97145
21
-3.95679
0
LINE
8
BLACK
6
CONTINUOUS
10
5.97145
20
-3.95679
11
5.97145
21
-3.93621
0
LINE
8
BLACK
6
CONTINUOUS
10
5.97145
20
-3.93621
11
5.97214
21
-3.93454
0
LINE
8
BLACK
6
CONTINUOUS
10
5.97214
20
-3.93454
11
5.97381
21
-3.93385
0
LINE
8
BLACK
6
CONTINUOUS
10
5.97381
20
-3.93385
11
5.97548
21
-3.93454
0
LINE
8
BLACK
6
CONTINUOUS
10
6.03336
20
-3.93454
11
6.03405
21
-3.93621
0
LINE
8
BLACK
6
CONTINUOUS
10
6.03405
20
-3.93621
11
6.03405
21
-3.95679
0
LINE
8
BLACK
6
CONTINUOUS
10
6.03405
20
-3.95679
11
6.03336
21
-3.95846
0
LINE
8
BLACK
6
CONTINUOUS
10
6.03336
20
-3.95846
11
6.03169
21
-3.95915
0
LINE
8
BLACK
6
CONTINUOUS
10
6.03169
20
-3.95915
11
6.03002
21
-3.95846
0
LINE
8
BLACK
6
CONTINUOUS
10
6.03002
20
-3.95846
11
6.02932
21
-3.95679
0
LINE
8
BLACK
6
CONTINUOUS
10
6.02932
20
-3.95679
11
6.02932
21
-3.93621
0
LINE
8
BLACK
6
CONTINUOUS
10
6.02932
20
-3.93621
11
6.03002
21
-3.93454
0
LINE
8
BLACK
6
CONTINUOUS
10
6.03002
20
-3.93454
11
6.03169
21
-3.93385
0
LINE
8
BLACK
6
CONTINUOUS
10
6.03169
20
-3.93385
11
6.03336
21
-3.93454
0
LINE
8
BLACK
6
CONTINUOUS
10
6.07051
20
-3.91272
11
6.07064
21
-3.9127
0
LINE
8
BLACK
6
CONTINUOUS
10
6.07064
20
-3.9127
11
6.07814
21
-3.91458
0
LINE
8
BLACK
6
CONTINUOUS
10
6.07814
20
-3.91458
11
6.07861
21
-3.91478
0
LINE
8
BLACK
6
CONTINUOUS
10
6.07861
20
-3.91478
11
6.07874
21
-3.9148
0
LINE
8
BLACK
6
CONTINUOUS
10
6.07874
20
-3.9148
11
6.08249
21
-3.91667
0
LINE
8
BLACK
6
CONTINUOUS
10
6.08249
20
-3.91667
11
6.0832
21
-3.9172
0
LINE
8
BLACK
6
CONTINUOUS
10
6.0832
20
-3.9172
11
6.08326
21
-3.91723
0
LINE
8
BLACK
6
CONTINUOUS
10
6.08326
20
-3.91723
11
6.08701
21
-3.92098
0
LINE
8
BLACK
6
CONTINUOUS
10
6.08701
20
-3.92098
11
6.0876
21
-3.92182
0
LINE
8
BLACK
6
CONTINUOUS
10
6.0876
20
-3.92182
11
6.08761
21
-3.92199
0
LINE
8
BLACK
6
CONTINUOUS
10
6.08761
20
-3.92199
11
6.08772
21
-3.92213
0
LINE
8
BLACK
6
CONTINUOUS
10
6.08772
20
-3.92213
11
6.0896
21
-3.92776
0
LINE
8
BLACK
6
CONTINUOUS
10
6.0896
20
-3.92776
11
6.08973
21
-3.92863
0
LINE
8
BLACK
6
CONTINUOUS
10
6.08973
20
-3.92863
11
6.08975
21
-3.92869
0
LINE
8
BLACK
6
CONTINUOUS
10
6.08975
20
-3.92869
11
6.08975
21
-3.93244
0
LINE
8
BLACK
6
CONTINUOUS
10
6.08975
20
-3.93244
11
6.0896
21
-3.93331
0
LINE
8
BLACK
6
CONTINUOUS
10
6.0896
20
-3.93331
11
6.0896
21
-3.93337
0
LINE
8
BLACK
6
CONTINUOUS
10
6.0896
20
-3.93337
11
6.08772
21
-3.939
0
LINE
8
BLACK
6
CONTINUOUS
10
6.08772
20
-3.939
11
6.08724
21
-3.9399
0
LINE
8
BLACK
6
CONTINUOUS
10
6.08724
20
-3.9399
11
6.08709
21
-3.93999
0
LINE
8
BLACK
6
CONTINUOUS
10
6.08709
20
-3.93999
11
6.08701
21
-3.94015
0
LINE
8
BLACK
6
CONTINUOUS
10
6.08701
20
-3.94015
11
6.08514
21
-3.94203
0
LINE
8
BLACK
6
CONTINUOUS
10
6.08514
20
-3.94203
11
6.0843
21
-3.94261
0
LINE
8
BLACK
6
CONTINUOUS
10
6.0843
20
-3.94261
11
6.08228
21
-3.94279
0
LINE
8
BLACK
6
CONTINUOUS
10
6.08228
20
-3.94279
11
6.08063
21
-3.94163
0
LINE
8
BLACK
6
CONTINUOUS
10
6.08063
20
-3.94163
11
6.08011
21
-3.93968
0
LINE
8
BLACK
6
CONTINUOUS
10
6.08011
20
-3.93968
11
6.08096
21
-3.93785
0
LINE
8
BLACK
6
CONTINUOUS
10
6.08096
20
-3.93785
11
6.08234
21
-3.93647
0
LINE
8
BLACK
6
CONTINUOUS
10
6.08234
20
-3.93647
11
6.08385
21
-3.93196
0
LINE
8
BLACK
6
CONTINUOUS
10
6.08385
20
-3.93196
11
6.08385
21
-3.92917
0
LINE
8
BLACK
6
CONTINUOUS
10
6.08385
20
-3.92917
11
6.08234
21
-3.92466
0
LINE
8
BLACK
6
CONTINUOUS
10
6.08234
20
-3.92466
11
6.07942
21
-3.92174
0
LINE
8
BLACK
6
CONTINUOUS
10
6.07942
20
-3.92174
11
6.07639
21
-3.92023
0
LINE
8
BLACK
6
CONTINUOUS
10
6.07639
20
-3.92023
11
6.06956
21
-3.91852
0
LINE
8
BLACK
6
CONTINUOUS
10
6.06956
20
-3.91852
11
6.06466
21
-3.91852
0
LINE
8
BLACK
6
CONTINUOUS
10
6.06466
20
-3.91852
11
6.05783
21
-3.92023
0
LINE
8
BLACK
6
CONTINUOUS
10
6.05783
20
-3.92023
11
6.0548
21
-3.92174
0
LINE
8
BLACK
6
CONTINUOUS
10
6.0548
20
-3.92174
11
6.05188
21
-3.92466
0
LINE
8
BLACK
6
CONTINUOUS
10
6.05188
20
-3.92466
11
6.05038
21
-3.92917
0
LINE
8
BLACK
6
CONTINUOUS
10
6.05038
20
-3.92917
11
6.05038
21
-3.93196
0
LINE
8
BLACK
6
CONTINUOUS
10
6.05038
20
-3.93196
11
6.05188
21
-3.93647
0
LINE
8
BLACK
6
CONTINUOUS
10
6.05188
20
-3.93647
11
6.05327
21
-3.93785
0
LINE
8
BLACK
6
CONTINUOUS
10
6.05327
20
-3.93785
11
6.05385
21
-3.93869
0
LINE
8
BLACK
6
CONTINUOUS
10
6.05385
20
-3.93869
11
6.05403
21
-3.9407
0
LINE
8
BLACK
6
CONTINUOUS
10
6.05403
20
-3.9407
11
6.05287
21
-3.94236
0
LINE
8
BLACK
6
CONTINUOUS
10
6.05287
20
-3.94236
11
6.05092
21
-3.94288
0
LINE
8
BLACK
6
CONTINUOUS
10
6.05092
20
-3.94288
11
6.04909
21
-3.94203
0
LINE
8
BLACK
6
CONTINUOUS
10
6.04909
20
-3.94203
11
6.04721
21
-3.94015
0
LINE
8
BLACK
6
CONTINUOUS
10
6.04721
20
-3.94015
11
6.04663
21
-3.93931
0
LINE
8
BLACK
6
CONTINUOUS
10
6.04663
20
-3.93931
11
6.04661
21
-3.93914
0
LINE
8
BLACK
6
CONTINUOUS
10
6.04661
20
-3.93914
11
6.0465
21
-3.939
0
LINE
8
BLACK
6
CONTINUOUS
10
6.0465
20
-3.939
11
6.04463
21
-3.93337
0
LINE
8
BLACK
6
CONTINUOUS
10
6.04463
20
-3.93337
11
6.0445
21
-3.9325
0
LINE
8
BLACK
6
CONTINUOUS
10
6.0445
20
-3.9325
11
6.04448
21
-3.93244
0
LINE
8
BLACK
6
CONTINUOUS
10
6.04448
20
-3.93244
11
6.04448
21
-3.92869
0
LINE
8
BLACK
6
CONTINUOUS
10
6.04448
20
-3.92869
11
6.04463
21
-3.92782
0
LINE
8
BLACK
6
CONTINUOUS
10
6.04463
20
-3.92782
11
6.04463
21
-3.92776
0
LINE
8
BLACK
6
CONTINUOUS
10
6.04463
20
-3.92776
11
6.0465
21
-3.92213
0
LINE
8
BLACK
6
CONTINUOUS
10
6.0465
20
-3.92213
11
6.04699
21
-3.92123
0
LINE
8
BLACK
6
CONTINUOUS
10
6.04699
20
-3.92123
11
6.04714
21
-3.92114
0
LINE
8
BLACK
6
CONTINUOUS
10
6.04714
20
-3.92114
11
6.04721
21
-3.92098
0
LINE
8
BLACK
6
CONTINUOUS
10
6.04721
20
-3.92098
11
6.05096
21
-3.91723
0
LINE
8
BLACK
6
CONTINUOUS
10
6.05096
20
-3.91723
11
6.05169
21
-3.91672
0
LINE
8
BLACK
6
CONTINUOUS
10
6.05169
20
-3.91672
11
6.05173
21
-3.91667
0
LINE
8
BLACK
6
CONTINUOUS
10
6.05173
20
-3.91667
11
6.05548
21
-3.9148
0
LINE
8
BLACK
6
CONTINUOUS
10
6.05548
20
-3.9148
11
6.05597
21
-3.91465
0
LINE
8
BLACK
6
CONTINUOUS
10
6.05597
20
-3.91465
11
6.05609
21
-3.91458
0
LINE
8
BLACK
6
CONTINUOUS
10
6.05609
20
-3.91458
11
6.06358
21
-3.9127
0
LINE
8
BLACK
6
CONTINUOUS
10
6.06358
20
-3.9127
11
6.06417
21
-3.91266
0
LINE
8
BLACK
6
CONTINUOUS
10
6.06417
20
-3.91266
11
6.0643
21
-3.91261
0
LINE
8
BLACK
6
CONTINUOUS
10
6.0643
20
-3.91261
11
6.06993
21
-3.91261
0
LINE
8
BLACK
6
CONTINUOUS
10
6.06993
20
-3.91261
11
6.07051
21
-3.91272
0
CIRCLE
8
BLACK
10
5.4465
20
-3.534
40
0.00688976
0
CIRCLE
8
BLACK
10
5.4465
20
-4.734
40
0.00688976
0
CIRCLE
8
BLACK
10
6.02775
20
-3.7715
40
0.00688976
0
CIRCLE
8
BLACK
10
6.2965
20
-3.96525
40
0.00688976
0
CIRCLE
8
BLACK
10
6.1965
20
-3.96525
40
0.00688976
0
CIRCLE
8
BLACK
10
6.2965
20
-3.86525
40
0.00688976
0
CIRCLE
8
BLACK
10
6.1965
20
-3.86525
40
0.00688976
0
CIRCLE
8
BLACK
10
6.2965
20
-3.76525
40
0.00688976
0
CIRCLE
8
BLACK
10
6.1965
20
-3.76525
40
0.00688976
0
CIRCLE
8
BLACK
10
6.2465
20
-3.534
40
0.00688976
0
CIRCLE
8
BLACK
10
5.784
20
-4.1215
40
0.00688976
0
CIRCLE
8
BLACK
10
5.684
20
-4.1215
40
0.00688976
0
CIRCLE
8
BLACK
10
5.584
20
-4.1215
40
0.00688976
0
CIRCLE
8
BLACK
10
5.4965
20
-3.934
40
0.00688976
0
CIRCLE
8
BLACK
10
5.3965
20
-3.934
40
0.00688976
0
CIRCLE
8
BLACK
10
5.4965
20
-3.834
40
0.00688976
0
CIRCLE
8
BLACK
10
5.3965
20
-3.834
40
0.00688976
0
CIRCLE
8
BLACK
10
5.4965
20
-3.734
40
0.00688976
0
CIRCLE
8
BLACK
10
5.3965
20
-3.734
40
0.00688976
0
CIRCLE
8
BLACK
10
6.2965
20
-4.534
40
0.00688976
0
CIRCLE
8
BLACK
10
6.1965
20
-4.534
40
0.00688976
0
CIRCLE
8
BLACK
10
6.2965
20
-4.434
40
0.00688976
0
CIRCLE
8
BLACK
10
6.1965
20
-4.434
40
0.00688976
0
CIRCLE
8
BLACK
10
6.2965
20
-4.334
40
0.00688976
0
CIRCLE
8
BLACK
10
6.1965
20
-4.334
40
0.00688976
0
CIRCLE
8
BLACK
10
6.2965
20
-4.234
40
0.00688976
0
CIRCLE
8
BLACK
10
6.1965
20
-4.234
40
0.00688976
0
CIRCLE
8
BLACK
10
6.2965
20
-4.134
40
0.00688976
0
CIRCLE
8
BLACK
10
6.1965
20
-4.134
40
0.00688976
0
CIRCLE
8
BLACK
10
6.2465
20
-4.734
40
0.00688976
0
CIRCLE
8
BLACK
10
6.0465
20
-3.484
40
0.00688976
0
CIRCLE
8
BLACK
10
6.0465
20
-3.584
40
0.00688976
0
CIRCLE
8
BLACK
10
5.9465
20
-3.484
40
0.00688976
0
CIRCLE
8
BLACK
10
5.9465
20
-3.584
40
0.00688976
0
CIRCLE
8
BLACK
10
5.8465
20
-3.484
40
0.00688976
0
CIRCLE
8
BLACK
10
5.8465
20
-3.584
40
0.00688976
0
CIRCLE
8
BLACK
10
5.7465
20
-3.484
40
0.00688976
0
CIRCLE
8
BLACK
10
5.7465
20
-3.584
40
0.00688976
0
CIRCLE
8
BLACK
10
5.6465
20
-3.484
40
0.00688976
0
CIRCLE
8
BLACK
10
5.6465
20
-3.584
40
0.00688976
0
CIRCLE
8
BLACK
10
5.7215
20
-3.9715
40
0.00688976
0
CIRCLE
8
BLACK
10
5.7215
20
-3.8715
40
0.00688976
0
CIRCLE
8
BLACK
10
5.89571
20
-4.34896
40
0.00688976
0
CIRCLE
8
BLACK
10
5.79729
20
-4.34896
40
0.00688976
0
CIRCLE
8
BLACK
10
5.79729
20
-4.4277
40
0.00688976
0
CIRCLE
8
BLACK
10
5.89571
20
-4.4277
40
0.00688976
0
CIRCLE
8
BLACK
10
5.61028
20
-4.534
40
0.00688976
0
CIRCLE
8
BLACK
10
6.08272
20
-4.534
40
0.00688976
0
CIRCLE
8
BLACK
10
5.4215
20
-4.12691
40
0.00688976
0
CIRCLE
8
BLACK
10
5.4215
20
-4.52061
40
0.00688976
0
CIRCLE
8
BLACK
10
5.4215
20
-4.32376
40
0.00688976
  0
ENDSEC
  0
EOF
