<?xml version='1.0' encoding='ASCII' standalone='yes'?>
<svg xmlns:svg="http://www.w3.org/2000/svg" xmlns="http://www.w3.org/2000/svg" xmlns:xlink="http://www.w3.org/1999/xlink" version="1.1" width="297.0022mm" height="210.0072mm" viewBox="0.0000 0.0000 297.0022 210.0072">
<title>SVG Image created as USBI2C01-F_Fab.svg date 2023/07/10 00:46:16 </title>
  <desc>Image generated by PCBNEW </desc>
<g style="fill:#848484; fill-opacity:1.0000;stroke:#848484; stroke-opacity:1.0000; stroke-linecap:round; stroke-linejoin:round;" transform="translate(0 0) scale(1 1)">
</g>
<g style="fill:#848484; fill-opacity:0.0;  stroke:#848484; stroke-width:0.0000; stroke-opacity:1;  stroke-linecap:round; stroke-linejoin:round;">
</g>
<g style="fill:#848484; fill-opacity:0.01;  stroke:#848484; stroke-width:0.4779; stroke-opacity:1;  stroke-linecap:round; stroke-linejoin:round;">
<text x="165.9240" y="75.2287" textLength="37.5059" font-size="8.2126" lengthAdjust="spacingAndGlyphs" text-anchor="start" opacity="0.01" style="font-family:monospace">MA01-1</text>
<g class="stroked-text"><desc>MA01-1</desc>
<path d="M167.7049 74.9736 L167.7049 68.8142 "/>
<path d="M167.7049 68.8142 L169.7581 73.2137 "/>
<path d="M169.7581 73.2137 L171.8112 68.8142 "/>
<path d="M171.8112 68.8142 L171.8112 74.9736 "/>
<path d="M174.4510 73.2137 L177.3840 73.2137 "/>
<path d="M173.8643 74.9736 L175.9175 68.8142 "/>
<path d="M175.9175 68.8142 L177.9706 74.9736 "/>
<path d="M181.1970 68.8142 L181.7836 68.8142 "/>
<path d="M181.7836 68.8142 L182.3702 69.1075 "/>
<path d="M182.3702 69.1075 L182.6635 69.4008 "/>
<path d="M182.6635 69.4008 L182.9568 69.9874 "/>
<path d="M182.9568 69.9874 L183.2501 71.1606 "/>
<path d="M183.2501 71.1606 L183.2501 72.6271 "/>
<path d="M183.2501 72.6271 L182.9568 73.8004 "/>
<path d="M182.9568 73.8004 L182.6635 74.3870 "/>
<path d="M182.6635 74.3870 L182.3702 74.6803 "/>
<path d="M182.3702 74.6803 L181.7836 74.9736 "/>
<path d="M181.7836 74.9736 L181.1970 74.9736 "/>
<path d="M181.1970 74.9736 L180.6104 74.6803 "/>
<path d="M180.6104 74.6803 L180.3171 74.3870 "/>
<path d="M180.3171 74.3870 L180.0238 73.8004 "/>
<path d="M180.0238 73.8004 L179.7305 72.6271 "/>
<path d="M179.7305 72.6271 L179.7305 71.1606 "/>
<path d="M179.7305 71.1606 L180.0238 69.9874 "/>
<path d="M180.0238 69.9874 L180.3171 69.4008 "/>
<path d="M180.3171 69.4008 L180.6104 69.1075 "/>
<path d="M180.6104 69.1075 L181.1970 68.8142 "/>
<path d="M189.1162 74.9736 L185.5966 74.9736 "/>
<path d="M187.3564 74.9736 L187.3564 68.8142 "/>
<path d="M187.3564 68.8142 L186.7698 69.6941 "/>
<path d="M186.7698 69.6941 L186.1832 70.2807 "/>
<path d="M186.1832 70.2807 L185.5966 70.5740 "/>
<path d="M191.7560 72.6271 L196.4489 72.6271 "/>
<path d="M202.6083 74.9736 L199.0886 74.9736 "/>
<path d="M200.8485 74.9736 L200.8485 68.8142 "/>
<path d="M200.8485 68.8142 L200.2618 69.6941 "/>
<path d="M200.2618 69.6941 L199.6752 70.2807 "/>
<path d="M199.6752 70.2807 L199.0886 70.5740 "/>
</g><g transform="rotate(-90.000000 223.5026 75.9654)">
<text x="223.5026" y="79.0451" textLength="37.5059" font-size="8.2126" lengthAdjust="spacingAndGlyphs" text-anchor="start" opacity="0.01" style="font-family:monospace">MA03-2</text>
</g>
<g class="stroked-text"><desc>MA03-2</desc>
<path d="M226.3272 74.1845 L220.1678 74.1845 "/>
<path d="M220.1678 74.1845 L224.5674 72.1314 "/>
<path d="M224.5674 72.1314 L220.1678 70.0782 "/>
<path d="M220.1678 70.0782 L226.3272 70.0782 "/>
<path d="M224.5674 67.4385 L224.5674 64.5054 "/>
<path d="M226.3272 68.0251 L220.1678 65.9719 "/>
<path d="M220.1678 65.9719 L226.3272 63.9188 "/>
<path d="M220.1678 60.6924 L220.1678 60.1058 "/>
<path d="M220.1678 60.1058 L220.4611 59.5192 "/>
<path d="M220.4611 59.5192 L220.7544 59.2259 "/>
<path d="M220.7544 59.2259 L221.3410 58.9326 "/>
<path d="M221.3410 58.9326 L222.5142 58.6393 "/>
<path d="M222.5142 58.6393 L223.9808 58.6393 "/>
<path d="M223.9808 58.6393 L225.1540 58.9326 "/>
<path d="M225.1540 58.9326 L225.7406 59.2259 "/>
<path d="M225.7406 59.2259 L226.0339 59.5192 "/>
<path d="M226.0339 59.5192 L226.3272 60.1058 "/>
<path d="M226.3272 60.1058 L226.3272 60.6924 "/>
<path d="M226.3272 60.6924 L226.0339 61.2790 "/>
<path d="M226.0339 61.2790 L225.7406 61.5724 "/>
<path d="M225.7406 61.5724 L225.1540 61.8657 "/>
<path d="M225.1540 61.8657 L223.9808 62.1590 "/>
<path d="M223.9808 62.1590 L222.5142 62.1590 "/>
<path d="M222.5142 62.1590 L221.3410 61.8657 "/>
<path d="M221.3410 61.8657 L220.7544 61.5724 "/>
<path d="M220.7544 61.5724 L220.4611 61.2790 "/>
<path d="M220.4611 61.2790 L220.1678 60.6924 "/>
<path d="M220.1678 56.5862 L220.1678 52.7732 "/>
<path d="M220.1678 52.7732 L222.5142 54.8263 "/>
<path d="M222.5142 54.8263 L222.5142 53.9464 "/>
<path d="M222.5142 53.9464 L222.8075 53.3598 "/>
<path d="M222.8075 53.3598 L223.1008 53.0665 "/>
<path d="M223.1008 53.0665 L223.6875 52.7732 "/>
<path d="M223.6875 52.7732 L225.1540 52.7732 "/>
<path d="M225.1540 52.7732 L225.7406 53.0665 "/>
<path d="M225.7406 53.0665 L226.0339 53.3598 "/>
<path d="M226.0339 53.3598 L226.3272 53.9464 "/>
<path d="M226.3272 53.9464 L226.3272 55.7062 "/>
<path d="M226.3272 55.7062 L226.0339 56.2929 "/>
<path d="M226.0339 56.2929 L225.7406 56.5862 "/>
<path d="M223.9808 50.1334 L223.9808 45.4406 "/>
<path d="M220.7544 42.8008 L220.4611 42.5075 "/>
<path d="M220.4611 42.5075 L220.1678 41.9209 "/>
<path d="M220.1678 41.9209 L220.1678 40.4544 "/>
<path d="M220.1678 40.4544 L220.4611 39.8677 "/>
<path d="M220.4611 39.8677 L220.7544 39.5744 "/>
<path d="M220.7544 39.5744 L221.3410 39.2811 "/>
<path d="M221.3410 39.2811 L221.9276 39.2811 "/>
<path d="M221.9276 39.2811 L222.8075 39.5744 "/>
<path d="M222.8075 39.5744 L226.3272 43.0941 "/>
<path d="M226.3272 43.0941 L226.3272 39.2811 "/>
</g><text x="146.8418" y="91.1582" textLength="37.5059" font-size="8.2126" lengthAdjust="spacingAndGlyphs" text-anchor="end" opacity="0.01" style="font-family:monospace">MA03-1</text>
<g class="stroked-text"><desc>MA03-1</desc>
<path d="M110.4508 90.9031 L110.4508 84.7437 "/>
<path d="M110.4508 84.7437 L112.5039 89.1433 "/>
<path d="M112.5039 89.1433 L114.5571 84.7437 "/>
<path d="M114.5571 84.7437 L114.5571 90.9031 "/>
<path d="M117.1968 89.1433 L120.1299 89.1433 "/>
<path d="M116.6102 90.9031 L118.6634 84.7437 "/>
<path d="M118.6634 84.7437 L120.7165 90.9031 "/>
<path d="M123.9429 84.7437 L124.5295 84.7437 "/>
<path d="M124.5295 84.7437 L125.1161 85.0370 "/>
<path d="M125.1161 85.0370 L125.4094 85.3303 "/>
<path d="M125.4094 85.3303 L125.7027 85.9169 "/>
<path d="M125.7027 85.9169 L125.9960 87.0901 "/>
<path d="M125.9960 87.0901 L125.9960 88.5567 "/>
<path d="M125.9960 88.5567 L125.7027 89.7299 "/>
<path d="M125.7027 89.7299 L125.4094 90.3165 "/>
<path d="M125.4094 90.3165 L125.1161 90.6098 "/>
<path d="M125.1161 90.6098 L124.5295 90.9031 "/>
<path d="M124.5295 90.9031 L123.9429 90.9031 "/>
<path d="M123.9429 90.9031 L123.3562 90.6098 "/>
<path d="M123.3562 90.6098 L123.0629 90.3165 "/>
<path d="M123.0629 90.3165 L122.7696 89.7299 "/>
<path d="M122.7696 89.7299 L122.4763 88.5567 "/>
<path d="M122.4763 88.5567 L122.4763 87.0901 "/>
<path d="M122.4763 87.0901 L122.7696 85.9169 "/>
<path d="M122.7696 85.9169 L123.0629 85.3303 "/>
<path d="M123.0629 85.3303 L123.3562 85.0370 "/>
<path d="M123.3562 85.0370 L123.9429 84.7437 "/>
<path d="M128.0491 84.7437 L131.8621 84.7437 "/>
<path d="M131.8621 84.7437 L129.8090 87.0901 "/>
<path d="M129.8090 87.0901 L130.6889 87.0901 "/>
<path d="M130.6889 87.0901 L131.2755 87.3834 "/>
<path d="M131.2755 87.3834 L131.5688 87.6767 "/>
<path d="M131.5688 87.6767 L131.8621 88.2633 "/>
<path d="M131.8621 88.2633 L131.8621 89.7299 "/>
<path d="M131.8621 89.7299 L131.5688 90.3165 "/>
<path d="M131.5688 90.3165 L131.2755 90.6098 "/>
<path d="M131.2755 90.6098 L130.6889 90.9031 "/>
<path d="M130.6889 90.9031 L128.9291 90.9031 "/>
<path d="M128.9291 90.9031 L128.3424 90.6098 "/>
<path d="M128.3424 90.6098 L128.0491 90.3165 "/>
<path d="M134.5019 88.5567 L139.1947 88.5567 "/>
<path d="M145.3542 90.9031 L141.8345 90.9031 "/>
<path d="M143.5943 90.9031 L143.5943 84.7437 "/>
<path d="M143.5943 84.7437 L143.0077 85.6236 "/>
<path d="M143.0077 85.6236 L142.4211 86.2102 "/>
<path d="M142.4211 86.2102 L141.8345 86.5035 "/>
</g><g transform="rotate(-90.000000 117.3058 71.8171)">
<text x="117.3058" y="74.8968" textLength="37.5059" font-size="8.2126" lengthAdjust="spacingAndGlyphs" text-anchor="start" opacity="0.01" style="font-family:monospace">MA03-2</text>
</g>
<g class="stroked-text"><desc>MA03-2</desc>
<path d="M120.1304 70.0362 L113.9710 70.0362 "/>
<path d="M113.9710 70.0362 L118.3706 67.9830 "/>
<path d="M118.3706 67.9830 L113.9710 65.9299 "/>
<path d="M113.9710 65.9299 L120.1304 65.9299 "/>
<path d="M118.3706 63.2901 L118.3706 60.3571 "/>
<path d="M120.1304 63.8768 L113.9710 61.8236 "/>
<path d="M113.9710 61.8236 L120.1304 59.7705 "/>
<path d="M113.9710 56.5441 L113.9710 55.9575 "/>
<path d="M113.9710 55.9575 L114.2643 55.3709 "/>
<path d="M114.2643 55.3709 L114.5576 55.0776 "/>
<path d="M114.5576 55.0776 L115.1442 54.7843 "/>
<path d="M115.1442 54.7843 L116.3174 54.4910 "/>
<path d="M116.3174 54.4910 L117.7840 54.4910 "/>
<path d="M117.7840 54.4910 L118.9572 54.7843 "/>
<path d="M118.9572 54.7843 L119.5438 55.0776 "/>
<path d="M119.5438 55.0776 L119.8371 55.3709 "/>
<path d="M119.8371 55.3709 L120.1304 55.9575 "/>
<path d="M120.1304 55.9575 L120.1304 56.5441 "/>
<path d="M120.1304 56.5441 L119.8371 57.1307 "/>
<path d="M119.8371 57.1307 L119.5438 57.4240 "/>
<path d="M119.5438 57.4240 L118.9572 57.7173 "/>
<path d="M118.9572 57.7173 L117.7840 58.0107 "/>
<path d="M117.7840 58.0107 L116.3174 58.0107 "/>
<path d="M116.3174 58.0107 L115.1442 57.7173 "/>
<path d="M115.1442 57.7173 L114.5576 57.4240 "/>
<path d="M114.5576 57.4240 L114.2643 57.1307 "/>
<path d="M114.2643 57.1307 L113.9710 56.5441 "/>
<path d="M113.9710 52.4378 L113.9710 48.6249 "/>
<path d="M113.9710 48.6249 L116.3174 50.6780 "/>
<path d="M116.3174 50.6780 L116.3174 49.7981 "/>
<path d="M116.3174 49.7981 L116.6107 49.2115 "/>
<path d="M116.6107 49.2115 L116.9040 48.9182 "/>
<path d="M116.9040 48.9182 L117.4907 48.6249 "/>
<path d="M117.4907 48.6249 L118.9572 48.6249 "/>
<path d="M118.9572 48.6249 L119.5438 48.9182 "/>
<path d="M119.5438 48.9182 L119.8371 49.2115 "/>
<path d="M119.8371 49.2115 L120.1304 49.7981 "/>
<path d="M120.1304 49.7981 L120.1304 51.5579 "/>
<path d="M120.1304 51.5579 L119.8371 52.1445 "/>
<path d="M119.8371 52.1445 L119.5438 52.4378 "/>
<path d="M117.7840 45.9851 L117.7840 41.2922 "/>
<path d="M114.5576 38.6525 L114.2643 38.3592 "/>
<path d="M114.2643 38.3592 L113.9710 37.7726 "/>
<path d="M113.9710 37.7726 L113.9710 36.3060 "/>
<path d="M113.9710 36.3060 L114.2643 35.7194 "/>
<path d="M114.2643 35.7194 L114.5576 35.4261 "/>
<path d="M114.5576 35.4261 L115.1442 35.1328 "/>
<path d="M115.1442 35.1328 L115.7308 35.1328 "/>
<path d="M115.7308 35.1328 L116.6107 35.4261 "/>
<path d="M116.6107 35.4261 L120.1304 38.9458 "/>
<path d="M120.1304 38.9458 L120.1304 35.1328 "/>
</g><g transform="rotate(-90.000000 223.5026 131.5528)">
<text x="223.5026" y="134.6325" textLength="37.5059" font-size="8.2126" lengthAdjust="spacingAndGlyphs" text-anchor="start" opacity="0.01" style="font-family:monospace">MA05-2</text>
</g>
<g class="stroked-text"><desc>MA05-2</desc>
<path d="M226.3272 129.7719 L220.1678 129.7719 "/>
<path d="M220.1678 129.7719 L224.5674 127.7187 "/>
<path d="M224.5674 127.7187 L220.1678 125.6656 "/>
<path d="M220.1678 125.6656 L226.3272 125.6656 "/>
<path d="M224.5674 123.0259 L224.5674 120.0928 "/>
<path d="M226.3272 123.6125 L220.1678 121.5593 "/>
<path d="M220.1678 121.5593 L226.3272 119.5062 "/>
<path d="M220.1678 116.2798 L220.1678 115.6932 "/>
<path d="M220.1678 115.6932 L220.4611 115.1066 "/>
<path d="M220.4611 115.1066 L220.7544 114.8133 "/>
<path d="M220.7544 114.8133 L221.3410 114.5200 "/>
<path d="M221.3410 114.5200 L222.5142 114.2267 "/>
<path d="M222.5142 114.2267 L223.9808 114.2267 "/>
<path d="M223.9808 114.2267 L225.1540 114.5200 "/>
<path d="M225.1540 114.5200 L225.7406 114.8133 "/>
<path d="M225.7406 114.8133 L226.0339 115.1066 "/>
<path d="M226.0339 115.1066 L226.3272 115.6932 "/>
<path d="M226.3272 115.6932 L226.3272 116.2798 "/>
<path d="M226.3272 116.2798 L226.0339 116.8664 "/>
<path d="M226.0339 116.8664 L225.7406 117.1597 "/>
<path d="M225.7406 117.1597 L225.1540 117.4530 "/>
<path d="M225.1540 117.4530 L223.9808 117.7464 "/>
<path d="M223.9808 117.7464 L222.5142 117.7464 "/>
<path d="M222.5142 117.7464 L221.3410 117.4530 "/>
<path d="M221.3410 117.4530 L220.7544 117.1597 "/>
<path d="M220.7544 117.1597 L220.4611 116.8664 "/>
<path d="M220.4611 116.8664 L220.1678 116.2798 "/>
<path d="M220.1678 108.6539 L220.1678 111.5869 "/>
<path d="M220.1678 111.5869 L223.1008 111.8802 "/>
<path d="M223.1008 111.8802 L222.8075 111.5869 "/>
<path d="M222.8075 111.5869 L222.5142 111.0003 "/>
<path d="M222.5142 111.0003 L222.5142 109.5338 "/>
<path d="M222.5142 109.5338 L222.8075 108.9472 "/>
<path d="M222.8075 108.9472 L223.1008 108.6539 "/>
<path d="M223.1008 108.6539 L223.6875 108.3606 "/>
<path d="M223.6875 108.3606 L225.1540 108.3606 "/>
<path d="M225.1540 108.3606 L225.7406 108.6539 "/>
<path d="M225.7406 108.6539 L226.0339 108.9472 "/>
<path d="M226.0339 108.9472 L226.3272 109.5338 "/>
<path d="M226.3272 109.5338 L226.3272 111.0003 "/>
<path d="M226.3272 111.0003 L226.0339 111.5869 "/>
<path d="M226.0339 111.5869 L225.7406 111.8802 "/>
<path d="M223.9808 105.7208 L223.9808 101.0279 "/>
<path d="M220.7544 98.3882 L220.4611 98.0949 "/>
<path d="M220.4611 98.0949 L220.1678 97.5083 "/>
<path d="M220.1678 97.5083 L220.1678 96.0418 "/>
<path d="M220.1678 96.0418 L220.4611 95.4551 "/>
<path d="M220.4611 95.4551 L220.7544 95.1618 "/>
<path d="M220.7544 95.1618 L221.3410 94.8685 "/>
<path d="M221.3410 94.8685 L221.9276 94.8685 "/>
<path d="M221.9276 94.8685 L222.8075 95.1618 "/>
<path d="M222.8075 95.1618 L226.3272 98.6815 "/>
<path d="M226.3272 98.6815 L226.3272 94.8685 "/>
</g><text x="148.5011" y="6.5326" textLength="37.5059" font-size="8.2126" lengthAdjust="spacingAndGlyphs" text-anchor="end" opacity="0.01" style="font-family:monospace">MA05-2</text>
<g class="stroked-text"><desc>MA05-2</desc>
<path d="M112.1101 6.2775 L112.1101 0.1181 "/>
<path d="M112.1101 0.1181 L114.1633 4.5177 "/>
<path d="M114.1633 4.5177 L116.2164 0.1181 "/>
<path d="M116.2164 0.1181 L116.2164 6.2775 "/>
<path d="M118.8562 4.5177 L121.7892 4.5177 "/>
<path d="M118.2695 6.2775 L120.3227 0.1181 "/>
<path d="M120.3227 0.1181 L122.3758 6.2775 "/>
<path d="M125.6022 0.1181 L126.1888 0.1181 "/>
<path d="M126.1888 0.1181 L126.7754 0.4114 "/>
<path d="M126.7754 0.4114 L127.0687 0.7047 "/>
<path d="M127.0687 0.7047 L127.3620 1.2913 "/>
<path d="M127.3620 1.2913 L127.6553 2.4645 "/>
<path d="M127.6553 2.4645 L127.6553 3.9311 "/>
<path d="M127.6553 3.9311 L127.3620 5.1043 "/>
<path d="M127.3620 5.1043 L127.0687 5.6909 "/>
<path d="M127.0687 5.6909 L126.7754 5.9842 "/>
<path d="M126.7754 5.9842 L126.1888 6.2775 "/>
<path d="M126.1888 6.2775 L125.6022 6.2775 "/>
<path d="M125.6022 6.2775 L125.0156 5.9842 "/>
<path d="M125.0156 5.9842 L124.7223 5.6909 "/>
<path d="M124.7223 5.6909 L124.4290 5.1043 "/>
<path d="M124.4290 5.1043 L124.1357 3.9311 "/>
<path d="M124.1357 3.9311 L124.1357 2.4645 "/>
<path d="M124.1357 2.4645 L124.4290 1.2913 "/>
<path d="M124.4290 1.2913 L124.7223 0.7047 "/>
<path d="M124.7223 0.7047 L125.0156 0.4114 "/>
<path d="M125.0156 0.4114 L125.6022 0.1181 "/>
<path d="M133.2281 0.1181 L130.2951 0.1181 "/>
<path d="M130.2951 0.1181 L130.0018 3.0512 "/>
<path d="M130.0018 3.0512 L130.2951 2.7579 "/>
<path d="M130.2951 2.7579 L130.8817 2.4645 "/>
<path d="M130.8817 2.4645 L132.3482 2.4645 "/>
<path d="M132.3482 2.4645 L132.9348 2.7579 "/>
<path d="M132.9348 2.7579 L133.2281 3.0512 "/>
<path d="M133.2281 3.0512 L133.5214 3.6378 "/>
<path d="M133.5214 3.6378 L133.5214 5.1043 "/>
<path d="M133.5214 5.1043 L133.2281 5.6909 "/>
<path d="M133.2281 5.6909 L132.9348 5.9842 "/>
<path d="M132.9348 5.9842 L132.3482 6.2775 "/>
<path d="M132.3482 6.2775 L130.8817 6.2775 "/>
<path d="M130.8817 6.2775 L130.2951 5.9842 "/>
<path d="M130.2951 5.9842 L130.0018 5.6909 "/>
<path d="M136.1612 3.9311 L140.8541 3.9311 "/>
<path d="M143.4938 0.7047 L143.7871 0.4114 "/>
<path d="M143.7871 0.4114 L144.3737 0.1181 "/>
<path d="M144.3737 0.1181 L145.8403 0.1181 "/>
<path d="M145.8403 0.1181 L146.4269 0.4114 "/>
<path d="M146.4269 0.4114 L146.7202 0.7047 "/>
<path d="M146.7202 0.7047 L147.0135 1.2913 "/>
<path d="M147.0135 1.2913 L147.0135 1.8779 "/>
<path d="M147.0135 1.8779 L146.7202 2.7579 "/>
<path d="M146.7202 2.7579 L143.2005 6.2775 "/>
<path d="M143.2005 6.2775 L147.0135 6.2775 "/>
</g></g>
<g style="fill:#848484; fill-opacity:0.01;  stroke:#848484; stroke-width:0.4885; stroke-opacity:1;  stroke-linecap:round; stroke-linejoin:round;">
<text x="128.5892" y="201.0002" textLength="29.2715" font-size="8.1984" lengthAdjust="spacingAndGlyphs" text-anchor="start" opacity="0.01" style="font-family:monospace">USB_B</text>
<g class="stroked-text"><desc>USB_B</desc>
<path d="M130.3746 194.5962 L130.3746 199.5738 "/>
<path d="M130.3746 199.5738 L130.6674 200.1594 "/>
<path d="M130.6674 200.1594 L130.9602 200.4522 "/>
<path d="M130.9602 200.4522 L131.5458 200.7450 "/>
<path d="M131.5458 200.7450 L132.7170 200.7450 "/>
<path d="M132.7170 200.7450 L133.3026 200.4522 "/>
<path d="M133.3026 200.4522 L133.5954 200.1594 "/>
<path d="M133.5954 200.1594 L133.8882 199.5738 "/>
<path d="M133.8882 199.5738 L133.8882 194.5962 "/>
<path d="M136.5234 200.4522 L137.4018 200.7450 "/>
<path d="M137.4018 200.7450 L138.8658 200.7450 "/>
<path d="M138.8658 200.7450 L139.4514 200.4522 "/>
<path d="M139.4514 200.4522 L139.7442 200.1594 "/>
<path d="M139.7442 200.1594 L140.0370 199.5738 "/>
<path d="M140.0370 199.5738 L140.0370 198.9882 "/>
<path d="M140.0370 198.9882 L139.7442 198.4026 "/>
<path d="M139.7442 198.4026 L139.4514 198.1098 "/>
<path d="M139.4514 198.1098 L138.8658 197.8170 "/>
<path d="M138.8658 197.8170 L137.6946 197.5242 "/>
<path d="M137.6946 197.5242 L137.1090 197.2314 "/>
<path d="M137.1090 197.2314 L136.8162 196.9386 "/>
<path d="M136.8162 196.9386 L136.5234 196.3530 "/>
<path d="M136.5234 196.3530 L136.5234 195.7674 "/>
<path d="M136.5234 195.7674 L136.8162 195.1818 "/>
<path d="M136.8162 195.1818 L137.1090 194.8890 "/>
<path d="M137.1090 194.8890 L137.6946 194.5962 "/>
<path d="M137.6946 194.5962 L139.1586 194.5962 "/>
<path d="M139.1586 194.5962 L140.0370 194.8890 "/>
<path d="M144.7218 197.5242 L145.6002 197.8170 "/>
<path d="M145.6002 197.8170 L145.8930 198.1098 "/>
<path d="M145.8930 198.1098 L146.1858 198.6954 "/>
<path d="M146.1858 198.6954 L146.1858 199.5738 "/>
<path d="M146.1858 199.5738 L145.8930 200.1594 "/>
<path d="M145.8930 200.1594 L145.6002 200.4522 "/>
<path d="M145.6002 200.4522 L145.0146 200.7450 "/>
<path d="M145.0146 200.7450 L142.6722 200.7450 "/>
<path d="M142.6722 200.7450 L142.6722 194.5962 "/>
<path d="M142.6722 194.5962 L144.7218 194.5962 "/>
<path d="M144.7218 194.5962 L145.3074 194.8890 "/>
<path d="M145.3074 194.8890 L145.6002 195.1818 "/>
<path d="M145.6002 195.1818 L145.8930 195.7674 "/>
<path d="M145.8930 195.7674 L145.8930 196.3530 "/>
<path d="M145.8930 196.3530 L145.6002 196.9386 "/>
<path d="M145.6002 196.9386 L145.3074 197.2314 "/>
<path d="M145.3074 197.2314 L144.7218 197.5242 "/>
<path d="M144.7218 197.5242 L142.6722 197.5242 "/>
<path d="M147.3570 201.3306 L152.0418 201.3306 "/>
<path d="M155.5554 197.5242 L156.4338 197.8170 "/>
<path d="M156.4338 197.8170 L156.7266 198.1098 "/>
<path d="M156.7266 198.1098 L157.0194 198.6954 "/>
<path d="M157.0194 198.6954 L157.0194 199.5738 "/>
<path d="M157.0194 199.5738 L156.7266 200.1594 "/>
<path d="M156.7266 200.1594 L156.4338 200.4522 "/>
<path d="M156.4338 200.4522 L155.8482 200.7450 "/>
<path d="M155.8482 200.7450 L153.5058 200.7450 "/>
<path d="M153.5058 200.7450 L153.5058 194.5962 "/>
<path d="M153.5058 194.5962 L155.5554 194.5962 "/>
<path d="M155.5554 194.5962 L156.1410 194.8890 "/>
<path d="M156.1410 194.8890 L156.4338 195.1818 "/>
<path d="M156.4338 195.1818 L156.7266 195.7674 "/>
<path d="M156.7266 195.7674 L156.7266 196.3530 "/>
<path d="M156.7266 196.3530 L156.4338 196.9386 "/>
<path d="M156.4338 196.9386 L156.1410 197.2314 "/>
<path d="M156.1410 197.2314 L155.5554 197.5242 "/>
<path d="M155.5554 197.5242 L153.5058 197.5242 "/>
</g></g>
<g style="fill:#848484; fill-opacity:1.0000;  stroke:#848484; stroke-width:0.0000; stroke-opacity:1;  stroke-linecap:round; stroke-linejoin:round;">
<path style="fill:#848484; fill-opacity:1.0000;  stroke:#848484; stroke-width:0.0000; stroke-opacity:1;  stroke-linecap:round; stroke-linejoin:round;fill-rule:evenodd;" d="M 173.8888,58.2106 171.2339,58.2106 171.2339,55.5557 173.8888,55.5557 Z"/> 
<path style="fill:#848484; fill-opacity:1.0000;  stroke:#848484; stroke-width:0.0000; stroke-opacity:1;  stroke-linecap:round; stroke-linejoin:round;fill-rule:evenodd;" d="M 196.2897,83.9302 193.6347,83.9302 193.6347,81.2753 196.2897,81.2753 Z"/> 
<path style="fill:#848484; fill-opacity:1.0000;  stroke:#848484; stroke-width:0.0000; stroke-opacity:1;  stroke-linecap:round; stroke-linejoin:round;fill-rule:evenodd;" d="M 209.5643,57.3810 206.9093,57.3810 206.9093,54.7261 209.5643,54.7261 Z"/> 
<path style="fill:#848484; fill-opacity:1.0000;  stroke:#848484; stroke-width:0.0000; stroke-opacity:1;  stroke-linecap:round; stroke-linejoin:round;fill-rule:evenodd;" d="M 196.2897,70.6556 193.6347,70.6556 193.6347,68.0007 196.2897,68.0007 Z"/> 
<path style="fill:#848484; fill-opacity:1.0000;  stroke:#848484; stroke-width:0.0000; stroke-opacity:1;  stroke-linecap:round; stroke-linejoin:round;fill-rule:evenodd;" d="M 209.5643,83.9302 206.9093,83.9302 206.9093,81.2753 209.5643,81.2753 Z"/> 
<path style="fill:#848484; fill-opacity:1.0000;  stroke:#848484; stroke-width:0.0000; stroke-opacity:1;  stroke-linecap:round; stroke-linejoin:round;fill-rule:evenodd;" d="M 209.5643,70.6556 206.9093,70.6556 206.9093,68.0007 209.5643,68.0007 Z"/> 
<path style="fill:#848484; fill-opacity:1.0000;  stroke:#848484; stroke-width:0.0000; stroke-opacity:1;  stroke-linecap:round; stroke-linejoin:round;fill-rule:evenodd;" d="M 196.2897,57.3810 193.6347,57.3810 193.6347,54.7261 196.2897,54.7261 Z"/> 
<path style="fill:#848484; fill-opacity:1.0000;  stroke:#848484; stroke-width:0.0000; stroke-opacity:1;  stroke-linecap:round; stroke-linejoin:round;fill-rule:evenodd;" d="M 141.5319,104.6717 138.8770,104.6717 138.8770,102.0168 141.5319,102.0168 Z"/> 
<path style="fill:#848484; fill-opacity:1.0000;  stroke:#848484; stroke-width:0.0000; stroke-opacity:1;  stroke-linecap:round; stroke-linejoin:round;fill-rule:evenodd;" d="M 114.9827,104.6717 112.3278,104.6717 112.3278,102.0168 114.9827,102.0168 Z"/> 
<path style="fill:#848484; fill-opacity:1.0000;  stroke:#848484; stroke-width:0.0000; stroke-opacity:1;  stroke-linecap:round; stroke-linejoin:round;fill-rule:evenodd;" d="M 103.3675,66.5073 100.7125,66.5073 100.7125,63.8523 103.3675,63.8523 Z"/> 
<path style="fill:#848484; fill-opacity:1.0000;  stroke:#848484; stroke-width:0.0000; stroke-opacity:1;  stroke-linecap:round; stroke-linejoin:round;fill-rule:evenodd;" d="M 103.3675,53.2327 100.7125,53.2327 100.7125,50.5777 103.3675,50.5777 Z"/> 
<path style="fill:#848484; fill-opacity:1.0000;  stroke:#848484; stroke-width:0.0000; stroke-opacity:1;  stroke-linecap:round; stroke-linejoin:round;fill-rule:evenodd;" d="M 90.0929,53.2327 87.4379,53.2327 87.4379,50.5777 90.0929,50.5777 Z"/> 
<path style="fill:#848484; fill-opacity:1.0000;  stroke:#848484; stroke-width:0.0000; stroke-opacity:1;  stroke-linecap:round; stroke-linejoin:round;fill-rule:evenodd;" d="M 90.0929,66.5073 87.4379,66.5073 87.4379,63.8523 90.0929,63.8523 Z"/> 
<path style="fill:#848484; fill-opacity:1.0000;  stroke:#848484; stroke-width:0.0000; stroke-opacity:1;  stroke-linecap:round; stroke-linejoin:round;fill-rule:evenodd;" d="M 103.3675,79.7819 100.7125,79.7819 100.7125,77.1269 103.3675,77.1269 Z"/> 
<path style="fill:#848484; fill-opacity:1.0000;  stroke:#848484; stroke-width:0.0000; stroke-opacity:1;  stroke-linecap:round; stroke-linejoin:round;fill-rule:evenodd;" d="M 90.0929,79.7819 87.4379,79.7819 87.4379,77.1269 90.0929,77.1269 Z"/> 
<path style="fill:#848484; fill-opacity:1.0000;  stroke:#848484; stroke-width:0.0000; stroke-opacity:1;  stroke-linecap:round; stroke-linejoin:round;fill-rule:evenodd;" d="M 209.5643,132.8803 206.9093,132.8803 206.9093,130.2253 209.5643,130.2253 Z"/> 
<path style="fill:#848484; fill-opacity:1.0000;  stroke:#848484; stroke-width:0.0000; stroke-opacity:1;  stroke-linecap:round; stroke-linejoin:round;fill-rule:evenodd;" d="M 196.2897,119.6057 193.6347,119.6057 193.6347,116.9507 196.2897,116.9507 Z"/> 
<path style="fill:#848484; fill-opacity:1.0000;  stroke:#848484; stroke-width:0.0000; stroke-opacity:1;  stroke-linecap:round; stroke-linejoin:round;fill-rule:evenodd;" d="M 209.5643,106.3311 206.9093,106.3311 206.9093,103.6761 209.5643,103.6761 Z"/> 
<path style="fill:#848484; fill-opacity:1.0000;  stroke:#848484; stroke-width:0.0000; stroke-opacity:1;  stroke-linecap:round; stroke-linejoin:round;fill-rule:evenodd;" d="M 196.2897,132.8803 193.6347,132.8803 193.6347,130.2253 196.2897,130.2253 Z"/> 
<path style="fill:#848484; fill-opacity:1.0000;  stroke:#848484; stroke-width:0.0000; stroke-opacity:1;  stroke-linecap:round; stroke-linejoin:round;fill-rule:evenodd;" d="M 196.2897,146.1549 193.6347,146.1549 193.6347,143.4999 196.2897,143.4999 Z"/> 
<path style="fill:#848484; fill-opacity:1.0000;  stroke:#848484; stroke-width:0.0000; stroke-opacity:1;  stroke-linecap:round; stroke-linejoin:round;fill-rule:evenodd;" d="M 209.5643,119.6057 206.9093,119.6057 206.9093,116.9507 209.5643,116.9507 Z"/> 
<path style="fill:#848484; fill-opacity:1.0000;  stroke:#848484; stroke-width:0.0000; stroke-opacity:1;  stroke-linecap:round; stroke-linejoin:round;fill-rule:evenodd;" d="M 196.2897,159.4295 193.6347,159.4295 193.6347,156.7745 196.2897,156.7745 Z"/> 
<path style="fill:#848484; fill-opacity:1.0000;  stroke:#848484; stroke-width:0.0000; stroke-opacity:1;  stroke-linecap:round; stroke-linejoin:round;fill-rule:evenodd;" d="M 196.2897,106.3311 193.6347,106.3311 193.6347,103.6761 196.2897,103.6761 Z"/> 
<path style="fill:#848484; fill-opacity:1.0000;  stroke:#848484; stroke-width:0.0000; stroke-opacity:1;  stroke-linecap:round; stroke-linejoin:round;fill-rule:evenodd;" d="M 209.5643,159.4295 206.9093,159.4295 206.9093,156.7745 209.5643,156.7745 Z"/> 
<path style="fill:#848484; fill-opacity:1.0000;  stroke:#848484; stroke-width:0.0000; stroke-opacity:1;  stroke-linecap:round; stroke-linejoin:round;fill-rule:evenodd;" d="M 209.5643,146.1549 206.9093,146.1549 206.9093,143.4999 209.5643,143.4999 Z"/> 
<path style="fill:#848484; fill-opacity:1.0000;  stroke:#848484; stroke-width:0.0000; stroke-opacity:1;  stroke-linecap:round; stroke-linejoin:round;fill-rule:evenodd;" d="M 136.5540,33.3208 133.8990,33.3208 133.8990,30.6658 136.5540,30.6658 Z"/> 
<path style="fill:#848484; fill-opacity:1.0000;  stroke:#848484; stroke-width:0.0000; stroke-opacity:1;  stroke-linecap:round; stroke-linejoin:round;fill-rule:evenodd;" d="M 136.5540,20.0462 133.8990,20.0462 133.8990,17.3912 136.5540,17.3912 Z"/> 
<path style="fill:#848484; fill-opacity:1.0000;  stroke:#848484; stroke-width:0.0000; stroke-opacity:1;  stroke-linecap:round; stroke-linejoin:round;fill-rule:evenodd;" d="M 123.2794,33.3208 120.6244,33.3208 120.6244,30.6658 123.2794,30.6658 Z"/> 
<path style="fill:#848484; fill-opacity:1.0000;  stroke:#848484; stroke-width:0.0000; stroke-opacity:1;  stroke-linecap:round; stroke-linejoin:round;fill-rule:evenodd;" d="M 176.3778,33.3208 173.7228,33.3208 173.7228,30.6658 176.3778,30.6658 Z"/> 
<path style="fill:#848484; fill-opacity:1.0000;  stroke:#848484; stroke-width:0.0000; stroke-opacity:1;  stroke-linecap:round; stroke-linejoin:round;fill-rule:evenodd;" d="M 149.8286,33.3208 147.1736,33.3208 147.1736,30.6658 149.8286,30.6658 Z"/> 
<path style="fill:#848484; fill-opacity:1.0000;  stroke:#848484; stroke-width:0.0000; stroke-opacity:1;  stroke-linecap:round; stroke-linejoin:round;fill-rule:evenodd;" d="M 123.2794,20.0462 120.6244,20.0462 120.6244,17.3912 123.2794,17.3912 Z"/> 
<path style="fill:#848484; fill-opacity:1.0000;  stroke:#848484; stroke-width:0.0000; stroke-opacity:1;  stroke-linecap:round; stroke-linejoin:round;fill-rule:evenodd;" d="M 163.1032,33.3208 160.4482,33.3208 160.4482,30.6658 163.1032,30.6658 Z"/> 
<path style="fill:#848484; fill-opacity:1.0000;  stroke:#848484; stroke-width:0.0000; stroke-opacity:1;  stroke-linecap:round; stroke-linejoin:round;fill-rule:evenodd;" d="M 149.8286,20.0462 147.1736,20.0462 147.1736,17.3912 149.8286,17.3912 Z"/> 
<path style="fill:#848484; fill-opacity:1.0000;  stroke:#848484; stroke-width:0.0000; stroke-opacity:1;  stroke-linecap:round; stroke-linejoin:round;fill-rule:evenodd;" d="M 176.3778,20.0462 173.7228,20.0462 173.7228,17.3912 176.3778,17.3912 Z"/> 
<path style="fill:#848484; fill-opacity:1.0000;  stroke:#848484; stroke-width:0.0000; stroke-opacity:1;  stroke-linecap:round; stroke-linejoin:round;fill-rule:evenodd;" d="M 163.1032,20.0462 160.4482,20.0462 160.4482,17.3912 163.1032,17.3912 Z"/> 
<path style="fill:#848484; fill-opacity:1.0000;  stroke:#848484; stroke-width:0.0000; stroke-opacity:1;  stroke-linecap:round; stroke-linejoin:round;fill-rule:evenodd;" d="M 133.2353,84.7598 130.5804,84.7598 130.5804,82.1049 133.2353,82.1049 Z"/> 
<g>
</g>
<g>
</g>
<g>
</g>
<g>
</g>
<g>
</g>
<g>
</g>
<g>
</g>
<g>
</g>
<g>
</g>
<g>
</g>
<g>
</g>
<g>
</g>
<g>
</g>
<g>
</g>
<g>
</g>
<g>
</g>
<g>
</g>
<g>
</g>
<g>
</g>
<g>
</g>
<g>
</g>
<g>
</g>
<g>
</g>
<g>
</g>
<g>
</g>
<g>
</g>
<g>
</g>
<g>
</g>
<g>
</g>
</g> 
<svg:g><svg:g><svg:title>SVG Image created as USBI2C01-Edge_Cuts.svg date 2023/07/10 00:46:16 </svg:title>
  <svg:desc>Image generated by PCBNEW </svg:desc>
<svg:g style="fill:#C2C200; fill-opacity:1.0000;stroke:#C2C200; stroke-opacity:1.0000; stroke-linecap:round; stroke-linejoin:round;" transform="translate(0 0) scale(1 1)">
</svg:g>
<svg:g style="fill:#C2C200; fill-opacity:0.0;  stroke:#C2C200; stroke-width:0.0000; stroke-opacity:1;  stroke-linecap:round; stroke-linejoin:round;">
</svg:g>
<svg:g style="fill:#C2C200; fill-opacity:0.0;  stroke:#C2C200; stroke-width:0.2613; stroke-opacity:1;  stroke-linecap:round; stroke-linejoin:round;">
<svg:path d="M70.1810 0.1343 L70.1810 209.8729 "/>
<svg:path d="M70.1810 209.8729 L226.8212 209.8729 "/>
<svg:path d="M226.8212 209.8729 L226.8212 0.1343 "/>
<svg:path d="M226.8212 0.1343 L70.1810 0.1343 "/>
<svg:g>
</svg:g>
<svg:g>
</svg:g>
<svg:g>
</svg:g>
<svg:g>
</svg:g>
<svg:g>
</svg:g>
<svg:g>
</svg:g>
<svg:g>
</svg:g>
<svg:g>
</svg:g>
<svg:g>
</svg:g>
<svg:g>
</svg:g>
<svg:g>
</svg:g>
<svg:g>
</svg:g>
<svg:g>
</svg:g>
<svg:g>
</svg:g>
<svg:g>
</svg:g>
<svg:g>
</svg:g>
<svg:g>
</svg:g>
<svg:g>
</svg:g>
<svg:g>
</svg:g>
<svg:g>
</svg:g>
<svg:g>
</svg:g>
<svg:g>
</svg:g>
<svg:g>
</svg:g>
<svg:g>
</svg:g>
<svg:g>
</svg:g>
<svg:g>
</svg:g>
<svg:g>
</svg:g>
<svg:g>
</svg:g>
<svg:g>
</svg:g>
</svg:g> 
</svg:g></svg:g></svg>
