<?xml version='1.0' encoding='ASCII' standalone='yes'?>
<svg xmlns:svg="http://www.w3.org/2000/svg" xmlns="http://www.w3.org/2000/svg" xmlns:xlink="http://www.w3.org/1999/xlink" version="1.1" width="297.0022mm" height="210.0072mm" viewBox="0.0000 0.0000 297.0022 210.0072">
<title>SVG Image created as USBI2C01-B_Fab.svg date 2023/09/11 00:33:10 </title>
  <desc>Image generated by PCBNEW </desc>
<g style="fill:#000084; fill-opacity:1.0000;stroke:#000084; stroke-opacity:1.0000; stroke-linecap:round; stroke-linejoin:round;" transform="translate(0 0) scale(1 1)">
</g>
<g style="fill:#000084; fill-opacity:0.0;  stroke:#000084; stroke-width:0.0000; stroke-opacity:1;  stroke-linecap:round; stroke-linejoin:round;">
</g>
<g style="fill:#000084; fill-opacity:0.01;  stroke:#000084; stroke-width:0.4885; stroke-opacity:1;  stroke-linecap:round; stroke-linejoin:round;">
<g transform="rotate(-90.000000 128.5892 158.9317)">
<text x="128.5892" y="162.0061" transform="scale(-1 1) translate(-257.178396 0)" textLength="31.2725" font-size="8.1984" lengthAdjust="spacingAndGlyphs" text-anchor="end" opacity="0.01" style="font-family:monospace">750mA</text>
</g>
<g class="stroked-text"><desc>750mA</desc>
<path d="M131.9188 128.4519 L131.9188 132.5511 "/>
<path d="M131.9188 132.5511 L125.7700 129.9159 "/>
<path d="M131.9188 137.8215 L131.9188 134.8935 "/>
<path d="M131.9188 134.8935 L128.9908 134.6007 "/>
<path d="M128.9908 134.6007 L129.2836 134.8935 "/>
<path d="M129.2836 134.8935 L129.5764 135.4791 "/>
<path d="M129.5764 135.4791 L129.5764 136.9431 "/>
<path d="M129.5764 136.9431 L129.2836 137.5287 "/>
<path d="M129.2836 137.5287 L128.9908 137.8215 "/>
<path d="M128.9908 137.8215 L128.4053 138.1143 "/>
<path d="M128.4053 138.1143 L126.9413 138.1143 "/>
<path d="M126.9413 138.1143 L126.3557 137.8215 "/>
<path d="M126.3557 137.8215 L126.0628 137.5287 "/>
<path d="M126.0628 137.5287 L125.7700 136.9431 "/>
<path d="M125.7700 136.9431 L125.7700 135.4791 "/>
<path d="M125.7700 135.4791 L126.0628 134.8935 "/>
<path d="M126.0628 134.8935 L126.3557 134.6007 "/>
<path d="M131.9188 141.9207 L131.9188 142.5063 "/>
<path d="M131.9188 142.5063 L131.6260 143.0919 "/>
<path d="M131.6260 143.0919 L131.3332 143.3847 "/>
<path d="M131.3332 143.3847 L130.7476 143.6775 "/>
<path d="M130.7476 143.6775 L129.5764 143.9703 "/>
<path d="M129.5764 143.9703 L128.1124 143.9703 "/>
<path d="M128.1124 143.9703 L126.9413 143.6775 "/>
<path d="M126.9413 143.6775 L126.3557 143.3847 "/>
<path d="M126.3557 143.3847 L126.0628 143.0919 "/>
<path d="M126.0628 143.0919 L125.7700 142.5063 "/>
<path d="M125.7700 142.5063 L125.7700 141.9207 "/>
<path d="M125.7700 141.9207 L126.0628 141.3351 "/>
<path d="M126.0628 141.3351 L126.3557 141.0423 "/>
<path d="M126.3557 141.0423 L126.9413 140.7495 "/>
<path d="M126.9413 140.7495 L128.1124 140.4567 "/>
<path d="M128.1124 140.4567 L129.5764 140.4567 "/>
<path d="M129.5764 140.4567 L130.7476 140.7495 "/>
<path d="M130.7476 140.7495 L131.3332 141.0423 "/>
<path d="M131.3332 141.0423 L131.6260 141.3351 "/>
<path d="M131.6260 141.3351 L131.9188 141.9207 "/>
<path d="M125.7700 146.6055 L129.8692 146.6055 "/>
<path d="M129.2836 146.6055 L129.5764 146.8983 "/>
<path d="M129.5764 146.8983 L129.8692 147.4839 "/>
<path d="M129.8692 147.4839 L129.8692 148.3623 "/>
<path d="M129.8692 148.3623 L129.5764 148.9479 "/>
<path d="M129.5764 148.9479 L128.9908 149.2407 "/>
<path d="M128.9908 149.2407 L125.7700 149.2407 "/>
<path d="M128.9908 149.2407 L129.5764 149.5335 "/>
<path d="M129.5764 149.5335 L129.8692 150.1191 "/>
<path d="M129.8692 150.1191 L129.8692 150.9975 "/>
<path d="M129.8692 150.9975 L129.5764 151.5831 "/>
<path d="M129.5764 151.5831 L128.9908 151.8759 "/>
<path d="M128.9908 151.8759 L125.7700 151.8759 "/>
<path d="M127.5268 154.5111 L127.5268 157.4391 "/>
<path d="M125.7700 153.9255 L131.9188 155.9751 "/>
<path d="M131.9188 155.9751 L125.7700 158.0247 "/>
</g><g transform="rotate(-90.000000 165.9240 77.6247)">
<text x="165.9240" y="80.6991" transform="scale(-1 1) translate(-331.848024 0)" textLength="16.9253" font-size="8.1984" lengthAdjust="spacingAndGlyphs" text-anchor="start" opacity="0.01" style="font-family:monospace">4k7</text>
</g>
<g class="stroked-text"><desc>4k7</desc>
<path d="M167.2041 82.0453 L163.1049 82.0453 "/>
<path d="M169.5465 80.5813 L165.1545 79.1173 "/>
<path d="M165.1545 79.1173 L165.1545 82.9237 "/>
<path d="M163.1049 85.2661 L169.2537 85.2661 "/>
<path d="M165.4473 85.8517 L163.1049 87.6085 "/>
<path d="M167.2041 87.6085 L164.8617 85.2661 "/>
<path d="M169.2537 89.6581 L169.2537 93.7573 "/>
<path d="M169.2537 93.7573 L163.1049 91.1221 "/>
</g><text x="178.3690" y="137.9458" transform="scale(-1 1) translate(-356.737900 0)" textLength="23.9525" font-size="8.1984" lengthAdjust="spacingAndGlyphs" text-anchor="start" opacity="0.01" style="font-family:monospace">470R</text>
<g class="stroked-text"><desc>470R</desc>
<path d="M182.7895 133.5914 L182.7895 137.6906 "/>
<path d="M181.3255 131.2490 L179.8615 135.6410 "/>
<path d="M179.8615 135.6410 L183.6679 135.6410 "/>
<path d="M185.4247 131.5418 L189.5239 131.5418 "/>
<path d="M189.5239 131.5418 L186.8887 137.6906 "/>
<path d="M193.0375 131.5418 L193.6231 131.5418 "/>
<path d="M193.6231 131.5418 L194.2087 131.8346 "/>
<path d="M194.2087 131.8346 L194.5015 132.1274 "/>
<path d="M194.5015 132.1274 L194.7943 132.7130 "/>
<path d="M194.7943 132.7130 L195.0871 133.8842 "/>
<path d="M195.0871 133.8842 L195.0871 135.3482 "/>
<path d="M195.0871 135.3482 L194.7943 136.5194 "/>
<path d="M194.7943 136.5194 L194.5015 137.1050 "/>
<path d="M194.5015 137.1050 L194.2087 137.3978 "/>
<path d="M194.2087 137.3978 L193.6231 137.6906 "/>
<path d="M193.6231 137.6906 L193.0375 137.6906 "/>
<path d="M193.0375 137.6906 L192.4519 137.3978 "/>
<path d="M192.4519 137.3978 L192.1591 137.1050 "/>
<path d="M192.1591 137.1050 L191.8663 136.5194 "/>
<path d="M191.8663 136.5194 L191.5735 135.3482 "/>
<path d="M191.5735 135.3482 L191.5735 133.8842 "/>
<path d="M191.5735 133.8842 L191.8663 132.7130 "/>
<path d="M191.8663 132.7130 L192.1591 132.1274 "/>
<path d="M192.1591 132.1274 L192.4519 131.8346 "/>
<path d="M192.4519 131.8346 L193.0375 131.5418 "/>
<path d="M201.2359 137.6906 L199.1863 134.7626 "/>
<path d="M197.7223 137.6906 L197.7223 131.5418 "/>
<path d="M197.7223 131.5418 L200.0647 131.5418 "/>
<path d="M200.0647 131.5418 L200.6503 131.8346 "/>
<path d="M200.6503 131.8346 L200.9431 132.1274 "/>
<path d="M200.9431 132.1274 L201.2359 132.7130 "/>
<path d="M201.2359 132.7130 L201.2359 133.5914 "/>
<path d="M201.2359 133.5914 L200.9431 134.1770 "/>
<path d="M200.9431 134.1770 L200.6503 134.4698 "/>
<path d="M200.6503 134.4698 L200.0647 134.7626 "/>
<path d="M200.0647 134.7626 L197.7223 134.7626 "/>
</g><text x="178.3690" y="147.0721" transform="scale(-1 1) translate(-356.737900 0)" textLength="23.9525" font-size="8.1984" lengthAdjust="spacingAndGlyphs" text-anchor="start" opacity="0.01" style="font-family:monospace">470R</text>
<g class="stroked-text"><desc>470R</desc>
<path d="M182.7895 142.7177 L182.7895 146.8169 "/>
<path d="M181.3255 140.3753 L179.8615 144.7673 "/>
<path d="M179.8615 144.7673 L183.6679 144.7673 "/>
<path d="M185.4247 140.6681 L189.5239 140.6681 "/>
<path d="M189.5239 140.6681 L186.8887 146.8169 "/>
<path d="M193.0375 140.6681 L193.6231 140.6681 "/>
<path d="M193.6231 140.6681 L194.2087 140.9609 "/>
<path d="M194.2087 140.9609 L194.5015 141.2537 "/>
<path d="M194.5015 141.2537 L194.7943 141.8393 "/>
<path d="M194.7943 141.8393 L195.0871 143.0105 "/>
<path d="M195.0871 143.0105 L195.0871 144.4745 "/>
<path d="M195.0871 144.4745 L194.7943 145.6457 "/>
<path d="M194.7943 145.6457 L194.5015 146.2313 "/>
<path d="M194.5015 146.2313 L194.2087 146.5241 "/>
<path d="M194.2087 146.5241 L193.6231 146.8169 "/>
<path d="M193.6231 146.8169 L193.0375 146.8169 "/>
<path d="M193.0375 146.8169 L192.4519 146.5241 "/>
<path d="M192.4519 146.5241 L192.1591 146.2313 "/>
<path d="M192.1591 146.2313 L191.8663 145.6457 "/>
<path d="M191.8663 145.6457 L191.5735 144.4745 "/>
<path d="M191.5735 144.4745 L191.5735 143.0105 "/>
<path d="M191.5735 143.0105 L191.8663 141.8393 "/>
<path d="M191.8663 141.8393 L192.1591 141.2537 "/>
<path d="M192.1591 141.2537 L192.4519 140.9609 "/>
<path d="M192.4519 140.9609 L193.0375 140.6681 "/>
<path d="M201.2359 146.8169 L199.1863 143.8889 "/>
<path d="M197.7223 146.8169 L197.7223 140.6681 "/>
<path d="M197.7223 140.6681 L200.0647 140.6681 "/>
<path d="M200.0647 140.6681 L200.6503 140.9609 "/>
<path d="M200.6503 140.9609 L200.9431 141.2537 "/>
<path d="M200.9431 141.2537 L201.2359 141.8393 "/>
<path d="M201.2359 141.8393 L201.2359 142.7177 "/>
<path d="M201.2359 142.7177 L200.9431 143.3033 "/>
<path d="M200.9431 143.3033 L200.6503 143.5961 "/>
<path d="M200.6503 143.5961 L200.0647 143.8889 "/>
<path d="M200.0647 143.8889 L197.7223 143.8889 "/>
</g></g>
<g style="fill:#000084; fill-opacity:0.01;  stroke:#000084; stroke-width:0.7839; stroke-opacity:1;  stroke-linecap:round; stroke-linejoin:round;">
<text x="116.9739" y="135.3418" transform="scale(-1 1) translate(-233.947845 0)" textLength="15.4920" font-size="6.9683" lengthAdjust="spacingAndGlyphs" text-anchor="middle" opacity="0.01" style="font-family:monospace">1uF</text>
<g class="stroked-text"><desc>1uF</desc>
<path d="M113.8631 135.1057 L110.8767 135.1057 "/>
<path d="M112.3699 135.1057 L112.3699 129.8795 "/>
<path d="M112.3699 129.8795 L111.8721 130.6261 "/>
<path d="M111.8721 130.6261 L111.3744 131.1238 "/>
<path d="M111.3744 131.1238 L110.8767 131.3727 "/>
<path d="M118.3427 131.6215 L118.3427 135.1057 "/>
<path d="M116.1029 131.6215 L116.1029 134.3591 "/>
<path d="M116.1029 134.3591 L116.3518 134.8568 "/>
<path d="M116.3518 134.8568 L116.8495 135.1057 "/>
<path d="M116.8495 135.1057 L117.5961 135.1057 "/>
<path d="M117.5961 135.1057 L118.0938 134.8568 "/>
<path d="M118.0938 134.8568 L118.3427 134.6079 "/>
<path d="M122.5734 132.3681 L120.8314 132.3681 "/>
<path d="M120.8314 135.1057 L120.8314 129.8795 "/>
<path d="M120.8314 129.8795 L123.3200 129.8795 "/>
</g></g>
<g style="fill:#000084; fill-opacity:0.01;  stroke:#000084; stroke-width:0.4181; stroke-opacity:1;  stroke-linecap:round; stroke-linejoin:round;">
<text x="116.9739" y="142.8153" transform="scale(-1 1) translate(-233.947845 0)" textLength="5.8335" font-size="3.4841" lengthAdjust="spacingAndGlyphs" text-anchor="middle" opacity="0.01" style="font-family:monospace">C1</text>
<g class="stroked-text"><desc>C1</desc>
<path d="M116.5384 142.4470 L116.4140 142.5715 "/>
<path d="M116.4140 142.5715 L116.0407 142.6959 "/>
<path d="M116.0407 142.6959 L115.7918 142.6959 "/>
<path d="M115.7918 142.6959 L115.4185 142.5715 "/>
<path d="M115.4185 142.5715 L115.1696 142.3226 "/>
<path d="M115.1696 142.3226 L115.0452 142.0737 "/>
<path d="M115.0452 142.0737 L114.9208 141.5760 "/>
<path d="M114.9208 141.5760 L114.9208 141.2027 "/>
<path d="M114.9208 141.2027 L115.0452 140.7049 "/>
<path d="M115.0452 140.7049 L115.1696 140.4561 "/>
<path d="M115.1696 140.4561 L115.4185 140.2072 "/>
<path d="M115.4185 140.2072 L115.7918 140.0828 "/>
<path d="M115.7918 140.0828 L116.0407 140.0828 "/>
<path d="M116.0407 140.0828 L116.4140 140.2072 "/>
<path d="M116.4140 140.2072 L116.5384 140.3316 "/>
<path d="M119.0271 142.6959 L117.5339 142.6959 "/>
<path d="M118.2805 142.6959 L118.2805 140.0828 "/>
<path d="M118.2805 140.0828 L118.0316 140.4561 "/>
<path d="M118.0316 140.4561 L117.7827 140.7049 "/>
<path d="M117.7827 140.7049 L117.5339 140.8294 "/>
</g></g>
<g style="fill:#000084; fill-opacity:0.0;  stroke:#000084; stroke-width:0.7839; stroke-opacity:1;  stroke-linecap:round; stroke-linejoin:round;">
<g transform="rotate(-90.000000 148.0177 118.2782)">
<text x="148.0177" y="120.8913" transform="scale(-1 1) translate(-296.035347 0)" textLength="25.4467" font-size="6.9683" lengthAdjust="spacingAndGlyphs" text-anchor="middle" opacity="0.01" style="font-family:monospace">100nF</text>
</g>
<g class="stroked-text"><desc>100nF</desc>
<path d="M145.6407 110.1900 L145.6407 107.2036 "/>
<path d="M145.6407 108.6968 L150.8669 108.6968 "/>
<path d="M150.8669 108.6968 L150.1203 108.1991 "/>
<path d="M150.1203 108.1991 L149.6226 107.7013 "/>
<path d="M149.6226 107.7013 L149.3737 107.2036 "/>
<path d="M150.8669 113.4253 L150.8669 113.9230 "/>
<path d="M150.8669 113.9230 L150.6180 114.4207 "/>
<path d="M150.6180 114.4207 L150.3692 114.6696 "/>
<path d="M150.3692 114.6696 L149.8714 114.9185 "/>
<path d="M149.8714 114.9185 L148.8760 115.1674 "/>
<path d="M148.8760 115.1674 L147.6316 115.1674 "/>
<path d="M147.6316 115.1674 L146.6362 114.9185 "/>
<path d="M146.6362 114.9185 L146.1384 114.6696 "/>
<path d="M146.1384 114.6696 L145.8896 114.4207 "/>
<path d="M145.8896 114.4207 L145.6407 113.9230 "/>
<path d="M145.6407 113.9230 L145.6407 113.4253 "/>
<path d="M145.6407 113.4253 L145.8896 112.9275 "/>
<path d="M145.8896 112.9275 L146.1384 112.6787 "/>
<path d="M146.1384 112.6787 L146.6362 112.4298 "/>
<path d="M146.6362 112.4298 L147.6316 112.1809 "/>
<path d="M147.6316 112.1809 L148.8760 112.1809 "/>
<path d="M148.8760 112.1809 L149.8714 112.4298 "/>
<path d="M149.8714 112.4298 L150.3692 112.6787 "/>
<path d="M150.3692 112.6787 L150.6180 112.9275 "/>
<path d="M150.6180 112.9275 L150.8669 113.4253 "/>
<path d="M150.8669 118.4026 L150.8669 118.9004 "/>
<path d="M150.8669 118.9004 L150.6180 119.3981 "/>
<path d="M150.6180 119.3981 L150.3692 119.6470 "/>
<path d="M150.3692 119.6470 L149.8714 119.8958 "/>
<path d="M149.8714 119.8958 L148.8760 120.1447 "/>
<path d="M148.8760 120.1447 L147.6316 120.1447 "/>
<path d="M147.6316 120.1447 L146.6362 119.8958 "/>
<path d="M146.6362 119.8958 L146.1384 119.6470 "/>
<path d="M146.1384 119.6470 L145.8896 119.3981 "/>
<path d="M145.8896 119.3981 L145.6407 118.9004 "/>
<path d="M145.6407 118.9004 L145.6407 118.4026 "/>
<path d="M145.6407 118.4026 L145.8896 117.9049 "/>
<path d="M145.8896 117.9049 L146.1384 117.6560 "/>
<path d="M146.1384 117.6560 L146.6362 117.4072 "/>
<path d="M146.6362 117.4072 L147.6316 117.1583 "/>
<path d="M147.6316 117.1583 L148.8760 117.1583 "/>
<path d="M148.8760 117.1583 L149.8714 117.4072 "/>
<path d="M149.8714 117.4072 L150.3692 117.6560 "/>
<path d="M150.3692 117.6560 L150.6180 117.9049 "/>
<path d="M150.6180 117.9049 L150.8669 118.4026 "/>
<path d="M149.1248 122.3845 L145.6407 122.3845 "/>
<path d="M148.6271 122.3845 L148.8760 122.6334 "/>
<path d="M148.8760 122.6334 L149.1248 123.1311 "/>
<path d="M149.1248 123.1311 L149.1248 123.8777 "/>
<path d="M149.1248 123.8777 L148.8760 124.3755 "/>
<path d="M148.8760 124.3755 L148.3782 124.6243 "/>
<path d="M148.3782 124.6243 L145.6407 124.6243 "/>
<path d="M148.3782 128.8551 L148.3782 127.1130 "/>
<path d="M145.6407 127.1130 L150.8669 127.1130 "/>
<path d="M150.8669 127.1130 L150.8669 129.6017 "/>
</g></g>
<g style="fill:#000084; fill-opacity:0.0;  stroke:#000084; stroke-width:0.4181; stroke-opacity:1;  stroke-linecap:round; stroke-linejoin:round;">
<g transform="rotate(-90.000000 156.7977 118.2782)">
<text x="156.7977" y="119.5848" transform="scale(-1 1) translate(-313.595448 0)" textLength="5.8335" font-size="3.4841" lengthAdjust="spacingAndGlyphs" text-anchor="middle" opacity="0.01" style="font-family:monospace">C3</text>
</g>
<g class="stroked-text"><desc>C3</desc>
<path d="M155.8595 117.8427 L155.7350 117.7182 "/>
<path d="M155.7350 117.7182 L155.6106 117.3449 "/>
<path d="M155.6106 117.3449 L155.6106 117.0961 "/>
<path d="M155.6106 117.0961 L155.7350 116.7228 "/>
<path d="M155.7350 116.7228 L155.9839 116.4739 "/>
<path d="M155.9839 116.4739 L156.2328 116.3495 "/>
<path d="M156.2328 116.3495 L156.7305 116.2250 "/>
<path d="M156.7305 116.2250 L157.1038 116.2250 "/>
<path d="M157.1038 116.2250 L157.6015 116.3495 "/>
<path d="M157.6015 116.3495 L157.8504 116.4739 "/>
<path d="M157.8504 116.4739 L158.0993 116.7228 "/>
<path d="M158.0993 116.7228 L158.2237 117.0961 "/>
<path d="M158.2237 117.0961 L158.2237 117.3449 "/>
<path d="M158.2237 117.3449 L158.0993 117.7182 "/>
<path d="M158.0993 117.7182 L157.9748 117.8427 "/>
<path d="M158.2237 118.7137 L158.2237 120.3314 "/>
<path d="M158.2237 120.3314 L157.2282 119.4603 "/>
<path d="M157.2282 119.4603 L157.2282 119.8336 "/>
<path d="M157.2282 119.8336 L157.1038 120.0825 "/>
<path d="M157.1038 120.0825 L156.9794 120.2069 "/>
<path d="M156.9794 120.2069 L156.7305 120.3314 "/>
<path d="M156.7305 120.3314 L156.1083 120.3314 "/>
<path d="M156.1083 120.3314 L155.8595 120.2069 "/>
<path d="M155.8595 120.2069 L155.7350 120.0825 "/>
<path d="M155.7350 120.0825 L155.6106 119.8336 "/>
<path d="M155.6106 119.8336 L155.6106 119.0870 "/>
<path d="M155.6106 119.0870 L155.7350 118.8382 "/>
<path d="M155.7350 118.8382 L155.8595 118.7137 "/>
</g></g>
<g style="fill:#000084; fill-opacity:0.01;  stroke:#000084; stroke-width:0.4885; stroke-opacity:1;  stroke-linecap:round; stroke-linejoin:round;">
<text x="125.8520" y="144.3741" transform="scale(-1 1) translate(-251.703930 0)" textLength="71.6789" font-size="8.1984" lengthAdjust="spacingAndGlyphs" text-anchor="start" opacity="0.01" style="font-family:monospace">SP1001-04XTG</text>
<g class="stroked-text"><desc>SP1001-04XTG</desc>
<path d="M127.3445 143.8261 L128.2229 144.1189 "/>
<path d="M128.2229 144.1189 L129.6869 144.1189 "/>
<path d="M129.6869 144.1189 L130.2725 143.8261 "/>
<path d="M130.2725 143.8261 L130.5653 143.5332 "/>
<path d="M130.5653 143.5332 L130.8581 142.9477 "/>
<path d="M130.8581 142.9477 L130.8581 142.3621 "/>
<path d="M130.8581 142.3621 L130.5653 141.7765 "/>
<path d="M130.5653 141.7765 L130.2725 141.4837 "/>
<path d="M130.2725 141.4837 L129.6869 141.1909 "/>
<path d="M129.6869 141.1909 L128.5157 140.8981 "/>
<path d="M128.5157 140.8981 L127.9301 140.6053 "/>
<path d="M127.9301 140.6053 L127.6373 140.3125 "/>
<path d="M127.6373 140.3125 L127.3445 139.7269 "/>
<path d="M127.3445 139.7269 L127.3445 139.1413 "/>
<path d="M127.3445 139.1413 L127.6373 138.5557 "/>
<path d="M127.6373 138.5557 L127.9301 138.2629 "/>
<path d="M127.9301 138.2629 L128.5157 137.9701 "/>
<path d="M128.5157 137.9701 L129.9797 137.9701 "/>
<path d="M129.9797 137.9701 L130.8581 138.2629 "/>
<path d="M133.4933 144.1189 L133.4933 137.9701 "/>
<path d="M133.4933 137.9701 L135.8357 137.9701 "/>
<path d="M135.8357 137.9701 L136.4213 138.2629 "/>
<path d="M136.4213 138.2629 L136.7141 138.5557 "/>
<path d="M136.7141 138.5557 L137.0069 139.1413 "/>
<path d="M137.0069 139.1413 L137.0069 140.0197 "/>
<path d="M137.0069 140.0197 L136.7141 140.6053 "/>
<path d="M136.7141 140.6053 L136.4213 140.8981 "/>
<path d="M136.4213 140.8981 L135.8357 141.1909 "/>
<path d="M135.8357 141.1909 L133.4933 141.1909 "/>
<path d="M142.8629 144.1189 L139.3493 144.1189 "/>
<path d="M141.1061 144.1189 L141.1061 137.9701 "/>
<path d="M141.1061 137.9701 L140.5205 138.8485 "/>
<path d="M140.5205 138.8485 L139.9349 139.4341 "/>
<path d="M139.9349 139.4341 L139.3493 139.7269 "/>
<path d="M146.6693 137.9701 L147.2549 137.9701 "/>
<path d="M147.2549 137.9701 L147.8405 138.2629 "/>
<path d="M147.8405 138.2629 L148.1333 138.5557 "/>
<path d="M148.1333 138.5557 L148.4261 139.1413 "/>
<path d="M148.4261 139.1413 L148.7189 140.3125 "/>
<path d="M148.7189 140.3125 L148.7189 141.7765 "/>
<path d="M148.7189 141.7765 L148.4261 142.9477 "/>
<path d="M148.4261 142.9477 L148.1333 143.5332 "/>
<path d="M148.1333 143.5332 L147.8405 143.8261 "/>
<path d="M147.8405 143.8261 L147.2549 144.1189 "/>
<path d="M147.2549 144.1189 L146.6693 144.1189 "/>
<path d="M146.6693 144.1189 L146.0837 143.8261 "/>
<path d="M146.0837 143.8261 L145.7909 143.5332 "/>
<path d="M145.7909 143.5332 L145.4981 142.9477 "/>
<path d="M145.4981 142.9477 L145.2053 141.7765 "/>
<path d="M145.2053 141.7765 L145.2053 140.3125 "/>
<path d="M145.2053 140.3125 L145.4981 139.1413 "/>
<path d="M145.4981 139.1413 L145.7909 138.5557 "/>
<path d="M145.7909 138.5557 L146.0837 138.2629 "/>
<path d="M146.0837 138.2629 L146.6693 137.9701 "/>
<path d="M152.5253 137.9701 L153.1109 137.9701 "/>
<path d="M153.1109 137.9701 L153.6965 138.2629 "/>
<path d="M153.6965 138.2629 L153.9893 138.5557 "/>
<path d="M153.9893 138.5557 L154.2821 139.1413 "/>
<path d="M154.2821 139.1413 L154.5749 140.3125 "/>
<path d="M154.5749 140.3125 L154.5749 141.7765 "/>
<path d="M154.5749 141.7765 L154.2821 142.9477 "/>
<path d="M154.2821 142.9477 L153.9893 143.5332 "/>
<path d="M153.9893 143.5332 L153.6965 143.8261 "/>
<path d="M153.6965 143.8261 L153.1109 144.1189 "/>
<path d="M153.1109 144.1189 L152.5253 144.1189 "/>
<path d="M152.5253 144.1189 L151.9397 143.8261 "/>
<path d="M151.9397 143.8261 L151.6469 143.5332 "/>
<path d="M151.6469 143.5332 L151.3541 142.9477 "/>
<path d="M151.3541 142.9477 L151.0613 141.7765 "/>
<path d="M151.0613 141.7765 L151.0613 140.3125 "/>
<path d="M151.0613 140.3125 L151.3541 139.1413 "/>
<path d="M151.3541 139.1413 L151.6469 138.5557 "/>
<path d="M151.6469 138.5557 L151.9397 138.2629 "/>
<path d="M151.9397 138.2629 L152.5253 137.9701 "/>
<path d="M160.4309 144.1189 L156.9173 144.1189 "/>
<path d="M158.6741 144.1189 L158.6741 137.9701 "/>
<path d="M158.6741 137.9701 L158.0885 138.8485 "/>
<path d="M158.0885 138.8485 L157.5029 139.4341 "/>
<path d="M157.5029 139.4341 L156.9173 139.7269 "/>
<path d="M163.0661 141.7765 L167.7509 141.7765 "/>
<path d="M171.8501 137.9701 L172.4357 137.9701 "/>
<path d="M172.4357 137.9701 L173.0213 138.2629 "/>
<path d="M173.0213 138.2629 L173.3141 138.5557 "/>
<path d="M173.3141 138.5557 L173.6069 139.1413 "/>
<path d="M173.6069 139.1413 L173.8997 140.3125 "/>
<path d="M173.8997 140.3125 L173.8997 141.7765 "/>
<path d="M173.8997 141.7765 L173.6069 142.9477 "/>
<path d="M173.6069 142.9477 L173.3141 143.5332 "/>
<path d="M173.3141 143.5332 L173.0213 143.8261 "/>
<path d="M173.0213 143.8261 L172.4357 144.1189 "/>
<path d="M172.4357 144.1189 L171.8501 144.1189 "/>
<path d="M171.8501 144.1189 L171.2645 143.8261 "/>
<path d="M171.2645 143.8261 L170.9717 143.5332 "/>
<path d="M170.9717 143.5332 L170.6789 142.9477 "/>
<path d="M170.6789 142.9477 L170.3861 141.7765 "/>
<path d="M170.3861 141.7765 L170.3861 140.3125 "/>
<path d="M170.3861 140.3125 L170.6789 139.1413 "/>
<path d="M170.6789 139.1413 L170.9717 138.5557 "/>
<path d="M170.9717 138.5557 L171.2645 138.2629 "/>
<path d="M171.2645 138.2629 L171.8501 137.9701 "/>
<path d="M179.1701 140.0197 L179.1701 144.1189 "/>
<path d="M177.7061 137.6773 L176.2421 142.0693 "/>
<path d="M176.2421 142.0693 L180.0485 142.0693 "/>
<path d="M181.8053 137.9701 L185.9045 144.1189 "/>
<path d="M185.9045 137.9701 L181.8053 144.1189 "/>
<path d="M187.3685 137.9701 L190.8821 137.9701 "/>
<path d="M189.1253 144.1189 L189.1253 137.9701 "/>
<path d="M196.1525 138.2629 L195.5669 137.9701 "/>
<path d="M195.5669 137.9701 L194.6885 137.9701 "/>
<path d="M194.6885 137.9701 L193.8101 138.2629 "/>
<path d="M193.8101 138.2629 L193.2245 138.8485 "/>
<path d="M193.2245 138.8485 L192.9317 139.4341 "/>
<path d="M192.9317 139.4341 L192.6389 140.6053 "/>
<path d="M192.6389 140.6053 L192.6389 141.4837 "/>
<path d="M192.6389 141.4837 L192.9317 142.6549 "/>
<path d="M192.9317 142.6549 L193.2245 143.2405 "/>
<path d="M193.2245 143.2405 L193.8101 143.8261 "/>
<path d="M193.8101 143.8261 L194.6885 144.1189 "/>
<path d="M194.6885 144.1189 L195.2741 144.1189 "/>
<path d="M195.2741 144.1189 L196.1525 143.8261 "/>
<path d="M196.1525 143.8261 L196.4453 143.5332 "/>
<path d="M196.4453 143.5332 L196.4453 141.4837 "/>
<path d="M196.4453 141.4837 L195.2741 141.4837 "/>
</g><text x="185.0063" y="130.4789" transform="scale(-1 1) translate(-370.012501 0)" textLength="23.9525" font-size="8.1984" lengthAdjust="spacingAndGlyphs" text-anchor="end" opacity="0.01" style="font-family:monospace">470R</text>
<g class="stroked-text"><desc>470R</desc>
<path d="M165.0673 126.1244 L165.0673 130.2236 "/>
<path d="M163.6033 123.7820 L162.1393 128.1740 "/>
<path d="M162.1393 128.1740 L165.9457 128.1740 "/>
<path d="M167.7025 124.0748 L171.8017 124.0748 "/>
<path d="M171.8017 124.0748 L169.1665 130.2236 "/>
<path d="M175.3153 124.0748 L175.9009 124.0748 "/>
<path d="M175.9009 124.0748 L176.4865 124.3676 "/>
<path d="M176.4865 124.3676 L176.7793 124.6604 "/>
<path d="M176.7793 124.6604 L177.0721 125.2460 "/>
<path d="M177.0721 125.2460 L177.3649 126.4172 "/>
<path d="M177.3649 126.4172 L177.3649 127.8812 "/>
<path d="M177.3649 127.8812 L177.0721 129.0524 "/>
<path d="M177.0721 129.0524 L176.7793 129.6380 "/>
<path d="M176.7793 129.6380 L176.4865 129.9308 "/>
<path d="M176.4865 129.9308 L175.9009 130.2236 "/>
<path d="M175.9009 130.2236 L175.3153 130.2236 "/>
<path d="M175.3153 130.2236 L174.7297 129.9308 "/>
<path d="M174.7297 129.9308 L174.4369 129.6380 "/>
<path d="M174.4369 129.6380 L174.1441 129.0524 "/>
<path d="M174.1441 129.0524 L173.8513 127.8812 "/>
<path d="M173.8513 127.8812 L173.8513 126.4172 "/>
<path d="M173.8513 126.4172 L174.1441 125.2460 "/>
<path d="M174.1441 125.2460 L174.4369 124.6604 "/>
<path d="M174.4369 124.6604 L174.7297 124.3676 "/>
<path d="M174.7297 124.3676 L175.3153 124.0748 "/>
<path d="M183.5137 130.2236 L181.4641 127.2956 "/>
<path d="M180.0001 130.2236 L180.0001 124.0748 "/>
<path d="M180.0001 124.0748 L182.3425 124.0748 "/>
<path d="M182.3425 124.0748 L182.9281 124.3676 "/>
<path d="M182.9281 124.3676 L183.2209 124.6604 "/>
<path d="M183.2209 124.6604 L183.5137 125.2460 "/>
<path d="M183.5137 125.2460 L183.5137 126.1244 "/>
<path d="M183.5137 126.1244 L183.2209 126.7100 "/>
<path d="M183.2209 126.7100 L182.9281 127.0028 "/>
<path d="M182.9281 127.0028 L182.3425 127.2956 "/>
<path d="M182.3425 127.2956 L180.0001 127.2956 "/>
</g></g>
<g style="fill:#000084; fill-opacity:0.0;  stroke:#000084; stroke-width:0.7839; stroke-opacity:1;  stroke-linecap:round; stroke-linejoin:round;">
<g transform="rotate(-90.000000 136.5396 80.1137)">
<text x="136.5396" y="82.7268" transform="scale(-1 1) translate(-273.079172 0)" textLength="15.9897" font-size="6.9683" lengthAdjust="spacingAndGlyphs" text-anchor="middle" opacity="0.01" style="font-family:monospace">4u7</text>
</g>
<g class="stroked-text"><desc>4u7</desc>
<path d="M137.6468 76.2563 L134.1626 76.2563 "/>
<path d="M139.6377 75.0119 L135.9047 73.7676 "/>
<path d="M135.9047 73.7676 L135.9047 77.0029 "/>
<path d="M137.6468 81.2336 L134.1626 81.2336 "/>
<path d="M137.6468 78.9938 L134.9092 78.9938 "/>
<path d="M134.9092 78.9938 L134.4115 79.2427 "/>
<path d="M134.4115 79.2427 L134.1626 79.7404 "/>
<path d="M134.1626 79.7404 L134.1626 80.4870 "/>
<path d="M134.1626 80.4870 L134.4115 80.9848 "/>
<path d="M134.4115 80.9848 L134.6603 81.2336 "/>
<path d="M139.3888 83.2246 L139.3888 86.7087 "/>
<path d="M139.3888 86.7087 L134.1626 84.4689 "/>
</g></g>
<g style="fill:#000084; fill-opacity:0.0;  stroke:#000084; stroke-width:0.4181; stroke-opacity:1;  stroke-linecap:round; stroke-linejoin:round;">
<g transform="rotate(-90.000000 127.7595 80.1137)">
<text x="127.7595" y="81.4203" transform="scale(-1 1) translate(-255.519071 0)" textLength="5.8335" font-size="3.4841" lengthAdjust="spacingAndGlyphs" text-anchor="middle" opacity="0.01" style="font-family:monospace">C4</text>
</g>
<g class="stroked-text"><desc>C4</desc>
<path d="M126.8213 79.6782 L126.6968 79.5538 "/>
<path d="M126.6968 79.5538 L126.5724 79.1805 "/>
<path d="M126.5724 79.1805 L126.5724 78.9316 "/>
<path d="M126.5724 78.9316 L126.6968 78.5583 "/>
<path d="M126.6968 78.5583 L126.9457 78.3094 "/>
<path d="M126.9457 78.3094 L127.1946 78.1850 "/>
<path d="M127.1946 78.1850 L127.6923 78.0606 "/>
<path d="M127.6923 78.0606 L128.0656 78.0606 "/>
<path d="M128.0656 78.0606 L128.5633 78.1850 "/>
<path d="M128.5633 78.1850 L128.8122 78.3094 "/>
<path d="M128.8122 78.3094 L129.0611 78.5583 "/>
<path d="M129.0611 78.5583 L129.1855 78.9316 "/>
<path d="M129.1855 78.9316 L129.1855 79.1805 "/>
<path d="M129.1855 79.1805 L129.0611 79.5538 "/>
<path d="M129.0611 79.5538 L128.9366 79.6782 "/>
<path d="M128.3145 81.9180 L126.5724 81.9180 "/>
<path d="M129.3099 81.2958 L127.4434 80.6737 "/>
<path d="M127.4434 80.6737 L127.4434 82.2913 "/>
</g></g>
<g style="fill:#000084; fill-opacity:0.0;  stroke:#000084; stroke-width:0.7839; stroke-opacity:1;  stroke-linecap:round; stroke-linejoin:round;">
<g transform="rotate(-90.000000 158.8033 118.2782)">
<text x="158.8033" y="120.8913" transform="scale(-1 1) translate(-317.606573 0)" textLength="20.4694" font-size="6.9683" lengthAdjust="spacingAndGlyphs" text-anchor="middle" opacity="0.01" style="font-family:monospace">10uF</text>
</g>
<g class="stroked-text"><desc>10uF</desc>
<path d="M156.4263 112.6787 L156.4263 109.6923 "/>
<path d="M156.4263 111.1855 L161.6525 111.1855 "/>
<path d="M161.6525 111.1855 L160.9059 110.6877 "/>
<path d="M160.9059 110.6877 L160.4082 110.1900 "/>
<path d="M160.4082 110.1900 L160.1593 109.6923 "/>
<path d="M161.6525 115.9140 L161.6525 116.4117 "/>
<path d="M161.6525 116.4117 L161.4037 116.9094 "/>
<path d="M161.4037 116.9094 L161.1548 117.1583 "/>
<path d="M161.1548 117.1583 L160.6571 117.4072 "/>
<path d="M160.6571 117.4072 L159.6616 117.6560 "/>
<path d="M159.6616 117.6560 L158.4172 117.6560 "/>
<path d="M158.4172 117.6560 L157.4218 117.4072 "/>
<path d="M157.4218 117.4072 L156.9240 117.1583 "/>
<path d="M156.9240 117.1583 L156.6752 116.9094 "/>
<path d="M156.6752 116.9094 L156.4263 116.4117 "/>
<path d="M156.4263 116.4117 L156.4263 115.9140 "/>
<path d="M156.4263 115.9140 L156.6752 115.4162 "/>
<path d="M156.6752 115.4162 L156.9240 115.1674 "/>
<path d="M156.9240 115.1674 L157.4218 114.9185 "/>
<path d="M157.4218 114.9185 L158.4172 114.6696 "/>
<path d="M158.4172 114.6696 L159.6616 114.6696 "/>
<path d="M159.6616 114.6696 L160.6571 114.9185 "/>
<path d="M160.6571 114.9185 L161.1548 115.1674 "/>
<path d="M161.1548 115.1674 L161.4037 115.4162 "/>
<path d="M161.4037 115.4162 L161.6525 115.9140 "/>
<path d="M159.9105 122.1356 L156.4263 122.1356 "/>
<path d="M159.9105 119.8958 L157.1729 119.8958 "/>
<path d="M157.1729 119.8958 L156.6752 120.1447 "/>
<path d="M156.6752 120.1447 L156.4263 120.6424 "/>
<path d="M156.4263 120.6424 L156.4263 121.3890 "/>
<path d="M156.4263 121.3890 L156.6752 121.8868 "/>
<path d="M156.6752 121.8868 L156.9240 122.1356 "/>
<path d="M159.1638 126.3664 L159.1638 124.6243 "/>
<path d="M156.4263 124.6243 L161.6525 124.6243 "/>
<path d="M161.6525 124.6243 L161.6525 127.1130 "/>
</g></g>
<g style="fill:#000084; fill-opacity:0.0;  stroke:#000084; stroke-width:0.4181; stroke-opacity:1;  stroke-linecap:round; stroke-linejoin:round;">
<g transform="rotate(-90.000000 167.5833 118.2782)">
<text x="167.5833" y="119.5848" transform="scale(-1 1) translate(-335.166674 0)" textLength="5.8335" font-size="3.4841" lengthAdjust="spacingAndGlyphs" text-anchor="middle" opacity="0.01" style="font-family:monospace">C2</text>
</g>
<g class="stroked-text"><desc>C2</desc>
<path d="M166.6451 117.8427 L166.5206 117.7182 "/>
<path d="M166.5206 117.7182 L166.3962 117.3449 "/>
<path d="M166.3962 117.3449 L166.3962 117.0961 "/>
<path d="M166.3962 117.0961 L166.5206 116.7228 "/>
<path d="M166.5206 116.7228 L166.7695 116.4739 "/>
<path d="M166.7695 116.4739 L167.0184 116.3495 "/>
<path d="M167.0184 116.3495 L167.5161 116.2250 "/>
<path d="M167.5161 116.2250 L167.8894 116.2250 "/>
<path d="M167.8894 116.2250 L168.3871 116.3495 "/>
<path d="M168.3871 116.3495 L168.6360 116.4739 "/>
<path d="M168.6360 116.4739 L168.8849 116.7228 "/>
<path d="M168.8849 116.7228 L169.0093 117.0961 "/>
<path d="M169.0093 117.0961 L169.0093 117.3449 "/>
<path d="M169.0093 117.3449 L168.8849 117.7182 "/>
<path d="M168.8849 117.7182 L168.7604 117.8427 "/>
<path d="M168.7604 118.8382 L168.8849 118.9626 "/>
<path d="M168.8849 118.9626 L169.0093 119.2115 "/>
<path d="M169.0093 119.2115 L169.0093 119.8336 "/>
<path d="M169.0093 119.8336 L168.8849 120.0825 "/>
<path d="M168.8849 120.0825 L168.7604 120.2069 "/>
<path d="M168.7604 120.2069 L168.5116 120.3314 "/>
<path d="M168.5116 120.3314 L168.2627 120.3314 "/>
<path d="M168.2627 120.3314 L167.8894 120.2069 "/>
<path d="M167.8894 120.2069 L166.3962 118.7137 "/>
<path d="M166.3962 118.7137 L166.3962 120.3314 "/>
</g></g>
<g style="fill:#000084; fill-opacity:0.0;  stroke:#000084; stroke-width:0.5310; stroke-opacity:1;  stroke-linecap:round; stroke-linejoin:round;">
<path d="M140.1381 161.3211 L140.1381 176.5869 "/>
<path d="M156.8641 161.1883 L156.8641 176.5869 "/>
</g>
<g style="fill:#000084; fill-opacity:1.0000;  stroke:#000084; stroke-width:0.0000; stroke-opacity:1;  stroke-linecap:round; stroke-linejoin:round;">
<path style="fill:#000084; fill-opacity:1.0000;  stroke:#000084; stroke-width:0.0000; stroke-opacity:1;  stroke-linecap:round; stroke-linejoin:round;fill-rule:evenodd;" d="M 139.8726,161.3744 157.1191,161.3744 157.1191,156.4095 139.8726,156.4095 Z"/> 
<path style="fill:#000084; fill-opacity:1.0000;  stroke:#000084; stroke-width:0.0000; stroke-opacity:1;  stroke-linecap:round; stroke-linejoin:round;fill-rule:evenodd;" d="M 139.8726,181.4190 157.1191,181.4190 157.1191,176.4541 139.8726,176.4541 Z"/> 
</g>
<g style="fill:#000084; fill-opacity:1.0000;  stroke:#000084; stroke-width:0.7965; stroke-opacity:1;  stroke-linecap:round; stroke-linejoin:round;">
</g>
<g style="fill:#000084; fill-opacity:0.0;  stroke:#000084; stroke-width:0.7965; stroke-opacity:1;  stroke-linecap:round; stroke-linejoin:round;">
<path d="M149.3308 76.4488 L149.3308 72.1633 "/>
<path d="M155.9681 76.4488 L155.9681 72.1633 "/>
</g>
<g style="fill:#000084; fill-opacity:1.0000;  stroke:#000084; stroke-width:0.0000; stroke-opacity:1;  stroke-linecap:round; stroke-linejoin:round;">
<path style="fill:#000084; fill-opacity:1.0000;  stroke:#000084; stroke-width:0.0000; stroke-opacity:1;  stroke-linecap:round; stroke-linejoin:round;fill-rule:evenodd;" d="M 148.9832,72.1822 156.2999,72.1822 156.2999,68.7851 148.9832,68.7851 Z"/> 
<path style="fill:#000084; fill-opacity:1.0000;  stroke:#000084; stroke-width:0.0000; stroke-opacity:1;  stroke-linecap:round; stroke-linejoin:round;fill-rule:evenodd;" d="M 148.9832,79.8814 156.2999,79.8814 156.2999,76.4844 148.9832,76.4844 Z"/> 
</g>
<g style="fill:#000084; fill-opacity:1.0000;  stroke:#000084; stroke-width:0.7965; stroke-opacity:1;  stroke-linecap:round; stroke-linejoin:round;">
</g>
<g style="fill:#000084; fill-opacity:0.0;  stroke:#000084; stroke-width:0.7965; stroke-opacity:1;  stroke-linecap:round; stroke-linejoin:round;">
<path d="M179.5448 124.9155 L183.8304 124.9155 "/>
<path d="M179.5448 118.2782 L183.8304 118.2782 "/>
</g>
<g style="fill:#000084; fill-opacity:1.0000;  stroke:#000084; stroke-width:0.0000; stroke-opacity:1;  stroke-linecap:round; stroke-linejoin:round;">
<path style="fill:#000084; fill-opacity:1.0000;  stroke:#000084; stroke-width:0.0000; stroke-opacity:1;  stroke-linecap:round; stroke-linejoin:round;fill-rule:evenodd;" d="M 183.8115,125.2474 187.2086,125.2474 187.2086,117.9307 183.8115,117.9307 Z"/> 
<path style="fill:#000084; fill-opacity:1.0000;  stroke:#000084; stroke-width:0.0000; stroke-opacity:1;  stroke-linecap:round; stroke-linejoin:round;fill-rule:evenodd;" d="M 176.1123,125.2474 179.5093,125.2474 179.5093,117.9307 176.1123,117.9307 Z"/> 
</g>
<g style="fill:#000084; fill-opacity:1.0000;  stroke:#000084; stroke-width:0.7965; stroke-opacity:1;  stroke-linecap:round; stroke-linejoin:round;">
</g>
<g style="fill:#000084; fill-opacity:0.0;  stroke:#000084; stroke-width:0.7965; stroke-opacity:1;  stroke-linecap:round; stroke-linejoin:round;">
<path d="M179.5448 127.4045 L183.8304 127.4045 "/>
<path d="M179.5448 134.0418 L183.8304 134.0418 "/>
</g>
<g style="fill:#000084; fill-opacity:1.0000;  stroke:#000084; stroke-width:0.0000; stroke-opacity:1;  stroke-linecap:round; stroke-linejoin:round;">
<path style="fill:#000084; fill-opacity:1.0000;  stroke:#000084; stroke-width:0.0000; stroke-opacity:1;  stroke-linecap:round; stroke-linejoin:round;fill-rule:evenodd;" d="M 176.1123,134.3737 179.5093,134.3737 179.5093,127.0569 176.1123,127.0569 Z"/> 
<path style="fill:#000084; fill-opacity:1.0000;  stroke:#000084; stroke-width:0.0000; stroke-opacity:1;  stroke-linecap:round; stroke-linejoin:round;fill-rule:evenodd;" d="M 183.8115,134.3737 187.2086,134.3737 187.2086,127.0569 183.8115,127.0569 Z"/> 
</g>
<g style="fill:#000084; fill-opacity:1.0000;  stroke:#000084; stroke-width:0.5226; stroke-opacity:1;  stroke-linecap:round; stroke-linejoin:round;">
</g>
<g style="fill:#000084; fill-opacity:0.0;  stroke:#000084; stroke-width:0.5226; stroke-opacity:1;  stroke-linecap:round; stroke-linejoin:round;">
<path d="M122.2001 144.7751 L111.7477 144.7751 "/>
<path d="M111.7477 144.7751 L111.7477 138.2424 "/>
<path d="M122.2001 138.2424 L122.2001 144.7751 "/>
<path d="M111.7477 138.2424 L122.2001 138.2424 "/>
<path d="M160.0641 113.0520 L160.0641 123.5044 "/>
<path d="M160.0641 123.5044 L153.5313 123.5044 "/>
<path d="M153.5313 113.0520 L160.0641 113.0520 "/>
<path d="M153.5313 123.5044 L153.5313 113.0520 "/>
</g>
<g style="fill:#000084; fill-opacity:0.0;  stroke:#000084; stroke-width:0.5310; stroke-opacity:1;  stroke-linecap:round; stroke-linejoin:round;">
<path d="M135.2592 131.3699 L126.8972 131.3699 "/>
<path d="M126.8972 125.0984 L135.2592 125.0984 "/>
</g>
<g style="fill:#000084; fill-opacity:1.0000;  stroke:#000084; stroke-width:0.0000; stroke-opacity:1;  stroke-linecap:round; stroke-linejoin:round;">
<path style="fill:#000084; fill-opacity:1.0000;  stroke:#000084; stroke-width:0.0000; stroke-opacity:1;  stroke-linecap:round; stroke-linejoin:round;fill-rule:evenodd;" d="M 127.0279,131.2392 131.0782,131.2392 131.0782,128.2342 127.0279,128.2342 Z"/> 
<path style="fill:#000084; fill-opacity:1.0000;  stroke:#000084; stroke-width:0.0000; stroke-opacity:1;  stroke-linecap:round; stroke-linejoin:round;fill-rule:evenodd;" d="M 133.0380,132.6764 134.3446,132.6764 134.3446,130.5860 133.0380,130.5860 Z"/> 
<path style="fill:#000084; fill-opacity:1.0000;  stroke:#000084; stroke-width:0.0000; stroke-opacity:1;  stroke-linecap:round; stroke-linejoin:round;fill-rule:evenodd;" d="M 127.8118,132.6764 129.1184,132.6764 129.1184,130.5860 127.8118,130.5860 Z"/> 
<path style="fill:#000084; fill-opacity:1.0000;  stroke:#000084; stroke-width:0.0000; stroke-opacity:1;  stroke-linecap:round; stroke-linejoin:round;fill-rule:evenodd;" d="M 127.8118,125.8824 129.1184,125.8824 129.1184,123.7919 127.8118,123.7919 Z"/> 
<path style="fill:#000084; fill-opacity:1.0000;  stroke:#000084; stroke-width:0.0000; stroke-opacity:1;  stroke-linecap:round; stroke-linejoin:round;fill-rule:evenodd;" d="M 130.4249,132.6764 131.7315,132.6764 131.7315,130.5860 130.4249,130.5860 Z"/> 
<path style="fill:#000084; fill-opacity:1.0000;  stroke:#000084; stroke-width:0.0000; stroke-opacity:1;  stroke-linecap:round; stroke-linejoin:round;fill-rule:evenodd;" d="M 133.0380,125.8824 134.3446,125.8824 134.3446,123.7919 133.0380,123.7919 Z"/> 
</g>
<g style="fill:#000084; fill-opacity:1.0000;  stroke:#000084; stroke-width:0.7965; stroke-opacity:1;  stroke-linecap:round; stroke-linejoin:round;">
</g>
<g style="fill:#000084; fill-opacity:0.0;  stroke:#000084; stroke-width:0.7965; stroke-opacity:1;  stroke-linecap:round; stroke-linejoin:round;">
<path d="M183.8304 143.9977 L179.5448 143.9977 "/>
<path d="M183.8304 137.3604 L179.5448 137.3604 "/>
</g>
<g style="fill:#000084; fill-opacity:1.0000;  stroke:#000084; stroke-width:0.0000; stroke-opacity:1;  stroke-linecap:round; stroke-linejoin:round;">
<path style="fill:#000084; fill-opacity:1.0000;  stroke:#000084; stroke-width:0.0000; stroke-opacity:1;  stroke-linecap:round; stroke-linejoin:round;fill-rule:evenodd;" d="M 176.1666,144.3453 179.5637,144.3453 179.5637,137.0286 176.1666,137.0286 Z"/> 
<path style="fill:#000084; fill-opacity:1.0000;  stroke:#000084; stroke-width:0.0000; stroke-opacity:1;  stroke-linecap:round; stroke-linejoin:round;fill-rule:evenodd;" d="M 183.8659,144.3453 187.2629,144.3453 187.2629,137.0286 183.8659,137.0286 Z"/> 
</g>
<g style="fill:#000084; fill-opacity:1.0000;  stroke:#000084; stroke-width:0.5226; stroke-opacity:1;  stroke-linecap:round; stroke-linejoin:round;">
</g>
<g style="fill:#000084; fill-opacity:0.0;  stroke:#000084; stroke-width:0.5226; stroke-opacity:1;  stroke-linecap:round; stroke-linejoin:round;">
<path d="M124.4931 85.3399 L124.4931 74.8875 "/>
<path d="M131.0259 74.8875 L131.0259 85.3399 "/>
<path d="M124.4931 74.8875 L131.0259 74.8875 "/>
<path d="M131.0259 85.3399 L124.4931 85.3399 "/>
<path d="M164.3169 123.5044 L164.3169 113.0520 "/>
<path d="M170.8497 113.0520 L170.8497 123.5044 "/>
<path d="M164.3169 113.0520 L170.8497 113.0520 "/>
<path d="M170.8497 123.5044 L164.3169 123.5044 "/>
<g>
</g>
<g>
</g>
<g>
</g>
<g>
</g>
<g>
</g>
<g>
</g>
<g>
</g>
<g>
</g>
<g>
</g>
<g>
</g>
<g>
</g>
<g>
</g>
<g>
</g>
<g>
</g>
<g>
</g>
<g>
</g>
<g>
</g>
<g>
</g>
<g>
</g>
<g>
</g>
<g>
</g>
<g>
</g>
<g>
</g>
<g>
</g>
<g>
</g>
<g>
</g>
<g>
</g>
<g>
</g>
<g>
</g>
</g> 
<svg:g><svg:g><svg:title>SVG Image created as USBI2C01-Edge_Cuts.svg date 2023/09/11 00:33:10 </svg:title>
  <svg:desc>Image generated by PCBNEW </svg:desc>
<svg:g style="fill:#C2C200; fill-opacity:1.0000;stroke:#C2C200; stroke-opacity:1.0000; stroke-linecap:round; stroke-linejoin:round;" transform="translate(0 0) scale(1 1)">
</svg:g>
<svg:g style="fill:#C2C200; fill-opacity:0.0;  stroke:#C2C200; stroke-width:0.0000; stroke-opacity:1;  stroke-linecap:round; stroke-linejoin:round;">
</svg:g>
<svg:g style="fill:#C2C200; fill-opacity:0.0;  stroke:#C2C200; stroke-width:0.2613; stroke-opacity:1;  stroke-linecap:round; stroke-linejoin:round;">
<svg:path d="M226.8212 0.1343 L226.8212 209.8729 "/>
<svg:path d="M226.8212 209.8729 L70.1810 209.8729 "/>
<svg:path d="M70.1810 209.8729 L70.1810 0.1343 "/>
<svg:path d="M70.1810 0.1343 L226.8212 0.1343 "/>
<svg:g>
</svg:g>
<svg:g>
</svg:g>
<svg:g>
</svg:g>
<svg:g>
</svg:g>
<svg:g>
</svg:g>
<svg:g>
</svg:g>
<svg:g>
</svg:g>
<svg:g>
</svg:g>
<svg:g>
</svg:g>
<svg:g>
</svg:g>
<svg:g>
</svg:g>
<svg:g>
</svg:g>
<svg:g>
</svg:g>
<svg:g>
</svg:g>
<svg:g>
</svg:g>
<svg:g>
</svg:g>
<svg:g>
</svg:g>
<svg:g>
</svg:g>
<svg:g>
</svg:g>
<svg:g>
</svg:g>
<svg:g>
</svg:g>
<svg:g>
</svg:g>
<svg:g>
</svg:g>
<svg:g>
</svg:g>
<svg:g>
</svg:g>
<svg:g>
</svg:g>
<svg:g>
</svg:g>
<svg:g>
</svg:g>
<svg:g>
</svg:g>
</svg:g> 
</svg:g></svg:g></svg>
