<?xml version='1.0' encoding='ASCII' standalone='yes'?>
<svg xmlns:svg="http://www.w3.org/2000/svg" xmlns="http://www.w3.org/2000/svg" xmlns:xlink="http://www.w3.org/1999/xlink" version="1.1" width="297.0022mm" height="210.0072mm" viewBox="0.0000 0.0000 297.0022 210.0072">
<title>SVG Image created as USBI2C01-B_Fab.svg date 2023/07/05 15:12:45 </title>
  <desc>Image generated by PCBNEW </desc>
<g style="fill:#000084; fill-opacity:1.0000;stroke:#000084; stroke-opacity:1.0000; stroke-linecap:round; stroke-linejoin:round;" transform="translate(0 0) scale(1 1)">
</g>
<g style="fill:#000084; fill-opacity:0.0;  stroke:#000084; stroke-width:0.0000; stroke-opacity:1;  stroke-linecap:round; stroke-linejoin:round;">
</g>
<g style="fill:#000084; fill-opacity:0.01;  stroke:#000084; stroke-width:0.4885; stroke-opacity:1;  stroke-linecap:round; stroke-linejoin:round;">
<g transform="rotate(-90.000000 168.4130 158.9317)">
<text x="168.4130" y="162.0061" transform="scale(-1 1) translate(-336.826004 0)" textLength="31.0283" font-size="8.1984" lengthAdjust="spacingAndGlyphs" text-anchor="end" opacity="0.01" style="font-family:monospace">750mA</text>
</g>
<g class="stroked-text"><desc>750mA</desc>
<path d="M165.0834 128.4519 L165.0834 132.5511 "/>
<path d="M165.0834 132.5511 L171.2322 129.9159 "/>
<path d="M165.0834 137.8215 L165.0834 134.8935 "/>
<path d="M165.0834 134.8935 L168.0114 134.6007 "/>
<path d="M168.0114 134.6007 L167.7186 134.8935 "/>
<path d="M167.7186 134.8935 L167.4258 135.4791 "/>
<path d="M167.4258 135.4791 L167.4258 136.9431 "/>
<path d="M167.4258 136.9431 L167.7186 137.5287 "/>
<path d="M167.7186 137.5287 L168.0114 137.8215 "/>
<path d="M168.0114 137.8215 L168.5969 138.1143 "/>
<path d="M168.5969 138.1143 L170.0609 138.1143 "/>
<path d="M170.0609 138.1143 L170.6465 137.8215 "/>
<path d="M170.6465 137.8215 L170.9394 137.5287 "/>
<path d="M170.9394 137.5287 L171.2322 136.9431 "/>
<path d="M171.2322 136.9431 L171.2322 135.4791 "/>
<path d="M171.2322 135.4791 L170.9394 134.8935 "/>
<path d="M170.9394 134.8935 L170.6465 134.6007 "/>
<path d="M165.0834 141.9207 L165.0834 142.5063 "/>
<path d="M165.0834 142.5063 L165.3762 143.0919 "/>
<path d="M165.3762 143.0919 L165.6690 143.3847 "/>
<path d="M165.6690 143.3847 L166.2546 143.6775 "/>
<path d="M166.2546 143.6775 L167.4258 143.9703 "/>
<path d="M167.4258 143.9703 L168.8898 143.9703 "/>
<path d="M168.8898 143.9703 L170.0609 143.6775 "/>
<path d="M170.0609 143.6775 L170.6465 143.3847 "/>
<path d="M170.6465 143.3847 L170.9394 143.0919 "/>
<path d="M170.9394 143.0919 L171.2322 142.5063 "/>
<path d="M171.2322 142.5063 L171.2322 141.9207 "/>
<path d="M171.2322 141.9207 L170.9394 141.3351 "/>
<path d="M170.9394 141.3351 L170.6465 141.0423 "/>
<path d="M170.6465 141.0423 L170.0609 140.7495 "/>
<path d="M170.0609 140.7495 L168.8898 140.4567 "/>
<path d="M168.8898 140.4567 L167.4258 140.4567 "/>
<path d="M167.4258 140.4567 L166.2546 140.7495 "/>
<path d="M166.2546 140.7495 L165.6690 141.0423 "/>
<path d="M165.6690 141.0423 L165.3762 141.3351 "/>
<path d="M165.3762 141.3351 L165.0834 141.9207 "/>
<path d="M171.2322 146.6055 L167.1330 146.6055 "/>
<path d="M167.7186 146.6055 L167.4258 146.8983 "/>
<path d="M167.4258 146.8983 L167.1330 147.4839 "/>
<path d="M167.1330 147.4839 L167.1330 148.3623 "/>
<path d="M167.1330 148.3623 L167.4258 148.9479 "/>
<path d="M167.4258 148.9479 L168.0114 149.2407 "/>
<path d="M168.0114 149.2407 L171.2322 149.2407 "/>
<path d="M168.0114 149.2407 L167.4258 149.5335 "/>
<path d="M167.4258 149.5335 L167.1330 150.1191 "/>
<path d="M167.1330 150.1191 L167.1330 150.9975 "/>
<path d="M167.1330 150.9975 L167.4258 151.5831 "/>
<path d="M167.4258 151.5831 L168.0114 151.8759 "/>
<path d="M168.0114 151.8759 L171.2322 151.8759 "/>
<path d="M169.4754 154.5111 L169.4754 157.4391 "/>
<path d="M171.2322 153.9255 L165.0834 155.9751 "/>
<path d="M165.0834 155.9751 L171.2322 158.0247 "/>
</g><g transform="rotate(-90.000000 131.0782 77.6247)">
<text x="131.0782" y="80.6991" transform="scale(-1 1) translate(-262.156376 0)" textLength="16.6811" font-size="8.1984" lengthAdjust="spacingAndGlyphs" text-anchor="start" opacity="0.01" style="font-family:monospace">4k7</text>
</g>
<g class="stroked-text"><desc>4k7</desc>
<path d="M129.7981 82.0453 L133.8973 82.0453 "/>
<path d="M127.4557 80.5813 L131.8477 79.1173 "/>
<path d="M131.8477 79.1173 L131.8477 82.9237 "/>
<path d="M133.8973 85.2661 L127.7485 85.2661 "/>
<path d="M131.5549 85.8517 L133.8973 87.6085 "/>
<path d="M129.7981 87.6085 L132.1405 85.2661 "/>
<path d="M127.7485 89.6581 L127.7485 93.7573 "/>
<path d="M127.7485 93.7573 L133.8973 91.1221 "/>
</g><text x="118.6332" y="137.9458" transform="scale(-1 1) translate(-237.266500 0)" textLength="23.7083" font-size="8.1984" lengthAdjust="spacingAndGlyphs" text-anchor="start" opacity="0.01" style="font-family:monospace">470R</text>
<g class="stroked-text"><desc>470R</desc>
<path d="M114.2127 133.5914 L114.2127 137.6906 "/>
<path d="M115.6767 131.2490 L117.1407 135.6410 "/>
<path d="M117.1407 135.6410 L113.3343 135.6410 "/>
<path d="M111.5775 131.5418 L107.4783 131.5418 "/>
<path d="M107.4783 131.5418 L110.1135 137.6906 "/>
<path d="M103.9647 131.5418 L103.3791 131.5418 "/>
<path d="M103.3791 131.5418 L102.7935 131.8346 "/>
<path d="M102.7935 131.8346 L102.5007 132.1274 "/>
<path d="M102.5007 132.1274 L102.2079 132.7130 "/>
<path d="M102.2079 132.7130 L101.9151 133.8842 "/>
<path d="M101.9151 133.8842 L101.9151 135.3482 "/>
<path d="M101.9151 135.3482 L102.2079 136.5194 "/>
<path d="M102.2079 136.5194 L102.5007 137.1050 "/>
<path d="M102.5007 137.1050 L102.7935 137.3978 "/>
<path d="M102.7935 137.3978 L103.3791 137.6906 "/>
<path d="M103.3791 137.6906 L103.9647 137.6906 "/>
<path d="M103.9647 137.6906 L104.5503 137.3978 "/>
<path d="M104.5503 137.3978 L104.8431 137.1050 "/>
<path d="M104.8431 137.1050 L105.1359 136.5194 "/>
<path d="M105.1359 136.5194 L105.4287 135.3482 "/>
<path d="M105.4287 135.3482 L105.4287 133.8842 "/>
<path d="M105.4287 133.8842 L105.1359 132.7130 "/>
<path d="M105.1359 132.7130 L104.8431 132.1274 "/>
<path d="M104.8431 132.1274 L104.5503 131.8346 "/>
<path d="M104.5503 131.8346 L103.9647 131.5418 "/>
<path d="M95.7663 137.6906 L97.8159 134.7626 "/>
<path d="M99.2799 137.6906 L99.2799 131.5418 "/>
<path d="M99.2799 131.5418 L96.9375 131.5418 "/>
<path d="M96.9375 131.5418 L96.3519 131.8346 "/>
<path d="M96.3519 131.8346 L96.0591 132.1274 "/>
<path d="M96.0591 132.1274 L95.7663 132.7130 "/>
<path d="M95.7663 132.7130 L95.7663 133.5914 "/>
<path d="M95.7663 133.5914 L96.0591 134.1770 "/>
<path d="M96.0591 134.1770 L96.3519 134.4698 "/>
<path d="M96.3519 134.4698 L96.9375 134.7626 "/>
<path d="M96.9375 134.7626 L99.2799 134.7626 "/>
</g><text x="118.6332" y="147.0721" transform="scale(-1 1) translate(-237.266500 0)" textLength="23.7083" font-size="8.1984" lengthAdjust="spacingAndGlyphs" text-anchor="start" opacity="0.01" style="font-family:monospace">470R</text>
<g class="stroked-text"><desc>470R</desc>
<path d="M114.2127 142.7177 L114.2127 146.8169 "/>
<path d="M115.6767 140.3753 L117.1407 144.7673 "/>
<path d="M117.1407 144.7673 L113.3343 144.7673 "/>
<path d="M111.5775 140.6681 L107.4783 140.6681 "/>
<path d="M107.4783 140.6681 L110.1135 146.8169 "/>
<path d="M103.9647 140.6681 L103.3791 140.6681 "/>
<path d="M103.3791 140.6681 L102.7935 140.9609 "/>
<path d="M102.7935 140.9609 L102.5007 141.2537 "/>
<path d="M102.5007 141.2537 L102.2079 141.8393 "/>
<path d="M102.2079 141.8393 L101.9151 143.0105 "/>
<path d="M101.9151 143.0105 L101.9151 144.4745 "/>
<path d="M101.9151 144.4745 L102.2079 145.6457 "/>
<path d="M102.2079 145.6457 L102.5007 146.2313 "/>
<path d="M102.5007 146.2313 L102.7935 146.5241 "/>
<path d="M102.7935 146.5241 L103.3791 146.8169 "/>
<path d="M103.3791 146.8169 L103.9647 146.8169 "/>
<path d="M103.9647 146.8169 L104.5503 146.5241 "/>
<path d="M104.5503 146.5241 L104.8431 146.2313 "/>
<path d="M104.8431 146.2313 L105.1359 145.6457 "/>
<path d="M105.1359 145.6457 L105.4287 144.4745 "/>
<path d="M105.4287 144.4745 L105.4287 143.0105 "/>
<path d="M105.4287 143.0105 L105.1359 141.8393 "/>
<path d="M105.1359 141.8393 L104.8431 141.2537 "/>
<path d="M104.8431 141.2537 L104.5503 140.9609 "/>
<path d="M104.5503 140.9609 L103.9647 140.6681 "/>
<path d="M95.7663 146.8169 L97.8159 143.8889 "/>
<path d="M99.2799 146.8169 L99.2799 140.6681 "/>
<path d="M99.2799 140.6681 L96.9375 140.6681 "/>
<path d="M96.9375 140.6681 L96.3519 140.9609 "/>
<path d="M96.3519 140.9609 L96.0591 141.2537 "/>
<path d="M96.0591 141.2537 L95.7663 141.8393 "/>
<path d="M95.7663 141.8393 L95.7663 142.7177 "/>
<path d="M95.7663 142.7177 L96.0591 143.3033 "/>
<path d="M96.0591 143.3033 L96.3519 143.5961 "/>
<path d="M96.3519 143.5961 L96.9375 143.8889 "/>
<path d="M96.9375 143.8889 L99.2799 143.8889 "/>
</g></g>
<g style="fill:#000084; fill-opacity:0.01;  stroke:#000084; stroke-width:0.7839; stroke-opacity:1;  stroke-linecap:round; stroke-linejoin:round;">
<text x="180.0283" y="135.3418" transform="scale(-1 1) translate(-360.056555 0)" textLength="15.1000" font-size="6.9683" lengthAdjust="spacingAndGlyphs" text-anchor="middle" opacity="0.01" style="font-family:monospace">1uF</text>
<g class="stroked-text"><desc>1uF</desc>
<path d="M183.1391 135.1057 L186.1255 135.1057 "/>
<path d="M184.6323 135.1057 L184.6323 129.8795 "/>
<path d="M184.6323 129.8795 L185.1301 130.6261 "/>
<path d="M185.1301 130.6261 L185.6278 131.1238 "/>
<path d="M185.6278 131.1238 L186.1255 131.3727 "/>
<path d="M178.6595 131.6215 L178.6595 135.1057 "/>
<path d="M180.8993 131.6215 L180.8993 134.3591 "/>
<path d="M180.8993 134.3591 L180.6504 134.8568 "/>
<path d="M180.6504 134.8568 L180.1527 135.1057 "/>
<path d="M180.1527 135.1057 L179.4061 135.1057 "/>
<path d="M179.4061 135.1057 L178.9084 134.8568 "/>
<path d="M178.9084 134.8568 L178.6595 134.6079 "/>
<path d="M174.4288 132.3681 L176.1708 132.3681 "/>
<path d="M176.1708 135.1057 L176.1708 129.8795 "/>
<path d="M176.1708 129.8795 L173.6822 129.8795 "/>
</g></g>
<g style="fill:#000084; fill-opacity:0.01;  stroke:#000084; stroke-width:0.4181; stroke-opacity:1;  stroke-linecap:round; stroke-linejoin:round;">
<text x="180.0283" y="142.8153" transform="scale(-1 1) translate(-360.056555 0)" textLength="5.6244" font-size="3.4841" lengthAdjust="spacingAndGlyphs" text-anchor="middle" opacity="0.01" style="font-family:monospace">C1</text>
<g class="stroked-text"><desc>C1</desc>
<path d="M180.4638 142.4470 L180.5882 142.5715 "/>
<path d="M180.5882 142.5715 L180.9615 142.6959 "/>
<path d="M180.9615 142.6959 L181.2104 142.6959 "/>
<path d="M181.2104 142.6959 L181.5837 142.5715 "/>
<path d="M181.5837 142.5715 L181.8326 142.3226 "/>
<path d="M181.8326 142.3226 L181.9570 142.0737 "/>
<path d="M181.9570 142.0737 L182.0814 141.5760 "/>
<path d="M182.0814 141.5760 L182.0814 141.2027 "/>
<path d="M182.0814 141.2027 L181.9570 140.7049 "/>
<path d="M181.9570 140.7049 L181.8326 140.4561 "/>
<path d="M181.8326 140.4561 L181.5837 140.2072 "/>
<path d="M181.5837 140.2072 L181.2104 140.0828 "/>
<path d="M181.2104 140.0828 L180.9615 140.0828 "/>
<path d="M180.9615 140.0828 L180.5882 140.2072 "/>
<path d="M180.5882 140.2072 L180.4638 140.3316 "/>
<path d="M177.9751 142.6959 L179.4683 142.6959 "/>
<path d="M178.7217 142.6959 L178.7217 140.0828 "/>
<path d="M178.7217 140.0828 L178.9706 140.4561 "/>
<path d="M178.9706 140.4561 L179.2195 140.7049 "/>
<path d="M179.2195 140.7049 L179.4683 140.8294 "/>
</g></g>
<g style="fill:#000084; fill-opacity:0.0;  stroke:#000084; stroke-width:0.7839; stroke-opacity:1;  stroke-linecap:round; stroke-linejoin:round;">
<g transform="rotate(-90.000000 148.9845 118.2782)">
<text x="148.9845" y="120.8913" transform="scale(-1 1) translate(-297.969053 0)" textLength="25.0548" font-size="6.9683" lengthAdjust="spacingAndGlyphs" text-anchor="middle" opacity="0.01" style="font-family:monospace">100nF</text>
</g>
<g class="stroked-text"><desc>100nF</desc>
<path d="M151.3615 110.1900 L151.3615 107.2036 "/>
<path d="M151.3615 108.6968 L146.1353 108.6968 "/>
<path d="M146.1353 108.6968 L146.8819 108.1991 "/>
<path d="M146.8819 108.1991 L147.3796 107.7013 "/>
<path d="M147.3796 107.7013 L147.6285 107.2036 "/>
<path d="M146.1353 113.4253 L146.1353 113.9230 "/>
<path d="M146.1353 113.9230 L146.3842 114.4207 "/>
<path d="M146.3842 114.4207 L146.6330 114.6696 "/>
<path d="M146.6330 114.6696 L147.1308 114.9185 "/>
<path d="M147.1308 114.9185 L148.1262 115.1674 "/>
<path d="M148.1262 115.1674 L149.3706 115.1674 "/>
<path d="M149.3706 115.1674 L150.3660 114.9185 "/>
<path d="M150.3660 114.9185 L150.8638 114.6696 "/>
<path d="M150.8638 114.6696 L151.1126 114.4207 "/>
<path d="M151.1126 114.4207 L151.3615 113.9230 "/>
<path d="M151.3615 113.9230 L151.3615 113.4253 "/>
<path d="M151.3615 113.4253 L151.1126 112.9275 "/>
<path d="M151.1126 112.9275 L150.8638 112.6787 "/>
<path d="M150.8638 112.6787 L150.3660 112.4298 "/>
<path d="M150.3660 112.4298 L149.3706 112.1809 "/>
<path d="M149.3706 112.1809 L148.1262 112.1809 "/>
<path d="M148.1262 112.1809 L147.1308 112.4298 "/>
<path d="M147.1308 112.4298 L146.6330 112.6787 "/>
<path d="M146.6330 112.6787 L146.3842 112.9275 "/>
<path d="M146.3842 112.9275 L146.1353 113.4253 "/>
<path d="M146.1353 118.4026 L146.1353 118.9004 "/>
<path d="M146.1353 118.9004 L146.3842 119.3981 "/>
<path d="M146.3842 119.3981 L146.6330 119.6470 "/>
<path d="M146.6330 119.6470 L147.1308 119.8958 "/>
<path d="M147.1308 119.8958 L148.1262 120.1447 "/>
<path d="M148.1262 120.1447 L149.3706 120.1447 "/>
<path d="M149.3706 120.1447 L150.3660 119.8958 "/>
<path d="M150.3660 119.8958 L150.8638 119.6470 "/>
<path d="M150.8638 119.6470 L151.1126 119.3981 "/>
<path d="M151.1126 119.3981 L151.3615 118.9004 "/>
<path d="M151.3615 118.9004 L151.3615 118.4026 "/>
<path d="M151.3615 118.4026 L151.1126 117.9049 "/>
<path d="M151.1126 117.9049 L150.8638 117.6560 "/>
<path d="M150.8638 117.6560 L150.3660 117.4072 "/>
<path d="M150.3660 117.4072 L149.3706 117.1583 "/>
<path d="M149.3706 117.1583 L148.1262 117.1583 "/>
<path d="M148.1262 117.1583 L147.1308 117.4072 "/>
<path d="M147.1308 117.4072 L146.6330 117.6560 "/>
<path d="M146.6330 117.6560 L146.3842 117.9049 "/>
<path d="M146.3842 117.9049 L146.1353 118.4026 "/>
<path d="M147.8774 122.3845 L151.3615 122.3845 "/>
<path d="M148.3751 122.3845 L148.1262 122.6334 "/>
<path d="M148.1262 122.6334 L147.8774 123.1311 "/>
<path d="M147.8774 123.1311 L147.8774 123.8777 "/>
<path d="M147.8774 123.8777 L148.1262 124.3755 "/>
<path d="M148.1262 124.3755 L148.6240 124.6243 "/>
<path d="M148.6240 124.6243 L151.3615 124.6243 "/>
<path d="M148.6240 128.8551 L148.6240 127.1130 "/>
<path d="M151.3615 127.1130 L146.1353 127.1130 "/>
<path d="M146.1353 127.1130 L146.1353 129.6017 "/>
</g></g>
<g style="fill:#000084; fill-opacity:0.0;  stroke:#000084; stroke-width:0.4181; stroke-opacity:1;  stroke-linecap:round; stroke-linejoin:round;">
<g transform="rotate(-90.000000 140.2045 118.2782)">
<text x="140.2045" y="119.5848" transform="scale(-1 1) translate(-280.408952 0)" textLength="5.6244" font-size="3.4841" lengthAdjust="spacingAndGlyphs" text-anchor="middle" opacity="0.01" style="font-family:monospace">C3</text>
</g>
<g class="stroked-text"><desc>C3</desc>
<path d="M141.1427 117.8427 L141.2672 117.7182 "/>
<path d="M141.2672 117.7182 L141.3916 117.3449 "/>
<path d="M141.3916 117.3449 L141.3916 117.0961 "/>
<path d="M141.3916 117.0961 L141.2672 116.7228 "/>
<path d="M141.2672 116.7228 L141.0183 116.4739 "/>
<path d="M141.0183 116.4739 L140.7694 116.3495 "/>
<path d="M140.7694 116.3495 L140.2717 116.2250 "/>
<path d="M140.2717 116.2250 L139.8984 116.2250 "/>
<path d="M139.8984 116.2250 L139.4007 116.3495 "/>
<path d="M139.4007 116.3495 L139.1518 116.4739 "/>
<path d="M139.1518 116.4739 L138.9029 116.7228 "/>
<path d="M138.9029 116.7228 L138.7785 117.0961 "/>
<path d="M138.7785 117.0961 L138.7785 117.3449 "/>
<path d="M138.7785 117.3449 L138.9029 117.7182 "/>
<path d="M138.9029 117.7182 L139.0274 117.8427 "/>
<path d="M138.7785 118.7137 L138.7785 120.3314 "/>
<path d="M138.7785 120.3314 L139.7740 119.4603 "/>
<path d="M139.7740 119.4603 L139.7740 119.8336 "/>
<path d="M139.7740 119.8336 L139.8984 120.0825 "/>
<path d="M139.8984 120.0825 L140.0228 120.2069 "/>
<path d="M140.0228 120.2069 L140.2717 120.3314 "/>
<path d="M140.2717 120.3314 L140.8939 120.3314 "/>
<path d="M140.8939 120.3314 L141.1427 120.2069 "/>
<path d="M141.1427 120.2069 L141.2672 120.0825 "/>
<path d="M141.2672 120.0825 L141.3916 119.8336 "/>
<path d="M141.3916 119.8336 L141.3916 119.0870 "/>
<path d="M141.3916 119.0870 L141.2672 118.8382 "/>
<path d="M141.2672 118.8382 L141.1427 118.7137 "/>
</g></g>
<g style="fill:#000084; fill-opacity:0.01;  stroke:#000084; stroke-width:0.4885; stroke-opacity:1;  stroke-linecap:round; stroke-linejoin:round;">
<text x="171.1502" y="144.3741" transform="scale(-1 1) translate(-342.300470 0)" textLength="71.4346" font-size="8.1984" lengthAdjust="spacingAndGlyphs" text-anchor="start" opacity="0.01" style="font-family:monospace">SP1001-04XTG</text>
<g class="stroked-text"><desc>SP1001-04XTG</desc>
<path d="M169.6577 143.8261 L168.7793 144.1189 "/>
<path d="M168.7793 144.1189 L167.3153 144.1189 "/>
<path d="M167.3153 144.1189 L166.7297 143.8261 "/>
<path d="M166.7297 143.8261 L166.4369 143.5332 "/>
<path d="M166.4369 143.5332 L166.1441 142.9477 "/>
<path d="M166.1441 142.9477 L166.1441 142.3621 "/>
<path d="M166.1441 142.3621 L166.4369 141.7765 "/>
<path d="M166.4369 141.7765 L166.7297 141.4837 "/>
<path d="M166.7297 141.4837 L167.3153 141.1909 "/>
<path d="M167.3153 141.1909 L168.4865 140.8981 "/>
<path d="M168.4865 140.8981 L169.0721 140.6053 "/>
<path d="M169.0721 140.6053 L169.3649 140.3125 "/>
<path d="M169.3649 140.3125 L169.6577 139.7269 "/>
<path d="M169.6577 139.7269 L169.6577 139.1413 "/>
<path d="M169.6577 139.1413 L169.3649 138.5557 "/>
<path d="M169.3649 138.5557 L169.0721 138.2629 "/>
<path d="M169.0721 138.2629 L168.4865 137.9701 "/>
<path d="M168.4865 137.9701 L167.0225 137.9701 "/>
<path d="M167.0225 137.9701 L166.1441 138.2629 "/>
<path d="M163.5089 144.1189 L163.5089 137.9701 "/>
<path d="M163.5089 137.9701 L161.1665 137.9701 "/>
<path d="M161.1665 137.9701 L160.5809 138.2629 "/>
<path d="M160.5809 138.2629 L160.2881 138.5557 "/>
<path d="M160.2881 138.5557 L159.9953 139.1413 "/>
<path d="M159.9953 139.1413 L159.9953 140.0197 "/>
<path d="M159.9953 140.0197 L160.2881 140.6053 "/>
<path d="M160.2881 140.6053 L160.5809 140.8981 "/>
<path d="M160.5809 140.8981 L161.1665 141.1909 "/>
<path d="M161.1665 141.1909 L163.5089 141.1909 "/>
<path d="M154.1393 144.1189 L157.6529 144.1189 "/>
<path d="M155.8961 144.1189 L155.8961 137.9701 "/>
<path d="M155.8961 137.9701 L156.4817 138.8485 "/>
<path d="M156.4817 138.8485 L157.0673 139.4341 "/>
<path d="M157.0673 139.4341 L157.6529 139.7269 "/>
<path d="M150.3329 137.9701 L149.7473 137.9701 "/>
<path d="M149.7473 137.9701 L149.1617 138.2629 "/>
<path d="M149.1617 138.2629 L148.8689 138.5557 "/>
<path d="M148.8689 138.5557 L148.5761 139.1413 "/>
<path d="M148.5761 139.1413 L148.2833 140.3125 "/>
<path d="M148.2833 140.3125 L148.2833 141.7765 "/>
<path d="M148.2833 141.7765 L148.5761 142.9477 "/>
<path d="M148.5761 142.9477 L148.8689 143.5332 "/>
<path d="M148.8689 143.5332 L149.1617 143.8261 "/>
<path d="M149.1617 143.8261 L149.7473 144.1189 "/>
<path d="M149.7473 144.1189 L150.3329 144.1189 "/>
<path d="M150.3329 144.1189 L150.9185 143.8261 "/>
<path d="M150.9185 143.8261 L151.2113 143.5332 "/>
<path d="M151.2113 143.5332 L151.5041 142.9477 "/>
<path d="M151.5041 142.9477 L151.7969 141.7765 "/>
<path d="M151.7969 141.7765 L151.7969 140.3125 "/>
<path d="M151.7969 140.3125 L151.5041 139.1413 "/>
<path d="M151.5041 139.1413 L151.2113 138.5557 "/>
<path d="M151.2113 138.5557 L150.9185 138.2629 "/>
<path d="M150.9185 138.2629 L150.3329 137.9701 "/>
<path d="M144.4769 137.9701 L143.8913 137.9701 "/>
<path d="M143.8913 137.9701 L143.3057 138.2629 "/>
<path d="M143.3057 138.2629 L143.0129 138.5557 "/>
<path d="M143.0129 138.5557 L142.7201 139.1413 "/>
<path d="M142.7201 139.1413 L142.4273 140.3125 "/>
<path d="M142.4273 140.3125 L142.4273 141.7765 "/>
<path d="M142.4273 141.7765 L142.7201 142.9477 "/>
<path d="M142.7201 142.9477 L143.0129 143.5332 "/>
<path d="M143.0129 143.5332 L143.3057 143.8261 "/>
<path d="M143.3057 143.8261 L143.8913 144.1189 "/>
<path d="M143.8913 144.1189 L144.4769 144.1189 "/>
<path d="M144.4769 144.1189 L145.0625 143.8261 "/>
<path d="M145.0625 143.8261 L145.3553 143.5332 "/>
<path d="M145.3553 143.5332 L145.6481 142.9477 "/>
<path d="M145.6481 142.9477 L145.9409 141.7765 "/>
<path d="M145.9409 141.7765 L145.9409 140.3125 "/>
<path d="M145.9409 140.3125 L145.6481 139.1413 "/>
<path d="M145.6481 139.1413 L145.3553 138.5557 "/>
<path d="M145.3553 138.5557 L145.0625 138.2629 "/>
<path d="M145.0625 138.2629 L144.4769 137.9701 "/>
<path d="M136.5713 144.1189 L140.0849 144.1189 "/>
<path d="M138.3281 144.1189 L138.3281 137.9701 "/>
<path d="M138.3281 137.9701 L138.9137 138.8485 "/>
<path d="M138.9137 138.8485 L139.4993 139.4341 "/>
<path d="M139.4993 139.4341 L140.0849 139.7269 "/>
<path d="M133.9361 141.7765 L129.2513 141.7765 "/>
<path d="M125.1521 137.9701 L124.5665 137.9701 "/>
<path d="M124.5665 137.9701 L123.9809 138.2629 "/>
<path d="M123.9809 138.2629 L123.6881 138.5557 "/>
<path d="M123.6881 138.5557 L123.3953 139.1413 "/>
<path d="M123.3953 139.1413 L123.1025 140.3125 "/>
<path d="M123.1025 140.3125 L123.1025 141.7765 "/>
<path d="M123.1025 141.7765 L123.3953 142.9477 "/>
<path d="M123.3953 142.9477 L123.6881 143.5332 "/>
<path d="M123.6881 143.5332 L123.9809 143.8261 "/>
<path d="M123.9809 143.8261 L124.5665 144.1189 "/>
<path d="M124.5665 144.1189 L125.1521 144.1189 "/>
<path d="M125.1521 144.1189 L125.7377 143.8261 "/>
<path d="M125.7377 143.8261 L126.0305 143.5332 "/>
<path d="M126.0305 143.5332 L126.3233 142.9477 "/>
<path d="M126.3233 142.9477 L126.6161 141.7765 "/>
<path d="M126.6161 141.7765 L126.6161 140.3125 "/>
<path d="M126.6161 140.3125 L126.3233 139.1413 "/>
<path d="M126.3233 139.1413 L126.0305 138.5557 "/>
<path d="M126.0305 138.5557 L125.7377 138.2629 "/>
<path d="M125.7377 138.2629 L125.1521 137.9701 "/>
<path d="M117.8321 140.0197 L117.8321 144.1189 "/>
<path d="M119.2961 137.6773 L120.7601 142.0693 "/>
<path d="M120.7601 142.0693 L116.9537 142.0693 "/>
<path d="M115.1969 137.9701 L111.0977 144.1189 "/>
<path d="M111.0977 137.9701 L115.1969 144.1189 "/>
<path d="M109.6337 137.9701 L106.1201 137.9701 "/>
<path d="M107.8769 144.1189 L107.8769 137.9701 "/>
<path d="M100.8497 138.2629 L101.4353 137.9701 "/>
<path d="M101.4353 137.9701 L102.3137 137.9701 "/>
<path d="M102.3137 137.9701 L103.1921 138.2629 "/>
<path d="M103.1921 138.2629 L103.7777 138.8485 "/>
<path d="M103.7777 138.8485 L104.0705 139.4341 "/>
<path d="M104.0705 139.4341 L104.3633 140.6053 "/>
<path d="M104.3633 140.6053 L104.3633 141.4837 "/>
<path d="M104.3633 141.4837 L104.0705 142.6549 "/>
<path d="M104.0705 142.6549 L103.7777 143.2405 "/>
<path d="M103.7777 143.2405 L103.1921 143.8261 "/>
<path d="M103.1921 143.8261 L102.3137 144.1189 "/>
<path d="M102.3137 144.1189 L101.7281 144.1189 "/>
<path d="M101.7281 144.1189 L100.8497 143.8261 "/>
<path d="M100.8497 143.8261 L100.5569 143.5332 "/>
<path d="M100.5569 143.5332 L100.5569 141.4837 "/>
<path d="M100.5569 141.4837 L101.7281 141.4837 "/>
</g><text x="111.9959" y="130.4789" transform="scale(-1 1) translate(-223.991899 0)" textLength="23.7083" font-size="8.1984" lengthAdjust="spacingAndGlyphs" text-anchor="end" opacity="0.01" style="font-family:monospace">470R</text>
<g class="stroked-text"><desc>470R</desc>
<path d="M131.9349 126.1244 L131.9349 130.2236 "/>
<path d="M133.3989 123.7820 L134.8629 128.1740 "/>
<path d="M134.8629 128.1740 L131.0565 128.1740 "/>
<path d="M129.2997 124.0748 L125.2005 124.0748 "/>
<path d="M125.2005 124.0748 L127.8357 130.2236 "/>
<path d="M121.6869 124.0748 L121.1013 124.0748 "/>
<path d="M121.1013 124.0748 L120.5157 124.3676 "/>
<path d="M120.5157 124.3676 L120.2229 124.6604 "/>
<path d="M120.2229 124.6604 L119.9301 125.2460 "/>
<path d="M119.9301 125.2460 L119.6373 126.4172 "/>
<path d="M119.6373 126.4172 L119.6373 127.8812 "/>
<path d="M119.6373 127.8812 L119.9301 129.0524 "/>
<path d="M119.9301 129.0524 L120.2229 129.6380 "/>
<path d="M120.2229 129.6380 L120.5157 129.9308 "/>
<path d="M120.5157 129.9308 L121.1013 130.2236 "/>
<path d="M121.1013 130.2236 L121.6869 130.2236 "/>
<path d="M121.6869 130.2236 L122.2725 129.9308 "/>
<path d="M122.2725 129.9308 L122.5653 129.6380 "/>
<path d="M122.5653 129.6380 L122.8581 129.0524 "/>
<path d="M122.8581 129.0524 L123.1509 127.8812 "/>
<path d="M123.1509 127.8812 L123.1509 126.4172 "/>
<path d="M123.1509 126.4172 L122.8581 125.2460 "/>
<path d="M122.8581 125.2460 L122.5653 124.6604 "/>
<path d="M122.5653 124.6604 L122.2725 124.3676 "/>
<path d="M122.2725 124.3676 L121.6869 124.0748 "/>
<path d="M113.4885 130.2236 L115.5381 127.2956 "/>
<path d="M117.0021 130.2236 L117.0021 124.0748 "/>
<path d="M117.0021 124.0748 L114.6597 124.0748 "/>
<path d="M114.6597 124.0748 L114.0741 124.3676 "/>
<path d="M114.0741 124.3676 L113.7813 124.6604 "/>
<path d="M113.7813 124.6604 L113.4885 125.2460 "/>
<path d="M113.4885 125.2460 L113.4885 126.1244 "/>
<path d="M113.4885 126.1244 L113.7813 126.7100 "/>
<path d="M113.7813 126.7100 L114.0741 127.0028 "/>
<path d="M114.0741 127.0028 L114.6597 127.2956 "/>
<path d="M114.6597 127.2956 L117.0021 127.2956 "/>
</g></g>
<g style="fill:#000084; fill-opacity:0.0;  stroke:#000084; stroke-width:0.7839; stroke-opacity:1;  stroke-linecap:round; stroke-linejoin:round;">
<g transform="rotate(-90.000000 160.4626 80.1137)">
<text x="160.4626" y="82.7268" transform="scale(-1 1) translate(-320.925228 0)" textLength="15.5978" font-size="6.9683" lengthAdjust="spacingAndGlyphs" text-anchor="middle" opacity="0.01" style="font-family:monospace">4u7</text>
</g>
<g class="stroked-text"><desc>4u7</desc>
<path d="M159.3554 76.2563 L162.8396 76.2563 "/>
<path d="M157.3645 75.0119 L161.0975 73.7676 "/>
<path d="M161.0975 73.7676 L161.0975 77.0029 "/>
<path d="M159.3554 81.2336 L162.8396 81.2336 "/>
<path d="M159.3554 78.9938 L162.0930 78.9938 "/>
<path d="M162.0930 78.9938 L162.5907 79.2427 "/>
<path d="M162.5907 79.2427 L162.8396 79.7404 "/>
<path d="M162.8396 79.7404 L162.8396 80.4870 "/>
<path d="M162.8396 80.4870 L162.5907 80.9848 "/>
<path d="M162.5907 80.9848 L162.3419 81.2336 "/>
<path d="M157.6134 83.2246 L157.6134 86.7087 "/>
<path d="M157.6134 86.7087 L162.8396 84.4689 "/>
</g></g>
<g style="fill:#000084; fill-opacity:0.0;  stroke:#000084; stroke-width:0.4181; stroke-opacity:1;  stroke-linecap:round; stroke-linejoin:round;">
<g transform="rotate(-90.000000 169.2427 80.1137)">
<text x="169.2427" y="81.4203" transform="scale(-1 1) translate(-338.485329 0)" textLength="5.6244" font-size="3.4841" lengthAdjust="spacingAndGlyphs" text-anchor="middle" opacity="0.01" style="font-family:monospace">C4</text>
</g>
<g class="stroked-text"><desc>C4</desc>
<path d="M170.1809 79.6782 L170.3054 79.5538 "/>
<path d="M170.3054 79.5538 L170.4298 79.1805 "/>
<path d="M170.4298 79.1805 L170.4298 78.9316 "/>
<path d="M170.4298 78.9316 L170.3054 78.5583 "/>
<path d="M170.3054 78.5583 L170.0565 78.3094 "/>
<path d="M170.0565 78.3094 L169.8076 78.1850 "/>
<path d="M169.8076 78.1850 L169.3099 78.0606 "/>
<path d="M169.3099 78.0606 L168.9366 78.0606 "/>
<path d="M168.9366 78.0606 L168.4389 78.1850 "/>
<path d="M168.4389 78.1850 L168.1900 78.3094 "/>
<path d="M168.1900 78.3094 L167.9411 78.5583 "/>
<path d="M167.9411 78.5583 L167.8167 78.9316 "/>
<path d="M167.8167 78.9316 L167.8167 79.1805 "/>
<path d="M167.8167 79.1805 L167.9411 79.5538 "/>
<path d="M167.9411 79.5538 L168.0656 79.6782 "/>
<path d="M168.6877 81.9180 L170.4298 81.9180 "/>
<path d="M167.6923 81.2958 L169.5588 80.6737 "/>
<path d="M169.5588 80.6737 L169.5588 82.2913 "/>
</g></g>
<g style="fill:#000084; fill-opacity:0.0;  stroke:#000084; stroke-width:0.7839; stroke-opacity:1;  stroke-linecap:round; stroke-linejoin:round;">
<g transform="rotate(-90.000000 138.1989 118.2782)">
<text x="138.1989" y="120.8913" transform="scale(-1 1) translate(-276.397827 0)" textLength="20.0774" font-size="6.9683" lengthAdjust="spacingAndGlyphs" text-anchor="middle" opacity="0.01" style="font-family:monospace">10uF</text>
</g>
<g class="stroked-text"><desc>10uF</desc>
<path d="M140.5759 112.6787 L140.5759 109.6923 "/>
<path d="M140.5759 111.1855 L135.3497 111.1855 "/>
<path d="M135.3497 111.1855 L136.0963 110.6877 "/>
<path d="M136.0963 110.6877 L136.5940 110.1900 "/>
<path d="M136.5940 110.1900 L136.8429 109.6923 "/>
<path d="M135.3497 115.9140 L135.3497 116.4117 "/>
<path d="M135.3497 116.4117 L135.5985 116.9094 "/>
<path d="M135.5985 116.9094 L135.8474 117.1583 "/>
<path d="M135.8474 117.1583 L136.3451 117.4072 "/>
<path d="M136.3451 117.4072 L137.3406 117.6560 "/>
<path d="M137.3406 117.6560 L138.5850 117.6560 "/>
<path d="M138.5850 117.6560 L139.5804 117.4072 "/>
<path d="M139.5804 117.4072 L140.0782 117.1583 "/>
<path d="M140.0782 117.1583 L140.3270 116.9094 "/>
<path d="M140.3270 116.9094 L140.5759 116.4117 "/>
<path d="M140.5759 116.4117 L140.5759 115.9140 "/>
<path d="M140.5759 115.9140 L140.3270 115.4162 "/>
<path d="M140.3270 115.4162 L140.0782 115.1674 "/>
<path d="M140.0782 115.1674 L139.5804 114.9185 "/>
<path d="M139.5804 114.9185 L138.5850 114.6696 "/>
<path d="M138.5850 114.6696 L137.3406 114.6696 "/>
<path d="M137.3406 114.6696 L136.3451 114.9185 "/>
<path d="M136.3451 114.9185 L135.8474 115.1674 "/>
<path d="M135.8474 115.1674 L135.5985 115.4162 "/>
<path d="M135.5985 115.4162 L135.3497 115.9140 "/>
<path d="M137.0917 122.1356 L140.5759 122.1356 "/>
<path d="M137.0917 119.8958 L139.8293 119.8958 "/>
<path d="M139.8293 119.8958 L140.3270 120.1447 "/>
<path d="M140.3270 120.1447 L140.5759 120.6424 "/>
<path d="M140.5759 120.6424 L140.5759 121.3890 "/>
<path d="M140.5759 121.3890 L140.3270 121.8868 "/>
<path d="M140.3270 121.8868 L140.0782 122.1356 "/>
<path d="M137.8384 126.3664 L137.8384 124.6243 "/>
<path d="M140.5759 124.6243 L135.3497 124.6243 "/>
<path d="M135.3497 124.6243 L135.3497 127.1130 "/>
</g></g>
<g style="fill:#000084; fill-opacity:0.0;  stroke:#000084; stroke-width:0.4181; stroke-opacity:1;  stroke-linecap:round; stroke-linejoin:round;">
<g transform="rotate(-90.000000 129.4189 118.2782)">
<text x="129.4189" y="119.5848" transform="scale(-1 1) translate(-258.837726 0)" textLength="5.6244" font-size="3.4841" lengthAdjust="spacingAndGlyphs" text-anchor="middle" opacity="0.01" style="font-family:monospace">C2</text>
</g>
<g class="stroked-text"><desc>C2</desc>
<path d="M130.3571 117.8427 L130.4816 117.7182 "/>
<path d="M130.4816 117.7182 L130.6060 117.3449 "/>
<path d="M130.6060 117.3449 L130.6060 117.0961 "/>
<path d="M130.6060 117.0961 L130.4816 116.7228 "/>
<path d="M130.4816 116.7228 L130.2327 116.4739 "/>
<path d="M130.2327 116.4739 L129.9838 116.3495 "/>
<path d="M129.9838 116.3495 L129.4861 116.2250 "/>
<path d="M129.4861 116.2250 L129.1128 116.2250 "/>
<path d="M129.1128 116.2250 L128.6151 116.3495 "/>
<path d="M128.6151 116.3495 L128.3662 116.4739 "/>
<path d="M128.3662 116.4739 L128.1173 116.7228 "/>
<path d="M128.1173 116.7228 L127.9929 117.0961 "/>
<path d="M127.9929 117.0961 L127.9929 117.3449 "/>
<path d="M127.9929 117.3449 L128.1173 117.7182 "/>
<path d="M128.1173 117.7182 L128.2418 117.8427 "/>
<path d="M128.2418 118.8382 L128.1173 118.9626 "/>
<path d="M128.1173 118.9626 L127.9929 119.2115 "/>
<path d="M127.9929 119.2115 L127.9929 119.8336 "/>
<path d="M127.9929 119.8336 L128.1173 120.0825 "/>
<path d="M128.1173 120.0825 L128.2418 120.2069 "/>
<path d="M128.2418 120.2069 L128.4906 120.3314 "/>
<path d="M128.4906 120.3314 L128.7395 120.3314 "/>
<path d="M128.7395 120.3314 L129.1128 120.2069 "/>
<path d="M129.1128 120.2069 L130.6060 118.7137 "/>
<path d="M130.6060 118.7137 L130.6060 120.3314 "/>
</g></g>
<g style="fill:#000084; fill-opacity:0.0;  stroke:#000084; stroke-width:0.5310; stroke-opacity:1;  stroke-linecap:round; stroke-linejoin:round;">
<path d="M156.8641 161.3211 L156.8641 176.5869 "/>
<path d="M140.1381 161.1883 L140.1381 176.5869 "/>
</g>
<g style="fill:#000084; fill-opacity:1.0000;  stroke:#000084; stroke-width:0.0000; stroke-opacity:1;  stroke-linecap:round; stroke-linejoin:round;">
<path style="fill:#000084; fill-opacity:1.0000;  stroke:#000084; stroke-width:0.0000; stroke-opacity:1;  stroke-linecap:round; stroke-linejoin:round;fill-rule:evenodd;" d="M 157.1296,161.3744 139.8831,161.3744 139.8831,156.4095 157.1296,156.4095 Z"/> 
<path style="fill:#000084; fill-opacity:1.0000;  stroke:#000084; stroke-width:0.0000; stroke-opacity:1;  stroke-linecap:round; stroke-linejoin:round;fill-rule:evenodd;" d="M 157.1296,181.4190 139.8831,181.4190 139.8831,176.4541 157.1296,176.4541 Z"/> 
</g>
<g style="fill:#000084; fill-opacity:1.0000;  stroke:#000084; stroke-width:0.7965; stroke-opacity:1;  stroke-linecap:round; stroke-linejoin:round;">
</g>
<g style="fill:#000084; fill-opacity:0.0;  stroke:#000084; stroke-width:0.7965; stroke-opacity:1;  stroke-linecap:round; stroke-linejoin:round;">
<path d="M147.6714 76.4488 L147.6714 72.1633 "/>
<path d="M141.0341 76.4488 L141.0341 72.1633 "/>
</g>
<g style="fill:#000084; fill-opacity:1.0000;  stroke:#000084; stroke-width:0.0000; stroke-opacity:1;  stroke-linecap:round; stroke-linejoin:round;">
<path style="fill:#000084; fill-opacity:1.0000;  stroke:#000084; stroke-width:0.0000; stroke-opacity:1;  stroke-linecap:round; stroke-linejoin:round;fill-rule:evenodd;" d="M 148.0190,72.1822 140.7023,72.1822 140.7023,68.7851 148.0190,68.7851 Z"/> 
<path style="fill:#000084; fill-opacity:1.0000;  stroke:#000084; stroke-width:0.0000; stroke-opacity:1;  stroke-linecap:round; stroke-linejoin:round;fill-rule:evenodd;" d="M 148.0190,79.8814 140.7023,79.8814 140.7023,76.4844 148.0190,76.4844 Z"/> 
</g>
<g style="fill:#000084; fill-opacity:1.0000;  stroke:#000084; stroke-width:0.7965; stroke-opacity:1;  stroke-linecap:round; stroke-linejoin:round;">
</g>
<g style="fill:#000084; fill-opacity:0.0;  stroke:#000084; stroke-width:0.7965; stroke-opacity:1;  stroke-linecap:round; stroke-linejoin:round;">
<path d="M117.4574 124.9155 L113.1718 124.9155 "/>
<path d="M117.4574 118.2782 L113.1718 118.2782 "/>
</g>
<g style="fill:#000084; fill-opacity:1.0000;  stroke:#000084; stroke-width:0.0000; stroke-opacity:1;  stroke-linecap:round; stroke-linejoin:round;">
<path style="fill:#000084; fill-opacity:1.0000;  stroke:#000084; stroke-width:0.0000; stroke-opacity:1;  stroke-linecap:round; stroke-linejoin:round;fill-rule:evenodd;" d="M 113.1907,125.2474 109.7936,125.2474 109.7936,117.9307 113.1907,117.9307 Z"/> 
<path style="fill:#000084; fill-opacity:1.0000;  stroke:#000084; stroke-width:0.0000; stroke-opacity:1;  stroke-linecap:round; stroke-linejoin:round;fill-rule:evenodd;" d="M 120.8899,125.2474 117.4929,125.2474 117.4929,117.9307 120.8899,117.9307 Z"/> 
</g>
<g style="fill:#000084; fill-opacity:1.0000;  stroke:#000084; stroke-width:0.7965; stroke-opacity:1;  stroke-linecap:round; stroke-linejoin:round;">
</g>
<g style="fill:#000084; fill-opacity:0.0;  stroke:#000084; stroke-width:0.7965; stroke-opacity:1;  stroke-linecap:round; stroke-linejoin:round;">
<path d="M117.4574 127.4045 L113.1718 127.4045 "/>
<path d="M117.4574 134.0418 L113.1718 134.0418 "/>
</g>
<g style="fill:#000084; fill-opacity:1.0000;  stroke:#000084; stroke-width:0.0000; stroke-opacity:1;  stroke-linecap:round; stroke-linejoin:round;">
<path style="fill:#000084; fill-opacity:1.0000;  stroke:#000084; stroke-width:0.0000; stroke-opacity:1;  stroke-linecap:round; stroke-linejoin:round;fill-rule:evenodd;" d="M 120.8899,134.3737 117.4929,134.3737 117.4929,127.0569 120.8899,127.0569 Z"/> 
<path style="fill:#000084; fill-opacity:1.0000;  stroke:#000084; stroke-width:0.0000; stroke-opacity:1;  stroke-linecap:round; stroke-linejoin:round;fill-rule:evenodd;" d="M 113.1907,134.3737 109.7936,134.3737 109.7936,127.0569 113.1907,127.0569 Z"/> 
</g>
<g style="fill:#000084; fill-opacity:1.0000;  stroke:#000084; stroke-width:0.5226; stroke-opacity:1;  stroke-linecap:round; stroke-linejoin:round;">
</g>
<g style="fill:#000084; fill-opacity:0.0;  stroke:#000084; stroke-width:0.5226; stroke-opacity:1;  stroke-linecap:round; stroke-linejoin:round;">
<path d="M174.8021 144.7751 L185.2545 144.7751 "/>
<path d="M185.2545 144.7751 L185.2545 138.2424 "/>
<path d="M174.8021 138.2424 L174.8021 144.7751 "/>
<path d="M185.2545 138.2424 L174.8021 138.2424 "/>
<path d="M136.9381 113.0520 L136.9381 123.5044 "/>
<path d="M136.9381 123.5044 L143.4709 123.5044 "/>
<path d="M143.4709 113.0520 L136.9381 113.0520 "/>
<path d="M143.4709 123.5044 L143.4709 113.0520 "/>
</g>
<g style="fill:#000084; fill-opacity:0.0;  stroke:#000084; stroke-width:0.5310; stroke-opacity:1;  stroke-linecap:round; stroke-linejoin:round;">
<path d="M161.7430 131.3699 L170.1050 131.3699 "/>
<path d="M170.1050 125.0984 L161.7430 125.0984 "/>
</g>
<g style="fill:#000084; fill-opacity:1.0000;  stroke:#000084; stroke-width:0.0000; stroke-opacity:1;  stroke-linecap:round; stroke-linejoin:round;">
<path style="fill:#000084; fill-opacity:1.0000;  stroke:#000084; stroke-width:0.0000; stroke-opacity:1;  stroke-linecap:round; stroke-linejoin:round;fill-rule:evenodd;" d="M 169.9743,131.2392 165.9240,131.2392 165.9240,128.2342 169.9743,128.2342 Z"/> 
<path style="fill:#000084; fill-opacity:1.0000;  stroke:#000084; stroke-width:0.0000; stroke-opacity:1;  stroke-linecap:round; stroke-linejoin:round;fill-rule:evenodd;" d="M 163.9642,132.6764 162.6576,132.6764 162.6576,130.5860 163.9642,130.5860 Z"/> 
<path style="fill:#000084; fill-opacity:1.0000;  stroke:#000084; stroke-width:0.0000; stroke-opacity:1;  stroke-linecap:round; stroke-linejoin:round;fill-rule:evenodd;" d="M 169.1904,132.6764 167.8838,132.6764 167.8838,130.5860 169.1904,130.5860 Z"/> 
<path style="fill:#000084; fill-opacity:1.0000;  stroke:#000084; stroke-width:0.0000; stroke-opacity:1;  stroke-linecap:round; stroke-linejoin:round;fill-rule:evenodd;" d="M 169.1904,125.8824 167.8838,125.8824 167.8838,123.7919 169.1904,123.7919 Z"/> 
<path style="fill:#000084; fill-opacity:1.0000;  stroke:#000084; stroke-width:0.0000; stroke-opacity:1;  stroke-linecap:round; stroke-linejoin:round;fill-rule:evenodd;" d="M 166.5773,132.6764 165.2707,132.6764 165.2707,130.5860 166.5773,130.5860 Z"/> 
<path style="fill:#000084; fill-opacity:1.0000;  stroke:#000084; stroke-width:0.0000; stroke-opacity:1;  stroke-linecap:round; stroke-linejoin:round;fill-rule:evenodd;" d="M 163.9642,125.8824 162.6576,125.8824 162.6576,123.7919 163.9642,123.7919 Z"/> 
</g>
<g style="fill:#000084; fill-opacity:1.0000;  stroke:#000084; stroke-width:0.7965; stroke-opacity:1;  stroke-linecap:round; stroke-linejoin:round;">
</g>
<g style="fill:#000084; fill-opacity:0.0;  stroke:#000084; stroke-width:0.7965; stroke-opacity:1;  stroke-linecap:round; stroke-linejoin:round;">
<path d="M113.1718 143.9977 L117.4574 143.9977 "/>
<path d="M113.1718 137.3604 L117.4574 137.3604 "/>
</g>
<g style="fill:#000084; fill-opacity:1.0000;  stroke:#000084; stroke-width:0.0000; stroke-opacity:1;  stroke-linecap:round; stroke-linejoin:round;">
<path style="fill:#000084; fill-opacity:1.0000;  stroke:#000084; stroke-width:0.0000; stroke-opacity:1;  stroke-linecap:round; stroke-linejoin:round;fill-rule:evenodd;" d="M 120.8356,144.3453 117.4385,144.3453 117.4385,137.0286 120.8356,137.0286 Z"/> 
<path style="fill:#000084; fill-opacity:1.0000;  stroke:#000084; stroke-width:0.0000; stroke-opacity:1;  stroke-linecap:round; stroke-linejoin:round;fill-rule:evenodd;" d="M 113.1363,144.3453 109.7393,144.3453 109.7393,137.0286 113.1363,137.0286 Z"/> 
</g>
<g style="fill:#000084; fill-opacity:1.0000;  stroke:#000084; stroke-width:0.5226; stroke-opacity:1;  stroke-linecap:round; stroke-linejoin:round;">
</g>
<g style="fill:#000084; fill-opacity:0.0;  stroke:#000084; stroke-width:0.5226; stroke-opacity:1;  stroke-linecap:round; stroke-linejoin:round;">
<path d="M172.5091 85.3399 L172.5091 74.8875 "/>
<path d="M165.9763 74.8875 L165.9763 85.3399 "/>
<path d="M172.5091 74.8875 L165.9763 74.8875 "/>
<path d="M165.9763 85.3399 L172.5091 85.3399 "/>
<path d="M132.6853 123.5044 L132.6853 113.0520 "/>
<path d="M126.1525 113.0520 L126.1525 123.5044 "/>
<path d="M132.6853 113.0520 L126.1525 113.0520 "/>
<path d="M126.1525 123.5044 L132.6853 123.5044 "/>
<g>
</g>
<g>
</g>
<g>
</g>
<g>
</g>
<g>
</g>
<g>
</g>
<g>
</g>
<g>
</g>
<g>
</g>
<g>
</g>
<g>
</g>
<g>
</g>
<g>
</g>
<g>
</g>
<g>
</g>
<g>
</g>
<g>
</g>
<g>
</g>
<g>
</g>
<g>
</g>
<g>
</g>
<g>
</g>
<g>
</g>
<g>
</g>
<g>
</g>
<g>
</g>
<g>
</g>
<g>
</g>
<g>
</g>
</g> 
<svg:g><svg:g><svg:title>SVG Image created as USBI2C01-Edge_Cuts.svg date 2023/07/05 15:12:45 </svg:title>
  <svg:desc>Image generated by PCBNEW </svg:desc>
<svg:g style="fill:#C2C200; fill-opacity:1.0000;stroke:#C2C200; stroke-opacity:1.0000; stroke-linecap:round; stroke-linejoin:round;" transform="translate(0 0) scale(1 1)">
</svg:g>
<svg:g style="fill:#C2C200; fill-opacity:0.0;  stroke:#C2C200; stroke-width:0.0000; stroke-opacity:1;  stroke-linecap:round; stroke-linejoin:round;">
</svg:g>
<svg:g style="fill:#C2C200; fill-opacity:0.0;  stroke:#C2C200; stroke-width:0.2613; stroke-opacity:1;  stroke-linecap:round; stroke-linejoin:round;">
<svg:path d="M70.1810 0.1343 L70.1810 209.8729 "/>
<svg:path d="M70.1810 209.8729 L226.8212 209.8729 "/>
<svg:path d="M226.8212 209.8729 L226.8212 0.1343 "/>
<svg:path d="M226.8212 0.1343 L70.1810 0.1343 "/>
<svg:g>
</svg:g>
<svg:g>
</svg:g>
<svg:g>
</svg:g>
<svg:g>
</svg:g>
<svg:g>
</svg:g>
<svg:g>
</svg:g>
<svg:g>
</svg:g>
<svg:g>
</svg:g>
<svg:g>
</svg:g>
<svg:g>
</svg:g>
<svg:g>
</svg:g>
<svg:g>
</svg:g>
<svg:g>
</svg:g>
<svg:g>
</svg:g>
<svg:g>
</svg:g>
<svg:g>
</svg:g>
<svg:g>
</svg:g>
<svg:g>
</svg:g>
<svg:g>
</svg:g>
<svg:g>
</svg:g>
<svg:g>
</svg:g>
<svg:g>
</svg:g>
<svg:g>
</svg:g>
<svg:g>
</svg:g>
<svg:g>
</svg:g>
<svg:g>
</svg:g>
<svg:g>
</svg:g>
<svg:g>
</svg:g>
<svg:g>
</svg:g>
</svg:g> 
</svg:g></svg:g></svg>
