<?xml version='1.0' encoding='ASCII' standalone='yes'?>
<svg xmlns:svg="http://www.w3.org/2000/svg" xmlns="http://www.w3.org/2000/svg" xmlns:xlink="http://www.w3.org/1999/xlink" version="1.1" width="29.700220cm" height="21.000720cm" viewBox="0 0 2970022 2100072">
<title>SVG Picture created as USBI2C01-B_Fab.svg date 2023/02/15 11:53:49 </title>
  <desc>Picture generated by PCBNEW </desc>
<g style="fill:#000084; fill-opacity:1.000000;stroke:#000084; stroke-opacity:1.000000; stroke-linecap:round; stroke-linejoin:round;" transform="translate(0 0) scale(1 1)">
</g>
<g style="fill:#000084; fill-opacity:0.0;  stroke:#000084; stroke-width:0.000000; stroke-opacity:1;  stroke-linecap:round; stroke-linejoin:round;">
</g>
<g style="fill:#000084; fill-opacity:0.01;  stroke:#000084; stroke-width:4016.278627; stroke-opacity:1;  stroke-linecap:round; stroke-linejoin:round;">
<g transform="rotate(-90.000000 1479449.117013 1636472.325720)">
<text x="1479449.117013" y="1661748.687950" transform="scale(-1 1) translate(-2958898.234027 0)" textLength="255170.845789" font-size="67403.632614" lengthAdjust="spacingAndGlyphs" text-anchor="end" opacity="0.01" style="font-family:monospace">750mA</text>
</g>
<g class="stroked-text"><desc>750mA</desc>
<path d="M1451765 1385912 L1451765 1419614 L1502318 1397949 "/>
<path d="M1451765 1462945 L1451765 1438872 L1475838 1436465 L1473430 1438872 L1471023 1443687 L1471023 1455723 L1473430 1460538 L1475838 1462945 L1480652 1465352 L1492689 1465352 L1497503 1462945 L1499910 1460538 L1502318 1455723 L1502318 1443687 L1499910 1438872 L1497503 1436465 "/>
<path d="M1451765 1496647 L1451765 1501461 L1454172 1506276 L1456580 1508683 L1461394 1511090 L1471023 1513498 L1483059 1513498 L1492689 1511090 L1497503 1508683 L1499910 1506276 L1502318 1501461 L1502318 1496647 L1499910 1491832 L1497503 1489425 L1492689 1487018 L1483059 1484610 L1471023 1484610 L1461394 1487018 L1456580 1489425 L1454172 1491832 L1451765 1496647 "/>
<path d="M1502318 1535163 L1468616 1535163 "/>
<path d="M1473430 1535163 L1471023 1537570 L1468616 1542385 L1468616 1549607 L1471023 1554421 L1475838 1556828 L1502318 1556828 "/>
<path d="M1475838 1556828 L1471023 1559236 L1468616 1564050 L1468616 1571272 L1471023 1576087 L1475838 1578494 L1502318 1578494 "/>
<path d="M1487874 1600159 L1487874 1624232 "/>
<path d="M1502318 1595345 L1451765 1612196 L1502318 1629047 "/>
</g><g transform="rotate(-90.000000 1172498.474646 968002.037898)">
<text x="1172498.474646" y="993278.400128" transform="scale(-1 1) translate(-2344996.949292 0)" textLength="131993.395248" font-size="67403.632614" lengthAdjust="spacingAndGlyphs" text-anchor="start" opacity="0.01" style="font-family:monospace">4k7</text>
</g>
<g class="stroked-text"><desc>4k7</desc>
<path d="M1161665 1004314 L1195367 1004314 "/>
<path d="M1142407 992278 L1178516 980241 L1178516 1011536 "/>
<path d="M1195367 1030794 L1144814 1030794 "/>
<path d="M1176109 1035608 L1195367 1050052 "/>
<path d="M1161665 1050052 L1180923 1030794 "/>
<path d="M1144814 1066903 L1144814 1100605 L1195367 1078939 "/>
</g><text x="1070181.593857" y="1463936.051758" transform="scale(-1 1) translate(-2140363.187714 0)" textLength="189767.919073" font-size="67403.632614" lengthAdjust="spacingAndGlyphs" text-anchor="start" opacity="0.01" style="font-family:monospace">470R</text>
<g class="stroked-text"><desc>470R</desc>
<path d="M1033869 1427826 L1033869 1461528 "/>
<path d="M1045905 1408568 L1057941 1444677 L1026647 1444677 "/>
<path d="M1012203 1410976 L978501 1410976 L1000167 1461528 "/>
<path d="M949614 1410976 L944800 1410976 L939985 1413383 L937578 1415790 L935171 1420605 L932763 1430234 L932763 1442270 L935171 1451899 L937578 1456714 L939985 1459121 L944800 1461528 L949614 1461528 L954429 1459121 L956836 1456714 L959243 1451899 L961650 1442270 L961650 1430234 L959243 1420605 L956836 1415790 L954429 1413383 L949614 1410976 "/>
<path d="M882211 1461528 L899061 1437456 "/>
<path d="M911098 1461528 L911098 1410976 L891840 1410976 L887025 1413383 L884618 1415790 L882211 1420605 L882211 1427826 L884618 1432641 L887025 1435048 L891840 1437456 L911098 1437456 "/>
</g><text x="1070181.593857" y="1538968.431003" transform="scale(-1 1) translate(-2140363.187714 0)" textLength="189767.919073" font-size="67403.632614" lengthAdjust="spacingAndGlyphs" text-anchor="start" opacity="0.01" style="font-family:monospace">470R</text>
<g class="stroked-text"><desc>470R</desc>
<path d="M1033869 1502859 L1033869 1536561 "/>
<path d="M1045905 1483601 L1057941 1519710 L1026647 1519710 "/>
<path d="M1012203 1486008 L978501 1486008 L1000167 1536561 "/>
<path d="M949614 1486008 L944800 1486008 L939985 1488415 L937578 1490822 L935171 1495637 L932763 1505266 L932763 1517302 L935171 1526932 L937578 1531746 L939985 1534153 L944800 1536561 L949614 1536561 L954429 1534153 L956836 1531746 L959243 1526932 L961650 1517302 L961650 1505266 L959243 1495637 L956836 1490822 L954429 1488415 L949614 1486008 "/>
<path d="M882211 1536561 L899061 1512488 "/>
<path d="M911098 1536561 L911098 1486008 L891840 1486008 L887025 1488415 L884618 1490822 L882211 1495637 L882211 1502859 L884618 1507673 L887025 1510081 L891840 1512488 L911098 1512488 "/>
</g></g>
<g style="fill:#000084; fill-opacity:0.01;  stroke:#000084; stroke-width:6445.157845; stroke-opacity:1;  stroke-linecap:round; stroke-linejoin:round;">
<text x="1574944.872417" y="1442526.784235" transform="scale(-1 1) translate(-3149889.744833 0)" textLength="111405.498640" font-size="57290.277633" lengthAdjust="spacingAndGlyphs" text-anchor="middle" opacity="0.01" style="font-family:monospace">1uF</text>
<g class="stroked-text"><desc>1uF</desc>
<path d="M1600520 1440480 L1625073 1440480 "/>
<path d="M1612797 1440480 L1612797 1397512 L1616889 1403651 L1620981 1407743 L1625073 1409789 "/>
<path d="M1563691 1411835 L1563691 1440480 "/>
<path d="M1582106 1411835 L1582106 1434342 L1580060 1438434 L1575967 1440480 L1569829 1440480 L1565737 1438434 L1563691 1436388 "/>
<path d="M1528908 1417973 L1543230 1417973 "/>
<path d="M1543230 1440480 L1543230 1397512 L1522769 1397512 "/>
</g></g>
<g style="fill:#000084; fill-opacity:0.01;  stroke:#000084; stroke-width:3437.417517; stroke-opacity:1;  stroke-linecap:round; stroke-linejoin:round;">
<text x="1574944.872417" y="1503970.622357" transform="scale(-1 1) translate(-3149889.744833 0)" textLength="33565.952379" font-size="28645.117333" lengthAdjust="spacingAndGlyphs" text-anchor="middle" opacity="0.01" style="font-family:monospace">C1</text>
<g class="stroked-text"><desc>C1</desc>
<path d="M1578525 1500901 L1579548 1501924 L1582617 1502947 L1584663 1502947 L1587732 1501924 L1589778 1499878 L1590801 1497832 L1591825 1493740 L1591825 1490671 L1590801 1486578 L1589778 1484532 L1587732 1482486 L1584663 1481463 L1582617 1481463 L1579548 1482486 L1578525 1483509 "/>
<path d="M1558064 1502947 L1570341 1502947 "/>
<path d="M1564202 1502947 L1564202 1481463 L1566249 1484532 L1568295 1486578 L1570341 1487601 "/>
</g></g>
<g style="fill:#000084; fill-opacity:0.0;  stroke:#000084; stroke-width:6445.157845; stroke-opacity:1;  stroke-linecap:round; stroke-linejoin:round;">
<g transform="rotate(-90.000000 1319716.621755 1302237.181809)">
<text x="1319716.621755" y="1323721.041292" transform="scale(-1 1) translate(-2639433.243510 0)" textLength="194001.313585" font-size="57290.277633" lengthAdjust="spacingAndGlyphs" text-anchor="middle" opacity="0.01" style="font-family:monospace">100nF</text>
</g>
<g class="stroked-text"><desc>100nF</desc>
<path d="M1339154 1235739 L1339154 1211186 "/>
<path d="M1339154 1223463 L1296186 1223463 L1302324 1219370 L1306417 1215278 L1308463 1211186 "/>
<path d="M1296186 1262338 L1296186 1266430 L1298232 1270522 L1300278 1272568 L1304371 1274615 L1312555 1276661 L1322785 1276661 L1330970 1274615 L1335062 1272568 L1337108 1270522 L1339154 1266430 L1339154 1262338 L1337108 1258246 L1335062 1256200 L1330970 1254154 L1322785 1252108 L1312555 1252108 L1304371 1254154 L1300278 1256200 L1298232 1258246 L1296186 1262338 "/>
<path d="M1296186 1303260 L1296186 1307352 L1298232 1311444 L1300278 1313490 L1304371 1315536 L1312555 1317582 L1322785 1317582 L1330970 1315536 L1335062 1313490 L1337108 1311444 L1339154 1307352 L1339154 1303260 L1337108 1299168 L1335062 1297121 L1330970 1295075 L1322785 1293029 L1312555 1293029 L1304371 1295075 L1300278 1297121 L1298232 1299168 L1296186 1303260 "/>
<path d="M1310509 1335997 L1339154 1335997 "/>
<path d="M1314601 1335997 L1312555 1338043 L1310509 1342135 L1310509 1348273 L1312555 1352366 L1316647 1354412 L1339154 1354412 "/>
<path d="M1316647 1389195 L1316647 1374873 "/>
<path d="M1339154 1374873 L1296186 1374873 L1296186 1395333 "/>
</g></g>
<g style="fill:#000084; fill-opacity:0.0;  stroke:#000084; stroke-width:3437.417517; stroke-opacity:1;  stroke-linecap:round; stroke-linejoin:round;">
<g transform="rotate(-90.000000 1247530.853891 1302237.181809)">
<text x="1247530.853891" y="1312979.111550" transform="scale(-1 1) translate(-2495061.707783 0)" textLength="33565.952379" font-size="28645.117333" lengthAdjust="spacingAndGlyphs" text-anchor="middle" opacity="0.01" style="font-family:monospace">C3</text>
</g>
<g class="stroked-text"><desc>C3</desc>
<path d="M1255203 1298656 L1256226 1297633 L1257249 1294564 L1257249 1292518 L1256226 1289449 L1254180 1287403 L1252134 1286380 L1248042 1285356 L1244973 1285356 L1240881 1286380 L1238835 1287403 L1236788 1289449 L1235765 1292518 L1235765 1294564 L1236788 1297633 L1237811 1298656 "/>
<path d="M1235765 1305817 L1235765 1319117 L1243950 1311956 L1243950 1315025 L1244973 1317071 L1245996 1318094 L1248042 1319117 L1253157 1319117 L1255203 1318094 L1256226 1317071 L1257249 1315025 L1257249 1308886 L1256226 1306840 L1255203 1305817 "/>
</g></g>
<g style="fill:#000084; fill-opacity:0.01;  stroke:#000084; stroke-width:4016.278627; stroke-opacity:1;  stroke-linecap:round; stroke-linejoin:round;">
<text x="1501953.459822" y="1516786.346087" transform="scale(-1 1) translate(-3003906.919644 0)" textLength="582905.876142" font-size="67403.632614" lengthAdjust="spacingAndGlyphs" text-anchor="start" opacity="0.01" style="font-family:monospace">SP1001-04XTG</text>
<g class="stroked-text"><desc>SP1001-04XTG</desc>
<path d="M1489713 1511971 L1482491 1514379 L1470455 1514379 L1465641 1511971 L1463233 1509564 L1460826 1504749 L1460826 1499935 L1463233 1495120 L1465641 1492713 L1470455 1490306 L1480084 1487899 L1484899 1485491 L1487306 1483084 L1489713 1478269 L1489713 1473455 L1487306 1468640 L1484899 1466233 L1480084 1463826 L1468048 1463826 L1460826 1466233 "/>
<path d="M1439161 1514379 L1439161 1463826 L1419902 1463826 L1415088 1466233 L1412681 1468640 L1410273 1473455 L1410273 1480677 L1412681 1485491 L1415088 1487899 L1419902 1490306 L1439161 1490306 "/>
<path d="M1362128 1514379 L1391015 1514379 "/>
<path d="M1376571 1514379 L1376571 1463826 L1381386 1471048 L1386201 1475862 L1391015 1478269 "/>
<path d="M1330833 1463826 L1326019 1463826 L1321204 1466233 L1318797 1468640 L1316390 1473455 L1313982 1483084 L1313982 1495120 L1316390 1504749 L1318797 1509564 L1321204 1511971 L1326019 1514379 L1330833 1514379 L1335648 1511971 L1338055 1509564 L1340462 1504749 L1342870 1495120 L1342870 1483084 L1340462 1473455 L1338055 1468640 L1335648 1466233 L1330833 1463826 "/>
<path d="M1282688 1463826 L1277873 1463826 L1273059 1466233 L1270651 1468640 L1268244 1473455 L1265837 1483084 L1265837 1495120 L1268244 1504749 L1270651 1509564 L1273059 1511971 L1277873 1514379 L1282688 1514379 L1287502 1511971 L1289910 1509564 L1292317 1504749 L1294724 1495120 L1294724 1483084 L1292317 1473455 L1289910 1468640 L1287502 1466233 L1282688 1463826 "/>
<path d="M1217691 1514379 L1246579 1514379 "/>
<path d="M1232135 1514379 L1232135 1463826 L1236950 1471048 L1241764 1475862 L1246579 1478269 "/>
<path d="M1196026 1495120 L1157510 1495120 "/>
<path d="M1123808 1463826 L1118993 1463826 L1114179 1466233 L1111771 1468640 L1109364 1473455 L1106957 1483084 L1106957 1495120 L1109364 1504749 L1111771 1509564 L1114179 1511971 L1118993 1514379 L1123808 1514379 L1128622 1511971 L1131030 1509564 L1133437 1504749 L1135844 1495120 L1135844 1483084 L1133437 1473455 L1131030 1468640 L1128622 1466233 L1123808 1463826 "/>
<path d="M1063626 1480677 L1063626 1514379 "/>
<path d="M1075662 1461419 L1087699 1497528 L1056404 1497528 "/>
<path d="M1041961 1463826 L1008259 1514379 "/>
<path d="M1008259 1463826 L1041961 1514379 "/>
<path d="M996222 1463826 L967335 1463826 "/>
<path d="M981779 1514379 L981779 1463826 "/>
<path d="M924004 1466233 L928819 1463826 L936041 1463826 L943262 1466233 L948077 1471048 L950484 1475862 L952891 1485491 L952891 1492713 L950484 1502342 L948077 1507157 L943262 1511971 L936041 1514379 L931226 1514379 L924004 1511971 L921597 1509564 L921597 1492713 L931226 1492713 "/>
</g><text x="1015612.590769" y="1402545.923284" transform="scale(-1 1) translate(-2031225.181539 0)" textLength="189767.919073" font-size="67403.632614" lengthAdjust="spacingAndGlyphs" text-anchor="end" opacity="0.01" style="font-family:monospace">470R</text>
<g class="stroked-text"><desc>470R</desc>
<path d="M1179510 1366436 L1179510 1400138 "/>
<path d="M1191546 1347178 L1203583 1383287 L1172288 1383287 "/>
<path d="M1157844 1349585 L1124143 1349585 L1145808 1400138 "/>
<path d="M1095255 1349585 L1090441 1349585 L1085626 1351993 L1083219 1354400 L1080812 1359214 L1078404 1368844 L1078404 1380880 L1080812 1390509 L1083219 1395324 L1085626 1397731 L1090441 1400138 L1095255 1400138 L1100070 1397731 L1102477 1395324 L1104884 1390509 L1107292 1380880 L1107292 1368844 L1104884 1359214 L1102477 1354400 L1100070 1351993 L1095255 1349585 "/>
<path d="M1027852 1400138 L1044703 1376065 "/>
<path d="M1056739 1400138 L1056739 1349585 L1037481 1349585 L1032666 1351993 L1030259 1354400 L1027852 1359214 L1027852 1366436 L1030259 1371251 L1032666 1373658 L1037481 1376065 L1056739 1376065 "/>
</g></g>
<g style="fill:#000084; fill-opacity:0.0;  stroke:#000084; stroke-width:6445.157845; stroke-opacity:1;  stroke-linecap:round; stroke-linejoin:round;">
<g transform="rotate(-90.000000 1414084.474535 988465.414055)">
<text x="1414084.474535" y="1009949.273539" transform="scale(-1 1) translate(-2828168.949071 0)" textLength="115497.658259" font-size="57290.277633" lengthAdjust="spacingAndGlyphs" text-anchor="middle" opacity="0.01" style="font-family:monospace">4u7</text>
</g>
<g class="stroked-text"><desc>4u7</desc>
<path d="M1404877 956751 L1433522 956751 "/>
<path d="M1388508 946520 L1419199 936290 L1419199 962889 "/>
<path d="M1404877 997672 L1433522 997672 "/>
<path d="M1404877 979258 L1427383 979258 L1431476 981304 L1433522 985396 L1433522 991534 L1431476 995626 L1429430 997672 "/>
<path d="M1390554 1014041 L1390554 1042686 L1433522 1024271 "/>
</g></g>
<g style="fill:#000084; fill-opacity:0.0;  stroke:#000084; stroke-width:3437.417517; stroke-opacity:1;  stroke-linecap:round; stroke-linejoin:round;">
<g transform="rotate(-90.000000 1486270.242399 988465.414055)">
<text x="1486270.242399" y="999207.343797" transform="scale(-1 1) translate(-2972540.484799 0)" textLength="33565.952379" font-size="28645.117333" lengthAdjust="spacingAndGlyphs" text-anchor="middle" opacity="0.01" style="font-family:monospace">C4</text>
</g>
<g class="stroked-text"><desc>C4</desc>
<path d="M1493943 984884 L1494966 983861 L1495989 980792 L1495989 978746 L1494966 975677 L1492919 973631 L1490873 972608 L1486781 971585 L1483712 971585 L1479620 972608 L1477574 973631 L1475528 975677 L1474505 978746 L1474505 980792 L1475528 983861 L1476551 984884 "/>
<path d="M1481666 1003299 L1495989 1003299 "/>
<path d="M1473482 998184 L1488827 993069 L1488827 1006368 "/>
</g></g>
<g style="fill:#000084; fill-opacity:0.0;  stroke:#000084; stroke-width:6445.157845; stroke-opacity:1;  stroke-linecap:round; stroke-linejoin:round;">
<g transform="rotate(-90.000000 1231041.991738 1302237.181809)">
<text x="1231041.991738" y="1323721.041292" transform="scale(-1 1) translate(-2462083.983476 0)" textLength="153079.674427" font-size="57290.277633" lengthAdjust="spacingAndGlyphs" text-anchor="middle" opacity="0.01" style="font-family:monospace">10uF</text>
</g>
<g class="stroked-text"><desc>10uF</desc>
<path d="M1250479 1256200 L1250479 1231647 "/>
<path d="M1250479 1243923 L1207512 1243923 L1213650 1239831 L1217742 1235739 L1219788 1231647 "/>
<path d="M1207512 1282799 L1207512 1286891 L1209558 1290983 L1211604 1293029 L1215696 1295075 L1223880 1297121 L1234111 1297121 L1242295 1295075 L1246387 1293029 L1248433 1290983 L1250479 1286891 L1250479 1282799 L1248433 1278707 L1246387 1276661 L1242295 1274615 L1234111 1272568 L1223880 1272568 L1215696 1274615 L1211604 1276661 L1209558 1278707 L1207512 1282799 "/>
<path d="M1221834 1333951 L1250479 1333951 "/>
<path d="M1221834 1315536 L1244341 1315536 L1248433 1317582 L1250479 1321674 L1250479 1327813 L1248433 1331905 L1246387 1333951 "/>
<path d="M1227972 1368734 L1227972 1354412 "/>
<path d="M1250479 1354412 L1207512 1354412 L1207512 1374873 "/>
</g></g>
<g style="fill:#000084; fill-opacity:0.0;  stroke:#000084; stroke-width:3437.417517; stroke-opacity:1;  stroke-linecap:round; stroke-linejoin:round;">
<g transform="rotate(-90.000000 1158856.223874 1302237.181809)">
<text x="1158856.223874" y="1312979.111550" transform="scale(-1 1) translate(-2317712.447748 0)" textLength="33565.952379" font-size="28645.117333" lengthAdjust="spacingAndGlyphs" text-anchor="middle" opacity="0.01" style="font-family:monospace">C2</text>
</g>
<g class="stroked-text"><desc>C2</desc>
<path d="M1166529 1298656 L1167552 1297633 L1168575 1294564 L1168575 1292518 L1167552 1289449 L1165505 1287403 L1163459 1286380 L1159367 1285356 L1156298 1285356 L1152206 1286380 L1150160 1287403 L1148114 1289449 L1147091 1292518 L1147091 1294564 L1148114 1297633 L1149137 1298656 "/>
<path d="M1149137 1306840 L1148114 1307863 L1147091 1309909 L1147091 1315025 L1148114 1317071 L1149137 1318094 L1151183 1319117 L1153229 1319117 L1156298 1318094 L1168575 1305817 L1168575 1319117 "/>
</g></g>
<g style="fill:#000084; fill-opacity:0.0;  stroke:#000084; stroke-width:4365.520247; stroke-opacity:1;  stroke-linecap:round; stroke-linejoin:round;">
<path d="M1384499 1656117 L1384499 1781625 "/>
<path d="M1246985 1655025 L1246985 1781625 "/>
</g>
<g style="fill:#000084; fill-opacity:1.0;  stroke:#000084; stroke-width:0.042968; stroke-opacity:1;  stroke-linecap:round; stroke-linejoin:round;">
<path style="fill:#000084; fill-opacity:1.0;  stroke:#000084; stroke-width:0.042968; stroke-opacity:1;  stroke-linecap:round; stroke-linejoin:round;fill-rule:evenodd;" d="M 1386681.811765,1656555.437565 1244888.339175,1656555.437565 1244888.339175,1615736.104547 1386681.811765,1615736.104547 Z"/> 
<path style="fill:#000084; fill-opacity:1.0;  stroke:#000084; stroke-width:0.042968; stroke-opacity:1;  stroke-linecap:round; stroke-linejoin:round;fill-rule:evenodd;" d="M 1386681.811765,1821353.826889 1244888.339175,1821353.826889 1244888.339175,1780534.493871 1386681.811765,1780534.493871 Z"/> 
</g>
<g style="fill:#000084; fill-opacity:1.0;  stroke:#000084; stroke-width:6548.280371; stroke-opacity:1;  stroke-linecap:round; stroke-linejoin:round;">
</g>
<g style="fill:#000084; fill-opacity:0.0;  stroke:#000084; stroke-width:6548.280371; stroke-opacity:1;  stroke-linecap:round; stroke-linejoin:round;">
<path d="M1308920 958334 L1308920 923100 "/>
<path d="M1254351 958334 L1254351 923100 "/>
</g>
<g style="fill:#000084; fill-opacity:1.0;  stroke:#000084; stroke-width:0.042968; stroke-opacity:1;  stroke-linecap:round; stroke-linejoin:round;">
<path style="fill:#000084; fill-opacity:1.0;  stroke:#000084; stroke-width:0.042968; stroke-opacity:1;  stroke-linecap:round; stroke-linejoin:round;fill-rule:evenodd;" d="M 1311778.335676,923255.455366 1251623.529123,923255.455366 1251623.529123,895326.438037 1311778.335676,895326.438037 Z"/> 
<path style="fill:#000084; fill-opacity:1.0;  stroke:#000084; stroke-width:0.042968; stroke-opacity:1;  stroke-linecap:round; stroke-linejoin:round;fill-rule:evenodd;" d="M 1311778.335676,986555.498947 1251623.529123,986555.498947 1251623.529123,958626.481619 1311778.335676,958626.481619 Z"/> 
</g>
<g style="fill:#000084; fill-opacity:1.0;  stroke:#000084; stroke-width:6548.280371; stroke-opacity:1;  stroke-linecap:round; stroke-linejoin:round;">
</g>
<g style="fill:#000084; fill-opacity:0.0;  stroke:#000084; stroke-width:6548.280371; stroke-opacity:1;  stroke-linecap:round; stroke-linejoin:round;">
<path d="M1060513 1356806 L1025280 1356806 "/>
<path d="M1060513 1302237 L1025280 1302237 "/>
</g>
<g style="fill:#000084; fill-opacity:1.0;  stroke:#000084; stroke-width:0.042968; stroke-opacity:1;  stroke-linecap:round; stroke-linejoin:round;">
<path style="fill:#000084; fill-opacity:1.0;  stroke:#000084; stroke-width:0.042968; stroke-opacity:1;  stroke-linecap:round; stroke-linejoin:round;fill-rule:evenodd;" d="M 1025435.011325,1359534.635051 997505.993997,1359534.635051 997505.993997,1299379.828497 1025435.011325,1299379.828497 Z"/> 
<path style="fill:#000084; fill-opacity:1.0;  stroke:#000084; stroke-width:0.042968; stroke-opacity:1;  stroke-linecap:round; stroke-linejoin:round;fill-rule:evenodd;" d="M 1088735.054907,1359534.635051 1060806.037578,1359534.635051 1060806.037578,1299379.828497 1088735.054907,1299379.828497 Z"/> 
</g>
<g style="fill:#000084; fill-opacity:1.0;  stroke:#000084; stroke-width:6548.280371; stroke-opacity:1;  stroke-linecap:round; stroke-linejoin:round;">
</g>
<g style="fill:#000084; fill-opacity:0.0;  stroke:#000084; stroke-width:6548.280371; stroke-opacity:1;  stroke-linecap:round; stroke-linejoin:round;">
<path d="M1060513 1377269 L1025280 1377269 "/>
<path d="M1060513 1431838 L1025280 1431838 "/>
</g>
<g style="fill:#000084; fill-opacity:1.0;  stroke:#000084; stroke-width:0.042968; stroke-opacity:1;  stroke-linecap:round; stroke-linejoin:round;">
<path style="fill:#000084; fill-opacity:1.0;  stroke:#000084; stroke-width:0.042968; stroke-opacity:1;  stroke-linecap:round; stroke-linejoin:round;fill-rule:evenodd;" d="M 1088735.054907,1434567.014296 1060806.037578,1434567.014296 1060806.037578,1374412.207743 1088735.054907,1374412.207743 Z"/> 
<path style="fill:#000084; fill-opacity:1.0;  stroke:#000084; stroke-width:0.042968; stroke-opacity:1;  stroke-linecap:round; stroke-linejoin:round;fill-rule:evenodd;" d="M 1025435.011325,1434567.014296 997505.993997,1434567.014296 997505.993997,1374412.207743 1025435.011325,1374412.207743 Z"/> 
</g>
<g style="fill:#000084; fill-opacity:1.0;  stroke:#000084; stroke-width:4296.771897; stroke-opacity:1;  stroke-linecap:round; stroke-linejoin:round;">
</g>
<g style="fill:#000084; fill-opacity:0.0;  stroke:#000084; stroke-width:4296.771897; stroke-opacity:1;  stroke-linecap:round; stroke-linejoin:round;">
<path d="M1531977 1520083 L1617912 1520083 "/>
<path d="M1617912 1520083 L1617912 1466373 "/>
<path d="M1531977 1466373 L1531977 1520083 "/>
<path d="M1617912 1466373 L1531977 1466373 "/>
<path d="M1220676 1259269 L1220676 1345204 "/>
<path d="M1220676 1345204 L1274385 1345204 "/>
<path d="M1274385 1259269 L1220676 1259269 "/>
<path d="M1274385 1345204 L1274385 1259269 "/>
</g>
<g style="fill:#000084; fill-opacity:0.0;  stroke:#000084; stroke-width:4365.520247; stroke-opacity:1;  stroke-linecap:round; stroke-linejoin:round;">
<path d="M1424611 1409871 L1493359 1409871 "/>
<path d="M1493359 1358310 L1424611 1358310 "/>
</g>
<g style="fill:#000084; fill-opacity:1.0;  stroke:#000084; stroke-width:0.042968; stroke-opacity:1;  stroke-linecap:round; stroke-linejoin:round;">
<path style="fill:#000084; fill-opacity:1.0;  stroke:#000084; stroke-width:0.042968; stroke-opacity:1;  stroke-linecap:round; stroke-linejoin:round;fill-rule:evenodd;" d="M 1492285.723055,1408797.124846 1458985.740856,1408797.124846 1458985.740856,1384090.686440 1492285.723055,1384090.686440 Z"/> 
<path style="fill:#000084; fill-opacity:1.0;  stroke:#000084; stroke-width:0.042968; stroke-opacity:1;  stroke-linecap:round; stroke-linejoin:round;fill-rule:evenodd;" d="M 1442872.846243,1420613.247562 1432130.916501,1420613.247562 1432130.916501,1403426.159975 1442872.846243,1403426.159975 Z"/> 
<path style="fill:#000084; fill-opacity:1.0;  stroke:#000084; stroke-width:0.042968; stroke-opacity:1;  stroke-linecap:round; stroke-linejoin:round;fill-rule:evenodd;" d="M 1485840.565210,1420613.247562 1475098.635468,1420613.247562 1475098.635468,1403426.159975 1485840.565210,1403426.159975 Z"/> 
<path style="fill:#000084; fill-opacity:1.0;  stroke:#000084; stroke-width:0.042968; stroke-opacity:1;  stroke-linecap:round; stroke-linejoin:round;fill-rule:evenodd;" d="M 1485840.565210,1364755.212905 1475098.635468,1364755.212905 1475098.635468,1347568.125318 1485840.565210,1347568.125318 Z"/> 
<path style="fill:#000084; fill-opacity:1.0;  stroke:#000084; stroke-width:0.042968; stroke-opacity:1;  stroke-linecap:round; stroke-linejoin:round;fill-rule:evenodd;" d="M 1464356.705726,1420613.247562 1453614.775985,1420613.247562 1453614.775985,1403426.159975 1464356.705726,1403426.159975 Z"/> 
<path style="fill:#000084; fill-opacity:1.0;  stroke:#000084; stroke-width:0.042968; stroke-opacity:1;  stroke-linecap:round; stroke-linejoin:round;fill-rule:evenodd;" d="M 1442872.846243,1364755.212905 1432130.916501,1364755.212905 1432130.916501,1347568.125318 1442872.846243,1347568.125318 Z"/> 
</g>
<g style="fill:#000084; fill-opacity:1.0;  stroke:#000084; stroke-width:6548.280371; stroke-opacity:1;  stroke-linecap:round; stroke-linejoin:round;">
</g>
<g style="fill:#000084; fill-opacity:0.0;  stroke:#000084; stroke-width:6548.280371; stroke-opacity:1;  stroke-linecap:round; stroke-linejoin:round;">
<path d="M1025280 1513692 L1060513 1513692 "/>
<path d="M1025280 1459123 L1060513 1459123 "/>
</g>
<g style="fill:#000084; fill-opacity:1.0;  stroke:#000084; stroke-width:0.042968; stroke-opacity:1;  stroke-linecap:round; stroke-linejoin:round;">
<path style="fill:#000084; fill-opacity:1.0;  stroke:#000084; stroke-width:0.042968; stroke-opacity:1;  stroke-linecap:round; stroke-linejoin:round;fill-rule:evenodd;" d="M 1088288.190629,1516549.422084 1060359.173301,1516549.422084 1060359.173301,1456394.615531 1088288.190629,1456394.615531 Z"/> 
<path style="fill:#000084; fill-opacity:1.0;  stroke:#000084; stroke-width:0.042968; stroke-opacity:1;  stroke-linecap:round; stroke-linejoin:round;fill-rule:evenodd;" d="M 1024988.147048,1516549.422084 997059.129720,1516549.422084 997059.129720,1456394.615531 1024988.147048,1456394.615531 Z"/> 
</g>
<g style="fill:#000084; fill-opacity:1.0;  stroke:#000084; stroke-width:4296.771897; stroke-opacity:1;  stroke-linecap:round; stroke-linejoin:round;">
</g>
<g style="fill:#000084; fill-opacity:0.0;  stroke:#000084; stroke-width:4296.771897; stroke-opacity:1;  stroke-linecap:round; stroke-linejoin:round;">
<path d="M1513125 1031433 L1513125 945497 "/>
<path d="M1459415 945497 L1459415 1031433 "/>
<path d="M1513125 945497 L1459415 945497 "/>
<path d="M1459415 1031433 L1513125 1031433 "/>
<path d="M1185711 1345204 L1185711 1259269 "/>
<path d="M1132001 1259269 L1132001 1345204 "/>
<path d="M1185711 1259269 L1132001 1259269 "/>
<path d="M1132001 1345204 L1185711 1345204 "/>
<g>
</g>
<g>
</g>
<g>
</g>
<g>
</g>
<g>
</g>
<g>
</g>
<g>
</g>
<g>
</g>
<g>
</g>
<g>
</g>
<g>
</g>
<g>
</g>
<g>
</g>
<g>
</g>
<g>
</g>
<g>
</g>
<g>
</g>
<g>
</g>
<g>
</g>
<g>
</g>
<g>
</g>
<g>
</g>
<g>
</g>
<g>
</g>
<g>
</g>
<g>
</g>
<g>
</g>
<g>
</g>
<g>
</g>
</g> 
<svg:g><svg:g><svg:title>SVG Picture created as USBI2C01-Edge_Cuts.svg date 2023/02/15 11:53:49 </svg:title>
  <svg:desc>Picture generated by PCBNEW </svg:desc>
<svg:g style="fill:#C2C200; fill-opacity:1.000000;stroke:#C2C200; stroke-opacity:1.000000; stroke-linecap:round; stroke-linejoin:round;" transform="translate(0 0) scale(1 1)">
</svg:g>
<svg:g style="fill:#C2C200; fill-opacity:0.0;  stroke:#C2C200; stroke-width:0.000000; stroke-opacity:1;  stroke-linecap:round; stroke-linejoin:round;">
</svg:g>
<svg:g style="fill:#C2C200; fill-opacity:0.0;  stroke:#C2C200; stroke-width:2148.385948; stroke-opacity:1;  stroke-linecap:round; stroke-linejoin:round;">
<svg:path d="M671827 330908 L671827 2055289 "/>
<svg:path d="M671827 2055289 L1959656 2055289 "/>
<svg:path d="M1959656 2055289 L1959656 330908 "/>
<svg:path d="M1959656 330908 L671827 330908 "/>
<svg:g>
</svg:g>
<svg:g>
</svg:g>
<svg:g>
</svg:g>
<svg:g>
</svg:g>
<svg:g>
</svg:g>
<svg:g>
</svg:g>
<svg:g>
</svg:g>
<svg:g>
</svg:g>
<svg:g>
</svg:g>
<svg:g>
</svg:g>
<svg:g>
</svg:g>
<svg:g>
</svg:g>
<svg:g>
</svg:g>
<svg:g>
</svg:g>
<svg:g>
</svg:g>
<svg:g>
</svg:g>
<svg:g>
</svg:g>
<svg:g>
</svg:g>
<svg:g>
</svg:g>
<svg:g>
</svg:g>
<svg:g>
</svg:g>
<svg:g>
</svg:g>
<svg:g>
</svg:g>
<svg:g>
</svg:g>
<svg:g>
</svg:g>
<svg:g>
</svg:g>
<svg:g>
</svg:g>
<svg:g>
</svg:g>
<svg:g>
</svg:g>
</svg:g> 
</svg:g></svg:g></svg>
