<?xml version='1.0' encoding='ASCII' standalone='yes'?>
<svg xmlns:svg="http://www.w3.org/2000/svg" xmlns="http://www.w3.org/2000/svg" xmlns:xlink="http://www.w3.org/1999/xlink" version="1.1" width="29.700220cm" height="21.000720cm" viewBox="0 0 2970022 2100072">
<title>SVG Picture created as USBI2C01-F_Fab.svg date 2023/07/05 12:09:06 </title>
  <desc>Picture generated by PCBNEW </desc>
<g style="fill:#848484; fill-opacity:1.000000;stroke:#848484; stroke-opacity:1.000000; stroke-linecap:round; stroke-linejoin:round;" transform="translate(0 0) scale(1 1)">
</g>
<g style="fill:#848484; fill-opacity:0.0;  stroke:#848484; stroke-width:0.000000; stroke-opacity:1;  stroke-linecap:round; stroke-linejoin:round;">
</g>
<g style="fill:#848484; fill-opacity:0.01;  stroke:#848484; stroke-width:4686.733353; stroke-opacity:1;  stroke-linecap:round; stroke-linejoin:round;">
<text x="1323297.694043" y="756099.866784" textLength="373524.242430" font-size="80542.363494" lengthAdjust="spacingAndGlyphs" text-anchor="start" opacity="0.01" style="font-family:monospace">MA01-1</text>
<g class="stroked-text"><desc>MA01-1</desc>
<path d="M1305868 753223 L1305868 692816 L1285733 735964 L1265597 692816 L1265597 753223 "/>
<path d="M1239708 735964 L1210943 735964 "/>
<path d="M1245461 753223 L1225326 692816 L1205190 753223 "/>
<path d="M1173549 692816 L1167796 692816 L1162043 695693 L1159166 698569 L1156290 704322 L1153413 715828 L1153413 730211 L1156290 741717 L1159166 747470 L1162043 750346 L1167796 753223 L1173549 753223 L1179302 750346 L1182178 747470 L1185055 741717 L1187931 730211 L1187931 715828 L1185055 704322 L1182178 698569 L1179302 695693 L1173549 692816 "/>
<path d="M1095883 753223 L1130401 753223 "/>
<path d="M1113142 753223 L1113142 692816 L1118895 701446 L1124648 707199 L1130401 710075 "/>
<path d="M1069994 730211 L1023970 730211 "/>
<path d="M963563 753223 L998081 753223 "/>
<path d="M980822 753223 L980822 692816 L986575 701446 L992328 707199 L998081 710075 "/>
</g><g transform="rotate(-90.000000 758611.418566 763325.247369)">
<text x="758611.418566" y="793528.640087" textLength="374286.502911" font-size="80542.363494" lengthAdjust="spacingAndGlyphs" text-anchor="start" opacity="0.01" style="font-family:monospace">MA03-2</text>
</g>
<g class="stroked-text"><desc>MA03-2</desc>
<path d="M731284 745896 L791691 745896 L748543 725760 L791691 705625 L731284 705625 "/>
<path d="M748543 679736 L748543 650971 "/>
<path d="M731284 685489 L791691 665353 L731284 645218 "/>
<path d="M791691 613576 L791691 607823 L788814 602070 L785938 599194 L780185 596317 L768679 593441 L754296 593441 L742790 596317 L737037 599194 L734161 602070 L731284 607823 L731284 613576 L734161 619329 L737037 622206 L742790 625082 L754296 627959 L768679 627959 L780185 625082 L785938 622206 L788814 619329 L791691 613576 "/>
<path d="M791691 573305 L791691 535910 L768679 556046 L768679 547416 L765802 541663 L762926 538787 L757173 535910 L742790 535910 L737037 538787 L734161 541663 L731284 547416 L731284 564675 L734161 570428 L737037 573305 "/>
<path d="M754296 510022 L754296 463997 "/>
<path d="M785938 438109 L788814 435232 L791691 429479 L791691 415097 L788814 409344 L785938 406467 L780185 403591 L774432 403591 L765802 406467 L731284 440985 L731284 403591 "/>
</g><text x="1510441.560556" y="912324.311873" textLength="374286.502911" font-size="80542.363494" lengthAdjust="spacingAndGlyphs" text-anchor="end" opacity="0.01" style="font-family:monospace">MA03-1</text>
<g class="stroked-text"><desc>MA03-1</desc>
<path d="M1867299 909447 L1867299 849041 L1847163 892188 L1827027 849041 L1827027 909447 "/>
<path d="M1801139 892188 L1772374 892188 "/>
<path d="M1806892 909447 L1786756 849041 L1766621 909447 "/>
<path d="M1734979 849041 L1729226 849041 L1723473 851917 L1720596 854793 L1717720 860547 L1714843 872053 L1714843 886435 L1717720 897941 L1720596 903694 L1723473 906571 L1729226 909447 L1734979 909447 L1740732 906571 L1743609 903694 L1746485 897941 L1749362 886435 L1749362 872053 L1746485 860547 L1743609 854793 L1740732 851917 L1734979 849041 "/>
<path d="M1694708 849041 L1657313 849041 L1677449 872053 L1668819 872053 L1663066 874929 L1660190 877806 L1657313 883559 L1657313 897941 L1660190 903694 L1663066 906571 L1668819 909447 L1686078 909447 L1691831 906571 L1694708 903694 "/>
<path d="M1631425 886435 L1585400 886435 "/>
<path d="M1524994 909447 L1559512 909447 "/>
<path d="M1542253 909447 L1542253 849041 L1548006 857670 L1553759 863423 L1559512 866300 "/>
</g><g transform="rotate(-90.000000 1800107.719158 722641.798128)">
<text x="1800107.719158" y="752845.190845" textLength="374286.502911" font-size="80542.363494" lengthAdjust="spacingAndGlyphs" text-anchor="start" opacity="0.01" style="font-family:monospace">MA03-2</text>
</g>
<g class="stroked-text"><desc>MA03-2</desc>
<path d="M1772780 705212 L1833187 705212 L1790039 685077 L1833187 664941 L1772780 664941 "/>
<path d="M1790039 639053 L1790039 610287 "/>
<path d="M1772780 644806 L1833187 624670 L1772780 604534 "/>
<path d="M1833187 572893 L1833187 567140 L1830311 561387 L1827434 558510 L1821681 555634 L1810175 552757 L1795792 552757 L1784286 555634 L1778533 558510 L1775657 561387 L1772780 567140 L1772780 572893 L1775657 578646 L1778533 581522 L1784286 584399 L1795792 587275 L1810175 587275 L1821681 584399 L1827434 581522 L1830311 578646 L1833187 572893 "/>
<path d="M1833187 532622 L1833187 495227 L1810175 515362 L1810175 506733 L1807299 500980 L1804422 498103 L1798669 495227 L1784286 495227 L1778533 498103 L1775657 500980 L1772780 506733 L1772780 523992 L1775657 529745 L1778533 532622 "/>
<path d="M1795792 469338 L1795792 423314 "/>
<path d="M1827434 397425 L1830311 394549 L1833187 388796 L1833187 374413 L1830311 368660 L1827434 365784 L1821681 362907 L1815928 362907 L1807299 365784 L1772780 400302 L1772780 362907 "/>
</g><g transform="rotate(-90.000000 758611.418566 1308483.467210)">
<text x="758611.418566" y="1338686.859927" textLength="374286.502911" font-size="80542.363494" lengthAdjust="spacingAndGlyphs" text-anchor="start" opacity="0.01" style="font-family:monospace">MA05-2</text>
</g>
<g class="stroked-text"><desc>MA05-2</desc>
<path d="M731284 1291054 L791691 1291054 L748543 1270918 L791691 1250783 L731284 1250783 "/>
<path d="M748543 1224894 L748543 1196129 "/>
<path d="M731284 1230647 L791691 1210512 L731284 1190376 "/>
<path d="M791691 1158734 L791691 1152981 L788814 1147228 L785938 1144352 L780185 1141475 L768679 1138599 L754296 1138599 L742790 1141475 L737037 1144352 L734161 1147228 L731284 1152981 L731284 1158734 L734161 1164487 L737037 1167364 L742790 1170240 L754296 1173117 L768679 1173117 L780185 1170240 L785938 1167364 L788814 1164487 L791691 1158734 "/>
<path d="M791691 1083945 L791691 1112710 L762926 1115587 L765802 1112710 L768679 1106957 L768679 1092575 L765802 1086822 L762926 1083945 L757173 1081069 L742790 1081069 L737037 1083945 L734161 1086822 L731284 1092575 L731284 1106957 L734161 1112710 L737037 1115587 "/>
<path d="M754296 1055180 L754296 1009156 "/>
<path d="M785938 983267 L788814 980391 L791691 974637 L791691 960255 L788814 954502 L785938 951625 L780185 948749 L774432 948749 L765802 951625 L731284 986144 L731284 948749 "/>
</g><text x="1494168.180859" y="82381.947339" textLength="374286.502911" font-size="80542.363494" lengthAdjust="spacingAndGlyphs" text-anchor="end" opacity="0.01" style="font-family:monospace">MA05-2</text>
<g class="stroked-text"><desc>MA05-2</desc>
<path d="M1851025 79505 L1851025 19098 L1830890 62246 L1810754 19098 L1810754 79505 "/>
<path d="M1784865 62246 L1756100 62246 "/>
<path d="M1790618 79505 L1770483 19098 L1750347 79505 "/>
<path d="M1718706 19098 L1712953 19098 L1707200 21975 L1704323 24851 L1701447 30604 L1698570 42110 L1698570 56493 L1701447 67999 L1704323 73752 L1707200 76628 L1712953 79505 L1718706 79505 L1724459 76628 L1727335 73752 L1730212 67999 L1733088 56493 L1733088 42110 L1730212 30604 L1727335 24851 L1724459 21975 L1718706 19098 "/>
<path d="M1643916 19098 L1672681 19098 L1675558 47863 L1672681 44987 L1666928 42110 L1652546 42110 L1646793 44987 L1643916 47863 L1641040 53616 L1641040 67999 L1643916 73752 L1646793 76628 L1652546 79505 L1666928 79505 L1672681 76628 L1675558 73752 "/>
<path d="M1615151 56493 L1569127 56493 "/>
<path d="M1543238 24851 L1540362 21975 L1534609 19098 L1520226 19098 L1514473 21975 L1511597 24851 L1508720 30604 L1508720 36357 L1511597 44987 L1546115 79505 L1508720 79505 "/>
</g></g>
<g style="fill:#848484; fill-opacity:0.01;  stroke:#848484; stroke-width:4790.882983; stroke-opacity:1;  stroke-linecap:round; stroke-linejoin:round;">
<text x="1689448.737220" y="1989569.972982" textLength="293248.147306" font-size="80403.514406" lengthAdjust="spacingAndGlyphs" text-anchor="start" opacity="0.01" style="font-family:monospace">USB_B</text>
<g class="stroked-text"><desc>USB_B</desc>
<path d="M1671976 1926395 L1671976 1975212 L1669105 1980955 L1666233 1983826 L1660490 1986698 L1649004 1986698 L1643261 1983826 L1640389 1980955 L1637518 1975212 L1637518 1926395 "/>
<path d="M1611674 1983826 L1603059 1986698 L1588701 1986698 L1582958 1983826 L1580087 1980955 L1577215 1975212 L1577215 1969469 L1580087 1963725 L1582958 1960854 L1588701 1957982 L1600188 1955111 L1605931 1952239 L1608802 1949368 L1611674 1943625 L1611674 1937881 L1608802 1932138 L1605931 1929267 L1600188 1926395 L1585830 1926395 L1577215 1929267 "/>
<path d="M1531270 1955111 L1522656 1957982 L1519784 1960854 L1516912 1966597 L1516912 1975212 L1519784 1980955 L1522656 1983826 L1528399 1986698 L1551371 1986698 L1551371 1926395 L1531270 1926395 L1525527 1929267 L1522656 1932138 L1519784 1937881 L1519784 1943625 L1522656 1949368 L1525527 1952239 L1531270 1955111 L1551371 1955111 "/>
<path d="M1505426 1992441 L1459481 1992441 "/>
<path d="M1425023 1955111 L1416408 1957982 L1413537 1960854 L1410665 1966597 L1410665 1975212 L1413537 1980955 L1416408 1983826 L1422151 1986698 L1445124 1986698 L1445124 1926395 L1425023 1926395 L1419280 1929267 L1416408 1932138 L1413537 1937881 L1413537 1943625 L1416408 1949368 L1419280 1952239 L1425023 1955111 L1445124 1955111 "/>
</g></g>
<g style="fill:#848484; fill-opacity:1.0;  stroke:#848484; stroke-width:0.051255; stroke-opacity:1;  stroke-linecap:round; stroke-linejoin:round;">
<path style="fill:#848484; fill-opacity:1.0;  stroke:#848484; stroke-width:0.051255; stroke-opacity:1;  stroke-linecap:round; stroke-linejoin:round;fill-rule:evenodd;" d="M 1245185.471499,589200.084614 1271222.879014,589200.084614 1271222.879014,563162.677099 1245185.471499,563162.677099 Z"/> 
<path style="fill:#848484; fill-opacity:1.0;  stroke:#848484; stroke-width:0.051255; stroke-opacity:1;  stroke-linecap:round; stroke-linejoin:round;fill-rule:evenodd;" d="M 1025494.845593,841437.469914 1051532.253108,841437.469914 1051532.253108,815400.062399 1025494.845593,815400.062399 Z"/> 
<path style="fill:#848484; fill-opacity:1.0;  stroke:#848484; stroke-width:0.051255; stroke-opacity:1;  stroke-linecap:round; stroke-linejoin:round;fill-rule:evenodd;" d="M 895307.808019,581063.394766 921345.215534,581063.394766 921345.215534,555025.987251 895307.808019,555025.987251 Z"/> 
<path style="fill:#848484; fill-opacity:1.0;  stroke:#848484; stroke-width:0.051255; stroke-opacity:1;  stroke-linecap:round; stroke-linejoin:round;fill-rule:evenodd;" d="M 1025494.845593,711250.432340 1051532.253108,711250.432340 1051532.253108,685213.024825 1025494.845593,685213.024825 Z"/> 
<path style="fill:#848484; fill-opacity:1.0;  stroke:#848484; stroke-width:0.051255; stroke-opacity:1;  stroke-linecap:round; stroke-linejoin:round;fill-rule:evenodd;" d="M 895307.808019,841437.469914 921345.215534,841437.469914 921345.215534,815400.062399 895307.808019,815400.062399 Z"/> 
<path style="fill:#848484; fill-opacity:1.0;  stroke:#848484; stroke-width:0.051255; stroke-opacity:1;  stroke-linecap:round; stroke-linejoin:round;fill-rule:evenodd;" d="M 895307.808019,711250.432340 921345.215534,711250.432340 921345.215534,685213.024825 895307.808019,685213.024825 Z"/> 
<path style="fill:#848484; fill-opacity:1.0;  stroke:#848484; stroke-width:0.051255; stroke-opacity:1;  stroke-linecap:round; stroke-linejoin:round;fill-rule:evenodd;" d="M 1025494.845593,581063.394766 1051532.253108,581063.394766 1051532.253108,555025.987251 1025494.845593,555025.987251 Z"/> 
<path style="fill:#848484; fill-opacity:1.0;  stroke:#848484; stroke-width:0.051255; stroke-opacity:1;  stroke-linecap:round; stroke-linejoin:round;fill-rule:evenodd;" d="M 1562516.375586,1044854.716123 1588553.783100,1044854.716123 1588553.783100,1018817.308608 1562516.375586,1018817.308608 Z"/> 
<path style="fill:#848484; fill-opacity:1.0;  stroke:#848484; stroke-width:0.051255; stroke-opacity:1;  stroke-linecap:round; stroke-linejoin:round;fill-rule:evenodd;" d="M 1822890.450733,1044854.716123 1848927.858248,1044854.716123 1848927.858248,1018817.308608 1822890.450733,1018817.308608 Z"/> 
<path style="fill:#848484; fill-opacity:1.0;  stroke:#848484; stroke-width:0.051255; stroke-opacity:1;  stroke-linecap:round; stroke-linejoin:round;fill-rule:evenodd;" d="M 1936804.108611,670566.983098 1962841.516125,670566.983098 1962841.516125,644529.575583 1936804.108611,644529.575583 Z"/> 
<path style="fill:#848484; fill-opacity:1.0;  stroke:#848484; stroke-width:0.051255; stroke-opacity:1;  stroke-linecap:round; stroke-linejoin:round;fill-rule:evenodd;" d="M 1936804.108611,540379.945524 1962841.516125,540379.945524 1962841.516125,514342.538009 1936804.108611,514342.538009 Z"/> 
<path style="fill:#848484; fill-opacity:1.0;  stroke:#848484; stroke-width:0.051255; stroke-opacity:1;  stroke-linecap:round; stroke-linejoin:round;fill-rule:evenodd;" d="M 2066991.146185,540379.945524 2093028.553699,540379.945524 2093028.553699,514342.538009 2066991.146185,514342.538009 Z"/> 
<path style="fill:#848484; fill-opacity:1.0;  stroke:#848484; stroke-width:0.051255; stroke-opacity:1;  stroke-linecap:round; stroke-linejoin:round;fill-rule:evenodd;" d="M 2066991.146185,670566.983098 2093028.553699,670566.983098 2093028.553699,644529.575583 2066991.146185,644529.575583 Z"/> 
<path style="fill:#848484; fill-opacity:1.0;  stroke:#848484; stroke-width:0.051255; stroke-opacity:1;  stroke-linecap:round; stroke-linejoin:round;fill-rule:evenodd;" d="M 1936804.108611,800754.020672 1962841.516125,800754.020672 1962841.516125,774716.613157 1936804.108611,774716.613157 Z"/> 
<path style="fill:#848484; fill-opacity:1.0;  stroke:#848484; stroke-width:0.051255; stroke-opacity:1;  stroke-linecap:round; stroke-linejoin:round;fill-rule:evenodd;" d="M 2066991.146185,800754.020672 2093028.553699,800754.020672 2093028.553699,774716.613157 2066991.146185,774716.613157 Z"/> 
<path style="fill:#848484; fill-opacity:1.0;  stroke:#848484; stroke-width:0.051255; stroke-opacity:1;  stroke-linecap:round; stroke-linejoin:round;fill-rule:evenodd;" d="M 895307.808019,1321502.170968 921345.215534,1321502.170968 921345.215534,1295464.763453 895307.808019,1295464.763453 Z"/> 
<path style="fill:#848484; fill-opacity:1.0;  stroke:#848484; stroke-width:0.051255; stroke-opacity:1;  stroke-linecap:round; stroke-linejoin:round;fill-rule:evenodd;" d="M 1025494.845593,1191315.133394 1051532.253108,1191315.133394 1051532.253108,1165277.725879 1025494.845593,1165277.725879 Z"/> 
<path style="fill:#848484; fill-opacity:1.0;  stroke:#848484; stroke-width:0.051255; stroke-opacity:1;  stroke-linecap:round; stroke-linejoin:round;fill-rule:evenodd;" d="M 895307.808019,1061128.095820 921345.215534,1061128.095820 921345.215534,1035090.688305 895307.808019,1035090.688305 Z"/> 
<path style="fill:#848484; fill-opacity:1.0;  stroke:#848484; stroke-width:0.051255; stroke-opacity:1;  stroke-linecap:round; stroke-linejoin:round;fill-rule:evenodd;" d="M 1025494.845593,1321502.170968 1051532.253108,1321502.170968 1051532.253108,1295464.763453 1025494.845593,1295464.763453 Z"/> 
<path style="fill:#848484; fill-opacity:1.0;  stroke:#848484; stroke-width:0.051255; stroke-opacity:1;  stroke-linecap:round; stroke-linejoin:round;fill-rule:evenodd;" d="M 1025494.845593,1451689.208542 1051532.253108,1451689.208542 1051532.253108,1425651.801027 1025494.845593,1425651.801027 Z"/> 
<path style="fill:#848484; fill-opacity:1.0;  stroke:#848484; stroke-width:0.051255; stroke-opacity:1;  stroke-linecap:round; stroke-linejoin:round;fill-rule:evenodd;" d="M 895307.808019,1191315.133394 921345.215534,1191315.133394 921345.215534,1165277.725879 895307.808019,1165277.725879 Z"/> 
<path style="fill:#848484; fill-opacity:1.0;  stroke:#848484; stroke-width:0.051255; stroke-opacity:1;  stroke-linecap:round; stroke-linejoin:round;fill-rule:evenodd;" d="M 1025494.845593,1581876.246116 1051532.253108,1581876.246116 1051532.253108,1555838.838601 1025494.845593,1555838.838601 Z"/> 
<path style="fill:#848484; fill-opacity:1.0;  stroke:#848484; stroke-width:0.051255; stroke-opacity:1;  stroke-linecap:round; stroke-linejoin:round;fill-rule:evenodd;" d="M 1025494.845593,1061128.095820 1051532.253108,1061128.095820 1051532.253108,1035090.688305 1025494.845593,1035090.688305 Z"/> 
<path style="fill:#848484; fill-opacity:1.0;  stroke:#848484; stroke-width:0.051255; stroke-opacity:1;  stroke-linecap:round; stroke-linejoin:round;fill-rule:evenodd;" d="M 895307.808019,1581876.246116 921345.215534,1581876.246116 921345.215534,1555838.838601 895307.808019,1555838.838601 Z"/> 
<path style="fill:#848484; fill-opacity:1.0;  stroke:#848484; stroke-width:0.051255; stroke-opacity:1;  stroke-linecap:round; stroke-linejoin:round;fill-rule:evenodd;" d="M 895307.808019,1451689.208542 921345.215534,1451689.208542 921345.215534,1425651.801027 895307.808019,1425651.801027 Z"/> 
<path style="fill:#848484; fill-opacity:1.0;  stroke:#848484; stroke-width:0.051255; stroke-opacity:1;  stroke-linecap:round; stroke-linejoin:round;fill-rule:evenodd;" d="M 1611336.514676,345099.389163 1637373.922191,345099.389163 1637373.922191,319061.981648 1611336.514676,319061.981648 Z"/> 
<path style="fill:#848484; fill-opacity:1.0;  stroke:#848484; stroke-width:0.051255; stroke-opacity:1;  stroke-linecap:round; stroke-linejoin:round;fill-rule:evenodd;" d="M 1611336.514676,214912.351589 1637373.922191,214912.351589 1637373.922191,188874.944074 1611336.514676,188874.944074 Z"/> 
<path style="fill:#848484; fill-opacity:1.0;  stroke:#848484; stroke-width:0.051255; stroke-opacity:1;  stroke-linecap:round; stroke-linejoin:round;fill-rule:evenodd;" d="M 1741523.552250,345099.389163 1767560.959765,345099.389163 1767560.959765,319061.981648 1741523.552250,319061.981648 Z"/> 
<path style="fill:#848484; fill-opacity:1.0;  stroke:#848484; stroke-width:0.051255; stroke-opacity:1;  stroke-linecap:round; stroke-linejoin:round;fill-rule:evenodd;" d="M 1220775.401954,345099.389163 1246812.809469,345099.389163 1246812.809469,319061.981648 1220775.401954,319061.981648 Z"/> 
<path style="fill:#848484; fill-opacity:1.0;  stroke:#848484; stroke-width:0.051255; stroke-opacity:1;  stroke-linecap:round; stroke-linejoin:round;fill-rule:evenodd;" d="M 1481149.477102,345099.389163 1507186.884617,345099.389163 1507186.884617,319061.981648 1481149.477102,319061.981648 Z"/> 
<path style="fill:#848484; fill-opacity:1.0;  stroke:#848484; stroke-width:0.051255; stroke-opacity:1;  stroke-linecap:round; stroke-linejoin:round;fill-rule:evenodd;" d="M 1741523.552250,214912.351589 1767560.959765,214912.351589 1767560.959765,188874.944074 1741523.552250,188874.944074 Z"/> 
<path style="fill:#848484; fill-opacity:1.0;  stroke:#848484; stroke-width:0.051255; stroke-opacity:1;  stroke-linecap:round; stroke-linejoin:round;fill-rule:evenodd;" d="M 1350962.439528,345099.389163 1376999.847043,345099.389163 1376999.847043,319061.981648 1350962.439528,319061.981648 Z"/> 
<path style="fill:#848484; fill-opacity:1.0;  stroke:#848484; stroke-width:0.051255; stroke-opacity:1;  stroke-linecap:round; stroke-linejoin:round;fill-rule:evenodd;" d="M 1481149.477102,214912.351589 1507186.884617,214912.351589 1507186.884617,188874.944074 1481149.477102,188874.944074 Z"/> 
<path style="fill:#848484; fill-opacity:1.0;  stroke:#848484; stroke-width:0.051255; stroke-opacity:1;  stroke-linecap:round; stroke-linejoin:round;fill-rule:evenodd;" d="M 1220775.401954,214912.351589 1246812.809469,214912.351589 1246812.809469,188874.944074 1220775.401954,188874.944074 Z"/> 
<path style="fill:#848484; fill-opacity:1.0;  stroke:#848484; stroke-width:0.051255; stroke-opacity:1;  stroke-linecap:round; stroke-linejoin:round;fill-rule:evenodd;" d="M 1350962.439528,214912.351589 1376999.847043,214912.351589 1376999.847043,188874.944074 1350962.439528,188874.944074 Z"/> 
<path style="fill:#848484; fill-opacity:1.0;  stroke:#848484; stroke-width:0.051255; stroke-opacity:1;  stroke-linecap:round; stroke-linejoin:round;fill-rule:evenodd;" d="M 1643883.274069,849574.159762 1669920.681584,849574.159762 1669920.681584,823536.752247 1643883.274069,823536.752247 Z"/> 
<g>
</g>
<g>
</g>
<g>
</g>
<g>
</g>
<g>
</g>
<g>
</g>
<g>
</g>
<g>
</g>
<g>
</g>
<g>
</g>
<g>
</g>
<g>
</g>
<g>
</g>
<g>
</g>
<g>
</g>
<g>
</g>
<g>
</g>
<g>
</g>
<g>
</g>
<g>
</g>
<g>
</g>
<g>
</g>
<g>
</g>
<g>
</g>
<g>
</g>
<g>
</g>
<g>
</g>
<g>
</g>
<g>
</g>
</g> 
<svg:g><svg:g><svg:title>SVG Picture created as USBI2C01-Edge_Cuts.svg date 2023/07/05 12:09:06 </svg:title>
  <svg:desc>Picture generated by PCBNEW </svg:desc>
<svg:g style="fill:#C2C200; fill-opacity:1.000000;stroke:#C2C200; stroke-opacity:1.000000; stroke-linecap:round; stroke-linejoin:round;" transform="translate(0 0) scale(1 1)">
</svg:g>
<svg:g style="fill:#C2C200; fill-opacity:0.0;  stroke:#C2C200; stroke-width:0.000000; stroke-opacity:1;  stroke-linecap:round; stroke-linejoin:round;">
</svg:g>
<svg:g style="fill:#C2C200; fill-opacity:0.0;  stroke:#C2C200; stroke-width:2562.736960; stroke-opacity:1;  stroke-linecap:round; stroke-linejoin:round;">
<svg:path d="M2262271 19631 L2262271 2076586 "/>
<svg:path d="M2262271 2076586 L726064 2076586 "/>
<svg:path d="M726064 2076586 L726064 19631 "/>
<svg:path d="M726064 19631 L2262271 19631 "/>
<svg:g>
</svg:g>
<svg:g>
</svg:g>
<svg:g>
</svg:g>
<svg:g>
</svg:g>
<svg:g>
</svg:g>
<svg:g>
</svg:g>
<svg:g>
</svg:g>
<svg:g>
</svg:g>
<svg:g>
</svg:g>
<svg:g>
</svg:g>
<svg:g>
</svg:g>
<svg:g>
</svg:g>
<svg:g>
</svg:g>
<svg:g>
</svg:g>
<svg:g>
</svg:g>
<svg:g>
</svg:g>
<svg:g>
</svg:g>
<svg:g>
</svg:g>
<svg:g>
</svg:g>
<svg:g>
</svg:g>
<svg:g>
</svg:g>
<svg:g>
</svg:g>
<svg:g>
</svg:g>
<svg:g>
</svg:g>
<svg:g>
</svg:g>
<svg:g>
</svg:g>
<svg:g>
</svg:g>
<svg:g>
</svg:g>
<svg:g>
</svg:g>
</svg:g> 
</svg:g></svg:g></svg>
