<?xml version='1.0' encoding='ASCII' standalone='yes'?>
<svg xmlns:svg="http://www.w3.org/2000/svg" xmlns="http://www.w3.org/2000/svg" xmlns:xlink="http://www.w3.org/1999/xlink" version="1.1" width="297.0022mm" height="210.0072mm" viewBox="0.0000 0.0000 297.0022 210.0072">
<title>SVG Image created as USBI2C01-F_Fab.svg date 2023/07/05 15:12:45 </title>
  <desc>Image generated by PCBNEW </desc>
<g style="fill:#848484; fill-opacity:1.0000;stroke:#848484; stroke-opacity:1.0000; stroke-linecap:round; stroke-linejoin:round;" transform="translate(0 0) scale(1 1)">
</g>
<g style="fill:#848484; fill-opacity:0.0;  stroke:#848484; stroke-width:0.0000; stroke-opacity:1;  stroke-linecap:round; stroke-linejoin:round;">
</g>
<g style="fill:#848484; fill-opacity:0.01;  stroke:#848484; stroke-width:0.4779; stroke-opacity:1;  stroke-linecap:round; stroke-linejoin:round;">
<text x="131.0782" y="75.2287" textLength="37.5059" font-size="8.2126" lengthAdjust="spacingAndGlyphs" text-anchor="start" opacity="0.01" style="font-family:monospace">MA01-1</text>
<g class="stroked-text"><desc>MA01-1</desc>
<path d="M129.2973 74.9736 L129.2973 68.8142 "/>
<path d="M129.2973 68.8142 L127.2441 73.2137 "/>
<path d="M127.2441 73.2137 L125.1910 68.8142 "/>
<path d="M125.1910 68.8142 L125.1910 74.9736 "/>
<path d="M122.5512 73.2137 L119.6182 73.2137 "/>
<path d="M123.1379 74.9736 L121.0847 68.8142 "/>
<path d="M121.0847 68.8142 L119.0316 74.9736 "/>
<path d="M115.8052 68.8142 L115.2186 68.8142 "/>
<path d="M115.2186 68.8142 L114.6320 69.1075 "/>
<path d="M114.6320 69.1075 L114.3387 69.4008 "/>
<path d="M114.3387 69.4008 L114.0454 69.9874 "/>
<path d="M114.0454 69.9874 L113.7521 71.1606 "/>
<path d="M113.7521 71.1606 L113.7521 72.6271 "/>
<path d="M113.7521 72.6271 L114.0454 73.8004 "/>
<path d="M114.0454 73.8004 L114.3387 74.3870 "/>
<path d="M114.3387 74.3870 L114.6320 74.6803 "/>
<path d="M114.6320 74.6803 L115.2186 74.9736 "/>
<path d="M115.2186 74.9736 L115.8052 74.9736 "/>
<path d="M115.8052 74.9736 L116.3918 74.6803 "/>
<path d="M116.3918 74.6803 L116.6851 74.3870 "/>
<path d="M116.6851 74.3870 L116.9784 73.8004 "/>
<path d="M116.9784 73.8004 L117.2717 72.6271 "/>
<path d="M117.2717 72.6271 L117.2717 71.1606 "/>
<path d="M117.2717 71.1606 L116.9784 69.9874 "/>
<path d="M116.9784 69.9874 L116.6851 69.4008 "/>
<path d="M116.6851 69.4008 L116.3918 69.1075 "/>
<path d="M116.3918 69.1075 L115.8052 68.8142 "/>
<path d="M107.8860 74.9736 L111.4056 74.9736 "/>
<path d="M109.6458 74.9736 L109.6458 68.8142 "/>
<path d="M109.6458 68.8142 L110.2324 69.6941 "/>
<path d="M110.2324 69.6941 L110.8190 70.2807 "/>
<path d="M110.8190 70.2807 L111.4056 70.5740 "/>
<path d="M105.2462 72.6271 L100.5533 72.6271 "/>
<path d="M94.3939 74.9736 L97.9136 74.9736 "/>
<path d="M96.1537 74.9736 L96.1537 68.8142 "/>
<path d="M96.1537 68.8142 L96.7404 69.6941 "/>
<path d="M96.7404 69.6941 L97.3270 70.2807 "/>
<path d="M97.3270 70.2807 L97.9136 70.5740 "/>
</g><g transform="rotate(-90.000000 73.4996 75.9654)">
<text x="73.4996" y="79.0451" textLength="37.5059" font-size="8.2126" lengthAdjust="spacingAndGlyphs" text-anchor="start" opacity="0.01" style="font-family:monospace">MA03-2</text>
</g>
<g class="stroked-text"><desc>MA03-2</desc>
<path d="M70.6750 74.1845 L76.8344 74.1845 "/>
<path d="M76.8344 74.1845 L72.4348 72.1314 "/>
<path d="M72.4348 72.1314 L76.8344 70.0782 "/>
<path d="M76.8344 70.0782 L70.6750 70.0782 "/>
<path d="M72.4348 67.4385 L72.4348 64.5054 "/>
<path d="M70.6750 68.0251 L76.8344 65.9719 "/>
<path d="M76.8344 65.9719 L70.6750 63.9188 "/>
<path d="M76.8344 60.6924 L76.8344 60.1058 "/>
<path d="M76.8344 60.1058 L76.5411 59.5192 "/>
<path d="M76.5411 59.5192 L76.2478 59.2259 "/>
<path d="M76.2478 59.2259 L75.6612 58.9326 "/>
<path d="M75.6612 58.9326 L74.4880 58.6393 "/>
<path d="M74.4880 58.6393 L73.0214 58.6393 "/>
<path d="M73.0214 58.6393 L71.8482 58.9326 "/>
<path d="M71.8482 58.9326 L71.2616 59.2259 "/>
<path d="M71.2616 59.2259 L70.9683 59.5192 "/>
<path d="M70.9683 59.5192 L70.6750 60.1058 "/>
<path d="M70.6750 60.1058 L70.6750 60.6924 "/>
<path d="M70.6750 60.6924 L70.9683 61.2790 "/>
<path d="M70.9683 61.2790 L71.2616 61.5724 "/>
<path d="M71.2616 61.5724 L71.8482 61.8657 "/>
<path d="M71.8482 61.8657 L73.0214 62.1590 "/>
<path d="M73.0214 62.1590 L74.4880 62.1590 "/>
<path d="M74.4880 62.1590 L75.6612 61.8657 "/>
<path d="M75.6612 61.8657 L76.2478 61.5724 "/>
<path d="M76.2478 61.5724 L76.5411 61.2790 "/>
<path d="M76.5411 61.2790 L76.8344 60.6924 "/>
<path d="M76.8344 56.5862 L76.8344 52.7732 "/>
<path d="M76.8344 52.7732 L74.4880 54.8263 "/>
<path d="M74.4880 54.8263 L74.4880 53.9464 "/>
<path d="M74.4880 53.9464 L74.1947 53.3598 "/>
<path d="M74.1947 53.3598 L73.9014 53.0665 "/>
<path d="M73.9014 53.0665 L73.3147 52.7732 "/>
<path d="M73.3147 52.7732 L71.8482 52.7732 "/>
<path d="M71.8482 52.7732 L71.2616 53.0665 "/>
<path d="M71.2616 53.0665 L70.9683 53.3598 "/>
<path d="M70.9683 53.3598 L70.6750 53.9464 "/>
<path d="M70.6750 53.9464 L70.6750 55.7062 "/>
<path d="M70.6750 55.7062 L70.9683 56.2929 "/>
<path d="M70.9683 56.2929 L71.2616 56.5862 "/>
<path d="M73.0214 50.1334 L73.0214 45.4406 "/>
<path d="M76.2478 42.8008 L76.5411 42.5075 "/>
<path d="M76.5411 42.5075 L76.8344 41.9209 "/>
<path d="M76.8344 41.9209 L76.8344 40.4544 "/>
<path d="M76.8344 40.4544 L76.5411 39.8677 "/>
<path d="M76.5411 39.8677 L76.2478 39.5744 "/>
<path d="M76.2478 39.5744 L75.6612 39.2811 "/>
<path d="M75.6612 39.2811 L75.0746 39.2811 "/>
<path d="M75.0746 39.2811 L74.1947 39.5744 "/>
<path d="M74.1947 39.5744 L70.6750 43.0941 "/>
<path d="M70.6750 43.0941 L70.6750 39.2811 "/>
</g><text x="150.1604" y="91.1582" textLength="37.5059" font-size="8.2126" lengthAdjust="spacingAndGlyphs" text-anchor="end" opacity="0.01" style="font-family:monospace">MA03-1</text>
<g class="stroked-text"><desc>MA03-1</desc>
<path d="M186.5514 90.9031 L186.5514 84.7437 "/>
<path d="M186.5514 84.7437 L184.4983 89.1433 "/>
<path d="M184.4983 89.1433 L182.4451 84.7437 "/>
<path d="M182.4451 84.7437 L182.4451 90.9031 "/>
<path d="M179.8054 89.1433 L176.8723 89.1433 "/>
<path d="M180.3920 90.9031 L178.3388 84.7437 "/>
<path d="M178.3388 84.7437 L176.2857 90.9031 "/>
<path d="M173.0593 84.7437 L172.4727 84.7437 "/>
<path d="M172.4727 84.7437 L171.8861 85.0370 "/>
<path d="M171.8861 85.0370 L171.5928 85.3303 "/>
<path d="M171.5928 85.3303 L171.2995 85.9169 "/>
<path d="M171.2995 85.9169 L171.0062 87.0901 "/>
<path d="M171.0062 87.0901 L171.0062 88.5567 "/>
<path d="M171.0062 88.5567 L171.2995 89.7299 "/>
<path d="M171.2995 89.7299 L171.5928 90.3165 "/>
<path d="M171.5928 90.3165 L171.8861 90.6098 "/>
<path d="M171.8861 90.6098 L172.4727 90.9031 "/>
<path d="M172.4727 90.9031 L173.0593 90.9031 "/>
<path d="M173.0593 90.9031 L173.6460 90.6098 "/>
<path d="M173.6460 90.6098 L173.9393 90.3165 "/>
<path d="M173.9393 90.3165 L174.2326 89.7299 "/>
<path d="M174.2326 89.7299 L174.5259 88.5567 "/>
<path d="M174.5259 88.5567 L174.5259 87.0901 "/>
<path d="M174.5259 87.0901 L174.2326 85.9169 "/>
<path d="M174.2326 85.9169 L173.9393 85.3303 "/>
<path d="M173.9393 85.3303 L173.6460 85.0370 "/>
<path d="M173.6460 85.0370 L173.0593 84.7437 "/>
<path d="M168.9531 84.7437 L165.1401 84.7437 "/>
<path d="M165.1401 84.7437 L167.1932 87.0901 "/>
<path d="M167.1932 87.0901 L166.3133 87.0901 "/>
<path d="M166.3133 87.0901 L165.7267 87.3834 "/>
<path d="M165.7267 87.3834 L165.4334 87.6767 "/>
<path d="M165.4334 87.6767 L165.1401 88.2633 "/>
<path d="M165.1401 88.2633 L165.1401 89.7299 "/>
<path d="M165.1401 89.7299 L165.4334 90.3165 "/>
<path d="M165.4334 90.3165 L165.7267 90.6098 "/>
<path d="M165.7267 90.6098 L166.3133 90.9031 "/>
<path d="M166.3133 90.9031 L168.0731 90.9031 "/>
<path d="M168.0731 90.9031 L168.6598 90.6098 "/>
<path d="M168.6598 90.6098 L168.9531 90.3165 "/>
<path d="M162.5003 88.5567 L157.8075 88.5567 "/>
<path d="M151.6480 90.9031 L155.1677 90.9031 "/>
<path d="M153.4079 90.9031 L153.4079 84.7437 "/>
<path d="M153.4079 84.7437 L153.9945 85.6236 "/>
<path d="M153.9945 85.6236 L154.5811 86.2102 "/>
<path d="M154.5811 86.2102 L155.1677 86.5035 "/>
</g><g transform="rotate(-90.000000 179.6964 71.8171)">
<text x="179.6964" y="74.8968" textLength="37.5059" font-size="8.2126" lengthAdjust="spacingAndGlyphs" text-anchor="start" opacity="0.01" style="font-family:monospace">MA03-2</text>
</g>
<g class="stroked-text"><desc>MA03-2</desc>
<path d="M176.8718 70.0362 L183.0312 70.0362 "/>
<path d="M183.0312 70.0362 L178.6316 67.9830 "/>
<path d="M178.6316 67.9830 L183.0312 65.9299 "/>
<path d="M183.0312 65.9299 L176.8718 65.9299 "/>
<path d="M178.6316 63.2901 L178.6316 60.3571 "/>
<path d="M176.8718 63.8768 L183.0312 61.8236 "/>
<path d="M183.0312 61.8236 L176.8718 59.7705 "/>
<path d="M183.0312 56.5441 L183.0312 55.9575 "/>
<path d="M183.0312 55.9575 L182.7379 55.3709 "/>
<path d="M182.7379 55.3709 L182.4446 55.0776 "/>
<path d="M182.4446 55.0776 L181.8580 54.7843 "/>
<path d="M181.8580 54.7843 L180.6848 54.4910 "/>
<path d="M180.6848 54.4910 L179.2182 54.4910 "/>
<path d="M179.2182 54.4910 L178.0450 54.7843 "/>
<path d="M178.0450 54.7843 L177.4584 55.0776 "/>
<path d="M177.4584 55.0776 L177.1651 55.3709 "/>
<path d="M177.1651 55.3709 L176.8718 55.9575 "/>
<path d="M176.8718 55.9575 L176.8718 56.5441 "/>
<path d="M176.8718 56.5441 L177.1651 57.1307 "/>
<path d="M177.1651 57.1307 L177.4584 57.4240 "/>
<path d="M177.4584 57.4240 L178.0450 57.7173 "/>
<path d="M178.0450 57.7173 L179.2182 58.0107 "/>
<path d="M179.2182 58.0107 L180.6848 58.0107 "/>
<path d="M180.6848 58.0107 L181.8580 57.7173 "/>
<path d="M181.8580 57.7173 L182.4446 57.4240 "/>
<path d="M182.4446 57.4240 L182.7379 57.1307 "/>
<path d="M182.7379 57.1307 L183.0312 56.5441 "/>
<path d="M183.0312 52.4378 L183.0312 48.6249 "/>
<path d="M183.0312 48.6249 L180.6848 50.6780 "/>
<path d="M180.6848 50.6780 L180.6848 49.7981 "/>
<path d="M180.6848 49.7981 L180.3915 49.2115 "/>
<path d="M180.3915 49.2115 L180.0982 48.9182 "/>
<path d="M180.0982 48.9182 L179.5115 48.6249 "/>
<path d="M179.5115 48.6249 L178.0450 48.6249 "/>
<path d="M178.0450 48.6249 L177.4584 48.9182 "/>
<path d="M177.4584 48.9182 L177.1651 49.2115 "/>
<path d="M177.1651 49.2115 L176.8718 49.7981 "/>
<path d="M176.8718 49.7981 L176.8718 51.5579 "/>
<path d="M176.8718 51.5579 L177.1651 52.1445 "/>
<path d="M177.1651 52.1445 L177.4584 52.4378 "/>
<path d="M179.2182 45.9851 L179.2182 41.2922 "/>
<path d="M182.4446 38.6525 L182.7379 38.3592 "/>
<path d="M182.7379 38.3592 L183.0312 37.7726 "/>
<path d="M183.0312 37.7726 L183.0312 36.3060 "/>
<path d="M183.0312 36.3060 L182.7379 35.7194 "/>
<path d="M182.7379 35.7194 L182.4446 35.4261 "/>
<path d="M182.4446 35.4261 L181.8580 35.1328 "/>
<path d="M181.8580 35.1328 L181.2714 35.1328 "/>
<path d="M181.2714 35.1328 L180.3915 35.4261 "/>
<path d="M180.3915 35.4261 L176.8718 38.9458 "/>
<path d="M176.8718 38.9458 L176.8718 35.1328 "/>
</g><g transform="rotate(-90.000000 73.4996 131.5528)">
<text x="73.4996" y="134.6325" textLength="37.5059" font-size="8.2126" lengthAdjust="spacingAndGlyphs" text-anchor="start" opacity="0.01" style="font-family:monospace">MA05-2</text>
</g>
<g class="stroked-text"><desc>MA05-2</desc>
<path d="M70.6750 129.7719 L76.8344 129.7719 "/>
<path d="M76.8344 129.7719 L72.4348 127.7187 "/>
<path d="M72.4348 127.7187 L76.8344 125.6656 "/>
<path d="M76.8344 125.6656 L70.6750 125.6656 "/>
<path d="M72.4348 123.0259 L72.4348 120.0928 "/>
<path d="M70.6750 123.6125 L76.8344 121.5593 "/>
<path d="M76.8344 121.5593 L70.6750 119.5062 "/>
<path d="M76.8344 116.2798 L76.8344 115.6932 "/>
<path d="M76.8344 115.6932 L76.5411 115.1066 "/>
<path d="M76.5411 115.1066 L76.2478 114.8133 "/>
<path d="M76.2478 114.8133 L75.6612 114.5200 "/>
<path d="M75.6612 114.5200 L74.4880 114.2267 "/>
<path d="M74.4880 114.2267 L73.0214 114.2267 "/>
<path d="M73.0214 114.2267 L71.8482 114.5200 "/>
<path d="M71.8482 114.5200 L71.2616 114.8133 "/>
<path d="M71.2616 114.8133 L70.9683 115.1066 "/>
<path d="M70.9683 115.1066 L70.6750 115.6932 "/>
<path d="M70.6750 115.6932 L70.6750 116.2798 "/>
<path d="M70.6750 116.2798 L70.9683 116.8664 "/>
<path d="M70.9683 116.8664 L71.2616 117.1597 "/>
<path d="M71.2616 117.1597 L71.8482 117.4530 "/>
<path d="M71.8482 117.4530 L73.0214 117.7464 "/>
<path d="M73.0214 117.7464 L74.4880 117.7464 "/>
<path d="M74.4880 117.7464 L75.6612 117.4530 "/>
<path d="M75.6612 117.4530 L76.2478 117.1597 "/>
<path d="M76.2478 117.1597 L76.5411 116.8664 "/>
<path d="M76.5411 116.8664 L76.8344 116.2798 "/>
<path d="M76.8344 108.6539 L76.8344 111.5869 "/>
<path d="M76.8344 111.5869 L73.9014 111.8802 "/>
<path d="M73.9014 111.8802 L74.1947 111.5869 "/>
<path d="M74.1947 111.5869 L74.4880 111.0003 "/>
<path d="M74.4880 111.0003 L74.4880 109.5338 "/>
<path d="M74.4880 109.5338 L74.1947 108.9472 "/>
<path d="M74.1947 108.9472 L73.9014 108.6539 "/>
<path d="M73.9014 108.6539 L73.3147 108.3606 "/>
<path d="M73.3147 108.3606 L71.8482 108.3606 "/>
<path d="M71.8482 108.3606 L71.2616 108.6539 "/>
<path d="M71.2616 108.6539 L70.9683 108.9472 "/>
<path d="M70.9683 108.9472 L70.6750 109.5338 "/>
<path d="M70.6750 109.5338 L70.6750 111.0003 "/>
<path d="M70.6750 111.0003 L70.9683 111.5869 "/>
<path d="M70.9683 111.5869 L71.2616 111.8802 "/>
<path d="M73.0214 105.7208 L73.0214 101.0279 "/>
<path d="M76.2478 98.3882 L76.5411 98.0949 "/>
<path d="M76.5411 98.0949 L76.8344 97.5083 "/>
<path d="M76.8344 97.5083 L76.8344 96.0418 "/>
<path d="M76.8344 96.0418 L76.5411 95.4551 "/>
<path d="M76.5411 95.4551 L76.2478 95.1618 "/>
<path d="M76.2478 95.1618 L75.6612 94.8685 "/>
<path d="M75.6612 94.8685 L75.0746 94.8685 "/>
<path d="M75.0746 94.8685 L74.1947 95.1618 "/>
<path d="M74.1947 95.1618 L70.6750 98.6815 "/>
<path d="M70.6750 98.6815 L70.6750 94.8685 "/>
</g><text x="148.5011" y="6.5326" textLength="37.5059" font-size="8.2126" lengthAdjust="spacingAndGlyphs" text-anchor="end" opacity="0.01" style="font-family:monospace">MA05-2</text>
<g class="stroked-text"><desc>MA05-2</desc>
<path d="M184.8921 6.2775 L184.8921 0.1181 "/>
<path d="M184.8921 0.1181 L182.8389 4.5177 "/>
<path d="M182.8389 4.5177 L180.7858 0.1181 "/>
<path d="M180.7858 0.1181 L180.7858 6.2775 "/>
<path d="M178.1460 4.5177 L175.2130 4.5177 "/>
<path d="M178.7327 6.2775 L176.6795 0.1181 "/>
<path d="M176.6795 0.1181 L174.6264 6.2775 "/>
<path d="M171.4000 0.1181 L170.8134 0.1181 "/>
<path d="M170.8134 0.1181 L170.2268 0.4114 "/>
<path d="M170.2268 0.4114 L169.9335 0.7047 "/>
<path d="M169.9335 0.7047 L169.6402 1.2913 "/>
<path d="M169.6402 1.2913 L169.3469 2.4645 "/>
<path d="M169.3469 2.4645 L169.3469 3.9311 "/>
<path d="M169.3469 3.9311 L169.6402 5.1043 "/>
<path d="M169.6402 5.1043 L169.9335 5.6909 "/>
<path d="M169.9335 5.6909 L170.2268 5.9842 "/>
<path d="M170.2268 5.9842 L170.8134 6.2775 "/>
<path d="M170.8134 6.2775 L171.4000 6.2775 "/>
<path d="M171.4000 6.2775 L171.9866 5.9842 "/>
<path d="M171.9866 5.9842 L172.2799 5.6909 "/>
<path d="M172.2799 5.6909 L172.5732 5.1043 "/>
<path d="M172.5732 5.1043 L172.8665 3.9311 "/>
<path d="M172.8665 3.9311 L172.8665 2.4645 "/>
<path d="M172.8665 2.4645 L172.5732 1.2913 "/>
<path d="M172.5732 1.2913 L172.2799 0.7047 "/>
<path d="M172.2799 0.7047 L171.9866 0.4114 "/>
<path d="M171.9866 0.4114 L171.4000 0.1181 "/>
<path d="M163.7741 0.1181 L166.7071 0.1181 "/>
<path d="M166.7071 0.1181 L167.0004 3.0512 "/>
<path d="M167.0004 3.0512 L166.7071 2.7579 "/>
<path d="M166.7071 2.7579 L166.1205 2.4645 "/>
<path d="M166.1205 2.4645 L164.6540 2.4645 "/>
<path d="M164.6540 2.4645 L164.0674 2.7579 "/>
<path d="M164.0674 2.7579 L163.7741 3.0512 "/>
<path d="M163.7741 3.0512 L163.4808 3.6378 "/>
<path d="M163.4808 3.6378 L163.4808 5.1043 "/>
<path d="M163.4808 5.1043 L163.7741 5.6909 "/>
<path d="M163.7741 5.6909 L164.0674 5.9842 "/>
<path d="M164.0674 5.9842 L164.6540 6.2775 "/>
<path d="M164.6540 6.2775 L166.1205 6.2775 "/>
<path d="M166.1205 6.2775 L166.7071 5.9842 "/>
<path d="M166.7071 5.9842 L167.0004 5.6909 "/>
<path d="M160.8410 3.9311 L156.1481 3.9311 "/>
<path d="M153.5084 0.7047 L153.2151 0.4114 "/>
<path d="M153.2151 0.4114 L152.6285 0.1181 "/>
<path d="M152.6285 0.1181 L151.1619 0.1181 "/>
<path d="M151.1619 0.1181 L150.5753 0.4114 "/>
<path d="M150.5753 0.4114 L150.2820 0.7047 "/>
<path d="M150.2820 0.7047 L149.9887 1.2913 "/>
<path d="M149.9887 1.2913 L149.9887 1.8779 "/>
<path d="M149.9887 1.8779 L150.2820 2.7579 "/>
<path d="M150.2820 2.7579 L153.8017 6.2775 "/>
<path d="M153.8017 6.2775 L149.9887 6.2775 "/>
</g></g>
<g style="fill:#848484; fill-opacity:0.01;  stroke:#848484; stroke-width:0.4885; stroke-opacity:1;  stroke-linecap:round; stroke-linejoin:round;">
<text x="168.4130" y="201.0002" textLength="29.2715" font-size="8.1984" lengthAdjust="spacingAndGlyphs" text-anchor="start" opacity="0.01" style="font-family:monospace">USB_B</text>
<g class="stroked-text"><desc>USB_B</desc>
<path d="M166.6276 194.5962 L166.6276 199.5738 "/>
<path d="M166.6276 199.5738 L166.3348 200.1594 "/>
<path d="M166.3348 200.1594 L166.0420 200.4522 "/>
<path d="M166.0420 200.4522 L165.4564 200.7450 "/>
<path d="M165.4564 200.7450 L164.2852 200.7450 "/>
<path d="M164.2852 200.7450 L163.6996 200.4522 "/>
<path d="M163.6996 200.4522 L163.4068 200.1594 "/>
<path d="M163.4068 200.1594 L163.1140 199.5738 "/>
<path d="M163.1140 199.5738 L163.1140 194.5962 "/>
<path d="M160.4788 200.4522 L159.6004 200.7450 "/>
<path d="M159.6004 200.7450 L158.1364 200.7450 "/>
<path d="M158.1364 200.7450 L157.5508 200.4522 "/>
<path d="M157.5508 200.4522 L157.2580 200.1594 "/>
<path d="M157.2580 200.1594 L156.9652 199.5738 "/>
<path d="M156.9652 199.5738 L156.9652 198.9882 "/>
<path d="M156.9652 198.9882 L157.2580 198.4026 "/>
<path d="M157.2580 198.4026 L157.5508 198.1098 "/>
<path d="M157.5508 198.1098 L158.1364 197.8170 "/>
<path d="M158.1364 197.8170 L159.3076 197.5242 "/>
<path d="M159.3076 197.5242 L159.8932 197.2314 "/>
<path d="M159.8932 197.2314 L160.1860 196.9386 "/>
<path d="M160.1860 196.9386 L160.4788 196.3530 "/>
<path d="M160.4788 196.3530 L160.4788 195.7674 "/>
<path d="M160.4788 195.7674 L160.1860 195.1818 "/>
<path d="M160.1860 195.1818 L159.8932 194.8890 "/>
<path d="M159.8932 194.8890 L159.3076 194.5962 "/>
<path d="M159.3076 194.5962 L157.8436 194.5962 "/>
<path d="M157.8436 194.5962 L156.9652 194.8890 "/>
<path d="M152.2804 197.5242 L151.4020 197.8170 "/>
<path d="M151.4020 197.8170 L151.1092 198.1098 "/>
<path d="M151.1092 198.1098 L150.8164 198.6954 "/>
<path d="M150.8164 198.6954 L150.8164 199.5738 "/>
<path d="M150.8164 199.5738 L151.1092 200.1594 "/>
<path d="M151.1092 200.1594 L151.4020 200.4522 "/>
<path d="M151.4020 200.4522 L151.9876 200.7450 "/>
<path d="M151.9876 200.7450 L154.3300 200.7450 "/>
<path d="M154.3300 200.7450 L154.3300 194.5962 "/>
<path d="M154.3300 194.5962 L152.2804 194.5962 "/>
<path d="M152.2804 194.5962 L151.6948 194.8890 "/>
<path d="M151.6948 194.8890 L151.4020 195.1818 "/>
<path d="M151.4020 195.1818 L151.1092 195.7674 "/>
<path d="M151.1092 195.7674 L151.1092 196.3530 "/>
<path d="M151.1092 196.3530 L151.4020 196.9386 "/>
<path d="M151.4020 196.9386 L151.6948 197.2314 "/>
<path d="M151.6948 197.2314 L152.2804 197.5242 "/>
<path d="M152.2804 197.5242 L154.3300 197.5242 "/>
<path d="M149.6452 201.3306 L144.9604 201.3306 "/>
<path d="M141.4468 197.5242 L140.5684 197.8170 "/>
<path d="M140.5684 197.8170 L140.2756 198.1098 "/>
<path d="M140.2756 198.1098 L139.9828 198.6954 "/>
<path d="M139.9828 198.6954 L139.9828 199.5738 "/>
<path d="M139.9828 199.5738 L140.2756 200.1594 "/>
<path d="M140.2756 200.1594 L140.5684 200.4522 "/>
<path d="M140.5684 200.4522 L141.1540 200.7450 "/>
<path d="M141.1540 200.7450 L143.4964 200.7450 "/>
<path d="M143.4964 200.7450 L143.4964 194.5962 "/>
<path d="M143.4964 194.5962 L141.4468 194.5962 "/>
<path d="M141.4468 194.5962 L140.8612 194.8890 "/>
<path d="M140.8612 194.8890 L140.5684 195.1818 "/>
<path d="M140.5684 195.1818 L140.2756 195.7674 "/>
<path d="M140.2756 195.7674 L140.2756 196.3530 "/>
<path d="M140.2756 196.3530 L140.5684 196.9386 "/>
<path d="M140.5684 196.9386 L140.8612 197.2314 "/>
<path d="M140.8612 197.2314 L141.4468 197.5242 "/>
<path d="M141.4468 197.5242 L143.4964 197.5242 "/>
</g></g>
<g style="fill:#848484; fill-opacity:1.0000;  stroke:#848484; stroke-width:0.0000; stroke-opacity:1;  stroke-linecap:round; stroke-linejoin:round;">
<path style="fill:#848484; fill-opacity:1.0000;  stroke:#848484; stroke-width:0.0000; stroke-opacity:1;  stroke-linecap:round; stroke-linejoin:round;fill-rule:evenodd;" d="M 123.1134,58.2106 125.7683,58.2106 125.7683,55.5557 123.1134,55.5557 Z"/> 
<path style="fill:#848484; fill-opacity:1.0000;  stroke:#848484; stroke-width:0.0000; stroke-opacity:1;  stroke-linecap:round; stroke-linejoin:round;fill-rule:evenodd;" d="M 100.7125,83.9302 103.3675,83.9302 103.3675,81.2753 100.7125,81.2753 Z"/> 
<path style="fill:#848484; fill-opacity:1.0000;  stroke:#848484; stroke-width:0.0000; stroke-opacity:1;  stroke-linecap:round; stroke-linejoin:round;fill-rule:evenodd;" d="M 87.4379,57.3810 90.0929,57.3810 90.0929,54.7261 87.4379,54.7261 Z"/> 
<path style="fill:#848484; fill-opacity:1.0000;  stroke:#848484; stroke-width:0.0000; stroke-opacity:1;  stroke-linecap:round; stroke-linejoin:round;fill-rule:evenodd;" d="M 100.7125,70.6556 103.3675,70.6556 103.3675,68.0007 100.7125,68.0007 Z"/> 
<path style="fill:#848484; fill-opacity:1.0000;  stroke:#848484; stroke-width:0.0000; stroke-opacity:1;  stroke-linecap:round; stroke-linejoin:round;fill-rule:evenodd;" d="M 87.4379,83.9302 90.0929,83.9302 90.0929,81.2753 87.4379,81.2753 Z"/> 
<path style="fill:#848484; fill-opacity:1.0000;  stroke:#848484; stroke-width:0.0000; stroke-opacity:1;  stroke-linecap:round; stroke-linejoin:round;fill-rule:evenodd;" d="M 87.4379,70.6556 90.0929,70.6556 90.0929,68.0007 87.4379,68.0007 Z"/> 
<path style="fill:#848484; fill-opacity:1.0000;  stroke:#848484; stroke-width:0.0000; stroke-opacity:1;  stroke-linecap:round; stroke-linejoin:round;fill-rule:evenodd;" d="M 100.7125,57.3810 103.3675,57.3810 103.3675,54.7261 100.7125,54.7261 Z"/> 
<path style="fill:#848484; fill-opacity:1.0000;  stroke:#848484; stroke-width:0.0000; stroke-opacity:1;  stroke-linecap:round; stroke-linejoin:round;fill-rule:evenodd;" d="M 155.4703,104.6717 158.1252,104.6717 158.1252,102.0168 155.4703,102.0168 Z"/> 
<path style="fill:#848484; fill-opacity:1.0000;  stroke:#848484; stroke-width:0.0000; stroke-opacity:1;  stroke-linecap:round; stroke-linejoin:round;fill-rule:evenodd;" d="M 182.0195,104.6717 184.6744,104.6717 184.6744,102.0168 182.0195,102.0168 Z"/> 
<path style="fill:#848484; fill-opacity:1.0000;  stroke:#848484; stroke-width:0.0000; stroke-opacity:1;  stroke-linecap:round; stroke-linejoin:round;fill-rule:evenodd;" d="M 193.6347,66.5073 196.2897,66.5073 196.2897,63.8523 193.6347,63.8523 Z"/> 
<path style="fill:#848484; fill-opacity:1.0000;  stroke:#848484; stroke-width:0.0000; stroke-opacity:1;  stroke-linecap:round; stroke-linejoin:round;fill-rule:evenodd;" d="M 193.6347,53.2327 196.2897,53.2327 196.2897,50.5777 193.6347,50.5777 Z"/> 
<path style="fill:#848484; fill-opacity:1.0000;  stroke:#848484; stroke-width:0.0000; stroke-opacity:1;  stroke-linecap:round; stroke-linejoin:round;fill-rule:evenodd;" d="M 206.9093,53.2327 209.5643,53.2327 209.5643,50.5777 206.9093,50.5777 Z"/> 
<path style="fill:#848484; fill-opacity:1.0000;  stroke:#848484; stroke-width:0.0000; stroke-opacity:1;  stroke-linecap:round; stroke-linejoin:round;fill-rule:evenodd;" d="M 206.9093,66.5073 209.5643,66.5073 209.5643,63.8523 206.9093,63.8523 Z"/> 
<path style="fill:#848484; fill-opacity:1.0000;  stroke:#848484; stroke-width:0.0000; stroke-opacity:1;  stroke-linecap:round; stroke-linejoin:round;fill-rule:evenodd;" d="M 193.6347,79.7819 196.2897,79.7819 196.2897,77.1269 193.6347,77.1269 Z"/> 
<path style="fill:#848484; fill-opacity:1.0000;  stroke:#848484; stroke-width:0.0000; stroke-opacity:1;  stroke-linecap:round; stroke-linejoin:round;fill-rule:evenodd;" d="M 206.9093,79.7819 209.5643,79.7819 209.5643,77.1269 206.9093,77.1269 Z"/> 
<path style="fill:#848484; fill-opacity:1.0000;  stroke:#848484; stroke-width:0.0000; stroke-opacity:1;  stroke-linecap:round; stroke-linejoin:round;fill-rule:evenodd;" d="M 87.4379,132.8803 90.0929,132.8803 90.0929,130.2253 87.4379,130.2253 Z"/> 
<path style="fill:#848484; fill-opacity:1.0000;  stroke:#848484; stroke-width:0.0000; stroke-opacity:1;  stroke-linecap:round; stroke-linejoin:round;fill-rule:evenodd;" d="M 100.7125,119.6057 103.3675,119.6057 103.3675,116.9507 100.7125,116.9507 Z"/> 
<path style="fill:#848484; fill-opacity:1.0000;  stroke:#848484; stroke-width:0.0000; stroke-opacity:1;  stroke-linecap:round; stroke-linejoin:round;fill-rule:evenodd;" d="M 87.4379,106.3311 90.0929,106.3311 90.0929,103.6761 87.4379,103.6761 Z"/> 
<path style="fill:#848484; fill-opacity:1.0000;  stroke:#848484; stroke-width:0.0000; stroke-opacity:1;  stroke-linecap:round; stroke-linejoin:round;fill-rule:evenodd;" d="M 100.7125,132.8803 103.3675,132.8803 103.3675,130.2253 100.7125,130.2253 Z"/> 
<path style="fill:#848484; fill-opacity:1.0000;  stroke:#848484; stroke-width:0.0000; stroke-opacity:1;  stroke-linecap:round; stroke-linejoin:round;fill-rule:evenodd;" d="M 100.7125,146.1549 103.3675,146.1549 103.3675,143.4999 100.7125,143.4999 Z"/> 
<path style="fill:#848484; fill-opacity:1.0000;  stroke:#848484; stroke-width:0.0000; stroke-opacity:1;  stroke-linecap:round; stroke-linejoin:round;fill-rule:evenodd;" d="M 87.4379,119.6057 90.0929,119.6057 90.0929,116.9507 87.4379,116.9507 Z"/> 
<path style="fill:#848484; fill-opacity:1.0000;  stroke:#848484; stroke-width:0.0000; stroke-opacity:1;  stroke-linecap:round; stroke-linejoin:round;fill-rule:evenodd;" d="M 100.7125,159.4295 103.3675,159.4295 103.3675,156.7745 100.7125,156.7745 Z"/> 
<path style="fill:#848484; fill-opacity:1.0000;  stroke:#848484; stroke-width:0.0000; stroke-opacity:1;  stroke-linecap:round; stroke-linejoin:round;fill-rule:evenodd;" d="M 100.7125,106.3311 103.3675,106.3311 103.3675,103.6761 100.7125,103.6761 Z"/> 
<path style="fill:#848484; fill-opacity:1.0000;  stroke:#848484; stroke-width:0.0000; stroke-opacity:1;  stroke-linecap:round; stroke-linejoin:round;fill-rule:evenodd;" d="M 87.4379,159.4295 90.0929,159.4295 90.0929,156.7745 87.4379,156.7745 Z"/> 
<path style="fill:#848484; fill-opacity:1.0000;  stroke:#848484; stroke-width:0.0000; stroke-opacity:1;  stroke-linecap:round; stroke-linejoin:round;fill-rule:evenodd;" d="M 87.4379,146.1549 90.0929,146.1549 90.0929,143.4999 87.4379,143.4999 Z"/> 
<path style="fill:#848484; fill-opacity:1.0000;  stroke:#848484; stroke-width:0.0000; stroke-opacity:1;  stroke-linecap:round; stroke-linejoin:round;fill-rule:evenodd;" d="M 160.4482,33.3208 163.1032,33.3208 163.1032,30.6658 160.4482,30.6658 Z"/> 
<path style="fill:#848484; fill-opacity:1.0000;  stroke:#848484; stroke-width:0.0000; stroke-opacity:1;  stroke-linecap:round; stroke-linejoin:round;fill-rule:evenodd;" d="M 160.4482,20.0462 163.1032,20.0462 163.1032,17.3912 160.4482,17.3912 Z"/> 
<path style="fill:#848484; fill-opacity:1.0000;  stroke:#848484; stroke-width:0.0000; stroke-opacity:1;  stroke-linecap:round; stroke-linejoin:round;fill-rule:evenodd;" d="M 173.7228,33.3208 176.3778,33.3208 176.3778,30.6658 173.7228,30.6658 Z"/> 
<path style="fill:#848484; fill-opacity:1.0000;  stroke:#848484; stroke-width:0.0000; stroke-opacity:1;  stroke-linecap:round; stroke-linejoin:round;fill-rule:evenodd;" d="M 120.6244,33.3208 123.2794,33.3208 123.2794,30.6658 120.6244,30.6658 Z"/> 
<path style="fill:#848484; fill-opacity:1.0000;  stroke:#848484; stroke-width:0.0000; stroke-opacity:1;  stroke-linecap:round; stroke-linejoin:round;fill-rule:evenodd;" d="M 147.1736,33.3208 149.8286,33.3208 149.8286,30.6658 147.1736,30.6658 Z"/> 
<path style="fill:#848484; fill-opacity:1.0000;  stroke:#848484; stroke-width:0.0000; stroke-opacity:1;  stroke-linecap:round; stroke-linejoin:round;fill-rule:evenodd;" d="M 173.7228,20.0462 176.3778,20.0462 176.3778,17.3912 173.7228,17.3912 Z"/> 
<path style="fill:#848484; fill-opacity:1.0000;  stroke:#848484; stroke-width:0.0000; stroke-opacity:1;  stroke-linecap:round; stroke-linejoin:round;fill-rule:evenodd;" d="M 133.8990,33.3208 136.5540,33.3208 136.5540,30.6658 133.8990,30.6658 Z"/> 
<path style="fill:#848484; fill-opacity:1.0000;  stroke:#848484; stroke-width:0.0000; stroke-opacity:1;  stroke-linecap:round; stroke-linejoin:round;fill-rule:evenodd;" d="M 147.1736,20.0462 149.8286,20.0462 149.8286,17.3912 147.1736,17.3912 Z"/> 
<path style="fill:#848484; fill-opacity:1.0000;  stroke:#848484; stroke-width:0.0000; stroke-opacity:1;  stroke-linecap:round; stroke-linejoin:round;fill-rule:evenodd;" d="M 120.6244,20.0462 123.2794,20.0462 123.2794,17.3912 120.6244,17.3912 Z"/> 
<path style="fill:#848484; fill-opacity:1.0000;  stroke:#848484; stroke-width:0.0000; stroke-opacity:1;  stroke-linecap:round; stroke-linejoin:round;fill-rule:evenodd;" d="M 133.8990,20.0462 136.5540,20.0462 136.5540,17.3912 133.8990,17.3912 Z"/> 
<path style="fill:#848484; fill-opacity:1.0000;  stroke:#848484; stroke-width:0.0000; stroke-opacity:1;  stroke-linecap:round; stroke-linejoin:round;fill-rule:evenodd;" d="M 163.7669,84.7598 166.4218,84.7598 166.4218,82.1049 163.7669,82.1049 Z"/> 
<g>
</g>
<g>
</g>
<g>
</g>
<g>
</g>
<g>
</g>
<g>
</g>
<g>
</g>
<g>
</g>
<g>
</g>
<g>
</g>
<g>
</g>
<g>
</g>
<g>
</g>
<g>
</g>
<g>
</g>
<g>
</g>
<g>
</g>
<g>
</g>
<g>
</g>
<g>
</g>
<g>
</g>
<g>
</g>
<g>
</g>
<g>
</g>
<g>
</g>
<g>
</g>
<g>
</g>
<g>
</g>
<g>
</g>
</g> 
<svg:g><svg:g><svg:title>SVG Image created as USBI2C01-Edge_Cuts.svg date 2023/07/05 15:12:45 </svg:title>
  <svg:desc>Image generated by PCBNEW </svg:desc>
<svg:g style="fill:#C2C200; fill-opacity:1.0000;stroke:#C2C200; stroke-opacity:1.0000; stroke-linecap:round; stroke-linejoin:round;" transform="translate(0 0) scale(1 1)">
</svg:g>
<svg:g style="fill:#C2C200; fill-opacity:0.0;  stroke:#C2C200; stroke-width:0.0000; stroke-opacity:1;  stroke-linecap:round; stroke-linejoin:round;">
</svg:g>
<svg:g style="fill:#C2C200; fill-opacity:0.0;  stroke:#C2C200; stroke-width:0.2613; stroke-opacity:1;  stroke-linecap:round; stroke-linejoin:round;">
<svg:path d="M226.8212 0.1343 L226.8212 209.8729 "/>
<svg:path d="M226.8212 209.8729 L70.1810 209.8729 "/>
<svg:path d="M70.1810 209.8729 L70.1810 0.1343 "/>
<svg:path d="M70.1810 0.1343 L226.8212 0.1343 "/>
<svg:g>
</svg:g>
<svg:g>
</svg:g>
<svg:g>
</svg:g>
<svg:g>
</svg:g>
<svg:g>
</svg:g>
<svg:g>
</svg:g>
<svg:g>
</svg:g>
<svg:g>
</svg:g>
<svg:g>
</svg:g>
<svg:g>
</svg:g>
<svg:g>
</svg:g>
<svg:g>
</svg:g>
<svg:g>
</svg:g>
<svg:g>
</svg:g>
<svg:g>
</svg:g>
<svg:g>
</svg:g>
<svg:g>
</svg:g>
<svg:g>
</svg:g>
<svg:g>
</svg:g>
<svg:g>
</svg:g>
<svg:g>
</svg:g>
<svg:g>
</svg:g>
<svg:g>
</svg:g>
<svg:g>
</svg:g>
<svg:g>
</svg:g>
<svg:g>
</svg:g>
<svg:g>
</svg:g>
<svg:g>
</svg:g>
<svg:g>
</svg:g>
</svg:g> 
</svg:g></svg:g></svg>
