<?xml version='1.0' encoding='ASCII' standalone='yes'?>
<svg xmlns:svg="http://www.w3.org/2000/svg" xmlns="http://www.w3.org/2000/svg" xmlns:xlink="http://www.w3.org/1999/xlink" version="1.1" width="29.700220cm" height="21.000720cm" viewBox="0 0 2970022 2100072">
<title>SVG Picture created as USBI2C01-B_Fab.svg date 2023/05/28 09:26:49 </title>
  <desc>Picture generated by PCBNEW </desc>
<g style="fill:#000084; fill-opacity:1.000000;stroke:#000084; stroke-opacity:1.000000; stroke-linecap:round; stroke-linejoin:round;" transform="translate(0 0) scale(1 1)">
</g>
<g style="fill:#000084; fill-opacity:0.0;  stroke:#000084; stroke-width:0.000000; stroke-opacity:1;  stroke-linecap:round; stroke-linejoin:round;">
</g>
<g style="fill:#000084; fill-opacity:0.01;  stroke:#000084; stroke-width:4885.053009; stroke-opacity:1;  stroke-linecap:round; stroke-linejoin:round;">
<g transform="rotate(-90.000000 1684130.020905 1589316.656712)">
<text x="1684130.020905" y="1620060.631626" transform="scale(-1 1) translate(-3368260.041810 0)" textLength="310367.687024" font-size="81983.933104" lengthAdjust="spacingAndGlyphs" text-anchor="end" opacity="0.01" style="font-family:monospace">750mA</text>
</g>
<g class="stroked-text"><desc>750mA</desc>
<path d="M1650458 1284557 L1650458 1325549 L1711945 1299197 "/>
<path d="M1650458 1378253 L1650458 1348973 L1679738 1346045 L1676810 1348973 L1673882 1354829 L1673882 1369469 L1676810 1375325 L1679738 1378253 L1685593 1381181 L1700233 1381181 L1706089 1378253 L1709017 1375325 L1711945 1369469 L1711945 1354829 L1709017 1348973 L1706089 1346045 "/>
<path d="M1650458 1419245 L1650458 1425101 L1653386 1430957 L1656314 1433885 L1662170 1436813 L1673882 1439741 L1688521 1439741 L1700233 1436813 L1706089 1433885 L1709017 1430957 L1711945 1425101 L1711945 1419245 L1709017 1413389 L1706089 1410461 L1700233 1407533 L1688521 1404605 L1673882 1404605 L1662170 1407533 L1656314 1410461 L1653386 1413389 L1650458 1419245 "/>
<path d="M1711945 1466093 L1670953 1466093 "/>
<path d="M1676810 1466093 L1673882 1469021 L1670953 1474877 L1670953 1483661 L1673882 1489517 L1679738 1492445 L1711945 1492445 "/>
<path d="M1679738 1492445 L1673882 1495373 L1670953 1501229 L1670953 1510013 L1673882 1515869 L1679738 1518797 L1711945 1518797 "/>
<path d="M1694378 1545149 L1694378 1574429 "/>
<path d="M1711945 1539293 L1650458 1559789 L1711945 1580285 "/>
</g><g transform="rotate(-90.000000 1310781.879946 776247.371958)">
<text x="1310781.879946" y="806991.346872" transform="scale(-1 1) translate(-2621563.759892 0)" textLength="160545.318799" font-size="81983.933104" lengthAdjust="spacingAndGlyphs" text-anchor="start" opacity="0.01" style="font-family:monospace">4k7</text>
</g>
<g class="stroked-text"><desc>4k7</desc>
<path d="M1297605 820414 L1338597 820414 "/>
<path d="M1274181 805774 L1318101 791134 L1318101 829198 "/>
<path d="M1338597 852622 L1277109 852622 "/>
<path d="M1315173 858478 L1338597 876046 "/>
<path d="M1297605 876046 L1321029 852622 "/>
<path d="M1277109 896542 L1277109 937534 L1338597 911182 "/>
</g><text x="1186332.499627" y="1379458.496342" transform="scale(-1 1) translate(-2372664.999253 0)" textLength="230817.239062" font-size="81983.933104" lengthAdjust="spacingAndGlyphs" text-anchor="start" opacity="0.01" style="font-family:monospace">470R</text>
<g class="stroked-text"><desc>470R</desc>
<path d="M1142165 1335538 L1142165 1376530 "/>
<path d="M1156805 1312114 L1171445 1356034 L1133381 1356034 "/>
<path d="M1115813 1315042 L1074821 1315042 L1101173 1376530 "/>
<path d="M1039685 1315042 L1033829 1315042 L1027973 1317970 L1025045 1320898 L1022117 1326754 L1019189 1338466 L1019189 1353106 L1022117 1364818 L1025045 1370674 L1027973 1373602 L1033829 1376530 L1039685 1376530 L1045541 1373602 L1048469 1370674 L1051397 1364818 L1054325 1353106 L1054325 1338466 L1051397 1326754 L1048469 1320898 L1045541 1317970 L1039685 1315042 "/>
<path d="M957701 1376530 L978197 1347250 "/>
<path d="M992837 1376530 L992837 1315042 L969413 1315042 L963557 1317970 L960629 1320898 L957701 1326754 L957701 1335538 L960629 1341394 L963557 1344322 L969413 1347250 L992837 1347250 "/>
</g><text x="1186332.499627" y="1470721.375243" transform="scale(-1 1) translate(-2372664.999253 0)" textLength="230817.239062" font-size="81983.933104" lengthAdjust="spacingAndGlyphs" text-anchor="start" opacity="0.01" style="font-family:monospace">470R</text>
<g class="stroked-text"><desc>470R</desc>
<path d="M1142165 1426801 L1142165 1467793 "/>
<path d="M1156805 1403377 L1171445 1447297 L1133381 1447297 "/>
<path d="M1115813 1406305 L1074821 1406305 L1101173 1467793 "/>
<path d="M1039685 1406305 L1033829 1406305 L1027973 1409233 L1025045 1412161 L1022117 1418017 L1019189 1429729 L1019189 1444369 L1022117 1456081 L1025045 1461937 L1027973 1464865 L1033829 1467793 L1039685 1467793 L1045541 1464865 L1048469 1461937 L1051397 1456081 L1054325 1444369 L1054325 1429729 L1051397 1418017 L1048469 1412161 L1045541 1409233 L1039685 1406305 "/>
<path d="M957701 1467793 L978197 1438513 "/>
<path d="M992837 1467793 L992837 1406305 L969413 1406305 L963557 1409233 L960629 1412161 L957701 1418017 L957701 1426801 L960629 1432657 L963557 1435585 L969413 1438513 L992837 1438513 "/>
</g></g>
<g style="fill:#000084; fill-opacity:0.01;  stroke:#000084; stroke-width:7839.331044; stroke-opacity:1;  stroke-linecap:round; stroke-linejoin:round;">
<text x="1800282.775870" y="1353418.120054" transform="scale(-1 1) translate(-3600565.551740 0)" textLength="135503.986860" font-size="69682.925190" lengthAdjust="spacingAndGlyphs" text-anchor="middle" opacity="0.01" style="font-family:monospace">1uF</text>
<g class="stroked-text"><desc>1uF</desc>
<path d="M1831391 1350929 L1861255 1350929 "/>
<path d="M1846323 1350929 L1846323 1298667 L1851300 1306133 L1856277 1311110 L1861255 1313599 "/>
<path d="M1786595 1316087 L1786595 1350929 "/>
<path d="M1808993 1316087 L1808993 1343463 L1806504 1348440 L1801527 1350929 L1794061 1350929 L1789083 1348440 L1786595 1345952 "/>
<path d="M1744287 1323553 L1761708 1323553 "/>
<path d="M1761708 1350929 L1761708 1298667 L1736821 1298667 "/>
</g></g>
<g style="fill:#000084; fill-opacity:0.01;  stroke:#000084; stroke-width:4180.976557; stroke-opacity:1;  stroke-linecap:round; stroke-linejoin:round;">
<text x="1800282.775870" y="1428153.076004" transform="scale(-1 1) translate(-3600565.551740 0)" textLength="40826.713454" font-size="34841.436464" lengthAdjust="spacingAndGlyphs" text-anchor="middle" opacity="0.01" style="font-family:monospace">C1</text>
<g class="stroked-text"><desc>C1</desc>
<path d="M1804637 1424420 L1805882 1425664 L1809615 1426908 L1812103 1426908 L1815837 1425664 L1818325 1423175 L1819569 1420687 L1820814 1415709 L1820814 1411976 L1819569 1406999 L1818325 1404510 L1815837 1402021 L1812103 1400777 L1809615 1400777 L1805882 1402021 L1804637 1403266 "/>
<path d="M1779751 1426908 L1794683 1426908 "/>
<path d="M1787217 1426908 L1787217 1400777 L1789705 1404510 L1792194 1406999 L1794683 1408243 "/>
</g></g>
<g style="fill:#000084; fill-opacity:0.0;  stroke:#000084; stroke-width:7839.331044; stroke-opacity:1;  stroke-linecap:round; stroke-linejoin:round;">
<g transform="rotate(-90.000000 1489845.266537 1182782.014335)">
<text x="1489845.266537" y="1208913.117814" transform="scale(-1 1) translate(-2979690.533075 0)" textLength="235966.373003" font-size="69682.925190" lengthAdjust="spacingAndGlyphs" text-anchor="middle" opacity="0.01" style="font-family:monospace">100nF</text>
</g>
<g class="stroked-text"><desc>100nF</desc>
<path d="M1513487 1101899 L1513487 1072035 "/>
<path d="M1513487 1086967 L1461225 1086967 L1468691 1081990 L1473668 1077013 L1476157 1072035 "/>
<path d="M1461225 1134252 L1461225 1139230 L1463714 1144207 L1466202 1146696 L1471180 1149184 L1481134 1151673 L1493578 1151673 L1503532 1149184 L1508510 1146696 L1510998 1144207 L1513487 1139230 L1513487 1134252 L1510998 1129275 L1508510 1126786 L1503532 1124298 L1493578 1121809 L1481134 1121809 L1471180 1124298 L1466202 1126786 L1463714 1129275 L1461225 1134252 "/>
<path d="M1461225 1184026 L1461225 1189003 L1463714 1193981 L1466202 1196469 L1471180 1198958 L1481134 1201447 L1493578 1201447 L1503532 1198958 L1508510 1196469 L1510998 1193981 L1513487 1189003 L1513487 1184026 L1510998 1179048 L1508510 1176560 L1503532 1174071 L1493578 1171582 L1481134 1171582 L1471180 1174071 L1466202 1176560 L1463714 1179048 L1461225 1184026 "/>
<path d="M1478646 1223845 L1513487 1223845 "/>
<path d="M1483623 1223845 L1481134 1226333 L1478646 1231311 L1478646 1238777 L1481134 1243754 L1486112 1246243 L1513487 1246243 "/>
<path d="M1486112 1288550 L1486112 1271130 "/>
<path d="M1513487 1271130 L1461225 1271130 L1461225 1296016 "/>
</g></g>
<g style="fill:#000084; fill-opacity:0.0;  stroke:#000084; stroke-width:4180.976557; stroke-opacity:1;  stroke-linecap:round; stroke-linejoin:round;">
<g transform="rotate(-90.000000 1402044.758847 1182782.014335)">
<text x="1402044.758847" y="1195847.566074" transform="scale(-1 1) translate(-2804089.517694 0)" textLength="40826.713454" font-size="34841.436464" lengthAdjust="spacingAndGlyphs" text-anchor="middle" opacity="0.01" style="font-family:monospace">C3</text>
</g>
<g class="stroked-text"><desc>C3</desc>
<path d="M1411377 1178426 L1412621 1177182 L1413865 1173449 L1413865 1170960 L1412621 1167227 L1410132 1164739 L1407644 1163494 L1402666 1162250 L1398933 1162250 L1393956 1163494 L1391467 1164739 L1388979 1167227 L1387734 1170960 L1387734 1173449 L1388979 1177182 L1390223 1178426 "/>
<path d="M1387734 1187137 L1387734 1203313 L1397689 1194603 L1397689 1198336 L1398933 1200824 L1400178 1202069 L1402666 1203313 L1408888 1203313 L1411377 1202069 L1412621 1200824 L1413865 1198336 L1413865 1190870 L1412621 1188381 L1411377 1187137 "/>
</g></g>
<g style="fill:#000084; fill-opacity:0.01;  stroke:#000084; stroke-width:4885.053009; stroke-opacity:1;  stroke-linecap:round; stroke-linejoin:round;">
<text x="1711502.351799" y="1443741.010900" transform="scale(-1 1) translate(-3423004.703599 0)" textLength="708996.154995" font-size="81983.933104" lengthAdjust="spacingAndGlyphs" text-anchor="start" opacity="0.01" style="font-family:monospace">SP1001-04XTG</text>
<g class="stroked-text"><desc>SP1001-04XTG</desc>
<path d="M1696615 1437884 L1687831 1440812 L1673191 1440812 L1667335 1437884 L1664407 1434956 L1661479 1429101 L1661479 1423245 L1664407 1417388 L1667335 1414461 L1673191 1411533 L1684903 1408605 L1690759 1405677 L1693687 1402749 L1696615 1396893 L1696615 1391037 L1693687 1385181 L1690759 1382253 L1684903 1379325 L1670263 1379325 L1661479 1382253 "/>
<path d="M1635127 1440812 L1635127 1379325 L1611703 1379325 L1605847 1382253 L1602919 1385181 L1599991 1391037 L1599991 1399821 L1602919 1405677 L1605847 1408605 L1611703 1411533 L1635127 1411533 "/>
<path d="M1541431 1440812 L1576567 1440812 "/>
<path d="M1558999 1440812 L1558999 1379325 L1564855 1388109 L1570711 1393965 L1576567 1396893 "/>
<path d="M1503367 1379325 L1497511 1379325 L1491655 1382253 L1488727 1385181 L1485799 1391037 L1482871 1402749 L1482871 1417388 L1485799 1429101 L1488727 1434956 L1491655 1437884 L1497511 1440812 L1503367 1440812 L1509223 1437884 L1512151 1434956 L1515079 1429101 L1518007 1417388 L1518007 1402749 L1515079 1391037 L1512151 1385181 L1509223 1382253 L1503367 1379325 "/>
<path d="M1444807 1379325 L1438951 1379325 L1433095 1382253 L1430167 1385181 L1427239 1391037 L1424311 1402749 L1424311 1417388 L1427239 1429101 L1430167 1434956 L1433095 1437884 L1438951 1440812 L1444807 1440812 L1450663 1437884 L1453591 1434956 L1456519 1429101 L1459447 1417388 L1459447 1402749 L1456519 1391037 L1453591 1385181 L1450663 1382253 L1444807 1379325 "/>
<path d="M1365751 1440812 L1400887 1440812 "/>
<path d="M1383319 1440812 L1383319 1379325 L1389175 1388109 L1395031 1393965 L1400887 1396893 "/>
<path d="M1339399 1417388 L1292551 1417388 "/>
<path d="M1251559 1379325 L1245703 1379325 L1239847 1382253 L1236919 1385181 L1233991 1391037 L1231063 1402749 L1231063 1417388 L1233991 1429101 L1236919 1434956 L1239847 1437884 L1245703 1440812 L1251559 1440812 L1257415 1437884 L1260343 1434956 L1263271 1429101 L1266199 1417388 L1266199 1402749 L1263271 1391037 L1260343 1385181 L1257415 1382253 L1251559 1379325 "/>
<path d="M1178359 1399821 L1178359 1440812 "/>
<path d="M1192999 1376397 L1207639 1420316 L1169575 1420316 "/>
<path d="M1152007 1379325 L1111015 1440812 "/>
<path d="M1111015 1379325 L1152007 1440812 "/>
<path d="M1096375 1379325 L1061239 1379325 "/>
<path d="M1078807 1440812 L1078807 1379325 "/>
<path d="M1008535 1382253 L1014391 1379325 L1023175 1379325 L1031959 1382253 L1037815 1388109 L1040743 1393965 L1043671 1405677 L1043671 1414461 L1040743 1426173 L1037815 1432028 L1031959 1437884 L1023175 1440812 L1017319 1440812 L1008535 1437884 L1005607 1434956 L1005607 1414461 L1017319 1414461 "/>
</g><text x="1119959.496790" y="1304788.868150" transform="scale(-1 1) translate(-2239918.993579 0)" textLength="230817.239062" font-size="81983.933104" lengthAdjust="spacingAndGlyphs" text-anchor="end" opacity="0.01" style="font-family:monospace">470R</text>
<g class="stroked-text"><desc>470R</desc>
<path d="M1319310 1260868 L1319310 1301860 "/>
<path d="M1333950 1237444 L1348590 1281364 L1310526 1281364 "/>
<path d="M1292958 1240372 L1251966 1240372 L1278318 1301860 "/>
<path d="M1216830 1240372 L1210974 1240372 L1205118 1243300 L1202190 1246228 L1199262 1252084 L1196334 1263796 L1196334 1278436 L1199262 1290148 L1202190 1296004 L1205118 1298932 L1210974 1301860 L1216830 1301860 L1222686 1298932 L1225614 1296004 L1228542 1290148 L1231470 1278436 L1231470 1263796 L1228542 1252084 L1225614 1246228 L1222686 1243300 L1216830 1240372 "/>
<path d="M1134846 1301860 L1155342 1272580 "/>
<path d="M1169982 1301860 L1169982 1240372 L1146558 1240372 L1140702 1243300 L1137774 1246228 L1134846 1252084 L1134846 1260868 L1137774 1266724 L1140702 1269652 L1146558 1272580 L1169982 1272580 "/>
</g></g>
<g style="fill:#000084; fill-opacity:0.0;  stroke:#000084; stroke-width:7839.331044; stroke-opacity:1;  stroke-linecap:round; stroke-linejoin:round;">
<g transform="rotate(-90.000000 1604626.138570 801137.248022)">
<text x="1604626.138570" y="827268.351501" transform="scale(-1 1) translate(-3209252.277139 0)" textLength="140481.334926" font-size="69682.925190" lengthAdjust="spacingAndGlyphs" text-anchor="middle" opacity="0.01" style="font-family:monospace">4u7</text>
</g>
<g class="stroked-text"><desc>4u7</desc>
<path d="M1593427 762562 L1628268 762562 "/>
<path d="M1573517 750119 L1610847 737675 L1610847 770028 "/>
<path d="M1593427 812336 L1628268 812336 "/>
<path d="M1593427 789938 L1620802 789938 L1625779 792426 L1628268 797404 L1628268 804870 L1625779 809847 L1623291 812336 "/>
<path d="M1576006 832245 L1576006 867087 L1628268 844689 "/>
</g></g>
<g style="fill:#000084; fill-opacity:0.0;  stroke:#000084; stroke-width:4180.976557; stroke-opacity:1;  stroke-linecap:round; stroke-linejoin:round;">
<g transform="rotate(-90.000000 1692426.646260 801137.248022)">
<text x="1692426.646260" y="814202.799761" transform="scale(-1 1) translate(-3384853.292519 0)" textLength="40826.713454" font-size="34841.436464" lengthAdjust="spacingAndGlyphs" text-anchor="middle" opacity="0.01" style="font-family:monospace">C4</text>
</g>
<g class="stroked-text"><desc>C4</desc>
<path d="M1701759 796782 L1703003 795537 L1704247 791804 L1704247 789316 L1703003 785582 L1700514 783094 L1698026 781849 L1693048 780605 L1689315 780605 L1684338 781849 L1681849 783094 L1679361 785582 L1678116 789316 L1678116 791804 L1679361 795537 L1680605 796782 "/>
<path d="M1686827 819180 L1704247 819180 "/>
<path d="M1676872 812958 L1695537 806736 L1695537 822913 "/>
</g></g>
<g style="fill:#000084; fill-opacity:0.0;  stroke:#000084; stroke-width:7839.331044; stroke-opacity:1;  stroke-linecap:round; stroke-linejoin:round;">
<g transform="rotate(-90.000000 1381989.136927 1182782.014335)">
<text x="1381989.136927" y="1208913.117814" transform="scale(-1 1) translate(-2763978.273854 0)" textLength="186192.840078" font-size="69682.925190" lengthAdjust="spacingAndGlyphs" text-anchor="middle" opacity="0.01" style="font-family:monospace">10uF</text>
</g>
<g class="stroked-text"><desc>10uF</desc>
<path d="M1405631 1126786 L1405631 1096922 "/>
<path d="M1405631 1111854 L1353369 1111854 L1360835 1106877 L1365812 1101899 L1368301 1096922 "/>
<path d="M1353369 1159139 L1353369 1164116 L1355858 1169094 L1358346 1171582 L1363324 1174071 L1373278 1176560 L1385722 1176560 L1395676 1174071 L1400654 1171582 L1403142 1169094 L1405631 1164116 L1405631 1159139 L1403142 1154162 L1400654 1151673 L1395676 1149184 L1385722 1146696 L1373278 1146696 L1363324 1149184 L1358346 1151673 L1355858 1154162 L1353369 1159139 "/>
<path d="M1370790 1221356 L1405631 1221356 "/>
<path d="M1370790 1198958 L1398165 1198958 L1403142 1201447 L1405631 1206424 L1405631 1213890 L1403142 1218867 L1400654 1221356 "/>
<path d="M1378256 1263663 L1378256 1246243 "/>
<path d="M1405631 1246243 L1353369 1246243 L1353369 1271130 "/>
</g></g>
<g style="fill:#000084; fill-opacity:0.0;  stroke:#000084; stroke-width:4180.976557; stroke-opacity:1;  stroke-linecap:round; stroke-linejoin:round;">
<g transform="rotate(-90.000000 1294188.629237 1182782.014335)">
<text x="1294188.629237" y="1195847.566074" transform="scale(-1 1) translate(-2588377.258474 0)" textLength="40826.713454" font-size="34841.436464" lengthAdjust="spacingAndGlyphs" text-anchor="middle" opacity="0.01" style="font-family:monospace">C2</text>
</g>
<g class="stroked-text"><desc>C2</desc>
<path d="M1303521 1178426 L1304765 1177182 L1306009 1173449 L1306009 1170960 L1304765 1167227 L1302276 1164739 L1299788 1163494 L1294810 1162250 L1291077 1162250 L1286100 1163494 L1283611 1164739 L1281123 1167227 L1279878 1170960 L1279878 1173449 L1281123 1177182 L1282367 1178426 "/>
<path d="M1282367 1188381 L1281123 1189625 L1279878 1192114 L1279878 1198336 L1281123 1200824 L1282367 1202069 L1284856 1203313 L1287344 1203313 L1291077 1202069 L1306009 1187137 L1306009 1203313 "/>
</g></g>
<g style="fill:#000084; fill-opacity:0.0;  stroke:#000084; stroke-width:5309.840227; stroke-opacity:1;  stroke-linecap:round; stroke-linejoin:round;">
<path d="M1568640 1613210 L1568640 1765868 "/>
<path d="M1401381 1611883 L1401381 1765868 "/>
</g>
<g style="fill:#000084; fill-opacity:1.0;  stroke:#000084; stroke-width:0.052262; stroke-opacity:1;  stroke-linecap:round; stroke-linejoin:round;">
<path style="fill:#000084; fill-opacity:1.0;  stroke:#000084; stroke-width:0.052262; stroke-opacity:1;  stroke-linecap:round; stroke-linejoin:round;fill-rule:evenodd;" d="M 1571295.916082,1613744.012244 1398830.633119,1613744.012244 1398830.633119,1564094.915634 1571295.916082,1564094.915634 Z"/> 
<path style="fill:#000084; fill-opacity:1.0;  stroke:#000084; stroke-width:0.052262; stroke-opacity:1;  stroke-linecap:round; stroke-linejoin:round;fill-rule:evenodd;" d="M 1571295.916082,1814190.480812 1398830.633119,1814190.480812 1398830.633119,1764541.384202 1571295.916082,1764541.384202 Z"/> 
</g>
<g style="fill:#000084; fill-opacity:1.0;  stroke:#000084; stroke-width:7964.760340; stroke-opacity:1;  stroke-linecap:round; stroke-linejoin:round;">
</g>
<g style="fill:#000084; fill-opacity:0.0;  stroke:#000084; stroke-width:7964.760340; stroke-opacity:1;  stroke-linecap:round; stroke-linejoin:round;">
<path d="M1476714 764488 L1476714 721633 "/>
<path d="M1410341 764488 L1410341 721633 "/>
</g>
<g style="fill:#000084; fill-opacity:1.0;  stroke:#000084; stroke-width:0.052262; stroke-opacity:1;  stroke-linecap:round; stroke-linejoin:round;">
<path style="fill:#000084; fill-opacity:1.0;  stroke:#000084; stroke-width:0.052262; stroke-opacity:1;  stroke-linecap:round; stroke-linejoin:round;fill-rule:evenodd;" d="M 1480189.823802,721821.509631 1407022.734060,721821.509631 1407022.734060,687851.075108 1480189.823802,687851.075108 Z"/> 
<path style="fill:#000084; fill-opacity:1.0;  stroke:#000084; stroke-width:0.052262; stroke-opacity:1;  stroke-linecap:round; stroke-linejoin:round;fill-rule:evenodd;" d="M 1480189.823802,798814.192922 1407022.734060,798814.192922 1407022.734060,764843.758399 1480189.823802,764843.758399 Z"/> 
</g>
<g style="fill:#000084; fill-opacity:1.0;  stroke:#000084; stroke-width:7964.760340; stroke-opacity:1;  stroke-linecap:round; stroke-linejoin:round;">
</g>
<g style="fill:#000084; fill-opacity:0.0;  stroke:#000084; stroke-width:7964.760340; stroke-opacity:1;  stroke-linecap:round; stroke-linejoin:round;">
<path d="M1174573 1249155 L1131718 1249155 "/>
<path d="M1174573 1182782 L1131718 1182782 "/>
</g>
<g style="fill:#000084; fill-opacity:1.0;  stroke:#000084; stroke-width:0.052262; stroke-opacity:1;  stroke-linecap:round; stroke-linejoin:round;">
<path style="fill:#000084; fill-opacity:1.0;  stroke:#000084; stroke-width:0.052262; stroke-opacity:1;  stroke-linecap:round; stroke-linejoin:round;fill-rule:evenodd;" d="M 1131906.637300,1252473.667314 1097936.202777,1252473.667314 1097936.202777,1179306.577572 1131906.637300,1179306.577572 Z"/> 
<path style="fill:#000084; fill-opacity:1.0;  stroke:#000084; stroke-width:0.052262; stroke-opacity:1;  stroke-linecap:round; stroke-linejoin:round;fill-rule:evenodd;" d="M 1208899.320591,1252473.667314 1174928.886068,1252473.667314 1174928.886068,1179306.577572 1208899.320591,1179306.577572 Z"/> 
</g>
<g style="fill:#000084; fill-opacity:1.0;  stroke:#000084; stroke-width:7964.760340; stroke-opacity:1;  stroke-linecap:round; stroke-linejoin:round;">
</g>
<g style="fill:#000084; fill-opacity:0.0;  stroke:#000084; stroke-width:7964.760340; stroke-opacity:1;  stroke-linecap:round; stroke-linejoin:round;">
<path d="M1174573 1274044 L1131718 1274044 "/>
<path d="M1174573 1340417 L1131718 1340417 "/>
</g>
<g style="fill:#000084; fill-opacity:1.0;  stroke:#000084; stroke-width:0.052262; stroke-opacity:1;  stroke-linecap:round; stroke-linejoin:round;">
<path style="fill:#000084; fill-opacity:1.0;  stroke:#000084; stroke-width:0.052262; stroke-opacity:1;  stroke-linecap:round; stroke-linejoin:round;fill-rule:evenodd;" d="M 1208899.320591,1343736.546215 1174928.886068,1343736.546215 1174928.886068,1270569.456473 1208899.320591,1270569.456473 Z"/> 
<path style="fill:#000084; fill-opacity:1.0;  stroke:#000084; stroke-width:0.052262; stroke-opacity:1;  stroke-linecap:round; stroke-linejoin:round;fill-rule:evenodd;" d="M 1131906.637300,1343736.546215 1097936.202777,1343736.546215 1097936.202777,1270569.456473 1131906.637300,1270569.456473 Z"/> 
</g>
<g style="fill:#000084; fill-opacity:1.0;  stroke:#000084; stroke-width:5226.220696; stroke-opacity:1;  stroke-linecap:round; stroke-linejoin:round;">
</g>
<g style="fill:#000084; fill-opacity:0.0;  stroke:#000084; stroke-width:5226.220696; stroke-opacity:1;  stroke-linecap:round; stroke-linejoin:round;">
<path d="M1748020 1447751 L1852544 1447751 "/>
<path d="M1852544 1447751 L1852544 1382423 "/>
<path d="M1748020 1382423 L1748020 1447751 "/>
<path d="M1852544 1382423 L1748020 1382423 "/>
<path d="M1369380 1130519 L1369380 1235044 "/>
<path d="M1369380 1235044 L1434708 1235044 "/>
<path d="M1434708 1130519 L1369380 1130519 "/>
<path d="M1434708 1235044 L1434708 1130519 "/>
</g>
<g style="fill:#000084; fill-opacity:0.0;  stroke:#000084; stroke-width:5309.840227; stroke-opacity:1;  stroke-linecap:round; stroke-linejoin:round;">
<path d="M1617430 1313698 L1701049 1313698 "/>
<path d="M1701049 1250984 L1617430 1250984 "/>
</g>
<g style="fill:#000084; fill-opacity:1.0;  stroke:#000084; stroke-width:0.052262; stroke-opacity:1;  stroke-linecap:round; stroke-linejoin:round;">
<path style="fill:#000084; fill-opacity:1.0;  stroke:#000084; stroke-width:0.052262; stroke-opacity:1;  stroke-linecap:round; stroke-linejoin:round;fill-rule:evenodd;" d="M 1699743.355234,1312392.287591 1659240.144841,1312392.287591 1659240.144841,1282341.518590 1699743.355234,1282341.518590 Z"/> 
<path style="fill:#000084; fill-opacity:1.0;  stroke:#000084; stroke-width:0.052262; stroke-opacity:1;  stroke-linecap:round; stroke-linejoin:round;fill-rule:evenodd;" d="M 1639641.817232,1326764.394505 1626576.265492,1326764.394505 1626576.265492,1305859.511722 1639641.817232,1305859.511722 Z"/> 
<path style="fill:#000084; fill-opacity:1.0;  stroke:#000084; stroke-width:0.052262; stroke-opacity:1;  stroke-linecap:round; stroke-linejoin:round;fill-rule:evenodd;" d="M 1691904.024190,1326764.394505 1678838.472450,1326764.394505 1678838.472450,1305859.511722 1691904.024190,1305859.511722 Z"/> 
<path style="fill:#000084; fill-opacity:1.0;  stroke:#000084; stroke-width:0.052262; stroke-opacity:1;  stroke-linecap:round; stroke-linejoin:round;fill-rule:evenodd;" d="M 1691904.024190,1258823.525459 1678838.472450,1258823.525459 1678838.472450,1237918.642676 1691904.024190,1237918.642676 Z"/> 
<path style="fill:#000084; fill-opacity:1.0;  stroke:#000084; stroke-width:0.052262; stroke-opacity:1;  stroke-linecap:round; stroke-linejoin:round;fill-rule:evenodd;" d="M 1665772.920711,1326764.394505 1652707.368971,1326764.394505 1652707.368971,1305859.511722 1665772.920711,1305859.511722 Z"/> 
<path style="fill:#000084; fill-opacity:1.0;  stroke:#000084; stroke-width:0.052262; stroke-opacity:1;  stroke-linecap:round; stroke-linejoin:round;fill-rule:evenodd;" d="M 1639641.817232,1258823.525459 1626576.265492,1258823.525459 1626576.265492,1237918.642676 1639641.817232,1237918.642676 Z"/> 
</g>
<g style="fill:#000084; fill-opacity:1.0;  stroke:#000084; stroke-width:7964.760340; stroke-opacity:1;  stroke-linecap:round; stroke-linejoin:round;">
</g>
<g style="fill:#000084; fill-opacity:0.0;  stroke:#000084; stroke-width:7964.760340; stroke-opacity:1;  stroke-linecap:round; stroke-linejoin:round;">
<path d="M1131718 1439977 L1174573 1439977 "/>
<path d="M1131718 1373604 L1174573 1373604 "/>
</g>
<g style="fill:#000084; fill-opacity:1.0;  stroke:#000084; stroke-width:0.052262; stroke-opacity:1;  stroke-linecap:round; stroke-linejoin:round;">
<path style="fill:#000084; fill-opacity:1.0;  stroke:#000084; stroke-width:0.052262; stroke-opacity:1;  stroke-linecap:round; stroke-linejoin:round;fill-rule:evenodd;" d="M 1208355.793639,1443452.837091 1174385.359116,1443452.837091 1174385.359116,1370285.747350 1208355.793639,1370285.747350 Z"/> 
<path style="fill:#000084; fill-opacity:1.0;  stroke:#000084; stroke-width:0.052262; stroke-opacity:1;  stroke-linecap:round; stroke-linejoin:round;fill-rule:evenodd;" d="M 1131363.110348,1443452.837091 1097392.675825,1443452.837091 1097392.675825,1370285.747350 1131363.110348,1370285.747350 Z"/> 
</g>
<g style="fill:#000084; fill-opacity:1.0;  stroke:#000084; stroke-width:5226.220696; stroke-opacity:1;  stroke-linecap:round; stroke-linejoin:round;">
</g>
<g style="fill:#000084; fill-opacity:0.0;  stroke:#000084; stroke-width:5226.220696; stroke-opacity:1;  stroke-linecap:round; stroke-linejoin:round;">
<path d="M1725090 853399 L1725090 748875 "/>
<path d="M1659762 748875 L1659762 853399 "/>
<path d="M1725090 748875 L1659762 748875 "/>
<path d="M1659762 853399 L1725090 853399 "/>
<path d="M1326852 1235044 L1326852 1130519 "/>
<path d="M1261524 1130519 L1261524 1235044 "/>
<path d="M1326852 1130519 L1261524 1130519 "/>
<path d="M1261524 1235044 L1326852 1235044 "/>
<g>
</g>
<g>
</g>
<g>
</g>
<g>
</g>
<g>
</g>
<g>
</g>
<g>
</g>
<g>
</g>
<g>
</g>
<g>
</g>
<g>
</g>
<g>
</g>
<g>
</g>
<g>
</g>
<g>
</g>
<g>
</g>
<g>
</g>
<g>
</g>
<g>
</g>
<g>
</g>
<g>
</g>
<g>
</g>
<g>
</g>
<g>
</g>
<g>
</g>
<g>
</g>
<g>
</g>
<g>
</g>
<g>
</g>
</g> 
<svg:g><svg:g><svg:title>SVG Picture created as USBI2C01-Edge_Cuts.svg date 2023/05/28 09:26:49 </svg:title>
  <svg:desc>Picture generated by PCBNEW </svg:desc>
<svg:g style="fill:#C2C200; fill-opacity:1.000000;stroke:#C2C200; stroke-opacity:1.000000; stroke-linecap:round; stroke-linejoin:round;" transform="translate(0 0) scale(1 1)">
</svg:g>
<svg:g style="fill:#C2C200; fill-opacity:0.0;  stroke:#C2C200; stroke-width:0.000000; stroke-opacity:1;  stroke-linecap:round; stroke-linejoin:round;">
</svg:g>
<svg:g style="fill:#C2C200; fill-opacity:0.0;  stroke:#C2C200; stroke-width:2613.110348; stroke-opacity:1;  stroke-linecap:round; stroke-linejoin:round;">
<svg:path d="M701809 1342 L701809 2098729 "/>
<svg:path d="M701809 2098729 L2268212 2098729 "/>
<svg:path d="M2268212 2098729 L2268212 1342 "/>
<svg:path d="M2268212 1342 L701809 1342 "/>
<svg:g>
</svg:g>
<svg:g>
</svg:g>
<svg:g>
</svg:g>
<svg:g>
</svg:g>
<svg:g>
</svg:g>
<svg:g>
</svg:g>
<svg:g>
</svg:g>
<svg:g>
</svg:g>
<svg:g>
</svg:g>
<svg:g>
</svg:g>
<svg:g>
</svg:g>
<svg:g>
</svg:g>
<svg:g>
</svg:g>
<svg:g>
</svg:g>
<svg:g>
</svg:g>
<svg:g>
</svg:g>
<svg:g>
</svg:g>
<svg:g>
</svg:g>
<svg:g>
</svg:g>
<svg:g>
</svg:g>
<svg:g>
</svg:g>
<svg:g>
</svg:g>
<svg:g>
</svg:g>
<svg:g>
</svg:g>
<svg:g>
</svg:g>
<svg:g>
</svg:g>
<svg:g>
</svg:g>
<svg:g>
</svg:g>
<svg:g>
</svg:g>
</svg:g> 
</svg:g></svg:g></svg>
