M48
; DRILL file {KiCad 6.0.11+dfsg-1~bpo11+1} date Thu Jun 15 09:00:28 2023
; FORMAT={3:3/ absolute / metric / suppress leading zeros}
; #@! TF.CreationDate,2023-06-15T09:00:28+00:00
; #@! TF.GenerationSoftware,Kicad,Pcbnew,6.0.11+dfsg-1~bpo11+1
; #@! TF.FileFunction,Plated,1,2,PTH
FMAT,2
METRIC,TZ
; #@! TA.AperFunction,Plated,PTH,ViaDrill
T1C0.500
; #@! TA.AperFunction,Plated,PTH,ViaDrill
T2C0.600
; #@! TA.AperFunction,Plated,PTH,ComponentDrill
T3C0.889
; #@! TA.AperFunction,Plated,PTH,ComponentDrill
T4C0.914
; #@! TA.AperFunction,Plated,PTH,ComponentDrill
T5C0.920
; #@! TA.AperFunction,Plated,PTH,ComponentDrill
T6C2.300
; #@! TA.AperFunction,Plated,PTH,ComponentDrill
T7C3.200
%
G90
G05
T1
X144374Y-110242
X145485Y-110242
X145485Y-111354
X148184Y-108337
X151517Y-111036
X153422Y-110401
X153740Y-109290
T2
X135007Y-107226
X135007Y-112147
X154851Y-106750
X155804Y-105956
T3
X137071Y-94844
X137071Y-97384
X137071Y-99924
X139611Y-94844
X139611Y-97384
X139611Y-99924
X141834Y-104686
X143421Y-88494
X143421Y-91034
X144374Y-104686
X145326Y-98336
X145326Y-100876
X145961Y-88494
X145961Y-91034
X146914Y-104686
X148501Y-88494
X148501Y-91034
X151041Y-88494
X151041Y-91034
X153105Y-95796
X153581Y-91034
X157391Y-95637
X157391Y-98177
X157391Y-100717
X157391Y-105004
X157391Y-107544
X157391Y-110084
X157391Y-112624
X157391Y-115164
X159931Y-95637
X159931Y-98177
X159931Y-100717
X159931Y-105004
X159931Y-107544
X159931Y-110084
X159931Y-112624
T4
X153581Y-88494
X159931Y-115164
T5
X147251Y-110464
X147251Y-112464
X149751Y-110464
X149751Y-112464
T6
X142501Y-115164
X154501Y-115164
T7
X138341Y-89764
X138341Y-120244
X158661Y-89764
X158661Y-120244
T0
M30
