%TF.GenerationSoftware,KiCad,Pcbnew,7.0.5.1-1-g8f565ef7f0-dirty-deb11*%
%TF.CreationDate,2023-07-05T00:46:35+00:00*%
%TF.ProjectId,USBI2C01,55534249-3243-4303-912e-6b696361645f,I2CUSB01A*%
%TF.SameCoordinates,Original*%
%TF.FileFunction,Legend,Bot*%
%TF.FilePolarity,Positive*%
%FSLAX46Y46*%
G04 Gerber Fmt 4.6, Leading zero omitted, Abs format (unit mm)*
G04 Created by KiCad (PCBNEW 7.0.5.1-1-g8f565ef7f0-dirty-deb11) date 2023-07-05 00:46:35*
%MOMM*%
%LPD*%
G01*
G04 APERTURE LIST*
%ADD10C,0.093472*%
%ADD11C,0.150000*%
%ADD12C,0.127000*%
%ADD13C,0.120000*%
%ADD14C,0.101600*%
G04 APERTURE END LIST*
D10*
%TO.C,D2*%
X135306980Y-105894274D02*
X135306980Y-104717746D01*
X135306980Y-104717746D02*
X135026854Y-104717746D01*
X135026854Y-104717746D02*
X134858779Y-104773771D01*
X134858779Y-104773771D02*
X134746728Y-104885821D01*
X134746728Y-104885821D02*
X134690703Y-104997871D01*
X134690703Y-104997871D02*
X134634678Y-105221972D01*
X134634678Y-105221972D02*
X134634678Y-105390047D01*
X134634678Y-105390047D02*
X134690703Y-105614148D01*
X134690703Y-105614148D02*
X134746728Y-105726198D01*
X134746728Y-105726198D02*
X134858779Y-105838249D01*
X134858779Y-105838249D02*
X135026854Y-105894274D01*
X135026854Y-105894274D02*
X135306980Y-105894274D01*
X134186477Y-104829796D02*
X134130452Y-104773771D01*
X134130452Y-104773771D02*
X134018402Y-104717746D01*
X134018402Y-104717746D02*
X133738276Y-104717746D01*
X133738276Y-104717746D02*
X133626226Y-104773771D01*
X133626226Y-104773771D02*
X133570200Y-104829796D01*
X133570200Y-104829796D02*
X133514175Y-104941846D01*
X133514175Y-104941846D02*
X133514175Y-105053897D01*
X133514175Y-105053897D02*
X133570200Y-105221972D01*
X133570200Y-105221972D02*
X134242502Y-105894274D01*
X134242502Y-105894274D02*
X133514175Y-105894274D01*
%TO.C,P1*%
X146500524Y-113243950D02*
X145323996Y-113243950D01*
X145323996Y-113243950D02*
X145323996Y-113692151D01*
X145323996Y-113692151D02*
X145380021Y-113804202D01*
X145380021Y-113804202D02*
X145436046Y-113860227D01*
X145436046Y-113860227D02*
X145548096Y-113916252D01*
X145548096Y-113916252D02*
X145716172Y-113916252D01*
X145716172Y-113916252D02*
X145828222Y-113860227D01*
X145828222Y-113860227D02*
X145884247Y-113804202D01*
X145884247Y-113804202D02*
X145940272Y-113692151D01*
X145940272Y-113692151D02*
X145940272Y-113243950D01*
X146500524Y-115036755D02*
X146500524Y-114364453D01*
X146500524Y-114700604D02*
X145323996Y-114700604D01*
X145323996Y-114700604D02*
X145492071Y-114588554D01*
X145492071Y-114588554D02*
X145604121Y-114476503D01*
X145604121Y-114476503D02*
X145660147Y-114364453D01*
%TO.C,R5*%
X149516774Y-100778771D02*
X148956522Y-100386595D01*
X149516774Y-100106469D02*
X148340246Y-100106469D01*
X148340246Y-100106469D02*
X148340246Y-100554670D01*
X148340246Y-100554670D02*
X148396271Y-100666721D01*
X148396271Y-100666721D02*
X148452296Y-100722746D01*
X148452296Y-100722746D02*
X148564346Y-100778771D01*
X148564346Y-100778771D02*
X148732422Y-100778771D01*
X148732422Y-100778771D02*
X148844472Y-100722746D01*
X148844472Y-100722746D02*
X148900497Y-100666721D01*
X148900497Y-100666721D02*
X148956522Y-100554670D01*
X148956522Y-100554670D02*
X148956522Y-100106469D01*
X148340246Y-101843249D02*
X148340246Y-101282997D01*
X148340246Y-101282997D02*
X148900497Y-101226972D01*
X148900497Y-101226972D02*
X148844472Y-101282997D01*
X148844472Y-101282997D02*
X148788447Y-101395048D01*
X148788447Y-101395048D02*
X148788447Y-101675173D01*
X148788447Y-101675173D02*
X148844472Y-101787224D01*
X148844472Y-101787224D02*
X148900497Y-101843249D01*
X148900497Y-101843249D02*
X149012547Y-101899274D01*
X149012547Y-101899274D02*
X149292673Y-101899274D01*
X149292673Y-101899274D02*
X149404723Y-101843249D01*
X149404723Y-101843249D02*
X149460749Y-101787224D01*
X149460749Y-101787224D02*
X149516774Y-101675173D01*
X149516774Y-101675173D02*
X149516774Y-101395048D01*
X149516774Y-101395048D02*
X149460749Y-101282997D01*
X149460749Y-101282997D02*
X149404723Y-101226972D01*
%TO.C,D1*%
X135306980Y-115894274D02*
X135306980Y-114717746D01*
X135306980Y-114717746D02*
X135026854Y-114717746D01*
X135026854Y-114717746D02*
X134858779Y-114773771D01*
X134858779Y-114773771D02*
X134746728Y-114885821D01*
X134746728Y-114885821D02*
X134690703Y-114997871D01*
X134690703Y-114997871D02*
X134634678Y-115221972D01*
X134634678Y-115221972D02*
X134634678Y-115390047D01*
X134634678Y-115390047D02*
X134690703Y-115614148D01*
X134690703Y-115614148D02*
X134746728Y-115726198D01*
X134746728Y-115726198D02*
X134858779Y-115838249D01*
X134858779Y-115838249D02*
X135026854Y-115894274D01*
X135026854Y-115894274D02*
X135306980Y-115894274D01*
X133514175Y-115894274D02*
X134186477Y-115894274D01*
X133850326Y-115894274D02*
X133850326Y-114717746D01*
X133850326Y-114717746D02*
X133962376Y-114885821D01*
X133962376Y-114885821D02*
X134074427Y-114997871D01*
X134074427Y-114997871D02*
X134186477Y-115053897D01*
%TO.C,R4*%
X142089678Y-107765524D02*
X142481854Y-107205272D01*
X142761980Y-107765524D02*
X142761980Y-106588996D01*
X142761980Y-106588996D02*
X142313779Y-106588996D01*
X142313779Y-106588996D02*
X142201728Y-106645021D01*
X142201728Y-106645021D02*
X142145703Y-106701046D01*
X142145703Y-106701046D02*
X142089678Y-106813096D01*
X142089678Y-106813096D02*
X142089678Y-106981172D01*
X142089678Y-106981172D02*
X142145703Y-107093222D01*
X142145703Y-107093222D02*
X142201728Y-107149247D01*
X142201728Y-107149247D02*
X142313779Y-107205272D01*
X142313779Y-107205272D02*
X142761980Y-107205272D01*
X141081226Y-106981172D02*
X141081226Y-107765524D01*
X141361351Y-106532971D02*
X141641477Y-107373348D01*
X141641477Y-107373348D02*
X140913150Y-107373348D01*
%TO.C,R3*%
X141261774Y-107248752D02*
X140701522Y-106856576D01*
X141261774Y-106576450D02*
X140085246Y-106576450D01*
X140085246Y-106576450D02*
X140085246Y-107024651D01*
X140085246Y-107024651D02*
X140141271Y-107136702D01*
X140141271Y-107136702D02*
X140197296Y-107192727D01*
X140197296Y-107192727D02*
X140309346Y-107248752D01*
X140309346Y-107248752D02*
X140477422Y-107248752D01*
X140477422Y-107248752D02*
X140589472Y-107192727D01*
X140589472Y-107192727D02*
X140645497Y-107136702D01*
X140645497Y-107136702D02*
X140701522Y-107024651D01*
X140701522Y-107024651D02*
X140701522Y-106576450D01*
X140085246Y-107640928D02*
X140085246Y-108369255D01*
X140085246Y-108369255D02*
X140533447Y-107977079D01*
X140533447Y-107977079D02*
X140533447Y-108145154D01*
X140533447Y-108145154D02*
X140589472Y-108257205D01*
X140589472Y-108257205D02*
X140645497Y-108313230D01*
X140645497Y-108313230D02*
X140757547Y-108369255D01*
X140757547Y-108369255D02*
X141037673Y-108369255D01*
X141037673Y-108369255D02*
X141149723Y-108313230D01*
X141149723Y-108313230D02*
X141205749Y-108257205D01*
X141205749Y-108257205D02*
X141261774Y-108145154D01*
X141261774Y-108145154D02*
X141261774Y-107809003D01*
X141261774Y-107809003D02*
X141205749Y-107696953D01*
X141205749Y-107696953D02*
X141149723Y-107640928D01*
D11*
%TO.C,C1*%
X154700266Y-114028180D02*
X154747885Y-114075800D01*
X154747885Y-114075800D02*
X154890742Y-114123419D01*
X154890742Y-114123419D02*
X154985980Y-114123419D01*
X154985980Y-114123419D02*
X155128837Y-114075800D01*
X155128837Y-114075800D02*
X155224075Y-113980561D01*
X155224075Y-113980561D02*
X155271694Y-113885323D01*
X155271694Y-113885323D02*
X155319313Y-113694847D01*
X155319313Y-113694847D02*
X155319313Y-113551990D01*
X155319313Y-113551990D02*
X155271694Y-113361514D01*
X155271694Y-113361514D02*
X155224075Y-113266276D01*
X155224075Y-113266276D02*
X155128837Y-113171038D01*
X155128837Y-113171038D02*
X154985980Y-113123419D01*
X154985980Y-113123419D02*
X154890742Y-113123419D01*
X154890742Y-113123419D02*
X154747885Y-113171038D01*
X154747885Y-113171038D02*
X154700266Y-113218657D01*
X153747885Y-114123419D02*
X154319313Y-114123419D01*
X154033599Y-114123419D02*
X154033599Y-113123419D01*
X154033599Y-113123419D02*
X154128837Y-113266276D01*
X154128837Y-113266276D02*
X154224075Y-113361514D01*
X154224075Y-113361514D02*
X154319313Y-113409133D01*
D10*
%TO.C,D3*%
X135306980Y-110894274D02*
X135306980Y-109717746D01*
X135306980Y-109717746D02*
X135026854Y-109717746D01*
X135026854Y-109717746D02*
X134858779Y-109773771D01*
X134858779Y-109773771D02*
X134746728Y-109885821D01*
X134746728Y-109885821D02*
X134690703Y-109997871D01*
X134690703Y-109997871D02*
X134634678Y-110221972D01*
X134634678Y-110221972D02*
X134634678Y-110390047D01*
X134634678Y-110390047D02*
X134690703Y-110614148D01*
X134690703Y-110614148D02*
X134746728Y-110726198D01*
X134746728Y-110726198D02*
X134858779Y-110838249D01*
X134858779Y-110838249D02*
X135026854Y-110894274D01*
X135026854Y-110894274D02*
X135306980Y-110894274D01*
X134242502Y-109717746D02*
X133514175Y-109717746D01*
X133514175Y-109717746D02*
X133906351Y-110165947D01*
X133906351Y-110165947D02*
X133738276Y-110165947D01*
X133738276Y-110165947D02*
X133626226Y-110221972D01*
X133626226Y-110221972D02*
X133570200Y-110277997D01*
X133570200Y-110277997D02*
X133514175Y-110390047D01*
X133514175Y-110390047D02*
X133514175Y-110670173D01*
X133514175Y-110670173D02*
X133570200Y-110782223D01*
X133570200Y-110782223D02*
X133626226Y-110838249D01*
X133626226Y-110838249D02*
X133738276Y-110894274D01*
X133738276Y-110894274D02*
X134074427Y-110894274D01*
X134074427Y-110894274D02*
X134186477Y-110838249D01*
X134186477Y-110838249D02*
X134242502Y-110782223D01*
D11*
%TO.C,C3*%
X145593180Y-107376933D02*
X145640800Y-107329314D01*
X145640800Y-107329314D02*
X145688419Y-107186457D01*
X145688419Y-107186457D02*
X145688419Y-107091219D01*
X145688419Y-107091219D02*
X145640800Y-106948362D01*
X145640800Y-106948362D02*
X145545561Y-106853124D01*
X145545561Y-106853124D02*
X145450323Y-106805505D01*
X145450323Y-106805505D02*
X145259847Y-106757886D01*
X145259847Y-106757886D02*
X145116990Y-106757886D01*
X145116990Y-106757886D02*
X144926514Y-106805505D01*
X144926514Y-106805505D02*
X144831276Y-106853124D01*
X144831276Y-106853124D02*
X144736038Y-106948362D01*
X144736038Y-106948362D02*
X144688419Y-107091219D01*
X144688419Y-107091219D02*
X144688419Y-107186457D01*
X144688419Y-107186457D02*
X144736038Y-107329314D01*
X144736038Y-107329314D02*
X144783657Y-107376933D01*
X144688419Y-107710267D02*
X144688419Y-108329314D01*
X144688419Y-108329314D02*
X145069371Y-107995981D01*
X145069371Y-107995981D02*
X145069371Y-108138838D01*
X145069371Y-108138838D02*
X145116990Y-108234076D01*
X145116990Y-108234076D02*
X145164609Y-108281695D01*
X145164609Y-108281695D02*
X145259847Y-108329314D01*
X145259847Y-108329314D02*
X145497942Y-108329314D01*
X145497942Y-108329314D02*
X145593180Y-108281695D01*
X145593180Y-108281695D02*
X145640800Y-108234076D01*
X145640800Y-108234076D02*
X145688419Y-108138838D01*
X145688419Y-108138838D02*
X145688419Y-107853124D01*
X145688419Y-107853124D02*
X145640800Y-107757886D01*
X145640800Y-107757886D02*
X145593180Y-107710267D01*
D10*
%TO.C,D4*%
X150429480Y-109940524D02*
X150429480Y-108763996D01*
X150429480Y-108763996D02*
X150149354Y-108763996D01*
X150149354Y-108763996D02*
X149981279Y-108820021D01*
X149981279Y-108820021D02*
X149869228Y-108932071D01*
X149869228Y-108932071D02*
X149813203Y-109044121D01*
X149813203Y-109044121D02*
X149757178Y-109268222D01*
X149757178Y-109268222D02*
X149757178Y-109436297D01*
X149757178Y-109436297D02*
X149813203Y-109660398D01*
X149813203Y-109660398D02*
X149869228Y-109772448D01*
X149869228Y-109772448D02*
X149981279Y-109884499D01*
X149981279Y-109884499D02*
X150149354Y-109940524D01*
X150149354Y-109940524D02*
X150429480Y-109940524D01*
X148748726Y-109156172D02*
X148748726Y-109940524D01*
X149028851Y-108707971D02*
X149308977Y-109548348D01*
X149308977Y-109548348D02*
X148580650Y-109548348D01*
%TO.C,X1*%
X152291530Y-104473996D02*
X151507178Y-105650524D01*
X151507178Y-104473996D02*
X152291530Y-105650524D01*
X150442700Y-105650524D02*
X151115002Y-105650524D01*
X150778851Y-105650524D02*
X150778851Y-104473996D01*
X150778851Y-104473996D02*
X150890901Y-104642071D01*
X150890901Y-104642071D02*
X151002952Y-104754121D01*
X151002952Y-104754121D02*
X151115002Y-104810147D01*
%TO.C,R1*%
X139747197Y-111734274D02*
X140139373Y-111174022D01*
X140419499Y-111734274D02*
X140419499Y-110557746D01*
X140419499Y-110557746D02*
X139971298Y-110557746D01*
X139971298Y-110557746D02*
X139859247Y-110613771D01*
X139859247Y-110613771D02*
X139803222Y-110669796D01*
X139803222Y-110669796D02*
X139747197Y-110781846D01*
X139747197Y-110781846D02*
X139747197Y-110949922D01*
X139747197Y-110949922D02*
X139803222Y-111061972D01*
X139803222Y-111061972D02*
X139859247Y-111117997D01*
X139859247Y-111117997D02*
X139971298Y-111174022D01*
X139971298Y-111174022D02*
X140419499Y-111174022D01*
X138626694Y-111734274D02*
X139298996Y-111734274D01*
X138962845Y-111734274D02*
X138962845Y-110557746D01*
X138962845Y-110557746D02*
X139074895Y-110725821D01*
X139074895Y-110725821D02*
X139186946Y-110837871D01*
X139186946Y-110837871D02*
X139298996Y-110893897D01*
D11*
%TO.C,C4*%
X154509430Y-100074433D02*
X154557050Y-100026814D01*
X154557050Y-100026814D02*
X154604669Y-99883957D01*
X154604669Y-99883957D02*
X154604669Y-99788719D01*
X154604669Y-99788719D02*
X154557050Y-99645862D01*
X154557050Y-99645862D02*
X154461811Y-99550624D01*
X154461811Y-99550624D02*
X154366573Y-99503005D01*
X154366573Y-99503005D02*
X154176097Y-99455386D01*
X154176097Y-99455386D02*
X154033240Y-99455386D01*
X154033240Y-99455386D02*
X153842764Y-99503005D01*
X153842764Y-99503005D02*
X153747526Y-99550624D01*
X153747526Y-99550624D02*
X153652288Y-99645862D01*
X153652288Y-99645862D02*
X153604669Y-99788719D01*
X153604669Y-99788719D02*
X153604669Y-99883957D01*
X153604669Y-99883957D02*
X153652288Y-100026814D01*
X153652288Y-100026814D02*
X153699907Y-100074433D01*
X153938002Y-100931576D02*
X154604669Y-100931576D01*
X153557050Y-100693481D02*
X154271335Y-100455386D01*
X154271335Y-100455386D02*
X154271335Y-101074433D01*
%TO.C,C2*%
X143529430Y-107376933D02*
X143577050Y-107329314D01*
X143577050Y-107329314D02*
X143624669Y-107186457D01*
X143624669Y-107186457D02*
X143624669Y-107091219D01*
X143624669Y-107091219D02*
X143577050Y-106948362D01*
X143577050Y-106948362D02*
X143481811Y-106853124D01*
X143481811Y-106853124D02*
X143386573Y-106805505D01*
X143386573Y-106805505D02*
X143196097Y-106757886D01*
X143196097Y-106757886D02*
X143053240Y-106757886D01*
X143053240Y-106757886D02*
X142862764Y-106805505D01*
X142862764Y-106805505D02*
X142767526Y-106853124D01*
X142767526Y-106853124D02*
X142672288Y-106948362D01*
X142672288Y-106948362D02*
X142624669Y-107091219D01*
X142624669Y-107091219D02*
X142624669Y-107186457D01*
X142624669Y-107186457D02*
X142672288Y-107329314D01*
X142672288Y-107329314D02*
X142719907Y-107376933D01*
X142719907Y-107757886D02*
X142672288Y-107805505D01*
X142672288Y-107805505D02*
X142624669Y-107900743D01*
X142624669Y-107900743D02*
X142624669Y-108138838D01*
X142624669Y-108138838D02*
X142672288Y-108234076D01*
X142672288Y-108234076D02*
X142719907Y-108281695D01*
X142719907Y-108281695D02*
X142815145Y-108329314D01*
X142815145Y-108329314D02*
X142910383Y-108329314D01*
X142910383Y-108329314D02*
X143053240Y-108281695D01*
X143053240Y-108281695D02*
X143624669Y-107710267D01*
X143624669Y-107710267D02*
X143624669Y-108329314D01*
D12*
%TO.C,D2*%
X137976100Y-104333600D02*
X137476100Y-104833600D01*
X137406100Y-104333600D02*
X137406100Y-105333600D01*
X139306100Y-104023600D02*
X139306100Y-105623600D01*
X139306100Y-105623600D02*
X136106100Y-105623600D01*
X136106100Y-105623600D02*
X136106100Y-104023600D01*
X137976100Y-104333600D02*
X137976100Y-105333600D01*
X136106100Y-104023600D02*
X139306100Y-104023600D01*
X137976100Y-105333600D02*
X137476100Y-104833600D01*
%TO.C,D1*%
X137976100Y-115333600D02*
X137476100Y-114833600D01*
X136106100Y-115623600D02*
X136106100Y-114023600D01*
X139306100Y-115623600D02*
X136106100Y-115623600D01*
X137976100Y-114333600D02*
X137476100Y-114833600D01*
X136106100Y-114023600D02*
X139306100Y-114023600D01*
X137976100Y-114333600D02*
X137976100Y-115333600D01*
X139306100Y-114023600D02*
X139306100Y-115623600D01*
X137406100Y-114333600D02*
X137406100Y-115333600D01*
D13*
%TO.C,C1*%
X154272348Y-112723600D02*
X154794852Y-112723600D01*
X154272348Y-111253600D02*
X154794852Y-111253600D01*
D12*
%TO.C,D3*%
X137976100Y-109333600D02*
X137976100Y-110333600D01*
X137976100Y-109333600D02*
X137476100Y-109833600D01*
X137406100Y-109333600D02*
X137406100Y-110333600D01*
X139306100Y-110623600D02*
X136106100Y-110623600D01*
X139306100Y-109023600D02*
X139306100Y-110623600D01*
X136106100Y-110623600D02*
X136106100Y-109023600D01*
X137976100Y-110333600D02*
X137476100Y-109833600D01*
X136106100Y-109023600D02*
X139306100Y-109023600D01*
D13*
%TO.C,C3*%
X147648600Y-107282348D02*
X147648600Y-107804852D01*
X146178600Y-107282348D02*
X146178600Y-107804852D01*
D14*
%TO.C,D4*%
X151034850Y-108848600D02*
X151034850Y-110048600D01*
X152634850Y-110048600D02*
X152634850Y-108848600D01*
G36*
X152584850Y-109773600D02*
G01*
X151834850Y-109773600D01*
X151834850Y-109448600D01*
X152584850Y-109448600D01*
X152584850Y-109773600D01*
G37*
D12*
%TO.C,X1*%
X149676100Y-103638600D02*
X153676100Y-103638600D01*
X153676100Y-107638600D02*
X149676100Y-107638600D01*
X149676100Y-107638600D02*
X149676100Y-103638600D01*
X153676100Y-103638600D02*
X153676100Y-107638600D01*
X153379703Y-107162600D02*
G75*
G03*
X153379703Y-107162600I-179603J0D01*
G01*
D13*
%TO.C,C4*%
X153204850Y-100502352D02*
X153204850Y-99979848D01*
X151734850Y-100502352D02*
X151734850Y-99979848D01*
%TO.C,C2*%
X145584850Y-107282348D02*
X145584850Y-107804852D01*
X144114850Y-107282348D02*
X144114850Y-107804852D01*
%TD*%
M02*
