%TF.GenerationSoftware,KiCad,Pcbnew,6.0.11+dfsg-1~bpo11+1*%
%TF.CreationDate,2023-07-05T00:40:27+00:00*%
%TF.ProjectId,USBI2C01,55534249-3243-4303-912e-6b696361645f,I2CUSB01A*%
%TF.SameCoordinates,Original*%
%TF.FileFunction,Copper,L2,Bot*%
%TF.FilePolarity,Positive*%
%FSLAX46Y46*%
G04 Gerber Fmt 4.6, Leading zero omitted, Abs format (unit mm)*
G04 Created by KiCad (PCBNEW 6.0.11+dfsg-1~bpo11+1) date 2023-07-05 00:40:27*
%MOMM*%
%LPD*%
G01*
G04 APERTURE LIST*
G04 Aperture macros list*
%AMRoundRect*
0 Rectangle with rounded corners*
0 $1 Rounding radius*
0 $2 $3 $4 $5 $6 $7 $8 $9 X,Y pos of 4 corners*
0 Add a 4 corners polygon primitive as box body*
4,1,4,$2,$3,$4,$5,$6,$7,$8,$9,$2,$3,0*
0 Add four circle primitives for the rounded corners*
1,1,$1+$1,$2,$3*
1,1,$1+$1,$4,$5*
1,1,$1+$1,$6,$7*
1,1,$1+$1,$8,$9*
0 Add four rect primitives between the rounded corners*
20,1,$1+$1,$2,$3,$4,$5,0*
20,1,$1+$1,$4,$5,$6,$7,0*
20,1,$1+$1,$6,$7,$8,$9,0*
20,1,$1+$1,$8,$9,$2,$3,0*%
G04 Aperture macros list end*
%ADD10C,0.101600*%
%TA.AperFunction,NonConductor*%
%ADD11C,0.101600*%
%TD*%
%TA.AperFunction,ComponentPad*%
%ADD12C,6.451600*%
%TD*%
%TA.AperFunction,ComponentPad*%
%ADD13R,1.651000X1.651000*%
%TD*%
%TA.AperFunction,ComponentPad*%
%ADD14C,1.422400*%
%TD*%
%TA.AperFunction,ComponentPad*%
%ADD15C,3.810000*%
%TD*%
%TA.AperFunction,SMDPad,CuDef*%
%ADD16R,1.050000X1.500000*%
%TD*%
%TA.AperFunction,SMDPad,CuDef*%
%ADD17R,3.400000X1.900000*%
%TD*%
%TA.AperFunction,SMDPad,CuDef*%
%ADD18R,1.295400X0.990600*%
%TD*%
%TA.AperFunction,SMDPad,CuDef*%
%ADD19R,0.990600X1.295400*%
%TD*%
%TA.AperFunction,SMDPad,CuDef*%
%ADD20RoundRect,0.250000X-0.250000X-0.475000X0.250000X-0.475000X0.250000X0.475000X-0.250000X0.475000X0*%
%TD*%
%TA.AperFunction,SMDPad,CuDef*%
%ADD21RoundRect,0.250000X-0.475000X0.250000X-0.475000X-0.250000X0.475000X-0.250000X0.475000X0.250000X0*%
%TD*%
%TA.AperFunction,SMDPad,CuDef*%
%ADD22R,0.350000X0.550000*%
%TD*%
%TA.AperFunction,SMDPad,CuDef*%
%ADD23R,0.250000X0.700000*%
%TD*%
%TA.AperFunction,SMDPad,CuDef*%
%ADD24R,0.700000X0.250000*%
%TD*%
%TA.AperFunction,SMDPad,CuDef*%
%ADD25R,2.700000X2.700000*%
%TD*%
%TA.AperFunction,SMDPad,CuDef*%
%ADD26RoundRect,0.250000X0.475000X-0.250000X0.475000X0.250000X-0.475000X0.250000X-0.475000X-0.250000X0*%
%TD*%
%TA.AperFunction,ViaPad*%
%ADD27C,0.906400*%
%TD*%
%TA.AperFunction,ViaPad*%
%ADD28C,1.006400*%
%TD*%
%TA.AperFunction,Conductor*%
%ADD29C,0.304800*%
%TD*%
%TA.AperFunction,Conductor*%
%ADD30C,0.254000*%
%TD*%
%TA.AperFunction,Conductor*%
%ADD31C,0.406400*%
%TD*%
%TA.AperFunction,Conductor*%
%ADD32C,0.609600*%
%TD*%
G04 APERTURE END LIST*
D10*
D11*
X152125619Y-122092961D02*
X152125619Y-120924561D01*
X151736152Y-121759133D01*
X151346686Y-120924561D01*
X151346686Y-122092961D01*
X150233924Y-122092961D02*
X150790305Y-122092961D01*
X150790305Y-120924561D01*
X149900095Y-121759133D02*
X149343714Y-121759133D01*
X150011371Y-122092961D02*
X149621905Y-120924561D01*
X149232438Y-122092961D01*
X148453505Y-121480942D02*
X148286590Y-121536580D01*
X148230952Y-121592219D01*
X148175314Y-121703495D01*
X148175314Y-121870409D01*
X148230952Y-121981685D01*
X148286590Y-122037323D01*
X148397867Y-122092961D01*
X148842971Y-122092961D01*
X148842971Y-120924561D01*
X148453505Y-120924561D01*
X148342229Y-120980200D01*
X148286590Y-121035838D01*
X148230952Y-121147114D01*
X148230952Y-121258390D01*
X148286590Y-121369666D01*
X148342229Y-121425304D01*
X148453505Y-121480942D01*
X148842971Y-121480942D01*
X147674571Y-121981685D02*
X147618933Y-122037323D01*
X147674571Y-122092961D01*
X147730210Y-122037323D01*
X147674571Y-121981685D01*
X147674571Y-122092961D01*
X146450533Y-121981685D02*
X146506171Y-122037323D01*
X146673086Y-122092961D01*
X146784362Y-122092961D01*
X146951276Y-122037323D01*
X147062552Y-121926047D01*
X147118190Y-121814771D01*
X147173829Y-121592219D01*
X147173829Y-121425304D01*
X147118190Y-121202752D01*
X147062552Y-121091476D01*
X146951276Y-120980200D01*
X146784362Y-120924561D01*
X146673086Y-120924561D01*
X146506171Y-120980200D01*
X146450533Y-121035838D01*
X146061067Y-120924561D02*
X145282133Y-120924561D01*
X146061067Y-122092961D01*
X145282133Y-122092961D01*
D10*
D11*
X150776507Y-122956838D02*
X150720869Y-122901200D01*
X150609593Y-122845561D01*
X150331402Y-122845561D01*
X150220126Y-122901200D01*
X150164488Y-122956838D01*
X150108850Y-123068114D01*
X150108850Y-123179390D01*
X150164488Y-123346304D01*
X150832145Y-124013961D01*
X150108850Y-124013961D01*
X149385555Y-122845561D02*
X149274279Y-122845561D01*
X149163002Y-122901200D01*
X149107364Y-122956838D01*
X149051726Y-123068114D01*
X148996088Y-123290666D01*
X148996088Y-123568857D01*
X149051726Y-123791409D01*
X149107364Y-123902685D01*
X149163002Y-123958323D01*
X149274279Y-124013961D01*
X149385555Y-124013961D01*
X149496831Y-123958323D01*
X149552469Y-123902685D01*
X149608107Y-123791409D01*
X149663745Y-123568857D01*
X149663745Y-123290666D01*
X149608107Y-123068114D01*
X149552469Y-122956838D01*
X149496831Y-122901200D01*
X149385555Y-122845561D01*
X147883326Y-124013961D02*
X148550983Y-124013961D01*
X148217155Y-124013961D02*
X148217155Y-122845561D01*
X148328431Y-123012476D01*
X148439707Y-123123752D01*
X148550983Y-123179390D01*
X146881840Y-123235028D02*
X146881840Y-124013961D01*
X147160031Y-122789923D02*
X147438221Y-123624495D01*
X146714926Y-123624495D01*
D10*
D11*
X146394290Y-94889561D02*
X146394290Y-95724133D01*
X146449929Y-95891047D01*
X146561205Y-96002323D01*
X146728119Y-96057961D01*
X146839395Y-96057961D01*
X145893548Y-95724133D02*
X145337167Y-95724133D01*
X146004824Y-96057961D02*
X145615357Y-94889561D01*
X145225890Y-96057961D01*
X144168767Y-95946685D02*
X144224405Y-96002323D01*
X144391319Y-96057961D01*
X144502595Y-96057961D01*
X144669510Y-96002323D01*
X144780786Y-95891047D01*
X144836424Y-95779771D01*
X144892062Y-95557219D01*
X144892062Y-95390304D01*
X144836424Y-95167752D01*
X144780786Y-95056476D01*
X144669510Y-94945200D01*
X144502595Y-94889561D01*
X144391319Y-94889561D01*
X144224405Y-94945200D01*
X144168767Y-95000838D01*
X143668024Y-96057961D02*
X143668024Y-94889561D01*
X143668024Y-95445942D02*
X143000367Y-95445942D01*
X143000367Y-96057961D02*
X143000367Y-94889561D01*
X142221433Y-94889561D02*
X141998881Y-94889561D01*
X141887605Y-94945200D01*
X141776329Y-95056476D01*
X141720690Y-95279028D01*
X141720690Y-95668495D01*
X141776329Y-95891047D01*
X141887605Y-96002323D01*
X141998881Y-96057961D01*
X142221433Y-96057961D01*
X142332710Y-96002323D01*
X142443986Y-95891047D01*
X142499624Y-95668495D01*
X142499624Y-95279028D01*
X142443986Y-95056476D01*
X142332710Y-94945200D01*
X142221433Y-94889561D01*
D12*
%TO.P,X4,P$1,P$1*%
%TO.N,GND*%
X138341100Y-89763600D03*
%TD*%
%TO.P,X3,P$1,P$1*%
%TO.N,GND*%
X138341100Y-120243600D03*
%TD*%
D13*
%TO.P,SV7,1*%
%TO.N,Net-(SV7-Pad1)*%
X153104850Y-95796100D03*
%TD*%
%TO.P,SV4,1*%
%TO.N,Net-(D2-PadK)*%
X159931100Y-100717350D03*
%TO.P,SV4,2*%
X157391100Y-100717350D03*
%TO.P,SV4,3*%
%TO.N,Net-(X1-PadP$22)*%
X159931100Y-98177350D03*
%TO.P,SV4,4*%
X157391100Y-98177350D03*
%TO.P,SV4,5*%
%TO.N,Net-(X1-PadP$21)*%
X159931100Y-95637350D03*
%TO.P,SV4,6*%
X157391100Y-95637350D03*
%TD*%
D12*
%TO.P,X6,P$1,P$1*%
%TO.N,GND*%
X158661100Y-89763600D03*
%TD*%
D13*
%TO.P,SV3,1*%
%TO.N,+3.3V*%
X146913600Y-104686100D03*
%TO.P,SV3,2*%
%TO.N,Net-(SV3-Pad2)*%
X144373600Y-104686100D03*
%TO.P,SV3,3*%
%TO.N,+5V*%
X141833600Y-104686100D03*
%TD*%
%TO.P,SV6,1*%
%TO.N,GND*%
X139611100Y-99923600D03*
%TO.P,SV6,2*%
X137071100Y-99923600D03*
%TO.P,SV6,3*%
%TO.N,+5V*%
X139611100Y-97383600D03*
%TO.P,SV6,4*%
X137071100Y-97383600D03*
%TO.P,SV6,5*%
%TO.N,GND*%
X139611100Y-94843600D03*
%TO.P,SV6,6*%
X137071100Y-94843600D03*
%TD*%
%TO.P,SV2,1*%
%TO.N,GND*%
X159931100Y-115163600D03*
%TO.P,SV2,2*%
X157391100Y-115163600D03*
%TO.P,SV2,3*%
%TO.N,Net-(X1-PadP$1)*%
X159931100Y-112623600D03*
%TO.P,SV2,4*%
X157391100Y-112623600D03*
%TO.P,SV2,5*%
%TO.N,Net-(SV3-Pad2)*%
X159931100Y-110083600D03*
%TO.P,SV2,6*%
X157391100Y-110083600D03*
%TO.P,SV2,7*%
%TO.N,Net-(X1-PadP$24)*%
X159931100Y-107543600D03*
%TO.P,SV2,8*%
X157391100Y-107543600D03*
%TO.P,SV2,9*%
%TO.N,GND*%
X159931100Y-105003600D03*
%TO.P,SV2,10*%
X157391100Y-105003600D03*
%TD*%
D12*
%TO.P,X5,P$1,P$1*%
%TO.N,GND*%
X158661100Y-120243600D03*
%TD*%
D13*
%TO.P,SV5,1*%
%TO.N,Net-(SV5-Pad1)*%
X153581100Y-88493600D03*
%TO.P,SV5,2*%
X153581100Y-91033600D03*
%TO.P,SV5,3*%
%TO.N,Net-(X1-PadP$15)*%
X151041100Y-88493600D03*
%TO.P,SV5,4*%
X151041100Y-91033600D03*
%TO.P,SV5,5*%
%TO.N,Net-(X1-PadP$14)*%
X148501100Y-88493600D03*
%TO.P,SV5,6*%
X148501100Y-91033600D03*
%TO.P,SV5,7*%
%TO.N,Net-(X1-PadP$13)*%
X145961100Y-88493600D03*
%TO.P,SV5,8*%
X145961100Y-91033600D03*
%TO.P,SV5,9*%
%TO.N,Net-(X1-PadP$12)*%
X143421100Y-88493600D03*
%TO.P,SV5,10*%
X143421100Y-91033600D03*
%TD*%
%TO.P,SV1,1*%
%TO.N,+3.3V*%
X145326100Y-100876100D03*
%TO.P,SV1,2*%
%TO.N,Net-(R5-Pad2)*%
X145326100Y-98336100D03*
%TD*%
D14*
%TO.P,X2,1,+5V*%
%TO.N,Net-(P1-Pad1)*%
X149751100Y-110463600D03*
%TO.P,X2,2,DATA-*%
%TO.N,Net-(D4-Pad4)*%
X147251100Y-110463600D03*
%TO.P,X2,3,DATA+*%
%TO.N,Net-(D4-Pad5)*%
X147251100Y-112463600D03*
%TO.P,X2,4,GND*%
%TO.N,GND*%
X149751100Y-112463600D03*
D15*
%TO.P,X2,GND,GND*%
X142501100Y-115163600D03*
%TO.P,X2,GND2,GND*%
X154501100Y-115163600D03*
%TD*%
D16*
%TO.P,D2,A,A*%
%TO.N,Net-(D2-PadA)*%
X139706100Y-104823600D03*
%TO.P,D2,K,C*%
%TO.N,Net-(D2-PadK)*%
X135706100Y-104823600D03*
%TD*%
D17*
%TO.P,P1,1,1*%
%TO.N,Net-(P1-Pad1)*%
X148501100Y-115277350D03*
%TO.P,P1,2,2*%
%TO.N,+5V*%
X148501100Y-119177350D03*
%TD*%
D18*
%TO.P,R5,1,1*%
%TO.N,Net-(R5-Pad1)*%
X147707350Y-100079850D03*
%TO.P,R5,2,2*%
%TO.N,Net-(R5-Pad2)*%
X147707350Y-98179850D03*
%TD*%
D16*
%TO.P,D1,A,A*%
%TO.N,Net-(D1-PadA)*%
X139706100Y-114823600D03*
%TO.P,D1,K,C*%
%TO.N,GND*%
X135706100Y-114823600D03*
%TD*%
D19*
%TO.P,R4,1,1*%
%TO.N,+3.3V*%
X143101100Y-108178600D03*
%TO.P,R4,2,2*%
%TO.N,Net-(D2-PadA)*%
X141201100Y-108178600D03*
%TD*%
%TO.P,R3,1,1*%
%TO.N,+3.3V*%
X143101100Y-109924850D03*
%TO.P,R3,2,2*%
%TO.N,Net-(D3-PadA)*%
X141201100Y-109924850D03*
%TD*%
D20*
%TO.P,C1,1,1*%
%TO.N,+5V*%
X153583600Y-111988600D03*
%TO.P,C1,2,2*%
%TO.N,GND*%
X155483600Y-111988600D03*
%TD*%
D16*
%TO.P,D3,A,A*%
%TO.N,Net-(D3-PadA)*%
X139706100Y-109823600D03*
%TO.P,D3,K,C*%
%TO.N,Net-(X1-PadP$22)*%
X135706100Y-109823600D03*
%TD*%
D21*
%TO.P,C3,1,1*%
%TO.N,+3.3V*%
X146913600Y-106593600D03*
%TO.P,C3,2,2*%
%TO.N,GND*%
X146913600Y-108493600D03*
%TD*%
D22*
%TO.P,D4,1*%
%TO.N,+5V*%
X152334850Y-110123600D03*
%TO.P,D4,2*%
%TO.N,GND*%
X151834850Y-110123600D03*
%TO.P,D4,3*%
%TO.N,unconnected-(D4-Pad3)*%
X151334850Y-110123600D03*
%TO.P,D4,4*%
%TO.N,Net-(D4-Pad4)*%
X151334850Y-108773600D03*
%TO.P,D4,5*%
%TO.N,Net-(D4-Pad5)*%
X152334850Y-108773600D03*
%TD*%
D23*
%TO.P,X1,P$1,SDA*%
%TO.N,Net-(X1-PadP$1)*%
X152926100Y-107613600D03*
%TO.P,X1,P$2,GND*%
%TO.N,GND*%
X152426100Y-107613600D03*
%TO.P,X1,P$3,D+*%
%TO.N,Net-(D4-Pad5)*%
X151926100Y-107613600D03*
%TO.P,X1,P$4,D-*%
%TO.N,Net-(D4-Pad4)*%
X151426100Y-107613600D03*
%TO.P,X1,P$5,VIO*%
%TO.N,Net-(R5-Pad2)*%
X150926100Y-107613600D03*
%TO.P,X1,P$6,VDD*%
%TO.N,+3.3V*%
X150426100Y-107613600D03*
D24*
%TO.P,X1,P$7,REGIN*%
%TO.N,+5V*%
X149701100Y-106888600D03*
%TO.P,X1,P$8,VBUS*%
X149701100Y-106388600D03*
%TO.P,X1,P$9,/RST*%
%TO.N,Net-(R5-Pad1)*%
X149701100Y-105888600D03*
%TO.P,X1,P$10*%
%TO.N,N/C*%
X149701100Y-105388600D03*
%TO.P,X1,P$11,SUSPEND*%
%TO.N,unconnected-(X1-PadP$11)*%
X149701100Y-104888600D03*
%TO.P,X1,P$12,GPIO7-CLK*%
%TO.N,Net-(X1-PadP$12)*%
X149701100Y-104388600D03*
D23*
%TO.P,X1,P$13,GPIO6*%
%TO.N,Net-(X1-PadP$13)*%
X150426100Y-103663600D03*
%TO.P,X1,P$14,GPIO5*%
%TO.N,Net-(X1-PadP$14)*%
X150926100Y-103663600D03*
%TO.P,X1,P$15,GPIO4*%
%TO.N,Net-(X1-PadP$15)*%
X151426100Y-103663600D03*
%TO.P,X1,P$16,VPP*%
%TO.N,Net-(C4-Pad1)*%
X151926100Y-103663600D03*
%TO.P,X1,P$17,/SUSPEND*%
%TO.N,Net-(SV7-Pad1)*%
X152426100Y-103663600D03*
%TO.P,X1,P$18*%
%TO.N,N/C*%
X152926100Y-103663600D03*
D24*
%TO.P,X1,P$19*%
X153651100Y-104388600D03*
%TO.P,X1,P$20,GPIO3*%
%TO.N,Net-(SV5-Pad1)*%
X153651100Y-104888600D03*
%TO.P,X1,P$21,GPIO2*%
%TO.N,Net-(X1-PadP$21)*%
X153651100Y-105388600D03*
%TO.P,X1,P$22,GPIO1-RXT*%
%TO.N,Net-(X1-PadP$22)*%
X153651100Y-105888600D03*
%TO.P,X1,P$23,GPIO0-TXT*%
%TO.N,Net-(D2-PadK)*%
X153651100Y-106388600D03*
%TO.P,X1,P$24,SCL*%
%TO.N,Net-(X1-PadP$24)*%
X153651100Y-106888600D03*
D25*
%TO.P,X1,P$25,GND*%
%TO.N,GND*%
X151676100Y-105638600D03*
%TD*%
D19*
%TO.P,R1,1,1*%
%TO.N,Net-(D1-PadA)*%
X141201100Y-111829850D03*
%TO.P,R1,2,2*%
%TO.N,+5V*%
X143101100Y-111829850D03*
%TD*%
D26*
%TO.P,C4,1,1*%
%TO.N,Net-(C4-Pad1)*%
X152469850Y-101191100D03*
%TO.P,C4,2,2*%
%TO.N,GND*%
X152469850Y-99291100D03*
%TD*%
D21*
%TO.P,C2,1,1*%
%TO.N,+3.3V*%
X144849850Y-106593600D03*
%TO.P,C2,2,2*%
%TO.N,GND*%
X144849850Y-108493600D03*
%TD*%
D27*
%TO.N,GND*%
X151517350Y-111036100D03*
X153422350Y-110401100D03*
X145484850Y-111353600D03*
X145484850Y-110242350D03*
X144373600Y-110242350D03*
D28*
%TO.N,Net-(D2-PadK)*%
X154851100Y-106749850D03*
X135007350Y-107226100D03*
D27*
%TO.N,Net-(R5-Pad2)*%
X148183600Y-108337350D03*
D28*
%TO.N,Net-(X1-PadP$22)*%
X135007350Y-112147350D03*
X155803600Y-105956100D03*
D27*
%TO.N,Net-(SV3-Pad2)*%
X153739850Y-109289850D03*
%TD*%
D29*
%TO.N,GND*%
X152426100Y-106388600D02*
X151676100Y-105638600D01*
X152426100Y-107613600D02*
X152426100Y-106388600D01*
D30*
X152426100Y-108134850D02*
X152469850Y-108178600D01*
X152628600Y-108178600D02*
X153104850Y-108654850D01*
X152426100Y-107613600D02*
X152426100Y-108134850D01*
X152469850Y-108178600D02*
X152628600Y-108178600D01*
D29*
%TO.N,+3.3V*%
X148888600Y-107613600D02*
X148818600Y-107543600D01*
D31*
X146913600Y-106593600D02*
X144849850Y-106593600D01*
D29*
X148818600Y-107543600D02*
X147863600Y-107543600D01*
D31*
X143101100Y-108178600D02*
X144686100Y-106593600D01*
X143101100Y-109924850D02*
X143101100Y-108178600D01*
D29*
X150426100Y-107613600D02*
X148888600Y-107613600D01*
D31*
X144686100Y-106593600D02*
X144849850Y-106593600D01*
X147863600Y-107543600D02*
X147704850Y-107384850D01*
X146913600Y-106593600D02*
X146913600Y-104686100D01*
X147704850Y-107384850D02*
X146913600Y-106593600D01*
D29*
%TO.N,+5V*%
X152334850Y-110694850D02*
X152469850Y-110718600D01*
X148322350Y-106888600D02*
X148183600Y-106749850D01*
X148298600Y-106388600D02*
X148183600Y-106273600D01*
X148183600Y-106273600D02*
X148183600Y-105162350D01*
X149701100Y-106888600D02*
X148639850Y-106888600D01*
D32*
X151676100Y-114052350D02*
X151676100Y-118179850D01*
X139611100Y-97383600D02*
X140722350Y-97383600D01*
X141833600Y-104686100D02*
X141833600Y-102781100D01*
X141833600Y-98494850D02*
X140881100Y-97542350D01*
D31*
X148183600Y-103574850D02*
X148183600Y-105162350D01*
X148183600Y-103257350D02*
X147707350Y-102781100D01*
D32*
X152334850Y-113393600D02*
X152469850Y-113258600D01*
X152311100Y-113417350D02*
X151676100Y-114052350D01*
X142151100Y-106749850D02*
X142151100Y-107067350D01*
X144373600Y-111829850D02*
X145643600Y-113099850D01*
X153583600Y-111988600D02*
X152628600Y-111988600D01*
D31*
X142151100Y-110718600D02*
X142151100Y-111036100D01*
D32*
X148704850Y-118973600D02*
X148501100Y-119177350D01*
D31*
X142151100Y-107067350D02*
X142151100Y-110718600D01*
D32*
X142944850Y-111829850D02*
X143101100Y-111829850D01*
D29*
X152334850Y-110123600D02*
X152334850Y-110694850D01*
D32*
X145643600Y-117227350D02*
X145643600Y-115843600D01*
X152628600Y-111988600D02*
X152469850Y-111829850D01*
X141833600Y-102781100D02*
X141833600Y-102622350D01*
D29*
X149701100Y-106388600D02*
X148298600Y-106388600D01*
D31*
X147707350Y-102781100D02*
X141992350Y-102781100D01*
X141992350Y-102781100D02*
X141833600Y-102622350D01*
X148183600Y-103574850D02*
X148183600Y-103257350D01*
X152334850Y-113393600D02*
X152311100Y-113417350D01*
D32*
X142151100Y-111036100D02*
X142944850Y-111829850D01*
X151676100Y-118179850D02*
X150882350Y-118973600D01*
X152469850Y-111829850D02*
X152469850Y-110718600D01*
X141833600Y-104686100D02*
X141833600Y-106432350D01*
D29*
X148639850Y-106888600D02*
X148322350Y-106888600D01*
X148183600Y-106749850D02*
X148183600Y-106273600D01*
D32*
X145643600Y-113099850D02*
X145643600Y-115843600D01*
X147389850Y-118973600D02*
X145643600Y-117227350D01*
X141833600Y-102622350D02*
X141833600Y-98494850D01*
X148704850Y-118973600D02*
X147389850Y-118973600D01*
X143101100Y-111829850D02*
X144373600Y-111829850D01*
X140722350Y-97383600D02*
X140881100Y-97542350D01*
X137071100Y-97383600D02*
X139611100Y-97383600D01*
X141833600Y-106432350D02*
X142151100Y-106749850D01*
X150882350Y-118973600D02*
X148704850Y-118973600D01*
X152469850Y-113258600D02*
X152469850Y-111829850D01*
D29*
%TO.N,Net-(C4-Pad1)*%
X152469850Y-102304850D02*
X152469850Y-101191100D01*
X151926100Y-103663600D02*
X151926100Y-102848600D01*
X151926100Y-102848600D02*
X152469850Y-102304850D01*
D31*
%TO.N,Net-(D1-PadA)*%
X139706100Y-114823600D02*
X139706100Y-112528600D01*
X140404850Y-111829850D02*
X141201100Y-111829850D01*
X139706100Y-112528600D02*
X140404850Y-111829850D01*
%TO.N,Net-(D2-PadA)*%
X139611100Y-104918600D02*
X139706100Y-104823600D01*
X139611100Y-107543600D02*
X139611100Y-104918600D01*
X141201100Y-108178600D02*
X140246100Y-108178600D01*
X140246100Y-108178600D02*
X139611100Y-107543600D01*
%TO.N,Net-(D2-PadK)*%
X135007350Y-107226100D02*
X135007350Y-105522350D01*
D29*
X154489850Y-106388600D02*
X154533600Y-106432350D01*
D31*
X135007350Y-105522350D02*
X135706100Y-104823600D01*
D29*
X153651100Y-106388600D02*
X154489850Y-106388600D01*
D31*
X154851100Y-106749850D02*
X154533600Y-106432350D01*
%TO.N,Net-(D3-PadA)*%
X139807350Y-109924850D02*
X139706100Y-109823600D01*
X141201100Y-109924850D02*
X139807350Y-109924850D01*
D32*
%TO.N,Net-(P1-Pad1)*%
X148614850Y-115163600D02*
X148501100Y-115277350D01*
X149294850Y-114687350D02*
X150882350Y-113099850D01*
X150088600Y-110801100D02*
X149751100Y-110463600D01*
X149294850Y-115163600D02*
X148614850Y-115163600D01*
X149294850Y-115163600D02*
X149294850Y-114687350D01*
X151041100Y-111988600D02*
X150088600Y-111036100D01*
X150088600Y-111036100D02*
X150088600Y-110801100D01*
X151041100Y-112941100D02*
X151041100Y-111988600D01*
X150882350Y-113099850D02*
X151041100Y-112941100D01*
D29*
%TO.N,Net-(R5-Pad1)*%
X148818600Y-101037350D02*
X147707350Y-100079850D01*
X149701100Y-105888600D02*
X149068600Y-105888600D01*
X148818600Y-105638600D02*
X148818600Y-101037350D01*
X149068600Y-105888600D02*
X148818600Y-105638600D01*
D31*
%TO.N,Net-(R5-Pad2)*%
X147707350Y-98179850D02*
X145482350Y-98179850D01*
D29*
X150723600Y-108337350D02*
X148183600Y-108337350D01*
X150926100Y-108134850D02*
X150723600Y-108337350D01*
X150926100Y-107613600D02*
X150926100Y-108134850D01*
D31*
X145482350Y-98179850D02*
X145326100Y-98336100D01*
D29*
%TO.N,Net-(SV5-Pad1)*%
X153977975Y-91430475D02*
X153581100Y-91033600D01*
X154331100Y-104888600D02*
X154692350Y-104527350D01*
X154013600Y-104888600D02*
X154331100Y-104888600D01*
X154692350Y-104527350D02*
X154692350Y-92144850D01*
X154013600Y-104888600D02*
X153651100Y-104888600D01*
X154374850Y-91827350D02*
X153977975Y-91430475D01*
X154692350Y-92144850D02*
X153977975Y-91430475D01*
X153581100Y-88493600D02*
X153581100Y-91033600D01*
%TO.N,Net-(X1-PadP$15)*%
X151426100Y-91418600D02*
X151041100Y-91033600D01*
X151041100Y-88493600D02*
X151041100Y-91033600D01*
X151426100Y-103663600D02*
X151426100Y-91418600D01*
%TO.N,Net-(X1-PadP$14)*%
X150926100Y-93458600D02*
X148501100Y-91033600D01*
X148501100Y-88493600D02*
X148501100Y-91033600D01*
X150926100Y-103663600D02*
X150926100Y-93458600D01*
%TO.N,Net-(X1-PadP$13)*%
X150426100Y-95498600D02*
X145961100Y-91033600D01*
X150426100Y-103663600D02*
X150426100Y-95498600D01*
X145961100Y-88493600D02*
X145961100Y-91033600D01*
%TO.N,Net-(X1-PadP$12)*%
X149701100Y-104388600D02*
X149701100Y-97313600D01*
X149701100Y-97313600D02*
X143421100Y-91033600D01*
X143421100Y-88493600D02*
X143421100Y-91033600D01*
D30*
%TO.N,Net-(SV7-Pad1)*%
X153739850Y-101828600D02*
X152469850Y-103098600D01*
X152426100Y-103142350D02*
X152426100Y-103663600D01*
X152469850Y-103098600D02*
X152426100Y-103142350D01*
X153104850Y-95796100D02*
X153739850Y-96589850D01*
X153739850Y-96589850D02*
X153739850Y-101828600D01*
D29*
%TO.N,Net-(D4-Pad4)*%
X147251100Y-110381100D02*
X148818600Y-108813600D01*
X151426100Y-108523600D02*
X151426100Y-108841100D01*
X151426100Y-107613600D02*
X151426100Y-108523600D01*
X151136100Y-108813600D02*
X151334850Y-108773600D01*
X148818600Y-108813600D02*
X151136100Y-108813600D01*
X147251100Y-110463600D02*
X147251100Y-110381100D01*
X151426100Y-108841100D02*
X151334850Y-108773600D01*
%TO.N,Net-(D4-Pad5)*%
X147251100Y-112463600D02*
X147251100Y-112127350D01*
X151926100Y-108654850D02*
X151926100Y-107613600D01*
X148342350Y-111036100D02*
X148342350Y-110242350D01*
X151926100Y-108654850D02*
X151926100Y-108813600D01*
X151926100Y-108813600D02*
X151926100Y-109039850D01*
X149136100Y-109448600D02*
X148342350Y-110242350D01*
X149136100Y-109448600D02*
X151517350Y-109448600D01*
X151966100Y-108773600D02*
X151926100Y-108813600D01*
X147251100Y-112127350D02*
X148342350Y-111036100D01*
X151517350Y-109448600D02*
X151926100Y-109039850D01*
X152334850Y-108773600D02*
X151966100Y-108773600D01*
%TO.N,Net-(X1-PadP$22)*%
X153651100Y-105888600D02*
X155894850Y-105888600D01*
D31*
X135007350Y-112147350D02*
X135007350Y-110522350D01*
D29*
X157391100Y-98177350D02*
X159931100Y-98177350D01*
D31*
X135007350Y-110522350D02*
X135706100Y-109823600D01*
D29*
X155894850Y-105888600D02*
X155803600Y-105956100D01*
X155803600Y-99764850D02*
X157391100Y-98177350D01*
X155803600Y-105956100D02*
X155803600Y-99764850D01*
%TO.N,Net-(X1-PadP$21)*%
X155327350Y-97701100D02*
X157391100Y-95637350D01*
X153651100Y-105388600D02*
X154783600Y-105388600D01*
D30*
X157391100Y-95637350D02*
X159931100Y-95637350D01*
D29*
X154783600Y-105388600D02*
X155327350Y-104844850D01*
X155327350Y-104844850D02*
X155327350Y-97701100D01*
%TO.N,Net-(X1-PadP$1)*%
X158343600Y-108813600D02*
X158661100Y-109131100D01*
X153333600Y-107613600D02*
X154533600Y-108813600D01*
X152926100Y-107613600D02*
X153333600Y-107613600D01*
X158661100Y-109131100D02*
X158661100Y-112623600D01*
X159931100Y-112623600D02*
X158661100Y-112623600D01*
X158661100Y-112623600D02*
X157391100Y-112623600D01*
X154533600Y-108813600D02*
X158343600Y-108813600D01*
D31*
%TO.N,Net-(SV3-Pad2)*%
X154533600Y-110083600D02*
X153739850Y-109289850D01*
X157391100Y-110083600D02*
X154533600Y-110083600D01*
D29*
%TO.N,Net-(X1-PadP$24)*%
X154216100Y-107702350D02*
X157232350Y-107702350D01*
X157232350Y-107702350D02*
X157391100Y-107543600D01*
D31*
X159931100Y-107543600D02*
X157391100Y-107543600D01*
D29*
X153651100Y-106888600D02*
X153651100Y-107137350D01*
X153651100Y-107137350D02*
X154216100Y-107702350D01*
%TD*%
%TA.AperFunction,Conductor*%
%TO.N,GND*%
G36*
X163434738Y-84980693D02*
G01*
X163460458Y-85025242D01*
X163461600Y-85038300D01*
X163461600Y-124968900D01*
X163444007Y-125017238D01*
X163399458Y-125042958D01*
X163386400Y-125044100D01*
X133615800Y-125044100D01*
X133567462Y-125026507D01*
X133541742Y-124981958D01*
X133540600Y-124968900D01*
X133540600Y-122901329D01*
X135939482Y-122901329D01*
X135941067Y-122907247D01*
X135943454Y-122909396D01*
X136232058Y-123143103D01*
X136235237Y-123145413D01*
X136546700Y-123347679D01*
X136550087Y-123349634D01*
X136880989Y-123518238D01*
X136884580Y-123519836D01*
X137231266Y-123652916D01*
X137235023Y-123654137D01*
X137593724Y-123750251D01*
X137597584Y-123751071D01*
X137964361Y-123809163D01*
X137968282Y-123809575D01*
X138339135Y-123829011D01*
X138343065Y-123829011D01*
X138713918Y-123809575D01*
X138717839Y-123809163D01*
X139084616Y-123751071D01*
X139088476Y-123750251D01*
X139447177Y-123654137D01*
X139450934Y-123652916D01*
X139797620Y-123519836D01*
X139801211Y-123518238D01*
X140132113Y-123349634D01*
X140135500Y-123347679D01*
X140446963Y-123145413D01*
X140450142Y-123143103D01*
X140738452Y-122909634D01*
X140742718Y-122900485D01*
X140741113Y-122894494D01*
X138350477Y-120503858D01*
X138340678Y-120499289D01*
X138334687Y-120500894D01*
X135944051Y-122891530D01*
X135939482Y-122901329D01*
X133540600Y-122901329D01*
X133540600Y-120245565D01*
X134755689Y-120245565D01*
X134775125Y-120616418D01*
X134775537Y-120620339D01*
X134833629Y-120987116D01*
X134834449Y-120990976D01*
X134930563Y-121349677D01*
X134931784Y-121353434D01*
X135064864Y-121700120D01*
X135066462Y-121703711D01*
X135235066Y-122034613D01*
X135237021Y-122038000D01*
X135439287Y-122349463D01*
X135441597Y-122352642D01*
X135675066Y-122640952D01*
X135684215Y-122645218D01*
X135690206Y-122643613D01*
X138080842Y-120252977D01*
X138085017Y-120244022D01*
X138596789Y-120244022D01*
X138598394Y-120250013D01*
X140989030Y-122640649D01*
X140998829Y-122645218D01*
X141004747Y-122643633D01*
X141006896Y-122641246D01*
X141240603Y-122352642D01*
X141242913Y-122349463D01*
X141445179Y-122038000D01*
X141447134Y-122034613D01*
X141615738Y-121703711D01*
X141617336Y-121700120D01*
X141750416Y-121353434D01*
X141751637Y-121349677D01*
X141847751Y-120990976D01*
X141848571Y-120987116D01*
X141906663Y-120620339D01*
X141907075Y-120616418D01*
X141926511Y-120245565D01*
X141926511Y-120241635D01*
X141907075Y-119870782D01*
X141906663Y-119866861D01*
X141848571Y-119500084D01*
X141847751Y-119496224D01*
X141751637Y-119137523D01*
X141750416Y-119133766D01*
X141617336Y-118787080D01*
X141615738Y-118783489D01*
X141447134Y-118452587D01*
X141445179Y-118449200D01*
X141242913Y-118137737D01*
X141240603Y-118134558D01*
X141007134Y-117846248D01*
X140997985Y-117841982D01*
X140991994Y-117843587D01*
X138601358Y-120234223D01*
X138596789Y-120244022D01*
X138085017Y-120244022D01*
X138085411Y-120243178D01*
X138083806Y-120237187D01*
X135693170Y-117846551D01*
X135683371Y-117841982D01*
X135677453Y-117843567D01*
X135675304Y-117845954D01*
X135441597Y-118134558D01*
X135439287Y-118137737D01*
X135237021Y-118449200D01*
X135235066Y-118452587D01*
X135066462Y-118783489D01*
X135064864Y-118787080D01*
X134931784Y-119133766D01*
X134930563Y-119137523D01*
X134834449Y-119496224D01*
X134833629Y-119500084D01*
X134775537Y-119866861D01*
X134775125Y-119870782D01*
X134755689Y-120241635D01*
X134755689Y-120245565D01*
X133540600Y-120245565D01*
X133540600Y-117586715D01*
X135939482Y-117586715D01*
X135941087Y-117592706D01*
X138331723Y-119983342D01*
X138341522Y-119987911D01*
X138347513Y-119986306D01*
X140738149Y-117595670D01*
X140742718Y-117585871D01*
X140741133Y-117579953D01*
X140738746Y-117577804D01*
X140450142Y-117344097D01*
X140446963Y-117341787D01*
X140135500Y-117139521D01*
X140132113Y-117137566D01*
X139801211Y-116968962D01*
X139797620Y-116967364D01*
X139576776Y-116882590D01*
X141038222Y-116882590D01*
X141039551Y-116887550D01*
X141120614Y-116958640D01*
X141124521Y-116961638D01*
X141366729Y-117123477D01*
X141370979Y-117125931D01*
X141632247Y-117254774D01*
X141636791Y-117256655D01*
X141912635Y-117350292D01*
X141917379Y-117351563D01*
X142203083Y-117408393D01*
X142207967Y-117409036D01*
X142498644Y-117428088D01*
X142503556Y-117428088D01*
X142794233Y-117409036D01*
X142799117Y-117408393D01*
X143084821Y-117351563D01*
X143089565Y-117350292D01*
X143365409Y-117256655D01*
X143369953Y-117254774D01*
X143631221Y-117125931D01*
X143635471Y-117123477D01*
X143877679Y-116961638D01*
X143881586Y-116958640D01*
X143958816Y-116890911D01*
X143964016Y-116881434D01*
X143963014Y-116876396D01*
X142510477Y-115423858D01*
X142500678Y-115419289D01*
X142494687Y-115420894D01*
X141042791Y-116872791D01*
X141038222Y-116882590D01*
X139576776Y-116882590D01*
X139450934Y-116834284D01*
X139447177Y-116833063D01*
X139088476Y-116736949D01*
X139084616Y-116736129D01*
X138717839Y-116678037D01*
X138713918Y-116677625D01*
X138343065Y-116658189D01*
X138339135Y-116658189D01*
X137968282Y-116677625D01*
X137964361Y-116678037D01*
X137597584Y-116736129D01*
X137593724Y-116736949D01*
X137235023Y-116833063D01*
X137231266Y-116834284D01*
X136884580Y-116967364D01*
X136880989Y-116968962D01*
X136550087Y-117137566D01*
X136546700Y-117139521D01*
X136235237Y-117341787D01*
X136232058Y-117344097D01*
X135943748Y-117577566D01*
X135939482Y-117586715D01*
X133540600Y-117586715D01*
X133540600Y-115604480D01*
X134826301Y-115604480D01*
X134826702Y-115609949D01*
X134835715Y-115671184D01*
X134839141Y-115682209D01*
X134885885Y-115777417D01*
X134893019Y-115787382D01*
X134967820Y-115862051D01*
X134977802Y-115869172D01*
X135073095Y-115915752D01*
X135084109Y-115919156D01*
X135144768Y-115928006D01*
X135150201Y-115928400D01*
X135515441Y-115928400D01*
X135525598Y-115924703D01*
X135528700Y-115919331D01*
X135528700Y-115014259D01*
X135525003Y-115004102D01*
X135519631Y-115001000D01*
X134839560Y-115001000D01*
X134829403Y-115004697D01*
X134826301Y-115010069D01*
X134826301Y-115604480D01*
X133540600Y-115604480D01*
X133540600Y-114632941D01*
X134826300Y-114632941D01*
X134829997Y-114643098D01*
X134835369Y-114646200D01*
X135515441Y-114646200D01*
X135525598Y-114642503D01*
X135528700Y-114637131D01*
X135528700Y-113732060D01*
X135525003Y-113721903D01*
X135519631Y-113718801D01*
X135150220Y-113718801D01*
X135144751Y-113719202D01*
X135083516Y-113728215D01*
X135072491Y-113731641D01*
X134977283Y-113778385D01*
X134967318Y-113785519D01*
X134892649Y-113860320D01*
X134885528Y-113870302D01*
X134838948Y-113965595D01*
X134835544Y-113976609D01*
X134826694Y-114037268D01*
X134826300Y-114042701D01*
X134826300Y-114632941D01*
X133540600Y-114632941D01*
X133540600Y-112140429D01*
X134346467Y-112140429D01*
X134346964Y-112144931D01*
X134346964Y-112144935D01*
X134357171Y-112237387D01*
X134363893Y-112298271D01*
X134365449Y-112302523D01*
X134365450Y-112302527D01*
X134389025Y-112366948D01*
X134418467Y-112447401D01*
X134420991Y-112451157D01*
X134420993Y-112451161D01*
X134478150Y-112536219D01*
X134507038Y-112579208D01*
X134624492Y-112686083D01*
X134628473Y-112688244D01*
X134628475Y-112688246D01*
X134664049Y-112707561D01*
X134764049Y-112761857D01*
X134768428Y-112763006D01*
X134768431Y-112763007D01*
X134898727Y-112797189D01*
X134917653Y-112802154D01*
X134981674Y-112803160D01*
X135071903Y-112804577D01*
X135071905Y-112804577D01*
X135076435Y-112804648D01*
X135080853Y-112803636D01*
X135080855Y-112803636D01*
X135226806Y-112770209D01*
X135226808Y-112770208D01*
X135231228Y-112769196D01*
X135373097Y-112697843D01*
X135386867Y-112686083D01*
X135457175Y-112626034D01*
X135493851Y-112594710D01*
X135564613Y-112496234D01*
X135583872Y-112469433D01*
X135583874Y-112469430D01*
X135586518Y-112465750D01*
X135588959Y-112459680D01*
X135631170Y-112354675D01*
X135645749Y-112318408D01*
X135657525Y-112235662D01*
X135667779Y-112163618D01*
X135667779Y-112163612D01*
X135668124Y-112161191D01*
X135668269Y-112147350D01*
X135649191Y-111989699D01*
X135647486Y-111985186D01*
X135594663Y-111845393D01*
X135594662Y-111845391D01*
X135593059Y-111841149D01*
X135553062Y-111782952D01*
X135505681Y-111714012D01*
X135505679Y-111714010D01*
X135503113Y-111710276D01*
X135477952Y-111687858D01*
X135388625Y-111608272D01*
X135364238Y-111562981D01*
X135363450Y-111552125D01*
X135363450Y-110801700D01*
X135381043Y-110753362D01*
X135425592Y-110727642D01*
X135438650Y-110726500D01*
X136204794Y-110726499D01*
X136246156Y-110726499D01*
X136270850Y-110721588D01*
X136283489Y-110719074D01*
X136283490Y-110719074D01*
X136290758Y-110717628D01*
X136296921Y-110713510D01*
X136299318Y-110712517D01*
X136350709Y-110710273D01*
X136392215Y-110742701D01*
X136407264Y-110767259D01*
X136570876Y-110958824D01*
X136573117Y-110960738D01*
X136582507Y-110968758D01*
X136762441Y-111122436D01*
X136764964Y-111123982D01*
X136974716Y-111252519D01*
X136974719Y-111252521D01*
X136977241Y-111254066D01*
X137014838Y-111269639D01*
X137207255Y-111349341D01*
X137207260Y-111349343D01*
X137209989Y-111350473D01*
X137212866Y-111351164D01*
X137212870Y-111351165D01*
X137424587Y-111401993D01*
X137454952Y-111409283D01*
X137457896Y-111409515D01*
X137457898Y-111409515D01*
X137641740Y-111423984D01*
X137641748Y-111423984D01*
X137643218Y-111424100D01*
X137768982Y-111424100D01*
X137770452Y-111423984D01*
X137770460Y-111423984D01*
X137954302Y-111409515D01*
X137954304Y-111409515D01*
X137957248Y-111409283D01*
X137987613Y-111401993D01*
X138199330Y-111351165D01*
X138199334Y-111351164D01*
X138202211Y-111350473D01*
X138204940Y-111349343D01*
X138204945Y-111349341D01*
X138397362Y-111269639D01*
X138434959Y-111254066D01*
X138437481Y-111252521D01*
X138437484Y-111252519D01*
X138647236Y-111123982D01*
X138649759Y-111122436D01*
X138829693Y-110968758D01*
X138839083Y-110960738D01*
X138841324Y-110958824D01*
X139004936Y-110767259D01*
X139013452Y-110753362D01*
X139019986Y-110742701D01*
X139060244Y-110710680D01*
X139112882Y-110712518D01*
X139115282Y-110713512D01*
X139121442Y-110717628D01*
X139166043Y-110726500D01*
X139706026Y-110726500D01*
X140246156Y-110726499D01*
X140290758Y-110717628D01*
X140341334Y-110683834D01*
X140365281Y-110647995D01*
X140371013Y-110639417D01*
X140371014Y-110639416D01*
X140375128Y-110633258D01*
X140379281Y-110612382D01*
X140383279Y-110592282D01*
X140383279Y-110592281D01*
X140384000Y-110588657D01*
X140384000Y-110356150D01*
X140401593Y-110307812D01*
X140446142Y-110282092D01*
X140459200Y-110280950D01*
X140477701Y-110280950D01*
X140526039Y-110298543D01*
X140551759Y-110343092D01*
X140552901Y-110356150D01*
X140552901Y-110587606D01*
X140561772Y-110632208D01*
X140595566Y-110682784D01*
X140601723Y-110686898D01*
X140639983Y-110712463D01*
X140639984Y-110712464D01*
X140646142Y-110716578D01*
X140653406Y-110718023D01*
X140658685Y-110719073D01*
X140690743Y-110725450D01*
X140779211Y-110725450D01*
X141672509Y-110725449D01*
X141720847Y-110743042D01*
X141746567Y-110787591D01*
X141741288Y-110831055D01*
X141704636Y-110913961D01*
X141703976Y-110919541D01*
X141703975Y-110919543D01*
X141703677Y-110922059D01*
X141699100Y-110960738D01*
X141698845Y-110962889D01*
X141675692Y-111008823D01*
X141624166Y-111029250D01*
X140743181Y-111029251D01*
X140690744Y-111029251D01*
X140646142Y-111038122D01*
X140595566Y-111071916D01*
X140591452Y-111078073D01*
X140569343Y-111111162D01*
X140561772Y-111122492D01*
X140560327Y-111129756D01*
X140555271Y-111155176D01*
X140552900Y-111167093D01*
X140552900Y-111398550D01*
X140535307Y-111446888D01*
X140490758Y-111472608D01*
X140477700Y-111473750D01*
X140450876Y-111473750D01*
X140435048Y-111472065D01*
X140427939Y-111470535D01*
X140427936Y-111470535D01*
X140421857Y-111469226D01*
X140393283Y-111472608D01*
X140388036Y-111473229D01*
X140379197Y-111473750D01*
X140375266Y-111473750D01*
X140372206Y-111474259D01*
X140372198Y-111474260D01*
X140356417Y-111476887D01*
X140352921Y-111477385D01*
X140323159Y-111480908D01*
X140310303Y-111482429D01*
X140310302Y-111482429D01*
X140304128Y-111483160D01*
X140298523Y-111485852D01*
X140297369Y-111486187D01*
X140296554Y-111486373D01*
X140295942Y-111486566D01*
X140295171Y-111486882D01*
X140294037Y-111487270D01*
X140287908Y-111488290D01*
X140282440Y-111491240D01*
X140282438Y-111491241D01*
X140244687Y-111511611D01*
X140241568Y-111513201D01*
X140197260Y-111534478D01*
X140193250Y-111537849D01*
X140192296Y-111538803D01*
X140188760Y-111541788D01*
X140183576Y-111544585D01*
X140160457Y-111569595D01*
X140148646Y-111582372D01*
X140146599Y-111584500D01*
X139486844Y-112244255D01*
X139474459Y-112254258D01*
X139468345Y-112258205D01*
X139468343Y-112258206D01*
X139463126Y-112261575D01*
X139459282Y-112266451D01*
X139459280Y-112266453D01*
X139442042Y-112288320D01*
X139436160Y-112294938D01*
X139433380Y-112297718D01*
X139431575Y-112300244D01*
X139431574Y-112300245D01*
X139422262Y-112313275D01*
X139420136Y-112316106D01*
X139395400Y-112347485D01*
X139389732Y-112354675D01*
X139387672Y-112360541D01*
X139387096Y-112361589D01*
X139386645Y-112362306D01*
X139386356Y-112362862D01*
X139386035Y-112363629D01*
X139385503Y-112364716D01*
X139381890Y-112369771D01*
X139380109Y-112375727D01*
X139367819Y-112416823D01*
X139366735Y-112420162D01*
X139350452Y-112466529D01*
X139350000Y-112471748D01*
X139350000Y-112473104D01*
X139349610Y-112477712D01*
X139347923Y-112483352D01*
X139348167Y-112489561D01*
X139349942Y-112534743D01*
X139350000Y-112537695D01*
X139350000Y-113845501D01*
X139332407Y-113893839D01*
X139287858Y-113919559D01*
X139274800Y-113920701D01*
X139166044Y-113920701D01*
X139141350Y-113925612D01*
X139128711Y-113928126D01*
X139128710Y-113928126D01*
X139121442Y-113929572D01*
X139115279Y-113933690D01*
X139112882Y-113934683D01*
X139061491Y-113936927D01*
X139019985Y-113904499D01*
X139006478Y-113882457D01*
X139006477Y-113882455D01*
X139004936Y-113879941D01*
X138841324Y-113688376D01*
X138649759Y-113524764D01*
X138597699Y-113492861D01*
X138437484Y-113394681D01*
X138437481Y-113394679D01*
X138434959Y-113393134D01*
X138318685Y-113344972D01*
X138204945Y-113297859D01*
X138204940Y-113297857D01*
X138202211Y-113296727D01*
X138199334Y-113296036D01*
X138199330Y-113296035D01*
X137960122Y-113238607D01*
X137957248Y-113237917D01*
X137954304Y-113237685D01*
X137954302Y-113237685D01*
X137770460Y-113223216D01*
X137770452Y-113223216D01*
X137768982Y-113223100D01*
X137643218Y-113223100D01*
X137641748Y-113223216D01*
X137641740Y-113223216D01*
X137457898Y-113237685D01*
X137457896Y-113237685D01*
X137454952Y-113237917D01*
X137452078Y-113238607D01*
X137212870Y-113296035D01*
X137212866Y-113296036D01*
X137209989Y-113296727D01*
X137207260Y-113297857D01*
X137207255Y-113297859D01*
X137093515Y-113344972D01*
X136977241Y-113393134D01*
X136974719Y-113394679D01*
X136974716Y-113394681D01*
X136814501Y-113492861D01*
X136762441Y-113524764D01*
X136570876Y-113688376D01*
X136514509Y-113754373D01*
X136469740Y-113779703D01*
X136424303Y-113773094D01*
X136339105Y-113731448D01*
X136328091Y-113728044D01*
X136267432Y-113719194D01*
X136261999Y-113718800D01*
X135896759Y-113718800D01*
X135886602Y-113722497D01*
X135883500Y-113727869D01*
X135883500Y-115915140D01*
X135887197Y-115925297D01*
X135892569Y-115928399D01*
X136261980Y-115928399D01*
X136267449Y-115927998D01*
X136328684Y-115918985D01*
X136339709Y-115915559D01*
X136424137Y-115874107D01*
X136475280Y-115868596D01*
X136514461Y-115892771D01*
X136544891Y-115928400D01*
X136570876Y-115958824D01*
X136762441Y-116122436D01*
X136764964Y-116123982D01*
X136974716Y-116252519D01*
X136974719Y-116252521D01*
X136977241Y-116254066D01*
X137050269Y-116284315D01*
X137207255Y-116349341D01*
X137207260Y-116349343D01*
X137209989Y-116350473D01*
X137212866Y-116351164D01*
X137212870Y-116351165D01*
X137439668Y-116405614D01*
X137454952Y-116409283D01*
X137457896Y-116409515D01*
X137457898Y-116409515D01*
X137641740Y-116423984D01*
X137641748Y-116423984D01*
X137643218Y-116424100D01*
X137768982Y-116424100D01*
X137770452Y-116423984D01*
X137770460Y-116423984D01*
X137954302Y-116409515D01*
X137954304Y-116409515D01*
X137957248Y-116409283D01*
X137972532Y-116405614D01*
X138199330Y-116351165D01*
X138199334Y-116351164D01*
X138202211Y-116350473D01*
X138204940Y-116349343D01*
X138204945Y-116349341D01*
X138361931Y-116284315D01*
X138434959Y-116254066D01*
X138437481Y-116252521D01*
X138437484Y-116252519D01*
X138647236Y-116123982D01*
X138649759Y-116122436D01*
X138841324Y-115958824D01*
X139004936Y-115767259D01*
X139014247Y-115752065D01*
X139019986Y-115742701D01*
X139060244Y-115710680D01*
X139112882Y-115712518D01*
X139115282Y-115713512D01*
X139121442Y-115717628D01*
X139166043Y-115726500D01*
X139706026Y-115726500D01*
X140246156Y-115726499D01*
X140246156Y-115726798D01*
X140294115Y-115739089D01*
X140322867Y-115776985D01*
X140408045Y-116027909D01*
X140409926Y-116032453D01*
X140538768Y-116293717D01*
X140541222Y-116297968D01*
X140703068Y-116540188D01*
X140706056Y-116544082D01*
X140773789Y-116621316D01*
X140783266Y-116626516D01*
X140788304Y-116625514D01*
X142240842Y-115172977D01*
X142245017Y-115164022D01*
X142756789Y-115164022D01*
X142758394Y-115170013D01*
X144210291Y-116621909D01*
X144220090Y-116626478D01*
X144225050Y-116625149D01*
X144296144Y-116544082D01*
X144299132Y-116540188D01*
X144460978Y-116297968D01*
X144463432Y-116293717D01*
X144592274Y-116032453D01*
X144594155Y-116027909D01*
X144687792Y-115752065D01*
X144689063Y-115747321D01*
X144745893Y-115461617D01*
X144746536Y-115456733D01*
X144765588Y-115166056D01*
X144765588Y-115161144D01*
X144746536Y-114870467D01*
X144745893Y-114865583D01*
X144689063Y-114579879D01*
X144687792Y-114575135D01*
X144594155Y-114299291D01*
X144592274Y-114294747D01*
X144463432Y-114033483D01*
X144460978Y-114029232D01*
X144299132Y-113787012D01*
X144296144Y-113783118D01*
X144228411Y-113705884D01*
X144218934Y-113700684D01*
X144213896Y-113701686D01*
X142761358Y-115154223D01*
X142756789Y-115164022D01*
X142245017Y-115164022D01*
X142245411Y-115163178D01*
X142243806Y-115157187D01*
X140791909Y-113705291D01*
X140782110Y-113700722D01*
X140777150Y-113702051D01*
X140706056Y-113783118D01*
X140703068Y-113787012D01*
X140541222Y-114029232D01*
X140538768Y-114033483D01*
X140522912Y-114065635D01*
X140485754Y-114101206D01*
X140434424Y-114104571D01*
X140392940Y-114074154D01*
X140381712Y-114047045D01*
X140376573Y-114021208D01*
X140375128Y-114013942D01*
X140341334Y-113963366D01*
X140315494Y-113946100D01*
X140296917Y-113933687D01*
X140296916Y-113933686D01*
X140290758Y-113929572D01*
X140246157Y-113920700D01*
X140137400Y-113920700D01*
X140089062Y-113903107D01*
X140063342Y-113858558D01*
X140062200Y-113845500D01*
X140062200Y-113445766D01*
X141038184Y-113445766D01*
X141039186Y-113450804D01*
X142491723Y-114903342D01*
X142501522Y-114907911D01*
X142507513Y-114906306D01*
X143959409Y-113454409D01*
X143963978Y-113444610D01*
X143962649Y-113439650D01*
X143881586Y-113368560D01*
X143877679Y-113365562D01*
X143635471Y-113203723D01*
X143631221Y-113201269D01*
X143369953Y-113072426D01*
X143365409Y-113070545D01*
X143089565Y-112976908D01*
X143084821Y-112975637D01*
X142799117Y-112918807D01*
X142794233Y-112918164D01*
X142503556Y-112899112D01*
X142498644Y-112899112D01*
X142207967Y-112918164D01*
X142203083Y-112918807D01*
X141917379Y-112975637D01*
X141912635Y-112976908D01*
X141636791Y-113070545D01*
X141632247Y-113072426D01*
X141370983Y-113201268D01*
X141366732Y-113203722D01*
X141124512Y-113365568D01*
X141120618Y-113368556D01*
X141043384Y-113436289D01*
X141038184Y-113445766D01*
X140062200Y-113445766D01*
X140062200Y-112707249D01*
X140079793Y-112658911D01*
X140084226Y-112654075D01*
X140424527Y-112313774D01*
X140471147Y-112292034D01*
X140520834Y-112305348D01*
X140550339Y-112347485D01*
X140552901Y-112366948D01*
X140552901Y-112492606D01*
X140561772Y-112537208D01*
X140595566Y-112587784D01*
X140601723Y-112591898D01*
X140639983Y-112617463D01*
X140639984Y-112617464D01*
X140646142Y-112621578D01*
X140690743Y-112630450D01*
X141201030Y-112630450D01*
X141711456Y-112630449D01*
X141756058Y-112621578D01*
X141806634Y-112587784D01*
X141840428Y-112537208D01*
X141849300Y-112492607D01*
X141849299Y-111563132D01*
X141866892Y-111514794D01*
X141911441Y-111489074D01*
X141962099Y-111498007D01*
X141977673Y-111509958D01*
X142430875Y-111963160D01*
X142452615Y-112009780D01*
X142452901Y-112016334D01*
X142452901Y-112492606D01*
X142461772Y-112537208D01*
X142495566Y-112587784D01*
X142501723Y-112591898D01*
X142539983Y-112617463D01*
X142539984Y-112617464D01*
X142546142Y-112621578D01*
X142590743Y-112630450D01*
X143101030Y-112630450D01*
X143611456Y-112630449D01*
X143656058Y-112621578D01*
X143706634Y-112587784D01*
X143740428Y-112537208D01*
X143749300Y-112492607D01*
X143749300Y-112362750D01*
X143766893Y-112314412D01*
X143811442Y-112288692D01*
X143824500Y-112287550D01*
X144152867Y-112287550D01*
X144201205Y-112305143D01*
X144206041Y-112309576D01*
X145163874Y-113267410D01*
X145185614Y-113314030D01*
X145185900Y-113320584D01*
X145185900Y-117195701D01*
X145185379Y-117204539D01*
X145180958Y-117241890D01*
X145181968Y-117247420D01*
X145181968Y-117247421D01*
X145191819Y-117301357D01*
X145192204Y-117303670D01*
X145201192Y-117363452D01*
X145203553Y-117368369D01*
X145203643Y-117368737D01*
X145203739Y-117369017D01*
X145204466Y-117371255D01*
X145204561Y-117371564D01*
X145204705Y-117371916D01*
X145205685Y-117377281D01*
X145208275Y-117382267D01*
X145208276Y-117382270D01*
X145233546Y-117430916D01*
X145234602Y-117433029D01*
X145260769Y-117487522D01*
X145264472Y-117491528D01*
X145265023Y-117492451D01*
X145267152Y-117495610D01*
X145269130Y-117499418D01*
X145273509Y-117504544D01*
X145312067Y-117543102D01*
X145314114Y-117545230D01*
X145354194Y-117588588D01*
X145359057Y-117591413D01*
X145362475Y-117594151D01*
X145368631Y-117599666D01*
X146626174Y-118857209D01*
X146647914Y-118903829D01*
X146648200Y-118910383D01*
X146648201Y-119458162D01*
X146648201Y-119963176D01*
X146630608Y-120011514D01*
X146586059Y-120037234D01*
X146573001Y-120038376D01*
X144926760Y-120038376D01*
X144926760Y-122377700D01*
X146284352Y-122377700D01*
X146332690Y-122395293D01*
X146358410Y-122439842D01*
X146359552Y-122452900D01*
X146359552Y-124298700D01*
X151218000Y-124298700D01*
X151218000Y-122901329D01*
X156259482Y-122901329D01*
X156261067Y-122907247D01*
X156263454Y-122909396D01*
X156552058Y-123143103D01*
X156555237Y-123145413D01*
X156866700Y-123347679D01*
X156870087Y-123349634D01*
X157200989Y-123518238D01*
X157204580Y-123519836D01*
X157551266Y-123652916D01*
X157555023Y-123654137D01*
X157913724Y-123750251D01*
X157917584Y-123751071D01*
X158284361Y-123809163D01*
X158288282Y-123809575D01*
X158659135Y-123829011D01*
X158663065Y-123829011D01*
X159033918Y-123809575D01*
X159037839Y-123809163D01*
X159404616Y-123751071D01*
X159408476Y-123750251D01*
X159767177Y-123654137D01*
X159770934Y-123652916D01*
X160117620Y-123519836D01*
X160121211Y-123518238D01*
X160452113Y-123349634D01*
X160455500Y-123347679D01*
X160766963Y-123145413D01*
X160770142Y-123143103D01*
X161058452Y-122909634D01*
X161062718Y-122900485D01*
X161061113Y-122894494D01*
X158670477Y-120503858D01*
X158660678Y-120499289D01*
X158654687Y-120500894D01*
X156264051Y-122891530D01*
X156259482Y-122901329D01*
X151218000Y-122901329D01*
X151218000Y-122452900D01*
X151235593Y-122404562D01*
X151280142Y-122378842D01*
X151293200Y-122377700D01*
X152622750Y-122377700D01*
X152622750Y-120245565D01*
X155075689Y-120245565D01*
X155095125Y-120616418D01*
X155095537Y-120620339D01*
X155153629Y-120987116D01*
X155154449Y-120990976D01*
X155250563Y-121349677D01*
X155251784Y-121353434D01*
X155384864Y-121700120D01*
X155386462Y-121703711D01*
X155555066Y-122034613D01*
X155557021Y-122038000D01*
X155759287Y-122349463D01*
X155761597Y-122352642D01*
X155995066Y-122640952D01*
X156004215Y-122645218D01*
X156010206Y-122643613D01*
X158400842Y-120252977D01*
X158405017Y-120244022D01*
X158916789Y-120244022D01*
X158918394Y-120250013D01*
X161309030Y-122640649D01*
X161318829Y-122645218D01*
X161324747Y-122643633D01*
X161326896Y-122641246D01*
X161560603Y-122352642D01*
X161562913Y-122349463D01*
X161765179Y-122038000D01*
X161767134Y-122034613D01*
X161935738Y-121703711D01*
X161937336Y-121700120D01*
X162070416Y-121353434D01*
X162071637Y-121349677D01*
X162167751Y-120990976D01*
X162168571Y-120987116D01*
X162226663Y-120620339D01*
X162227075Y-120616418D01*
X162246511Y-120245565D01*
X162246511Y-120241635D01*
X162227075Y-119870782D01*
X162226663Y-119866861D01*
X162168571Y-119500084D01*
X162167751Y-119496224D01*
X162071637Y-119137523D01*
X162070416Y-119133766D01*
X161937336Y-118787080D01*
X161935738Y-118783489D01*
X161767134Y-118452587D01*
X161765179Y-118449200D01*
X161562913Y-118137737D01*
X161560603Y-118134558D01*
X161327134Y-117846248D01*
X161317985Y-117841982D01*
X161311994Y-117843587D01*
X158921358Y-120234223D01*
X158916789Y-120244022D01*
X158405017Y-120244022D01*
X158405411Y-120243178D01*
X158403806Y-120237187D01*
X156013170Y-117846551D01*
X156003371Y-117841982D01*
X155997453Y-117843567D01*
X155995304Y-117845954D01*
X155761597Y-118134558D01*
X155759287Y-118137737D01*
X155557021Y-118449200D01*
X155555066Y-118452587D01*
X155386462Y-118783489D01*
X155384864Y-118787080D01*
X155251784Y-119133766D01*
X155250563Y-119137523D01*
X155154449Y-119496224D01*
X155153629Y-119500084D01*
X155095537Y-119866861D01*
X155095125Y-119870782D01*
X155075689Y-120241635D01*
X155075689Y-120245565D01*
X152622750Y-120245565D01*
X152622750Y-120038376D01*
X150429200Y-120038376D01*
X150380862Y-120020783D01*
X150355142Y-119976234D01*
X150354000Y-119963176D01*
X150354000Y-119506500D01*
X150371593Y-119458162D01*
X150416142Y-119432442D01*
X150429200Y-119431300D01*
X150850701Y-119431300D01*
X150859539Y-119431821D01*
X150896890Y-119436242D01*
X150902420Y-119435232D01*
X150902421Y-119435232D01*
X150921097Y-119431821D01*
X150956388Y-119425376D01*
X150958670Y-119424996D01*
X151018452Y-119416008D01*
X151023369Y-119413647D01*
X151023737Y-119413557D01*
X151024017Y-119413461D01*
X151026255Y-119412734D01*
X151026564Y-119412639D01*
X151026916Y-119412495D01*
X151032281Y-119411515D01*
X151037267Y-119408925D01*
X151037270Y-119408924D01*
X151085916Y-119383654D01*
X151088029Y-119382598D01*
X151137455Y-119358864D01*
X151137454Y-119358864D01*
X151142522Y-119356431D01*
X151146528Y-119352728D01*
X151147451Y-119352177D01*
X151150610Y-119350048D01*
X151154418Y-119348070D01*
X151159544Y-119343691D01*
X151198103Y-119305132D01*
X151200231Y-119303085D01*
X151239459Y-119266823D01*
X151239460Y-119266822D01*
X151243588Y-119263006D01*
X151246413Y-119258143D01*
X151249151Y-119254725D01*
X151254666Y-119248569D01*
X151977363Y-118525873D01*
X151983981Y-118519991D01*
X152009106Y-118500184D01*
X152013518Y-118496706D01*
X152044011Y-118452587D01*
X152047892Y-118446971D01*
X152049266Y-118445049D01*
X152081829Y-118400961D01*
X152085168Y-118396441D01*
X152086974Y-118391297D01*
X152087170Y-118390975D01*
X152087313Y-118390683D01*
X152088377Y-118388595D01*
X152088522Y-118388321D01*
X152088668Y-118387974D01*
X152091770Y-118383485D01*
X152109998Y-118325850D01*
X152110746Y-118323610D01*
X152128910Y-118271888D01*
X152128911Y-118271882D01*
X152130772Y-118266583D01*
X152130986Y-118261134D01*
X152131250Y-118260090D01*
X152131981Y-118256339D01*
X152133271Y-118252259D01*
X152133800Y-118245538D01*
X152133800Y-118190985D01*
X152133858Y-118188033D01*
X152135954Y-118134676D01*
X152136175Y-118129057D01*
X152134734Y-118123621D01*
X152134254Y-118119277D01*
X152133800Y-118111024D01*
X152133800Y-117586715D01*
X156259482Y-117586715D01*
X156261087Y-117592706D01*
X158651723Y-119983342D01*
X158661522Y-119987911D01*
X158667513Y-119986306D01*
X161058149Y-117595670D01*
X161062718Y-117585871D01*
X161061133Y-117579953D01*
X161058746Y-117577804D01*
X160770142Y-117344097D01*
X160766963Y-117341787D01*
X160455500Y-117139521D01*
X160452113Y-117137566D01*
X160121211Y-116968962D01*
X160117620Y-116967364D01*
X159770934Y-116834284D01*
X159767177Y-116833063D01*
X159408476Y-116736949D01*
X159404616Y-116736129D01*
X159037839Y-116678037D01*
X159033918Y-116677625D01*
X158663065Y-116658189D01*
X158659135Y-116658189D01*
X158288282Y-116677625D01*
X158284361Y-116678037D01*
X157917584Y-116736129D01*
X157913724Y-116736949D01*
X157555023Y-116833063D01*
X157551266Y-116834284D01*
X157204580Y-116967364D01*
X157200989Y-116968962D01*
X156870087Y-117137566D01*
X156866700Y-117139521D01*
X156555237Y-117341787D01*
X156552058Y-117344097D01*
X156263748Y-117577566D01*
X156259482Y-117586715D01*
X152133800Y-117586715D01*
X152133800Y-116882590D01*
X153038222Y-116882590D01*
X153039551Y-116887550D01*
X153120614Y-116958640D01*
X153124521Y-116961638D01*
X153366729Y-117123477D01*
X153370979Y-117125931D01*
X153632247Y-117254774D01*
X153636791Y-117256655D01*
X153912635Y-117350292D01*
X153917379Y-117351563D01*
X154203083Y-117408393D01*
X154207967Y-117409036D01*
X154498644Y-117428088D01*
X154503556Y-117428088D01*
X154794233Y-117409036D01*
X154799117Y-117408393D01*
X155084821Y-117351563D01*
X155089565Y-117350292D01*
X155365409Y-117256655D01*
X155369953Y-117254774D01*
X155631221Y-117125931D01*
X155635471Y-117123477D01*
X155877679Y-116961638D01*
X155881586Y-116958640D01*
X155958816Y-116890911D01*
X155964016Y-116881434D01*
X155963014Y-116876396D01*
X154510477Y-115423858D01*
X154500678Y-115419289D01*
X154494687Y-115420894D01*
X153042791Y-116872791D01*
X153038222Y-116882590D01*
X152133800Y-116882590D01*
X152133800Y-115609252D01*
X152151393Y-115560914D01*
X152195942Y-115535194D01*
X152246600Y-115544127D01*
X152279665Y-115583532D01*
X152282755Y-115594581D01*
X152313137Y-115747321D01*
X152314408Y-115752065D01*
X152408045Y-116027909D01*
X152409926Y-116032453D01*
X152538768Y-116293717D01*
X152541222Y-116297968D01*
X152703068Y-116540188D01*
X152706056Y-116544082D01*
X152773789Y-116621316D01*
X152783266Y-116626516D01*
X152788304Y-116625514D01*
X154249797Y-115164022D01*
X154756789Y-115164022D01*
X154758394Y-115170013D01*
X156210291Y-116621909D01*
X156220090Y-116626478D01*
X156225050Y-116625149D01*
X156296144Y-116544082D01*
X156299132Y-116540188D01*
X156412933Y-116369872D01*
X156454417Y-116339455D01*
X156486317Y-116337239D01*
X156529270Y-116343506D01*
X156534701Y-116343900D01*
X157200441Y-116343900D01*
X157210598Y-116340203D01*
X157213700Y-116334831D01*
X157213700Y-116330640D01*
X157568500Y-116330640D01*
X157572197Y-116340797D01*
X157577569Y-116343899D01*
X158247480Y-116343899D01*
X158252949Y-116343498D01*
X158314184Y-116334485D01*
X158325209Y-116331059D01*
X158420417Y-116284315D01*
X158430382Y-116277181D01*
X158505051Y-116202380D01*
X158512172Y-116192398D01*
X158558752Y-116097105D01*
X158562156Y-116086091D01*
X158571006Y-116025432D01*
X158571400Y-116019999D01*
X158571400Y-116019980D01*
X158750801Y-116019980D01*
X158751202Y-116025449D01*
X158760215Y-116086684D01*
X158763641Y-116097709D01*
X158810385Y-116192917D01*
X158817519Y-116202882D01*
X158892320Y-116277551D01*
X158902302Y-116284672D01*
X158997595Y-116331252D01*
X159008609Y-116334656D01*
X159069268Y-116343506D01*
X159074701Y-116343900D01*
X159740441Y-116343900D01*
X159750598Y-116340203D01*
X159753700Y-116334831D01*
X159753700Y-116330640D01*
X160108500Y-116330640D01*
X160112197Y-116340797D01*
X160117569Y-116343899D01*
X160787480Y-116343899D01*
X160792949Y-116343498D01*
X160854184Y-116334485D01*
X160865209Y-116331059D01*
X160960417Y-116284315D01*
X160970382Y-116277181D01*
X161045051Y-116202380D01*
X161052172Y-116192398D01*
X161098752Y-116097105D01*
X161102156Y-116086091D01*
X161111006Y-116025432D01*
X161111400Y-116019999D01*
X161111400Y-115354259D01*
X161107703Y-115344102D01*
X161102331Y-115341000D01*
X160121759Y-115341000D01*
X160111602Y-115344697D01*
X160108500Y-115350069D01*
X160108500Y-116330640D01*
X159753700Y-116330640D01*
X159753700Y-115354259D01*
X159750003Y-115344102D01*
X159744631Y-115341000D01*
X158764060Y-115341000D01*
X158753903Y-115344697D01*
X158750801Y-115350069D01*
X158750801Y-116019980D01*
X158571400Y-116019980D01*
X158571400Y-115354259D01*
X158567703Y-115344102D01*
X158562331Y-115341000D01*
X157581759Y-115341000D01*
X157571602Y-115344697D01*
X157568500Y-115350069D01*
X157568500Y-116330640D01*
X157213700Y-116330640D01*
X157213700Y-114972941D01*
X157568500Y-114972941D01*
X157572197Y-114983098D01*
X157577569Y-114986200D01*
X158558140Y-114986200D01*
X158568297Y-114982503D01*
X158571399Y-114977131D01*
X158571399Y-114972941D01*
X158750800Y-114972941D01*
X158754497Y-114983098D01*
X158759869Y-114986200D01*
X159740441Y-114986200D01*
X159750598Y-114982503D01*
X159753700Y-114977131D01*
X159753700Y-114972941D01*
X160108500Y-114972941D01*
X160112197Y-114983098D01*
X160117569Y-114986200D01*
X161098140Y-114986200D01*
X161108297Y-114982503D01*
X161111399Y-114977131D01*
X161111399Y-114307220D01*
X161110998Y-114301751D01*
X161101985Y-114240516D01*
X161098559Y-114229491D01*
X161051815Y-114134283D01*
X161044681Y-114124318D01*
X160969880Y-114049649D01*
X160959898Y-114042528D01*
X160864605Y-113995948D01*
X160853591Y-113992544D01*
X160792932Y-113983694D01*
X160787499Y-113983300D01*
X160121759Y-113983300D01*
X160111602Y-113986997D01*
X160108500Y-113992369D01*
X160108500Y-114972941D01*
X159753700Y-114972941D01*
X159753700Y-113996560D01*
X159750003Y-113986403D01*
X159744631Y-113983301D01*
X159074720Y-113983301D01*
X159069251Y-113983702D01*
X159008016Y-113992715D01*
X158996991Y-113996141D01*
X158901783Y-114042885D01*
X158891818Y-114050019D01*
X158817149Y-114124820D01*
X158810028Y-114134802D01*
X158763448Y-114230095D01*
X158760044Y-114241109D01*
X158751194Y-114301768D01*
X158750800Y-114307201D01*
X158750800Y-114972941D01*
X158571399Y-114972941D01*
X158571399Y-114307220D01*
X158570998Y-114301751D01*
X158561985Y-114240516D01*
X158558559Y-114229491D01*
X158511815Y-114134283D01*
X158504681Y-114124318D01*
X158429880Y-114049649D01*
X158419898Y-114042528D01*
X158324605Y-113995948D01*
X158313591Y-113992544D01*
X158252932Y-113983694D01*
X158247499Y-113983300D01*
X157581759Y-113983300D01*
X157571602Y-113986997D01*
X157568500Y-113992369D01*
X157568500Y-114972941D01*
X157213700Y-114972941D01*
X157213700Y-113996560D01*
X157210003Y-113986403D01*
X157204631Y-113983301D01*
X156534720Y-113983301D01*
X156529251Y-113983702D01*
X156486448Y-113990002D01*
X156436064Y-113979636D01*
X156412970Y-113957383D01*
X156299132Y-113787012D01*
X156296144Y-113783118D01*
X156228411Y-113705884D01*
X156218934Y-113700684D01*
X156213896Y-113701686D01*
X154761358Y-115154223D01*
X154756789Y-115164022D01*
X154249797Y-115164022D01*
X154501100Y-114912719D01*
X155959409Y-113454409D01*
X155963978Y-113444610D01*
X155962649Y-113439650D01*
X155881586Y-113368560D01*
X155877679Y-113365562D01*
X155639067Y-113206126D01*
X155608650Y-113164643D01*
X155612015Y-113113313D01*
X155647586Y-113076155D01*
X155680846Y-113068400D01*
X155770785Y-113068400D01*
X155775675Y-113068080D01*
X155886604Y-113053476D01*
X155896034Y-113050949D01*
X156034061Y-112993776D01*
X156042517Y-112988894D01*
X156161042Y-112897947D01*
X156167947Y-112891042D01*
X156258894Y-112772517D01*
X156263777Y-112764058D01*
X156268026Y-112753802D01*
X156302780Y-112715878D01*
X156353780Y-112709165D01*
X156397163Y-112736805D01*
X156412701Y-112782581D01*
X156412701Y-113464156D01*
X156421572Y-113508758D01*
X156455366Y-113559334D01*
X156461523Y-113563448D01*
X156499783Y-113589013D01*
X156499784Y-113589014D01*
X156505942Y-113593128D01*
X156550543Y-113602000D01*
X157390986Y-113602000D01*
X158231656Y-113601999D01*
X158276258Y-113593128D01*
X158326834Y-113559334D01*
X158360628Y-113508758D01*
X158369500Y-113464157D01*
X158369500Y-113004100D01*
X158387093Y-112955762D01*
X158431642Y-112930042D01*
X158444700Y-112928900D01*
X158606981Y-112928900D01*
X158617190Y-112930348D01*
X158617215Y-112930097D01*
X158624122Y-112930774D01*
X158630792Y-112932706D01*
X158637708Y-112932107D01*
X158671502Y-112929180D01*
X158677991Y-112928900D01*
X158877501Y-112928900D01*
X158925839Y-112946493D01*
X158951559Y-112991042D01*
X158952701Y-113004100D01*
X158952701Y-113464156D01*
X158961572Y-113508758D01*
X158995366Y-113559334D01*
X159001523Y-113563448D01*
X159039783Y-113589013D01*
X159039784Y-113589014D01*
X159045942Y-113593128D01*
X159090543Y-113602000D01*
X159930986Y-113602000D01*
X160771656Y-113601999D01*
X160816258Y-113593128D01*
X160866834Y-113559334D01*
X160900628Y-113508758D01*
X160909500Y-113464157D01*
X160909499Y-111783044D01*
X160900628Y-111738442D01*
X160866834Y-111687866D01*
X160841154Y-111670707D01*
X160822417Y-111658187D01*
X160822416Y-111658186D01*
X160816258Y-111654072D01*
X160808994Y-111652627D01*
X160775282Y-111645921D01*
X160775281Y-111645921D01*
X160771657Y-111645200D01*
X159931214Y-111645200D01*
X159090544Y-111645201D01*
X159056269Y-111652018D01*
X159005428Y-111644192D01*
X158971512Y-111605517D01*
X158966400Y-111578263D01*
X158966400Y-111128938D01*
X158983993Y-111080600D01*
X159028542Y-111054880D01*
X159056271Y-111055183D01*
X159086908Y-111061277D01*
X159090543Y-111062000D01*
X159930986Y-111062000D01*
X160771656Y-111061999D01*
X160816258Y-111053128D01*
X160866834Y-111019334D01*
X160874925Y-111007225D01*
X160896513Y-110974917D01*
X160896514Y-110974916D01*
X160900628Y-110968758D01*
X160909500Y-110924157D01*
X160909499Y-109243044D01*
X160900628Y-109198442D01*
X160866834Y-109147866D01*
X160842606Y-109131677D01*
X160822417Y-109118187D01*
X160822416Y-109118186D01*
X160816258Y-109114072D01*
X160771657Y-109105200D01*
X159931214Y-109105200D01*
X159090544Y-109105201D01*
X159066184Y-109110046D01*
X159049319Y-109113400D01*
X158998478Y-109105574D01*
X158964562Y-109066898D01*
X158964197Y-109065703D01*
X158964089Y-109062818D01*
X158960695Y-109054918D01*
X158958358Y-109049477D01*
X158953524Y-109033565D01*
X158952136Y-109026116D01*
X158952135Y-109026114D01*
X158950864Y-109019289D01*
X158947222Y-109013380D01*
X158947221Y-109013378D01*
X158935687Y-108994666D01*
X158930609Y-108984890D01*
X158921291Y-108963200D01*
X158921288Y-108963195D01*
X158919194Y-108958321D01*
X158915116Y-108953356D01*
X158908582Y-108946822D01*
X158897740Y-108933107D01*
X158891185Y-108922472D01*
X158866217Y-108903486D01*
X158858561Y-108896801D01*
X158598679Y-108636919D01*
X158595038Y-108632701D01*
X158592945Y-108628420D01*
X158555758Y-108593924D01*
X158553727Y-108591967D01*
X158539403Y-108577643D01*
X158536545Y-108575682D01*
X158533879Y-108573467D01*
X158533999Y-108573322D01*
X158530762Y-108570737D01*
X158514652Y-108555793D01*
X158509563Y-108551072D01*
X158503114Y-108548499D01*
X158496079Y-108545692D01*
X158481406Y-108537858D01*
X158479475Y-108536533D01*
X158469432Y-108529644D01*
X158462681Y-108528042D01*
X158462679Y-108528041D01*
X158441293Y-108522966D01*
X158430798Y-108519647D01*
X158412545Y-108512365D01*
X158407126Y-108510203D01*
X158368750Y-108475949D01*
X158361239Y-108425686D01*
X158362073Y-108421494D01*
X158369500Y-108384157D01*
X158369500Y-107974900D01*
X158387093Y-107926562D01*
X158431642Y-107900842D01*
X158444700Y-107899700D01*
X158877501Y-107899700D01*
X158925839Y-107917293D01*
X158951559Y-107961842D01*
X158952701Y-107974900D01*
X158952701Y-108384156D01*
X158961572Y-108428758D01*
X158995366Y-108479334D01*
X159001523Y-108483448D01*
X159039783Y-108509013D01*
X159039784Y-108509014D01*
X159045942Y-108513128D01*
X159053206Y-108514573D01*
X159070314Y-108517976D01*
X159090543Y-108522000D01*
X159930986Y-108522000D01*
X160771656Y-108521999D01*
X160816258Y-108513128D01*
X160866834Y-108479334D01*
X160878135Y-108462421D01*
X160896513Y-108434917D01*
X160896514Y-108434916D01*
X160900628Y-108428758D01*
X160909500Y-108384157D01*
X160909499Y-106703044D01*
X160900628Y-106658442D01*
X160866834Y-106607866D01*
X160828544Y-106582281D01*
X160822417Y-106578187D01*
X160822416Y-106578186D01*
X160816258Y-106574072D01*
X160798839Y-106570607D01*
X160775282Y-106565921D01*
X160775281Y-106565921D01*
X160771657Y-106565200D01*
X159931214Y-106565200D01*
X159090544Y-106565201D01*
X159045942Y-106574072D01*
X158995366Y-106607866D01*
X158991252Y-106614023D01*
X158975212Y-106638029D01*
X158961572Y-106658442D01*
X158960127Y-106665706D01*
X158958343Y-106674677D01*
X158952700Y-106703043D01*
X158952700Y-107112300D01*
X158935107Y-107160638D01*
X158890558Y-107186358D01*
X158877500Y-107187500D01*
X158444699Y-107187500D01*
X158396361Y-107169907D01*
X158370641Y-107125358D01*
X158369499Y-107112300D01*
X158369499Y-106703044D01*
X158360628Y-106658442D01*
X158326834Y-106607866D01*
X158288544Y-106582281D01*
X158282417Y-106578187D01*
X158282416Y-106578186D01*
X158276258Y-106574072D01*
X158258839Y-106570607D01*
X158235282Y-106565921D01*
X158235281Y-106565921D01*
X158231657Y-106565200D01*
X157391214Y-106565200D01*
X156550544Y-106565201D01*
X156505942Y-106574072D01*
X156455366Y-106607866D01*
X156451252Y-106614023D01*
X156435212Y-106638029D01*
X156421572Y-106658442D01*
X156420127Y-106665706D01*
X156418343Y-106674677D01*
X156412700Y-106703043D01*
X156412700Y-107321850D01*
X156395107Y-107370188D01*
X156350558Y-107395908D01*
X156337500Y-107397050D01*
X155307456Y-107397050D01*
X155259118Y-107379457D01*
X155233398Y-107334908D01*
X155242331Y-107284250D01*
X155258618Y-107264667D01*
X155259291Y-107264093D01*
X155337601Y-107197210D01*
X155390327Y-107123834D01*
X155427622Y-107071933D01*
X155427624Y-107071930D01*
X155430268Y-107068250D01*
X155434585Y-107057513D01*
X155487808Y-106925114D01*
X155489499Y-106920908D01*
X155501275Y-106838162D01*
X155511529Y-106766118D01*
X155511529Y-106766112D01*
X155511874Y-106763691D01*
X155512019Y-106749850D01*
X155501327Y-106661500D01*
X155512985Y-106611399D01*
X155554121Y-106580514D01*
X155595063Y-106579727D01*
X155713903Y-106610904D01*
X155777924Y-106611910D01*
X155868153Y-106613327D01*
X155868155Y-106613327D01*
X155872685Y-106613398D01*
X155877103Y-106612386D01*
X155877105Y-106612386D01*
X156023056Y-106578959D01*
X156023058Y-106578958D01*
X156027478Y-106577946D01*
X156169347Y-106506593D01*
X156183220Y-106494745D01*
X156255468Y-106433039D01*
X156290101Y-106403460D01*
X156382768Y-106274500D01*
X156390528Y-106255197D01*
X156403365Y-106223264D01*
X156437718Y-106184977D01*
X156483993Y-106176901D01*
X156529265Y-106183505D01*
X156534701Y-106183900D01*
X157200441Y-106183900D01*
X157210598Y-106180203D01*
X157213700Y-106174831D01*
X157213700Y-106170640D01*
X157568500Y-106170640D01*
X157572197Y-106180797D01*
X157577569Y-106183899D01*
X158247480Y-106183899D01*
X158252949Y-106183498D01*
X158314184Y-106174485D01*
X158325209Y-106171059D01*
X158420417Y-106124315D01*
X158430382Y-106117181D01*
X158505051Y-106042380D01*
X158512172Y-106032398D01*
X158558752Y-105937105D01*
X158562156Y-105926091D01*
X158571006Y-105865432D01*
X158571400Y-105859999D01*
X158571400Y-105859980D01*
X158750801Y-105859980D01*
X158751202Y-105865449D01*
X158760215Y-105926684D01*
X158763641Y-105937709D01*
X158810385Y-106032917D01*
X158817519Y-106042882D01*
X158892320Y-106117551D01*
X158902302Y-106124672D01*
X158997595Y-106171252D01*
X159008609Y-106174656D01*
X159069268Y-106183506D01*
X159074701Y-106183900D01*
X159740441Y-106183900D01*
X159750598Y-106180203D01*
X159753700Y-106174831D01*
X159753700Y-106170640D01*
X160108500Y-106170640D01*
X160112197Y-106180797D01*
X160117569Y-106183899D01*
X160787480Y-106183899D01*
X160792949Y-106183498D01*
X160854184Y-106174485D01*
X160865209Y-106171059D01*
X160960417Y-106124315D01*
X160970382Y-106117181D01*
X161045051Y-106042380D01*
X161052172Y-106032398D01*
X161098752Y-105937105D01*
X161102156Y-105926091D01*
X161111006Y-105865432D01*
X161111400Y-105859999D01*
X161111400Y-105194259D01*
X161107703Y-105184102D01*
X161102331Y-105181000D01*
X160121759Y-105181000D01*
X160111602Y-105184697D01*
X160108500Y-105190069D01*
X160108500Y-106170640D01*
X159753700Y-106170640D01*
X159753700Y-105194259D01*
X159750003Y-105184102D01*
X159744631Y-105181000D01*
X158764060Y-105181000D01*
X158753903Y-105184697D01*
X158750801Y-105190069D01*
X158750801Y-105859980D01*
X158571400Y-105859980D01*
X158571400Y-105194259D01*
X158567703Y-105184102D01*
X158562331Y-105181000D01*
X157581759Y-105181000D01*
X157571602Y-105184697D01*
X157568500Y-105190069D01*
X157568500Y-106170640D01*
X157213700Y-106170640D01*
X157213700Y-104812941D01*
X157568500Y-104812941D01*
X157572197Y-104823098D01*
X157577569Y-104826200D01*
X158558140Y-104826200D01*
X158568297Y-104822503D01*
X158571399Y-104817131D01*
X158571399Y-104812941D01*
X158750800Y-104812941D01*
X158754497Y-104823098D01*
X158759869Y-104826200D01*
X159740441Y-104826200D01*
X159750598Y-104822503D01*
X159753700Y-104817131D01*
X159753700Y-104812941D01*
X160108500Y-104812941D01*
X160112197Y-104823098D01*
X160117569Y-104826200D01*
X161098140Y-104826200D01*
X161108297Y-104822503D01*
X161111399Y-104817131D01*
X161111399Y-104147220D01*
X161110998Y-104141751D01*
X161101985Y-104080516D01*
X161098559Y-104069491D01*
X161051815Y-103974283D01*
X161044681Y-103964318D01*
X160969880Y-103889649D01*
X160959898Y-103882528D01*
X160864605Y-103835948D01*
X160853591Y-103832544D01*
X160792932Y-103823694D01*
X160787499Y-103823300D01*
X160121759Y-103823300D01*
X160111602Y-103826997D01*
X160108500Y-103832369D01*
X160108500Y-104812941D01*
X159753700Y-104812941D01*
X159753700Y-103836560D01*
X159750003Y-103826403D01*
X159744631Y-103823301D01*
X159074720Y-103823301D01*
X159069251Y-103823702D01*
X159008016Y-103832715D01*
X158996991Y-103836141D01*
X158901783Y-103882885D01*
X158891818Y-103890019D01*
X158817149Y-103964820D01*
X158810028Y-103974802D01*
X158763448Y-104070095D01*
X158760044Y-104081109D01*
X158751194Y-104141768D01*
X158750800Y-104147201D01*
X158750800Y-104812941D01*
X158571399Y-104812941D01*
X158571399Y-104147220D01*
X158570998Y-104141751D01*
X158561985Y-104080516D01*
X158558559Y-104069491D01*
X158511815Y-103974283D01*
X158504681Y-103964318D01*
X158429880Y-103889649D01*
X158419898Y-103882528D01*
X158324605Y-103835948D01*
X158313591Y-103832544D01*
X158252932Y-103823694D01*
X158247499Y-103823300D01*
X157581759Y-103823300D01*
X157571602Y-103826997D01*
X157568500Y-103832369D01*
X157568500Y-104812941D01*
X157213700Y-104812941D01*
X157213700Y-103836560D01*
X157210003Y-103826403D01*
X157204631Y-103823301D01*
X156534720Y-103823301D01*
X156529251Y-103823702D01*
X156468016Y-103832715D01*
X156456991Y-103836141D01*
X156361783Y-103882885D01*
X156351818Y-103890019D01*
X156277149Y-103964820D01*
X156270030Y-103974800D01*
X156251661Y-104012379D01*
X156214627Y-104048080D01*
X156163309Y-104051624D01*
X156121720Y-104021352D01*
X156108900Y-103979355D01*
X156108900Y-99922457D01*
X156125520Y-99876793D01*
X156412700Y-99876793D01*
X156412701Y-101557906D01*
X156421572Y-101602508D01*
X156455366Y-101653084D01*
X156461523Y-101657198D01*
X156499783Y-101682763D01*
X156499784Y-101682764D01*
X156505942Y-101686878D01*
X156550543Y-101695750D01*
X157390986Y-101695750D01*
X158231656Y-101695749D01*
X158276258Y-101686878D01*
X158326834Y-101653084D01*
X158360628Y-101602508D01*
X158369500Y-101557907D01*
X158369499Y-99876794D01*
X158369499Y-99876793D01*
X158952700Y-99876793D01*
X158952701Y-101557906D01*
X158961572Y-101602508D01*
X158995366Y-101653084D01*
X159001523Y-101657198D01*
X159039783Y-101682763D01*
X159039784Y-101682764D01*
X159045942Y-101686878D01*
X159090543Y-101695750D01*
X159930986Y-101695750D01*
X160771656Y-101695749D01*
X160816258Y-101686878D01*
X160866834Y-101653084D01*
X160900628Y-101602508D01*
X160909500Y-101557907D01*
X160909499Y-99876794D01*
X160900628Y-99832192D01*
X160866834Y-99781616D01*
X160822418Y-99751938D01*
X160822416Y-99751936D01*
X160816258Y-99747822D01*
X160771657Y-99738950D01*
X159931214Y-99738950D01*
X159090544Y-99738951D01*
X159045942Y-99747822D01*
X158995366Y-99781616D01*
X158961572Y-99832192D01*
X158952700Y-99876793D01*
X158369499Y-99876793D01*
X158360628Y-99832192D01*
X158326834Y-99781616D01*
X158282418Y-99751938D01*
X158282416Y-99751936D01*
X158276258Y-99747822D01*
X158231657Y-99738950D01*
X157391214Y-99738950D01*
X156550544Y-99738951D01*
X156505942Y-99747822D01*
X156455366Y-99781616D01*
X156421572Y-99832192D01*
X156412700Y-99876793D01*
X156125520Y-99876793D01*
X156126493Y-99874119D01*
X156130926Y-99869283D01*
X156822434Y-99177776D01*
X156869054Y-99156036D01*
X156875608Y-99155750D01*
X158084477Y-99155749D01*
X158231656Y-99155749D01*
X158276258Y-99146878D01*
X158326834Y-99113084D01*
X158360628Y-99062508D01*
X158369500Y-99017907D01*
X158369500Y-98557850D01*
X158387093Y-98509512D01*
X158431642Y-98483792D01*
X158444700Y-98482650D01*
X158877501Y-98482650D01*
X158925839Y-98500243D01*
X158951559Y-98544792D01*
X158952701Y-98557850D01*
X158952701Y-99017906D01*
X158961572Y-99062508D01*
X158995366Y-99113084D01*
X159001523Y-99117198D01*
X159039783Y-99142763D01*
X159039784Y-99142764D01*
X159045942Y-99146878D01*
X159090543Y-99155750D01*
X159930986Y-99155750D01*
X160771656Y-99155749D01*
X160816258Y-99146878D01*
X160866834Y-99113084D01*
X160900628Y-99062508D01*
X160909500Y-99017907D01*
X160909499Y-97336794D01*
X160900628Y-97292192D01*
X160866834Y-97241616D01*
X160822418Y-97211938D01*
X160822416Y-97211936D01*
X160816258Y-97207822D01*
X160771657Y-97198950D01*
X159931214Y-97198950D01*
X159090544Y-97198951D01*
X159045942Y-97207822D01*
X158995366Y-97241616D01*
X158991252Y-97247773D01*
X158969896Y-97279735D01*
X158961572Y-97292192D01*
X158952700Y-97336793D01*
X158952700Y-97796850D01*
X158935107Y-97845188D01*
X158890558Y-97870908D01*
X158877500Y-97872050D01*
X158444699Y-97872050D01*
X158396361Y-97854457D01*
X158370641Y-97809908D01*
X158369499Y-97796850D01*
X158369499Y-97336794D01*
X158360628Y-97292192D01*
X158326834Y-97241616D01*
X158282418Y-97211938D01*
X158282416Y-97211936D01*
X158276258Y-97207822D01*
X158231657Y-97198950D01*
X157391214Y-97198950D01*
X156550544Y-97198951D01*
X156505942Y-97207822D01*
X156455366Y-97241616D01*
X156451252Y-97247773D01*
X156429896Y-97279735D01*
X156421572Y-97292192D01*
X156412700Y-97336793D01*
X156412701Y-98026409D01*
X156412701Y-98692842D01*
X156395108Y-98741180D01*
X156390675Y-98746016D01*
X155761024Y-99375666D01*
X155714404Y-99397406D01*
X155664717Y-99384092D01*
X155635212Y-99341955D01*
X155632650Y-99322492D01*
X155632650Y-97858707D01*
X155650243Y-97810369D01*
X155654676Y-97805533D01*
X156822433Y-96637776D01*
X156869053Y-96616036D01*
X156875607Y-96615750D01*
X158084477Y-96615749D01*
X158231656Y-96615749D01*
X158276258Y-96606878D01*
X158326834Y-96573084D01*
X158349329Y-96539418D01*
X158356513Y-96528667D01*
X158356514Y-96528666D01*
X158360628Y-96522508D01*
X158369500Y-96477907D01*
X158369500Y-95992450D01*
X158387093Y-95944112D01*
X158431642Y-95918392D01*
X158444700Y-95917250D01*
X158877501Y-95917250D01*
X158925839Y-95934843D01*
X158951559Y-95979392D01*
X158952701Y-95992450D01*
X158952701Y-96477906D01*
X158961572Y-96522508D01*
X158995366Y-96573084D01*
X159001523Y-96577198D01*
X159039783Y-96602763D01*
X159039784Y-96602764D01*
X159045942Y-96606878D01*
X159090543Y-96615750D01*
X159930986Y-96615750D01*
X160771656Y-96615749D01*
X160816258Y-96606878D01*
X160866834Y-96573084D01*
X160889329Y-96539418D01*
X160896513Y-96528667D01*
X160896514Y-96528666D01*
X160900628Y-96522508D01*
X160909500Y-96477907D01*
X160909499Y-94796794D01*
X160900628Y-94752192D01*
X160866834Y-94701616D01*
X160822418Y-94671938D01*
X160822416Y-94671936D01*
X160816258Y-94667822D01*
X160771657Y-94658950D01*
X159931214Y-94658950D01*
X159090544Y-94658951D01*
X159045942Y-94667822D01*
X158995366Y-94701616D01*
X158961572Y-94752192D01*
X158952700Y-94796793D01*
X158952700Y-95282250D01*
X158935107Y-95330588D01*
X158890558Y-95356308D01*
X158877500Y-95357450D01*
X158444699Y-95357450D01*
X158396361Y-95339857D01*
X158370641Y-95295308D01*
X158369499Y-95282250D01*
X158369499Y-94796794D01*
X158360628Y-94752192D01*
X158326834Y-94701616D01*
X158282418Y-94671938D01*
X158282416Y-94671936D01*
X158276258Y-94667822D01*
X158231657Y-94658950D01*
X157391214Y-94658950D01*
X156550544Y-94658951D01*
X156505942Y-94667822D01*
X156455366Y-94701616D01*
X156421572Y-94752192D01*
X156412700Y-94796793D01*
X156412700Y-94800489D01*
X156412701Y-96152842D01*
X156395108Y-96201180D01*
X156390675Y-96206016D01*
X155150669Y-97446021D01*
X155146451Y-97449662D01*
X155142170Y-97451755D01*
X155137449Y-97456844D01*
X155137448Y-97456845D01*
X155127982Y-97467050D01*
X155082210Y-97490523D01*
X155032059Y-97479083D01*
X155000994Y-97438083D01*
X154997650Y-97415908D01*
X154997650Y-92421329D01*
X156259482Y-92421329D01*
X156261067Y-92427247D01*
X156263454Y-92429396D01*
X156552058Y-92663103D01*
X156555237Y-92665413D01*
X156866700Y-92867679D01*
X156870087Y-92869634D01*
X157200989Y-93038238D01*
X157204580Y-93039836D01*
X157551266Y-93172916D01*
X157555023Y-93174137D01*
X157913724Y-93270251D01*
X157917584Y-93271071D01*
X158284361Y-93329163D01*
X158288282Y-93329575D01*
X158659135Y-93349011D01*
X158663065Y-93349011D01*
X159033918Y-93329575D01*
X159037839Y-93329163D01*
X159404616Y-93271071D01*
X159408476Y-93270251D01*
X159767177Y-93174137D01*
X159770934Y-93172916D01*
X160117620Y-93039836D01*
X160121211Y-93038238D01*
X160452113Y-92869634D01*
X160455500Y-92867679D01*
X160766963Y-92665413D01*
X160770142Y-92663103D01*
X161058452Y-92429634D01*
X161062718Y-92420485D01*
X161061113Y-92414494D01*
X158670477Y-90023858D01*
X158660678Y-90019289D01*
X158654687Y-90020894D01*
X156264051Y-92411530D01*
X156259482Y-92421329D01*
X154997650Y-92421329D01*
X154997650Y-92200290D01*
X154998058Y-92194731D01*
X154999606Y-92190222D01*
X154997703Y-92139534D01*
X154997650Y-92136714D01*
X154997650Y-92116457D01*
X154997016Y-92113053D01*
X154996697Y-92109601D01*
X154996869Y-92109585D01*
X154996424Y-92105467D01*
X154995600Y-92083507D01*
X154995599Y-92083504D01*
X154995339Y-92076568D01*
X154992598Y-92070187D01*
X154989608Y-92063227D01*
X154984774Y-92047315D01*
X154983386Y-92039866D01*
X154983385Y-92039864D01*
X154982114Y-92033039D01*
X154978472Y-92027130D01*
X154978471Y-92027128D01*
X154966937Y-92008416D01*
X154961859Y-91998640D01*
X154952541Y-91976950D01*
X154952538Y-91976945D01*
X154950444Y-91972071D01*
X154946366Y-91967106D01*
X154939832Y-91960572D01*
X154928990Y-91946857D01*
X154922435Y-91936222D01*
X154897467Y-91917236D01*
X154889811Y-91910551D01*
X154581526Y-91602266D01*
X154559786Y-91555646D01*
X154559500Y-91549092D01*
X154559499Y-90196741D01*
X154559499Y-90193044D01*
X154550628Y-90148442D01*
X154516834Y-90097866D01*
X154472418Y-90068188D01*
X154472416Y-90068186D01*
X154466258Y-90064072D01*
X154421657Y-90055200D01*
X153961600Y-90055200D01*
X153913262Y-90037607D01*
X153887542Y-89993058D01*
X153886400Y-89980000D01*
X153886400Y-89765565D01*
X155075689Y-89765565D01*
X155095125Y-90136418D01*
X155095537Y-90140339D01*
X155153629Y-90507116D01*
X155154449Y-90510976D01*
X155250563Y-90869677D01*
X155251784Y-90873434D01*
X155384864Y-91220120D01*
X155386462Y-91223711D01*
X155555066Y-91554613D01*
X155557021Y-91558000D01*
X155759287Y-91869463D01*
X155761597Y-91872642D01*
X155995066Y-92160952D01*
X156004215Y-92165218D01*
X156010206Y-92163613D01*
X158400842Y-89772977D01*
X158405017Y-89764022D01*
X158916789Y-89764022D01*
X158918394Y-89770013D01*
X161309030Y-92160649D01*
X161318829Y-92165218D01*
X161324747Y-92163633D01*
X161326896Y-92161246D01*
X161560603Y-91872642D01*
X161562913Y-91869463D01*
X161765179Y-91558000D01*
X161767134Y-91554613D01*
X161935738Y-91223711D01*
X161937336Y-91220120D01*
X162070416Y-90873434D01*
X162071637Y-90869677D01*
X162167751Y-90510976D01*
X162168571Y-90507116D01*
X162226663Y-90140339D01*
X162227075Y-90136418D01*
X162246511Y-89765565D01*
X162246511Y-89761635D01*
X162227075Y-89390782D01*
X162226663Y-89386861D01*
X162168571Y-89020084D01*
X162167751Y-89016224D01*
X162071637Y-88657523D01*
X162070416Y-88653766D01*
X161937336Y-88307080D01*
X161935738Y-88303489D01*
X161767134Y-87972587D01*
X161765179Y-87969200D01*
X161562913Y-87657737D01*
X161560603Y-87654558D01*
X161327134Y-87366248D01*
X161317985Y-87361982D01*
X161311994Y-87363587D01*
X158921358Y-89754223D01*
X158916789Y-89764022D01*
X158405017Y-89764022D01*
X158405411Y-89763178D01*
X158403806Y-89757187D01*
X156013170Y-87366551D01*
X156003371Y-87361982D01*
X155997453Y-87363567D01*
X155995304Y-87365954D01*
X155761597Y-87654558D01*
X155759287Y-87657737D01*
X155557021Y-87969200D01*
X155555066Y-87972587D01*
X155386462Y-88303489D01*
X155384864Y-88307080D01*
X155251784Y-88653766D01*
X155250563Y-88657523D01*
X155154449Y-89016224D01*
X155153629Y-89020084D01*
X155095537Y-89386861D01*
X155095125Y-89390782D01*
X155075689Y-89761635D01*
X155075689Y-89765565D01*
X153886400Y-89765565D01*
X153886400Y-89547199D01*
X153903993Y-89498861D01*
X153948542Y-89473141D01*
X153961600Y-89471999D01*
X154421656Y-89471999D01*
X154466258Y-89463128D01*
X154516834Y-89429334D01*
X154550628Y-89378758D01*
X154559500Y-89334157D01*
X154559499Y-87653044D01*
X154550628Y-87608442D01*
X154516834Y-87557866D01*
X154472418Y-87528188D01*
X154472416Y-87528186D01*
X154466258Y-87524072D01*
X154421657Y-87515200D01*
X153581214Y-87515200D01*
X152740544Y-87515201D01*
X152695942Y-87524072D01*
X152645366Y-87557866D01*
X152611572Y-87608442D01*
X152602700Y-87653043D01*
X152602701Y-89334156D01*
X152611572Y-89378758D01*
X152645366Y-89429334D01*
X152651523Y-89433448D01*
X152689783Y-89459013D01*
X152689784Y-89459014D01*
X152695942Y-89463128D01*
X152740543Y-89472000D01*
X153200600Y-89472000D01*
X153248938Y-89489593D01*
X153274658Y-89534142D01*
X153275800Y-89547200D01*
X153275800Y-89980001D01*
X153258207Y-90028339D01*
X153213658Y-90054059D01*
X153200600Y-90055201D01*
X152740544Y-90055201D01*
X152695942Y-90064072D01*
X152645366Y-90097866D01*
X152611572Y-90148442D01*
X152602700Y-90193043D01*
X152602701Y-91874156D01*
X152611572Y-91918758D01*
X152645366Y-91969334D01*
X152651523Y-91973448D01*
X152689783Y-91999013D01*
X152689784Y-91999014D01*
X152695942Y-92003128D01*
X152703206Y-92004573D01*
X152722526Y-92008416D01*
X152740543Y-92012000D01*
X152887683Y-92012000D01*
X154096591Y-92011999D01*
X154144929Y-92029592D01*
X154149766Y-92034025D01*
X154365025Y-92249285D01*
X154386764Y-92295905D01*
X154387050Y-92302459D01*
X154387050Y-104369742D01*
X154369457Y-104418080D01*
X154365024Y-104422916D01*
X154282374Y-104505566D01*
X154235754Y-104527306D01*
X154186067Y-104513992D01*
X154156562Y-104471855D01*
X154154000Y-104452392D01*
X154153999Y-104252241D01*
X154153999Y-104248544D01*
X154145128Y-104203942D01*
X154111334Y-104153366D01*
X154102136Y-104147220D01*
X154066917Y-104123687D01*
X154066916Y-104123686D01*
X154060758Y-104119572D01*
X154016157Y-104110700D01*
X153988097Y-104110700D01*
X153378517Y-104110701D01*
X153330179Y-104093108D01*
X153317372Y-104079276D01*
X153314181Y-104074818D01*
X153239382Y-104000150D01*
X153235533Y-103997405D01*
X153206396Y-103955013D01*
X153204000Y-103936182D01*
X153203999Y-103302241D01*
X153203999Y-103298544D01*
X153195128Y-103253942D01*
X153161334Y-103203366D01*
X153155177Y-103199252D01*
X153116917Y-103173687D01*
X153116916Y-103173686D01*
X153110758Y-103169572D01*
X153103494Y-103168127D01*
X153069782Y-103161421D01*
X153069781Y-103161421D01*
X153066157Y-103160700D01*
X152985136Y-103160700D01*
X152936798Y-103143107D01*
X152911078Y-103098558D01*
X152920011Y-103047900D01*
X152931962Y-103032326D01*
X153354771Y-102609518D01*
X153902014Y-102062275D01*
X153905630Y-102059153D01*
X153909624Y-102057201D01*
X153941184Y-102023179D01*
X153943141Y-102021148D01*
X153956176Y-102008113D01*
X153958136Y-102005256D01*
X153959634Y-102003453D01*
X153962339Y-102000373D01*
X153975816Y-101985846D01*
X153975818Y-101985844D01*
X153980537Y-101980756D01*
X153985212Y-101969036D01*
X153993045Y-101954368D01*
X154000182Y-101943964D01*
X154001785Y-101937210D01*
X154001786Y-101937207D01*
X154006197Y-101918615D01*
X154009516Y-101908117D01*
X154019175Y-101883908D01*
X154019750Y-101878044D01*
X154019750Y-101870307D01*
X154021782Y-101852943D01*
X154022655Y-101849263D01*
X154024258Y-101842510D01*
X154022062Y-101826370D01*
X154020437Y-101814434D01*
X154019750Y-101804293D01*
X154019750Y-96781773D01*
X154037071Y-96734181D01*
X154040584Y-96731834D01*
X154074378Y-96681258D01*
X154083250Y-96636657D01*
X154083249Y-94955544D01*
X154074378Y-94910942D01*
X154040584Y-94860366D01*
X153996168Y-94830688D01*
X153996166Y-94830686D01*
X153990008Y-94826572D01*
X153945407Y-94817700D01*
X153104964Y-94817700D01*
X152264294Y-94817701D01*
X152219692Y-94826572D01*
X152169116Y-94860366D01*
X152135322Y-94910942D01*
X152126450Y-94955543D01*
X152126451Y-96636656D01*
X152135322Y-96681258D01*
X152169116Y-96731834D01*
X152175273Y-96735948D01*
X152213533Y-96761513D01*
X152213534Y-96761514D01*
X152219692Y-96765628D01*
X152264293Y-96774500D01*
X152320305Y-96774500D01*
X153384750Y-96774499D01*
X153433088Y-96792092D01*
X153458808Y-96836641D01*
X153459950Y-96849699D01*
X153459950Y-98521525D01*
X153442357Y-98569863D01*
X153397808Y-98595583D01*
X153347150Y-98586650D01*
X153338972Y-98581186D01*
X153253765Y-98515806D01*
X153245310Y-98510924D01*
X153107283Y-98453751D01*
X153097854Y-98451224D01*
X152986925Y-98436620D01*
X152982035Y-98436300D01*
X152660509Y-98436300D01*
X152650352Y-98439997D01*
X152647250Y-98445369D01*
X152647250Y-100132641D01*
X152650947Y-100142798D01*
X152656319Y-100145900D01*
X152982035Y-100145900D01*
X152986925Y-100145580D01*
X153097854Y-100130976D01*
X153107284Y-100128449D01*
X153245311Y-100071276D01*
X153253767Y-100066394D01*
X153338971Y-100001015D01*
X153388030Y-99985547D01*
X153435554Y-100005232D01*
X153459307Y-100050860D01*
X153459950Y-100060675D01*
X153459950Y-100751346D01*
X153442357Y-100799684D01*
X153397808Y-100825404D01*
X153347150Y-100816471D01*
X153317746Y-100785486D01*
X153277555Y-100706606D01*
X153277554Y-100706605D01*
X153274866Y-100701329D01*
X153184621Y-100611084D01*
X153143646Y-100590206D01*
X153111264Y-100573707D01*
X153070905Y-100553143D01*
X153023855Y-100545691D01*
X152979476Y-100538662D01*
X152979474Y-100538662D01*
X152976558Y-100538200D01*
X151963142Y-100538200D01*
X151960226Y-100538662D01*
X151960224Y-100538662D01*
X151915845Y-100545691D01*
X151868795Y-100553143D01*
X151863520Y-100555831D01*
X151863519Y-100555831D01*
X151840741Y-100567437D01*
X151789684Y-100573707D01*
X151746543Y-100545691D01*
X151731400Y-100500434D01*
X151731400Y-100199152D01*
X151748993Y-100150814D01*
X151793542Y-100125094D01*
X151827220Y-100128780D01*
X151827651Y-100127172D01*
X151841846Y-100130976D01*
X151952775Y-100145580D01*
X151957665Y-100145900D01*
X152279191Y-100145900D01*
X152289348Y-100142203D01*
X152292450Y-100136831D01*
X152292450Y-98449559D01*
X152288753Y-98439402D01*
X152283381Y-98436300D01*
X151957665Y-98436300D01*
X151952775Y-98436620D01*
X151841846Y-98451224D01*
X151827651Y-98455028D01*
X151827078Y-98452889D01*
X151783973Y-98454763D01*
X151743169Y-98423441D01*
X151731400Y-98383048D01*
X151731400Y-92087199D01*
X151748993Y-92038861D01*
X151793542Y-92013141D01*
X151806600Y-92011999D01*
X151881656Y-92011999D01*
X151926258Y-92003128D01*
X151976834Y-91969334D01*
X151998959Y-91936222D01*
X152006513Y-91924917D01*
X152006514Y-91924916D01*
X152010628Y-91918758D01*
X152019500Y-91874157D01*
X152019499Y-90193044D01*
X152010628Y-90148442D01*
X151976834Y-90097866D01*
X151932418Y-90068188D01*
X151932416Y-90068186D01*
X151926258Y-90064072D01*
X151881657Y-90055200D01*
X151421600Y-90055200D01*
X151373262Y-90037607D01*
X151347542Y-89993058D01*
X151346400Y-89980000D01*
X151346400Y-89547199D01*
X151363993Y-89498861D01*
X151408542Y-89473141D01*
X151421600Y-89471999D01*
X151881656Y-89471999D01*
X151926258Y-89463128D01*
X151976834Y-89429334D01*
X152010628Y-89378758D01*
X152019500Y-89334157D01*
X152019499Y-87653044D01*
X152010628Y-87608442D01*
X151976834Y-87557866D01*
X151932418Y-87528188D01*
X151932416Y-87528186D01*
X151926258Y-87524072D01*
X151881657Y-87515200D01*
X151041214Y-87515200D01*
X150200544Y-87515201D01*
X150155942Y-87524072D01*
X150105366Y-87557866D01*
X150071572Y-87608442D01*
X150062700Y-87653043D01*
X150062701Y-89334156D01*
X150071572Y-89378758D01*
X150105366Y-89429334D01*
X150111523Y-89433448D01*
X150149783Y-89459013D01*
X150149784Y-89459014D01*
X150155942Y-89463128D01*
X150200543Y-89472000D01*
X150660600Y-89472000D01*
X150708938Y-89489593D01*
X150734658Y-89534142D01*
X150735800Y-89547200D01*
X150735800Y-89980001D01*
X150718207Y-90028339D01*
X150673658Y-90054059D01*
X150660600Y-90055201D01*
X150200544Y-90055201D01*
X150155942Y-90064072D01*
X150105366Y-90097866D01*
X150071572Y-90148442D01*
X150062700Y-90193043D01*
X150062701Y-91874156D01*
X150071572Y-91918758D01*
X150105366Y-91969334D01*
X150111523Y-91973448D01*
X150149783Y-91999013D01*
X150149784Y-91999014D01*
X150155942Y-92003128D01*
X150163206Y-92004573D01*
X150182526Y-92008416D01*
X150200543Y-92012000D01*
X150243654Y-92012000D01*
X151045600Y-92011999D01*
X151093938Y-92029592D01*
X151119658Y-92074141D01*
X151120800Y-92087199D01*
X151120800Y-93039993D01*
X151103207Y-93088331D01*
X151058658Y-93114051D01*
X151008000Y-93105118D01*
X150992426Y-93093167D01*
X149501526Y-91602266D01*
X149479786Y-91555646D01*
X149479500Y-91549092D01*
X149479499Y-90196741D01*
X149479499Y-90193044D01*
X149470628Y-90148442D01*
X149436834Y-90097866D01*
X149392418Y-90068188D01*
X149392416Y-90068186D01*
X149386258Y-90064072D01*
X149341657Y-90055200D01*
X148881600Y-90055200D01*
X148833262Y-90037607D01*
X148807542Y-89993058D01*
X148806400Y-89980000D01*
X148806400Y-89547199D01*
X148823993Y-89498861D01*
X148868542Y-89473141D01*
X148881600Y-89471999D01*
X149341656Y-89471999D01*
X149386258Y-89463128D01*
X149436834Y-89429334D01*
X149470628Y-89378758D01*
X149479500Y-89334157D01*
X149479499Y-87653044D01*
X149470628Y-87608442D01*
X149436834Y-87557866D01*
X149392418Y-87528188D01*
X149392416Y-87528186D01*
X149386258Y-87524072D01*
X149341657Y-87515200D01*
X148501214Y-87515200D01*
X147660544Y-87515201D01*
X147615942Y-87524072D01*
X147565366Y-87557866D01*
X147531572Y-87608442D01*
X147522700Y-87653043D01*
X147522701Y-89334156D01*
X147531572Y-89378758D01*
X147565366Y-89429334D01*
X147571523Y-89433448D01*
X147609783Y-89459013D01*
X147609784Y-89459014D01*
X147615942Y-89463128D01*
X147660543Y-89472000D01*
X148120600Y-89472000D01*
X148168938Y-89489593D01*
X148194658Y-89534142D01*
X148195800Y-89547200D01*
X148195800Y-89980001D01*
X148178207Y-90028339D01*
X148133658Y-90054059D01*
X148120600Y-90055201D01*
X147660544Y-90055201D01*
X147615942Y-90064072D01*
X147565366Y-90097866D01*
X147531572Y-90148442D01*
X147522700Y-90193043D01*
X147522701Y-91874156D01*
X147531572Y-91918758D01*
X147565366Y-91969334D01*
X147571523Y-91973448D01*
X147609783Y-91999013D01*
X147609784Y-91999014D01*
X147615942Y-92003128D01*
X147623206Y-92004573D01*
X147642526Y-92008416D01*
X147660543Y-92012000D01*
X147807687Y-92012000D01*
X149016592Y-92011999D01*
X149064930Y-92029592D01*
X149069766Y-92034025D01*
X150598774Y-93563034D01*
X150620514Y-93609654D01*
X150620800Y-93616208D01*
X150620800Y-95079992D01*
X150603207Y-95128330D01*
X150558658Y-95154050D01*
X150508000Y-95145117D01*
X150492426Y-95133166D01*
X146961526Y-91602266D01*
X146939786Y-91555646D01*
X146939500Y-91549092D01*
X146939499Y-90196741D01*
X146939499Y-90193044D01*
X146930628Y-90148442D01*
X146896834Y-90097866D01*
X146852418Y-90068188D01*
X146852416Y-90068186D01*
X146846258Y-90064072D01*
X146801657Y-90055200D01*
X146341600Y-90055200D01*
X146293262Y-90037607D01*
X146267542Y-89993058D01*
X146266400Y-89980000D01*
X146266400Y-89547199D01*
X146283993Y-89498861D01*
X146328542Y-89473141D01*
X146341600Y-89471999D01*
X146801656Y-89471999D01*
X146846258Y-89463128D01*
X146896834Y-89429334D01*
X146930628Y-89378758D01*
X146939500Y-89334157D01*
X146939499Y-87653044D01*
X146930628Y-87608442D01*
X146896834Y-87557866D01*
X146852418Y-87528188D01*
X146852416Y-87528186D01*
X146846258Y-87524072D01*
X146801657Y-87515200D01*
X145961214Y-87515200D01*
X145120544Y-87515201D01*
X145075942Y-87524072D01*
X145025366Y-87557866D01*
X144991572Y-87608442D01*
X144982700Y-87653043D01*
X144982701Y-89334156D01*
X144991572Y-89378758D01*
X145025366Y-89429334D01*
X145031523Y-89433448D01*
X145069783Y-89459013D01*
X145069784Y-89459014D01*
X145075942Y-89463128D01*
X145120543Y-89472000D01*
X145580600Y-89472000D01*
X145628938Y-89489593D01*
X145654658Y-89534142D01*
X145655800Y-89547200D01*
X145655800Y-89980001D01*
X145638207Y-90028339D01*
X145593658Y-90054059D01*
X145580600Y-90055201D01*
X145120544Y-90055201D01*
X145075942Y-90064072D01*
X145025366Y-90097866D01*
X144991572Y-90148442D01*
X144982700Y-90193043D01*
X144982701Y-91874156D01*
X144991572Y-91918758D01*
X145025366Y-91969334D01*
X145031523Y-91973448D01*
X145069783Y-91999013D01*
X145069784Y-91999014D01*
X145075942Y-92003128D01*
X145083206Y-92004573D01*
X145102526Y-92008416D01*
X145120543Y-92012000D01*
X145267687Y-92012000D01*
X146476592Y-92011999D01*
X146524930Y-92029592D01*
X146529766Y-92034025D01*
X150098774Y-95603034D01*
X150120514Y-95649654D01*
X150120800Y-95656208D01*
X150120800Y-97147274D01*
X150103207Y-97195612D01*
X150058658Y-97221332D01*
X150008000Y-97212399D01*
X149981585Y-97186735D01*
X149975687Y-97177167D01*
X149970609Y-97167390D01*
X149961292Y-97145703D01*
X149961290Y-97145700D01*
X149959194Y-97140821D01*
X149955115Y-97135856D01*
X149948584Y-97129325D01*
X149937743Y-97115611D01*
X149934829Y-97110883D01*
X149934828Y-97110882D01*
X149931185Y-97104972D01*
X149906204Y-97085976D01*
X149898557Y-97079298D01*
X147247276Y-94428017D01*
X147225536Y-94381397D01*
X147225250Y-94374843D01*
X147225250Y-94003376D01*
X146853783Y-94003376D01*
X146805445Y-93985783D01*
X146800609Y-93981350D01*
X144421526Y-91602266D01*
X144399786Y-91555646D01*
X144399500Y-91549092D01*
X144399499Y-90196741D01*
X144399499Y-90193044D01*
X144390628Y-90148442D01*
X144356834Y-90097866D01*
X144312418Y-90068188D01*
X144312416Y-90068186D01*
X144306258Y-90064072D01*
X144261657Y-90055200D01*
X143801600Y-90055200D01*
X143753262Y-90037607D01*
X143727542Y-89993058D01*
X143726400Y-89980000D01*
X143726400Y-89547199D01*
X143743993Y-89498861D01*
X143788542Y-89473141D01*
X143801600Y-89471999D01*
X144261656Y-89471999D01*
X144306258Y-89463128D01*
X144356834Y-89429334D01*
X144390628Y-89378758D01*
X144399500Y-89334157D01*
X144399499Y-87653044D01*
X144390628Y-87608442D01*
X144356834Y-87557866D01*
X144312418Y-87528188D01*
X144312416Y-87528186D01*
X144306258Y-87524072D01*
X144261657Y-87515200D01*
X143421214Y-87515200D01*
X142580544Y-87515201D01*
X142535942Y-87524072D01*
X142485366Y-87557866D01*
X142451572Y-87608442D01*
X142442700Y-87653043D01*
X142442701Y-89334156D01*
X142451572Y-89378758D01*
X142485366Y-89429334D01*
X142491523Y-89433448D01*
X142529783Y-89459013D01*
X142529784Y-89459014D01*
X142535942Y-89463128D01*
X142580543Y-89472000D01*
X143040600Y-89472000D01*
X143088938Y-89489593D01*
X143114658Y-89534142D01*
X143115800Y-89547200D01*
X143115800Y-89980001D01*
X143098207Y-90028339D01*
X143053658Y-90054059D01*
X143040600Y-90055201D01*
X142580544Y-90055201D01*
X142535942Y-90064072D01*
X142485366Y-90097866D01*
X142451572Y-90148442D01*
X142442700Y-90193043D01*
X142442701Y-91874156D01*
X142451572Y-91918758D01*
X142485366Y-91969334D01*
X142491523Y-91973448D01*
X142529783Y-91999013D01*
X142529784Y-91999014D01*
X142535942Y-92003128D01*
X142543206Y-92004573D01*
X142562526Y-92008416D01*
X142580543Y-92012000D01*
X142727687Y-92012000D01*
X143936592Y-92011999D01*
X143984930Y-92029592D01*
X143989766Y-92034025D01*
X145830743Y-93875002D01*
X145852483Y-93921622D01*
X145839169Y-93971309D01*
X145797032Y-94000814D01*
X145777569Y-94003376D01*
X141309679Y-94003376D01*
X141309679Y-96342700D01*
X147225250Y-96342700D01*
X147225250Y-95451057D01*
X147242843Y-95402719D01*
X147287392Y-95376999D01*
X147338050Y-95385932D01*
X147353624Y-95397883D01*
X149373774Y-97418033D01*
X149395514Y-97464653D01*
X149395800Y-97471207D01*
X149395800Y-104037100D01*
X149378207Y-104085438D01*
X149335270Y-104110855D01*
X149291442Y-104119572D01*
X149240877Y-104153358D01*
X149190913Y-104165584D01*
X149144778Y-104142833D01*
X149123900Y-104090831D01*
X149123900Y-101086580D01*
X149126362Y-101067497D01*
X149126612Y-101066543D01*
X149126612Y-101066541D01*
X149128374Y-101059825D01*
X149124369Y-101024123D01*
X149123900Y-101015740D01*
X149123900Y-101008957D01*
X149123266Y-101005553D01*
X149123265Y-101005543D01*
X149121299Y-100994989D01*
X149120496Y-100989601D01*
X149116469Y-100953698D01*
X149116469Y-100953697D01*
X149115695Y-100946800D01*
X149112490Y-100940643D01*
X149111212Y-100936449D01*
X149109635Y-100932362D01*
X149108364Y-100925539D01*
X149085760Y-100888868D01*
X149083072Y-100884132D01*
X149065632Y-100850630D01*
X149063179Y-100845918D01*
X149058743Y-100841269D01*
X149057965Y-100840599D01*
X149054808Y-100837367D01*
X149052329Y-100834633D01*
X149048685Y-100828722D01*
X149012168Y-100800954D01*
X149008600Y-100798064D01*
X148534063Y-100389182D01*
X148508928Y-100344301D01*
X148507950Y-100332213D01*
X148507949Y-99573191D01*
X148507949Y-99569494D01*
X148499078Y-99524892D01*
X148465284Y-99474316D01*
X148420868Y-99444638D01*
X148420866Y-99444636D01*
X148414708Y-99440522D01*
X148370107Y-99431650D01*
X147707440Y-99431650D01*
X147044594Y-99431651D01*
X146999992Y-99440522D01*
X146949416Y-99474316D01*
X146915622Y-99524892D01*
X146906750Y-99569493D01*
X146906751Y-100590206D01*
X146915622Y-100634808D01*
X146949416Y-100685384D01*
X146955573Y-100689498D01*
X146993833Y-100715063D01*
X146993834Y-100715064D01*
X146999992Y-100719178D01*
X147044593Y-100728050D01*
X147155307Y-100728050D01*
X147963994Y-100728049D01*
X148013081Y-100746280D01*
X148487187Y-101154790D01*
X148512322Y-101199671D01*
X148513300Y-101211759D01*
X148513300Y-102901901D01*
X148495707Y-102950239D01*
X148451158Y-102975959D01*
X148400500Y-102967026D01*
X148384926Y-102955075D01*
X147991695Y-102561843D01*
X147981694Y-102549461D01*
X147977746Y-102543347D01*
X147974375Y-102538126D01*
X147947630Y-102517042D01*
X147941012Y-102511160D01*
X147938232Y-102508380D01*
X147933371Y-102504906D01*
X147922675Y-102497262D01*
X147919844Y-102495136D01*
X147886160Y-102468583D01*
X147881275Y-102464732D01*
X147875409Y-102462672D01*
X147874361Y-102462096D01*
X147873644Y-102461645D01*
X147873088Y-102461356D01*
X147872321Y-102461035D01*
X147871234Y-102460503D01*
X147866179Y-102456890D01*
X147819119Y-102442816D01*
X147815788Y-102441735D01*
X147769421Y-102425452D01*
X147764202Y-102425000D01*
X147762846Y-102425000D01*
X147758238Y-102424610D01*
X147752598Y-102422923D01*
X147712458Y-102424500D01*
X147701207Y-102424942D01*
X147698255Y-102425000D01*
X142366500Y-102425000D01*
X142318162Y-102407407D01*
X142292442Y-102362858D01*
X142291300Y-102349800D01*
X142291300Y-100035543D01*
X144347700Y-100035543D01*
X144347701Y-101716656D01*
X144356572Y-101761258D01*
X144390366Y-101811834D01*
X144396523Y-101815948D01*
X144434783Y-101841513D01*
X144434784Y-101841514D01*
X144440942Y-101845628D01*
X144448206Y-101847073D01*
X144477716Y-101852943D01*
X144485543Y-101854500D01*
X145325986Y-101854500D01*
X146166656Y-101854499D01*
X146211258Y-101845628D01*
X146261834Y-101811834D01*
X146266873Y-101804293D01*
X146291513Y-101767417D01*
X146291514Y-101767416D01*
X146295628Y-101761258D01*
X146304500Y-101716657D01*
X146304499Y-100035544D01*
X146295628Y-99990942D01*
X146261834Y-99940366D01*
X146255677Y-99936252D01*
X146217417Y-99910687D01*
X146217416Y-99910686D01*
X146211258Y-99906572D01*
X146166657Y-99897700D01*
X145326214Y-99897700D01*
X144485544Y-99897701D01*
X144440942Y-99906572D01*
X144390366Y-99940366D01*
X144356572Y-99990942D01*
X144347700Y-100035543D01*
X142291300Y-100035543D01*
X142291300Y-98526493D01*
X142291821Y-98517654D01*
X142295580Y-98485893D01*
X142296241Y-98480310D01*
X142291391Y-98453751D01*
X142289860Y-98445369D01*
X142285380Y-98420840D01*
X142284996Y-98418534D01*
X142276843Y-98364304D01*
X142276008Y-98358748D01*
X142273648Y-98353832D01*
X142273557Y-98353460D01*
X142273457Y-98353169D01*
X142272728Y-98350928D01*
X142272637Y-98350633D01*
X142272494Y-98350284D01*
X142271514Y-98344918D01*
X142255026Y-98313177D01*
X142243670Y-98291315D01*
X142242614Y-98289202D01*
X142218865Y-98239746D01*
X142218864Y-98239744D01*
X142216431Y-98234678D01*
X142212729Y-98230673D01*
X142212176Y-98229746D01*
X142210041Y-98226578D01*
X142208069Y-98222782D01*
X142203691Y-98217655D01*
X142165121Y-98179085D01*
X142163074Y-98176957D01*
X142126821Y-98137739D01*
X142123006Y-98133612D01*
X142118146Y-98130789D01*
X142114733Y-98128055D01*
X142108576Y-98122540D01*
X141481579Y-97495543D01*
X144347700Y-97495543D01*
X144347701Y-99176656D01*
X144356572Y-99221258D01*
X144390366Y-99271834D01*
X144396523Y-99275948D01*
X144434783Y-99301513D01*
X144434784Y-99301514D01*
X144440942Y-99305628D01*
X144485543Y-99314500D01*
X145325986Y-99314500D01*
X146166656Y-99314499D01*
X146211258Y-99305628D01*
X146261834Y-99271834D01*
X146295628Y-99221258D01*
X146304500Y-99176657D01*
X146304500Y-98611150D01*
X146322093Y-98562812D01*
X146366642Y-98537092D01*
X146379700Y-98535950D01*
X146831551Y-98535950D01*
X146879889Y-98553543D01*
X146905609Y-98598092D01*
X146906751Y-98611150D01*
X146906751Y-98690206D01*
X146915622Y-98734808D01*
X146949416Y-98785384D01*
X146955573Y-98789498D01*
X146993833Y-98815063D01*
X146993834Y-98815064D01*
X146999992Y-98819178D01*
X147044593Y-98828050D01*
X147707260Y-98828050D01*
X148370106Y-98828049D01*
X148414708Y-98819178D01*
X148465284Y-98785384D01*
X148490934Y-98746997D01*
X148494963Y-98740967D01*
X148494964Y-98740966D01*
X148499078Y-98734808D01*
X148507950Y-98690207D01*
X148507949Y-97669494D01*
X148499078Y-97624892D01*
X148465284Y-97574316D01*
X148420868Y-97544638D01*
X148420866Y-97544636D01*
X148414708Y-97540522D01*
X148370107Y-97531650D01*
X147707440Y-97531650D01*
X147044594Y-97531651D01*
X146999992Y-97540522D01*
X146949416Y-97574316D01*
X146915622Y-97624892D01*
X146906750Y-97669493D01*
X146906750Y-97748550D01*
X146889157Y-97796888D01*
X146844608Y-97822608D01*
X146831550Y-97823750D01*
X146379699Y-97823750D01*
X146331361Y-97806157D01*
X146305641Y-97761608D01*
X146304499Y-97748550D01*
X146304499Y-97495544D01*
X146295628Y-97450942D01*
X146261834Y-97400366D01*
X146217418Y-97370688D01*
X146217416Y-97370686D01*
X146211258Y-97366572D01*
X146166657Y-97357700D01*
X145326214Y-97357700D01*
X144485544Y-97357701D01*
X144440942Y-97366572D01*
X144390366Y-97400366D01*
X144356572Y-97450942D01*
X144355127Y-97458206D01*
X144348699Y-97490523D01*
X144347700Y-97495543D01*
X141481579Y-97495543D01*
X141068373Y-97082337D01*
X141062491Y-97075719D01*
X141042684Y-97050594D01*
X141039206Y-97046182D01*
X140989471Y-97011808D01*
X140987549Y-97010434D01*
X140974955Y-97001132D01*
X140938941Y-96974532D01*
X140933797Y-96972726D01*
X140933475Y-96972530D01*
X140933183Y-96972387D01*
X140931095Y-96971323D01*
X140930821Y-96971178D01*
X140930474Y-96971032D01*
X140925985Y-96967930D01*
X140920624Y-96966235D01*
X140920623Y-96966234D01*
X140868350Y-96949702D01*
X140866110Y-96948954D01*
X140814388Y-96930790D01*
X140814382Y-96930789D01*
X140809083Y-96928928D01*
X140803634Y-96928714D01*
X140802590Y-96928450D01*
X140798839Y-96927719D01*
X140794759Y-96926429D01*
X140790168Y-96926068D01*
X140789514Y-96926016D01*
X140789510Y-96926016D01*
X140788038Y-96925900D01*
X140733485Y-96925900D01*
X140730533Y-96925842D01*
X140728394Y-96925758D01*
X140671557Y-96923525D01*
X140670875Y-96923706D01*
X140622974Y-96912029D01*
X140592522Y-96870572D01*
X140589499Y-96849466D01*
X140589499Y-96543044D01*
X140580628Y-96498442D01*
X140546834Y-96447866D01*
X140502418Y-96418188D01*
X140502416Y-96418186D01*
X140496258Y-96414072D01*
X140451657Y-96405200D01*
X139611214Y-96405200D01*
X138770544Y-96405201D01*
X138725942Y-96414072D01*
X138675366Y-96447866D01*
X138671252Y-96454023D01*
X138652870Y-96481534D01*
X138641572Y-96498442D01*
X138632700Y-96543043D01*
X138632700Y-96850700D01*
X138615107Y-96899038D01*
X138570558Y-96924758D01*
X138557500Y-96925900D01*
X138124699Y-96925900D01*
X138076361Y-96908307D01*
X138050641Y-96863758D01*
X138049499Y-96850700D01*
X138049499Y-96543044D01*
X138040628Y-96498442D01*
X138006834Y-96447866D01*
X137962418Y-96418188D01*
X137962416Y-96418186D01*
X137956258Y-96414072D01*
X137911657Y-96405200D01*
X137071214Y-96405200D01*
X136230544Y-96405201D01*
X136185942Y-96414072D01*
X136135366Y-96447866D01*
X136131252Y-96454023D01*
X136112870Y-96481534D01*
X136101572Y-96498442D01*
X136092700Y-96543043D01*
X136092701Y-98224156D01*
X136101572Y-98268758D01*
X136135366Y-98319334D01*
X136141523Y-98323448D01*
X136179783Y-98349013D01*
X136179784Y-98349014D01*
X136185942Y-98353128D01*
X136193206Y-98354573D01*
X136214195Y-98358748D01*
X136230543Y-98362000D01*
X137070986Y-98362000D01*
X137911656Y-98361999D01*
X137956258Y-98353128D01*
X138006834Y-98319334D01*
X138025556Y-98291315D01*
X138036513Y-98274917D01*
X138036514Y-98274916D01*
X138040628Y-98268758D01*
X138049500Y-98224157D01*
X138049500Y-97916500D01*
X138067093Y-97868162D01*
X138111642Y-97842442D01*
X138124700Y-97841300D01*
X138557501Y-97841300D01*
X138605839Y-97858893D01*
X138631559Y-97903442D01*
X138632701Y-97916500D01*
X138632701Y-98224156D01*
X138641572Y-98268758D01*
X138675366Y-98319334D01*
X138681523Y-98323448D01*
X138719783Y-98349013D01*
X138719784Y-98349014D01*
X138725942Y-98353128D01*
X138733206Y-98354573D01*
X138754195Y-98358748D01*
X138770543Y-98362000D01*
X139610986Y-98362000D01*
X140451656Y-98361999D01*
X140496258Y-98353128D01*
X140546834Y-98319334D01*
X140565556Y-98291315D01*
X140576513Y-98274917D01*
X140576514Y-98274916D01*
X140580628Y-98268758D01*
X140589500Y-98224157D01*
X140589500Y-98079583D01*
X140607093Y-98031245D01*
X140651642Y-98005525D01*
X140702300Y-98014458D01*
X140717874Y-98026409D01*
X141353874Y-98662409D01*
X141375614Y-98709029D01*
X141375900Y-98715583D01*
X141375900Y-103632501D01*
X141358307Y-103680839D01*
X141313758Y-103706559D01*
X141300700Y-103707701D01*
X140993044Y-103707701D01*
X140948442Y-103716572D01*
X140897866Y-103750366D01*
X140864072Y-103800942D01*
X140862627Y-103808206D01*
X140857821Y-103832369D01*
X140855200Y-103845543D01*
X140855201Y-105526656D01*
X140864072Y-105571258D01*
X140897866Y-105621834D01*
X140904023Y-105625948D01*
X140942283Y-105651513D01*
X140942284Y-105651514D01*
X140948442Y-105655628D01*
X140993043Y-105664500D01*
X141300700Y-105664500D01*
X141349038Y-105682093D01*
X141374758Y-105726642D01*
X141375900Y-105739700D01*
X141375900Y-106400701D01*
X141375379Y-106409539D01*
X141370958Y-106446890D01*
X141381324Y-106503646D01*
X141381819Y-106506357D01*
X141382198Y-106508633D01*
X141391192Y-106568452D01*
X141393553Y-106573369D01*
X141393643Y-106573737D01*
X141393739Y-106574017D01*
X141394466Y-106576255D01*
X141394561Y-106576564D01*
X141394705Y-106576916D01*
X141395685Y-106582281D01*
X141398275Y-106587267D01*
X141398276Y-106587270D01*
X141423546Y-106635916D01*
X141424602Y-106638029D01*
X141450769Y-106692522D01*
X141454472Y-106696528D01*
X141455023Y-106697451D01*
X141457152Y-106700610D01*
X141459130Y-106704418D01*
X141463509Y-106709544D01*
X141464550Y-106710585D01*
X141502083Y-106748119D01*
X141504128Y-106750246D01*
X141544194Y-106793588D01*
X141549053Y-106796411D01*
X141552472Y-106799150D01*
X141558628Y-106804664D01*
X141671374Y-106917410D01*
X141693114Y-106964030D01*
X141693400Y-106970584D01*
X141693400Y-107101738D01*
X141693817Y-107104515D01*
X141693818Y-107104522D01*
X141702255Y-107160638D01*
X141708692Y-107203452D01*
X141711124Y-107208517D01*
X141711125Y-107208520D01*
X141740766Y-107270248D01*
X141745831Y-107321438D01*
X141716806Y-107363907D01*
X141672977Y-107378000D01*
X140780214Y-107378001D01*
X140690744Y-107378001D01*
X140646142Y-107386872D01*
X140595566Y-107420666D01*
X140561772Y-107471242D01*
X140560327Y-107478506D01*
X140553978Y-107510426D01*
X140552900Y-107515843D01*
X140552900Y-107747300D01*
X140535307Y-107795638D01*
X140490758Y-107821358D01*
X140477700Y-107822500D01*
X140424749Y-107822500D01*
X140376411Y-107804907D01*
X140371575Y-107800474D01*
X139989226Y-107418124D01*
X139967486Y-107371504D01*
X139967200Y-107364950D01*
X139967200Y-105801699D01*
X139984793Y-105753361D01*
X140029342Y-105727641D01*
X140042400Y-105726499D01*
X140246156Y-105726499D01*
X140290758Y-105717628D01*
X140341334Y-105683834D01*
X140354253Y-105664499D01*
X140371013Y-105639417D01*
X140371014Y-105639416D01*
X140375128Y-105633258D01*
X140377003Y-105623834D01*
X140383279Y-105592282D01*
X140383279Y-105592281D01*
X140384000Y-105588657D01*
X140383999Y-104058544D01*
X140375128Y-104013942D01*
X140341334Y-103963366D01*
X140328833Y-103955013D01*
X140296917Y-103933687D01*
X140296916Y-103933686D01*
X140290758Y-103929572D01*
X140246157Y-103920700D01*
X139706174Y-103920700D01*
X139166044Y-103920701D01*
X139141350Y-103925612D01*
X139128711Y-103928126D01*
X139128710Y-103928126D01*
X139121442Y-103929572D01*
X139115279Y-103933690D01*
X139112882Y-103934683D01*
X139061491Y-103936927D01*
X139019985Y-103904499D01*
X139006478Y-103882457D01*
X139006477Y-103882455D01*
X139004936Y-103879941D01*
X138841324Y-103688376D01*
X138649759Y-103524764D01*
X138597699Y-103492861D01*
X138437484Y-103394681D01*
X138437481Y-103394679D01*
X138434959Y-103393134D01*
X138359850Y-103362023D01*
X138204945Y-103297859D01*
X138204940Y-103297857D01*
X138202211Y-103296727D01*
X138199334Y-103296036D01*
X138199330Y-103296035D01*
X137960122Y-103238607D01*
X137957248Y-103237917D01*
X137954304Y-103237685D01*
X137954302Y-103237685D01*
X137770460Y-103223216D01*
X137770452Y-103223216D01*
X137768982Y-103223100D01*
X137643218Y-103223100D01*
X137641748Y-103223216D01*
X137641740Y-103223216D01*
X137457898Y-103237685D01*
X137457896Y-103237685D01*
X137454952Y-103237917D01*
X137452078Y-103238607D01*
X137212870Y-103296035D01*
X137212866Y-103296036D01*
X137209989Y-103296727D01*
X137207260Y-103297857D01*
X137207255Y-103297859D01*
X137052351Y-103362023D01*
X136977241Y-103393134D01*
X136974719Y-103394679D01*
X136974716Y-103394681D01*
X136814501Y-103492861D01*
X136762441Y-103524764D01*
X136570876Y-103688376D01*
X136407264Y-103879941D01*
X136405720Y-103882461D01*
X136392214Y-103904499D01*
X136351956Y-103936520D01*
X136299318Y-103934682D01*
X136296916Y-103933687D01*
X136290758Y-103929572D01*
X136246157Y-103920700D01*
X135706174Y-103920700D01*
X135166044Y-103920701D01*
X135121442Y-103929572D01*
X135070866Y-103963366D01*
X135066752Y-103969523D01*
X135046288Y-104000150D01*
X135037072Y-104013942D01*
X135028200Y-104058543D01*
X135028201Y-104527306D01*
X135028201Y-104966750D01*
X135010608Y-105015088D01*
X135006175Y-105019924D01*
X134788094Y-105238005D01*
X134775709Y-105248008D01*
X134769595Y-105251955D01*
X134769593Y-105251956D01*
X134764376Y-105255325D01*
X134760532Y-105260201D01*
X134760530Y-105260203D01*
X134743292Y-105282070D01*
X134737410Y-105288688D01*
X134734630Y-105291468D01*
X134732825Y-105293994D01*
X134732824Y-105293995D01*
X134723512Y-105307025D01*
X134721386Y-105309856D01*
X134705908Y-105329491D01*
X134690982Y-105348425D01*
X134688922Y-105354291D01*
X134688346Y-105355339D01*
X134687895Y-105356056D01*
X134687606Y-105356612D01*
X134687285Y-105357379D01*
X134686753Y-105358466D01*
X134683140Y-105363521D01*
X134679612Y-105375320D01*
X134669069Y-105410573D01*
X134667985Y-105413912D01*
X134651702Y-105460279D01*
X134651250Y-105465498D01*
X134651250Y-105466854D01*
X134650860Y-105471462D01*
X134649173Y-105477102D01*
X134649417Y-105483311D01*
X134651192Y-105528493D01*
X134651250Y-105531445D01*
X134651250Y-106631848D01*
X134633657Y-106680186D01*
X134625485Y-106688516D01*
X134516191Y-106783859D01*
X134486452Y-106826174D01*
X134440905Y-106890981D01*
X134424880Y-106913782D01*
X134423233Y-106918005D01*
X134423233Y-106918006D01*
X134377814Y-107034501D01*
X134367195Y-107061736D01*
X134346467Y-107219179D01*
X134346964Y-107223681D01*
X134346964Y-107223685D01*
X134356306Y-107308300D01*
X134363893Y-107377021D01*
X134365449Y-107381273D01*
X134365450Y-107381277D01*
X134379865Y-107420666D01*
X134418467Y-107526151D01*
X134420991Y-107529907D01*
X134420993Y-107529911D01*
X134497875Y-107644322D01*
X134507038Y-107657958D01*
X134624492Y-107764833D01*
X134628473Y-107766994D01*
X134628475Y-107766996D01*
X134640723Y-107773646D01*
X134764049Y-107840607D01*
X134768428Y-107841756D01*
X134768431Y-107841757D01*
X134913273Y-107879755D01*
X134917653Y-107880904D01*
X134981674Y-107881910D01*
X135071903Y-107883327D01*
X135071905Y-107883327D01*
X135076435Y-107883398D01*
X135080853Y-107882386D01*
X135080855Y-107882386D01*
X135226806Y-107848959D01*
X135226808Y-107848958D01*
X135231228Y-107847946D01*
X135373097Y-107776593D01*
X135381879Y-107769093D01*
X135456545Y-107705322D01*
X135493851Y-107673460D01*
X135558643Y-107583292D01*
X135583872Y-107548183D01*
X135583874Y-107548180D01*
X135586518Y-107544500D01*
X135591237Y-107532763D01*
X135644058Y-107401364D01*
X135645749Y-107397158D01*
X135662639Y-107278481D01*
X135667779Y-107242368D01*
X135667779Y-107242362D01*
X135668124Y-107239941D01*
X135668269Y-107226100D01*
X135667432Y-107219179D01*
X135649736Y-107072951D01*
X135649736Y-107072949D01*
X135649191Y-107068449D01*
X135647526Y-107064042D01*
X135594663Y-106924143D01*
X135594662Y-106924141D01*
X135593059Y-106919899D01*
X135562413Y-106875308D01*
X135505681Y-106792762D01*
X135505679Y-106792760D01*
X135503113Y-106789026D01*
X135494670Y-106781503D01*
X135388625Y-106687022D01*
X135364238Y-106641731D01*
X135363450Y-106630875D01*
X135363450Y-105801700D01*
X135381043Y-105753362D01*
X135425592Y-105727642D01*
X135438650Y-105726500D01*
X136204794Y-105726499D01*
X136246156Y-105726499D01*
X136270850Y-105721588D01*
X136283489Y-105719074D01*
X136283490Y-105719074D01*
X136290758Y-105717628D01*
X136296921Y-105713510D01*
X136299318Y-105712517D01*
X136350709Y-105710273D01*
X136392215Y-105742701D01*
X136407264Y-105767259D01*
X136570876Y-105958824D01*
X136762441Y-106122436D01*
X136764964Y-106123982D01*
X136974716Y-106252519D01*
X136974719Y-106252521D01*
X136977241Y-106254066D01*
X137003131Y-106264790D01*
X137207255Y-106349341D01*
X137207260Y-106349343D01*
X137209989Y-106350473D01*
X137212866Y-106351164D01*
X137212870Y-106351165D01*
X137368850Y-106388612D01*
X137454952Y-106409283D01*
X137457896Y-106409515D01*
X137457898Y-106409515D01*
X137641740Y-106423984D01*
X137641748Y-106423984D01*
X137643218Y-106424100D01*
X137768982Y-106424100D01*
X137770452Y-106423984D01*
X137770460Y-106423984D01*
X137954302Y-106409515D01*
X137954304Y-106409515D01*
X137957248Y-106409283D01*
X138043350Y-106388612D01*
X138199330Y-106351165D01*
X138199334Y-106351164D01*
X138202211Y-106350473D01*
X138204940Y-106349343D01*
X138204945Y-106349341D01*
X138409069Y-106264790D01*
X138434959Y-106254066D01*
X138437481Y-106252521D01*
X138437484Y-106252519D01*
X138647236Y-106123982D01*
X138649759Y-106122436D01*
X138841324Y-105958824D01*
X139004936Y-105767259D01*
X139013453Y-105753361D01*
X139019986Y-105742701D01*
X139060244Y-105710680D01*
X139112882Y-105712518D01*
X139115282Y-105713512D01*
X139121442Y-105717628D01*
X139166043Y-105726500D01*
X139179800Y-105726500D01*
X139228138Y-105744093D01*
X139253858Y-105788642D01*
X139255000Y-105801700D01*
X139255000Y-107497579D01*
X139253315Y-107513407D01*
X139250476Y-107526593D01*
X139251206Y-107532761D01*
X139251206Y-107532763D01*
X139254479Y-107560414D01*
X139255000Y-107569253D01*
X139255000Y-107573184D01*
X139255509Y-107576244D01*
X139255510Y-107576252D01*
X139258137Y-107592033D01*
X139258635Y-107595529D01*
X139264410Y-107644322D01*
X139267102Y-107649927D01*
X139267437Y-107651081D01*
X139267623Y-107651896D01*
X139267816Y-107652508D01*
X139268132Y-107653279D01*
X139268520Y-107654413D01*
X139269540Y-107660542D01*
X139272490Y-107666010D01*
X139272491Y-107666012D01*
X139292861Y-107703763D01*
X139294451Y-107706882D01*
X139315728Y-107751190D01*
X139319099Y-107755200D01*
X139320053Y-107756154D01*
X139323038Y-107759690D01*
X139325835Y-107764874D01*
X139359115Y-107795638D01*
X139363623Y-107799805D01*
X139365751Y-107801852D01*
X139961756Y-108397857D01*
X139971752Y-108410233D01*
X139979075Y-108421574D01*
X139983956Y-108425422D01*
X139983957Y-108425423D01*
X140005825Y-108442662D01*
X140012443Y-108448544D01*
X140015219Y-108451320D01*
X140030810Y-108462461D01*
X140033579Y-108464541D01*
X140072175Y-108494968D01*
X140078041Y-108497028D01*
X140079089Y-108497604D01*
X140079806Y-108498055D01*
X140080362Y-108498344D01*
X140081129Y-108498665D01*
X140082216Y-108499197D01*
X140087271Y-108502810D01*
X140134331Y-108516884D01*
X140137662Y-108517965D01*
X140184029Y-108534248D01*
X140189248Y-108534700D01*
X140190604Y-108534700D01*
X140195212Y-108535090D01*
X140200852Y-108536777D01*
X140252242Y-108534758D01*
X140255195Y-108534700D01*
X140477701Y-108534700D01*
X140526039Y-108552293D01*
X140551759Y-108596842D01*
X140552901Y-108609900D01*
X140552901Y-108841356D01*
X140561772Y-108885958D01*
X140595566Y-108936534D01*
X140601723Y-108940648D01*
X140639983Y-108966213D01*
X140639984Y-108966214D01*
X140646142Y-108970328D01*
X140653404Y-108971773D01*
X140653405Y-108971773D01*
X140684564Y-108977971D01*
X140728540Y-109004657D01*
X140745074Y-109053368D01*
X140726430Y-109101310D01*
X140684562Y-109125481D01*
X140646142Y-109133122D01*
X140595566Y-109166916D01*
X140591452Y-109173073D01*
X140569576Y-109205813D01*
X140561772Y-109217492D01*
X140560327Y-109224756D01*
X140560169Y-109225553D01*
X140552900Y-109262093D01*
X140552900Y-109493550D01*
X140535307Y-109541888D01*
X140490758Y-109567608D01*
X140477700Y-109568750D01*
X140459199Y-109568750D01*
X140410861Y-109551157D01*
X140385141Y-109506608D01*
X140383999Y-109493550D01*
X140383999Y-109058544D01*
X140375128Y-109013942D01*
X140341334Y-108963366D01*
X140319355Y-108948680D01*
X140296917Y-108933687D01*
X140296916Y-108933686D01*
X140290758Y-108929572D01*
X140274224Y-108926283D01*
X140249782Y-108921421D01*
X140249781Y-108921421D01*
X140246157Y-108920700D01*
X139706174Y-108920700D01*
X139166044Y-108920701D01*
X139141350Y-108925612D01*
X139128711Y-108928126D01*
X139128710Y-108928126D01*
X139121442Y-108929572D01*
X139115279Y-108933690D01*
X139112882Y-108934683D01*
X139061491Y-108936927D01*
X139019985Y-108904499D01*
X139006478Y-108882457D01*
X139006477Y-108882455D01*
X139004936Y-108879941D01*
X138841324Y-108688376D01*
X138649759Y-108524764D01*
X138548025Y-108462421D01*
X138437484Y-108394681D01*
X138437481Y-108394679D01*
X138434959Y-108393134D01*
X138300284Y-108337350D01*
X138204945Y-108297859D01*
X138204940Y-108297857D01*
X138202211Y-108296727D01*
X138199334Y-108296036D01*
X138199330Y-108296035D01*
X137960122Y-108238607D01*
X137957248Y-108237917D01*
X137954304Y-108237685D01*
X137954302Y-108237685D01*
X137770460Y-108223216D01*
X137770452Y-108223216D01*
X137768982Y-108223100D01*
X137643218Y-108223100D01*
X137641748Y-108223216D01*
X137641740Y-108223216D01*
X137457898Y-108237685D01*
X137457896Y-108237685D01*
X137454952Y-108237917D01*
X137452078Y-108238607D01*
X137212870Y-108296035D01*
X137212866Y-108296036D01*
X137209989Y-108296727D01*
X137207260Y-108297857D01*
X137207255Y-108297859D01*
X137111916Y-108337350D01*
X136977241Y-108393134D01*
X136974719Y-108394679D01*
X136974716Y-108394681D01*
X136864175Y-108462421D01*
X136762441Y-108524764D01*
X136570876Y-108688376D01*
X136407264Y-108879941D01*
X136405720Y-108882461D01*
X136392214Y-108904499D01*
X136351956Y-108936520D01*
X136299318Y-108934682D01*
X136296916Y-108933687D01*
X136290758Y-108929572D01*
X136246157Y-108920700D01*
X135706174Y-108920700D01*
X135166044Y-108920701D01*
X135121442Y-108929572D01*
X135070866Y-108963366D01*
X135066752Y-108969523D01*
X135050819Y-108993369D01*
X135037072Y-109013942D01*
X135028200Y-109058543D01*
X135028200Y-109062239D01*
X135028201Y-109966750D01*
X135010608Y-110015088D01*
X135006175Y-110019924D01*
X134788094Y-110238005D01*
X134775709Y-110248008D01*
X134769595Y-110251955D01*
X134769593Y-110251956D01*
X134764376Y-110255325D01*
X134760532Y-110260201D01*
X134760530Y-110260203D01*
X134743292Y-110282070D01*
X134737410Y-110288688D01*
X134734630Y-110291468D01*
X134732825Y-110293994D01*
X134732824Y-110293995D01*
X134723512Y-110307025D01*
X134721386Y-110309856D01*
X134695321Y-110342921D01*
X134690982Y-110348425D01*
X134688922Y-110354291D01*
X134688346Y-110355339D01*
X134687895Y-110356056D01*
X134687606Y-110356612D01*
X134687285Y-110357379D01*
X134686753Y-110358466D01*
X134683140Y-110363521D01*
X134669253Y-110409959D01*
X134669069Y-110410573D01*
X134667985Y-110413912D01*
X134651702Y-110460279D01*
X134651250Y-110465498D01*
X134651250Y-110466854D01*
X134650860Y-110471462D01*
X134649173Y-110477102D01*
X134649417Y-110483311D01*
X134651192Y-110528493D01*
X134651250Y-110531445D01*
X134651250Y-111553098D01*
X134633657Y-111601436D01*
X134625485Y-111609766D01*
X134516191Y-111705109D01*
X134492764Y-111738442D01*
X134436913Y-111817911D01*
X134424880Y-111835032D01*
X134423233Y-111839255D01*
X134423233Y-111839256D01*
X134372832Y-111968528D01*
X134367195Y-111982986D01*
X134346467Y-112140429D01*
X133540600Y-112140429D01*
X133540600Y-100779980D01*
X135890801Y-100779980D01*
X135891202Y-100785449D01*
X135900215Y-100846684D01*
X135903641Y-100857709D01*
X135950385Y-100952917D01*
X135957519Y-100962882D01*
X136032320Y-101037551D01*
X136042302Y-101044672D01*
X136137595Y-101091252D01*
X136148609Y-101094656D01*
X136209268Y-101103506D01*
X136214701Y-101103900D01*
X136880441Y-101103900D01*
X136890598Y-101100203D01*
X136893700Y-101094831D01*
X136893700Y-101090640D01*
X137248500Y-101090640D01*
X137252197Y-101100797D01*
X137257569Y-101103899D01*
X137927480Y-101103899D01*
X137932949Y-101103498D01*
X137994184Y-101094485D01*
X138005209Y-101091059D01*
X138100417Y-101044315D01*
X138110382Y-101037181D01*
X138185051Y-100962380D01*
X138192172Y-100952398D01*
X138238752Y-100857105D01*
X138242156Y-100846091D01*
X138251006Y-100785432D01*
X138251400Y-100779999D01*
X138251400Y-100779980D01*
X138430801Y-100779980D01*
X138431202Y-100785449D01*
X138440215Y-100846684D01*
X138443641Y-100857709D01*
X138490385Y-100952917D01*
X138497519Y-100962882D01*
X138572320Y-101037551D01*
X138582302Y-101044672D01*
X138677595Y-101091252D01*
X138688609Y-101094656D01*
X138749268Y-101103506D01*
X138754701Y-101103900D01*
X139420441Y-101103900D01*
X139430598Y-101100203D01*
X139433700Y-101094831D01*
X139433700Y-101090640D01*
X139788500Y-101090640D01*
X139792197Y-101100797D01*
X139797569Y-101103899D01*
X140467480Y-101103899D01*
X140472949Y-101103498D01*
X140534184Y-101094485D01*
X140545209Y-101091059D01*
X140640417Y-101044315D01*
X140650382Y-101037181D01*
X140725051Y-100962380D01*
X140732172Y-100952398D01*
X140778752Y-100857105D01*
X140782156Y-100846091D01*
X140791006Y-100785432D01*
X140791400Y-100779999D01*
X140791400Y-100114259D01*
X140787703Y-100104102D01*
X140782331Y-100101000D01*
X139801759Y-100101000D01*
X139791602Y-100104697D01*
X139788500Y-100110069D01*
X139788500Y-101090640D01*
X139433700Y-101090640D01*
X139433700Y-100114259D01*
X139430003Y-100104102D01*
X139424631Y-100101000D01*
X138444060Y-100101000D01*
X138433903Y-100104697D01*
X138430801Y-100110069D01*
X138430801Y-100779980D01*
X138251400Y-100779980D01*
X138251400Y-100114259D01*
X138247703Y-100104102D01*
X138242331Y-100101000D01*
X137261759Y-100101000D01*
X137251602Y-100104697D01*
X137248500Y-100110069D01*
X137248500Y-101090640D01*
X136893700Y-101090640D01*
X136893700Y-100114259D01*
X136890003Y-100104102D01*
X136884631Y-100101000D01*
X135904060Y-100101000D01*
X135893903Y-100104697D01*
X135890801Y-100110069D01*
X135890801Y-100779980D01*
X133540600Y-100779980D01*
X133540600Y-99732941D01*
X135890800Y-99732941D01*
X135894497Y-99743098D01*
X135899869Y-99746200D01*
X136880441Y-99746200D01*
X136890598Y-99742503D01*
X136893700Y-99737131D01*
X136893700Y-99732941D01*
X137248500Y-99732941D01*
X137252197Y-99743098D01*
X137257569Y-99746200D01*
X138238140Y-99746200D01*
X138248297Y-99742503D01*
X138251399Y-99737131D01*
X138251399Y-99732941D01*
X138430800Y-99732941D01*
X138434497Y-99743098D01*
X138439869Y-99746200D01*
X139420441Y-99746200D01*
X139430598Y-99742503D01*
X139433700Y-99737131D01*
X139433700Y-99732941D01*
X139788500Y-99732941D01*
X139792197Y-99743098D01*
X139797569Y-99746200D01*
X140778140Y-99746200D01*
X140788297Y-99742503D01*
X140791399Y-99737131D01*
X140791399Y-99067220D01*
X140790998Y-99061751D01*
X140781985Y-99000516D01*
X140778559Y-98989491D01*
X140731815Y-98894283D01*
X140724681Y-98884318D01*
X140649880Y-98809649D01*
X140639898Y-98802528D01*
X140544605Y-98755948D01*
X140533591Y-98752544D01*
X140472932Y-98743694D01*
X140467499Y-98743300D01*
X139801759Y-98743300D01*
X139791602Y-98746997D01*
X139788500Y-98752369D01*
X139788500Y-99732941D01*
X139433700Y-99732941D01*
X139433700Y-98756560D01*
X139430003Y-98746403D01*
X139424631Y-98743301D01*
X138754720Y-98743301D01*
X138749251Y-98743702D01*
X138688016Y-98752715D01*
X138676991Y-98756141D01*
X138581783Y-98802885D01*
X138571818Y-98810019D01*
X138497149Y-98884820D01*
X138490028Y-98894802D01*
X138443448Y-98990095D01*
X138440044Y-99001109D01*
X138431194Y-99061768D01*
X138430800Y-99067201D01*
X138430800Y-99732941D01*
X138251399Y-99732941D01*
X138251399Y-99067220D01*
X138250998Y-99061751D01*
X138241985Y-99000516D01*
X138238559Y-98989491D01*
X138191815Y-98894283D01*
X138184681Y-98884318D01*
X138109880Y-98809649D01*
X138099898Y-98802528D01*
X138004605Y-98755948D01*
X137993591Y-98752544D01*
X137932932Y-98743694D01*
X137927499Y-98743300D01*
X137261759Y-98743300D01*
X137251602Y-98746997D01*
X137248500Y-98752369D01*
X137248500Y-99732941D01*
X136893700Y-99732941D01*
X136893700Y-98756560D01*
X136890003Y-98746403D01*
X136884631Y-98743301D01*
X136214720Y-98743301D01*
X136209251Y-98743702D01*
X136148016Y-98752715D01*
X136136991Y-98756141D01*
X136041783Y-98802885D01*
X136031818Y-98810019D01*
X135957149Y-98884820D01*
X135950028Y-98894802D01*
X135903448Y-98990095D01*
X135900044Y-99001109D01*
X135891194Y-99061768D01*
X135890800Y-99067201D01*
X135890800Y-99732941D01*
X133540600Y-99732941D01*
X133540600Y-95699980D01*
X135890801Y-95699980D01*
X135891202Y-95705449D01*
X135900215Y-95766684D01*
X135903641Y-95777709D01*
X135950385Y-95872917D01*
X135957519Y-95882882D01*
X136032320Y-95957551D01*
X136042302Y-95964672D01*
X136137595Y-96011252D01*
X136148609Y-96014656D01*
X136209268Y-96023506D01*
X136214701Y-96023900D01*
X136880441Y-96023900D01*
X136890598Y-96020203D01*
X136893700Y-96014831D01*
X136893700Y-96010640D01*
X137248500Y-96010640D01*
X137252197Y-96020797D01*
X137257569Y-96023899D01*
X137927480Y-96023899D01*
X137932949Y-96023498D01*
X137994184Y-96014485D01*
X138005209Y-96011059D01*
X138100417Y-95964315D01*
X138110382Y-95957181D01*
X138185051Y-95882380D01*
X138192172Y-95872398D01*
X138238752Y-95777105D01*
X138242156Y-95766091D01*
X138251006Y-95705432D01*
X138251400Y-95699999D01*
X138251400Y-95699980D01*
X138430801Y-95699980D01*
X138431202Y-95705449D01*
X138440215Y-95766684D01*
X138443641Y-95777709D01*
X138490385Y-95872917D01*
X138497519Y-95882882D01*
X138572320Y-95957551D01*
X138582302Y-95964672D01*
X138677595Y-96011252D01*
X138688609Y-96014656D01*
X138749268Y-96023506D01*
X138754701Y-96023900D01*
X139420441Y-96023900D01*
X139430598Y-96020203D01*
X139433700Y-96014831D01*
X139433700Y-96010640D01*
X139788500Y-96010640D01*
X139792197Y-96020797D01*
X139797569Y-96023899D01*
X140467480Y-96023899D01*
X140472949Y-96023498D01*
X140534184Y-96014485D01*
X140545209Y-96011059D01*
X140640417Y-95964315D01*
X140650382Y-95957181D01*
X140725051Y-95882380D01*
X140732172Y-95872398D01*
X140778752Y-95777105D01*
X140782156Y-95766091D01*
X140791006Y-95705432D01*
X140791400Y-95699999D01*
X140791400Y-95034259D01*
X140787703Y-95024102D01*
X140782331Y-95021000D01*
X139801759Y-95021000D01*
X139791602Y-95024697D01*
X139788500Y-95030069D01*
X139788500Y-96010640D01*
X139433700Y-96010640D01*
X139433700Y-95034259D01*
X139430003Y-95024102D01*
X139424631Y-95021000D01*
X138444060Y-95021000D01*
X138433903Y-95024697D01*
X138430801Y-95030069D01*
X138430801Y-95699980D01*
X138251400Y-95699980D01*
X138251400Y-95034259D01*
X138247703Y-95024102D01*
X138242331Y-95021000D01*
X137261759Y-95021000D01*
X137251602Y-95024697D01*
X137248500Y-95030069D01*
X137248500Y-96010640D01*
X136893700Y-96010640D01*
X136893700Y-95034259D01*
X136890003Y-95024102D01*
X136884631Y-95021000D01*
X135904060Y-95021000D01*
X135893903Y-95024697D01*
X135890801Y-95030069D01*
X135890801Y-95699980D01*
X133540600Y-95699980D01*
X133540600Y-94652941D01*
X135890800Y-94652941D01*
X135894497Y-94663098D01*
X135899869Y-94666200D01*
X136880441Y-94666200D01*
X136890598Y-94662503D01*
X136893700Y-94657131D01*
X136893700Y-94652941D01*
X137248500Y-94652941D01*
X137252197Y-94663098D01*
X137257569Y-94666200D01*
X138238140Y-94666200D01*
X138248297Y-94662503D01*
X138251399Y-94657131D01*
X138251399Y-94652941D01*
X138430800Y-94652941D01*
X138434497Y-94663098D01*
X138439869Y-94666200D01*
X139420441Y-94666200D01*
X139430598Y-94662503D01*
X139433700Y-94657131D01*
X139433700Y-94652941D01*
X139788500Y-94652941D01*
X139792197Y-94663098D01*
X139797569Y-94666200D01*
X140778140Y-94666200D01*
X140788297Y-94662503D01*
X140791399Y-94657131D01*
X140791399Y-93987220D01*
X140790998Y-93981751D01*
X140781985Y-93920516D01*
X140778559Y-93909491D01*
X140731815Y-93814283D01*
X140724681Y-93804318D01*
X140649880Y-93729649D01*
X140639898Y-93722528D01*
X140544605Y-93675948D01*
X140533591Y-93672544D01*
X140472932Y-93663694D01*
X140467499Y-93663300D01*
X139801759Y-93663300D01*
X139791602Y-93666997D01*
X139788500Y-93672369D01*
X139788500Y-94652941D01*
X139433700Y-94652941D01*
X139433700Y-93676560D01*
X139430003Y-93666403D01*
X139424631Y-93663301D01*
X138754720Y-93663301D01*
X138749251Y-93663702D01*
X138688016Y-93672715D01*
X138676991Y-93676141D01*
X138581783Y-93722885D01*
X138571818Y-93730019D01*
X138497149Y-93804820D01*
X138490028Y-93814802D01*
X138443448Y-93910095D01*
X138440044Y-93921109D01*
X138431194Y-93981768D01*
X138430800Y-93987201D01*
X138430800Y-94652941D01*
X138251399Y-94652941D01*
X138251399Y-93987220D01*
X138250998Y-93981751D01*
X138241985Y-93920516D01*
X138238559Y-93909491D01*
X138191815Y-93814283D01*
X138184681Y-93804318D01*
X138109880Y-93729649D01*
X138099898Y-93722528D01*
X138004605Y-93675948D01*
X137993591Y-93672544D01*
X137932932Y-93663694D01*
X137927499Y-93663300D01*
X137261759Y-93663300D01*
X137251602Y-93666997D01*
X137248500Y-93672369D01*
X137248500Y-94652941D01*
X136893700Y-94652941D01*
X136893700Y-93676560D01*
X136890003Y-93666403D01*
X136884631Y-93663301D01*
X136214720Y-93663301D01*
X136209251Y-93663702D01*
X136148016Y-93672715D01*
X136136991Y-93676141D01*
X136041783Y-93722885D01*
X136031818Y-93730019D01*
X135957149Y-93804820D01*
X135950028Y-93814802D01*
X135903448Y-93910095D01*
X135900044Y-93921109D01*
X135891194Y-93981768D01*
X135890800Y-93987201D01*
X135890800Y-94652941D01*
X133540600Y-94652941D01*
X133540600Y-92421329D01*
X135939482Y-92421329D01*
X135941067Y-92427247D01*
X135943454Y-92429396D01*
X136232058Y-92663103D01*
X136235237Y-92665413D01*
X136546700Y-92867679D01*
X136550087Y-92869634D01*
X136880989Y-93038238D01*
X136884580Y-93039836D01*
X137231266Y-93172916D01*
X137235023Y-93174137D01*
X137593724Y-93270251D01*
X137597584Y-93271071D01*
X137964361Y-93329163D01*
X137968282Y-93329575D01*
X138339135Y-93349011D01*
X138343065Y-93349011D01*
X138713918Y-93329575D01*
X138717839Y-93329163D01*
X139084616Y-93271071D01*
X139088476Y-93270251D01*
X139447177Y-93174137D01*
X139450934Y-93172916D01*
X139797620Y-93039836D01*
X139801211Y-93038238D01*
X140132113Y-92869634D01*
X140135500Y-92867679D01*
X140446963Y-92665413D01*
X140450142Y-92663103D01*
X140738452Y-92429634D01*
X140742718Y-92420485D01*
X140741113Y-92414494D01*
X138350477Y-90023858D01*
X138340678Y-90019289D01*
X138334687Y-90020894D01*
X135944051Y-92411530D01*
X135939482Y-92421329D01*
X133540600Y-92421329D01*
X133540600Y-89765565D01*
X134755689Y-89765565D01*
X134775125Y-90136418D01*
X134775537Y-90140339D01*
X134833629Y-90507116D01*
X134834449Y-90510976D01*
X134930563Y-90869677D01*
X134931784Y-90873434D01*
X135064864Y-91220120D01*
X135066462Y-91223711D01*
X135235066Y-91554613D01*
X135237021Y-91558000D01*
X135439287Y-91869463D01*
X135441597Y-91872642D01*
X135675066Y-92160952D01*
X135684215Y-92165218D01*
X135690206Y-92163613D01*
X138080842Y-89772977D01*
X138085017Y-89764022D01*
X138596789Y-89764022D01*
X138598394Y-89770013D01*
X140989030Y-92160649D01*
X140998829Y-92165218D01*
X141004747Y-92163633D01*
X141006896Y-92161246D01*
X141240603Y-91872642D01*
X141242913Y-91869463D01*
X141445179Y-91558000D01*
X141447134Y-91554613D01*
X141615738Y-91223711D01*
X141617336Y-91220120D01*
X141750416Y-90873434D01*
X141751637Y-90869677D01*
X141847751Y-90510976D01*
X141848571Y-90507116D01*
X141906663Y-90140339D01*
X141907075Y-90136418D01*
X141926511Y-89765565D01*
X141926511Y-89761635D01*
X141907075Y-89390782D01*
X141906663Y-89386861D01*
X141848571Y-89020084D01*
X141847751Y-89016224D01*
X141751637Y-88657523D01*
X141750416Y-88653766D01*
X141617336Y-88307080D01*
X141615738Y-88303489D01*
X141447134Y-87972587D01*
X141445179Y-87969200D01*
X141242913Y-87657737D01*
X141240603Y-87654558D01*
X141007134Y-87366248D01*
X140997985Y-87361982D01*
X140991994Y-87363587D01*
X138601358Y-89754223D01*
X138596789Y-89764022D01*
X138085017Y-89764022D01*
X138085411Y-89763178D01*
X138083806Y-89757187D01*
X135693170Y-87366551D01*
X135683371Y-87361982D01*
X135677453Y-87363567D01*
X135675304Y-87365954D01*
X135441597Y-87654558D01*
X135439287Y-87657737D01*
X135237021Y-87969200D01*
X135235066Y-87972587D01*
X135066462Y-88303489D01*
X135064864Y-88307080D01*
X134931784Y-88653766D01*
X134930563Y-88657523D01*
X134834449Y-89016224D01*
X134833629Y-89020084D01*
X134775537Y-89386861D01*
X134775125Y-89390782D01*
X134755689Y-89761635D01*
X134755689Y-89765565D01*
X133540600Y-89765565D01*
X133540600Y-87106715D01*
X135939482Y-87106715D01*
X135941087Y-87112706D01*
X138331723Y-89503342D01*
X138341522Y-89507911D01*
X138347513Y-89506306D01*
X140738149Y-87115670D01*
X140742324Y-87106715D01*
X156259482Y-87106715D01*
X156261087Y-87112706D01*
X158651723Y-89503342D01*
X158661522Y-89507911D01*
X158667513Y-89506306D01*
X161058149Y-87115670D01*
X161062718Y-87105871D01*
X161061133Y-87099953D01*
X161058746Y-87097804D01*
X160770142Y-86864097D01*
X160766963Y-86861787D01*
X160455500Y-86659521D01*
X160452113Y-86657566D01*
X160121211Y-86488962D01*
X160117620Y-86487364D01*
X159770934Y-86354284D01*
X159767177Y-86353063D01*
X159408476Y-86256949D01*
X159404616Y-86256129D01*
X159037839Y-86198037D01*
X159033918Y-86197625D01*
X158663065Y-86178189D01*
X158659135Y-86178189D01*
X158288282Y-86197625D01*
X158284361Y-86198037D01*
X157917584Y-86256129D01*
X157913724Y-86256949D01*
X157555023Y-86353063D01*
X157551266Y-86354284D01*
X157204580Y-86487364D01*
X157200989Y-86488962D01*
X156870087Y-86657566D01*
X156866700Y-86659521D01*
X156555237Y-86861787D01*
X156552058Y-86864097D01*
X156263748Y-87097566D01*
X156259482Y-87106715D01*
X140742324Y-87106715D01*
X140742718Y-87105871D01*
X140741133Y-87099953D01*
X140738746Y-87097804D01*
X140450142Y-86864097D01*
X140446963Y-86861787D01*
X140135500Y-86659521D01*
X140132113Y-86657566D01*
X139801211Y-86488962D01*
X139797620Y-86487364D01*
X139450934Y-86354284D01*
X139447177Y-86353063D01*
X139088476Y-86256949D01*
X139084616Y-86256129D01*
X138717839Y-86198037D01*
X138713918Y-86197625D01*
X138343065Y-86178189D01*
X138339135Y-86178189D01*
X137968282Y-86197625D01*
X137964361Y-86198037D01*
X137597584Y-86256129D01*
X137593724Y-86256949D01*
X137235023Y-86353063D01*
X137231266Y-86354284D01*
X136884580Y-86487364D01*
X136880989Y-86488962D01*
X136550087Y-86657566D01*
X136546700Y-86659521D01*
X136235237Y-86861787D01*
X136232058Y-86864097D01*
X135943748Y-87097566D01*
X135939482Y-87106715D01*
X133540600Y-87106715D01*
X133540600Y-85038300D01*
X133558193Y-84989962D01*
X133602742Y-84964242D01*
X133615800Y-84963100D01*
X163386400Y-84963100D01*
X163434738Y-84980693D01*
G37*
%TD.AperFunction*%
%TA.AperFunction,Conductor*%
G36*
X146042730Y-106967293D02*
G01*
X146061396Y-106990760D01*
X146105895Y-107078094D01*
X146108584Y-107083371D01*
X146198829Y-107173616D01*
X146204105Y-107176304D01*
X146204106Y-107176305D01*
X146238639Y-107193900D01*
X146312545Y-107231557D01*
X146318392Y-107232483D01*
X146403974Y-107246038D01*
X146403976Y-107246038D01*
X146406892Y-107246500D01*
X147031751Y-107246500D01*
X147080089Y-107264093D01*
X147084925Y-107268526D01*
X147326825Y-107510426D01*
X147348565Y-107557046D01*
X147335251Y-107606733D01*
X147293114Y-107636238D01*
X147273651Y-107638800D01*
X147104259Y-107638800D01*
X147094102Y-107642497D01*
X147091000Y-107647869D01*
X147091000Y-109335141D01*
X147094697Y-109345298D01*
X147100069Y-109348400D01*
X147425785Y-109348400D01*
X147430675Y-109348080D01*
X147541604Y-109333476D01*
X147551034Y-109330949D01*
X147689061Y-109273776D01*
X147697517Y-109268894D01*
X147793109Y-109195544D01*
X147830145Y-109183867D01*
X147832049Y-109162108D01*
X147840543Y-109148110D01*
X147913894Y-109052517D01*
X147918776Y-109044060D01*
X147947854Y-108973861D01*
X147982607Y-108935936D01*
X148027145Y-108928082D01*
X148029424Y-108928382D01*
X148092646Y-108936705D01*
X148138273Y-108960457D01*
X148157958Y-109007982D01*
X148142490Y-109057041D01*
X148136004Y-109064436D01*
X147953377Y-109247063D01*
X147908427Y-109268024D01*
X147902311Y-109295609D01*
X147892062Y-109308378D01*
X147584407Y-109616033D01*
X147537787Y-109637773D01*
X147515599Y-109636416D01*
X147341921Y-109599500D01*
X147160279Y-109599500D01*
X146982607Y-109637265D01*
X146816670Y-109711145D01*
X146813486Y-109713458D01*
X146813483Y-109713460D01*
X146718042Y-109782802D01*
X146669719Y-109817911D01*
X146667085Y-109820837D01*
X146667081Y-109820840D01*
X146553056Y-109947478D01*
X146548177Y-109952897D01*
X146457357Y-110110203D01*
X146456139Y-110113952D01*
X146416072Y-110237267D01*
X146401227Y-110282954D01*
X146400815Y-110286870D01*
X146400815Y-110286872D01*
X146386510Y-110422976D01*
X146382240Y-110463600D01*
X146382652Y-110467520D01*
X146399309Y-110625994D01*
X146401227Y-110644246D01*
X146402445Y-110647994D01*
X146402445Y-110647995D01*
X146425540Y-110719073D01*
X146457357Y-110816997D01*
X146548177Y-110974303D01*
X146550817Y-110977235D01*
X146667081Y-111106360D01*
X146667085Y-111106363D01*
X146669719Y-111109289D01*
X146672907Y-111111605D01*
X146672909Y-111111607D01*
X146813483Y-111213740D01*
X146813486Y-111213742D01*
X146816670Y-111216055D01*
X146982607Y-111289935D01*
X147160279Y-111327700D01*
X147341921Y-111327700D01*
X147445457Y-111305693D01*
X147496396Y-111312852D01*
X147530816Y-111351080D01*
X147532611Y-111402488D01*
X147514266Y-111432424D01*
X147369216Y-111577474D01*
X147322596Y-111599214D01*
X147316042Y-111599500D01*
X147160279Y-111599500D01*
X146982607Y-111637265D01*
X146816670Y-111711145D01*
X146813486Y-111713458D01*
X146813483Y-111713460D01*
X146672909Y-111815593D01*
X146669719Y-111817911D01*
X146667085Y-111820837D01*
X146667081Y-111820840D01*
X146584745Y-111912284D01*
X146548177Y-111952897D01*
X146457357Y-112110203D01*
X146401227Y-112282954D01*
X146400815Y-112286870D01*
X146400815Y-112286872D01*
X146386978Y-112418521D01*
X146382240Y-112463600D01*
X146382652Y-112467520D01*
X146398322Y-112616604D01*
X146401227Y-112644246D01*
X146402445Y-112647994D01*
X146402445Y-112647995D01*
X146411577Y-112676101D01*
X146457357Y-112816997D01*
X146548177Y-112974303D01*
X146550817Y-112977235D01*
X146667081Y-113106360D01*
X146667085Y-113106363D01*
X146669719Y-113109289D01*
X146672907Y-113111605D01*
X146672909Y-113111607D01*
X146813483Y-113213740D01*
X146813486Y-113213742D01*
X146816670Y-113216055D01*
X146982607Y-113289935D01*
X147160279Y-113327700D01*
X147341921Y-113327700D01*
X147519593Y-113289935D01*
X147685530Y-113216055D01*
X147688714Y-113213742D01*
X147688717Y-113213740D01*
X147829291Y-113111607D01*
X147829293Y-113111605D01*
X147832481Y-113109289D01*
X147835115Y-113106363D01*
X147835119Y-113106360D01*
X147951383Y-112977235D01*
X147954023Y-112974303D01*
X148044843Y-112816997D01*
X148090623Y-112676101D01*
X148099755Y-112647995D01*
X148099755Y-112647994D01*
X148100973Y-112644246D01*
X148103879Y-112616604D01*
X148119548Y-112467520D01*
X148119960Y-112463600D01*
X148118774Y-112452315D01*
X148680354Y-112452315D01*
X148697232Y-112653298D01*
X148698554Y-112660501D01*
X148754148Y-112854384D01*
X148756844Y-112861193D01*
X148849037Y-113040580D01*
X148853008Y-113046741D01*
X148873100Y-113072091D01*
X148882306Y-113077754D01*
X148886715Y-113077103D01*
X149490842Y-112472977D01*
X149495411Y-112463178D01*
X149493806Y-112457187D01*
X148889323Y-111852705D01*
X148879524Y-111848136D01*
X148874864Y-111849384D01*
X148869637Y-111855613D01*
X148865501Y-111861654D01*
X148768335Y-112038399D01*
X148765448Y-112045135D01*
X148704462Y-112237387D01*
X148702940Y-112244544D01*
X148680457Y-112444982D01*
X148680354Y-112452315D01*
X148118774Y-112452315D01*
X148115222Y-112418521D01*
X148101385Y-112286872D01*
X148101385Y-112286870D01*
X148100973Y-112282954D01*
X148044843Y-112110203D01*
X147990648Y-112016334D01*
X147955994Y-111956310D01*
X147955991Y-111956307D01*
X147954023Y-111952897D01*
X147951388Y-111949971D01*
X147950781Y-111949135D01*
X147936604Y-111899687D01*
X147958447Y-111851762D01*
X148519027Y-111291182D01*
X148523248Y-111287538D01*
X148527530Y-111285445D01*
X148533411Y-111279106D01*
X148562038Y-111248245D01*
X148563996Y-111246213D01*
X148578307Y-111231902D01*
X148580270Y-111229042D01*
X148582480Y-111226382D01*
X148582625Y-111226502D01*
X148585208Y-111223268D01*
X148600157Y-111207153D01*
X148600158Y-111207151D01*
X148604878Y-111202063D01*
X148607450Y-111195616D01*
X148607452Y-111195613D01*
X148610258Y-111188579D01*
X148618093Y-111173905D01*
X148622380Y-111167656D01*
X148622381Y-111167655D01*
X148626307Y-111161931D01*
X148632986Y-111133786D01*
X148636302Y-111123299D01*
X148647023Y-111096427D01*
X148647650Y-111090032D01*
X148647650Y-111080792D01*
X148649682Y-111063428D01*
X148650192Y-111061279D01*
X148652567Y-111051272D01*
X148651338Y-111042237D01*
X148648337Y-111020191D01*
X148647650Y-111010050D01*
X148647650Y-110399957D01*
X148665243Y-110351619D01*
X148669676Y-110346783D01*
X148770766Y-110245693D01*
X148817386Y-110223953D01*
X148867073Y-110237267D01*
X148896578Y-110279404D01*
X148898728Y-110306728D01*
X148886510Y-110422976D01*
X148882240Y-110463600D01*
X148882652Y-110467520D01*
X148899309Y-110625994D01*
X148901227Y-110644246D01*
X148902445Y-110647994D01*
X148902445Y-110647995D01*
X148925540Y-110719073D01*
X148957357Y-110816997D01*
X149048177Y-110974303D01*
X149050817Y-110977235D01*
X149167081Y-111106360D01*
X149167085Y-111106363D01*
X149169719Y-111109289D01*
X149172907Y-111111605D01*
X149172909Y-111111607D01*
X149313483Y-111213740D01*
X149313486Y-111213742D01*
X149316670Y-111216055D01*
X149481246Y-111289329D01*
X149482607Y-111289935D01*
X149482456Y-111290274D01*
X149521192Y-111320539D01*
X149531886Y-111370855D01*
X149507736Y-111416273D01*
X149478650Y-111432528D01*
X149353367Y-111469401D01*
X149346580Y-111472143D01*
X149167827Y-111565592D01*
X149161709Y-111569595D01*
X149142259Y-111585234D01*
X149136660Y-111594480D01*
X149137355Y-111598973D01*
X149948807Y-112410426D01*
X149970547Y-112457046D01*
X149957233Y-112506733D01*
X149948807Y-112516774D01*
X149139766Y-113325815D01*
X149135197Y-113335614D01*
X149136471Y-113340368D01*
X149136982Y-113340803D01*
X149142980Y-113344972D01*
X149319052Y-113443374D01*
X149325764Y-113446307D01*
X149517587Y-113508633D01*
X149524735Y-113510205D01*
X149638972Y-113523827D01*
X149684886Y-113547020D01*
X149705151Y-113594300D01*
X149690283Y-113643544D01*
X149683242Y-113651672D01*
X149182490Y-114152424D01*
X149135870Y-114174164D01*
X149129316Y-114174450D01*
X147037966Y-114174451D01*
X146786044Y-114174451D01*
X146741442Y-114183322D01*
X146690866Y-114217116D01*
X146686752Y-114223273D01*
X146675231Y-114240516D01*
X146657072Y-114267692D01*
X146648200Y-114312293D01*
X146648201Y-116242406D01*
X146657072Y-116287008D01*
X146690866Y-116337584D01*
X146697023Y-116341698D01*
X146735283Y-116367263D01*
X146735284Y-116367264D01*
X146741442Y-116371378D01*
X146786043Y-116380250D01*
X148500868Y-116380250D01*
X150216156Y-116380249D01*
X150260758Y-116371378D01*
X150311334Y-116337584D01*
X150345128Y-116287008D01*
X150354000Y-116242407D01*
X150353999Y-114312294D01*
X150354421Y-114312294D01*
X150366628Y-114264678D01*
X150375518Y-114253968D01*
X151230309Y-113399177D01*
X151230312Y-113399173D01*
X151342358Y-113287127D01*
X151348976Y-113281245D01*
X151374106Y-113261434D01*
X151378518Y-113257956D01*
X151402609Y-113223100D01*
X151412901Y-113208208D01*
X151414275Y-113206286D01*
X151446829Y-113162211D01*
X151450168Y-113157691D01*
X151451974Y-113152547D01*
X151452170Y-113152225D01*
X151452313Y-113151933D01*
X151453377Y-113149845D01*
X151453522Y-113149571D01*
X151453668Y-113149224D01*
X151456770Y-113144735D01*
X151475010Y-113087061D01*
X151475743Y-113084865D01*
X151495771Y-113027833D01*
X151495985Y-113022383D01*
X151496245Y-113021356D01*
X151496977Y-113017602D01*
X151498271Y-113013509D01*
X151498800Y-113006788D01*
X151498800Y-112952210D01*
X151498858Y-112949258D01*
X151500054Y-112918807D01*
X151501174Y-112890307D01*
X151499734Y-112884876D01*
X151499254Y-112880526D01*
X151498800Y-112872276D01*
X151498800Y-112020243D01*
X151499321Y-112011404D01*
X151502424Y-111985186D01*
X151503741Y-111974060D01*
X151501751Y-111963160D01*
X151492884Y-111914615D01*
X151492496Y-111912284D01*
X151490603Y-111899687D01*
X151483508Y-111852498D01*
X151481148Y-111847582D01*
X151481057Y-111847210D01*
X151480957Y-111846919D01*
X151480228Y-111844678D01*
X151480137Y-111844383D01*
X151479994Y-111844034D01*
X151479014Y-111838668D01*
X151468232Y-111817911D01*
X151451170Y-111785065D01*
X151450114Y-111782952D01*
X151426365Y-111733496D01*
X151426364Y-111733494D01*
X151423931Y-111728428D01*
X151420229Y-111724423D01*
X151419676Y-111723496D01*
X151417541Y-111720328D01*
X151415569Y-111716532D01*
X151411191Y-111711405D01*
X151372621Y-111672835D01*
X151370574Y-111670707D01*
X151334321Y-111631489D01*
X151330506Y-111627362D01*
X151325646Y-111624539D01*
X151322233Y-111621805D01*
X151316076Y-111616290D01*
X150570548Y-110870762D01*
X150548808Y-110824142D01*
X150552202Y-110794350D01*
X150599757Y-110647990D01*
X150599758Y-110647986D01*
X150600973Y-110644246D01*
X150602239Y-110632208D01*
X150619548Y-110467520D01*
X150619960Y-110463600D01*
X150615690Y-110422976D01*
X150601385Y-110286872D01*
X150601385Y-110286870D01*
X150600973Y-110282954D01*
X150586129Y-110237267D01*
X150546061Y-110113952D01*
X150544843Y-110110203D01*
X150454023Y-109952897D01*
X150387863Y-109879419D01*
X150368593Y-109831725D01*
X150384489Y-109782802D01*
X150428112Y-109755543D01*
X150443747Y-109753900D01*
X150932188Y-109753900D01*
X150980526Y-109771493D01*
X151006246Y-109816042D01*
X151006913Y-109833543D01*
X151006950Y-109833543D01*
X151006951Y-110413656D01*
X151015822Y-110458258D01*
X151049616Y-110508834D01*
X151055773Y-110512948D01*
X151094033Y-110538513D01*
X151094034Y-110538514D01*
X151100192Y-110542628D01*
X151144793Y-110551500D01*
X151292783Y-110551500D01*
X151341119Y-110569092D01*
X151360284Y-110593556D01*
X151364633Y-110602414D01*
X151371769Y-110612382D01*
X151446570Y-110687051D01*
X151456552Y-110694172D01*
X151551845Y-110740752D01*
X151562859Y-110744156D01*
X151623518Y-110753006D01*
X151628951Y-110753400D01*
X151646591Y-110753400D01*
X151656748Y-110749703D01*
X151659850Y-110744331D01*
X151659850Y-110435643D01*
X151661295Y-110420973D01*
X151662029Y-110417284D01*
X151662030Y-110417276D01*
X151662750Y-110413657D01*
X151662749Y-110023799D01*
X151680342Y-109975463D01*
X151724890Y-109949742D01*
X151737949Y-109948600D01*
X151931750Y-109948600D01*
X151980088Y-109966193D01*
X152005808Y-110010742D01*
X152006950Y-110023800D01*
X152006951Y-110223953D01*
X152006951Y-110413656D01*
X152008406Y-110420973D01*
X152009850Y-110435636D01*
X152009850Y-110746673D01*
X152012150Y-110759718D01*
X152012150Y-111798201D01*
X152011629Y-111807039D01*
X152007208Y-111844390D01*
X152008218Y-111849920D01*
X152008218Y-111849923D01*
X152010926Y-111864748D01*
X152012150Y-111878258D01*
X152012150Y-113037866D01*
X151994557Y-113086204D01*
X151990124Y-113091040D01*
X151986891Y-113094273D01*
X151986888Y-113094277D01*
X151374837Y-113706327D01*
X151368219Y-113712209D01*
X151338682Y-113735494D01*
X151335489Y-113740114D01*
X151335488Y-113740115D01*
X151304308Y-113785229D01*
X151302934Y-113787151D01*
X151267032Y-113835759D01*
X151265226Y-113840903D01*
X151265030Y-113841225D01*
X151264887Y-113841517D01*
X151263823Y-113843605D01*
X151263678Y-113843879D01*
X151263532Y-113844226D01*
X151260430Y-113848715D01*
X151258735Y-113854076D01*
X151258734Y-113854077D01*
X151242202Y-113906350D01*
X151241454Y-113908590D01*
X151223290Y-113960312D01*
X151223289Y-113960318D01*
X151221428Y-113965617D01*
X151221214Y-113971066D01*
X151220950Y-113972110D01*
X151220219Y-113975861D01*
X151218929Y-113979941D01*
X151218400Y-113986662D01*
X151218400Y-114041215D01*
X151218342Y-114044167D01*
X151216025Y-114103143D01*
X151217466Y-114108579D01*
X151217946Y-114112923D01*
X151218400Y-114121176D01*
X151218400Y-117959117D01*
X151200807Y-118007455D01*
X151196374Y-118012291D01*
X150714790Y-118493874D01*
X150668170Y-118515614D01*
X150661616Y-118515900D01*
X150429199Y-118515900D01*
X150380861Y-118498307D01*
X150355141Y-118453758D01*
X150353999Y-118440700D01*
X150353999Y-118212294D01*
X150345128Y-118167692D01*
X150311334Y-118117116D01*
X150302217Y-118111024D01*
X150266917Y-118087437D01*
X150266916Y-118087436D01*
X150260758Y-118083322D01*
X150216157Y-118074450D01*
X149889647Y-118074450D01*
X147169135Y-118074451D01*
X147120797Y-118056858D01*
X147115961Y-118052425D01*
X146123326Y-117059790D01*
X146101586Y-117013170D01*
X146101300Y-117006616D01*
X146101300Y-113131493D01*
X146101821Y-113122654D01*
X146102927Y-113113313D01*
X146106241Y-113085310D01*
X146104862Y-113077754D01*
X146095383Y-113025857D01*
X146094995Y-113023527D01*
X146094885Y-113022790D01*
X146091478Y-113000129D01*
X146086844Y-112969306D01*
X146086843Y-112969303D01*
X146086008Y-112963748D01*
X146083648Y-112958835D01*
X146083560Y-112958473D01*
X146083456Y-112958170D01*
X146082728Y-112955928D01*
X146082635Y-112955625D01*
X146082494Y-112955281D01*
X146081515Y-112949918D01*
X146071349Y-112930348D01*
X146053657Y-112896290D01*
X146052601Y-112894176D01*
X146028867Y-112844750D01*
X146028865Y-112844747D01*
X146026431Y-112839678D01*
X146022726Y-112835670D01*
X146022166Y-112834731D01*
X146020041Y-112831577D01*
X146018069Y-112827782D01*
X146013691Y-112822655D01*
X145975121Y-112784085D01*
X145973074Y-112781957D01*
X145936821Y-112742739D01*
X145933006Y-112738612D01*
X145928146Y-112735789D01*
X145924733Y-112733055D01*
X145918576Y-112727540D01*
X144719623Y-111528587D01*
X144713741Y-111521969D01*
X144693934Y-111496844D01*
X144690456Y-111492432D01*
X144685598Y-111489074D01*
X144640721Y-111458058D01*
X144638799Y-111456684D01*
X144625536Y-111446888D01*
X144590191Y-111420782D01*
X144585047Y-111418976D01*
X144584725Y-111418780D01*
X144584433Y-111418637D01*
X144582345Y-111417573D01*
X144582071Y-111417428D01*
X144581724Y-111417282D01*
X144577235Y-111414180D01*
X144571874Y-111412485D01*
X144571873Y-111412484D01*
X144519600Y-111395952D01*
X144517360Y-111395204D01*
X144465638Y-111377040D01*
X144465632Y-111377039D01*
X144460333Y-111375178D01*
X144454884Y-111374964D01*
X144453840Y-111374700D01*
X144450089Y-111373969D01*
X144446009Y-111372679D01*
X144441418Y-111372318D01*
X144440764Y-111372266D01*
X144440760Y-111372266D01*
X144439288Y-111372150D01*
X144384735Y-111372150D01*
X144381783Y-111372092D01*
X144379316Y-111371995D01*
X144322807Y-111369775D01*
X144317371Y-111371216D01*
X144313027Y-111371696D01*
X144304774Y-111372150D01*
X143824499Y-111372150D01*
X143776161Y-111354557D01*
X143750441Y-111310008D01*
X143749299Y-111296950D01*
X143749299Y-111167094D01*
X143740428Y-111122492D01*
X143706634Y-111071916D01*
X143685845Y-111058025D01*
X143662217Y-111042237D01*
X143662216Y-111042236D01*
X143656058Y-111038122D01*
X143611457Y-111029250D01*
X143524488Y-111029250D01*
X142822685Y-111029251D01*
X142774347Y-111011658D01*
X142769510Y-111007225D01*
X142616110Y-110853824D01*
X142594371Y-110807204D01*
X142607685Y-110757517D01*
X142649822Y-110728012D01*
X142669285Y-110725450D01*
X143565571Y-110725449D01*
X143611456Y-110725449D01*
X143656058Y-110716578D01*
X143706634Y-110682784D01*
X143726594Y-110652912D01*
X143736313Y-110638367D01*
X143736314Y-110638366D01*
X143740428Y-110632208D01*
X143749300Y-110587607D01*
X143749299Y-109262094D01*
X143740428Y-109217492D01*
X143706634Y-109166916D01*
X143699438Y-109162108D01*
X143662217Y-109137237D01*
X143662216Y-109137236D01*
X143656058Y-109133122D01*
X143648796Y-109131677D01*
X143648795Y-109131677D01*
X143617636Y-109125479D01*
X143573660Y-109098793D01*
X143557126Y-109050082D01*
X143575770Y-109002140D01*
X143617638Y-108977969D01*
X143656058Y-108970328D01*
X143703679Y-108938509D01*
X143753643Y-108926283D01*
X143799778Y-108949034D01*
X143814932Y-108972258D01*
X143844674Y-109044061D01*
X143849556Y-109052517D01*
X143940503Y-109171042D01*
X143947408Y-109177947D01*
X144065933Y-109268894D01*
X144074390Y-109273776D01*
X144212417Y-109330949D01*
X144221846Y-109333476D01*
X144332775Y-109348080D01*
X144337665Y-109348400D01*
X144659191Y-109348400D01*
X144669348Y-109344703D01*
X144672450Y-109339331D01*
X144672450Y-109335141D01*
X145027250Y-109335141D01*
X145030947Y-109345298D01*
X145036319Y-109348400D01*
X145362035Y-109348400D01*
X145366925Y-109348080D01*
X145477854Y-109333476D01*
X145487284Y-109330949D01*
X145625311Y-109273776D01*
X145633767Y-109268894D01*
X145752292Y-109177947D01*
X145759197Y-109171042D01*
X145822065Y-109089110D01*
X145865448Y-109061472D01*
X145916448Y-109068186D01*
X145941385Y-109089110D01*
X146004253Y-109171042D01*
X146011158Y-109177947D01*
X146129683Y-109268894D01*
X146138140Y-109273776D01*
X146276167Y-109330949D01*
X146285596Y-109333476D01*
X146396525Y-109348080D01*
X146401415Y-109348400D01*
X146722941Y-109348400D01*
X146733098Y-109344703D01*
X146736200Y-109339331D01*
X146736200Y-108684259D01*
X146732503Y-108674102D01*
X146727131Y-108671000D01*
X145040509Y-108671000D01*
X145030352Y-108674697D01*
X145027250Y-108680069D01*
X145027250Y-109335141D01*
X144672450Y-109335141D01*
X144672450Y-108302941D01*
X145027250Y-108302941D01*
X145030947Y-108313098D01*
X145036319Y-108316200D01*
X146722941Y-108316200D01*
X146733098Y-108312503D01*
X146736200Y-108307131D01*
X146736200Y-107652059D01*
X146732503Y-107641902D01*
X146727131Y-107638800D01*
X146401415Y-107638800D01*
X146396525Y-107639120D01*
X146285596Y-107653724D01*
X146276166Y-107656251D01*
X146138139Y-107713424D01*
X146129683Y-107718306D01*
X146011158Y-107809253D01*
X146004253Y-107816158D01*
X145941385Y-107898090D01*
X145898002Y-107925728D01*
X145847002Y-107919014D01*
X145822065Y-107898090D01*
X145759197Y-107816158D01*
X145752292Y-107809253D01*
X145633767Y-107718306D01*
X145625310Y-107713424D01*
X145487283Y-107656251D01*
X145477854Y-107653724D01*
X145366925Y-107639120D01*
X145362035Y-107638800D01*
X145040509Y-107638800D01*
X145030352Y-107642497D01*
X145027250Y-107647869D01*
X145027250Y-108302941D01*
X144672450Y-108302941D01*
X144672450Y-107652059D01*
X144668753Y-107641902D01*
X144663381Y-107638800D01*
X144337665Y-107638800D01*
X144330322Y-107639281D01*
X144280938Y-107624885D01*
X144252361Y-107582113D01*
X144257963Y-107530979D01*
X144272233Y-107511068D01*
X144514775Y-107268526D01*
X144561395Y-107246786D01*
X144567949Y-107246500D01*
X145356558Y-107246500D01*
X145359474Y-107246038D01*
X145359476Y-107246038D01*
X145445058Y-107232483D01*
X145450905Y-107231557D01*
X145524811Y-107193900D01*
X145559344Y-107176305D01*
X145559345Y-107176304D01*
X145564621Y-107173616D01*
X145654866Y-107083371D01*
X145657555Y-107078094D01*
X145702054Y-106990760D01*
X145739675Y-106955678D01*
X145769058Y-106949700D01*
X145994392Y-106949700D01*
X146042730Y-106967293D01*
G37*
%TD.AperFunction*%
%TA.AperFunction,Conductor*%
G36*
X153283647Y-108002635D02*
G01*
X153306533Y-108018292D01*
X153844517Y-108556276D01*
X153866257Y-108602896D01*
X153852943Y-108652583D01*
X153810806Y-108682088D01*
X153781527Y-108684007D01*
X153744734Y-108679163D01*
X153739850Y-108678520D01*
X153734966Y-108679163D01*
X153586507Y-108698708D01*
X153586504Y-108698709D01*
X153581626Y-108699351D01*
X153577079Y-108701235D01*
X153577077Y-108701235D01*
X153507906Y-108729887D01*
X153434185Y-108760423D01*
X153430281Y-108763419D01*
X153430277Y-108763421D01*
X153323982Y-108844984D01*
X153307574Y-108857574D01*
X153304576Y-108861481D01*
X153213421Y-108980277D01*
X153213419Y-108980281D01*
X153210423Y-108984185D01*
X153181125Y-109054916D01*
X153152586Y-109123817D01*
X153149351Y-109131626D01*
X153148709Y-109136504D01*
X153148708Y-109136507D01*
X153131279Y-109268894D01*
X153128520Y-109289850D01*
X153129163Y-109294734D01*
X153139947Y-109376642D01*
X153149351Y-109448074D01*
X153151235Y-109452621D01*
X153151235Y-109452623D01*
X153179887Y-109521795D01*
X153210423Y-109595515D01*
X153213419Y-109599419D01*
X153213421Y-109599423D01*
X153295733Y-109706694D01*
X153307574Y-109722126D01*
X153311481Y-109725124D01*
X153430277Y-109816279D01*
X153430281Y-109816281D01*
X153434185Y-109819277D01*
X153468629Y-109833544D01*
X153577077Y-109878465D01*
X153577079Y-109878465D01*
X153581626Y-109880349D01*
X153586504Y-109880991D01*
X153586507Y-109880992D01*
X153734966Y-109900537D01*
X153739850Y-109901180D01*
X153798281Y-109893487D01*
X153848499Y-109904621D01*
X153861269Y-109914870D01*
X154249255Y-110302856D01*
X154259258Y-110315241D01*
X154266575Y-110326574D01*
X154271451Y-110330418D01*
X154271453Y-110330420D01*
X154293320Y-110347658D01*
X154299938Y-110353540D01*
X154302718Y-110356320D01*
X154305244Y-110358125D01*
X154305245Y-110358126D01*
X154318275Y-110367438D01*
X154321106Y-110369564D01*
X154354171Y-110395629D01*
X154359675Y-110399968D01*
X154365541Y-110402028D01*
X154366589Y-110402604D01*
X154367306Y-110403055D01*
X154367862Y-110403344D01*
X154368629Y-110403665D01*
X154369716Y-110404197D01*
X154374771Y-110407810D01*
X154421831Y-110421884D01*
X154425162Y-110422965D01*
X154471529Y-110439248D01*
X154476748Y-110439700D01*
X154478104Y-110439700D01*
X154482712Y-110440090D01*
X154488352Y-110441777D01*
X154539742Y-110439758D01*
X154542695Y-110439700D01*
X156337501Y-110439700D01*
X156385839Y-110457293D01*
X156411559Y-110501842D01*
X156412701Y-110514900D01*
X156412701Y-110924156D01*
X156421572Y-110968758D01*
X156455366Y-111019334D01*
X156461523Y-111023448D01*
X156499783Y-111049013D01*
X156499784Y-111049014D01*
X156505942Y-111053128D01*
X156513206Y-111054573D01*
X156514750Y-111054880D01*
X156550543Y-111062000D01*
X157390986Y-111062000D01*
X158231656Y-111061999D01*
X158265931Y-111055182D01*
X158316772Y-111063008D01*
X158350688Y-111101683D01*
X158355800Y-111128937D01*
X158355800Y-111578262D01*
X158338207Y-111626600D01*
X158293658Y-111652320D01*
X158265929Y-111652017D01*
X158235282Y-111645921D01*
X158235281Y-111645921D01*
X158231657Y-111645200D01*
X157391214Y-111645200D01*
X156550544Y-111645201D01*
X156505942Y-111654072D01*
X156455377Y-111687858D01*
X156405413Y-111700084D01*
X156359278Y-111677333D01*
X156338400Y-111625331D01*
X156338400Y-111476415D01*
X156338080Y-111471525D01*
X156323476Y-111360596D01*
X156320949Y-111351166D01*
X156263776Y-111213139D01*
X156258894Y-111204683D01*
X156167947Y-111086158D01*
X156161042Y-111079253D01*
X156042517Y-110988306D01*
X156034060Y-110983424D01*
X155896033Y-110926251D01*
X155886604Y-110923724D01*
X155775675Y-110909120D01*
X155770785Y-110908800D01*
X155674259Y-110908800D01*
X155664102Y-110912497D01*
X155661000Y-110917869D01*
X155661000Y-112090800D01*
X155643407Y-112139138D01*
X155598858Y-112164858D01*
X155585800Y-112166000D01*
X154642059Y-112166000D01*
X154631902Y-112169697D01*
X154628800Y-112175069D01*
X154628800Y-112500785D01*
X154629120Y-112505675D01*
X154643724Y-112616604D01*
X154646251Y-112626034D01*
X154703424Y-112764061D01*
X154708308Y-112772521D01*
X154720397Y-112788276D01*
X154735864Y-112837335D01*
X154716178Y-112884859D01*
X154670550Y-112908610D01*
X154655818Y-112909092D01*
X154503556Y-112899112D01*
X154498644Y-112899112D01*
X154207967Y-112918164D01*
X154203083Y-112918807D01*
X154120495Y-112935234D01*
X154069653Y-112927409D01*
X154035737Y-112888734D01*
X154034615Y-112837306D01*
X154063983Y-112800714D01*
X154063307Y-112799783D01*
X154066721Y-112797302D01*
X154066812Y-112797189D01*
X154067091Y-112797034D01*
X154068096Y-112796304D01*
X154073371Y-112793616D01*
X154163616Y-112703371D01*
X154188734Y-112654075D01*
X154218870Y-112594928D01*
X154221557Y-112589655D01*
X154233100Y-112516774D01*
X154236038Y-112498226D01*
X154236038Y-112498224D01*
X154236500Y-112495308D01*
X154236500Y-111797941D01*
X154628800Y-111797941D01*
X154632497Y-111808098D01*
X154637869Y-111811200D01*
X155292941Y-111811200D01*
X155303098Y-111807503D01*
X155306200Y-111802131D01*
X155306200Y-110922059D01*
X155302503Y-110911902D01*
X155297131Y-110908800D01*
X155196415Y-110908800D01*
X155191525Y-110909120D01*
X155080596Y-110923724D01*
X155071166Y-110926251D01*
X154933139Y-110983424D01*
X154924683Y-110988306D01*
X154806158Y-111079253D01*
X154799253Y-111086158D01*
X154708306Y-111204683D01*
X154703424Y-111213140D01*
X154646251Y-111351167D01*
X154643724Y-111360596D01*
X154629120Y-111471525D01*
X154628800Y-111476415D01*
X154628800Y-111797941D01*
X154236500Y-111797941D01*
X154236500Y-111481892D01*
X154235787Y-111477387D01*
X154223108Y-111397338D01*
X154221557Y-111387545D01*
X154182050Y-111310008D01*
X154166305Y-111279106D01*
X154166304Y-111279105D01*
X154163616Y-111273829D01*
X154073371Y-111183584D01*
X154048264Y-111170791D01*
X153967727Y-111129756D01*
X153959655Y-111125643D01*
X153900874Y-111116333D01*
X153868226Y-111111162D01*
X153868224Y-111111162D01*
X153865308Y-111110700D01*
X153301892Y-111110700D01*
X153298976Y-111111162D01*
X153298974Y-111111162D01*
X153266326Y-111116333D01*
X153207545Y-111125643D01*
X153199473Y-111129756D01*
X153118937Y-111170791D01*
X153093829Y-111183584D01*
X153055924Y-111221489D01*
X153009304Y-111243229D01*
X152959617Y-111229915D01*
X152930112Y-111187778D01*
X152927550Y-111168315D01*
X152927550Y-110684212D01*
X152927133Y-110681435D01*
X152927132Y-110681428D01*
X152913920Y-110593556D01*
X152912258Y-110582498D01*
X152852681Y-110458428D01*
X152795081Y-110396117D01*
X152763073Y-110361491D01*
X152763072Y-110361490D01*
X152759256Y-110357362D01*
X152700179Y-110323047D01*
X152667218Y-110283556D01*
X152662750Y-110258021D01*
X152662749Y-109837241D01*
X152662749Y-109833544D01*
X152653878Y-109788942D01*
X152620084Y-109738366D01*
X152600266Y-109725124D01*
X152575667Y-109708687D01*
X152575666Y-109708686D01*
X152569508Y-109704572D01*
X152524907Y-109695700D01*
X152376917Y-109695700D01*
X152328581Y-109678108D01*
X152309416Y-109653644D01*
X152305067Y-109644786D01*
X152297931Y-109634818D01*
X152223130Y-109560149D01*
X152213148Y-109553028D01*
X152117855Y-109506448D01*
X152106841Y-109503044D01*
X152069952Y-109497662D01*
X152024660Y-109473275D01*
X152005641Y-109425480D01*
X152021793Y-109376642D01*
X152027628Y-109370082D01*
X152102785Y-109294925D01*
X152106999Y-109291288D01*
X152111280Y-109289195D01*
X152145776Y-109252008D01*
X152147733Y-109249977D01*
X152162057Y-109235653D01*
X152164018Y-109232795D01*
X152166233Y-109230129D01*
X152166378Y-109230249D01*
X152168963Y-109227012D01*
X152170317Y-109225553D01*
X152216090Y-109202084D01*
X152225444Y-109201500D01*
X152493022Y-109201499D01*
X152524906Y-109201499D01*
X152569508Y-109192628D01*
X152620084Y-109158834D01*
X152635012Y-109136493D01*
X152649763Y-109114417D01*
X152649764Y-109114416D01*
X152653878Y-109108258D01*
X152662750Y-109063657D01*
X152662749Y-108483544D01*
X152653878Y-108438942D01*
X152635934Y-108412087D01*
X152623707Y-108362121D01*
X152646458Y-108315986D01*
X152665318Y-108302805D01*
X152754917Y-108258815D01*
X152764882Y-108251681D01*
X152839551Y-108176880D01*
X152846670Y-108166900D01*
X152850690Y-108158676D01*
X152887724Y-108122975D01*
X152918250Y-108116500D01*
X153058536Y-108116499D01*
X153066156Y-108116499D01*
X153110758Y-108107628D01*
X153161334Y-108073834D01*
X153190833Y-108029686D01*
X153232317Y-107999270D01*
X153283647Y-108002635D01*
G37*
%TD.AperFunction*%
%TD*%
M02*
